<?xml version="1.0" encoding="utf-8" standalone="no"?>
<!DOCTYPE svg PUBLIC "-//W3C//DTD SVG 1.1//EN"
  "http://www.w3.org/Graphics/SVG/1.1/DTD/svg11.dtd">
<svg xmlns:xlink="http://www.w3.org/1999/xlink" width="460.8pt" height="345.6pt" viewBox="0 0 460.8 345.6" xmlns="http://www.w3.org/2000/svg" version="1.1">
 <metadata>
  <rdf:RDF xmlns:dc="http://purl.org/dc/elements/1.1/" xmlns:cc="http://creativecommons.org/ns#" xmlns:rdf="http://www.w3.org/1999/02/22-rdf-syntax-ns#">
   <cc:Work>
    <dc:type rdf:resource="http://purl.org/dc/dcmitype/StillImage"/>
    <dc:date>2024-10-04T17:20:30.051646</dc:date>
    <dc:format>image/svg+xml</dc:format>
    <dc:creator>
     <cc:Agent>
      <dc:title>Matplotlib v3.9.2, https://matplotlib.org/</dc:title>
     </cc:Agent>
    </dc:creator>
   </cc:Work>
  </rdf:RDF>
 </metadata>
 <defs>
  <style type="text/css">*{stroke-linejoin: round; stroke-linecap: butt}</style>
 </defs>
 <g id="figure_1">
  <g id="patch_1">
   <path d="M 0 345.6 
L 460.8 345.6 
L 460.8 0 
L 0 0 
z
" style="fill: #ffffff"/>
  </g>
  <g id="axes_1">
   <g id="patch_2">
    <path d="M 57.6 307.584 
L 414.72 307.584 
L 414.72 41.472 
L 57.6 41.472 
z
" style="fill: #ffffff"/>
   </g>
   <g id="matplotlib.axis_1">
    <g id="xtick_1">
     <g id="line2d_1">
      <defs>
       <path id="maeb47883a2" d="M 0 0 
L 0 3.5 
" style="stroke: #000000; stroke-width: 0.8"/>
      </defs>
      <g>
       <use xlink:href="#maeb47883a2" x="73.832727" y="307.584" style="stroke: #000000; stroke-width: 0.8"/>
      </g>
     </g>
     <g id="text_1">
      <!-- 0 -->
      <g transform="translate(70.651477 322.182437) scale(0.1 -0.1)">
       <defs>
        <path id="DejaVuSans-30" d="M 2034 4250 
Q 1547 4250 1301 3770 
Q 1056 3291 1056 2328 
Q 1056 1369 1301 889 
Q 1547 409 2034 409 
Q 2525 409 2770 889 
Q 3016 1369 3016 2328 
Q 3016 3291 2770 3770 
Q 2525 4250 2034 4250 
z
M 2034 4750 
Q 2819 4750 3233 4129 
Q 3647 3509 3647 2328 
Q 3647 1150 3233 529 
Q 2819 -91 2034 -91 
Q 1250 -91 836 529 
Q 422 1150 422 2328 
Q 422 3509 836 4129 
Q 1250 4750 2034 4750 
z
" transform="scale(0.015625)"/>
       </defs>
       <use xlink:href="#DejaVuSans-30"/>
      </g>
     </g>
    </g>
    <g id="xtick_2">
     <g id="line2d_2">
      <g>
       <use xlink:href="#maeb47883a2" x="138.776625" y="307.584" style="stroke: #000000; stroke-width: 0.8"/>
      </g>
     </g>
     <g id="text_2">
      <!-- 1000 -->
      <g transform="translate(126.051625 322.182437) scale(0.1 -0.1)">
       <defs>
        <path id="DejaVuSans-31" d="M 794 531 
L 1825 531 
L 1825 4091 
L 703 3866 
L 703 4441 
L 1819 4666 
L 2450 4666 
L 2450 531 
L 3481 531 
L 3481 0 
L 794 0 
L 794 531 
z
" transform="scale(0.015625)"/>
       </defs>
       <use xlink:href="#DejaVuSans-31"/>
       <use xlink:href="#DejaVuSans-30" x="63.623047"/>
       <use xlink:href="#DejaVuSans-30" x="127.246094"/>
       <use xlink:href="#DejaVuSans-30" x="190.869141"/>
      </g>
     </g>
    </g>
    <g id="xtick_3">
     <g id="line2d_3">
      <g>
       <use xlink:href="#maeb47883a2" x="203.720523" y="307.584" style="stroke: #000000; stroke-width: 0.8"/>
      </g>
     </g>
     <g id="text_3">
      <!-- 2000 -->
      <g transform="translate(190.995523 322.182437) scale(0.1 -0.1)">
       <defs>
        <path id="DejaVuSans-32" d="M 1228 531 
L 3431 531 
L 3431 0 
L 469 0 
L 469 531 
Q 828 903 1448 1529 
Q 2069 2156 2228 2338 
Q 2531 2678 2651 2914 
Q 2772 3150 2772 3378 
Q 2772 3750 2511 3984 
Q 2250 4219 1831 4219 
Q 1534 4219 1204 4116 
Q 875 4013 500 3803 
L 500 4441 
Q 881 4594 1212 4672 
Q 1544 4750 1819 4750 
Q 2544 4750 2975 4387 
Q 3406 4025 3406 3419 
Q 3406 3131 3298 2873 
Q 3191 2616 2906 2266 
Q 2828 2175 2409 1742 
Q 1991 1309 1228 531 
z
" transform="scale(0.015625)"/>
       </defs>
       <use xlink:href="#DejaVuSans-32"/>
       <use xlink:href="#DejaVuSans-30" x="63.623047"/>
       <use xlink:href="#DejaVuSans-30" x="127.246094"/>
       <use xlink:href="#DejaVuSans-30" x="190.869141"/>
      </g>
     </g>
    </g>
    <g id="xtick_4">
     <g id="line2d_4">
      <g>
       <use xlink:href="#maeb47883a2" x="268.664421" y="307.584" style="stroke: #000000; stroke-width: 0.8"/>
      </g>
     </g>
     <g id="text_4">
      <!-- 3000 -->
      <g transform="translate(255.939421 322.182437) scale(0.1 -0.1)">
       <defs>
        <path id="DejaVuSans-33" d="M 2597 2516 
Q 3050 2419 3304 2112 
Q 3559 1806 3559 1356 
Q 3559 666 3084 287 
Q 2609 -91 1734 -91 
Q 1441 -91 1130 -33 
Q 819 25 488 141 
L 488 750 
Q 750 597 1062 519 
Q 1375 441 1716 441 
Q 2309 441 2620 675 
Q 2931 909 2931 1356 
Q 2931 1769 2642 2001 
Q 2353 2234 1838 2234 
L 1294 2234 
L 1294 2753 
L 1863 2753 
Q 2328 2753 2575 2939 
Q 2822 3125 2822 3475 
Q 2822 3834 2567 4026 
Q 2313 4219 1838 4219 
Q 1578 4219 1281 4162 
Q 984 4106 628 3988 
L 628 4550 
Q 988 4650 1302 4700 
Q 1616 4750 1894 4750 
Q 2613 4750 3031 4423 
Q 3450 4097 3450 3541 
Q 3450 3153 3228 2886 
Q 3006 2619 2597 2516 
z
" transform="scale(0.015625)"/>
       </defs>
       <use xlink:href="#DejaVuSans-33"/>
       <use xlink:href="#DejaVuSans-30" x="63.623047"/>
       <use xlink:href="#DejaVuSans-30" x="127.246094"/>
       <use xlink:href="#DejaVuSans-30" x="190.869141"/>
      </g>
     </g>
    </g>
    <g id="xtick_5">
     <g id="line2d_5">
      <g>
       <use xlink:href="#maeb47883a2" x="333.608319" y="307.584" style="stroke: #000000; stroke-width: 0.8"/>
      </g>
     </g>
     <g id="text_5">
      <!-- 4000 -->
      <g transform="translate(320.883319 322.182437) scale(0.1 -0.1)">
       <defs>
        <path id="DejaVuSans-34" d="M 2419 4116 
L 825 1625 
L 2419 1625 
L 2419 4116 
z
M 2253 4666 
L 3047 4666 
L 3047 1625 
L 3713 1625 
L 3713 1100 
L 3047 1100 
L 3047 0 
L 2419 0 
L 2419 1100 
L 313 1100 
L 313 1709 
L 2253 4666 
z
" transform="scale(0.015625)"/>
       </defs>
       <use xlink:href="#DejaVuSans-34"/>
       <use xlink:href="#DejaVuSans-30" x="63.623047"/>
       <use xlink:href="#DejaVuSans-30" x="127.246094"/>
       <use xlink:href="#DejaVuSans-30" x="190.869141"/>
      </g>
     </g>
    </g>
    <g id="xtick_6">
     <g id="line2d_6">
      <g>
       <use xlink:href="#maeb47883a2" x="398.552217" y="307.584" style="stroke: #000000; stroke-width: 0.8"/>
      </g>
     </g>
     <g id="text_6">
      <!-- 5000 -->
      <g transform="translate(385.827217 322.182437) scale(0.1 -0.1)">
       <defs>
        <path id="DejaVuSans-35" d="M 691 4666 
L 3169 4666 
L 3169 4134 
L 1269 4134 
L 1269 2991 
Q 1406 3038 1543 3061 
Q 1681 3084 1819 3084 
Q 2600 3084 3056 2656 
Q 3513 2228 3513 1497 
Q 3513 744 3044 326 
Q 2575 -91 1722 -91 
Q 1428 -91 1123 -41 
Q 819 9 494 109 
L 494 744 
Q 775 591 1075 516 
Q 1375 441 1709 441 
Q 2250 441 2565 725 
Q 2881 1009 2881 1497 
Q 2881 1984 2565 2268 
Q 2250 2553 1709 2553 
Q 1456 2553 1204 2497 
Q 953 2441 691 2322 
L 691 4666 
z
" transform="scale(0.015625)"/>
       </defs>
       <use xlink:href="#DejaVuSans-35"/>
       <use xlink:href="#DejaVuSans-30" x="63.623047"/>
       <use xlink:href="#DejaVuSans-30" x="127.246094"/>
       <use xlink:href="#DejaVuSans-30" x="190.869141"/>
      </g>
     </g>
    </g>
    <g id="text_7">
     <!-- measurement # -->
     <g transform="translate(195.501406 335.860562) scale(0.1 -0.1)">
      <defs>
       <path id="DejaVuSans-6d" d="M 3328 2828 
Q 3544 3216 3844 3400 
Q 4144 3584 4550 3584 
Q 5097 3584 5394 3201 
Q 5691 2819 5691 2113 
L 5691 0 
L 5113 0 
L 5113 2094 
Q 5113 2597 4934 2840 
Q 4756 3084 4391 3084 
Q 3944 3084 3684 2787 
Q 3425 2491 3425 1978 
L 3425 0 
L 2847 0 
L 2847 2094 
Q 2847 2600 2669 2842 
Q 2491 3084 2119 3084 
Q 1678 3084 1418 2786 
Q 1159 2488 1159 1978 
L 1159 0 
L 581 0 
L 581 3500 
L 1159 3500 
L 1159 2956 
Q 1356 3278 1631 3431 
Q 1906 3584 2284 3584 
Q 2666 3584 2933 3390 
Q 3200 3197 3328 2828 
z
" transform="scale(0.015625)"/>
       <path id="DejaVuSans-65" d="M 3597 1894 
L 3597 1613 
L 953 1613 
Q 991 1019 1311 708 
Q 1631 397 2203 397 
Q 2534 397 2845 478 
Q 3156 559 3463 722 
L 3463 178 
Q 3153 47 2828 -22 
Q 2503 -91 2169 -91 
Q 1331 -91 842 396 
Q 353 884 353 1716 
Q 353 2575 817 3079 
Q 1281 3584 2069 3584 
Q 2775 3584 3186 3129 
Q 3597 2675 3597 1894 
z
M 3022 2063 
Q 3016 2534 2758 2815 
Q 2500 3097 2075 3097 
Q 1594 3097 1305 2825 
Q 1016 2553 972 2059 
L 3022 2063 
z
" transform="scale(0.015625)"/>
       <path id="DejaVuSans-61" d="M 2194 1759 
Q 1497 1759 1228 1600 
Q 959 1441 959 1056 
Q 959 750 1161 570 
Q 1363 391 1709 391 
Q 2188 391 2477 730 
Q 2766 1069 2766 1631 
L 2766 1759 
L 2194 1759 
z
M 3341 1997 
L 3341 0 
L 2766 0 
L 2766 531 
Q 2569 213 2275 61 
Q 1981 -91 1556 -91 
Q 1019 -91 701 211 
Q 384 513 384 1019 
Q 384 1609 779 1909 
Q 1175 2209 1959 2209 
L 2766 2209 
L 2766 2266 
Q 2766 2663 2505 2880 
Q 2244 3097 1772 3097 
Q 1472 3097 1187 3025 
Q 903 2953 641 2809 
L 641 3341 
Q 956 3463 1253 3523 
Q 1550 3584 1831 3584 
Q 2591 3584 2966 3190 
Q 3341 2797 3341 1997 
z
" transform="scale(0.015625)"/>
       <path id="DejaVuSans-73" d="M 2834 3397 
L 2834 2853 
Q 2591 2978 2328 3040 
Q 2066 3103 1784 3103 
Q 1356 3103 1142 2972 
Q 928 2841 928 2578 
Q 928 2378 1081 2264 
Q 1234 2150 1697 2047 
L 1894 2003 
Q 2506 1872 2764 1633 
Q 3022 1394 3022 966 
Q 3022 478 2636 193 
Q 2250 -91 1575 -91 
Q 1294 -91 989 -36 
Q 684 19 347 128 
L 347 722 
Q 666 556 975 473 
Q 1284 391 1588 391 
Q 1994 391 2212 530 
Q 2431 669 2431 922 
Q 2431 1156 2273 1281 
Q 2116 1406 1581 1522 
L 1381 1569 
Q 847 1681 609 1914 
Q 372 2147 372 2553 
Q 372 3047 722 3315 
Q 1072 3584 1716 3584 
Q 2034 3584 2315 3537 
Q 2597 3491 2834 3397 
z
" transform="scale(0.015625)"/>
       <path id="DejaVuSans-75" d="M 544 1381 
L 544 3500 
L 1119 3500 
L 1119 1403 
Q 1119 906 1312 657 
Q 1506 409 1894 409 
Q 2359 409 2629 706 
Q 2900 1003 2900 1516 
L 2900 3500 
L 3475 3500 
L 3475 0 
L 2900 0 
L 2900 538 
Q 2691 219 2414 64 
Q 2138 -91 1772 -91 
Q 1169 -91 856 284 
Q 544 659 544 1381 
z
M 1991 3584 
L 1991 3584 
z
" transform="scale(0.015625)"/>
       <path id="DejaVuSans-72" d="M 2631 2963 
Q 2534 3019 2420 3045 
Q 2306 3072 2169 3072 
Q 1681 3072 1420 2755 
Q 1159 2438 1159 1844 
L 1159 0 
L 581 0 
L 581 3500 
L 1159 3500 
L 1159 2956 
Q 1341 3275 1631 3429 
Q 1922 3584 2338 3584 
Q 2397 3584 2469 3576 
Q 2541 3569 2628 3553 
L 2631 2963 
z
" transform="scale(0.015625)"/>
       <path id="DejaVuSans-6e" d="M 3513 2113 
L 3513 0 
L 2938 0 
L 2938 2094 
Q 2938 2591 2744 2837 
Q 2550 3084 2163 3084 
Q 1697 3084 1428 2787 
Q 1159 2491 1159 1978 
L 1159 0 
L 581 0 
L 581 3500 
L 1159 3500 
L 1159 2956 
Q 1366 3272 1645 3428 
Q 1925 3584 2291 3584 
Q 2894 3584 3203 3211 
Q 3513 2838 3513 2113 
z
" transform="scale(0.015625)"/>
       <path id="DejaVuSans-74" d="M 1172 4494 
L 1172 3500 
L 2356 3500 
L 2356 3053 
L 1172 3053 
L 1172 1153 
Q 1172 725 1289 603 
Q 1406 481 1766 481 
L 2356 481 
L 2356 0 
L 1766 0 
Q 1100 0 847 248 
Q 594 497 594 1153 
L 594 3053 
L 172 3053 
L 172 3500 
L 594 3500 
L 594 4494 
L 1172 4494 
z
" transform="scale(0.015625)"/>
       <path id="DejaVuSans-20" transform="scale(0.015625)"/>
       <path id="DejaVuSans-23" d="M 3272 2816 
L 2363 2816 
L 2100 1772 
L 3016 1772 
L 3272 2816 
z
M 2803 4594 
L 2478 3297 
L 3391 3297 
L 3719 4594 
L 4219 4594 
L 3897 3297 
L 4872 3297 
L 4872 2816 
L 3775 2816 
L 3519 1772 
L 4513 1772 
L 4513 1294 
L 3397 1294 
L 3072 0 
L 2572 0 
L 2894 1294 
L 1978 1294 
L 1656 0 
L 1153 0 
L 1478 1294 
L 494 1294 
L 494 1772 
L 1594 1772 
L 1856 2816 
L 850 2816 
L 850 3297 
L 1978 3297 
L 2297 4594 
L 2803 4594 
z
" transform="scale(0.015625)"/>
      </defs>
      <use xlink:href="#DejaVuSans-6d"/>
      <use xlink:href="#DejaVuSans-65" x="97.412109"/>
      <use xlink:href="#DejaVuSans-61" x="158.935547"/>
      <use xlink:href="#DejaVuSans-73" x="220.214844"/>
      <use xlink:href="#DejaVuSans-75" x="272.314453"/>
      <use xlink:href="#DejaVuSans-72" x="335.693359"/>
      <use xlink:href="#DejaVuSans-65" x="374.556641"/>
      <use xlink:href="#DejaVuSans-6d" x="436.080078"/>
      <use xlink:href="#DejaVuSans-65" x="533.492188"/>
      <use xlink:href="#DejaVuSans-6e" x="595.015625"/>
      <use xlink:href="#DejaVuSans-74" x="658.394531"/>
      <use xlink:href="#DejaVuSans-20" x="697.603516"/>
      <use xlink:href="#DejaVuSans-23" x="729.390625"/>
     </g>
    </g>
   </g>
   <g id="matplotlib.axis_2">
    <g id="ytick_1">
     <g id="line2d_7">
      <defs>
       <path id="m414f7b68d1" d="M 0 0 
L -3.5 0 
" style="stroke: #000000; stroke-width: 0.8"/>
      </defs>
      <g>
       <use xlink:href="#m414f7b68d1" x="57.6" y="307.416707" style="stroke: #000000; stroke-width: 0.8"/>
      </g>
     </g>
     <g id="text_8">
      <!-- 0 -->
      <g transform="translate(44.2375 311.215926) scale(0.1 -0.1)">
       <use xlink:href="#DejaVuSans-30"/>
      </g>
     </g>
    </g>
    <g id="ytick_2">
     <g id="line2d_8">
      <g>
       <use xlink:href="#m414f7b68d1" x="57.6" y="271.048698" style="stroke: #000000; stroke-width: 0.8"/>
      </g>
     </g>
     <g id="text_9">
      <!-- 250 -->
      <g transform="translate(31.5125 274.847916) scale(0.1 -0.1)">
       <use xlink:href="#DejaVuSans-32"/>
       <use xlink:href="#DejaVuSans-35" x="63.623047"/>
       <use xlink:href="#DejaVuSans-30" x="127.246094"/>
      </g>
     </g>
    </g>
    <g id="ytick_3">
     <g id="line2d_9">
      <g>
       <use xlink:href="#m414f7b68d1" x="57.6" y="234.680688" style="stroke: #000000; stroke-width: 0.8"/>
      </g>
     </g>
     <g id="text_10">
      <!-- 500 -->
      <g transform="translate(31.5125 238.479907) scale(0.1 -0.1)">
       <use xlink:href="#DejaVuSans-35"/>
       <use xlink:href="#DejaVuSans-30" x="63.623047"/>
       <use xlink:href="#DejaVuSans-30" x="127.246094"/>
      </g>
     </g>
    </g>
    <g id="ytick_4">
     <g id="line2d_10">
      <g>
       <use xlink:href="#m414f7b68d1" x="57.6" y="198.312678" style="stroke: #000000; stroke-width: 0.8"/>
      </g>
     </g>
     <g id="text_11">
      <!-- 750 -->
      <g transform="translate(31.5125 202.111897) scale(0.1 -0.1)">
       <defs>
        <path id="DejaVuSans-37" d="M 525 4666 
L 3525 4666 
L 3525 4397 
L 1831 0 
L 1172 0 
L 2766 4134 
L 525 4134 
L 525 4666 
z
" transform="scale(0.015625)"/>
       </defs>
       <use xlink:href="#DejaVuSans-37"/>
       <use xlink:href="#DejaVuSans-35" x="63.623047"/>
       <use xlink:href="#DejaVuSans-30" x="127.246094"/>
      </g>
     </g>
    </g>
    <g id="ytick_5">
     <g id="line2d_11">
      <g>
       <use xlink:href="#m414f7b68d1" x="57.6" y="161.944669" style="stroke: #000000; stroke-width: 0.8"/>
      </g>
     </g>
     <g id="text_12">
      <!-- 1000 -->
      <g transform="translate(25.15 165.743887) scale(0.1 -0.1)">
       <use xlink:href="#DejaVuSans-31"/>
       <use xlink:href="#DejaVuSans-30" x="63.623047"/>
       <use xlink:href="#DejaVuSans-30" x="127.246094"/>
       <use xlink:href="#DejaVuSans-30" x="190.869141"/>
      </g>
     </g>
    </g>
    <g id="ytick_6">
     <g id="line2d_12">
      <g>
       <use xlink:href="#m414f7b68d1" x="57.6" y="125.576659" style="stroke: #000000; stroke-width: 0.8"/>
      </g>
     </g>
     <g id="text_13">
      <!-- 1250 -->
      <g transform="translate(25.15 129.375878) scale(0.1 -0.1)">
       <use xlink:href="#DejaVuSans-31"/>
       <use xlink:href="#DejaVuSans-32" x="63.623047"/>
       <use xlink:href="#DejaVuSans-35" x="127.246094"/>
       <use xlink:href="#DejaVuSans-30" x="190.869141"/>
      </g>
     </g>
    </g>
    <g id="ytick_7">
     <g id="line2d_13">
      <g>
       <use xlink:href="#m414f7b68d1" x="57.6" y="89.208649" style="stroke: #000000; stroke-width: 0.8"/>
      </g>
     </g>
     <g id="text_14">
      <!-- 1500 -->
      <g transform="translate(25.15 93.007868) scale(0.1 -0.1)">
       <use xlink:href="#DejaVuSans-31"/>
       <use xlink:href="#DejaVuSans-35" x="63.623047"/>
       <use xlink:href="#DejaVuSans-30" x="127.246094"/>
       <use xlink:href="#DejaVuSans-30" x="190.869141"/>
      </g>
     </g>
    </g>
    <g id="ytick_8">
     <g id="line2d_14">
      <g>
       <use xlink:href="#m414f7b68d1" x="57.6" y="52.84064" style="stroke: #000000; stroke-width: 0.8"/>
      </g>
     </g>
     <g id="text_15">
      <!-- 1750 -->
      <g transform="translate(25.15 56.639859) scale(0.1 -0.1)">
       <use xlink:href="#DejaVuSans-31"/>
       <use xlink:href="#DejaVuSans-37" x="63.623047"/>
       <use xlink:href="#DejaVuSans-35" x="127.246094"/>
       <use xlink:href="#DejaVuSans-30" x="190.869141"/>
      </g>
     </g>
    </g>
    <g id="text_16">
     <!-- time -->
     <g transform="translate(19.070312 185.824094) rotate(-90) scale(0.1 -0.1)">
      <defs>
       <path id="DejaVuSans-69" d="M 603 3500 
L 1178 3500 
L 1178 0 
L 603 0 
L 603 3500 
z
M 603 4863 
L 1178 4863 
L 1178 4134 
L 603 4134 
L 603 4863 
z
" transform="scale(0.015625)"/>
      </defs>
      <use xlink:href="#DejaVuSans-74"/>
      <use xlink:href="#DejaVuSans-69" x="39.208984"/>
      <use xlink:href="#DejaVuSans-6d" x="66.992188"/>
      <use xlink:href="#DejaVuSans-65" x="164.404297"/>
     </g>
    </g>
   </g>
   <g id="line2d_15">
    <path d="M 73.832727 293.305919 
L 73.962615 292.724031 
L 87.730721 292.724031 
L 87.860609 291.705727 
L 88.055441 291.705727 
L 88.185329 291.560255 
L 89.614094 291.560255 
L 89.743982 291.123839 
L 89.808926 291.123839 
L 89.938814 271.485114 
L 90.068702 271.339642 
L 90.19859 271.339642 
L 90.328477 271.19417 
L 90.653197 271.19417 
L 90.783085 271.048698 
L 91.302636 271.048698 
L 91.432524 270.903225 
L 91.952075 270.903225 
L 92.081963 270.757753 
L 92.406682 270.757753 
L 92.53657 270.612281 
L 92.991177 270.612281 
L 93.056121 270.466809 
L 93.121065 265.957176 
L 93.250953 241.517874 
L 93.380841 241.517874 
L 93.510728 241.372402 
L 93.900392 241.372402 
L 94.03028 241.22693 
L 94.354999 241.22693 
L 94.484887 241.081458 
L 96.173428 241.081458 
L 96.303316 240.935986 
L 98.056801 240.935986 
L 98.186689 240.790514 
L 100.19995 240.790514 
L 100.329838 240.645041 
L 102.797706 240.645041 
L 102.927594 240.499569 
L 104.940854 240.499569 
L 105.070742 240.354097 
L 105.850069 240.354097 
L 105.979957 240.208625 
L 107.084003 240.208625 
L 107.213891 240.063153 
L 108.188049 240.063153 
L 108.317937 239.917681 
L 108.577713 239.917681 
L 108.7076 239.772209 
L 109.03232 239.772209 
L 109.162208 239.626737 
L 109.616815 239.626737 
L 109.746703 239.481265 
L 110.266254 239.481265 
L 110.396142 239.335793 
L 110.52603 239.335793 
L 110.655917 239.190321 
L 110.850749 239.190321 
L 110.980637 239.044849 
L 111.175469 239.044849 
L 111.305356 238.899377 
L 111.824908 238.899377 
L 111.954795 238.753905 
L 112.474347 238.753905 
L 112.604234 238.608433 
L 113.513449 238.608433 
L 113.643337 238.462961 
L 114.162888 238.462961 
L 114.292776 238.317489 
L 114.487607 238.317489 
L 114.617495 238.172017 
L 114.812327 238.172017 
L 114.942215 237.881073 
L 115.072102 237.881073 
L 115.20199 237.735601 
L 115.331878 237.735601 
L 115.461766 237.590129 
L 115.656598 237.590129 
L 115.851429 237.299185 
L 115.916373 237.299185 
L 116.046261 237.153713 
L 116.111205 237.153713 
L 116.37098 236.426352 
L 116.500868 236.426352 
L 116.760644 235.989936 
L 116.890532 235.989936 
L 117.085363 235.698992 
L 117.150307 235.698992 
L 117.345139 235.408048 
L 117.669858 235.408048 
L 117.799746 235.262576 
L 118.18941 235.262576 
L 118.384241 234.971632 
L 118.579073 234.971632 
L 118.708961 234.82616 
L 118.773905 234.82616 
L 118.968736 234.535216 
L 119.03368 234.535216 
L 119.228512 234.244272 
L 119.423344 234.244272 
L 120.267614 232.498607 
L 120.397502 232.498607 
L 120.657278 232.062191 
L 120.722222 232.062191 
L 121.046941 231.480303 
L 121.111885 231.480303 
L 121.436604 230.025583 
L 121.761324 229.298222 
L 121.891212 228.42539 
L 121.956156 228.42539 
L 122.086043 228.279918 
L 122.150987 228.279918 
L 122.345819 227.843502 
L 122.410763 227.843502 
L 122.475707 227.69803 
L 122.605595 227.261614 
L 122.670538 227.261614 
L 122.735482 227.116142 
L 122.86537 226.534254 
L 123.125146 226.097838 
L 123.969416 226.097838 
L 124.099304 225.952366 
L 124.878631 225.952366 
L 125.008519 225.806894 
L 126.112565 225.806894 
L 126.242453 225.661422 
L 127.736163 225.661422 
L 127.86605 225.515949 
L 128.580433 225.515949 
L 128.710321 225.370477 
L 129.684479 225.370477 
L 129.814367 225.225005 
L 130.85347 225.225005 
L 130.983357 225.079533 
L 131.243133 225.079533 
L 131.373021 224.934061 
L 131.69774 224.934061 
L 131.827628 224.788589 
L 132.217291 224.788589 
L 132.347179 224.643117 
L 132.412123 224.643117 
L 132.542011 224.497645 
L 132.86673 224.497645 
L 133.061562 224.206701 
L 133.386282 224.206701 
L 133.516169 224.061229 
L 134.035721 224.061229 
L 134.165608 223.915757 
L 134.879991 223.915757 
L 135.009879 223.770285 
L 135.334599 223.770285 
L 135.464486 223.624813 
L 136.308757 223.624813 
L 136.438645 223.479341 
L 137.542691 223.479341 
L 137.672579 223.333869 
L 138.581793 223.333869 
L 138.711681 223.188397 
L 138.971457 223.188397 
L 139.101345 223.042925 
L 139.750784 223.042925 
L 139.880671 222.897453 
L 140.400223 222.897453 
L 140.53011 222.751981 
L 140.659998 222.751981 
L 140.789886 222.606509 
L 140.984718 222.606509 
L 141.114605 222.461037 
L 141.634157 222.461037 
L 141.764044 222.315565 
L 142.088764 222.315565 
L 142.218652 222.170093 
L 142.478427 222.170093 
L 142.608315 222.024621 
L 143.322698 222.024621 
L 143.452586 221.879149 
L 143.712361 221.879149 
L 143.842249 221.733676 
L 144.037081 221.733676 
L 144.166969 221.588204 
L 144.231913 221.588204 
L 144.3618 221.442732 
L 144.68652 221.442732 
L 144.816408 221.29726 
L 145.011239 221.29726 
L 145.141127 221.151788 
L 145.271015 221.151788 
L 145.400903 221.006316 
L 145.595734 221.006316 
L 145.725622 220.860844 
L 145.790566 220.860844 
L 145.920454 220.715372 
L 146.115286 220.715372 
L 146.245173 220.5699 
L 146.375061 220.5699 
L 146.504949 220.424428 
L 146.894612 220.424428 
L 147.0245 220.278956 
L 147.284276 220.278956 
L 147.414164 220.133484 
L 147.544051 220.133484 
L 147.673939 219.988012 
L 147.738883 219.988012 
L 147.868771 219.84254 
L 149.6872 219.84254 
L 149.817088 219.697068 
L 157.545412 219.697068 
L 157.675299 219.551596 
L 168.261155 219.551596 
L 168.391043 219.406124 
L 180.730383 219.406124 
L 180.860271 219.260652 
L 199.758945 219.260652 
L 199.888833 219.11518 
L 215.929976 219.11518 
L 216.059864 218.969708 
L 230.217633 218.969708 
L 230.347521 218.824236 
L 247.752486 218.824236 
L 247.882374 218.678764 
L 255.091146 218.678764 
L 255.221034 218.533292 
L 257.364183 218.533292 
L 257.49407 218.38782 
L 260.416546 218.38782 
L 260.546434 218.242348 
L 262.299919 218.242348 
L 262.429807 218.096876 
L 264.443068 218.096876 
L 264.572955 217.951403 
L 265.677002 217.951403 
L 265.806889 217.805931 
L 267.235655 217.805931 
L 267.365543 217.660459 
L 273.14555 217.660459 
L 273.275438 217.514987 
L 283.211854 217.514987 
L 283.341742 217.369515 
L 293.14827 217.369515 
L 293.278158 217.224043 
L 306.331882 217.224043 
L 306.461769 217.078571 
L 324.061566 217.078571 
L 324.191454 216.933099 
L 335.166972 216.933099 
L 335.29686 216.787627 
L 349.584518 216.787627 
L 349.714405 216.642155 
L 364.131951 216.642155 
L 364.261839 216.496683 
L 369.392406 216.496683 
L 369.522294 216.351211 
L 371.795331 216.351211 
L 371.925218 216.205739 
L 374.522974 216.205739 
L 374.652862 216.060267 
L 376.146572 216.060267 
L 376.27646 215.914795 
L 377.770169 215.914795 
L 377.900057 215.769323 
L 379.198935 215.769323 
L 379.328823 215.623851 
L 381.147252 215.623851 
L 381.27714 215.478379 
L 382.056467 215.478379 
L 382.186354 215.332907 
L 382.511074 215.332907 
L 382.640962 215.187435 
L 382.900737 215.187435 
L 383.030625 215.041963 
L 383.290401 215.041963 
L 383.420288 214.896491 
L 383.874896 214.896491 
L 384.004784 214.751019 
L 384.069727 214.751019 
L 384.264559 214.460075 
L 384.459391 214.460075 
L 384.589279 214.314603 
L 384.978942 214.314603 
L 385.10883 214.16913 
L 385.628381 214.16913 
L 385.758269 214.023658 
L 386.212876 214.023658 
L 386.342764 213.878186 
L 386.732427 213.878186 
L 386.862315 213.732714 
L 387.511754 213.732714 
L 387.641642 213.587242 
L 388.680744 213.587242 
L 388.810632 213.44177 
L 390.10951 213.44177 
L 390.239398 213.296298 
L 390.823893 213.296298 
L 390.953781 213.150826 
L 391.733107 213.150826 
L 391.862995 213.005354 
L 392.317602 213.005354 
L 392.44749 212.859882 
L 392.77221 212.859882 
L 392.902098 212.71441 
L 393.096929 212.71441 
L 393.291761 212.423466 
L 393.356705 212.423466 
L 393.551536 212.132522 
L 393.681424 212.132522 
L 393.876256 211.841578 
L 394.071088 211.841578 
L 394.200975 211.550634 
L 394.265919 211.550634 
L 394.460751 211.114218 
L 394.525695 211.114218 
L 394.655583 210.386857 
L 394.720527 210.386857 
L 395.11019 209.514025 
L 395.499853 203.840616 
L 395.824573 202.240423 
L 396.474012 193.657573 
L 396.6039 192.930213 
L 396.733787 186.238499 
L 396.863675 185.802083 
L 396.993563 185.511139 
L 397.383226 169.509215 
L 397.513114 158.45334 
L 397.578058 157.871452 
L 397.77289 152.343514 
L 397.967722 151.761626 
L 398.032665 148.415769 
L 398.227497 92.409034 
L 398.422329 89.790538 
L 398.487273 89.790538 
L 398.487273 89.790538 
" clip-path="url(#p895a91cd91)" style="fill: none; stroke: #1f77b4; stroke-width: 1.5; stroke-linecap: square"/>
   </g>
   <g id="line2d_16">
    <path d="M 73.832727 295.488 
L 73.962615 293.305919 
L 74.027559 293.305919 
L 74.157447 292.724031 
L 90.393421 292.724031 
L 90.588253 291.705727 
L 90.783085 291.705727 
L 90.912972 291.560255 
L 92.081963 291.560255 
L 92.21185 271.339642 
L 92.666458 271.339642 
L 92.796345 271.19417 
L 93.186009 271.19417 
L 93.315897 271.048698 
L 93.575672 271.048698 
L 93.70556 270.903225 
L 94.549831 270.903225 
L 94.679718 270.757753 
L 94.87455 270.757753 
L 95.004438 270.612281 
L 95.329157 270.612281 
L 95.459045 270.466809 
L 95.588933 270.466809 
L 95.653877 270.175865 
L 95.783765 241.663346 
L 95.848709 241.663346 
L 95.978596 241.517874 
L 96.04354 241.517874 
L 96.173428 241.372402 
L 96.498148 241.372402 
L 96.628035 241.22693 
L 97.082643 241.22693 
L 97.212531 241.081458 
L 98.446465 241.081458 
L 98.576352 240.935986 
L 100.394782 240.935986 
L 100.524669 240.790514 
L 102.213211 240.790514 
L 102.343098 240.645041 
L 104.87591 240.645041 
L 105.005798 240.499569 
L 106.174788 240.499569 
L 106.304676 240.354097 
L 107.084003 240.354097 
L 107.213891 240.208625 
L 107.993218 240.208625 
L 108.123105 240.063153 
L 108.642657 240.063153 
L 108.772544 239.917681 
L 109.162208 239.917681 
L 109.292096 239.772209 
L 109.486927 239.772209 
L 109.616815 239.626737 
L 109.681759 239.626737 
L 109.811647 239.481265 
L 110.331198 239.481265 
L 110.461086 239.335793 
L 110.52603 239.335793 
L 110.655917 239.190321 
L 110.720861 239.190321 
L 110.850749 239.044849 
L 111.240412 239.044849 
L 111.3703 238.899377 
L 111.759964 238.899377 
L 111.889851 238.753905 
L 112.019739 238.753905 
L 112.149627 238.608433 
L 112.928954 238.608433 
L 113.058842 238.462961 
L 114.097944 238.462961 
L 114.227832 238.317489 
L 114.292776 238.317489 
L 114.422663 238.172017 
L 114.552551 238.172017 
L 114.682439 238.026545 
L 114.942215 238.026545 
L 115.072102 237.881073 
L 115.396822 237.881073 
L 115.591654 237.590129 
L 115.786485 237.590129 
L 115.916373 237.444657 
L 116.241093 237.444657 
L 116.37098 237.299185 
L 116.435924 237.299185 
L 116.630756 236.862768 
L 116.760644 236.862768 
L 117.020419 236.426352 
L 117.215251 236.426352 
L 117.604914 235.698992 
L 117.929634 235.698992 
L 118.059522 235.55352 
L 118.254353 235.55352 
L 118.449185 235.262576 
L 118.644017 235.262576 
L 118.773905 235.117104 
L 118.838848 235.117104 
L 118.968736 234.971632 
L 119.293456 234.971632 
L 119.423344 234.82616 
L 119.618175 234.82616 
L 119.748063 234.680688 
L 119.813007 234.680688 
L 119.942895 234.535216 
L 120.007839 234.535216 
L 120.20267 234.244272 
L 120.267614 234.244272 
L 120.397502 233.953328 
L 120.462446 233.953328 
L 120.592334 233.662384 
L 120.787165 233.080495 
L 120.981997 232.789551 
L 121.046941 232.789551 
L 121.176829 232.062191 
L 121.241773 232.062191 
L 121.371661 231.771247 
L 121.501548 231.771247 
L 121.826268 231.189359 
L 121.891212 231.189359 
L 122.086043 230.752943 
L 122.215931 230.752943 
L 122.410763 230.461999 
L 122.540651 230.461999 
L 122.86537 229.880111 
L 122.995258 229.880111 
L 123.255034 229.443695 
L 123.449865 228.42539 
L 123.579753 228.279918 
L 123.774585 227.407086 
L 123.969416 227.116142 
L 124.099304 227.116142 
L 124.229192 226.97067 
L 124.294136 226.97067 
L 124.488968 226.679726 
L 124.553912 226.679726 
L 124.683799 226.534254 
L 124.813687 226.534254 
L 124.943575 226.388782 
L 125.073463 226.388782 
L 125.20335 226.24331 
L 125.398182 226.24331 
L 125.52807 226.097838 
L 126.177509 226.097838 
L 126.307397 225.952366 
L 126.956836 225.952366 
L 127.086724 225.806894 
L 127.86605 225.806894 
L 127.995938 225.661422 
L 129.164928 225.661422 
L 129.294816 225.515949 
L 130.009199 225.515949 
L 130.139087 225.370477 
L 130.52875 225.370477 
L 130.658638 225.225005 
L 131.632796 225.225005 
L 131.762684 225.079533 
L 132.282235 225.079533 
L 132.477067 224.788589 
L 132.931674 224.788589 
L 133.061562 224.643117 
L 133.256394 224.643117 
L 133.386282 224.497645 
L 133.451226 224.497645 
L 133.581113 224.352173 
L 133.711001 224.352173 
L 133.905833 224.061229 
L 134.555272 224.061229 
L 134.68516 223.915757 
L 135.269655 223.915757 
L 135.399542 223.770285 
L 136.048981 223.770285 
L 136.178869 223.624813 
L 137.088084 223.624813 
L 137.217972 223.479341 
L 138.257074 223.479341 
L 138.386962 223.333869 
L 138.841569 223.333869 
L 138.971457 223.188397 
L 139.945615 223.188397 
L 140.075503 223.042925 
L 140.724942 223.042925 
L 140.85483 222.897453 
L 141.309437 222.897453 
L 141.439325 222.751981 
L 141.699101 222.751981 
L 141.828988 222.606509 
L 142.088764 222.606509 
L 142.218652 222.461037 
L 143.062922 222.461037 
L 143.19281 222.315565 
L 143.647417 222.315565 
L 143.777305 222.170093 
L 143.972137 222.170093 
L 144.102025 222.024621 
L 144.3618 222.024621 
L 144.491688 221.879149 
L 144.68652 221.879149 
L 144.881352 221.588204 
L 145.011239 221.588204 
L 145.141127 221.442732 
L 145.400903 221.442732 
L 145.595734 221.151788 
L 145.660678 221.151788 
L 145.790566 221.006316 
L 146.050342 221.006316 
L 146.18023 220.860844 
L 146.375061 220.860844 
L 146.504949 220.715372 
L 146.634837 220.715372 
L 146.764725 220.5699 
L 146.829668 220.5699 
L 146.959556 220.424428 
L 147.219332 220.424428 
L 147.34922 220.278956 
L 147.608995 220.278956 
L 147.738883 220.133484 
L 147.868771 220.133484 
L 147.998659 219.988012 
L 148.063603 219.988012 
L 148.19349 219.84254 
L 150.986078 219.84254 
L 151.115966 219.697068 
L 160.078224 219.697068 
L 160.208111 219.551596 
L 170.01464 219.551596 
L 170.144528 219.406124 
L 184.237354 219.406124 
L 184.367241 219.260652 
L 203.785467 219.260652 
L 203.915355 219.11518 
L 219.891554 219.11518 
L 220.021441 218.969708 
L 233.724604 218.969708 
L 233.854492 218.824236 
L 250.804849 218.824236 
L 250.934737 218.678764 
L 258.98778 218.678764 
L 259.117668 218.533292 
L 261.910256 218.533292 
L 262.040143 218.38782 
L 264.572955 218.38782 
L 264.702843 218.242348 
L 266.910936 218.242348 
L 267.040823 218.096876 
L 268.794309 218.096876 
L 268.924196 217.951403 
L 270.417906 217.951403 
L 270.547794 217.805931 
L 272.496111 217.805931 
L 272.625999 217.660459 
L 279.31522 217.660459 
L 279.445108 217.514987 
L 288.277478 217.514987 
L 288.407366 217.369515 
L 296.97996 217.369515 
L 297.109848 217.224043 
L 310.293459 217.224043 
L 310.423347 217.078571 
L 326.854153 217.078571 
L 326.984041 216.933099 
L 339.842933 216.933099 
L 339.972821 216.787627 
L 352.377105 216.787627 
L 352.506993 216.642155 
L 366.664763 216.642155 
L 366.794651 216.496683 
L 370.301621 216.496683 
L 370.431509 216.351211 
L 372.704545 216.351211 
L 372.834433 216.205739 
L 375.237357 216.205739 
L 375.367245 216.060267 
L 377.250618 216.060267 
L 377.380506 215.914795 
L 378.419608 215.914795 
L 378.549496 215.769323 
L 380.043206 215.769323 
L 380.173094 215.623851 
L 382.381186 215.623851 
L 382.511074 215.478379 
L 383.550176 215.478379 
L 383.680064 215.332907 
L 384.134671 215.332907 
L 384.264559 215.187435 
L 384.589279 215.187435 
L 384.719166 215.041963 
L 384.78411 215.041963 
L 384.913998 214.896491 
L 385.10883 214.896491 
L 385.238718 214.751019 
L 385.303661 214.751019 
L 385.498493 214.460075 
L 385.563437 214.460075 
L 385.693325 214.314603 
L 386.018044 214.314603 
L 386.147932 214.16913 
L 386.537596 214.16913 
L 386.667483 214.023658 
L 387.057147 214.023658 
L 387.187034 213.878186 
L 388.031305 213.878186 
L 388.161193 213.732714 
L 388.680744 213.732714 
L 388.810632 213.587242 
L 389.654903 213.587242 
L 389.78479 213.44177 
L 391.083668 213.44177 
L 391.213556 213.296298 
L 392.057827 213.296298 
L 392.187715 213.150826 
L 392.317602 213.150826 
L 392.44749 213.005354 
L 392.642322 213.005354 
L 392.77221 212.859882 
L 393.226817 212.859882 
L 393.486593 212.423466 
L 393.551536 212.423466 
L 393.811312 211.98705 
L 393.9412 211.98705 
L 394.071088 211.841578 
L 394.136032 211.841578 
L 394.460751 211.25969 
L 394.525695 211.25969 
L 395.045246 208.059305 
L 395.240078 205.731752 
L 395.629741 200.640231 
L 395.889517 195.985126 
L 395.954461 195.54871 
L 396.344124 184.056419 
L 396.474012 183.47453 
L 397.188395 157.580508 
L 397.253339 157.580508 
L 397.383226 155.980315 
L 397.643002 152.198042 
L 397.77289 151.907098 
L 397.967722 143.033304 
L 398.162553 92.554506 
L 398.357385 91.099786 
L 398.422329 88.335817 
L 398.487273 53.568 
L 398.487273 53.568 
" clip-path="url(#p895a91cd91)" style="fill: none; stroke: #ff7f0e; stroke-width: 1.5; stroke-linecap: square"/>
   </g>
   <g id="patch_3">
    <path d="M 57.6 307.584 
L 57.6 41.472 
" style="fill: none; stroke: #000000; stroke-width: 0.8; stroke-linejoin: miter; stroke-linecap: square"/>
   </g>
   <g id="patch_4">
    <path d="M 414.72 307.584 
L 414.72 41.472 
" style="fill: none; stroke: #000000; stroke-width: 0.8; stroke-linejoin: miter; stroke-linecap: square"/>
   </g>
   <g id="patch_5">
    <path d="M 57.6 307.584 
L 414.72 307.584 
" style="fill: none; stroke: #000000; stroke-width: 0.8; stroke-linejoin: miter; stroke-linecap: square"/>
   </g>
   <g id="patch_6">
    <path d="M 57.6 41.472 
L 414.72 41.472 
" style="fill: none; stroke: #000000; stroke-width: 0.8; stroke-linejoin: miter; stroke-linecap: square"/>
   </g>
   <g id="text_17">
    <!-- pointer array backwards detection test (reference) -->
    <g transform="translate(84.107812 35.472) scale(0.12 -0.12)">
     <defs>
      <path id="DejaVuSans-70" d="M 1159 525 
L 1159 -1331 
L 581 -1331 
L 581 3500 
L 1159 3500 
L 1159 2969 
Q 1341 3281 1617 3432 
Q 1894 3584 2278 3584 
Q 2916 3584 3314 3078 
Q 3713 2572 3713 1747 
Q 3713 922 3314 415 
Q 2916 -91 2278 -91 
Q 1894 -91 1617 61 
Q 1341 213 1159 525 
z
M 3116 1747 
Q 3116 2381 2855 2742 
Q 2594 3103 2138 3103 
Q 1681 3103 1420 2742 
Q 1159 2381 1159 1747 
Q 1159 1113 1420 752 
Q 1681 391 2138 391 
Q 2594 391 2855 752 
Q 3116 1113 3116 1747 
z
" transform="scale(0.015625)"/>
      <path id="DejaVuSans-6f" d="M 1959 3097 
Q 1497 3097 1228 2736 
Q 959 2375 959 1747 
Q 959 1119 1226 758 
Q 1494 397 1959 397 
Q 2419 397 2687 759 
Q 2956 1122 2956 1747 
Q 2956 2369 2687 2733 
Q 2419 3097 1959 3097 
z
M 1959 3584 
Q 2709 3584 3137 3096 
Q 3566 2609 3566 1747 
Q 3566 888 3137 398 
Q 2709 -91 1959 -91 
Q 1206 -91 779 398 
Q 353 888 353 1747 
Q 353 2609 779 3096 
Q 1206 3584 1959 3584 
z
" transform="scale(0.015625)"/>
      <path id="DejaVuSans-79" d="M 2059 -325 
Q 1816 -950 1584 -1140 
Q 1353 -1331 966 -1331 
L 506 -1331 
L 506 -850 
L 844 -850 
Q 1081 -850 1212 -737 
Q 1344 -625 1503 -206 
L 1606 56 
L 191 3500 
L 800 3500 
L 1894 763 
L 2988 3500 
L 3597 3500 
L 2059 -325 
z
" transform="scale(0.015625)"/>
      <path id="DejaVuSans-62" d="M 3116 1747 
Q 3116 2381 2855 2742 
Q 2594 3103 2138 3103 
Q 1681 3103 1420 2742 
Q 1159 2381 1159 1747 
Q 1159 1113 1420 752 
Q 1681 391 2138 391 
Q 2594 391 2855 752 
Q 3116 1113 3116 1747 
z
M 1159 2969 
Q 1341 3281 1617 3432 
Q 1894 3584 2278 3584 
Q 2916 3584 3314 3078 
Q 3713 2572 3713 1747 
Q 3713 922 3314 415 
Q 2916 -91 2278 -91 
Q 1894 -91 1617 61 
Q 1341 213 1159 525 
L 1159 0 
L 581 0 
L 581 4863 
L 1159 4863 
L 1159 2969 
z
" transform="scale(0.015625)"/>
      <path id="DejaVuSans-63" d="M 3122 3366 
L 3122 2828 
Q 2878 2963 2633 3030 
Q 2388 3097 2138 3097 
Q 1578 3097 1268 2742 
Q 959 2388 959 1747 
Q 959 1106 1268 751 
Q 1578 397 2138 397 
Q 2388 397 2633 464 
Q 2878 531 3122 666 
L 3122 134 
Q 2881 22 2623 -34 
Q 2366 -91 2075 -91 
Q 1284 -91 818 406 
Q 353 903 353 1747 
Q 353 2603 823 3093 
Q 1294 3584 2113 3584 
Q 2378 3584 2631 3529 
Q 2884 3475 3122 3366 
z
" transform="scale(0.015625)"/>
      <path id="DejaVuSans-6b" d="M 581 4863 
L 1159 4863 
L 1159 1991 
L 2875 3500 
L 3609 3500 
L 1753 1863 
L 3688 0 
L 2938 0 
L 1159 1709 
L 1159 0 
L 581 0 
L 581 4863 
z
" transform="scale(0.015625)"/>
      <path id="DejaVuSans-77" d="M 269 3500 
L 844 3500 
L 1563 769 
L 2278 3500 
L 2956 3500 
L 3675 769 
L 4391 3500 
L 4966 3500 
L 4050 0 
L 3372 0 
L 2619 2869 
L 1863 0 
L 1184 0 
L 269 3500 
z
" transform="scale(0.015625)"/>
      <path id="DejaVuSans-64" d="M 2906 2969 
L 2906 4863 
L 3481 4863 
L 3481 0 
L 2906 0 
L 2906 525 
Q 2725 213 2448 61 
Q 2172 -91 1784 -91 
Q 1150 -91 751 415 
Q 353 922 353 1747 
Q 353 2572 751 3078 
Q 1150 3584 1784 3584 
Q 2172 3584 2448 3432 
Q 2725 3281 2906 2969 
z
M 947 1747 
Q 947 1113 1208 752 
Q 1469 391 1925 391 
Q 2381 391 2643 752 
Q 2906 1113 2906 1747 
Q 2906 2381 2643 2742 
Q 2381 3103 1925 3103 
Q 1469 3103 1208 2742 
Q 947 2381 947 1747 
z
" transform="scale(0.015625)"/>
      <path id="DejaVuSans-28" d="M 1984 4856 
Q 1566 4138 1362 3434 
Q 1159 2731 1159 2009 
Q 1159 1288 1364 580 
Q 1569 -128 1984 -844 
L 1484 -844 
Q 1016 -109 783 600 
Q 550 1309 550 2009 
Q 550 2706 781 3412 
Q 1013 4119 1484 4856 
L 1984 4856 
z
" transform="scale(0.015625)"/>
      <path id="DejaVuSans-66" d="M 2375 4863 
L 2375 4384 
L 1825 4384 
Q 1516 4384 1395 4259 
Q 1275 4134 1275 3809 
L 1275 3500 
L 2222 3500 
L 2222 3053 
L 1275 3053 
L 1275 0 
L 697 0 
L 697 3053 
L 147 3053 
L 147 3500 
L 697 3500 
L 697 3744 
Q 697 4328 969 4595 
Q 1241 4863 1831 4863 
L 2375 4863 
z
" transform="scale(0.015625)"/>
      <path id="DejaVuSans-29" d="M 513 4856 
L 1013 4856 
Q 1481 4119 1714 3412 
Q 1947 2706 1947 2009 
Q 1947 1309 1714 600 
Q 1481 -109 1013 -844 
L 513 -844 
Q 928 -128 1133 580 
Q 1338 1288 1338 2009 
Q 1338 2731 1133 3434 
Q 928 4138 513 4856 
z
" transform="scale(0.015625)"/>
     </defs>
     <use xlink:href="#DejaVuSans-70"/>
     <use xlink:href="#DejaVuSans-6f" x="63.476562"/>
     <use xlink:href="#DejaVuSans-69" x="124.658203"/>
     <use xlink:href="#DejaVuSans-6e" x="152.441406"/>
     <use xlink:href="#DejaVuSans-74" x="215.820312"/>
     <use xlink:href="#DejaVuSans-65" x="255.029297"/>
     <use xlink:href="#DejaVuSans-72" x="316.552734"/>
     <use xlink:href="#DejaVuSans-20" x="357.666016"/>
     <use xlink:href="#DejaVuSans-61" x="389.453125"/>
     <use xlink:href="#DejaVuSans-72" x="450.732422"/>
     <use xlink:href="#DejaVuSans-72" x="490.095703"/>
     <use xlink:href="#DejaVuSans-61" x="531.208984"/>
     <use xlink:href="#DejaVuSans-79" x="592.488281"/>
     <use xlink:href="#DejaVuSans-20" x="651.667969"/>
     <use xlink:href="#DejaVuSans-62" x="683.455078"/>
     <use xlink:href="#DejaVuSans-61" x="746.931641"/>
     <use xlink:href="#DejaVuSans-63" x="808.210938"/>
     <use xlink:href="#DejaVuSans-6b" x="863.191406"/>
     <use xlink:href="#DejaVuSans-77" x="921.101562"/>
     <use xlink:href="#DejaVuSans-61" x="1002.888672"/>
     <use xlink:href="#DejaVuSans-72" x="1064.167969"/>
     <use xlink:href="#DejaVuSans-64" x="1103.53125"/>
     <use xlink:href="#DejaVuSans-73" x="1167.007812"/>
     <use xlink:href="#DejaVuSans-20" x="1219.107422"/>
     <use xlink:href="#DejaVuSans-64" x="1250.894531"/>
     <use xlink:href="#DejaVuSans-65" x="1314.371094"/>
     <use xlink:href="#DejaVuSans-74" x="1375.894531"/>
     <use xlink:href="#DejaVuSans-65" x="1415.103516"/>
     <use xlink:href="#DejaVuSans-63" x="1476.626953"/>
     <use xlink:href="#DejaVuSans-74" x="1531.607422"/>
     <use xlink:href="#DejaVuSans-69" x="1570.816406"/>
     <use xlink:href="#DejaVuSans-6f" x="1598.599609"/>
     <use xlink:href="#DejaVuSans-6e" x="1659.78125"/>
     <use xlink:href="#DejaVuSans-20" x="1723.160156"/>
     <use xlink:href="#DejaVuSans-74" x="1754.947266"/>
     <use xlink:href="#DejaVuSans-65" x="1794.15625"/>
     <use xlink:href="#DejaVuSans-73" x="1855.679688"/>
     <use xlink:href="#DejaVuSans-74" x="1907.779297"/>
     <use xlink:href="#DejaVuSans-20" x="1946.988281"/>
     <use xlink:href="#DejaVuSans-28" x="1978.775391"/>
     <use xlink:href="#DejaVuSans-72" x="2017.789062"/>
     <use xlink:href="#DejaVuSans-65" x="2056.652344"/>
     <use xlink:href="#DejaVuSans-66" x="2118.175781"/>
     <use xlink:href="#DejaVuSans-65" x="2153.380859"/>
     <use xlink:href="#DejaVuSans-72" x="2214.904297"/>
     <use xlink:href="#DejaVuSans-65" x="2253.767578"/>
     <use xlink:href="#DejaVuSans-6e" x="2315.291016"/>
     <use xlink:href="#DejaVuSans-63" x="2378.669922"/>
     <use xlink:href="#DejaVuSans-65" x="2433.650391"/>
     <use xlink:href="#DejaVuSans-29" x="2495.173828"/>
    </g>
   </g>
   <g id="legend_1">
    <g id="patch_7">
     <path d="M 64.6 78.82825 
L 166.359375 78.82825 
Q 168.359375 78.82825 168.359375 76.82825 
L 168.359375 48.472 
Q 168.359375 46.472 166.359375 46.472 
L 64.6 46.472 
Q 62.6 46.472 62.6 48.472 
L 62.6 76.82825 
Q 62.6 78.82825 64.6 78.82825 
z
" style="fill: #ffffff; opacity: 0.8; stroke: #cccccc; stroke-linejoin: miter"/>
    </g>
    <g id="line2d_17">
     <path d="M 66.6 54.570437 
L 76.6 54.570437 
L 86.6 54.570437 
" style="fill: none; stroke: #1f77b4; stroke-width: 1.5; stroke-linecap: square"/>
    </g>
    <g id="text_18">
     <!-- measurement -->
     <g transform="translate(94.6 58.070437) scale(0.1 -0.1)">
      <use xlink:href="#DejaVuSans-6d"/>
      <use xlink:href="#DejaVuSans-65" x="97.412109"/>
      <use xlink:href="#DejaVuSans-61" x="158.935547"/>
      <use xlink:href="#DejaVuSans-73" x="220.214844"/>
      <use xlink:href="#DejaVuSans-75" x="272.314453"/>
      <use xlink:href="#DejaVuSans-72" x="335.693359"/>
      <use xlink:href="#DejaVuSans-65" x="374.556641"/>
      <use xlink:href="#DejaVuSans-6d" x="436.080078"/>
      <use xlink:href="#DejaVuSans-65" x="533.492188"/>
      <use xlink:href="#DejaVuSans-6e" x="595.015625"/>
      <use xlink:href="#DejaVuSans-74" x="658.394531"/>
     </g>
    </g>
    <g id="line2d_18">
     <path d="M 66.6 69.248562 
L 76.6 69.248562 
L 86.6 69.248562 
" style="fill: none; stroke: #ff7f0e; stroke-width: 1.5; stroke-linecap: square"/>
    </g>
    <g id="text_19">
     <!-- reference -->
     <g transform="translate(94.6 72.748562) scale(0.1 -0.1)">
      <use xlink:href="#DejaVuSans-72"/>
      <use xlink:href="#DejaVuSans-65" x="38.863281"/>
      <use xlink:href="#DejaVuSans-66" x="100.386719"/>
      <use xlink:href="#DejaVuSans-65" x="135.591797"/>
      <use xlink:href="#DejaVuSans-72" x="197.115234"/>
      <use xlink:href="#DejaVuSans-65" x="235.978516"/>
      <use xlink:href="#DejaVuSans-6e" x="297.501953"/>
      <use xlink:href="#DejaVuSans-63" x="360.880859"/>
      <use xlink:href="#DejaVuSans-65" x="415.861328"/>
     </g>
    </g>
   </g>
  </g>
 </g>
 <defs>
  <clipPath id="p895a91cd91">
   <rect x="57.6" y="41.472" width="357.12" height="266.112"/>
  </clipPath>
 </defs>
</svg>
