<?xml version="1.0" encoding="utf-8" standalone="no"?>
<!DOCTYPE svg PUBLIC "-//W3C//DTD SVG 1.1//EN"
  "http://www.w3.org/Graphics/SVG/1.1/DTD/svg11.dtd">
<svg xmlns:xlink="http://www.w3.org/1999/xlink" width="460.8pt" height="345.6pt" viewBox="0 0 460.8 345.6" xmlns="http://www.w3.org/2000/svg" version="1.1">
 <metadata>
  <rdf:RDF xmlns:dc="http://purl.org/dc/elements/1.1/" xmlns:cc="http://creativecommons.org/ns#" xmlns:rdf="http://www.w3.org/1999/02/22-rdf-syntax-ns#">
   <cc:Work>
    <dc:type rdf:resource="http://purl.org/dc/dcmitype/StillImage"/>
    <dc:date>2024-10-04T17:20:29.970793</dc:date>
    <dc:format>image/svg+xml</dc:format>
    <dc:creator>
     <cc:Agent>
      <dc:title>Matplotlib v3.9.2, https://matplotlib.org/</dc:title>
     </cc:Agent>
    </dc:creator>
   </cc:Work>
  </rdf:RDF>
 </metadata>
 <defs>
  <style type="text/css">*{stroke-linejoin: round; stroke-linecap: butt}</style>
 </defs>
 <g id="figure_1">
  <g id="patch_1">
   <path d="M 0 345.6 
L 460.8 345.6 
L 460.8 0 
L 0 0 
z
" style="fill: #ffffff"/>
  </g>
  <g id="axes_1">
   <g id="patch_2">
    <path d="M 57.6 307.584 
L 414.72 307.584 
L 414.72 41.472 
L 57.6 41.472 
z
" style="fill: #ffffff"/>
   </g>
   <g id="matplotlib.axis_1">
    <g id="xtick_1">
     <g id="line2d_1">
      <defs>
       <path id="m3ce5e454e4" d="M 0 0 
L 0 3.5 
" style="stroke: #000000; stroke-width: 0.8"/>
      </defs>
      <g>
       <use xlink:href="#m3ce5e454e4" x="73.832727" y="307.584" style="stroke: #000000; stroke-width: 0.8"/>
      </g>
     </g>
     <g id="text_1">
      <!-- 0 -->
      <g transform="translate(70.651477 322.182437) scale(0.1 -0.1)">
       <defs>
        <path id="DejaVuSans-30" d="M 2034 4250 
Q 1547 4250 1301 3770 
Q 1056 3291 1056 2328 
Q 1056 1369 1301 889 
Q 1547 409 2034 409 
Q 2525 409 2770 889 
Q 3016 1369 3016 2328 
Q 3016 3291 2770 3770 
Q 2525 4250 2034 4250 
z
M 2034 4750 
Q 2819 4750 3233 4129 
Q 3647 3509 3647 2328 
Q 3647 1150 3233 529 
Q 2819 -91 2034 -91 
Q 1250 -91 836 529 
Q 422 1150 422 2328 
Q 422 3509 836 4129 
Q 1250 4750 2034 4750 
z
" transform="scale(0.015625)"/>
       </defs>
       <use xlink:href="#DejaVuSans-30"/>
      </g>
     </g>
    </g>
    <g id="xtick_2">
     <g id="line2d_2">
      <g>
       <use xlink:href="#m3ce5e454e4" x="138.776625" y="307.584" style="stroke: #000000; stroke-width: 0.8"/>
      </g>
     </g>
     <g id="text_2">
      <!-- 1000 -->
      <g transform="translate(126.051625 322.182437) scale(0.1 -0.1)">
       <defs>
        <path id="DejaVuSans-31" d="M 794 531 
L 1825 531 
L 1825 4091 
L 703 3866 
L 703 4441 
L 1819 4666 
L 2450 4666 
L 2450 531 
L 3481 531 
L 3481 0 
L 794 0 
L 794 531 
z
" transform="scale(0.015625)"/>
       </defs>
       <use xlink:href="#DejaVuSans-31"/>
       <use xlink:href="#DejaVuSans-30" x="63.623047"/>
       <use xlink:href="#DejaVuSans-30" x="127.246094"/>
       <use xlink:href="#DejaVuSans-30" x="190.869141"/>
      </g>
     </g>
    </g>
    <g id="xtick_3">
     <g id="line2d_3">
      <g>
       <use xlink:href="#m3ce5e454e4" x="203.720523" y="307.584" style="stroke: #000000; stroke-width: 0.8"/>
      </g>
     </g>
     <g id="text_3">
      <!-- 2000 -->
      <g transform="translate(190.995523 322.182437) scale(0.1 -0.1)">
       <defs>
        <path id="DejaVuSans-32" d="M 1228 531 
L 3431 531 
L 3431 0 
L 469 0 
L 469 531 
Q 828 903 1448 1529 
Q 2069 2156 2228 2338 
Q 2531 2678 2651 2914 
Q 2772 3150 2772 3378 
Q 2772 3750 2511 3984 
Q 2250 4219 1831 4219 
Q 1534 4219 1204 4116 
Q 875 4013 500 3803 
L 500 4441 
Q 881 4594 1212 4672 
Q 1544 4750 1819 4750 
Q 2544 4750 2975 4387 
Q 3406 4025 3406 3419 
Q 3406 3131 3298 2873 
Q 3191 2616 2906 2266 
Q 2828 2175 2409 1742 
Q 1991 1309 1228 531 
z
" transform="scale(0.015625)"/>
       </defs>
       <use xlink:href="#DejaVuSans-32"/>
       <use xlink:href="#DejaVuSans-30" x="63.623047"/>
       <use xlink:href="#DejaVuSans-30" x="127.246094"/>
       <use xlink:href="#DejaVuSans-30" x="190.869141"/>
      </g>
     </g>
    </g>
    <g id="xtick_4">
     <g id="line2d_4">
      <g>
       <use xlink:href="#m3ce5e454e4" x="268.664421" y="307.584" style="stroke: #000000; stroke-width: 0.8"/>
      </g>
     </g>
     <g id="text_4">
      <!-- 3000 -->
      <g transform="translate(255.939421 322.182437) scale(0.1 -0.1)">
       <defs>
        <path id="DejaVuSans-33" d="M 2597 2516 
Q 3050 2419 3304 2112 
Q 3559 1806 3559 1356 
Q 3559 666 3084 287 
Q 2609 -91 1734 -91 
Q 1441 -91 1130 -33 
Q 819 25 488 141 
L 488 750 
Q 750 597 1062 519 
Q 1375 441 1716 441 
Q 2309 441 2620 675 
Q 2931 909 2931 1356 
Q 2931 1769 2642 2001 
Q 2353 2234 1838 2234 
L 1294 2234 
L 1294 2753 
L 1863 2753 
Q 2328 2753 2575 2939 
Q 2822 3125 2822 3475 
Q 2822 3834 2567 4026 
Q 2313 4219 1838 4219 
Q 1578 4219 1281 4162 
Q 984 4106 628 3988 
L 628 4550 
Q 988 4650 1302 4700 
Q 1616 4750 1894 4750 
Q 2613 4750 3031 4423 
Q 3450 4097 3450 3541 
Q 3450 3153 3228 2886 
Q 3006 2619 2597 2516 
z
" transform="scale(0.015625)"/>
       </defs>
       <use xlink:href="#DejaVuSans-33"/>
       <use xlink:href="#DejaVuSans-30" x="63.623047"/>
       <use xlink:href="#DejaVuSans-30" x="127.246094"/>
       <use xlink:href="#DejaVuSans-30" x="190.869141"/>
      </g>
     </g>
    </g>
    <g id="xtick_5">
     <g id="line2d_5">
      <g>
       <use xlink:href="#m3ce5e454e4" x="333.608319" y="307.584" style="stroke: #000000; stroke-width: 0.8"/>
      </g>
     </g>
     <g id="text_5">
      <!-- 4000 -->
      <g transform="translate(320.883319 322.182437) scale(0.1 -0.1)">
       <defs>
        <path id="DejaVuSans-34" d="M 2419 4116 
L 825 1625 
L 2419 1625 
L 2419 4116 
z
M 2253 4666 
L 3047 4666 
L 3047 1625 
L 3713 1625 
L 3713 1100 
L 3047 1100 
L 3047 0 
L 2419 0 
L 2419 1100 
L 313 1100 
L 313 1709 
L 2253 4666 
z
" transform="scale(0.015625)"/>
       </defs>
       <use xlink:href="#DejaVuSans-34"/>
       <use xlink:href="#DejaVuSans-30" x="63.623047"/>
       <use xlink:href="#DejaVuSans-30" x="127.246094"/>
       <use xlink:href="#DejaVuSans-30" x="190.869141"/>
      </g>
     </g>
    </g>
    <g id="xtick_6">
     <g id="line2d_6">
      <g>
       <use xlink:href="#m3ce5e454e4" x="398.552217" y="307.584" style="stroke: #000000; stroke-width: 0.8"/>
      </g>
     </g>
     <g id="text_6">
      <!-- 5000 -->
      <g transform="translate(385.827217 322.182437) scale(0.1 -0.1)">
       <defs>
        <path id="DejaVuSans-35" d="M 691 4666 
L 3169 4666 
L 3169 4134 
L 1269 4134 
L 1269 2991 
Q 1406 3038 1543 3061 
Q 1681 3084 1819 3084 
Q 2600 3084 3056 2656 
Q 3513 2228 3513 1497 
Q 3513 744 3044 326 
Q 2575 -91 1722 -91 
Q 1428 -91 1123 -41 
Q 819 9 494 109 
L 494 744 
Q 775 591 1075 516 
Q 1375 441 1709 441 
Q 2250 441 2565 725 
Q 2881 1009 2881 1497 
Q 2881 1984 2565 2268 
Q 2250 2553 1709 2553 
Q 1456 2553 1204 2497 
Q 953 2441 691 2322 
L 691 4666 
z
" transform="scale(0.015625)"/>
       </defs>
       <use xlink:href="#DejaVuSans-35"/>
       <use xlink:href="#DejaVuSans-30" x="63.623047"/>
       <use xlink:href="#DejaVuSans-30" x="127.246094"/>
       <use xlink:href="#DejaVuSans-30" x="190.869141"/>
      </g>
     </g>
    </g>
    <g id="text_7">
     <!-- measurement # -->
     <g transform="translate(195.501406 335.860562) scale(0.1 -0.1)">
      <defs>
       <path id="DejaVuSans-6d" d="M 3328 2828 
Q 3544 3216 3844 3400 
Q 4144 3584 4550 3584 
Q 5097 3584 5394 3201 
Q 5691 2819 5691 2113 
L 5691 0 
L 5113 0 
L 5113 2094 
Q 5113 2597 4934 2840 
Q 4756 3084 4391 3084 
Q 3944 3084 3684 2787 
Q 3425 2491 3425 1978 
L 3425 0 
L 2847 0 
L 2847 2094 
Q 2847 2600 2669 2842 
Q 2491 3084 2119 3084 
Q 1678 3084 1418 2786 
Q 1159 2488 1159 1978 
L 1159 0 
L 581 0 
L 581 3500 
L 1159 3500 
L 1159 2956 
Q 1356 3278 1631 3431 
Q 1906 3584 2284 3584 
Q 2666 3584 2933 3390 
Q 3200 3197 3328 2828 
z
" transform="scale(0.015625)"/>
       <path id="DejaVuSans-65" d="M 3597 1894 
L 3597 1613 
L 953 1613 
Q 991 1019 1311 708 
Q 1631 397 2203 397 
Q 2534 397 2845 478 
Q 3156 559 3463 722 
L 3463 178 
Q 3153 47 2828 -22 
Q 2503 -91 2169 -91 
Q 1331 -91 842 396 
Q 353 884 353 1716 
Q 353 2575 817 3079 
Q 1281 3584 2069 3584 
Q 2775 3584 3186 3129 
Q 3597 2675 3597 1894 
z
M 3022 2063 
Q 3016 2534 2758 2815 
Q 2500 3097 2075 3097 
Q 1594 3097 1305 2825 
Q 1016 2553 972 2059 
L 3022 2063 
z
" transform="scale(0.015625)"/>
       <path id="DejaVuSans-61" d="M 2194 1759 
Q 1497 1759 1228 1600 
Q 959 1441 959 1056 
Q 959 750 1161 570 
Q 1363 391 1709 391 
Q 2188 391 2477 730 
Q 2766 1069 2766 1631 
L 2766 1759 
L 2194 1759 
z
M 3341 1997 
L 3341 0 
L 2766 0 
L 2766 531 
Q 2569 213 2275 61 
Q 1981 -91 1556 -91 
Q 1019 -91 701 211 
Q 384 513 384 1019 
Q 384 1609 779 1909 
Q 1175 2209 1959 2209 
L 2766 2209 
L 2766 2266 
Q 2766 2663 2505 2880 
Q 2244 3097 1772 3097 
Q 1472 3097 1187 3025 
Q 903 2953 641 2809 
L 641 3341 
Q 956 3463 1253 3523 
Q 1550 3584 1831 3584 
Q 2591 3584 2966 3190 
Q 3341 2797 3341 1997 
z
" transform="scale(0.015625)"/>
       <path id="DejaVuSans-73" d="M 2834 3397 
L 2834 2853 
Q 2591 2978 2328 3040 
Q 2066 3103 1784 3103 
Q 1356 3103 1142 2972 
Q 928 2841 928 2578 
Q 928 2378 1081 2264 
Q 1234 2150 1697 2047 
L 1894 2003 
Q 2506 1872 2764 1633 
Q 3022 1394 3022 966 
Q 3022 478 2636 193 
Q 2250 -91 1575 -91 
Q 1294 -91 989 -36 
Q 684 19 347 128 
L 347 722 
Q 666 556 975 473 
Q 1284 391 1588 391 
Q 1994 391 2212 530 
Q 2431 669 2431 922 
Q 2431 1156 2273 1281 
Q 2116 1406 1581 1522 
L 1381 1569 
Q 847 1681 609 1914 
Q 372 2147 372 2553 
Q 372 3047 722 3315 
Q 1072 3584 1716 3584 
Q 2034 3584 2315 3537 
Q 2597 3491 2834 3397 
z
" transform="scale(0.015625)"/>
       <path id="DejaVuSans-75" d="M 544 1381 
L 544 3500 
L 1119 3500 
L 1119 1403 
Q 1119 906 1312 657 
Q 1506 409 1894 409 
Q 2359 409 2629 706 
Q 2900 1003 2900 1516 
L 2900 3500 
L 3475 3500 
L 3475 0 
L 2900 0 
L 2900 538 
Q 2691 219 2414 64 
Q 2138 -91 1772 -91 
Q 1169 -91 856 284 
Q 544 659 544 1381 
z
M 1991 3584 
L 1991 3584 
z
" transform="scale(0.015625)"/>
       <path id="DejaVuSans-72" d="M 2631 2963 
Q 2534 3019 2420 3045 
Q 2306 3072 2169 3072 
Q 1681 3072 1420 2755 
Q 1159 2438 1159 1844 
L 1159 0 
L 581 0 
L 581 3500 
L 1159 3500 
L 1159 2956 
Q 1341 3275 1631 3429 
Q 1922 3584 2338 3584 
Q 2397 3584 2469 3576 
Q 2541 3569 2628 3553 
L 2631 2963 
z
" transform="scale(0.015625)"/>
       <path id="DejaVuSans-6e" d="M 3513 2113 
L 3513 0 
L 2938 0 
L 2938 2094 
Q 2938 2591 2744 2837 
Q 2550 3084 2163 3084 
Q 1697 3084 1428 2787 
Q 1159 2491 1159 1978 
L 1159 0 
L 581 0 
L 581 3500 
L 1159 3500 
L 1159 2956 
Q 1366 3272 1645 3428 
Q 1925 3584 2291 3584 
Q 2894 3584 3203 3211 
Q 3513 2838 3513 2113 
z
" transform="scale(0.015625)"/>
       <path id="DejaVuSans-74" d="M 1172 4494 
L 1172 3500 
L 2356 3500 
L 2356 3053 
L 1172 3053 
L 1172 1153 
Q 1172 725 1289 603 
Q 1406 481 1766 481 
L 2356 481 
L 2356 0 
L 1766 0 
Q 1100 0 847 248 
Q 594 497 594 1153 
L 594 3053 
L 172 3053 
L 172 3500 
L 594 3500 
L 594 4494 
L 1172 4494 
z
" transform="scale(0.015625)"/>
       <path id="DejaVuSans-20" transform="scale(0.015625)"/>
       <path id="DejaVuSans-23" d="M 3272 2816 
L 2363 2816 
L 2100 1772 
L 3016 1772 
L 3272 2816 
z
M 2803 4594 
L 2478 3297 
L 3391 3297 
L 3719 4594 
L 4219 4594 
L 3897 3297 
L 4872 3297 
L 4872 2816 
L 3775 2816 
L 3519 1772 
L 4513 1772 
L 4513 1294 
L 3397 1294 
L 3072 0 
L 2572 0 
L 2894 1294 
L 1978 1294 
L 1656 0 
L 1153 0 
L 1478 1294 
L 494 1294 
L 494 1772 
L 1594 1772 
L 1856 2816 
L 850 2816 
L 850 3297 
L 1978 3297 
L 2297 4594 
L 2803 4594 
z
" transform="scale(0.015625)"/>
      </defs>
      <use xlink:href="#DejaVuSans-6d"/>
      <use xlink:href="#DejaVuSans-65" x="97.412109"/>
      <use xlink:href="#DejaVuSans-61" x="158.935547"/>
      <use xlink:href="#DejaVuSans-73" x="220.214844"/>
      <use xlink:href="#DejaVuSans-75" x="272.314453"/>
      <use xlink:href="#DejaVuSans-72" x="335.693359"/>
      <use xlink:href="#DejaVuSans-65" x="374.556641"/>
      <use xlink:href="#DejaVuSans-6d" x="436.080078"/>
      <use xlink:href="#DejaVuSans-65" x="533.492188"/>
      <use xlink:href="#DejaVuSans-6e" x="595.015625"/>
      <use xlink:href="#DejaVuSans-74" x="658.394531"/>
      <use xlink:href="#DejaVuSans-20" x="697.603516"/>
      <use xlink:href="#DejaVuSans-23" x="729.390625"/>
     </g>
    </g>
   </g>
   <g id="matplotlib.axis_2">
    <g id="ytick_1">
     <g id="line2d_7">
      <defs>
       <path id="m642028d1fe" d="M 0 0 
L -3.5 0 
" style="stroke: #000000; stroke-width: 0.8"/>
      </defs>
      <g>
       <use xlink:href="#m642028d1fe" x="57.6" y="275.511401" style="stroke: #000000; stroke-width: 0.8"/>
      </g>
     </g>
     <g id="text_8">
      <!-- 200 -->
      <g transform="translate(31.5125 279.31062) scale(0.1 -0.1)">
       <use xlink:href="#DejaVuSans-32"/>
       <use xlink:href="#DejaVuSans-30" x="63.623047"/>
       <use xlink:href="#DejaVuSans-30" x="127.246094"/>
      </g>
     </g>
    </g>
    <g id="ytick_2">
     <g id="line2d_8">
      <g>
       <use xlink:href="#m642028d1fe" x="57.6" y="241.652759" style="stroke: #000000; stroke-width: 0.8"/>
      </g>
     </g>
     <g id="text_9">
      <!-- 400 -->
      <g transform="translate(31.5125 245.451977) scale(0.1 -0.1)">
       <use xlink:href="#DejaVuSans-34"/>
       <use xlink:href="#DejaVuSans-30" x="63.623047"/>
       <use xlink:href="#DejaVuSans-30" x="127.246094"/>
      </g>
     </g>
    </g>
    <g id="ytick_3">
     <g id="line2d_9">
      <g>
       <use xlink:href="#m642028d1fe" x="57.6" y="207.794116" style="stroke: #000000; stroke-width: 0.8"/>
      </g>
     </g>
     <g id="text_10">
      <!-- 600 -->
      <g transform="translate(31.5125 211.593335) scale(0.1 -0.1)">
       <defs>
        <path id="DejaVuSans-36" d="M 2113 2584 
Q 1688 2584 1439 2293 
Q 1191 2003 1191 1497 
Q 1191 994 1439 701 
Q 1688 409 2113 409 
Q 2538 409 2786 701 
Q 3034 994 3034 1497 
Q 3034 2003 2786 2293 
Q 2538 2584 2113 2584 
z
M 3366 4563 
L 3366 3988 
Q 3128 4100 2886 4159 
Q 2644 4219 2406 4219 
Q 1781 4219 1451 3797 
Q 1122 3375 1075 2522 
Q 1259 2794 1537 2939 
Q 1816 3084 2150 3084 
Q 2853 3084 3261 2657 
Q 3669 2231 3669 1497 
Q 3669 778 3244 343 
Q 2819 -91 2113 -91 
Q 1303 -91 875 529 
Q 447 1150 447 2328 
Q 447 3434 972 4092 
Q 1497 4750 2381 4750 
Q 2619 4750 2861 4703 
Q 3103 4656 3366 4563 
z
" transform="scale(0.015625)"/>
       </defs>
       <use xlink:href="#DejaVuSans-36"/>
       <use xlink:href="#DejaVuSans-30" x="63.623047"/>
       <use xlink:href="#DejaVuSans-30" x="127.246094"/>
      </g>
     </g>
    </g>
    <g id="ytick_4">
     <g id="line2d_10">
      <g>
       <use xlink:href="#m642028d1fe" x="57.6" y="173.935474" style="stroke: #000000; stroke-width: 0.8"/>
      </g>
     </g>
     <g id="text_11">
      <!-- 800 -->
      <g transform="translate(31.5125 177.734693) scale(0.1 -0.1)">
       <defs>
        <path id="DejaVuSans-38" d="M 2034 2216 
Q 1584 2216 1326 1975 
Q 1069 1734 1069 1313 
Q 1069 891 1326 650 
Q 1584 409 2034 409 
Q 2484 409 2743 651 
Q 3003 894 3003 1313 
Q 3003 1734 2745 1975 
Q 2488 2216 2034 2216 
z
M 1403 2484 
Q 997 2584 770 2862 
Q 544 3141 544 3541 
Q 544 4100 942 4425 
Q 1341 4750 2034 4750 
Q 2731 4750 3128 4425 
Q 3525 4100 3525 3541 
Q 3525 3141 3298 2862 
Q 3072 2584 2669 2484 
Q 3125 2378 3379 2068 
Q 3634 1759 3634 1313 
Q 3634 634 3220 271 
Q 2806 -91 2034 -91 
Q 1263 -91 848 271 
Q 434 634 434 1313 
Q 434 1759 690 2068 
Q 947 2378 1403 2484 
z
M 1172 3481 
Q 1172 3119 1398 2916 
Q 1625 2713 2034 2713 
Q 2441 2713 2670 2916 
Q 2900 3119 2900 3481 
Q 2900 3844 2670 4047 
Q 2441 4250 2034 4250 
Q 1625 4250 1398 4047 
Q 1172 3844 1172 3481 
z
" transform="scale(0.015625)"/>
       </defs>
       <use xlink:href="#DejaVuSans-38"/>
       <use xlink:href="#DejaVuSans-30" x="63.623047"/>
       <use xlink:href="#DejaVuSans-30" x="127.246094"/>
      </g>
     </g>
    </g>
    <g id="ytick_5">
     <g id="line2d_11">
      <g>
       <use xlink:href="#m642028d1fe" x="57.6" y="140.076831" style="stroke: #000000; stroke-width: 0.8"/>
      </g>
     </g>
     <g id="text_12">
      <!-- 1000 -->
      <g transform="translate(25.15 143.87605) scale(0.1 -0.1)">
       <use xlink:href="#DejaVuSans-31"/>
       <use xlink:href="#DejaVuSans-30" x="63.623047"/>
       <use xlink:href="#DejaVuSans-30" x="127.246094"/>
       <use xlink:href="#DejaVuSans-30" x="190.869141"/>
      </g>
     </g>
    </g>
    <g id="ytick_6">
     <g id="line2d_12">
      <g>
       <use xlink:href="#m642028d1fe" x="57.6" y="106.218189" style="stroke: #000000; stroke-width: 0.8"/>
      </g>
     </g>
     <g id="text_13">
      <!-- 1200 -->
      <g transform="translate(25.15 110.017408) scale(0.1 -0.1)">
       <use xlink:href="#DejaVuSans-31"/>
       <use xlink:href="#DejaVuSans-32" x="63.623047"/>
       <use xlink:href="#DejaVuSans-30" x="127.246094"/>
       <use xlink:href="#DejaVuSans-30" x="190.869141"/>
      </g>
     </g>
    </g>
    <g id="ytick_7">
     <g id="line2d_13">
      <g>
       <use xlink:href="#m642028d1fe" x="57.6" y="72.359547" style="stroke: #000000; stroke-width: 0.8"/>
      </g>
     </g>
     <g id="text_14">
      <!-- 1400 -->
      <g transform="translate(25.15 76.158765) scale(0.1 -0.1)">
       <use xlink:href="#DejaVuSans-31"/>
       <use xlink:href="#DejaVuSans-34" x="63.623047"/>
       <use xlink:href="#DejaVuSans-30" x="127.246094"/>
       <use xlink:href="#DejaVuSans-30" x="190.869141"/>
      </g>
     </g>
    </g>
    <g id="text_15">
     <!-- time -->
     <g transform="translate(19.070312 185.824094) rotate(-90) scale(0.1 -0.1)">
      <defs>
       <path id="DejaVuSans-69" d="M 603 3500 
L 1178 3500 
L 1178 0 
L 603 0 
L 603 3500 
z
M 603 4863 
L 1178 4863 
L 1178 4134 
L 603 4134 
L 603 4863 
z
" transform="scale(0.015625)"/>
      </defs>
      <use xlink:href="#DejaVuSans-74"/>
      <use xlink:href="#DejaVuSans-69" x="39.208984"/>
      <use xlink:href="#DejaVuSans-6d" x="66.992188"/>
      <use xlink:href="#DejaVuSans-65" x="164.404297"/>
     </g>
    </g>
   </g>
   <g id="line2d_14">
    <path d="M 73.832727 295.488 
L 73.962615 292.271429 
L 87.665778 292.271429 
L 87.795665 291.086376 
L 87.860609 291.086376 
L 87.990497 290.917083 
L 89.289375 290.917083 
L 89.419263 267.55462 
L 89.549151 267.385327 
L 89.938814 267.385327 
L 90.068702 267.216034 
L 90.977916 267.216034 
L 91.107804 267.04674 
L 91.497467 267.04674 
L 91.627355 266.877447 
L 92.341738 266.877447 
L 92.471626 266.708154 
L 92.861289 266.708154 
L 92.991177 266.538861 
L 93.121065 266.538861 
L 93.250953 266.369568 
L 93.640616 266.369568 
L 93.965336 265.353808 
L 94.095223 235.050323 
L 94.354999 234.542444 
L 94.549831 232.172339 
L 94.87455 232.172339 
L 95.004438 232.003045 
L 96.04354 232.003045 
L 96.173428 231.833752 
L 97.147587 231.833752 
L 97.277474 231.664459 
L 99.290735 231.664459 
L 99.420623 231.495166 
L 99.810286 231.495166 
L 99.940174 231.325873 
L 100.589613 231.325873 
L 100.719501 231.156579 
L 101.563772 231.156579 
L 101.693659 230.987286 
L 102.148267 230.987286 
L 102.278155 230.817993 
L 102.53793 230.817993 
L 102.732762 230.479407 
L 103.317257 230.479407 
L 103.447145 230.310113 
L 103.641976 230.310113 
L 103.771864 230.14082 
L 103.901752 230.14082 
L 104.03164 229.971527 
L 104.096584 229.971527 
L 104.226471 229.802234 
L 104.291415 229.802234 
L 104.421303 229.632941 
L 104.486247 229.632941 
L 104.681079 229.294354 
L 104.87591 229.294354 
L 105.005798 229.125061 
L 105.265574 229.125061 
L 105.395462 228.955768 
L 105.590293 228.955768 
L 105.785125 228.617181 
L 105.850069 228.617181 
L 106.109845 228.109302 
L 106.239732 228.109302 
L 106.564452 227.432129 
L 106.629396 227.432129 
L 106.824227 226.754956 
L 106.889171 226.754956 
L 107.019059 226.585663 
L 107.084003 226.585663 
L 107.798386 224.892731 
L 107.86333 224.892731 
L 108.252993 223.369092 
L 108.447825 223.030505 
L 108.577713 223.030505 
L 108.642657 222.861212 
L 108.837488 222.014746 
L 109.486927 220.152521 
L 109.811647 218.967468 
L 109.941534 218.967468 
L 110.396142 217.782416 
L 110.590973 217.105243 
L 110.655917 217.105243 
L 111.175469 215.92019 
L 111.305356 215.92019 
L 111.565132 215.412311 
L 111.630076 215.412311 
L 111.759964 215.243017 
L 111.824908 215.243017 
L 112.019739 214.904431 
L 112.214571 214.904431 
L 112.344459 214.735138 
L 112.86401 214.735138 
L 112.993898 214.565845 
L 113.903112 214.565845 
L 114.033 214.396551 
L 115.007159 214.396551 
L 115.137046 214.227258 
L 116.046261 214.227258 
L 116.176149 214.057965 
L 117.020419 214.057965 
L 117.150307 213.888672 
L 117.994578 213.888672 
L 118.124466 213.719379 
L 119.163568 213.719379 
L 119.293456 213.550085 
L 119.942895 213.550085 
L 120.072783 213.380792 
L 120.267614 213.380792 
L 120.397502 213.211499 
L 120.462446 213.211499 
L 120.592334 213.042206 
L 120.722222 213.042206 
L 120.852109 212.872913 
L 120.981997 212.872913 
L 121.111885 212.703619 
L 121.176829 212.703619 
L 121.306717 212.534326 
L 121.371661 212.534326 
L 121.501548 212.365033 
L 122.086043 212.365033 
L 122.215931 212.19574 
L 122.930314 212.19574 
L 123.060202 212.026446 
L 123.904473 212.026446 
L 124.03436 211.857153 
L 124.618855 211.857153 
L 124.748743 211.68786 
L 125.982677 211.68786 
L 126.112565 211.518567 
L 126.69706 211.518567 
L 126.826948 211.349274 
L 127.476387 211.349274 
L 127.606275 211.17998 
L 128.255714 211.17998 
L 128.385601 211.010687 
L 128.645377 211.010687 
L 128.775265 210.841394 
L 128.905153 210.841394 
L 129.03504 210.672101 
L 129.554592 210.672101 
L 129.684479 210.502808 
L 130.074143 210.502808 
L 130.204031 210.333514 
L 130.52875 210.333514 
L 130.658638 210.164221 
L 130.983357 210.164221 
L 131.113245 209.994928 
L 131.502909 209.994928 
L 131.632796 209.825635 
L 132.087404 209.825635 
L 132.217291 209.656341 
L 132.671899 209.656341 
L 132.801787 209.487048 
L 132.931674 209.487048 
L 133.126506 209.148462 
L 133.256394 209.148462 
L 133.386282 208.979169 
L 133.451226 208.979169 
L 133.646057 208.640582 
L 133.905833 208.640582 
L 134.100664 208.301996 
L 134.36044 208.301996 
L 134.490328 208.132703 
L 135.009879 208.132703 
L 135.139767 207.963409 
L 135.334599 207.963409 
L 135.464486 207.794116 
L 135.984038 207.794116 
L 136.113925 207.624823 
L 136.568533 207.624823 
L 136.69842 207.45553 
L 140.205391 207.45553 
L 140.335279 207.286237 
L 150.466527 207.286237 
L 150.596415 207.116943 
L 164.234633 207.116943 
L 164.364521 206.94765 
L 181.50971 206.94765 
L 181.639598 206.778357 
L 200.278496 206.778357 
L 200.408384 206.609064 
L 216.254695 206.609064 
L 216.384583 206.43977 
L 231.061904 206.43977 
L 231.191792 206.270477 
L 248.207093 206.270477 
L 248.336981 206.101184 
L 255.935417 206.101184 
L 256.065305 205.931891 
L 258.857892 205.931891 
L 258.98778 205.762598 
L 261.390704 205.762598 
L 261.520592 205.593304 
L 264.118348 205.593304 
L 264.248236 205.424011 
L 265.677002 205.424011 
L 265.806889 205.254718 
L 267.365543 205.254718 
L 267.495431 205.085425 
L 269.638579 205.085425 
L 269.768467 204.916132 
L 276.587576 204.916132 
L 276.717464 204.746838 
L 286.848712 204.746838 
L 286.9786 204.577545 
L 298.213894 204.577545 
L 298.343782 204.408252 
L 310.553235 204.408252 
L 310.683123 204.238959 
L 326.074827 204.238959 
L 326.204714 204.069666 
L 339.388326 204.069666 
L 339.518213 203.900372 
L 353.026544 203.900372 
L 353.156432 203.731079 
L 365.430829 203.731079 
L 365.560717 203.561786 
L 369.327463 203.561786 
L 369.45735 203.392493 
L 371.340723 203.392493 
L 371.470611 203.223199 
L 374.522974 203.223199 
L 374.652862 203.053906 
L 375.95174 203.053906 
L 376.081628 202.884613 
L 377.44545 202.884613 
L 377.575338 202.71532 
L 378.809272 202.71532 
L 378.939159 202.546027 
L 380.887476 202.546027 
L 381.017364 202.376733 
L 382.056467 202.376733 
L 382.186354 202.20744 
L 382.511074 202.20744 
L 382.705906 201.868854 
L 382.835793 201.868854 
L 382.965681 201.699561 
L 383.355345 201.699561 
L 383.550176 201.360974 
L 383.61512 201.360974 
L 383.745008 201.191681 
L 384.069727 201.191681 
L 384.199615 201.022388 
L 384.719166 201.022388 
L 384.849054 200.853094 
L 385.693325 200.853094 
L 385.823213 200.683801 
L 386.147932 200.683801 
L 386.27782 200.514508 
L 387.251978 200.514508 
L 387.381866 200.345215 
L 388.420969 200.345215 
L 388.550856 200.175922 
L 389.460071 200.175922 
L 389.589959 200.006628 
L 390.953781 200.006628 
L 391.083668 199.837335 
L 391.733107 199.837335 
L 391.862995 199.668042 
L 392.707266 199.668042 
L 392.837154 199.498749 
L 393.746368 199.498749 
L 393.876256 199.329456 
L 394.006144 199.329456 
L 394.136032 199.160162 
L 394.265919 199.160162 
L 394.395807 198.990869 
L 394.590639 198.990869 
L 394.720527 198.821576 
L 394.980302 198.821576 
L 395.240078 198.313696 
L 395.43491 198.313696 
L 395.954461 196.790057 
L 396.409068 192.388434 
L 396.474012 191.711261 
L 396.668844 177.829218 
L 396.798731 173.596887 
L 396.863675 173.258301 
L 397.188395 163.100708 
L 397.318283 158.191205 
L 397.643002 130.427118 
L 397.902778 129.242066 
L 397.967722 129.072773 
L 398.097609 127.041254 
L 398.292441 58.138917 
L 398.487273 53.568 
L 398.487273 53.568 
" clip-path="url(#pc9a05202ff)" style="fill: none; stroke: #1f77b4; stroke-width: 1.5; stroke-linecap: square"/>
   </g>
   <g id="line2d_15">
    <path d="M 73.832727 295.488 
L 73.962615 292.948602 
L 74.092503 292.271429 
L 86.301956 292.271429 
L 86.3669 292.102136 
L 86.496787 291.086376 
L 86.691619 291.086376 
L 86.821507 290.917083 
L 88.38016 290.917083 
L 88.445104 289.054858 
L 88.574992 267.385327 
L 88.769824 267.385327 
L 88.899712 267.216034 
L 88.964655 267.216034 
L 89.094543 267.04674 
L 89.808926 267.04674 
L 89.938814 266.877447 
L 90.912972 266.877447 
L 91.04286 266.708154 
L 91.237692 266.708154 
L 91.36758 266.538861 
L 91.627355 266.538861 
L 91.757243 266.369568 
L 91.952075 266.369568 
L 92.017019 266.200274 
L 92.146906 264.507342 
L 92.276794 234.88103 
L 92.341738 234.88103 
L 92.471626 234.37315 
L 92.601514 232.680218 
L 92.666458 232.680218 
L 92.796345 232.172339 
L 93.121065 232.172339 
L 93.250953 232.003045 
L 93.965336 232.003045 
L 94.095223 231.833752 
L 95.329157 231.833752 
L 95.459045 231.664459 
L 96.822867 231.664459 
L 96.952755 231.495166 
L 98.381521 231.495166 
L 98.511408 231.325873 
L 98.901072 231.325873 
L 99.03096 231.156579 
L 100.005118 231.156579 
L 100.135006 230.987286 
L 100.914333 230.987286 
L 101.04422 230.817993 
L 101.303996 230.817993 
L 101.433884 230.6487 
L 101.693659 230.6487 
L 101.823547 230.479407 
L 101.953435 230.479407 
L 102.083323 230.310113 
L 102.53793 230.310113 
L 102.667818 229.971527 
L 102.732762 229.971527 
L 102.86265 229.802234 
L 102.992537 229.802234 
L 103.122425 229.632941 
L 103.252313 229.632941 
L 103.382201 229.463647 
L 103.641976 229.463647 
L 103.771864 229.294354 
L 104.096584 229.294354 
L 104.226471 229.125061 
L 104.746023 229.125061 
L 104.940854 228.786474 
L 105.20063 228.786474 
L 105.330518 228.617181 
L 105.395462 228.617181 
L 105.655237 228.109302 
L 105.720181 228.109302 
L 105.850069 227.940008 
L 106.109845 227.940008 
L 106.239732 227.601422 
L 106.36962 227.601422 
L 106.499508 227.432129 
L 106.759283 227.432129 
L 106.889171 227.262836 
L 106.954115 227.262836 
L 107.278835 226.585663 
L 107.343779 226.585663 
L 107.733442 225.739197 
L 107.86333 225.739197 
L 108.058161 225.231317 
L 108.188049 225.231317 
L 108.512769 224.554144 
L 108.577713 224.554144 
L 108.7076 224.215558 
L 108.772544 224.215558 
L 109.03232 223.707678 
L 109.097264 223.707678 
L 109.292096 223.030505 
L 109.616815 221.16828 
L 109.681759 220.998987 
L 109.876591 220.152521 
L 110.136366 219.306055 
L 110.331198 218.798175 
L 110.655917 218.121002 
L 110.720861 218.121002 
L 110.980637 216.766656 
L 111.045581 216.766656 
L 111.3703 216.089484 
L 111.565132 216.089484 
L 111.759964 215.412311 
L 111.889851 215.412311 
L 112.084683 215.073724 
L 112.149627 215.073724 
L 112.279515 214.904431 
L 112.409403 214.904431 
L 112.53929 214.735138 
L 113.318617 214.735138 
L 113.448505 214.565845 
L 114.552551 214.565845 
L 114.682439 214.396551 
L 115.52671 214.396551 
L 115.656598 214.227258 
L 116.306036 214.227258 
L 116.435924 214.057965 
L 117.215251 214.057965 
L 117.345139 213.888672 
L 118.124466 213.888672 
L 118.254353 213.719379 
L 118.384241 213.719379 
L 118.514129 213.550085 
L 118.903792 213.550085 
L 119.03368 213.380792 
L 119.098624 213.380792 
L 119.228512 213.211499 
L 119.293456 213.211499 
L 119.423344 213.042206 
L 119.488287 213.042206 
L 119.618175 212.872913 
L 119.748063 212.872913 
L 119.877951 212.703619 
L 119.942895 212.703619 
L 120.072783 212.534326 
L 120.137726 212.534326 
L 120.267614 212.365033 
L 120.657278 212.365033 
L 120.787165 212.19574 
L 121.761324 212.19574 
L 121.891212 212.026446 
L 122.345819 212.026446 
L 122.475707 211.857153 
L 122.86537 211.857153 
L 122.995258 211.68786 
L 123.319977 211.68786 
L 123.449865 211.518567 
L 124.35908 211.518567 
L 124.488968 211.349274 
L 125.073463 211.349274 
L 125.20335 211.17998 
L 125.852789 211.17998 
L 125.982677 211.010687 
L 126.69706 211.010687 
L 126.826948 210.841394 
L 127.476387 210.841394 
L 127.606275 210.672101 
L 127.801106 210.672101 
L 127.930994 210.502808 
L 128.515489 210.502808 
L 128.645377 210.333514 
L 128.840209 210.333514 
L 128.970097 210.164221 
L 129.229872 210.164221 
L 129.35976 209.994928 
L 130.268975 209.994928 
L 130.398862 209.825635 
L 131.373021 209.825635 
L 131.502909 209.656341 
L 131.69774 209.656341 
L 131.827628 209.487048 
L 132.152348 209.487048 
L 132.347179 209.148462 
L 132.606955 209.148462 
L 132.736843 208.979169 
L 132.86673 208.979169 
L 133.061562 208.640582 
L 133.321338 208.640582 
L 133.451226 208.471289 
L 133.516169 208.471289 
L 133.646057 208.301996 
L 133.775945 208.301996 
L 133.905833 208.132703 
L 133.970777 208.132703 
L 134.100664 207.963409 
L 134.555272 207.963409 
L 134.68516 207.794116 
L 134.879991 207.794116 
L 135.009879 207.624823 
L 135.464486 207.624823 
L 135.594374 207.45553 
L 137.932354 207.45553 
L 138.062242 207.286237 
L 149.6872 207.286237 
L 149.817088 207.116943 
L 161.506989 207.116943 
L 161.636877 206.94765 
L 176.314198 206.94765 
L 176.444086 206.778357 
L 195.602536 206.778357 
L 195.732424 206.609064 
L 212.487949 206.609064 
L 212.617837 206.43977 
L 226.840551 206.43977 
L 226.970438 206.270477 
L 244.310459 206.270477 
L 244.440347 206.101184 
L 251.64912 206.101184 
L 251.779007 205.931891 
L 254.376763 205.931891 
L 254.506651 205.762598 
L 257.623958 205.762598 
L 257.753846 205.593304 
L 259.442387 205.593304 
L 259.572275 205.424011 
L 261.001041 205.424011 
L 261.130929 205.254718 
L 262.170031 205.254718 
L 262.299919 205.085425 
L 264.897675 205.085425 
L 265.027563 204.916132 
L 272.171391 204.916132 
L 272.301279 204.746838 
L 282.432527 204.746838 
L 282.562415 204.577545 
L 292.174112 204.577545 
L 292.304 204.408252 
L 306.13705 204.408252 
L 306.266938 204.238959 
L 323.217295 204.238959 
L 323.347183 204.069666 
L 337.95956 204.069666 
L 338.089448 203.900372 
L 351.597778 203.900372 
L 351.727666 203.731079 
L 363.28768 203.731079 
L 363.417568 203.561786 
L 367.249258 203.561786 
L 367.379146 203.392493 
L 369.652182 203.392493 
L 369.78207 203.223199 
L 371.925218 203.223199 
L 372.055106 203.053906 
L 373.808592 203.053906 
L 373.938479 202.884613 
L 376.016684 202.884613 
L 376.146572 202.71532 
L 377.380506 202.71532 
L 377.510394 202.546027 
L 379.588598 202.546027 
L 379.718486 202.376733 
L 380.822533 202.376733 
L 381.017364 202.038147 
L 381.342084 202.038147 
L 381.471971 201.868854 
L 381.731747 201.868854 
L 381.861635 201.699561 
L 381.926579 201.699561 
L 382.12141 201.360974 
L 382.251298 201.360974 
L 382.44613 201.022388 
L 382.705906 201.022388 
L 382.835793 200.853094 
L 383.485232 200.853094 
L 383.61512 200.683801 
L 384.524335 200.683801 
L 384.654222 200.514508 
L 385.9531 200.514508 
L 386.082988 200.345215 
L 386.537596 200.345215 
L 386.667483 200.175922 
L 388.161193 200.175922 
L 388.291081 200.006628 
L 389.979622 200.006628 
L 390.10951 199.837335 
L 391.343444 199.837335 
L 391.473332 199.668042 
L 392.252659 199.668042 
L 392.382546 199.498749 
L 392.707266 199.498749 
L 392.837154 199.329456 
L 393.291761 199.329456 
L 393.421649 199.160162 
L 393.486593 199.160162 
L 393.61648 198.990869 
L 393.746368 198.990869 
L 393.876256 198.821576 
L 393.9412 198.821576 
L 394.071088 198.652283 
L 394.330863 198.652283 
L 394.460751 198.144403 
L 394.720527 197.297937 
L 394.785471 197.128644 
L 394.980302 195.774298 
L 395.045246 195.605005 
L 395.369966 190.018329 
L 395.43491 190.018329 
L 395.499853 189.679742 
L 395.694685 181.892255 
L 395.824573 179.52215 
L 396.084349 165.132227 
L 396.474012 159.545551 
L 396.733787 147.695026 
L 396.798731 147.187146 
L 397.123451 139.061072 
L 397.318283 129.242066 
L 397.44817 128.903479 
L 397.513114 127.37984 
L 397.643002 120.946698 
L 397.707946 120.777405 
L 397.837834 114.852143 
L 398.097609 58.985383 
L 398.292441 57.292451 
L 398.487273 55.599519 
L 398.487273 55.599519 
" clip-path="url(#pc9a05202ff)" style="fill: none; stroke: #ff7f0e; stroke-width: 1.5; stroke-linecap: square"/>
   </g>
   <g id="patch_3">
    <path d="M 57.6 307.584 
L 57.6 41.472 
" style="fill: none; stroke: #000000; stroke-width: 0.8; stroke-linejoin: miter; stroke-linecap: square"/>
   </g>
   <g id="patch_4">
    <path d="M 414.72 307.584 
L 414.72 41.472 
" style="fill: none; stroke: #000000; stroke-width: 0.8; stroke-linejoin: miter; stroke-linecap: square"/>
   </g>
   <g id="patch_5">
    <path d="M 57.6 307.584 
L 414.72 307.584 
" style="fill: none; stroke: #000000; stroke-width: 0.8; stroke-linejoin: miter; stroke-linecap: square"/>
   </g>
   <g id="patch_6">
    <path d="M 57.6 41.472 
L 414.72 41.472 
" style="fill: none; stroke: #000000; stroke-width: 0.8; stroke-linejoin: miter; stroke-linecap: square"/>
   </g>
   <g id="text_16">
    <!-- pointer array existence test (reference) -->
    <g transform="translate(117.722813 35.472) scale(0.12 -0.12)">
     <defs>
      <path id="DejaVuSans-70" d="M 1159 525 
L 1159 -1331 
L 581 -1331 
L 581 3500 
L 1159 3500 
L 1159 2969 
Q 1341 3281 1617 3432 
Q 1894 3584 2278 3584 
Q 2916 3584 3314 3078 
Q 3713 2572 3713 1747 
Q 3713 922 3314 415 
Q 2916 -91 2278 -91 
Q 1894 -91 1617 61 
Q 1341 213 1159 525 
z
M 3116 1747 
Q 3116 2381 2855 2742 
Q 2594 3103 2138 3103 
Q 1681 3103 1420 2742 
Q 1159 2381 1159 1747 
Q 1159 1113 1420 752 
Q 1681 391 2138 391 
Q 2594 391 2855 752 
Q 3116 1113 3116 1747 
z
" transform="scale(0.015625)"/>
      <path id="DejaVuSans-6f" d="M 1959 3097 
Q 1497 3097 1228 2736 
Q 959 2375 959 1747 
Q 959 1119 1226 758 
Q 1494 397 1959 397 
Q 2419 397 2687 759 
Q 2956 1122 2956 1747 
Q 2956 2369 2687 2733 
Q 2419 3097 1959 3097 
z
M 1959 3584 
Q 2709 3584 3137 3096 
Q 3566 2609 3566 1747 
Q 3566 888 3137 398 
Q 2709 -91 1959 -91 
Q 1206 -91 779 398 
Q 353 888 353 1747 
Q 353 2609 779 3096 
Q 1206 3584 1959 3584 
z
" transform="scale(0.015625)"/>
      <path id="DejaVuSans-79" d="M 2059 -325 
Q 1816 -950 1584 -1140 
Q 1353 -1331 966 -1331 
L 506 -1331 
L 506 -850 
L 844 -850 
Q 1081 -850 1212 -737 
Q 1344 -625 1503 -206 
L 1606 56 
L 191 3500 
L 800 3500 
L 1894 763 
L 2988 3500 
L 3597 3500 
L 2059 -325 
z
" transform="scale(0.015625)"/>
      <path id="DejaVuSans-78" d="M 3513 3500 
L 2247 1797 
L 3578 0 
L 2900 0 
L 1881 1375 
L 863 0 
L 184 0 
L 1544 1831 
L 300 3500 
L 978 3500 
L 1906 2253 
L 2834 3500 
L 3513 3500 
z
" transform="scale(0.015625)"/>
      <path id="DejaVuSans-63" d="M 3122 3366 
L 3122 2828 
Q 2878 2963 2633 3030 
Q 2388 3097 2138 3097 
Q 1578 3097 1268 2742 
Q 959 2388 959 1747 
Q 959 1106 1268 751 
Q 1578 397 2138 397 
Q 2388 397 2633 464 
Q 2878 531 3122 666 
L 3122 134 
Q 2881 22 2623 -34 
Q 2366 -91 2075 -91 
Q 1284 -91 818 406 
Q 353 903 353 1747 
Q 353 2603 823 3093 
Q 1294 3584 2113 3584 
Q 2378 3584 2631 3529 
Q 2884 3475 3122 3366 
z
" transform="scale(0.015625)"/>
      <path id="DejaVuSans-28" d="M 1984 4856 
Q 1566 4138 1362 3434 
Q 1159 2731 1159 2009 
Q 1159 1288 1364 580 
Q 1569 -128 1984 -844 
L 1484 -844 
Q 1016 -109 783 600 
Q 550 1309 550 2009 
Q 550 2706 781 3412 
Q 1013 4119 1484 4856 
L 1984 4856 
z
" transform="scale(0.015625)"/>
      <path id="DejaVuSans-66" d="M 2375 4863 
L 2375 4384 
L 1825 4384 
Q 1516 4384 1395 4259 
Q 1275 4134 1275 3809 
L 1275 3500 
L 2222 3500 
L 2222 3053 
L 1275 3053 
L 1275 0 
L 697 0 
L 697 3053 
L 147 3053 
L 147 3500 
L 697 3500 
L 697 3744 
Q 697 4328 969 4595 
Q 1241 4863 1831 4863 
L 2375 4863 
z
" transform="scale(0.015625)"/>
      <path id="DejaVuSans-29" d="M 513 4856 
L 1013 4856 
Q 1481 4119 1714 3412 
Q 1947 2706 1947 2009 
Q 1947 1309 1714 600 
Q 1481 -109 1013 -844 
L 513 -844 
Q 928 -128 1133 580 
Q 1338 1288 1338 2009 
Q 1338 2731 1133 3434 
Q 928 4138 513 4856 
z
" transform="scale(0.015625)"/>
     </defs>
     <use xlink:href="#DejaVuSans-70"/>
     <use xlink:href="#DejaVuSans-6f" x="63.476562"/>
     <use xlink:href="#DejaVuSans-69" x="124.658203"/>
     <use xlink:href="#DejaVuSans-6e" x="152.441406"/>
     <use xlink:href="#DejaVuSans-74" x="215.820312"/>
     <use xlink:href="#DejaVuSans-65" x="255.029297"/>
     <use xlink:href="#DejaVuSans-72" x="316.552734"/>
     <use xlink:href="#DejaVuSans-20" x="357.666016"/>
     <use xlink:href="#DejaVuSans-61" x="389.453125"/>
     <use xlink:href="#DejaVuSans-72" x="450.732422"/>
     <use xlink:href="#DejaVuSans-72" x="490.095703"/>
     <use xlink:href="#DejaVuSans-61" x="531.208984"/>
     <use xlink:href="#DejaVuSans-79" x="592.488281"/>
     <use xlink:href="#DejaVuSans-20" x="651.667969"/>
     <use xlink:href="#DejaVuSans-65" x="683.455078"/>
     <use xlink:href="#DejaVuSans-78" x="743.228516"/>
     <use xlink:href="#DejaVuSans-69" x="802.408203"/>
     <use xlink:href="#DejaVuSans-73" x="830.191406"/>
     <use xlink:href="#DejaVuSans-74" x="882.291016"/>
     <use xlink:href="#DejaVuSans-65" x="921.5"/>
     <use xlink:href="#DejaVuSans-6e" x="983.023438"/>
     <use xlink:href="#DejaVuSans-63" x="1046.402344"/>
     <use xlink:href="#DejaVuSans-65" x="1101.382812"/>
     <use xlink:href="#DejaVuSans-20" x="1162.90625"/>
     <use xlink:href="#DejaVuSans-74" x="1194.693359"/>
     <use xlink:href="#DejaVuSans-65" x="1233.902344"/>
     <use xlink:href="#DejaVuSans-73" x="1295.425781"/>
     <use xlink:href="#DejaVuSans-74" x="1347.525391"/>
     <use xlink:href="#DejaVuSans-20" x="1386.734375"/>
     <use xlink:href="#DejaVuSans-28" x="1418.521484"/>
     <use xlink:href="#DejaVuSans-72" x="1457.535156"/>
     <use xlink:href="#DejaVuSans-65" x="1496.398438"/>
     <use xlink:href="#DejaVuSans-66" x="1557.921875"/>
     <use xlink:href="#DejaVuSans-65" x="1593.126953"/>
     <use xlink:href="#DejaVuSans-72" x="1654.650391"/>
     <use xlink:href="#DejaVuSans-65" x="1693.513672"/>
     <use xlink:href="#DejaVuSans-6e" x="1755.037109"/>
     <use xlink:href="#DejaVuSans-63" x="1818.416016"/>
     <use xlink:href="#DejaVuSans-65" x="1873.396484"/>
     <use xlink:href="#DejaVuSans-29" x="1934.919922"/>
    </g>
   </g>
   <g id="legend_1">
    <g id="patch_7">
     <path d="M 64.6 78.82825 
L 166.359375 78.82825 
Q 168.359375 78.82825 168.359375 76.82825 
L 168.359375 48.472 
Q 168.359375 46.472 166.359375 46.472 
L 64.6 46.472 
Q 62.6 46.472 62.6 48.472 
L 62.6 76.82825 
Q 62.6 78.82825 64.6 78.82825 
z
" style="fill: #ffffff; opacity: 0.8; stroke: #cccccc; stroke-linejoin: miter"/>
    </g>
    <g id="line2d_16">
     <path d="M 66.6 54.570437 
L 76.6 54.570437 
L 86.6 54.570437 
" style="fill: none; stroke: #1f77b4; stroke-width: 1.5; stroke-linecap: square"/>
    </g>
    <g id="text_17">
     <!-- measurement -->
     <g transform="translate(94.6 58.070437) scale(0.1 -0.1)">
      <use xlink:href="#DejaVuSans-6d"/>
      <use xlink:href="#DejaVuSans-65" x="97.412109"/>
      <use xlink:href="#DejaVuSans-61" x="158.935547"/>
      <use xlink:href="#DejaVuSans-73" x="220.214844"/>
      <use xlink:href="#DejaVuSans-75" x="272.314453"/>
      <use xlink:href="#DejaVuSans-72" x="335.693359"/>
      <use xlink:href="#DejaVuSans-65" x="374.556641"/>
      <use xlink:href="#DejaVuSans-6d" x="436.080078"/>
      <use xlink:href="#DejaVuSans-65" x="533.492188"/>
      <use xlink:href="#DejaVuSans-6e" x="595.015625"/>
      <use xlink:href="#DejaVuSans-74" x="658.394531"/>
     </g>
    </g>
    <g id="line2d_17">
     <path d="M 66.6 69.248562 
L 76.6 69.248562 
L 86.6 69.248562 
" style="fill: none; stroke: #ff7f0e; stroke-width: 1.5; stroke-linecap: square"/>
    </g>
    <g id="text_18">
     <!-- reference -->
     <g transform="translate(94.6 72.748562) scale(0.1 -0.1)">
      <use xlink:href="#DejaVuSans-72"/>
      <use xlink:href="#DejaVuSans-65" x="38.863281"/>
      <use xlink:href="#DejaVuSans-66" x="100.386719"/>
      <use xlink:href="#DejaVuSans-65" x="135.591797"/>
      <use xlink:href="#DejaVuSans-72" x="197.115234"/>
      <use xlink:href="#DejaVuSans-65" x="235.978516"/>
      <use xlink:href="#DejaVuSans-6e" x="297.501953"/>
      <use xlink:href="#DejaVuSans-63" x="360.880859"/>
      <use xlink:href="#DejaVuSans-65" x="415.861328"/>
     </g>
    </g>
   </g>
  </g>
 </g>
 <defs>
  <clipPath id="pc9a05202ff">
   <rect x="57.6" y="41.472" width="357.12" height="266.112"/>
  </clipPath>
 </defs>
</svg>
