<?xml version="1.0" encoding="utf-8" standalone="no"?>
<!DOCTYPE svg PUBLIC "-//W3C//DTD SVG 1.1//EN"
  "http://www.w3.org/Graphics/SVG/1.1/DTD/svg11.dtd">
<svg xmlns:xlink="http://www.w3.org/1999/xlink" width="460.8pt" height="345.6pt" viewBox="0 0 460.8 345.6" xmlns="http://www.w3.org/2000/svg" version="1.1">
 <metadata>
  <rdf:RDF xmlns:dc="http://purl.org/dc/elements/1.1/" xmlns:cc="http://creativecommons.org/ns#" xmlns:rdf="http://www.w3.org/1999/02/22-rdf-syntax-ns#">
   <cc:Work>
    <dc:type rdf:resource="http://purl.org/dc/dcmitype/StillImage"/>
    <dc:date>2024-10-04T17:20:29.921960</dc:date>
    <dc:format>image/svg+xml</dc:format>
    <dc:creator>
     <cc:Agent>
      <dc:title>Matplotlib v3.9.2, https://matplotlib.org/</dc:title>
     </cc:Agent>
    </dc:creator>
   </cc:Work>
  </rdf:RDF>
 </metadata>
 <defs>
  <style type="text/css">*{stroke-linejoin: round; stroke-linecap: butt}</style>
 </defs>
 <g id="figure_1">
  <g id="patch_1">
   <path d="M 0 345.6 
L 460.8 345.6 
L 460.8 0 
L 0 0 
z
" style="fill: #ffffff"/>
  </g>
  <g id="axes_1">
   <g id="patch_2">
    <path d="M 57.6 307.584 
L 414.72 307.584 
L 414.72 41.472 
L 57.6 41.472 
z
" style="fill: #ffffff"/>
   </g>
   <g id="matplotlib.axis_1">
    <g id="xtick_1">
     <g id="line2d_1">
      <defs>
       <path id="m5fb29802e3" d="M 0 0 
L 0 3.5 
" style="stroke: #000000; stroke-width: 0.8"/>
      </defs>
      <g>
       <use xlink:href="#m5fb29802e3" x="73.832727" y="307.584" style="stroke: #000000; stroke-width: 0.8"/>
      </g>
     </g>
     <g id="text_1">
      <!-- 0 -->
      <g transform="translate(70.651477 322.182437) scale(0.1 -0.1)">
       <defs>
        <path id="DejaVuSans-30" d="M 2034 4250 
Q 1547 4250 1301 3770 
Q 1056 3291 1056 2328 
Q 1056 1369 1301 889 
Q 1547 409 2034 409 
Q 2525 409 2770 889 
Q 3016 1369 3016 2328 
Q 3016 3291 2770 3770 
Q 2525 4250 2034 4250 
z
M 2034 4750 
Q 2819 4750 3233 4129 
Q 3647 3509 3647 2328 
Q 3647 1150 3233 529 
Q 2819 -91 2034 -91 
Q 1250 -91 836 529 
Q 422 1150 422 2328 
Q 422 3509 836 4129 
Q 1250 4750 2034 4750 
z
" transform="scale(0.015625)"/>
       </defs>
       <use xlink:href="#DejaVuSans-30"/>
      </g>
     </g>
    </g>
    <g id="xtick_2">
     <g id="line2d_2">
      <g>
       <use xlink:href="#m5fb29802e3" x="138.776625" y="307.584" style="stroke: #000000; stroke-width: 0.8"/>
      </g>
     </g>
     <g id="text_2">
      <!-- 1000 -->
      <g transform="translate(126.051625 322.182437) scale(0.1 -0.1)">
       <defs>
        <path id="DejaVuSans-31" d="M 794 531 
L 1825 531 
L 1825 4091 
L 703 3866 
L 703 4441 
L 1819 4666 
L 2450 4666 
L 2450 531 
L 3481 531 
L 3481 0 
L 794 0 
L 794 531 
z
" transform="scale(0.015625)"/>
       </defs>
       <use xlink:href="#DejaVuSans-31"/>
       <use xlink:href="#DejaVuSans-30" x="63.623047"/>
       <use xlink:href="#DejaVuSans-30" x="127.246094"/>
       <use xlink:href="#DejaVuSans-30" x="190.869141"/>
      </g>
     </g>
    </g>
    <g id="xtick_3">
     <g id="line2d_3">
      <g>
       <use xlink:href="#m5fb29802e3" x="203.720523" y="307.584" style="stroke: #000000; stroke-width: 0.8"/>
      </g>
     </g>
     <g id="text_3">
      <!-- 2000 -->
      <g transform="translate(190.995523 322.182437) scale(0.1 -0.1)">
       <defs>
        <path id="DejaVuSans-32" d="M 1228 531 
L 3431 531 
L 3431 0 
L 469 0 
L 469 531 
Q 828 903 1448 1529 
Q 2069 2156 2228 2338 
Q 2531 2678 2651 2914 
Q 2772 3150 2772 3378 
Q 2772 3750 2511 3984 
Q 2250 4219 1831 4219 
Q 1534 4219 1204 4116 
Q 875 4013 500 3803 
L 500 4441 
Q 881 4594 1212 4672 
Q 1544 4750 1819 4750 
Q 2544 4750 2975 4387 
Q 3406 4025 3406 3419 
Q 3406 3131 3298 2873 
Q 3191 2616 2906 2266 
Q 2828 2175 2409 1742 
Q 1991 1309 1228 531 
z
" transform="scale(0.015625)"/>
       </defs>
       <use xlink:href="#DejaVuSans-32"/>
       <use xlink:href="#DejaVuSans-30" x="63.623047"/>
       <use xlink:href="#DejaVuSans-30" x="127.246094"/>
       <use xlink:href="#DejaVuSans-30" x="190.869141"/>
      </g>
     </g>
    </g>
    <g id="xtick_4">
     <g id="line2d_4">
      <g>
       <use xlink:href="#m5fb29802e3" x="268.664421" y="307.584" style="stroke: #000000; stroke-width: 0.8"/>
      </g>
     </g>
     <g id="text_4">
      <!-- 3000 -->
      <g transform="translate(255.939421 322.182437) scale(0.1 -0.1)">
       <defs>
        <path id="DejaVuSans-33" d="M 2597 2516 
Q 3050 2419 3304 2112 
Q 3559 1806 3559 1356 
Q 3559 666 3084 287 
Q 2609 -91 1734 -91 
Q 1441 -91 1130 -33 
Q 819 25 488 141 
L 488 750 
Q 750 597 1062 519 
Q 1375 441 1716 441 
Q 2309 441 2620 675 
Q 2931 909 2931 1356 
Q 2931 1769 2642 2001 
Q 2353 2234 1838 2234 
L 1294 2234 
L 1294 2753 
L 1863 2753 
Q 2328 2753 2575 2939 
Q 2822 3125 2822 3475 
Q 2822 3834 2567 4026 
Q 2313 4219 1838 4219 
Q 1578 4219 1281 4162 
Q 984 4106 628 3988 
L 628 4550 
Q 988 4650 1302 4700 
Q 1616 4750 1894 4750 
Q 2613 4750 3031 4423 
Q 3450 4097 3450 3541 
Q 3450 3153 3228 2886 
Q 3006 2619 2597 2516 
z
" transform="scale(0.015625)"/>
       </defs>
       <use xlink:href="#DejaVuSans-33"/>
       <use xlink:href="#DejaVuSans-30" x="63.623047"/>
       <use xlink:href="#DejaVuSans-30" x="127.246094"/>
       <use xlink:href="#DejaVuSans-30" x="190.869141"/>
      </g>
     </g>
    </g>
    <g id="xtick_5">
     <g id="line2d_5">
      <g>
       <use xlink:href="#m5fb29802e3" x="333.608319" y="307.584" style="stroke: #000000; stroke-width: 0.8"/>
      </g>
     </g>
     <g id="text_5">
      <!-- 4000 -->
      <g transform="translate(320.883319 322.182437) scale(0.1 -0.1)">
       <defs>
        <path id="DejaVuSans-34" d="M 2419 4116 
L 825 1625 
L 2419 1625 
L 2419 4116 
z
M 2253 4666 
L 3047 4666 
L 3047 1625 
L 3713 1625 
L 3713 1100 
L 3047 1100 
L 3047 0 
L 2419 0 
L 2419 1100 
L 313 1100 
L 313 1709 
L 2253 4666 
z
" transform="scale(0.015625)"/>
       </defs>
       <use xlink:href="#DejaVuSans-34"/>
       <use xlink:href="#DejaVuSans-30" x="63.623047"/>
       <use xlink:href="#DejaVuSans-30" x="127.246094"/>
       <use xlink:href="#DejaVuSans-30" x="190.869141"/>
      </g>
     </g>
    </g>
    <g id="xtick_6">
     <g id="line2d_6">
      <g>
       <use xlink:href="#m5fb29802e3" x="398.552217" y="307.584" style="stroke: #000000; stroke-width: 0.8"/>
      </g>
     </g>
     <g id="text_6">
      <!-- 5000 -->
      <g transform="translate(385.827217 322.182437) scale(0.1 -0.1)">
       <defs>
        <path id="DejaVuSans-35" d="M 691 4666 
L 3169 4666 
L 3169 4134 
L 1269 4134 
L 1269 2991 
Q 1406 3038 1543 3061 
Q 1681 3084 1819 3084 
Q 2600 3084 3056 2656 
Q 3513 2228 3513 1497 
Q 3513 744 3044 326 
Q 2575 -91 1722 -91 
Q 1428 -91 1123 -41 
Q 819 9 494 109 
L 494 744 
Q 775 591 1075 516 
Q 1375 441 1709 441 
Q 2250 441 2565 725 
Q 2881 1009 2881 1497 
Q 2881 1984 2565 2268 
Q 2250 2553 1709 2553 
Q 1456 2553 1204 2497 
Q 953 2441 691 2322 
L 691 4666 
z
" transform="scale(0.015625)"/>
       </defs>
       <use xlink:href="#DejaVuSans-35"/>
       <use xlink:href="#DejaVuSans-30" x="63.623047"/>
       <use xlink:href="#DejaVuSans-30" x="127.246094"/>
       <use xlink:href="#DejaVuSans-30" x="190.869141"/>
      </g>
     </g>
    </g>
    <g id="text_7">
     <!-- measurement # -->
     <g transform="translate(195.501406 335.860562) scale(0.1 -0.1)">
      <defs>
       <path id="DejaVuSans-6d" d="M 3328 2828 
Q 3544 3216 3844 3400 
Q 4144 3584 4550 3584 
Q 5097 3584 5394 3201 
Q 5691 2819 5691 2113 
L 5691 0 
L 5113 0 
L 5113 2094 
Q 5113 2597 4934 2840 
Q 4756 3084 4391 3084 
Q 3944 3084 3684 2787 
Q 3425 2491 3425 1978 
L 3425 0 
L 2847 0 
L 2847 2094 
Q 2847 2600 2669 2842 
Q 2491 3084 2119 3084 
Q 1678 3084 1418 2786 
Q 1159 2488 1159 1978 
L 1159 0 
L 581 0 
L 581 3500 
L 1159 3500 
L 1159 2956 
Q 1356 3278 1631 3431 
Q 1906 3584 2284 3584 
Q 2666 3584 2933 3390 
Q 3200 3197 3328 2828 
z
" transform="scale(0.015625)"/>
       <path id="DejaVuSans-65" d="M 3597 1894 
L 3597 1613 
L 953 1613 
Q 991 1019 1311 708 
Q 1631 397 2203 397 
Q 2534 397 2845 478 
Q 3156 559 3463 722 
L 3463 178 
Q 3153 47 2828 -22 
Q 2503 -91 2169 -91 
Q 1331 -91 842 396 
Q 353 884 353 1716 
Q 353 2575 817 3079 
Q 1281 3584 2069 3584 
Q 2775 3584 3186 3129 
Q 3597 2675 3597 1894 
z
M 3022 2063 
Q 3016 2534 2758 2815 
Q 2500 3097 2075 3097 
Q 1594 3097 1305 2825 
Q 1016 2553 972 2059 
L 3022 2063 
z
" transform="scale(0.015625)"/>
       <path id="DejaVuSans-61" d="M 2194 1759 
Q 1497 1759 1228 1600 
Q 959 1441 959 1056 
Q 959 750 1161 570 
Q 1363 391 1709 391 
Q 2188 391 2477 730 
Q 2766 1069 2766 1631 
L 2766 1759 
L 2194 1759 
z
M 3341 1997 
L 3341 0 
L 2766 0 
L 2766 531 
Q 2569 213 2275 61 
Q 1981 -91 1556 -91 
Q 1019 -91 701 211 
Q 384 513 384 1019 
Q 384 1609 779 1909 
Q 1175 2209 1959 2209 
L 2766 2209 
L 2766 2266 
Q 2766 2663 2505 2880 
Q 2244 3097 1772 3097 
Q 1472 3097 1187 3025 
Q 903 2953 641 2809 
L 641 3341 
Q 956 3463 1253 3523 
Q 1550 3584 1831 3584 
Q 2591 3584 2966 3190 
Q 3341 2797 3341 1997 
z
" transform="scale(0.015625)"/>
       <path id="DejaVuSans-73" d="M 2834 3397 
L 2834 2853 
Q 2591 2978 2328 3040 
Q 2066 3103 1784 3103 
Q 1356 3103 1142 2972 
Q 928 2841 928 2578 
Q 928 2378 1081 2264 
Q 1234 2150 1697 2047 
L 1894 2003 
Q 2506 1872 2764 1633 
Q 3022 1394 3022 966 
Q 3022 478 2636 193 
Q 2250 -91 1575 -91 
Q 1294 -91 989 -36 
Q 684 19 347 128 
L 347 722 
Q 666 556 975 473 
Q 1284 391 1588 391 
Q 1994 391 2212 530 
Q 2431 669 2431 922 
Q 2431 1156 2273 1281 
Q 2116 1406 1581 1522 
L 1381 1569 
Q 847 1681 609 1914 
Q 372 2147 372 2553 
Q 372 3047 722 3315 
Q 1072 3584 1716 3584 
Q 2034 3584 2315 3537 
Q 2597 3491 2834 3397 
z
" transform="scale(0.015625)"/>
       <path id="DejaVuSans-75" d="M 544 1381 
L 544 3500 
L 1119 3500 
L 1119 1403 
Q 1119 906 1312 657 
Q 1506 409 1894 409 
Q 2359 409 2629 706 
Q 2900 1003 2900 1516 
L 2900 3500 
L 3475 3500 
L 3475 0 
L 2900 0 
L 2900 538 
Q 2691 219 2414 64 
Q 2138 -91 1772 -91 
Q 1169 -91 856 284 
Q 544 659 544 1381 
z
M 1991 3584 
L 1991 3584 
z
" transform="scale(0.015625)"/>
       <path id="DejaVuSans-72" d="M 2631 2963 
Q 2534 3019 2420 3045 
Q 2306 3072 2169 3072 
Q 1681 3072 1420 2755 
Q 1159 2438 1159 1844 
L 1159 0 
L 581 0 
L 581 3500 
L 1159 3500 
L 1159 2956 
Q 1341 3275 1631 3429 
Q 1922 3584 2338 3584 
Q 2397 3584 2469 3576 
Q 2541 3569 2628 3553 
L 2631 2963 
z
" transform="scale(0.015625)"/>
       <path id="DejaVuSans-6e" d="M 3513 2113 
L 3513 0 
L 2938 0 
L 2938 2094 
Q 2938 2591 2744 2837 
Q 2550 3084 2163 3084 
Q 1697 3084 1428 2787 
Q 1159 2491 1159 1978 
L 1159 0 
L 581 0 
L 581 3500 
L 1159 3500 
L 1159 2956 
Q 1366 3272 1645 3428 
Q 1925 3584 2291 3584 
Q 2894 3584 3203 3211 
Q 3513 2838 3513 2113 
z
" transform="scale(0.015625)"/>
       <path id="DejaVuSans-74" d="M 1172 4494 
L 1172 3500 
L 2356 3500 
L 2356 3053 
L 1172 3053 
L 1172 1153 
Q 1172 725 1289 603 
Q 1406 481 1766 481 
L 2356 481 
L 2356 0 
L 1766 0 
Q 1100 0 847 248 
Q 594 497 594 1153 
L 594 3053 
L 172 3053 
L 172 3500 
L 594 3500 
L 594 4494 
L 1172 4494 
z
" transform="scale(0.015625)"/>
       <path id="DejaVuSans-20" transform="scale(0.015625)"/>
       <path id="DejaVuSans-23" d="M 3272 2816 
L 2363 2816 
L 2100 1772 
L 3016 1772 
L 3272 2816 
z
M 2803 4594 
L 2478 3297 
L 3391 3297 
L 3719 4594 
L 4219 4594 
L 3897 3297 
L 4872 3297 
L 4872 2816 
L 3775 2816 
L 3519 1772 
L 4513 1772 
L 4513 1294 
L 3397 1294 
L 3072 0 
L 2572 0 
L 2894 1294 
L 1978 1294 
L 1656 0 
L 1153 0 
L 1478 1294 
L 494 1294 
L 494 1772 
L 1594 1772 
L 1856 2816 
L 850 2816 
L 850 3297 
L 1978 3297 
L 2297 4594 
L 2803 4594 
z
" transform="scale(0.015625)"/>
      </defs>
      <use xlink:href="#DejaVuSans-6d"/>
      <use xlink:href="#DejaVuSans-65" x="97.412109"/>
      <use xlink:href="#DejaVuSans-61" x="158.935547"/>
      <use xlink:href="#DejaVuSans-73" x="220.214844"/>
      <use xlink:href="#DejaVuSans-75" x="272.314453"/>
      <use xlink:href="#DejaVuSans-72" x="335.693359"/>
      <use xlink:href="#DejaVuSans-65" x="374.556641"/>
      <use xlink:href="#DejaVuSans-6d" x="436.080078"/>
      <use xlink:href="#DejaVuSans-65" x="533.492188"/>
      <use xlink:href="#DejaVuSans-6e" x="595.015625"/>
      <use xlink:href="#DejaVuSans-74" x="658.394531"/>
      <use xlink:href="#DejaVuSans-20" x="697.603516"/>
      <use xlink:href="#DejaVuSans-23" x="729.390625"/>
     </g>
    </g>
   </g>
   <g id="matplotlib.axis_2">
    <g id="ytick_1">
     <g id="line2d_7">
      <defs>
       <path id="m4a7c5e3db3" d="M 0 0 
L -3.5 0 
" style="stroke: #000000; stroke-width: 0.8"/>
      </defs>
      <g>
       <use xlink:href="#m4a7c5e3db3" x="57.6" y="306.245831" style="stroke: #000000; stroke-width: 0.8"/>
      </g>
     </g>
     <g id="text_8">
      <!-- 0 -->
      <g transform="translate(44.2375 310.04505) scale(0.1 -0.1)">
       <use xlink:href="#DejaVuSans-30"/>
      </g>
     </g>
    </g>
    <g id="ytick_2">
     <g id="line2d_8">
      <g>
       <use xlink:href="#m4a7c5e3db3" x="57.6" y="273.447566" style="stroke: #000000; stroke-width: 0.8"/>
      </g>
     </g>
     <g id="text_9">
      <!-- 250 -->
      <g transform="translate(31.5125 277.246785) scale(0.1 -0.1)">
       <use xlink:href="#DejaVuSans-32"/>
       <use xlink:href="#DejaVuSans-35" x="63.623047"/>
       <use xlink:href="#DejaVuSans-30" x="127.246094"/>
      </g>
     </g>
    </g>
    <g id="ytick_3">
     <g id="line2d_9">
      <g>
       <use xlink:href="#m4a7c5e3db3" x="57.6" y="240.649302" style="stroke: #000000; stroke-width: 0.8"/>
      </g>
     </g>
     <g id="text_10">
      <!-- 500 -->
      <g transform="translate(31.5125 244.44852) scale(0.1 -0.1)">
       <use xlink:href="#DejaVuSans-35"/>
       <use xlink:href="#DejaVuSans-30" x="63.623047"/>
       <use xlink:href="#DejaVuSans-30" x="127.246094"/>
      </g>
     </g>
    </g>
    <g id="ytick_4">
     <g id="line2d_10">
      <g>
       <use xlink:href="#m4a7c5e3db3" x="57.6" y="207.851037" style="stroke: #000000; stroke-width: 0.8"/>
      </g>
     </g>
     <g id="text_11">
      <!-- 750 -->
      <g transform="translate(31.5125 211.650256) scale(0.1 -0.1)">
       <defs>
        <path id="DejaVuSans-37" d="M 525 4666 
L 3525 4666 
L 3525 4397 
L 1831 0 
L 1172 0 
L 2766 4134 
L 525 4134 
L 525 4666 
z
" transform="scale(0.015625)"/>
       </defs>
       <use xlink:href="#DejaVuSans-37"/>
       <use xlink:href="#DejaVuSans-35" x="63.623047"/>
       <use xlink:href="#DejaVuSans-30" x="127.246094"/>
      </g>
     </g>
    </g>
    <g id="ytick_5">
     <g id="line2d_11">
      <g>
       <use xlink:href="#m4a7c5e3db3" x="57.6" y="175.052772" style="stroke: #000000; stroke-width: 0.8"/>
      </g>
     </g>
     <g id="text_12">
      <!-- 1000 -->
      <g transform="translate(25.15 178.851991) scale(0.1 -0.1)">
       <use xlink:href="#DejaVuSans-31"/>
       <use xlink:href="#DejaVuSans-30" x="63.623047"/>
       <use xlink:href="#DejaVuSans-30" x="127.246094"/>
       <use xlink:href="#DejaVuSans-30" x="190.869141"/>
      </g>
     </g>
    </g>
    <g id="ytick_6">
     <g id="line2d_12">
      <g>
       <use xlink:href="#m4a7c5e3db3" x="57.6" y="142.254508" style="stroke: #000000; stroke-width: 0.8"/>
      </g>
     </g>
     <g id="text_13">
      <!-- 1250 -->
      <g transform="translate(25.15 146.053726) scale(0.1 -0.1)">
       <use xlink:href="#DejaVuSans-31"/>
       <use xlink:href="#DejaVuSans-32" x="63.623047"/>
       <use xlink:href="#DejaVuSans-35" x="127.246094"/>
       <use xlink:href="#DejaVuSans-30" x="190.869141"/>
      </g>
     </g>
    </g>
    <g id="ytick_7">
     <g id="line2d_13">
      <g>
       <use xlink:href="#m4a7c5e3db3" x="57.6" y="109.456243" style="stroke: #000000; stroke-width: 0.8"/>
      </g>
     </g>
     <g id="text_14">
      <!-- 1500 -->
      <g transform="translate(25.15 113.255462) scale(0.1 -0.1)">
       <use xlink:href="#DejaVuSans-31"/>
       <use xlink:href="#DejaVuSans-35" x="63.623047"/>
       <use xlink:href="#DejaVuSans-30" x="127.246094"/>
       <use xlink:href="#DejaVuSans-30" x="190.869141"/>
      </g>
     </g>
    </g>
    <g id="ytick_8">
     <g id="line2d_14">
      <g>
       <use xlink:href="#m4a7c5e3db3" x="57.6" y="76.657978" style="stroke: #000000; stroke-width: 0.8"/>
      </g>
     </g>
     <g id="text_15">
      <!-- 1750 -->
      <g transform="translate(25.15 80.457197) scale(0.1 -0.1)">
       <use xlink:href="#DejaVuSans-31"/>
       <use xlink:href="#DejaVuSans-37" x="63.623047"/>
       <use xlink:href="#DejaVuSans-35" x="127.246094"/>
       <use xlink:href="#DejaVuSans-30" x="190.869141"/>
      </g>
     </g>
    </g>
    <g id="ytick_9">
     <g id="line2d_15">
      <g>
       <use xlink:href="#m4a7c5e3db3" x="57.6" y="43.859714" style="stroke: #000000; stroke-width: 0.8"/>
      </g>
     </g>
     <g id="text_16">
      <!-- 2000 -->
      <g transform="translate(25.15 47.658932) scale(0.1 -0.1)">
       <use xlink:href="#DejaVuSans-32"/>
       <use xlink:href="#DejaVuSans-30" x="63.623047"/>
       <use xlink:href="#DejaVuSans-30" x="127.246094"/>
       <use xlink:href="#DejaVuSans-30" x="190.869141"/>
      </g>
     </g>
    </g>
    <g id="text_17">
     <!-- time -->
     <g transform="translate(19.070312 185.824094) rotate(-90) scale(0.1 -0.1)">
      <defs>
       <path id="DejaVuSans-69" d="M 603 3500 
L 1178 3500 
L 1178 0 
L 603 0 
L 603 3500 
z
M 603 4863 
L 1178 4863 
L 1178 4134 
L 603 4134 
L 603 4863 
z
" transform="scale(0.015625)"/>
      </defs>
      <use xlink:href="#DejaVuSans-74"/>
      <use xlink:href="#DejaVuSans-69" x="39.208984"/>
      <use xlink:href="#DejaVuSans-6d" x="66.992188"/>
      <use xlink:href="#DejaVuSans-65" x="164.404297"/>
     </g>
    </g>
   </g>
   <g id="line2d_16">
    <path d="M 73.832727 293.520104 
L 73.962615 293.520104 
L 74.092503 292.995332 
L 87.665778 292.995332 
L 87.730721 292.864139 
L 87.990497 291.945787 
L 88.899712 291.945787 
L 88.964655 290.896243 
L 89.094543 273.709952 
L 89.289375 273.709952 
L 89.419263 273.578759 
L 90.19859 273.578759 
L 90.328477 273.447566 
L 90.977916 273.447566 
L 91.107804 273.316373 
L 92.017019 273.316373 
L 92.146906 273.18518 
L 93.056121 273.18518 
L 93.186009 273.053987 
L 93.445784 273.053987 
L 93.575672 272.922794 
L 93.965336 272.922794 
L 94.03028 272.529215 
L 94.095223 271.217284 
L 94.225111 246.684182 
L 94.290055 246.684182 
L 94.419943 246.552989 
L 94.484887 246.552989 
L 94.614775 246.421796 
L 95.069382 246.421796 
L 95.19927 246.290603 
L 96.433204 246.290603 
L 96.563092 246.15941 
L 98.056801 246.15941 
L 98.186689 246.028217 
L 99.485567 246.028217 
L 99.615455 245.897024 
L 100.654557 245.897024 
L 100.784445 245.765831 
L 101.303996 245.765831 
L 101.433884 245.634638 
L 101.953435 245.634638 
L 102.083323 245.503445 
L 102.472986 245.503445 
L 102.602874 245.372252 
L 102.797706 245.372252 
L 102.927594 245.241059 
L 103.122425 245.241059 
L 103.317257 244.978672 
L 103.447145 244.978672 
L 103.771864 244.4539 
L 104.356359 244.4539 
L 104.486247 244.322707 
L 104.681079 244.322707 
L 104.87591 244.060321 
L 105.20063 244.060321 
L 105.330518 243.929128 
L 105.395462 243.929128 
L 105.525349 243.797935 
L 105.655237 243.797935 
L 105.785125 243.666742 
L 106.044901 243.666742 
L 106.36962 243.14197 
L 106.434564 243.14197 
L 106.564452 243.010777 
L 106.69434 243.010777 
L 107.148947 242.223618 
L 107.278835 242.223618 
L 107.473666 241.698846 
L 107.603554 241.567653 
L 107.668498 241.567653 
L 107.798386 241.43646 
L 107.86333 241.43646 
L 107.993218 241.305267 
L 108.123105 241.305267 
L 108.317937 241.042881 
L 108.382881 241.042881 
L 108.512769 240.911688 
L 108.577713 240.911688 
L 108.772544 240.649302 
L 108.902432 240.649302 
L 109.097264 240.386915 
L 109.227152 240.386915 
L 109.486927 239.993336 
L 109.616815 239.993336 
L 109.746703 239.862143 
L 109.811647 239.862143 
L 110.006478 239.337371 
L 110.071422 239.337371 
L 111.175469 237.238282 
L 111.240412 237.238282 
L 111.630076 236.451124 
L 111.889851 235.532772 
L 111.954795 235.532772 
L 112.214571 235.008 
L 112.344459 234.352035 
L 112.409403 234.352035 
L 112.604234 233.827262 
L 112.734122 233.171297 
L 112.86401 233.171297 
L 112.993898 233.040104 
L 113.058842 233.040104 
L 113.188729 232.908911 
L 114.033 232.908911 
L 114.162888 232.777718 
L 114.812327 232.777718 
L 114.942215 232.646525 
L 116.306036 232.646525 
L 116.435924 232.515332 
L 117.215251 232.515332 
L 117.345139 232.384139 
L 118.124466 232.384139 
L 118.254353 232.252946 
L 118.708961 232.252946 
L 118.838848 232.121753 
L 119.423344 232.121753 
L 119.553231 231.99056 
L 120.072783 231.99056 
L 120.20267 231.859367 
L 120.332558 231.859367 
L 120.462446 231.728174 
L 120.657278 231.728174 
L 120.787165 231.59698 
L 120.981997 231.59698 
L 121.111885 231.465787 
L 121.436604 231.465787 
L 121.631436 231.203401 
L 121.761324 231.203401 
L 121.891212 231.072208 
L 122.280875 231.072208 
L 122.410763 230.941015 
L 122.800426 230.941015 
L 122.930314 230.809822 
L 123.060202 230.809822 
L 123.19009 230.678629 
L 123.969416 230.678629 
L 124.099304 230.547436 
L 124.813687 230.547436 
L 124.943575 230.416243 
L 125.593014 230.416243 
L 125.722902 230.28505 
L 126.372341 230.28505 
L 126.502228 230.153857 
L 127.216611 230.153857 
L 127.346499 230.022664 
L 127.476387 230.022664 
L 127.606275 229.891471 
L 127.736163 229.891471 
L 127.86605 229.760278 
L 128.060882 229.760278 
L 128.19077 229.629085 
L 128.255714 229.629085 
L 128.385601 229.497892 
L 128.710321 229.497892 
L 128.840209 229.366698 
L 129.229872 229.366698 
L 129.35976 229.235505 
L 129.684479 229.235505 
L 129.814367 229.104312 
L 130.074143 229.104312 
L 130.204031 228.973119 
L 130.268975 228.973119 
L 130.593694 228.448347 
L 130.658638 228.448347 
L 130.788526 228.317154 
L 130.85347 228.317154 
L 130.983357 228.185961 
L 131.243133 228.185961 
L 131.373021 228.054768 
L 131.437965 228.054768 
L 131.632796 227.792382 
L 131.762684 227.792382 
L 131.892572 227.661189 
L 132.152348 227.661189 
L 132.347179 227.398803 
L 132.86673 227.398803 
L 132.996618 227.26761 
L 136.69842 227.26761 
L 136.828308 227.136416 
L 147.998659 227.136416 
L 148.128546 227.005223 
L 161.312158 227.005223 
L 161.442046 226.87403 
L 177.67802 226.87403 
L 177.807908 226.742837 
L 195.66748 226.742837 
L 195.797367 226.611644 
L 213.33222 226.611644 
L 213.462108 226.480451 
L 227.360102 226.480451 
L 227.48999 226.349258 
L 244.180571 226.349258 
L 244.310459 226.218065 
L 253.012941 226.218065 
L 253.142829 226.086872 
L 255.675641 226.086872 
L 255.805529 225.955679 
L 258.143509 225.955679 
L 258.273397 225.824486 
L 261.065985 225.824486 
L 261.195873 225.693293 
L 262.81947 225.693293 
L 262.949358 225.5621 
L 264.31318 225.5621 
L 264.443068 225.430907 
L 266.131609 225.430907 
L 266.261497 225.299714 
L 271.911616 225.299714 
L 272.041504 225.168521 
L 283.276798 225.168521 
L 283.406686 225.037328 
L 294.187373 225.037328 
L 294.317261 224.906134 
L 306.656601 224.906134 
L 306.786489 224.774941 
L 322.437968 224.774941 
L 322.567856 224.643748 
L 338.284279 224.643748 
L 338.414167 224.512555 
L 351.402947 224.512555 
L 351.532835 224.381362 
L 361.534195 224.381362 
L 361.664083 224.250169 
L 365.820492 224.250169 
L 365.95038 224.118976 
L 368.353304 224.118976 
L 368.483192 223.987783 
L 370.626341 223.987783 
L 370.756228 223.85659 
L 372.249938 223.85659 
L 372.379826 223.725397 
L 374.263199 223.725397 
L 374.393087 223.594204 
L 376.081628 223.594204 
L 376.211516 223.463011 
L 377.705225 223.463011 
L 377.835113 223.331818 
L 379.069047 223.331818 
L 379.198935 223.200625 
L 379.328823 223.200625 
L 379.458711 223.069432 
L 379.523655 223.069432 
L 379.653542 222.938239 
L 379.848374 222.938239 
L 379.978262 222.807046 
L 380.10815 222.807046 
L 380.367925 222.413466 
L 380.627701 222.413466 
L 380.757589 222.282273 
L 381.082308 222.282273 
L 381.212196 222.15108 
L 381.861635 222.15108 
L 381.991523 222.019887 
L 382.44613 222.019887 
L 382.576018 221.888694 
L 383.745008 221.888694 
L 383.874896 221.757501 
L 385.628381 221.757501 
L 385.758269 221.626308 
L 386.472652 221.626308 
L 386.602539 221.495115 
L 388.161193 221.495115 
L 388.291081 221.363922 
L 390.174454 221.363922 
L 390.304342 221.232729 
L 391.213556 221.232729 
L 391.343444 221.101536 
L 392.187715 221.101536 
L 392.317602 220.970343 
L 392.577378 220.970343 
L 392.707266 220.83915 
L 392.902098 220.83915 
L 393.031985 220.707957 
L 393.291761 220.707957 
L 393.421649 220.576764 
L 393.61648 220.576764 
L 393.746368 220.44557 
L 393.811312 220.44557 
L 393.9412 220.314377 
L 394.006144 220.314377 
L 394.136032 220.183184 
L 394.330863 220.183184 
L 394.525695 219.920798 
L 394.720527 219.920798 
L 394.980302 219.527219 
L 395.305022 214.673076 
L 395.564797 210.081319 
L 395.629741 209.950126 
L 395.889517 208.244616 
L 396.149292 206.932685 
L 396.27918 203.25928 
L 396.344124 202.734508 
L 396.668844 193.682187 
L 396.993563 178.070213 
L 397.188395 175.315158 
L 397.318283 174.265614 
L 397.513114 167.049996 
L 397.707946 166.525223 
L 397.77289 166.525223 
L 397.967722 166.000451 
L 398.097609 164.557328 
L 398.162553 161.146308 
L 398.292441 112.080104 
L 398.487273 107.61954 
L 398.487273 107.61954 
" clip-path="url(#pf84635d6b1)" style="fill: none; stroke: #1f77b4; stroke-width: 1.5; stroke-linecap: square"/>
   </g>
   <g id="line2d_17">
    <path d="M 73.832727 295.488 
L 73.962615 293.520104 
L 74.092503 293.520104 
L 74.222391 292.995332 
L 89.094543 292.995332 
L 89.224431 292.07698 
L 89.354319 291.945787 
L 90.133646 291.945787 
L 90.263533 273.709952 
L 90.848029 273.709952 
L 90.977916 273.578759 
L 91.237692 273.578759 
L 91.36758 273.447566 
L 92.081963 273.447566 
L 92.21185 273.316373 
L 92.991177 273.316373 
L 93.121065 273.18518 
L 93.965336 273.18518 
L 94.095223 273.053987 
L 94.290055 273.053987 
L 94.419943 272.922794 
L 94.614775 272.922794 
L 94.744662 272.266829 
L 94.87455 246.815375 
L 95.134326 246.421796 
L 95.653877 246.421796 
L 95.783765 246.290603 
L 96.822867 246.290603 
L 96.952755 246.15941 
L 98.056801 246.15941 
L 98.186689 246.028217 
L 99.550511 246.028217 
L 99.680399 245.897024 
L 100.524669 245.897024 
L 100.654557 245.765831 
L 101.174108 245.765831 
L 101.303996 245.634638 
L 102.343098 245.634638 
L 102.472986 245.503445 
L 102.992537 245.503445 
L 103.122425 245.372252 
L 103.512089 245.372252 
L 103.641976 245.241059 
L 103.966696 245.241059 
L 104.096584 245.109866 
L 104.356359 245.109866 
L 104.486247 244.978672 
L 104.681079 244.978672 
L 105.005798 244.4539 
L 105.265574 244.4539 
L 105.395462 244.322707 
L 105.590293 244.322707 
L 105.720181 244.191514 
L 105.915013 244.191514 
L 106.044901 244.060321 
L 106.239732 244.060321 
L 106.36962 243.929128 
L 106.434564 243.929128 
L 106.629396 243.666742 
L 106.69434 243.666742 
L 106.889171 243.404356 
L 107.019059 243.404356 
L 107.278835 242.879584 
L 107.473666 242.354811 
L 107.53861 242.223618 
L 107.668498 241.567653 
L 107.86333 241.567653 
L 108.123105 241.174074 
L 108.188049 241.174074 
L 108.382881 240.911688 
L 108.512769 240.911688 
L 108.7076 240.649302 
L 108.967376 240.649302 
L 109.162208 240.386915 
L 109.357039 240.386915 
L 109.551871 240.124529 
L 109.616815 240.124529 
L 109.746703 239.862143 
L 109.811647 239.862143 
L 110.655917 238.287826 
L 110.720861 238.287826 
L 111.759964 234.352035 
L 111.824908 234.352035 
L 111.889851 234.220842 
L 112.019739 233.827262 
L 112.084683 233.827262 
L 112.214571 233.040104 
L 112.279515 233.040104 
L 112.409403 232.908911 
L 113.383561 232.908911 
L 113.513449 232.777718 
L 114.292776 232.777718 
L 114.422663 232.646525 
L 115.331878 232.646525 
L 115.461766 232.515332 
L 116.306036 232.515332 
L 116.435924 232.384139 
L 116.6957 232.384139 
L 116.825588 232.252946 
L 117.150307 232.252946 
L 117.280195 232.121753 
L 117.86469 232.121753 
L 117.994578 231.99056 
L 118.254353 231.99056 
L 118.384241 231.859367 
L 118.449185 231.859367 
L 118.644017 231.59698 
L 118.773905 231.59698 
L 118.903792 231.465787 
L 119.228512 231.465787 
L 119.3584 231.334594 
L 119.553231 231.334594 
L 119.683119 231.203401 
L 119.748063 231.203401 
L 119.877951 231.072208 
L 120.072783 231.072208 
L 120.20267 230.941015 
L 121.176829 230.941015 
L 121.306717 230.809822 
L 121.761324 230.809822 
L 121.891212 230.678629 
L 122.735482 230.678629 
L 122.86537 230.547436 
L 123.319977 230.547436 
L 123.449865 230.416243 
L 124.229192 230.416243 
L 124.35908 230.28505 
L 125.333238 230.28505 
L 125.463126 230.153857 
L 125.787846 230.153857 
L 125.917733 230.022664 
L 126.567172 230.022664 
L 126.69706 229.891471 
L 126.762004 229.891471 
L 126.891892 229.760278 
L 127.151667 229.760278 
L 127.281555 229.629085 
L 127.606275 229.629085 
L 127.736163 229.497892 
L 128.125826 229.497892 
L 128.255714 229.366698 
L 128.450545 229.366698 
L 128.580433 229.235505 
L 128.970097 229.235505 
L 129.099984 229.104312 
L 129.229872 229.104312 
L 129.424704 228.841926 
L 129.684479 228.841926 
L 129.879311 228.57954 
L 130.074143 228.57954 
L 130.204031 228.448347 
L 130.268975 228.448347 
L 130.398862 228.317154 
L 130.593694 228.317154 
L 130.85347 227.923575 
L 131.048301 227.923575 
L 131.178189 227.792382 
L 131.567852 227.792382 
L 131.762684 227.529996 
L 132.282235 227.529996 
L 132.412123 227.398803 
L 133.061562 227.398803 
L 133.19145 227.26761 
L 136.113925 227.26761 
L 136.243813 227.136416 
L 148.648098 227.136416 
L 148.777985 227.005223 
L 162.546092 227.005223 
L 162.67598 226.87403 
L 177.742964 226.87403 
L 177.872852 226.742837 
L 197.031302 226.742837 
L 197.161189 226.611644 
L 215.345481 226.611644 
L 215.475369 226.480451 
L 229.243475 226.480451 
L 229.373363 226.349258 
L 244.765066 226.349258 
L 244.894954 226.218065 
L 250.934737 226.218065 
L 251.064625 226.086872 
L 254.246876 226.086872 
L 254.376763 225.955679 
L 256.714744 225.955679 
L 256.844631 225.824486 
L 258.98778 225.824486 
L 259.117668 225.693293 
L 261.130929 225.693293 
L 261.260817 225.5621 
L 263.014302 225.5621 
L 263.14419 225.430907 
L 264.832731 225.430907 
L 264.962619 225.299714 
L 271.197233 225.299714 
L 271.327121 225.168521 
L 282.237696 225.168521 
L 282.367583 225.037328 
L 293.083326 225.037328 
L 293.213214 224.906134 
L 305.81233 224.906134 
L 305.942218 224.774941 
L 321.009203 224.774941 
L 321.13909 224.643748 
L 333.80315 224.643748 
L 333.933038 224.512555 
L 347.376425 224.512555 
L 347.506313 224.381362 
L 360.495092 224.381362 
L 360.62498 224.250169 
L 364.716446 224.250169 
L 364.846334 224.118976 
L 367.573977 224.118976 
L 367.703865 223.987783 
L 370.496453 223.987783 
L 370.626341 223.85659 
L 372.055106 223.85659 
L 372.184994 223.725397 
L 373.28904 223.725397 
L 373.418928 223.594204 
L 374.847694 223.594204 
L 374.977582 223.463011 
L 376.471291 223.463011 
L 376.601179 223.331818 
L 377.770169 223.331818 
L 377.900057 223.200625 
L 378.484552 223.200625 
L 378.61444 223.069432 
L 378.809272 223.069432 
L 378.939159 222.938239 
L 379.004103 222.938239 
L 379.133991 222.807046 
L 379.263879 222.807046 
L 379.458711 222.544659 
L 379.848374 222.544659 
L 379.978262 222.413466 
L 380.173094 222.413466 
L 380.302981 222.282273 
L 381.082308 222.282273 
L 381.212196 222.15108 
L 381.991523 222.15108 
L 382.12141 222.019887 
L 382.835793 222.019887 
L 382.965681 221.888694 
L 384.199615 221.888694 
L 384.329503 221.757501 
L 385.368605 221.757501 
L 385.498493 221.626308 
L 386.992203 221.626308 
L 387.122091 221.495115 
L 389.200295 221.495115 
L 389.330183 221.363922 
L 390.174454 221.363922 
L 390.304342 221.232729 
L 390.629061 221.232729 
L 390.758949 221.101536 
L 391.2785 221.101536 
L 391.408388 220.970343 
L 391.668163 220.970343 
L 391.798051 220.83915 
L 392.057827 220.83915 
L 392.187715 220.707957 
L 392.512434 220.707957 
L 392.707266 220.44557 
L 392.902098 220.44557 
L 393.031985 220.314377 
L 393.291761 220.314377 
L 393.486593 220.051991 
L 393.681424 220.051991 
L 394.265919 219.002447 
L 394.395807 219.002447 
L 394.720527 217.42813 
L 395.175134 213.885918 
L 395.629741 203.390473 
L 395.889517 200.373033 
L 396.019405 196.306048 
L 396.149292 194.206959 
L 396.409068 185.154638 
L 396.6039 176.364703 
L 396.733787 174.659193 
L 396.863675 170.985787 
L 396.928619 170.592208 
L 397.253339 166.656416 
L 397.318283 166.656416 
L 397.643002 165.869258 
L 397.707946 165.606872 
L 397.77289 161.933466 
L 397.967722 138.318716 
L 398.032665 138.187523 
L 398.162553 136.088434 
L 398.227497 135.957241 
L 398.292441 131.62787 
L 398.422329 112.080104 
L 398.487273 53.568 
L 398.487273 53.568 
" clip-path="url(#pf84635d6b1)" style="fill: none; stroke: #ff7f0e; stroke-width: 1.5; stroke-linecap: square"/>
   </g>
   <g id="patch_3">
    <path d="M 57.6 307.584 
L 57.6 41.472 
" style="fill: none; stroke: #000000; stroke-width: 0.8; stroke-linejoin: miter; stroke-linecap: square"/>
   </g>
   <g id="patch_4">
    <path d="M 414.72 307.584 
L 414.72 41.472 
" style="fill: none; stroke: #000000; stroke-width: 0.8; stroke-linejoin: miter; stroke-linecap: square"/>
   </g>
   <g id="patch_5">
    <path d="M 57.6 307.584 
L 414.72 307.584 
" style="fill: none; stroke: #000000; stroke-width: 0.8; stroke-linejoin: miter; stroke-linecap: square"/>
   </g>
   <g id="patch_6">
    <path d="M 57.6 41.472 
L 414.72 41.472 
" style="fill: none; stroke: #000000; stroke-width: 0.8; stroke-linejoin: miter; stroke-linecap: square"/>
   </g>
   <g id="text_18">
    <!-- pointer array existence test -->
    <g transform="translate(152.955938 35.472) scale(0.12 -0.12)">
     <defs>
      <path id="DejaVuSans-70" d="M 1159 525 
L 1159 -1331 
L 581 -1331 
L 581 3500 
L 1159 3500 
L 1159 2969 
Q 1341 3281 1617 3432 
Q 1894 3584 2278 3584 
Q 2916 3584 3314 3078 
Q 3713 2572 3713 1747 
Q 3713 922 3314 415 
Q 2916 -91 2278 -91 
Q 1894 -91 1617 61 
Q 1341 213 1159 525 
z
M 3116 1747 
Q 3116 2381 2855 2742 
Q 2594 3103 2138 3103 
Q 1681 3103 1420 2742 
Q 1159 2381 1159 1747 
Q 1159 1113 1420 752 
Q 1681 391 2138 391 
Q 2594 391 2855 752 
Q 3116 1113 3116 1747 
z
" transform="scale(0.015625)"/>
      <path id="DejaVuSans-6f" d="M 1959 3097 
Q 1497 3097 1228 2736 
Q 959 2375 959 1747 
Q 959 1119 1226 758 
Q 1494 397 1959 397 
Q 2419 397 2687 759 
Q 2956 1122 2956 1747 
Q 2956 2369 2687 2733 
Q 2419 3097 1959 3097 
z
M 1959 3584 
Q 2709 3584 3137 3096 
Q 3566 2609 3566 1747 
Q 3566 888 3137 398 
Q 2709 -91 1959 -91 
Q 1206 -91 779 398 
Q 353 888 353 1747 
Q 353 2609 779 3096 
Q 1206 3584 1959 3584 
z
" transform="scale(0.015625)"/>
      <path id="DejaVuSans-79" d="M 2059 -325 
Q 1816 -950 1584 -1140 
Q 1353 -1331 966 -1331 
L 506 -1331 
L 506 -850 
L 844 -850 
Q 1081 -850 1212 -737 
Q 1344 -625 1503 -206 
L 1606 56 
L 191 3500 
L 800 3500 
L 1894 763 
L 2988 3500 
L 3597 3500 
L 2059 -325 
z
" transform="scale(0.015625)"/>
      <path id="DejaVuSans-78" d="M 3513 3500 
L 2247 1797 
L 3578 0 
L 2900 0 
L 1881 1375 
L 863 0 
L 184 0 
L 1544 1831 
L 300 3500 
L 978 3500 
L 1906 2253 
L 2834 3500 
L 3513 3500 
z
" transform="scale(0.015625)"/>
      <path id="DejaVuSans-63" d="M 3122 3366 
L 3122 2828 
Q 2878 2963 2633 3030 
Q 2388 3097 2138 3097 
Q 1578 3097 1268 2742 
Q 959 2388 959 1747 
Q 959 1106 1268 751 
Q 1578 397 2138 397 
Q 2388 397 2633 464 
Q 2878 531 3122 666 
L 3122 134 
Q 2881 22 2623 -34 
Q 2366 -91 2075 -91 
Q 1284 -91 818 406 
Q 353 903 353 1747 
Q 353 2603 823 3093 
Q 1294 3584 2113 3584 
Q 2378 3584 2631 3529 
Q 2884 3475 3122 3366 
z
" transform="scale(0.015625)"/>
     </defs>
     <use xlink:href="#DejaVuSans-70"/>
     <use xlink:href="#DejaVuSans-6f" x="63.476562"/>
     <use xlink:href="#DejaVuSans-69" x="124.658203"/>
     <use xlink:href="#DejaVuSans-6e" x="152.441406"/>
     <use xlink:href="#DejaVuSans-74" x="215.820312"/>
     <use xlink:href="#DejaVuSans-65" x="255.029297"/>
     <use xlink:href="#DejaVuSans-72" x="316.552734"/>
     <use xlink:href="#DejaVuSans-20" x="357.666016"/>
     <use xlink:href="#DejaVuSans-61" x="389.453125"/>
     <use xlink:href="#DejaVuSans-72" x="450.732422"/>
     <use xlink:href="#DejaVuSans-72" x="490.095703"/>
     <use xlink:href="#DejaVuSans-61" x="531.208984"/>
     <use xlink:href="#DejaVuSans-79" x="592.488281"/>
     <use xlink:href="#DejaVuSans-20" x="651.667969"/>
     <use xlink:href="#DejaVuSans-65" x="683.455078"/>
     <use xlink:href="#DejaVuSans-78" x="743.228516"/>
     <use xlink:href="#DejaVuSans-69" x="802.408203"/>
     <use xlink:href="#DejaVuSans-73" x="830.191406"/>
     <use xlink:href="#DejaVuSans-74" x="882.291016"/>
     <use xlink:href="#DejaVuSans-65" x="921.5"/>
     <use xlink:href="#DejaVuSans-6e" x="983.023438"/>
     <use xlink:href="#DejaVuSans-63" x="1046.402344"/>
     <use xlink:href="#DejaVuSans-65" x="1101.382812"/>
     <use xlink:href="#DejaVuSans-20" x="1162.90625"/>
     <use xlink:href="#DejaVuSans-74" x="1194.693359"/>
     <use xlink:href="#DejaVuSans-65" x="1233.902344"/>
     <use xlink:href="#DejaVuSans-73" x="1295.425781"/>
     <use xlink:href="#DejaVuSans-74" x="1347.525391"/>
    </g>
   </g>
   <g id="legend_1">
    <g id="patch_7">
     <path d="M 64.6 78.82825 
L 166.359375 78.82825 
Q 168.359375 78.82825 168.359375 76.82825 
L 168.359375 48.472 
Q 168.359375 46.472 166.359375 46.472 
L 64.6 46.472 
Q 62.6 46.472 62.6 48.472 
L 62.6 76.82825 
Q 62.6 78.82825 64.6 78.82825 
z
" style="fill: #ffffff; opacity: 0.8; stroke: #cccccc; stroke-linejoin: miter"/>
    </g>
    <g id="line2d_18">
     <path d="M 66.6 54.570437 
L 76.6 54.570437 
L 86.6 54.570437 
" style="fill: none; stroke: #1f77b4; stroke-width: 1.5; stroke-linecap: square"/>
    </g>
    <g id="text_19">
     <!-- measurement -->
     <g transform="translate(94.6 58.070437) scale(0.1 -0.1)">
      <use xlink:href="#DejaVuSans-6d"/>
      <use xlink:href="#DejaVuSans-65" x="97.412109"/>
      <use xlink:href="#DejaVuSans-61" x="158.935547"/>
      <use xlink:href="#DejaVuSans-73" x="220.214844"/>
      <use xlink:href="#DejaVuSans-75" x="272.314453"/>
      <use xlink:href="#DejaVuSans-72" x="335.693359"/>
      <use xlink:href="#DejaVuSans-65" x="374.556641"/>
      <use xlink:href="#DejaVuSans-6d" x="436.080078"/>
      <use xlink:href="#DejaVuSans-65" x="533.492188"/>
      <use xlink:href="#DejaVuSans-6e" x="595.015625"/>
      <use xlink:href="#DejaVuSans-74" x="658.394531"/>
     </g>
    </g>
    <g id="line2d_19">
     <path d="M 66.6 69.248562 
L 76.6 69.248562 
L 86.6 69.248562 
" style="fill: none; stroke: #ff7f0e; stroke-width: 1.5; stroke-linecap: square"/>
    </g>
    <g id="text_20">
     <!-- reference -->
     <g transform="translate(94.6 72.748562) scale(0.1 -0.1)">
      <defs>
       <path id="DejaVuSans-66" d="M 2375 4863 
L 2375 4384 
L 1825 4384 
Q 1516 4384 1395 4259 
Q 1275 4134 1275 3809 
L 1275 3500 
L 2222 3500 
L 2222 3053 
L 1275 3053 
L 1275 0 
L 697 0 
L 697 3053 
L 147 3053 
L 147 3500 
L 697 3500 
L 697 3744 
Q 697 4328 969 4595 
Q 1241 4863 1831 4863 
L 2375 4863 
z
" transform="scale(0.015625)"/>
      </defs>
      <use xlink:href="#DejaVuSans-72"/>
      <use xlink:href="#DejaVuSans-65" x="38.863281"/>
      <use xlink:href="#DejaVuSans-66" x="100.386719"/>
      <use xlink:href="#DejaVuSans-65" x="135.591797"/>
      <use xlink:href="#DejaVuSans-72" x="197.115234"/>
      <use xlink:href="#DejaVuSans-65" x="235.978516"/>
      <use xlink:href="#DejaVuSans-6e" x="297.501953"/>
      <use xlink:href="#DejaVuSans-63" x="360.880859"/>
      <use xlink:href="#DejaVuSans-65" x="415.861328"/>
     </g>
    </g>
   </g>
  </g>
 </g>
 <defs>
  <clipPath id="pf84635d6b1">
   <rect x="57.6" y="41.472" width="357.12" height="266.112"/>
  </clipPath>
 </defs>
</svg>
