<?xml version="1.0" encoding="utf-8" standalone="no"?>
<!DOCTYPE svg PUBLIC "-//W3C//DTD SVG 1.1//EN"
  "http://www.w3.org/Graphics/SVG/1.1/DTD/svg11.dtd">
<svg xmlns:xlink="http://www.w3.org/1999/xlink" width="460.8pt" height="345.6pt" viewBox="0 0 460.8 345.6" xmlns="http://www.w3.org/2000/svg" version="1.1">
 <metadata>
  <rdf:RDF xmlns:dc="http://purl.org/dc/elements/1.1/" xmlns:cc="http://creativecommons.org/ns#" xmlns:rdf="http://www.w3.org/1999/02/22-rdf-syntax-ns#">
   <cc:Work>
    <dc:type rdf:resource="http://purl.org/dc/dcmitype/StillImage"/>
    <dc:date>2024-10-04T17:20:30.221707</dc:date>
    <dc:format>image/svg+xml</dc:format>
    <dc:creator>
     <cc:Agent>
      <dc:title>Matplotlib v3.9.2, https://matplotlib.org/</dc:title>
     </cc:Agent>
    </dc:creator>
   </cc:Work>
  </rdf:RDF>
 </metadata>
 <defs>
  <style type="text/css">*{stroke-linejoin: round; stroke-linecap: butt}</style>
 </defs>
 <g id="figure_1">
  <g id="patch_1">
   <path d="M 0 345.6 
L 460.8 345.6 
L 460.8 0 
L 0 0 
z
" style="fill: #ffffff"/>
  </g>
  <g id="axes_1">
   <g id="patch_2">
    <path d="M 57.6 307.584 
L 414.72 307.584 
L 414.72 41.472 
L 57.6 41.472 
z
" style="fill: #ffffff"/>
   </g>
   <g id="matplotlib.axis_1">
    <g id="xtick_1">
     <g id="line2d_1">
      <defs>
       <path id="mbe39455bd8" d="M 0 0 
L 0 3.5 
" style="stroke: #000000; stroke-width: 0.8"/>
      </defs>
      <g>
       <use xlink:href="#mbe39455bd8" x="73.832727" y="307.584" style="stroke: #000000; stroke-width: 0.8"/>
      </g>
     </g>
     <g id="text_1">
      <!-- 0 -->
      <g transform="translate(70.651477 322.182437) scale(0.1 -0.1)">
       <defs>
        <path id="DejaVuSans-30" d="M 2034 4250 
Q 1547 4250 1301 3770 
Q 1056 3291 1056 2328 
Q 1056 1369 1301 889 
Q 1547 409 2034 409 
Q 2525 409 2770 889 
Q 3016 1369 3016 2328 
Q 3016 3291 2770 3770 
Q 2525 4250 2034 4250 
z
M 2034 4750 
Q 2819 4750 3233 4129 
Q 3647 3509 3647 2328 
Q 3647 1150 3233 529 
Q 2819 -91 2034 -91 
Q 1250 -91 836 529 
Q 422 1150 422 2328 
Q 422 3509 836 4129 
Q 1250 4750 2034 4750 
z
" transform="scale(0.015625)"/>
       </defs>
       <use xlink:href="#DejaVuSans-30"/>
      </g>
     </g>
    </g>
    <g id="xtick_2">
     <g id="line2d_2">
      <g>
       <use xlink:href="#mbe39455bd8" x="138.776625" y="307.584" style="stroke: #000000; stroke-width: 0.8"/>
      </g>
     </g>
     <g id="text_2">
      <!-- 1000 -->
      <g transform="translate(126.051625 322.182437) scale(0.1 -0.1)">
       <defs>
        <path id="DejaVuSans-31" d="M 794 531 
L 1825 531 
L 1825 4091 
L 703 3866 
L 703 4441 
L 1819 4666 
L 2450 4666 
L 2450 531 
L 3481 531 
L 3481 0 
L 794 0 
L 794 531 
z
" transform="scale(0.015625)"/>
       </defs>
       <use xlink:href="#DejaVuSans-31"/>
       <use xlink:href="#DejaVuSans-30" x="63.623047"/>
       <use xlink:href="#DejaVuSans-30" x="127.246094"/>
       <use xlink:href="#DejaVuSans-30" x="190.869141"/>
      </g>
     </g>
    </g>
    <g id="xtick_3">
     <g id="line2d_3">
      <g>
       <use xlink:href="#mbe39455bd8" x="203.720523" y="307.584" style="stroke: #000000; stroke-width: 0.8"/>
      </g>
     </g>
     <g id="text_3">
      <!-- 2000 -->
      <g transform="translate(190.995523 322.182437) scale(0.1 -0.1)">
       <defs>
        <path id="DejaVuSans-32" d="M 1228 531 
L 3431 531 
L 3431 0 
L 469 0 
L 469 531 
Q 828 903 1448 1529 
Q 2069 2156 2228 2338 
Q 2531 2678 2651 2914 
Q 2772 3150 2772 3378 
Q 2772 3750 2511 3984 
Q 2250 4219 1831 4219 
Q 1534 4219 1204 4116 
Q 875 4013 500 3803 
L 500 4441 
Q 881 4594 1212 4672 
Q 1544 4750 1819 4750 
Q 2544 4750 2975 4387 
Q 3406 4025 3406 3419 
Q 3406 3131 3298 2873 
Q 3191 2616 2906 2266 
Q 2828 2175 2409 1742 
Q 1991 1309 1228 531 
z
" transform="scale(0.015625)"/>
       </defs>
       <use xlink:href="#DejaVuSans-32"/>
       <use xlink:href="#DejaVuSans-30" x="63.623047"/>
       <use xlink:href="#DejaVuSans-30" x="127.246094"/>
       <use xlink:href="#DejaVuSans-30" x="190.869141"/>
      </g>
     </g>
    </g>
    <g id="xtick_4">
     <g id="line2d_4">
      <g>
       <use xlink:href="#mbe39455bd8" x="268.664421" y="307.584" style="stroke: #000000; stroke-width: 0.8"/>
      </g>
     </g>
     <g id="text_4">
      <!-- 3000 -->
      <g transform="translate(255.939421 322.182437) scale(0.1 -0.1)">
       <defs>
        <path id="DejaVuSans-33" d="M 2597 2516 
Q 3050 2419 3304 2112 
Q 3559 1806 3559 1356 
Q 3559 666 3084 287 
Q 2609 -91 1734 -91 
Q 1441 -91 1130 -33 
Q 819 25 488 141 
L 488 750 
Q 750 597 1062 519 
Q 1375 441 1716 441 
Q 2309 441 2620 675 
Q 2931 909 2931 1356 
Q 2931 1769 2642 2001 
Q 2353 2234 1838 2234 
L 1294 2234 
L 1294 2753 
L 1863 2753 
Q 2328 2753 2575 2939 
Q 2822 3125 2822 3475 
Q 2822 3834 2567 4026 
Q 2313 4219 1838 4219 
Q 1578 4219 1281 4162 
Q 984 4106 628 3988 
L 628 4550 
Q 988 4650 1302 4700 
Q 1616 4750 1894 4750 
Q 2613 4750 3031 4423 
Q 3450 4097 3450 3541 
Q 3450 3153 3228 2886 
Q 3006 2619 2597 2516 
z
" transform="scale(0.015625)"/>
       </defs>
       <use xlink:href="#DejaVuSans-33"/>
       <use xlink:href="#DejaVuSans-30" x="63.623047"/>
       <use xlink:href="#DejaVuSans-30" x="127.246094"/>
       <use xlink:href="#DejaVuSans-30" x="190.869141"/>
      </g>
     </g>
    </g>
    <g id="xtick_5">
     <g id="line2d_5">
      <g>
       <use xlink:href="#mbe39455bd8" x="333.608319" y="307.584" style="stroke: #000000; stroke-width: 0.8"/>
      </g>
     </g>
     <g id="text_5">
      <!-- 4000 -->
      <g transform="translate(320.883319 322.182437) scale(0.1 -0.1)">
       <defs>
        <path id="DejaVuSans-34" d="M 2419 4116 
L 825 1625 
L 2419 1625 
L 2419 4116 
z
M 2253 4666 
L 3047 4666 
L 3047 1625 
L 3713 1625 
L 3713 1100 
L 3047 1100 
L 3047 0 
L 2419 0 
L 2419 1100 
L 313 1100 
L 313 1709 
L 2253 4666 
z
" transform="scale(0.015625)"/>
       </defs>
       <use xlink:href="#DejaVuSans-34"/>
       <use xlink:href="#DejaVuSans-30" x="63.623047"/>
       <use xlink:href="#DejaVuSans-30" x="127.246094"/>
       <use xlink:href="#DejaVuSans-30" x="190.869141"/>
      </g>
     </g>
    </g>
    <g id="xtick_6">
     <g id="line2d_6">
      <g>
       <use xlink:href="#mbe39455bd8" x="398.552217" y="307.584" style="stroke: #000000; stroke-width: 0.8"/>
      </g>
     </g>
     <g id="text_6">
      <!-- 5000 -->
      <g transform="translate(385.827217 322.182437) scale(0.1 -0.1)">
       <defs>
        <path id="DejaVuSans-35" d="M 691 4666 
L 3169 4666 
L 3169 4134 
L 1269 4134 
L 1269 2991 
Q 1406 3038 1543 3061 
Q 1681 3084 1819 3084 
Q 2600 3084 3056 2656 
Q 3513 2228 3513 1497 
Q 3513 744 3044 326 
Q 2575 -91 1722 -91 
Q 1428 -91 1123 -41 
Q 819 9 494 109 
L 494 744 
Q 775 591 1075 516 
Q 1375 441 1709 441 
Q 2250 441 2565 725 
Q 2881 1009 2881 1497 
Q 2881 1984 2565 2268 
Q 2250 2553 1709 2553 
Q 1456 2553 1204 2497 
Q 953 2441 691 2322 
L 691 4666 
z
" transform="scale(0.015625)"/>
       </defs>
       <use xlink:href="#DejaVuSans-35"/>
       <use xlink:href="#DejaVuSans-30" x="63.623047"/>
       <use xlink:href="#DejaVuSans-30" x="127.246094"/>
       <use xlink:href="#DejaVuSans-30" x="190.869141"/>
      </g>
     </g>
    </g>
    <g id="text_7">
     <!-- measurement # -->
     <g transform="translate(195.501406 335.860562) scale(0.1 -0.1)">
      <defs>
       <path id="DejaVuSans-6d" d="M 3328 2828 
Q 3544 3216 3844 3400 
Q 4144 3584 4550 3584 
Q 5097 3584 5394 3201 
Q 5691 2819 5691 2113 
L 5691 0 
L 5113 0 
L 5113 2094 
Q 5113 2597 4934 2840 
Q 4756 3084 4391 3084 
Q 3944 3084 3684 2787 
Q 3425 2491 3425 1978 
L 3425 0 
L 2847 0 
L 2847 2094 
Q 2847 2600 2669 2842 
Q 2491 3084 2119 3084 
Q 1678 3084 1418 2786 
Q 1159 2488 1159 1978 
L 1159 0 
L 581 0 
L 581 3500 
L 1159 3500 
L 1159 2956 
Q 1356 3278 1631 3431 
Q 1906 3584 2284 3584 
Q 2666 3584 2933 3390 
Q 3200 3197 3328 2828 
z
" transform="scale(0.015625)"/>
       <path id="DejaVuSans-65" d="M 3597 1894 
L 3597 1613 
L 953 1613 
Q 991 1019 1311 708 
Q 1631 397 2203 397 
Q 2534 397 2845 478 
Q 3156 559 3463 722 
L 3463 178 
Q 3153 47 2828 -22 
Q 2503 -91 2169 -91 
Q 1331 -91 842 396 
Q 353 884 353 1716 
Q 353 2575 817 3079 
Q 1281 3584 2069 3584 
Q 2775 3584 3186 3129 
Q 3597 2675 3597 1894 
z
M 3022 2063 
Q 3016 2534 2758 2815 
Q 2500 3097 2075 3097 
Q 1594 3097 1305 2825 
Q 1016 2553 972 2059 
L 3022 2063 
z
" transform="scale(0.015625)"/>
       <path id="DejaVuSans-61" d="M 2194 1759 
Q 1497 1759 1228 1600 
Q 959 1441 959 1056 
Q 959 750 1161 570 
Q 1363 391 1709 391 
Q 2188 391 2477 730 
Q 2766 1069 2766 1631 
L 2766 1759 
L 2194 1759 
z
M 3341 1997 
L 3341 0 
L 2766 0 
L 2766 531 
Q 2569 213 2275 61 
Q 1981 -91 1556 -91 
Q 1019 -91 701 211 
Q 384 513 384 1019 
Q 384 1609 779 1909 
Q 1175 2209 1959 2209 
L 2766 2209 
L 2766 2266 
Q 2766 2663 2505 2880 
Q 2244 3097 1772 3097 
Q 1472 3097 1187 3025 
Q 903 2953 641 2809 
L 641 3341 
Q 956 3463 1253 3523 
Q 1550 3584 1831 3584 
Q 2591 3584 2966 3190 
Q 3341 2797 3341 1997 
z
" transform="scale(0.015625)"/>
       <path id="DejaVuSans-73" d="M 2834 3397 
L 2834 2853 
Q 2591 2978 2328 3040 
Q 2066 3103 1784 3103 
Q 1356 3103 1142 2972 
Q 928 2841 928 2578 
Q 928 2378 1081 2264 
Q 1234 2150 1697 2047 
L 1894 2003 
Q 2506 1872 2764 1633 
Q 3022 1394 3022 966 
Q 3022 478 2636 193 
Q 2250 -91 1575 -91 
Q 1294 -91 989 -36 
Q 684 19 347 128 
L 347 722 
Q 666 556 975 473 
Q 1284 391 1588 391 
Q 1994 391 2212 530 
Q 2431 669 2431 922 
Q 2431 1156 2273 1281 
Q 2116 1406 1581 1522 
L 1381 1569 
Q 847 1681 609 1914 
Q 372 2147 372 2553 
Q 372 3047 722 3315 
Q 1072 3584 1716 3584 
Q 2034 3584 2315 3537 
Q 2597 3491 2834 3397 
z
" transform="scale(0.015625)"/>
       <path id="DejaVuSans-75" d="M 544 1381 
L 544 3500 
L 1119 3500 
L 1119 1403 
Q 1119 906 1312 657 
Q 1506 409 1894 409 
Q 2359 409 2629 706 
Q 2900 1003 2900 1516 
L 2900 3500 
L 3475 3500 
L 3475 0 
L 2900 0 
L 2900 538 
Q 2691 219 2414 64 
Q 2138 -91 1772 -91 
Q 1169 -91 856 284 
Q 544 659 544 1381 
z
M 1991 3584 
L 1991 3584 
z
" transform="scale(0.015625)"/>
       <path id="DejaVuSans-72" d="M 2631 2963 
Q 2534 3019 2420 3045 
Q 2306 3072 2169 3072 
Q 1681 3072 1420 2755 
Q 1159 2438 1159 1844 
L 1159 0 
L 581 0 
L 581 3500 
L 1159 3500 
L 1159 2956 
Q 1341 3275 1631 3429 
Q 1922 3584 2338 3584 
Q 2397 3584 2469 3576 
Q 2541 3569 2628 3553 
L 2631 2963 
z
" transform="scale(0.015625)"/>
       <path id="DejaVuSans-6e" d="M 3513 2113 
L 3513 0 
L 2938 0 
L 2938 2094 
Q 2938 2591 2744 2837 
Q 2550 3084 2163 3084 
Q 1697 3084 1428 2787 
Q 1159 2491 1159 1978 
L 1159 0 
L 581 0 
L 581 3500 
L 1159 3500 
L 1159 2956 
Q 1366 3272 1645 3428 
Q 1925 3584 2291 3584 
Q 2894 3584 3203 3211 
Q 3513 2838 3513 2113 
z
" transform="scale(0.015625)"/>
       <path id="DejaVuSans-74" d="M 1172 4494 
L 1172 3500 
L 2356 3500 
L 2356 3053 
L 1172 3053 
L 1172 1153 
Q 1172 725 1289 603 
Q 1406 481 1766 481 
L 2356 481 
L 2356 0 
L 1766 0 
Q 1100 0 847 248 
Q 594 497 594 1153 
L 594 3053 
L 172 3053 
L 172 3500 
L 594 3500 
L 594 4494 
L 1172 4494 
z
" transform="scale(0.015625)"/>
       <path id="DejaVuSans-20" transform="scale(0.015625)"/>
       <path id="DejaVuSans-23" d="M 3272 2816 
L 2363 2816 
L 2100 1772 
L 3016 1772 
L 3272 2816 
z
M 2803 4594 
L 2478 3297 
L 3391 3297 
L 3719 4594 
L 4219 4594 
L 3897 3297 
L 4872 3297 
L 4872 2816 
L 3775 2816 
L 3519 1772 
L 4513 1772 
L 4513 1294 
L 3397 1294 
L 3072 0 
L 2572 0 
L 2894 1294 
L 1978 1294 
L 1656 0 
L 1153 0 
L 1478 1294 
L 494 1294 
L 494 1772 
L 1594 1772 
L 1856 2816 
L 850 2816 
L 850 3297 
L 1978 3297 
L 2297 4594 
L 2803 4594 
z
" transform="scale(0.015625)"/>
      </defs>
      <use xlink:href="#DejaVuSans-6d"/>
      <use xlink:href="#DejaVuSans-65" x="97.412109"/>
      <use xlink:href="#DejaVuSans-61" x="158.935547"/>
      <use xlink:href="#DejaVuSans-73" x="220.214844"/>
      <use xlink:href="#DejaVuSans-75" x="272.314453"/>
      <use xlink:href="#DejaVuSans-72" x="335.693359"/>
      <use xlink:href="#DejaVuSans-65" x="374.556641"/>
      <use xlink:href="#DejaVuSans-6d" x="436.080078"/>
      <use xlink:href="#DejaVuSans-65" x="533.492188"/>
      <use xlink:href="#DejaVuSans-6e" x="595.015625"/>
      <use xlink:href="#DejaVuSans-74" x="658.394531"/>
      <use xlink:href="#DejaVuSans-20" x="697.603516"/>
      <use xlink:href="#DejaVuSans-23" x="729.390625"/>
     </g>
    </g>
   </g>
   <g id="matplotlib.axis_2">
    <g id="ytick_1">
     <g id="line2d_7">
      <defs>
       <path id="m5f0c601f05" d="M 0 0 
L -3.5 0 
" style="stroke: #000000; stroke-width: 0.8"/>
      </defs>
      <g>
       <use xlink:href="#m5f0c601f05" x="57.6" y="303.65828" style="stroke: #000000; stroke-width: 0.8"/>
      </g>
     </g>
     <g id="text_8">
      <!-- 0 -->
      <g transform="translate(44.2375 307.457499) scale(0.1 -0.1)">
       <use xlink:href="#DejaVuSans-30"/>
      </g>
     </g>
    </g>
    <g id="ytick_2">
     <g id="line2d_8">
      <g>
       <use xlink:href="#m5f0c601f05" x="57.6" y="253.839499" style="stroke: #000000; stroke-width: 0.8"/>
      </g>
     </g>
     <g id="text_9">
      <!-- 500 -->
      <g transform="translate(31.5125 257.638718) scale(0.1 -0.1)">
       <use xlink:href="#DejaVuSans-35"/>
       <use xlink:href="#DejaVuSans-30" x="63.623047"/>
       <use xlink:href="#DejaVuSans-30" x="127.246094"/>
      </g>
     </g>
    </g>
    <g id="ytick_3">
     <g id="line2d_9">
      <g>
       <use xlink:href="#m5f0c601f05" x="57.6" y="204.020718" style="stroke: #000000; stroke-width: 0.8"/>
      </g>
     </g>
     <g id="text_10">
      <!-- 1000 -->
      <g transform="translate(25.15 207.819937) scale(0.1 -0.1)">
       <use xlink:href="#DejaVuSans-31"/>
       <use xlink:href="#DejaVuSans-30" x="63.623047"/>
       <use xlink:href="#DejaVuSans-30" x="127.246094"/>
       <use xlink:href="#DejaVuSans-30" x="190.869141"/>
      </g>
     </g>
    </g>
    <g id="ytick_4">
     <g id="line2d_10">
      <g>
       <use xlink:href="#m5f0c601f05" x="57.6" y="154.201937" style="stroke: #000000; stroke-width: 0.8"/>
      </g>
     </g>
     <g id="text_11">
      <!-- 1500 -->
      <g transform="translate(25.15 158.001156) scale(0.1 -0.1)">
       <use xlink:href="#DejaVuSans-31"/>
       <use xlink:href="#DejaVuSans-35" x="63.623047"/>
       <use xlink:href="#DejaVuSans-30" x="127.246094"/>
       <use xlink:href="#DejaVuSans-30" x="190.869141"/>
      </g>
     </g>
    </g>
    <g id="ytick_5">
     <g id="line2d_11">
      <g>
       <use xlink:href="#m5f0c601f05" x="57.6" y="104.383157" style="stroke: #000000; stroke-width: 0.8"/>
      </g>
     </g>
     <g id="text_12">
      <!-- 2000 -->
      <g transform="translate(25.15 108.182375) scale(0.1 -0.1)">
       <use xlink:href="#DejaVuSans-32"/>
       <use xlink:href="#DejaVuSans-30" x="63.623047"/>
       <use xlink:href="#DejaVuSans-30" x="127.246094"/>
       <use xlink:href="#DejaVuSans-30" x="190.869141"/>
      </g>
     </g>
    </g>
    <g id="ytick_6">
     <g id="line2d_12">
      <g>
       <use xlink:href="#m5f0c601f05" x="57.6" y="54.564376" style="stroke: #000000; stroke-width: 0.8"/>
      </g>
     </g>
     <g id="text_13">
      <!-- 2500 -->
      <g transform="translate(25.15 58.363594) scale(0.1 -0.1)">
       <use xlink:href="#DejaVuSans-32"/>
       <use xlink:href="#DejaVuSans-35" x="63.623047"/>
       <use xlink:href="#DejaVuSans-30" x="127.246094"/>
       <use xlink:href="#DejaVuSans-30" x="190.869141"/>
      </g>
     </g>
    </g>
    <g id="text_14">
     <!-- time -->
     <g transform="translate(19.070312 185.824094) rotate(-90) scale(0.1 -0.1)">
      <defs>
       <path id="DejaVuSans-69" d="M 603 3500 
L 1178 3500 
L 1178 0 
L 603 0 
L 603 3500 
z
M 603 4863 
L 1178 4863 
L 1178 4134 
L 603 4134 
L 603 4863 
z
" transform="scale(0.015625)"/>
      </defs>
      <use xlink:href="#DejaVuSans-74"/>
      <use xlink:href="#DejaVuSans-69" x="39.208984"/>
      <use xlink:href="#DejaVuSans-6d" x="66.992188"/>
      <use xlink:href="#DejaVuSans-65" x="164.404297"/>
     </g>
    </g>
   </g>
   <g id="line2d_13">
    <path d="M 73.832727 295.488 
L 74.482166 295.488 
L 74.612054 293.993437 
L 76.365539 293.993437 
L 76.495427 293.594886 
L 86.301956 293.495249 
L 86.3669 291.203585 
L 86.496787 278.649252 
L 86.626675 278.549614 
L 86.756563 260.116666 
L 86.951395 260.017028 
L 87.146226 259.12029 
L 87.276114 258.422827 
L 87.600834 258.323189 
L 87.795665 258.223552 
L 88.315216 258.123914 
L 88.510048 258.024277 
L 89.549151 257.924639 
L 89.743982 257.825002 
L 90.653197 257.725364 
L 90.848029 257.625727 
L 91.237692 257.526089 
L 91.757243 256.928264 
L 91.822187 256.928264 
L 91.952075 256.728988 
L 92.081963 256.728988 
L 92.276794 256.430076 
L 93.121065 255.03515 
L 93.315897 254.536962 
L 93.640616 254.437325 
L 93.900392 254.238049 
L 94.160167 254.138412 
L 94.354999 254.038774 
L 94.614775 253.939137 
L 95.069382 253.440949 
L 95.264214 253.440949 
L 95.394101 253.142036 
L 95.459045 253.142036 
L 95.588933 252.843124 
L 95.783765 252.743486 
L 97.147587 250.750735 
L 97.342418 249.953634 
L 97.797026 248.857621 
L 98.511408 247.960883 
L 99.095904 247.861245 
L 99.290735 247.761608 
L 99.940174 247.66197 
L 100.135006 247.562333 
L 101.239052 247.462695 
L 101.433884 247.363058 
L 101.888491 247.26342 
L 102.148267 247.064145 
L 102.343098 246.964507 
L 102.602874 246.765232 
L 103.122425 246.665595 
L 103.317257 246.565957 
L 103.641976 246.46632 
L 103.836808 246.366682 
L 104.096584 246.267044 
L 104.291415 246.167407 
L 105.070742 246.067769 
L 105.265574 245.968132 
L 105.850069 245.868494 
L 106.109845 245.669219 
L 106.434564 245.569582 
L 106.629396 245.469944 
L 107.603554 245.370306 
L 107.798386 245.270669 
L 109.486927 245.171031 
L 109.681759 245.071394 
L 111.630076 244.971756 
L 111.824908 244.872119 
L 113.513449 244.772481 
L 113.708281 244.672843 
L 114.617495 244.573206 
L 114.747383 244.373931 
L 114.942215 244.274293 
L 115.137046 244.174656 
L 115.656598 244.075018 
L 115.851429 243.975381 
L 116.760644 243.875743 
L 116.955475 243.776105 
L 121.176829 243.676468 
L 121.371661 243.57683 
L 147.089444 243.477193 
L 147.284276 243.377555 
L 183.782746 243.277918 
L 183.977578 243.17828 
L 229.892914 243.078643 
L 230.087746 242.979005 
L 262.689582 242.879367 
L 262.884414 242.77973 
L 267.430487 242.680092 
L 267.625319 242.580455 
L 269.248916 242.580455 
L 269.378804 242.38118 
L 269.703523 242.281542 
L 269.898355 242.181904 
L 280.419266 242.082267 
L 280.614098 241.982629 
L 296.915016 241.882992 
L 297.109848 241.783354 
L 329.841573 241.683717 
L 330.036404 241.584079 
L 359.45599 241.484442 
L 359.650822 241.384804 
L 365.171053 241.285166 
L 365.365885 241.185529 
L 368.223416 241.085891 
L 368.483192 240.886616 
L 368.937799 240.786979 
L 369.197575 240.587703 
L 369.327463 240.488066 
L 369.45735 240.288791 
L 369.652182 240.189153 
L 369.976902 239.890241 
L 370.431509 239.790603 
L 370.626341 239.690965 
L 372.509714 239.591328 
L 372.704545 239.49169 
L 375.756908 239.392053 
L 375.95174 239.292415 
L 377.44545 239.192778 
L 377.640282 239.09314 
L 379.393767 238.993502 
L 379.588598 238.893865 
L 381.017364 238.794227 
L 381.212196 238.69459 
L 382.056467 238.594952 
L 382.640962 237.897489 
L 383.095569 237.797852 
L 383.290401 237.200026 
L 383.420288 237.100389 
L 383.680064 236.402926 
L 384.329503 223.848593 
L 384.394447 223.649318 
L 384.589279 216.076863 
L 384.654222 215.977226 
L 384.78411 214.881213 
L 384.913998 210.696435 
L 384.978942 210.49716 
L 385.303661 204.917456 
L 385.498493 202.924705 
L 385.628381 202.825068 
L 385.888157 200.732679 
L 386.212876 200.035216 
L 386.472652 197.643914 
L 386.732427 197.544277 
L 386.992203 197.046089 
L 387.187034 193.259862 
L 387.316922 192.662036 
L 387.381866 190.968198 
L 387.576698 174.328725 
L 387.641642 174.328725 
L 387.706586 171.140323 
L 387.836473 156.095051 
L 387.966361 154.50085 
L 388.096249 81.466517 
L 388.226137 80.868692 
L 388.291081 80.868692 
L 388.420969 80.370504 
L 389.135351 79.473766 
L 389.330183 79.473766 
L 389.525015 79.174853 
L 389.78479 78.975578 
L 389.979622 78.875941 
L 390.239398 78.377753 
L 390.434229 78.278115 
L 391.018724 76.783552 
L 391.083668 76.783552 
L 391.343444 76.285364 
L 391.60322 75.787176 
L 391.798051 75.388626 
L 391.992883 75.089713 
L 392.122771 74.990076 
L 392.317602 74.39225 
L 392.642322 73.694787 
L 393.876256 71.602399 
L 394.071088 70.904936 
L 394.265919 70.506386 
L 394.525695 69.808923 
L 394.980302 68.912185 
L 395.240078 68.214722 
L 395.43491 68.115084 
L 395.694685 67.915809 
L 395.824573 67.218346 
L 396.084349 67.118708 
L 396.409068 66.421245 
L 396.538956 66.321608 
L 398.032665 63.930306 
L 398.422329 62.635018 
L 398.487273 53.568 
L 398.487273 53.568 
" clip-path="url(#p6aa11e995e)" style="fill: none; stroke: #1f77b4; stroke-width: 1.5; stroke-linecap: square"/>
   </g>
   <g id="line2d_14">
    <path d="M 73.832727 295.488 
L 74.612054 295.488 
L 74.741942 293.993437 
L 78.183968 293.993437 
L 78.313856 293.594886 
L 88.574992 293.594886 
L 88.639936 293.395611 
L 88.834768 290.805035 
L 88.964655 278.549614 
L 89.159487 278.449977 
L 89.224431 278.350339 
L 89.354319 260.116666 
L 89.679038 259.817753 
L 89.808926 259.718115 
L 89.938814 259.419203 
L 90.068702 258.522465 
L 90.393421 258.223552 
L 91.237692 258.123914 
L 91.432524 258.024277 
L 92.796345 257.924639 
L 92.991177 257.825002 
L 93.640616 257.725364 
L 93.835448 257.625727 
L 94.095223 257.526089 
L 94.354999 257.326814 
L 94.614775 257.227176 
L 94.939494 256.928264 
L 95.264214 256.828626 
L 95.653877 256.430076 
L 95.848709 256.330438 
L 96.108484 255.83225 
L 96.36826 255.732613 
L 96.433204 255.632975 
L 96.628035 254.736237 
L 96.757923 254.6366 
L 97.212531 254.138412 
L 97.53725 254.038774 
L 98.316577 252.743486 
L 98.511408 252.145661 
L 99.03096 251.547835 
L 99.095904 251.547835 
L 99.290735 251.149285 
L 99.420623 251.049647 
L 99.550511 250.850372 
L 99.810286 250.750735 
L 100.070062 250.152909 
L 100.264894 249.853997 
L 100.394782 249.754359 
L 100.784445 248.857621 
L 101.36894 248.160158 
L 101.563772 248.060521 
L 101.758603 247.960883 
L 102.53793 247.861245 
L 102.732762 247.761608 
L 103.70692 247.66197 
L 103.901752 247.562333 
L 104.681079 247.462695 
L 104.87591 247.363058 
L 105.915013 247.26342 
L 106.174788 247.064145 
L 106.434564 246.964507 
L 106.629396 246.86487 
L 106.889171 246.765232 
L 107.148947 246.565957 
L 107.473666 246.46632 
L 107.668498 246.366682 
L 107.86333 246.267044 
L 108.058161 246.167407 
L 108.772544 246.067769 
L 108.967376 245.968132 
L 110.006478 245.868494 
L 110.266254 245.669219 
L 110.655917 245.569582 
L 110.850749 245.469944 
L 111.69502 245.370306 
L 111.889851 245.270669 
L 112.799066 245.171031 
L 112.993898 245.071394 
L 115.20199 244.971756 
L 115.396822 244.872119 
L 116.890532 244.772481 
L 117.085363 244.672843 
L 117.734802 244.573206 
L 117.994578 244.373931 
L 118.384241 244.274293 
L 118.579073 244.174656 
L 119.553231 244.075018 
L 119.748063 243.975381 
L 121.436604 243.875743 
L 121.631436 243.776105 
L 125.593014 243.676468 
L 125.787846 243.57683 
L 148.583154 243.477193 
L 148.777985 243.377555 
L 179.951056 243.277918 
L 180.145888 243.17828 
L 227.879653 243.078643 
L 228.074485 242.979005 
L 258.338341 242.879367 
L 258.533173 242.77973 
L 263.98846 242.680092 
L 264.183292 242.580455 
L 266.066665 242.480817 
L 266.326441 242.281542 
L 269.638579 242.181904 
L 269.833411 242.082267 
L 286.264217 241.982629 
L 286.459049 241.882992 
L 314.709644 241.783354 
L 314.904476 241.683717 
L 347.96092 241.584079 
L 348.155752 241.484442 
L 366.210155 241.384804 
L 366.404987 241.285166 
L 370.496453 241.185529 
L 370.691284 241.085891 
L 371.340723 240.986254 
L 371.535555 240.886616 
L 371.730387 240.786979 
L 372.12005 240.388428 
L 372.314882 240.288791 
L 372.574657 240.089516 
L 372.899377 239.989878 
L 373.094209 239.890241 
L 373.483872 239.790603 
L 373.678704 239.690965 
L 375.107469 239.591328 
L 375.302301 239.49169 
L 377.510394 239.392053 
L 377.705225 239.292415 
L 380.95242 239.192778 
L 381.147252 239.09314 
L 382.381186 238.993502 
L 382.576018 238.893865 
L 383.61512 238.794227 
L 383.809952 238.69459 
L 384.524335 238.594952 
L 385.563437 237.200026 
L 385.628381 237.200026 
L 385.823213 236.004376 
L 386.342764 229.328659 
L 386.537596 223.649318 
L 386.797371 217.870339 
L 386.927259 212.689186 
L 387.381866 208.105858 
L 387.641642 206.710932 
L 387.966361 204.120356 
L 388.096249 203.921081 
L 388.485912 200.334129 
L 388.810632 193.160224 
L 389.005464 192.562399 
L 389.200295 159.980916 
L 389.330183 155.895776 
L 389.395127 155.696501 
L 389.525015 154.50085 
L 389.589959 151.312448 
L 389.654903 134.573338 
L 389.78479 82.56253 
L 389.979622 81.36688 
L 390.239398 80.968329 
L 390.369285 80.370504 
L 390.694005 79.673041 
L 391.2785 78.178478 
L 391.60322 77.779928 
L 391.733107 77.182102 
L 391.927939 77.082465 
L 392.382546 75.986451 
L 392.44749 75.986451 
L 392.77221 75.189351 
L 392.837154 75.189351 
L 393.226817 73.794425 
L 393.356705 73.694787 
L 394.071088 72.499137 
L 394.200975 71.502761 
L 394.265919 71.403124 
L 394.460751 70.705661 
L 394.590639 70.705661 
L 394.785471 70.406748 
L 394.980302 70.30711 
L 395.175134 69.808923 
L 395.369966 69.609647 
L 395.564797 68.912185 
L 396.019405 68.015446 
L 396.27918 67.218346 
L 396.409068 67.118708 
L 396.668844 66.620521 
L 397.058507 65.923058 
L 397.253339 65.524507 
L 397.837834 64.428494 
L 397.967722 64.229219 
L 398.097609 64.129582 
L 398.162553 64.029944 
L 398.357385 63.332481 
L 398.422329 63.232843 
L 398.487273 60.542629 
L 398.487273 60.542629 
" clip-path="url(#p6aa11e995e)" style="fill: none; stroke: #ff7f0e; stroke-width: 1.5; stroke-linecap: square"/>
   </g>
   <g id="patch_3">
    <path d="M 57.6 307.584 
L 57.6 41.472 
" style="fill: none; stroke: #000000; stroke-width: 0.8; stroke-linejoin: miter; stroke-linecap: square"/>
   </g>
   <g id="patch_4">
    <path d="M 414.72 307.584 
L 414.72 41.472 
" style="fill: none; stroke: #000000; stroke-width: 0.8; stroke-linejoin: miter; stroke-linecap: square"/>
   </g>
   <g id="patch_5">
    <path d="M 57.6 307.584 
L 414.72 307.584 
" style="fill: none; stroke: #000000; stroke-width: 0.8; stroke-linejoin: miter; stroke-linecap: square"/>
   </g>
   <g id="patch_6">
    <path d="M 57.6 41.472 
L 414.72 41.472 
" style="fill: none; stroke: #000000; stroke-width: 0.8; stroke-linejoin: miter; stroke-linecap: square"/>
   </g>
   <g id="text_15">
    <!-- pointer array pc-dependence aligned test (reference) -->
    <g transform="translate(76.089375 35.472) scale(0.12 -0.12)">
     <defs>
      <path id="DejaVuSans-70" d="M 1159 525 
L 1159 -1331 
L 581 -1331 
L 581 3500 
L 1159 3500 
L 1159 2969 
Q 1341 3281 1617 3432 
Q 1894 3584 2278 3584 
Q 2916 3584 3314 3078 
Q 3713 2572 3713 1747 
Q 3713 922 3314 415 
Q 2916 -91 2278 -91 
Q 1894 -91 1617 61 
Q 1341 213 1159 525 
z
M 3116 1747 
Q 3116 2381 2855 2742 
Q 2594 3103 2138 3103 
Q 1681 3103 1420 2742 
Q 1159 2381 1159 1747 
Q 1159 1113 1420 752 
Q 1681 391 2138 391 
Q 2594 391 2855 752 
Q 3116 1113 3116 1747 
z
" transform="scale(0.015625)"/>
      <path id="DejaVuSans-6f" d="M 1959 3097 
Q 1497 3097 1228 2736 
Q 959 2375 959 1747 
Q 959 1119 1226 758 
Q 1494 397 1959 397 
Q 2419 397 2687 759 
Q 2956 1122 2956 1747 
Q 2956 2369 2687 2733 
Q 2419 3097 1959 3097 
z
M 1959 3584 
Q 2709 3584 3137 3096 
Q 3566 2609 3566 1747 
Q 3566 888 3137 398 
Q 2709 -91 1959 -91 
Q 1206 -91 779 398 
Q 353 888 353 1747 
Q 353 2609 779 3096 
Q 1206 3584 1959 3584 
z
" transform="scale(0.015625)"/>
      <path id="DejaVuSans-79" d="M 2059 -325 
Q 1816 -950 1584 -1140 
Q 1353 -1331 966 -1331 
L 506 -1331 
L 506 -850 
L 844 -850 
Q 1081 -850 1212 -737 
Q 1344 -625 1503 -206 
L 1606 56 
L 191 3500 
L 800 3500 
L 1894 763 
L 2988 3500 
L 3597 3500 
L 2059 -325 
z
" transform="scale(0.015625)"/>
      <path id="DejaVuSans-63" d="M 3122 3366 
L 3122 2828 
Q 2878 2963 2633 3030 
Q 2388 3097 2138 3097 
Q 1578 3097 1268 2742 
Q 959 2388 959 1747 
Q 959 1106 1268 751 
Q 1578 397 2138 397 
Q 2388 397 2633 464 
Q 2878 531 3122 666 
L 3122 134 
Q 2881 22 2623 -34 
Q 2366 -91 2075 -91 
Q 1284 -91 818 406 
Q 353 903 353 1747 
Q 353 2603 823 3093 
Q 1294 3584 2113 3584 
Q 2378 3584 2631 3529 
Q 2884 3475 3122 3366 
z
" transform="scale(0.015625)"/>
      <path id="DejaVuSans-2d" d="M 313 2009 
L 1997 2009 
L 1997 1497 
L 313 1497 
L 313 2009 
z
" transform="scale(0.015625)"/>
      <path id="DejaVuSans-64" d="M 2906 2969 
L 2906 4863 
L 3481 4863 
L 3481 0 
L 2906 0 
L 2906 525 
Q 2725 213 2448 61 
Q 2172 -91 1784 -91 
Q 1150 -91 751 415 
Q 353 922 353 1747 
Q 353 2572 751 3078 
Q 1150 3584 1784 3584 
Q 2172 3584 2448 3432 
Q 2725 3281 2906 2969 
z
M 947 1747 
Q 947 1113 1208 752 
Q 1469 391 1925 391 
Q 2381 391 2643 752 
Q 2906 1113 2906 1747 
Q 2906 2381 2643 2742 
Q 2381 3103 1925 3103 
Q 1469 3103 1208 2742 
Q 947 2381 947 1747 
z
" transform="scale(0.015625)"/>
      <path id="DejaVuSans-6c" d="M 603 4863 
L 1178 4863 
L 1178 0 
L 603 0 
L 603 4863 
z
" transform="scale(0.015625)"/>
      <path id="DejaVuSans-67" d="M 2906 1791 
Q 2906 2416 2648 2759 
Q 2391 3103 1925 3103 
Q 1463 3103 1205 2759 
Q 947 2416 947 1791 
Q 947 1169 1205 825 
Q 1463 481 1925 481 
Q 2391 481 2648 825 
Q 2906 1169 2906 1791 
z
M 3481 434 
Q 3481 -459 3084 -895 
Q 2688 -1331 1869 -1331 
Q 1566 -1331 1297 -1286 
Q 1028 -1241 775 -1147 
L 775 -588 
Q 1028 -725 1275 -790 
Q 1522 -856 1778 -856 
Q 2344 -856 2625 -561 
Q 2906 -266 2906 331 
L 2906 616 
Q 2728 306 2450 153 
Q 2172 0 1784 0 
Q 1141 0 747 490 
Q 353 981 353 1791 
Q 353 2603 747 3093 
Q 1141 3584 1784 3584 
Q 2172 3584 2450 3431 
Q 2728 3278 2906 2969 
L 2906 3500 
L 3481 3500 
L 3481 434 
z
" transform="scale(0.015625)"/>
      <path id="DejaVuSans-28" d="M 1984 4856 
Q 1566 4138 1362 3434 
Q 1159 2731 1159 2009 
Q 1159 1288 1364 580 
Q 1569 -128 1984 -844 
L 1484 -844 
Q 1016 -109 783 600 
Q 550 1309 550 2009 
Q 550 2706 781 3412 
Q 1013 4119 1484 4856 
L 1984 4856 
z
" transform="scale(0.015625)"/>
      <path id="DejaVuSans-66" d="M 2375 4863 
L 2375 4384 
L 1825 4384 
Q 1516 4384 1395 4259 
Q 1275 4134 1275 3809 
L 1275 3500 
L 2222 3500 
L 2222 3053 
L 1275 3053 
L 1275 0 
L 697 0 
L 697 3053 
L 147 3053 
L 147 3500 
L 697 3500 
L 697 3744 
Q 697 4328 969 4595 
Q 1241 4863 1831 4863 
L 2375 4863 
z
" transform="scale(0.015625)"/>
      <path id="DejaVuSans-29" d="M 513 4856 
L 1013 4856 
Q 1481 4119 1714 3412 
Q 1947 2706 1947 2009 
Q 1947 1309 1714 600 
Q 1481 -109 1013 -844 
L 513 -844 
Q 928 -128 1133 580 
Q 1338 1288 1338 2009 
Q 1338 2731 1133 3434 
Q 928 4138 513 4856 
z
" transform="scale(0.015625)"/>
     </defs>
     <use xlink:href="#DejaVuSans-70"/>
     <use xlink:href="#DejaVuSans-6f" x="63.476562"/>
     <use xlink:href="#DejaVuSans-69" x="124.658203"/>
     <use xlink:href="#DejaVuSans-6e" x="152.441406"/>
     <use xlink:href="#DejaVuSans-74" x="215.820312"/>
     <use xlink:href="#DejaVuSans-65" x="255.029297"/>
     <use xlink:href="#DejaVuSans-72" x="316.552734"/>
     <use xlink:href="#DejaVuSans-20" x="357.666016"/>
     <use xlink:href="#DejaVuSans-61" x="389.453125"/>
     <use xlink:href="#DejaVuSans-72" x="450.732422"/>
     <use xlink:href="#DejaVuSans-72" x="490.095703"/>
     <use xlink:href="#DejaVuSans-61" x="531.208984"/>
     <use xlink:href="#DejaVuSans-79" x="592.488281"/>
     <use xlink:href="#DejaVuSans-20" x="651.667969"/>
     <use xlink:href="#DejaVuSans-70" x="683.455078"/>
     <use xlink:href="#DejaVuSans-63" x="746.931641"/>
     <use xlink:href="#DejaVuSans-2d" x="801.912109"/>
     <use xlink:href="#DejaVuSans-64" x="837.996094"/>
     <use xlink:href="#DejaVuSans-65" x="901.472656"/>
     <use xlink:href="#DejaVuSans-70" x="962.996094"/>
     <use xlink:href="#DejaVuSans-65" x="1026.472656"/>
     <use xlink:href="#DejaVuSans-6e" x="1087.996094"/>
     <use xlink:href="#DejaVuSans-64" x="1151.375"/>
     <use xlink:href="#DejaVuSans-65" x="1214.851562"/>
     <use xlink:href="#DejaVuSans-6e" x="1276.375"/>
     <use xlink:href="#DejaVuSans-63" x="1339.753906"/>
     <use xlink:href="#DejaVuSans-65" x="1394.734375"/>
     <use xlink:href="#DejaVuSans-20" x="1456.257812"/>
     <use xlink:href="#DejaVuSans-61" x="1488.044922"/>
     <use xlink:href="#DejaVuSans-6c" x="1549.324219"/>
     <use xlink:href="#DejaVuSans-69" x="1577.107422"/>
     <use xlink:href="#DejaVuSans-67" x="1604.890625"/>
     <use xlink:href="#DejaVuSans-6e" x="1668.367188"/>
     <use xlink:href="#DejaVuSans-65" x="1731.746094"/>
     <use xlink:href="#DejaVuSans-64" x="1793.269531"/>
     <use xlink:href="#DejaVuSans-20" x="1856.746094"/>
     <use xlink:href="#DejaVuSans-74" x="1888.533203"/>
     <use xlink:href="#DejaVuSans-65" x="1927.742188"/>
     <use xlink:href="#DejaVuSans-73" x="1989.265625"/>
     <use xlink:href="#DejaVuSans-74" x="2041.365234"/>
     <use xlink:href="#DejaVuSans-20" x="2080.574219"/>
     <use xlink:href="#DejaVuSans-28" x="2112.361328"/>
     <use xlink:href="#DejaVuSans-72" x="2151.375"/>
     <use xlink:href="#DejaVuSans-65" x="2190.238281"/>
     <use xlink:href="#DejaVuSans-66" x="2251.761719"/>
     <use xlink:href="#DejaVuSans-65" x="2286.966797"/>
     <use xlink:href="#DejaVuSans-72" x="2348.490234"/>
     <use xlink:href="#DejaVuSans-65" x="2387.353516"/>
     <use xlink:href="#DejaVuSans-6e" x="2448.876953"/>
     <use xlink:href="#DejaVuSans-63" x="2512.255859"/>
     <use xlink:href="#DejaVuSans-65" x="2567.236328"/>
     <use xlink:href="#DejaVuSans-29" x="2628.759766"/>
    </g>
   </g>
   <g id="legend_1">
    <g id="patch_7">
     <path d="M 64.6 78.82825 
L 166.359375 78.82825 
Q 168.359375 78.82825 168.359375 76.82825 
L 168.359375 48.472 
Q 168.359375 46.472 166.359375 46.472 
L 64.6 46.472 
Q 62.6 46.472 62.6 48.472 
L 62.6 76.82825 
Q 62.6 78.82825 64.6 78.82825 
z
" style="fill: #ffffff; opacity: 0.8; stroke: #cccccc; stroke-linejoin: miter"/>
    </g>
    <g id="line2d_15">
     <path d="M 66.6 54.570437 
L 76.6 54.570437 
L 86.6 54.570437 
" style="fill: none; stroke: #1f77b4; stroke-width: 1.5; stroke-linecap: square"/>
    </g>
    <g id="text_16">
     <!-- measurement -->
     <g transform="translate(94.6 58.070437) scale(0.1 -0.1)">
      <use xlink:href="#DejaVuSans-6d"/>
      <use xlink:href="#DejaVuSans-65" x="97.412109"/>
      <use xlink:href="#DejaVuSans-61" x="158.935547"/>
      <use xlink:href="#DejaVuSans-73" x="220.214844"/>
      <use xlink:href="#DejaVuSans-75" x="272.314453"/>
      <use xlink:href="#DejaVuSans-72" x="335.693359"/>
      <use xlink:href="#DejaVuSans-65" x="374.556641"/>
      <use xlink:href="#DejaVuSans-6d" x="436.080078"/>
      <use xlink:href="#DejaVuSans-65" x="533.492188"/>
      <use xlink:href="#DejaVuSans-6e" x="595.015625"/>
      <use xlink:href="#DejaVuSans-74" x="658.394531"/>
     </g>
    </g>
    <g id="line2d_16">
     <path d="M 66.6 69.248562 
L 76.6 69.248562 
L 86.6 69.248562 
" style="fill: none; stroke: #ff7f0e; stroke-width: 1.5; stroke-linecap: square"/>
    </g>
    <g id="text_17">
     <!-- reference -->
     <g transform="translate(94.6 72.748562) scale(0.1 -0.1)">
      <use xlink:href="#DejaVuSans-72"/>
      <use xlink:href="#DejaVuSans-65" x="38.863281"/>
      <use xlink:href="#DejaVuSans-66" x="100.386719"/>
      <use xlink:href="#DejaVuSans-65" x="135.591797"/>
      <use xlink:href="#DejaVuSans-72" x="197.115234"/>
      <use xlink:href="#DejaVuSans-65" x="235.978516"/>
      <use xlink:href="#DejaVuSans-6e" x="297.501953"/>
      <use xlink:href="#DejaVuSans-63" x="360.880859"/>
      <use xlink:href="#DejaVuSans-65" x="415.861328"/>
     </g>
    </g>
   </g>
  </g>
 </g>
 <defs>
  <clipPath id="p6aa11e995e">
   <rect x="57.6" y="41.472" width="357.12" height="266.112"/>
  </clipPath>
 </defs>
</svg>
