<?xml version="1.0" encoding="utf-8" standalone="no"?>
<!DOCTYPE svg PUBLIC "-//W3C//DTD SVG 1.1//EN"
  "http://www.w3.org/Graphics/SVG/1.1/DTD/svg11.dtd">
<svg xmlns:xlink="http://www.w3.org/1999/xlink" width="460.8pt" height="345.6pt" viewBox="0 0 460.8 345.6" xmlns="http://www.w3.org/2000/svg" version="1.1">
 <metadata>
  <rdf:RDF xmlns:dc="http://purl.org/dc/elements/1.1/" xmlns:cc="http://creativecommons.org/ns#" xmlns:rdf="http://www.w3.org/1999/02/22-rdf-syntax-ns#">
   <cc:Work>
    <dc:type rdf:resource="http://purl.org/dc/dcmitype/StillImage"/>
    <dc:date>2024-10-04T12:08:31.626606</dc:date>
    <dc:format>image/svg+xml</dc:format>
    <dc:creator>
     <cc:Agent>
      <dc:title>Matplotlib v3.8.4, https://matplotlib.org/</dc:title>
     </cc:Agent>
    </dc:creator>
   </cc:Work>
  </rdf:RDF>
 </metadata>
 <defs>
  <style type="text/css">*{stroke-linejoin: round; stroke-linecap: butt}</style>
 </defs>
 <g id="figure_1">
  <g id="patch_1">
   <path d="M 0 345.6 
L 460.8 345.6 
L 460.8 0 
L 0 0 
z
" style="fill: #ffffff"/>
  </g>
  <g id="axes_1">
   <g id="patch_2">
    <path d="M 57.6 307.584 
L 414.72 307.584 
L 414.72 41.472 
L 57.6 41.472 
z
" style="fill: #ffffff"/>
   </g>
   <g id="matplotlib.axis_1">
    <g id="xtick_1">
     <g id="line2d_1">
      <defs>
       <path id="m40a506e37e" d="M 0 0 
L 0 3.5 
" style="stroke: #000000; stroke-width: 0.8"/>
      </defs>
      <g>
       <use xlink:href="#m40a506e37e" x="73.832727" y="307.584" style="stroke: #000000; stroke-width: 0.8"/>
      </g>
     </g>
     <g id="text_1">
      <!-- 0 -->
      <g transform="translate(70.651477 322.182437) scale(0.1 -0.1)">
       <defs>
        <path id="DejaVuSans-30" d="M 2034 4250 
Q 1547 4250 1301 3770 
Q 1056 3291 1056 2328 
Q 1056 1369 1301 889 
Q 1547 409 2034 409 
Q 2525 409 2770 889 
Q 3016 1369 3016 2328 
Q 3016 3291 2770 3770 
Q 2525 4250 2034 4250 
z
M 2034 4750 
Q 2819 4750 3233 4129 
Q 3647 3509 3647 2328 
Q 3647 1150 3233 529 
Q 2819 -91 2034 -91 
Q 1250 -91 836 529 
Q 422 1150 422 2328 
Q 422 3509 836 4129 
Q 1250 4750 2034 4750 
z
" transform="scale(0.015625)"/>
       </defs>
       <use xlink:href="#DejaVuSans-30"/>
      </g>
     </g>
    </g>
    <g id="xtick_2">
     <g id="line2d_2">
      <g>
       <use xlink:href="#m40a506e37e" x="138.776625" y="307.584" style="stroke: #000000; stroke-width: 0.8"/>
      </g>
     </g>
     <g id="text_2">
      <!-- 1000 -->
      <g transform="translate(126.051625 322.182437) scale(0.1 -0.1)">
       <defs>
        <path id="DejaVuSans-31" d="M 794 531 
L 1825 531 
L 1825 4091 
L 703 3866 
L 703 4441 
L 1819 4666 
L 2450 4666 
L 2450 531 
L 3481 531 
L 3481 0 
L 794 0 
L 794 531 
z
" transform="scale(0.015625)"/>
       </defs>
       <use xlink:href="#DejaVuSans-31"/>
       <use xlink:href="#DejaVuSans-30" x="63.623047"/>
       <use xlink:href="#DejaVuSans-30" x="127.246094"/>
       <use xlink:href="#DejaVuSans-30" x="190.869141"/>
      </g>
     </g>
    </g>
    <g id="xtick_3">
     <g id="line2d_3">
      <g>
       <use xlink:href="#m40a506e37e" x="203.720523" y="307.584" style="stroke: #000000; stroke-width: 0.8"/>
      </g>
     </g>
     <g id="text_3">
      <!-- 2000 -->
      <g transform="translate(190.995523 322.182437) scale(0.1 -0.1)">
       <defs>
        <path id="DejaVuSans-32" d="M 1228 531 
L 3431 531 
L 3431 0 
L 469 0 
L 469 531 
Q 828 903 1448 1529 
Q 2069 2156 2228 2338 
Q 2531 2678 2651 2914 
Q 2772 3150 2772 3378 
Q 2772 3750 2511 3984 
Q 2250 4219 1831 4219 
Q 1534 4219 1204 4116 
Q 875 4013 500 3803 
L 500 4441 
Q 881 4594 1212 4672 
Q 1544 4750 1819 4750 
Q 2544 4750 2975 4387 
Q 3406 4025 3406 3419 
Q 3406 3131 3298 2873 
Q 3191 2616 2906 2266 
Q 2828 2175 2409 1742 
Q 1991 1309 1228 531 
z
" transform="scale(0.015625)"/>
       </defs>
       <use xlink:href="#DejaVuSans-32"/>
       <use xlink:href="#DejaVuSans-30" x="63.623047"/>
       <use xlink:href="#DejaVuSans-30" x="127.246094"/>
       <use xlink:href="#DejaVuSans-30" x="190.869141"/>
      </g>
     </g>
    </g>
    <g id="xtick_4">
     <g id="line2d_4">
      <g>
       <use xlink:href="#m40a506e37e" x="268.664421" y="307.584" style="stroke: #000000; stroke-width: 0.8"/>
      </g>
     </g>
     <g id="text_4">
      <!-- 3000 -->
      <g transform="translate(255.939421 322.182437) scale(0.1 -0.1)">
       <defs>
        <path id="DejaVuSans-33" d="M 2597 2516 
Q 3050 2419 3304 2112 
Q 3559 1806 3559 1356 
Q 3559 666 3084 287 
Q 2609 -91 1734 -91 
Q 1441 -91 1130 -33 
Q 819 25 488 141 
L 488 750 
Q 750 597 1062 519 
Q 1375 441 1716 441 
Q 2309 441 2620 675 
Q 2931 909 2931 1356 
Q 2931 1769 2642 2001 
Q 2353 2234 1838 2234 
L 1294 2234 
L 1294 2753 
L 1863 2753 
Q 2328 2753 2575 2939 
Q 2822 3125 2822 3475 
Q 2822 3834 2567 4026 
Q 2313 4219 1838 4219 
Q 1578 4219 1281 4162 
Q 984 4106 628 3988 
L 628 4550 
Q 988 4650 1302 4700 
Q 1616 4750 1894 4750 
Q 2613 4750 3031 4423 
Q 3450 4097 3450 3541 
Q 3450 3153 3228 2886 
Q 3006 2619 2597 2516 
z
" transform="scale(0.015625)"/>
       </defs>
       <use xlink:href="#DejaVuSans-33"/>
       <use xlink:href="#DejaVuSans-30" x="63.623047"/>
       <use xlink:href="#DejaVuSans-30" x="127.246094"/>
       <use xlink:href="#DejaVuSans-30" x="190.869141"/>
      </g>
     </g>
    </g>
    <g id="xtick_5">
     <g id="line2d_5">
      <g>
       <use xlink:href="#m40a506e37e" x="333.608319" y="307.584" style="stroke: #000000; stroke-width: 0.8"/>
      </g>
     </g>
     <g id="text_5">
      <!-- 4000 -->
      <g transform="translate(320.883319 322.182437) scale(0.1 -0.1)">
       <defs>
        <path id="DejaVuSans-34" d="M 2419 4116 
L 825 1625 
L 2419 1625 
L 2419 4116 
z
M 2253 4666 
L 3047 4666 
L 3047 1625 
L 3713 1625 
L 3713 1100 
L 3047 1100 
L 3047 0 
L 2419 0 
L 2419 1100 
L 313 1100 
L 313 1709 
L 2253 4666 
z
" transform="scale(0.015625)"/>
       </defs>
       <use xlink:href="#DejaVuSans-34"/>
       <use xlink:href="#DejaVuSans-30" x="63.623047"/>
       <use xlink:href="#DejaVuSans-30" x="127.246094"/>
       <use xlink:href="#DejaVuSans-30" x="190.869141"/>
      </g>
     </g>
    </g>
    <g id="xtick_6">
     <g id="line2d_6">
      <g>
       <use xlink:href="#m40a506e37e" x="398.552217" y="307.584" style="stroke: #000000; stroke-width: 0.8"/>
      </g>
     </g>
     <g id="text_6">
      <!-- 5000 -->
      <g transform="translate(385.827217 322.182437) scale(0.1 -0.1)">
       <defs>
        <path id="DejaVuSans-35" d="M 691 4666 
L 3169 4666 
L 3169 4134 
L 1269 4134 
L 1269 2991 
Q 1406 3038 1543 3061 
Q 1681 3084 1819 3084 
Q 2600 3084 3056 2656 
Q 3513 2228 3513 1497 
Q 3513 744 3044 326 
Q 2575 -91 1722 -91 
Q 1428 -91 1123 -41 
Q 819 9 494 109 
L 494 744 
Q 775 591 1075 516 
Q 1375 441 1709 441 
Q 2250 441 2565 725 
Q 2881 1009 2881 1497 
Q 2881 1984 2565 2268 
Q 2250 2553 1709 2553 
Q 1456 2553 1204 2497 
Q 953 2441 691 2322 
L 691 4666 
z
" transform="scale(0.015625)"/>
       </defs>
       <use xlink:href="#DejaVuSans-35"/>
       <use xlink:href="#DejaVuSans-30" x="63.623047"/>
       <use xlink:href="#DejaVuSans-30" x="127.246094"/>
       <use xlink:href="#DejaVuSans-30" x="190.869141"/>
      </g>
     </g>
    </g>
    <g id="text_7">
     <!-- measurement # -->
     <g transform="translate(195.501406 335.860562) scale(0.1 -0.1)">
      <defs>
       <path id="DejaVuSans-6d" d="M 3328 2828 
Q 3544 3216 3844 3400 
Q 4144 3584 4550 3584 
Q 5097 3584 5394 3201 
Q 5691 2819 5691 2113 
L 5691 0 
L 5113 0 
L 5113 2094 
Q 5113 2597 4934 2840 
Q 4756 3084 4391 3084 
Q 3944 3084 3684 2787 
Q 3425 2491 3425 1978 
L 3425 0 
L 2847 0 
L 2847 2094 
Q 2847 2600 2669 2842 
Q 2491 3084 2119 3084 
Q 1678 3084 1418 2786 
Q 1159 2488 1159 1978 
L 1159 0 
L 581 0 
L 581 3500 
L 1159 3500 
L 1159 2956 
Q 1356 3278 1631 3431 
Q 1906 3584 2284 3584 
Q 2666 3584 2933 3390 
Q 3200 3197 3328 2828 
z
" transform="scale(0.015625)"/>
       <path id="DejaVuSans-65" d="M 3597 1894 
L 3597 1613 
L 953 1613 
Q 991 1019 1311 708 
Q 1631 397 2203 397 
Q 2534 397 2845 478 
Q 3156 559 3463 722 
L 3463 178 
Q 3153 47 2828 -22 
Q 2503 -91 2169 -91 
Q 1331 -91 842 396 
Q 353 884 353 1716 
Q 353 2575 817 3079 
Q 1281 3584 2069 3584 
Q 2775 3584 3186 3129 
Q 3597 2675 3597 1894 
z
M 3022 2063 
Q 3016 2534 2758 2815 
Q 2500 3097 2075 3097 
Q 1594 3097 1305 2825 
Q 1016 2553 972 2059 
L 3022 2063 
z
" transform="scale(0.015625)"/>
       <path id="DejaVuSans-61" d="M 2194 1759 
Q 1497 1759 1228 1600 
Q 959 1441 959 1056 
Q 959 750 1161 570 
Q 1363 391 1709 391 
Q 2188 391 2477 730 
Q 2766 1069 2766 1631 
L 2766 1759 
L 2194 1759 
z
M 3341 1997 
L 3341 0 
L 2766 0 
L 2766 531 
Q 2569 213 2275 61 
Q 1981 -91 1556 -91 
Q 1019 -91 701 211 
Q 384 513 384 1019 
Q 384 1609 779 1909 
Q 1175 2209 1959 2209 
L 2766 2209 
L 2766 2266 
Q 2766 2663 2505 2880 
Q 2244 3097 1772 3097 
Q 1472 3097 1187 3025 
Q 903 2953 641 2809 
L 641 3341 
Q 956 3463 1253 3523 
Q 1550 3584 1831 3584 
Q 2591 3584 2966 3190 
Q 3341 2797 3341 1997 
z
" transform="scale(0.015625)"/>
       <path id="DejaVuSans-73" d="M 2834 3397 
L 2834 2853 
Q 2591 2978 2328 3040 
Q 2066 3103 1784 3103 
Q 1356 3103 1142 2972 
Q 928 2841 928 2578 
Q 928 2378 1081 2264 
Q 1234 2150 1697 2047 
L 1894 2003 
Q 2506 1872 2764 1633 
Q 3022 1394 3022 966 
Q 3022 478 2636 193 
Q 2250 -91 1575 -91 
Q 1294 -91 989 -36 
Q 684 19 347 128 
L 347 722 
Q 666 556 975 473 
Q 1284 391 1588 391 
Q 1994 391 2212 530 
Q 2431 669 2431 922 
Q 2431 1156 2273 1281 
Q 2116 1406 1581 1522 
L 1381 1569 
Q 847 1681 609 1914 
Q 372 2147 372 2553 
Q 372 3047 722 3315 
Q 1072 3584 1716 3584 
Q 2034 3584 2315 3537 
Q 2597 3491 2834 3397 
z
" transform="scale(0.015625)"/>
       <path id="DejaVuSans-75" d="M 544 1381 
L 544 3500 
L 1119 3500 
L 1119 1403 
Q 1119 906 1312 657 
Q 1506 409 1894 409 
Q 2359 409 2629 706 
Q 2900 1003 2900 1516 
L 2900 3500 
L 3475 3500 
L 3475 0 
L 2900 0 
L 2900 538 
Q 2691 219 2414 64 
Q 2138 -91 1772 -91 
Q 1169 -91 856 284 
Q 544 659 544 1381 
z
M 1991 3584 
L 1991 3584 
z
" transform="scale(0.015625)"/>
       <path id="DejaVuSans-72" d="M 2631 2963 
Q 2534 3019 2420 3045 
Q 2306 3072 2169 3072 
Q 1681 3072 1420 2755 
Q 1159 2438 1159 1844 
L 1159 0 
L 581 0 
L 581 3500 
L 1159 3500 
L 1159 2956 
Q 1341 3275 1631 3429 
Q 1922 3584 2338 3584 
Q 2397 3584 2469 3576 
Q 2541 3569 2628 3553 
L 2631 2963 
z
" transform="scale(0.015625)"/>
       <path id="DejaVuSans-6e" d="M 3513 2113 
L 3513 0 
L 2938 0 
L 2938 2094 
Q 2938 2591 2744 2837 
Q 2550 3084 2163 3084 
Q 1697 3084 1428 2787 
Q 1159 2491 1159 1978 
L 1159 0 
L 581 0 
L 581 3500 
L 1159 3500 
L 1159 2956 
Q 1366 3272 1645 3428 
Q 1925 3584 2291 3584 
Q 2894 3584 3203 3211 
Q 3513 2838 3513 2113 
z
" transform="scale(0.015625)"/>
       <path id="DejaVuSans-74" d="M 1172 4494 
L 1172 3500 
L 2356 3500 
L 2356 3053 
L 1172 3053 
L 1172 1153 
Q 1172 725 1289 603 
Q 1406 481 1766 481 
L 2356 481 
L 2356 0 
L 1766 0 
Q 1100 0 847 248 
Q 594 497 594 1153 
L 594 3053 
L 172 3053 
L 172 3500 
L 594 3500 
L 594 4494 
L 1172 4494 
z
" transform="scale(0.015625)"/>
       <path id="DejaVuSans-20" transform="scale(0.015625)"/>
       <path id="DejaVuSans-23" d="M 3272 2816 
L 2363 2816 
L 2100 1772 
L 3016 1772 
L 3272 2816 
z
M 2803 4594 
L 2478 3297 
L 3391 3297 
L 3719 4594 
L 4219 4594 
L 3897 3297 
L 4872 3297 
L 4872 2816 
L 3775 2816 
L 3519 1772 
L 4513 1772 
L 4513 1294 
L 3397 1294 
L 3072 0 
L 2572 0 
L 2894 1294 
L 1978 1294 
L 1656 0 
L 1153 0 
L 1478 1294 
L 494 1294 
L 494 1772 
L 1594 1772 
L 1856 2816 
L 850 2816 
L 850 3297 
L 1978 3297 
L 2297 4594 
L 2803 4594 
z
" transform="scale(0.015625)"/>
      </defs>
      <use xlink:href="#DejaVuSans-6d"/>
      <use xlink:href="#DejaVuSans-65" x="97.412109"/>
      <use xlink:href="#DejaVuSans-61" x="158.935547"/>
      <use xlink:href="#DejaVuSans-73" x="220.214844"/>
      <use xlink:href="#DejaVuSans-75" x="272.314453"/>
      <use xlink:href="#DejaVuSans-72" x="335.693359"/>
      <use xlink:href="#DejaVuSans-65" x="374.556641"/>
      <use xlink:href="#DejaVuSans-6d" x="436.080078"/>
      <use xlink:href="#DejaVuSans-65" x="533.492188"/>
      <use xlink:href="#DejaVuSans-6e" x="595.015625"/>
      <use xlink:href="#DejaVuSans-74" x="658.394531"/>
      <use xlink:href="#DejaVuSans-20" x="697.603516"/>
      <use xlink:href="#DejaVuSans-23" x="729.390625"/>
     </g>
    </g>
   </g>
   <g id="matplotlib.axis_2">
    <g id="ytick_1">
     <g id="line2d_7">
      <defs>
       <path id="m9d8dab84d8" d="M 0 0 
L -3.5 0 
" style="stroke: #000000; stroke-width: 0.8"/>
      </defs>
      <g>
       <use xlink:href="#m9d8dab84d8" x="57.6" y="307.076202" style="stroke: #000000; stroke-width: 0.8"/>
      </g>
     </g>
     <g id="text_8">
      <!-- 0 -->
      <g transform="translate(44.2375 310.875421) scale(0.1 -0.1)">
       <use xlink:href="#DejaVuSans-30"/>
      </g>
     </g>
    </g>
    <g id="ytick_2">
     <g id="line2d_8">
      <g>
       <use xlink:href="#m9d8dab84d8" x="57.6" y="274.525072" style="stroke: #000000; stroke-width: 0.8"/>
      </g>
     </g>
     <g id="text_9">
      <!-- 250 -->
      <g transform="translate(31.5125 278.324291) scale(0.1 -0.1)">
       <use xlink:href="#DejaVuSans-32"/>
       <use xlink:href="#DejaVuSans-35" x="63.623047"/>
       <use xlink:href="#DejaVuSans-30" x="127.246094"/>
      </g>
     </g>
    </g>
    <g id="ytick_3">
     <g id="line2d_9">
      <g>
       <use xlink:href="#m9d8dab84d8" x="57.6" y="241.973942" style="stroke: #000000; stroke-width: 0.8"/>
      </g>
     </g>
     <g id="text_10">
      <!-- 500 -->
      <g transform="translate(31.5125 245.773161) scale(0.1 -0.1)">
       <use xlink:href="#DejaVuSans-35"/>
       <use xlink:href="#DejaVuSans-30" x="63.623047"/>
       <use xlink:href="#DejaVuSans-30" x="127.246094"/>
      </g>
     </g>
    </g>
    <g id="ytick_4">
     <g id="line2d_10">
      <g>
       <use xlink:href="#m9d8dab84d8" x="57.6" y="209.422812" style="stroke: #000000; stroke-width: 0.8"/>
      </g>
     </g>
     <g id="text_11">
      <!-- 750 -->
      <g transform="translate(31.5125 213.22203) scale(0.1 -0.1)">
       <defs>
        <path id="DejaVuSans-37" d="M 525 4666 
L 3525 4666 
L 3525 4397 
L 1831 0 
L 1172 0 
L 2766 4134 
L 525 4134 
L 525 4666 
z
" transform="scale(0.015625)"/>
       </defs>
       <use xlink:href="#DejaVuSans-37"/>
       <use xlink:href="#DejaVuSans-35" x="63.623047"/>
       <use xlink:href="#DejaVuSans-30" x="127.246094"/>
      </g>
     </g>
    </g>
    <g id="ytick_5">
     <g id="line2d_11">
      <g>
       <use xlink:href="#m9d8dab84d8" x="57.6" y="176.871681" style="stroke: #000000; stroke-width: 0.8"/>
      </g>
     </g>
     <g id="text_12">
      <!-- 1000 -->
      <g transform="translate(25.15 180.6709) scale(0.1 -0.1)">
       <use xlink:href="#DejaVuSans-31"/>
       <use xlink:href="#DejaVuSans-30" x="63.623047"/>
       <use xlink:href="#DejaVuSans-30" x="127.246094"/>
       <use xlink:href="#DejaVuSans-30" x="190.869141"/>
      </g>
     </g>
    </g>
    <g id="ytick_6">
     <g id="line2d_12">
      <g>
       <use xlink:href="#m9d8dab84d8" x="57.6" y="144.320551" style="stroke: #000000; stroke-width: 0.8"/>
      </g>
     </g>
     <g id="text_13">
      <!-- 1250 -->
      <g transform="translate(25.15 148.11977) scale(0.1 -0.1)">
       <use xlink:href="#DejaVuSans-31"/>
       <use xlink:href="#DejaVuSans-32" x="63.623047"/>
       <use xlink:href="#DejaVuSans-35" x="127.246094"/>
       <use xlink:href="#DejaVuSans-30" x="190.869141"/>
      </g>
     </g>
    </g>
    <g id="ytick_7">
     <g id="line2d_13">
      <g>
       <use xlink:href="#m9d8dab84d8" x="57.6" y="111.769421" style="stroke: #000000; stroke-width: 0.8"/>
      </g>
     </g>
     <g id="text_14">
      <!-- 1500 -->
      <g transform="translate(25.15 115.56864) scale(0.1 -0.1)">
       <use xlink:href="#DejaVuSans-31"/>
       <use xlink:href="#DejaVuSans-35" x="63.623047"/>
       <use xlink:href="#DejaVuSans-30" x="127.246094"/>
       <use xlink:href="#DejaVuSans-30" x="190.869141"/>
      </g>
     </g>
    </g>
    <g id="ytick_8">
     <g id="line2d_14">
      <g>
       <use xlink:href="#m9d8dab84d8" x="57.6" y="79.218291" style="stroke: #000000; stroke-width: 0.8"/>
      </g>
     </g>
     <g id="text_15">
      <!-- 1750 -->
      <g transform="translate(25.15 83.017509) scale(0.1 -0.1)">
       <use xlink:href="#DejaVuSans-31"/>
       <use xlink:href="#DejaVuSans-37" x="63.623047"/>
       <use xlink:href="#DejaVuSans-35" x="127.246094"/>
       <use xlink:href="#DejaVuSans-30" x="190.869141"/>
      </g>
     </g>
    </g>
    <g id="ytick_9">
     <g id="line2d_15">
      <g>
       <use xlink:href="#m9d8dab84d8" x="57.6" y="46.66716" style="stroke: #000000; stroke-width: 0.8"/>
      </g>
     </g>
     <g id="text_16">
      <!-- 2000 -->
      <g transform="translate(25.15 50.466379) scale(0.1 -0.1)">
       <use xlink:href="#DejaVuSans-32"/>
       <use xlink:href="#DejaVuSans-30" x="63.623047"/>
       <use xlink:href="#DejaVuSans-30" x="127.246094"/>
       <use xlink:href="#DejaVuSans-30" x="190.869141"/>
      </g>
     </g>
    </g>
    <g id="text_17">
     <!-- time -->
     <g transform="translate(19.070312 185.824094) rotate(-90) scale(0.1 -0.1)">
      <defs>
       <path id="DejaVuSans-69" d="M 603 3500 
L 1178 3500 
L 1178 0 
L 603 0 
L 603 3500 
z
M 603 4863 
L 1178 4863 
L 1178 4134 
L 603 4134 
L 603 4863 
z
" transform="scale(0.015625)"/>
      </defs>
      <use xlink:href="#DejaVuSans-74"/>
      <use xlink:href="#DejaVuSans-69" x="39.208984"/>
      <use xlink:href="#DejaVuSans-6d" x="66.992188"/>
      <use xlink:href="#DejaVuSans-65" x="164.404297"/>
     </g>
    </g>
   </g>
   <g id="line2d_16">
    <path d="M 73.832727 295.488 
L 73.962615 295.488 
L 74.092503 293.795341 
L 79.223071 293.795341 
L 79.482846 293.014114 
L 83.37948 293.014114 
L 83.639256 291.581864 
L 83.7042 290.01941 
L 83.834088 279.212435 
L 84.028919 274.915686 
L 84.158807 262.676461 
L 84.353639 261.765029 
L 84.483527 261.50462 
L 84.54847 261.50462 
L 84.87319 260.983802 
L 85.003078 260.983802 
L 85.262853 260.332779 
L 85.327797 260.332779 
L 85.652517 259.551552 
L 86.107124 254.994394 
L 86.172068 254.864189 
L 86.301956 253.952758 
L 86.431843 253.952758 
L 86.561731 253.822553 
L 90.19859 253.822553 
L 90.328477 253.692349 
L 95.459045 253.692349 
L 95.588933 253.562144 
L 101.498828 253.562144 
L 101.628716 253.43194 
L 106.174788 253.43194 
L 106.304676 253.301735 
L 110.590973 253.301735 
L 110.720861 253.171531 
L 116.825588 253.171531 
L 116.955475 253.041326 
L 127.801106 253.041326 
L 127.930994 252.911122 
L 137.867411 252.911122 
L 137.997298 252.780917 
L 147.0245 252.780917 
L 147.154388 252.650713 
L 154.557992 252.650713 
L 154.68788 252.520508 
L 161.636877 252.520508 
L 161.766765 252.390304 
L 170.858911 252.390304 
L 170.988798 252.260099 
L 181.639598 252.260099 
L 181.769486 252.129895 
L 192.095565 252.129895 
L 192.225453 251.99969 
L 200.408384 251.99969 
L 200.538272 251.869485 
L 207.876932 251.869485 
L 208.00682 251.739281 
L 214.306378 251.739281 
L 214.436266 251.609076 
L 224.697402 251.609076 
L 224.82729 251.478872 
L 237.101687 251.478872 
L 237.231574 251.348667 
L 249.830691 251.348667 
L 249.960578 251.218463 
L 260.221714 251.218463 
L 260.351602 251.088258 
L 269.183972 251.088258 
L 269.31386 250.958054 
L 278.795669 250.958054 
L 278.925557 250.827849 
L 290.290739 250.827849 
L 290.420627 250.697645 
L 301.590977 250.697645 
L 301.720865 250.56744 
L 312.241776 250.56744 
L 312.371664 250.437236 
L 321.918417 250.437236 
L 322.048305 250.307031 
L 329.257078 250.307031 
L 329.386965 250.176827 
L 335.816411 250.176827 
L 335.946299 250.046622 
L 342.310801 250.046622 
L 342.440689 249.916418 
L 347.895976 249.916418 
L 348.025864 249.786213 
L 353.870815 249.786213 
L 354.000703 249.656009 
L 358.027224 249.656009 
L 358.157112 249.525804 
L 361.599139 249.525804 
L 361.729027 249.3956 
L 362.833073 249.3956 
L 362.962961 249.265395 
L 364.521614 249.265395 
L 364.651502 249.135191 
L 365.95038 249.135191 
L 366.080268 249.004986 
L 367.314202 249.004986 
L 367.44409 248.874781 
L 368.483192 248.874781 
L 368.61308 248.744577 
L 369.132631 248.744577 
L 369.262519 248.614372 
L 369.911958 248.614372 
L 370.041845 248.484168 
L 370.301621 248.484168 
L 370.431509 248.353963 
L 370.626341 248.353963 
L 370.821172 248.093554 
L 371.145892 248.093554 
L 371.27578 247.96335 
L 371.470611 247.96335 
L 371.600499 247.833145 
L 371.925218 247.833145 
L 372.055106 247.702941 
L 372.249938 247.702941 
L 372.379826 247.572736 
L 372.899377 247.572736 
L 373.029265 247.442532 
L 373.224096 247.442532 
L 373.353984 247.312327 
L 373.938479 247.312327 
L 374.068367 247.182123 
L 374.133311 247.182123 
L 374.263199 247.051918 
L 374.393087 247.051918 
L 374.522974 246.921714 
L 374.587918 246.921714 
L 374.717806 246.791509 
L 374.912638 246.791509 
L 375.042526 246.661305 
L 375.237357 246.661305 
L 375.367245 246.5311 
L 375.562077 246.5311 
L 375.691965 246.400896 
L 376.016684 246.400896 
L 376.146572 246.270691 
L 376.341404 246.270691 
L 376.471291 246.140487 
L 376.666123 246.140487 
L 376.860955 245.880078 
L 376.990843 245.880078 
L 377.315562 245.359259 
L 377.380506 245.359259 
L 377.510394 245.229055 
L 377.705225 245.229055 
L 377.835113 245.09885 
L 377.900057 245.09885 
L 378.029945 244.968646 
L 378.354664 244.968646 
L 378.549496 244.708237 
L 378.679384 244.708237 
L 378.809272 244.578032 
L 378.874216 244.578032 
L 379.069047 244.317623 
L 379.198935 244.317623 
L 379.328823 244.187419 
L 379.393767 244.187419 
L 379.588598 243.92701 
L 379.653542 243.92701 
L 379.78343 243.796805 
L 379.913318 243.796805 
L 379.978262 243.666601 
L 380.173094 243.145783 
L 380.302981 243.145783 
L 380.692645 242.49476 
L 380.757589 242.49476 
L 380.95242 242.234351 
L 381.017364 242.234351 
L 381.342084 240.932306 
L 381.666803 240.411488 
L 381.731747 240.411488 
L 382.12141 239.239647 
L 382.44613 238.718829 
L 382.511074 238.718829 
L 382.770849 238.328215 
L 382.835793 238.328215 
L 382.965681 238.067806 
L 383.030625 238.067806 
L 383.225457 237.416784 
L 383.355345 237.286579 
L 383.420288 237.286579 
L 383.550176 237.02617 
L 383.61512 237.02617 
L 383.809952 236.505352 
L 383.874896 236.505352 
L 384.004784 236.375147 
L 384.069727 236.375147 
L 384.264559 235.984534 
L 384.394447 235.854329 
L 384.459391 235.854329 
L 384.78411 235.333511 
L 384.849054 235.333511 
L 385.238718 234.682489 
L 385.368605 234.682489 
L 385.498493 234.552284 
L 385.563437 234.552284 
L 385.823213 233.771057 
L 386.082988 233.771057 
L 386.212876 233.510648 
L 386.407708 233.510648 
L 386.602539 233.250239 
L 386.732427 233.250239 
L 386.927259 232.859625 
L 386.992203 232.859625 
L 387.381866 232.208603 
L 387.641642 232.208603 
L 388.031305 230.906558 
L 388.161193 230.906558 
L 388.356025 230.646149 
L 388.550856 230.646149 
L 389.330183 228.95349 
L 389.589959 228.302467 
L 389.654903 228.172263 
L 389.979622 226.740013 
L 390.10951 226.740013 
L 390.174454 226.609808 
L 390.564117 224.91715 
L 390.629061 224.91715 
L 390.823893 224.396332 
L 391.213556 223.615104 
L 391.668163 221.271423 
L 391.733107 221.271423 
L 391.927939 221.011014 
L 391.992883 221.011014 
L 392.317602 220.099582 
L 392.382546 219.969378 
L 392.707266 218.667333 
L 392.902098 218.146515 
L 393.161873 216.323651 
L 393.421649 215.151811 
L 393.486593 215.151811 
L 393.746368 213.589356 
L 393.9412 213.328947 
L 394.006144 213.328947 
L 394.265919 212.677925 
L 394.720527 209.683221 
L 394.915358 209.162403 
L 395.499853 205.256267 
L 395.564797 205.256267 
L 396.084349 202.782381 
L 396.149292 202.782381 
L 396.668844 197.183587 
L 397.318283 163.330411 
L 397.707946 158.252435 
L 397.77289 157.992026 
L 397.902778 148.747505 
L 397.967722 148.356891 
L 398.032665 145.622596 
L 398.227497 124.789873 
L 398.357385 123.748237 
L 398.422329 117.107806 
L 398.487273 84.686881 
L 398.487273 84.686881 
" clip-path="url(#p0ad8abb050)" style="fill: none; stroke: #1f77b4; stroke-width: 1.5; stroke-linecap: square"/>
   </g>
   <g id="line2d_17">
    <path d="M 73.832727 295.488 
L 73.962615 293.795341 
L 79.288015 293.795341 
L 79.352959 293.665137 
L 79.482846 293.014114 
L 83.963975 293.014114 
L 84.093863 291.972478 
L 84.223751 291.972478 
L 84.353639 279.472844 
L 84.418583 279.342639 
L 84.613414 275.306299 
L 84.743302 263.457688 
L 84.938134 262.025438 
L 85.068022 262.025438 
L 85.327797 261.374416 
L 85.652517 260.853597 
L 85.782404 260.853597 
L 86.04218 260.202575 
L 86.172068 260.202575 
L 86.691619 259.030734 
L 87.081282 255.645417 
L 87.406002 253.822553 
L 90.523309 253.822553 
L 90.653197 253.692349 
L 96.238372 253.692349 
L 96.36826 253.562144 
L 101.758603 253.562144 
L 101.888491 253.43194 
L 106.174788 253.43194 
L 106.304676 253.301735 
L 112.214571 253.301735 
L 112.344459 253.171531 
L 118.514129 253.171531 
L 118.644017 253.041326 
L 129.684479 253.041326 
L 129.814367 252.911122 
L 139.166289 252.911122 
L 139.296176 252.780917 
L 148.648098 252.780917 
L 148.777985 252.650713 
L 156.051702 252.650713 
L 156.18159 252.520508 
L 162.935755 252.520508 
L 163.065643 252.390304 
L 172.287676 252.390304 
L 172.417564 252.260099 
L 182.418925 252.260099 
L 182.548812 252.129895 
L 193.394443 252.129895 
L 193.524331 251.99969 
L 201.902094 251.99969 
L 202.031982 251.869485 
L 208.201652 251.869485 
L 208.33154 251.739281 
L 214.436266 251.739281 
L 214.566154 251.609076 
L 225.087065 251.609076 
L 225.216953 251.478872 
L 238.855172 251.478872 
L 238.98506 251.348667 
L 252.233615 251.348667 
L 252.363503 251.218463 
L 260.286658 251.218463 
L 260.416546 251.088258 
L 269.119028 251.088258 
L 269.248916 250.958054 
L 278.600837 250.958054 
L 278.730725 250.827849 
L 288.407366 250.827849 
L 288.537254 250.697645 
L 299.123109 250.697645 
L 299.252997 250.56744 
L 311.202674 250.56744 
L 311.332562 250.437236 
L 320.749427 250.437236 
L 320.879315 250.307031 
L 327.893256 250.307031 
L 328.023144 250.176827 
L 334.972141 250.176827 
L 335.102028 250.046622 
L 342.505633 250.046622 
L 342.635521 249.916418 
L 348.545415 249.916418 
L 348.675303 249.786213 
L 354.974861 249.786213 
L 355.104749 249.656009 
L 358.416888 249.656009 
L 358.546776 249.525804 
L 360.9497 249.525804 
L 361.079588 249.3956 
L 363.027904 249.3956 
L 363.157792 249.265395 
L 364.391726 249.265395 
L 364.521614 249.135191 
L 365.820492 249.135191 
L 365.95038 249.004986 
L 367.638921 249.004986 
L 367.768809 248.874781 
L 368.223416 248.874781 
L 368.353304 248.744577 
L 368.61308 248.744577 
L 368.742968 248.614372 
L 369.262519 248.614372 
L 369.392406 248.484168 
L 369.717126 248.484168 
L 369.911958 248.223759 
L 370.301621 248.223759 
L 370.431509 248.093554 
L 370.821172 248.093554 
L 370.95106 247.96335 
L 371.27578 247.96335 
L 371.405667 247.833145 
L 371.665443 247.833145 
L 371.795331 247.702941 
L 372.12005 247.702941 
L 372.249938 247.572736 
L 372.509714 247.572736 
L 372.639601 247.442532 
L 372.834433 247.442532 
L 372.964321 247.312327 
L 373.029265 247.312327 
L 373.224096 247.051918 
L 373.353984 247.051918 
L 373.483872 246.921714 
L 373.873535 246.921714 
L 374.068367 246.661305 
L 374.198255 246.661305 
L 374.328143 246.5311 
L 374.652862 246.5311 
L 374.78275 246.400896 
L 374.847694 246.400896 
L 374.977582 246.270691 
L 375.107469 246.270691 
L 375.237357 246.140487 
L 375.627021 246.140487 
L 375.821852 245.880078 
L 376.016684 245.880078 
L 376.211516 245.619668 
L 376.471291 245.619668 
L 376.601179 245.489464 
L 376.666123 245.489464 
L 376.796011 245.359259 
L 377.055786 245.359259 
L 377.185674 245.229055 
L 377.250618 245.229055 
L 377.380506 245.09885 
L 377.575338 245.09885 
L 377.770169 244.708237 
L 377.965001 244.708237 
L 378.224777 244.317623 
L 378.354664 244.317623 
L 378.484552 244.187419 
L 378.549496 244.187419 
L 378.679384 244.057214 
L 378.744328 244.057214 
L 378.874216 243.92701 
L 378.939159 243.92701 
L 379.069047 243.666601 
L 379.198935 243.666601 
L 379.328823 243.406192 
L 379.458711 243.406192 
L 379.588598 243.275987 
L 379.653542 243.275987 
L 379.848374 243.015578 
L 379.913318 243.015578 
L 380.10815 242.755169 
L 380.173094 242.755169 
L 380.562757 242.104146 
L 380.627701 242.104146 
L 380.757589 241.973942 
L 380.822533 241.973942 
L 381.082308 241.322919 
L 381.147252 241.322919 
L 381.27714 241.06251 
L 381.407028 241.06251 
L 381.536915 240.932306 
L 381.601859 240.932306 
L 382.12141 240.020874 
L 382.186354 240.020874 
L 382.44613 239.500056 
L 382.770849 237.677193 
L 382.900737 237.677193 
L 383.095569 237.286579 
L 383.680064 236.244943 
L 383.809952 236.244943 
L 384.199615 235.59392 
L 384.264559 235.59392 
L 384.394447 235.463716 
L 384.524335 235.463716 
L 384.654222 235.333511 
L 384.719166 235.333511 
L 384.849054 235.203307 
L 384.913998 235.203307 
L 385.173774 234.552284 
L 385.238718 234.552284 
L 385.433549 234.161671 
L 385.628381 234.161671 
L 385.823213 233.901262 
L 385.888157 233.901262 
L 386.082988 233.640853 
L 386.147932 233.640853 
L 386.27782 233.510648 
L 386.342764 233.510648 
L 386.537596 233.120034 
L 386.732427 233.120034 
L 386.992203 232.729421 
L 387.057147 232.729421 
L 387.381866 232.208603 
L 387.641642 232.208603 
L 388.291081 231.036762 
L 388.420969 231.036762 
L 388.680744 230.38574 
L 389.135351 229.344103 
L 389.395127 228.693081 
L 389.525015 228.693081 
L 389.849734 228.172263 
L 389.914678 228.172263 
L 390.044566 227.52124 
L 390.369285 227.000422 
L 390.499173 226.219195 
L 390.564117 226.219195 
L 391.018724 224.135922 
L 391.343444 223.224491 
L 391.408388 223.224491 
L 391.60322 222.573468 
L 391.668163 222.443264 
L 391.927939 221.401628 
L 392.252659 220.880809 
L 392.44749 220.099582 
L 393.226817 217.235083 
L 393.291761 217.235083 
L 393.61648 215.41222 
L 394.460751 212.417516 
L 394.720527 211.896698 
L 395.11019 209.683221 
L 395.305022 207.730153 
L 395.43491 207.469744 
L 395.759629 205.126062 
L 395.954461 204.605244 
L 396.149292 204.214631 
L 396.214236 204.084426 
L 396.409068 201.870949 
L 396.474012 201.870949 
L 396.6039 201.740745 
L 396.733787 200.699109 
L 396.863675 200.308495 
L 396.928619 200.048086 
L 397.578058 187.288043 
L 397.902778 168.408388 
L 398.097609 144.190347 
L 398.292441 111.899625 
L 398.357385 110.337171 
L 398.487273 53.568 
L 398.487273 53.568 
" clip-path="url(#p0ad8abb050)" style="fill: none; stroke: #ff7f0e; stroke-width: 1.5; stroke-linecap: square"/>
   </g>
   <g id="patch_3">
    <path d="M 57.6 307.584 
L 57.6 41.472 
" style="fill: none; stroke: #000000; stroke-width: 0.8; stroke-linejoin: miter; stroke-linecap: square"/>
   </g>
   <g id="patch_4">
    <path d="M 414.72 307.584 
L 414.72 41.472 
" style="fill: none; stroke: #000000; stroke-width: 0.8; stroke-linejoin: miter; stroke-linecap: square"/>
   </g>
   <g id="patch_5">
    <path d="M 57.6 307.584 
L 414.72 307.584 
" style="fill: none; stroke: #000000; stroke-width: 0.8; stroke-linejoin: miter; stroke-linecap: square"/>
   </g>
   <g id="patch_6">
    <path d="M 57.6 41.472 
L 414.72 41.472 
" style="fill: none; stroke: #000000; stroke-width: 0.8; stroke-linejoin: miter; stroke-linecap: square"/>
   </g>
   <g id="text_18">
    <!-- pointer array backwards detection test (reference) -->
    <g transform="translate(84.107812 35.472) scale(0.12 -0.12)">
     <defs>
      <path id="DejaVuSans-70" d="M 1159 525 
L 1159 -1331 
L 581 -1331 
L 581 3500 
L 1159 3500 
L 1159 2969 
Q 1341 3281 1617 3432 
Q 1894 3584 2278 3584 
Q 2916 3584 3314 3078 
Q 3713 2572 3713 1747 
Q 3713 922 3314 415 
Q 2916 -91 2278 -91 
Q 1894 -91 1617 61 
Q 1341 213 1159 525 
z
M 3116 1747 
Q 3116 2381 2855 2742 
Q 2594 3103 2138 3103 
Q 1681 3103 1420 2742 
Q 1159 2381 1159 1747 
Q 1159 1113 1420 752 
Q 1681 391 2138 391 
Q 2594 391 2855 752 
Q 3116 1113 3116 1747 
z
" transform="scale(0.015625)"/>
      <path id="DejaVuSans-6f" d="M 1959 3097 
Q 1497 3097 1228 2736 
Q 959 2375 959 1747 
Q 959 1119 1226 758 
Q 1494 397 1959 397 
Q 2419 397 2687 759 
Q 2956 1122 2956 1747 
Q 2956 2369 2687 2733 
Q 2419 3097 1959 3097 
z
M 1959 3584 
Q 2709 3584 3137 3096 
Q 3566 2609 3566 1747 
Q 3566 888 3137 398 
Q 2709 -91 1959 -91 
Q 1206 -91 779 398 
Q 353 888 353 1747 
Q 353 2609 779 3096 
Q 1206 3584 1959 3584 
z
" transform="scale(0.015625)"/>
      <path id="DejaVuSans-79" d="M 2059 -325 
Q 1816 -950 1584 -1140 
Q 1353 -1331 966 -1331 
L 506 -1331 
L 506 -850 
L 844 -850 
Q 1081 -850 1212 -737 
Q 1344 -625 1503 -206 
L 1606 56 
L 191 3500 
L 800 3500 
L 1894 763 
L 2988 3500 
L 3597 3500 
L 2059 -325 
z
" transform="scale(0.015625)"/>
      <path id="DejaVuSans-62" d="M 3116 1747 
Q 3116 2381 2855 2742 
Q 2594 3103 2138 3103 
Q 1681 3103 1420 2742 
Q 1159 2381 1159 1747 
Q 1159 1113 1420 752 
Q 1681 391 2138 391 
Q 2594 391 2855 752 
Q 3116 1113 3116 1747 
z
M 1159 2969 
Q 1341 3281 1617 3432 
Q 1894 3584 2278 3584 
Q 2916 3584 3314 3078 
Q 3713 2572 3713 1747 
Q 3713 922 3314 415 
Q 2916 -91 2278 -91 
Q 1894 -91 1617 61 
Q 1341 213 1159 525 
L 1159 0 
L 581 0 
L 581 4863 
L 1159 4863 
L 1159 2969 
z
" transform="scale(0.015625)"/>
      <path id="DejaVuSans-63" d="M 3122 3366 
L 3122 2828 
Q 2878 2963 2633 3030 
Q 2388 3097 2138 3097 
Q 1578 3097 1268 2742 
Q 959 2388 959 1747 
Q 959 1106 1268 751 
Q 1578 397 2138 397 
Q 2388 397 2633 464 
Q 2878 531 3122 666 
L 3122 134 
Q 2881 22 2623 -34 
Q 2366 -91 2075 -91 
Q 1284 -91 818 406 
Q 353 903 353 1747 
Q 353 2603 823 3093 
Q 1294 3584 2113 3584 
Q 2378 3584 2631 3529 
Q 2884 3475 3122 3366 
z
" transform="scale(0.015625)"/>
      <path id="DejaVuSans-6b" d="M 581 4863 
L 1159 4863 
L 1159 1991 
L 2875 3500 
L 3609 3500 
L 1753 1863 
L 3688 0 
L 2938 0 
L 1159 1709 
L 1159 0 
L 581 0 
L 581 4863 
z
" transform="scale(0.015625)"/>
      <path id="DejaVuSans-77" d="M 269 3500 
L 844 3500 
L 1563 769 
L 2278 3500 
L 2956 3500 
L 3675 769 
L 4391 3500 
L 4966 3500 
L 4050 0 
L 3372 0 
L 2619 2869 
L 1863 0 
L 1184 0 
L 269 3500 
z
" transform="scale(0.015625)"/>
      <path id="DejaVuSans-64" d="M 2906 2969 
L 2906 4863 
L 3481 4863 
L 3481 0 
L 2906 0 
L 2906 525 
Q 2725 213 2448 61 
Q 2172 -91 1784 -91 
Q 1150 -91 751 415 
Q 353 922 353 1747 
Q 353 2572 751 3078 
Q 1150 3584 1784 3584 
Q 2172 3584 2448 3432 
Q 2725 3281 2906 2969 
z
M 947 1747 
Q 947 1113 1208 752 
Q 1469 391 1925 391 
Q 2381 391 2643 752 
Q 2906 1113 2906 1747 
Q 2906 2381 2643 2742 
Q 2381 3103 1925 3103 
Q 1469 3103 1208 2742 
Q 947 2381 947 1747 
z
" transform="scale(0.015625)"/>
      <path id="DejaVuSans-28" d="M 1984 4856 
Q 1566 4138 1362 3434 
Q 1159 2731 1159 2009 
Q 1159 1288 1364 580 
Q 1569 -128 1984 -844 
L 1484 -844 
Q 1016 -109 783 600 
Q 550 1309 550 2009 
Q 550 2706 781 3412 
Q 1013 4119 1484 4856 
L 1984 4856 
z
" transform="scale(0.015625)"/>
      <path id="DejaVuSans-66" d="M 2375 4863 
L 2375 4384 
L 1825 4384 
Q 1516 4384 1395 4259 
Q 1275 4134 1275 3809 
L 1275 3500 
L 2222 3500 
L 2222 3053 
L 1275 3053 
L 1275 0 
L 697 0 
L 697 3053 
L 147 3053 
L 147 3500 
L 697 3500 
L 697 3744 
Q 697 4328 969 4595 
Q 1241 4863 1831 4863 
L 2375 4863 
z
" transform="scale(0.015625)"/>
      <path id="DejaVuSans-29" d="M 513 4856 
L 1013 4856 
Q 1481 4119 1714 3412 
Q 1947 2706 1947 2009 
Q 1947 1309 1714 600 
Q 1481 -109 1013 -844 
L 513 -844 
Q 928 -128 1133 580 
Q 1338 1288 1338 2009 
Q 1338 2731 1133 3434 
Q 928 4138 513 4856 
z
" transform="scale(0.015625)"/>
     </defs>
     <use xlink:href="#DejaVuSans-70"/>
     <use xlink:href="#DejaVuSans-6f" x="63.476562"/>
     <use xlink:href="#DejaVuSans-69" x="124.658203"/>
     <use xlink:href="#DejaVuSans-6e" x="152.441406"/>
     <use xlink:href="#DejaVuSans-74" x="215.820312"/>
     <use xlink:href="#DejaVuSans-65" x="255.029297"/>
     <use xlink:href="#DejaVuSans-72" x="316.552734"/>
     <use xlink:href="#DejaVuSans-20" x="357.666016"/>
     <use xlink:href="#DejaVuSans-61" x="389.453125"/>
     <use xlink:href="#DejaVuSans-72" x="450.732422"/>
     <use xlink:href="#DejaVuSans-72" x="490.095703"/>
     <use xlink:href="#DejaVuSans-61" x="531.208984"/>
     <use xlink:href="#DejaVuSans-79" x="592.488281"/>
     <use xlink:href="#DejaVuSans-20" x="651.667969"/>
     <use xlink:href="#DejaVuSans-62" x="683.455078"/>
     <use xlink:href="#DejaVuSans-61" x="746.931641"/>
     <use xlink:href="#DejaVuSans-63" x="808.210938"/>
     <use xlink:href="#DejaVuSans-6b" x="863.191406"/>
     <use xlink:href="#DejaVuSans-77" x="921.101562"/>
     <use xlink:href="#DejaVuSans-61" x="1002.888672"/>
     <use xlink:href="#DejaVuSans-72" x="1064.167969"/>
     <use xlink:href="#DejaVuSans-64" x="1103.53125"/>
     <use xlink:href="#DejaVuSans-73" x="1167.007812"/>
     <use xlink:href="#DejaVuSans-20" x="1219.107422"/>
     <use xlink:href="#DejaVuSans-64" x="1250.894531"/>
     <use xlink:href="#DejaVuSans-65" x="1314.371094"/>
     <use xlink:href="#DejaVuSans-74" x="1375.894531"/>
     <use xlink:href="#DejaVuSans-65" x="1415.103516"/>
     <use xlink:href="#DejaVuSans-63" x="1476.626953"/>
     <use xlink:href="#DejaVuSans-74" x="1531.607422"/>
     <use xlink:href="#DejaVuSans-69" x="1570.816406"/>
     <use xlink:href="#DejaVuSans-6f" x="1598.599609"/>
     <use xlink:href="#DejaVuSans-6e" x="1659.78125"/>
     <use xlink:href="#DejaVuSans-20" x="1723.160156"/>
     <use xlink:href="#DejaVuSans-74" x="1754.947266"/>
     <use xlink:href="#DejaVuSans-65" x="1794.15625"/>
     <use xlink:href="#DejaVuSans-73" x="1855.679688"/>
     <use xlink:href="#DejaVuSans-74" x="1907.779297"/>
     <use xlink:href="#DejaVuSans-20" x="1946.988281"/>
     <use xlink:href="#DejaVuSans-28" x="1978.775391"/>
     <use xlink:href="#DejaVuSans-72" x="2017.789062"/>
     <use xlink:href="#DejaVuSans-65" x="2056.652344"/>
     <use xlink:href="#DejaVuSans-66" x="2118.175781"/>
     <use xlink:href="#DejaVuSans-65" x="2153.380859"/>
     <use xlink:href="#DejaVuSans-72" x="2214.904297"/>
     <use xlink:href="#DejaVuSans-65" x="2253.767578"/>
     <use xlink:href="#DejaVuSans-6e" x="2315.291016"/>
     <use xlink:href="#DejaVuSans-63" x="2378.669922"/>
     <use xlink:href="#DejaVuSans-65" x="2433.650391"/>
     <use xlink:href="#DejaVuSans-29" x="2495.173828"/>
    </g>
   </g>
   <g id="legend_1">
    <g id="patch_7">
     <path d="M 64.6 78.82825 
L 166.359375 78.82825 
Q 168.359375 78.82825 168.359375 76.82825 
L 168.359375 48.472 
Q 168.359375 46.472 166.359375 46.472 
L 64.6 46.472 
Q 62.6 46.472 62.6 48.472 
L 62.6 76.82825 
Q 62.6 78.82825 64.6 78.82825 
z
" style="fill: #ffffff; opacity: 0.8; stroke: #cccccc; stroke-linejoin: miter"/>
    </g>
    <g id="line2d_18">
     <path d="M 66.6 54.570437 
L 76.6 54.570437 
L 86.6 54.570437 
" style="fill: none; stroke: #1f77b4; stroke-width: 1.5; stroke-linecap: square"/>
    </g>
    <g id="text_19">
     <!-- measurement -->
     <g transform="translate(94.6 58.070437) scale(0.1 -0.1)">
      <use xlink:href="#DejaVuSans-6d"/>
      <use xlink:href="#DejaVuSans-65" x="97.412109"/>
      <use xlink:href="#DejaVuSans-61" x="158.935547"/>
      <use xlink:href="#DejaVuSans-73" x="220.214844"/>
      <use xlink:href="#DejaVuSans-75" x="272.314453"/>
      <use xlink:href="#DejaVuSans-72" x="335.693359"/>
      <use xlink:href="#DejaVuSans-65" x="374.556641"/>
      <use xlink:href="#DejaVuSans-6d" x="436.080078"/>
      <use xlink:href="#DejaVuSans-65" x="533.492188"/>
      <use xlink:href="#DejaVuSans-6e" x="595.015625"/>
      <use xlink:href="#DejaVuSans-74" x="658.394531"/>
     </g>
    </g>
    <g id="line2d_19">
     <path d="M 66.6 69.248562 
L 76.6 69.248562 
L 86.6 69.248562 
" style="fill: none; stroke: #ff7f0e; stroke-width: 1.5; stroke-linecap: square"/>
    </g>
    <g id="text_20">
     <!-- reference -->
     <g transform="translate(94.6 72.748562) scale(0.1 -0.1)">
      <use xlink:href="#DejaVuSans-72"/>
      <use xlink:href="#DejaVuSans-65" x="38.863281"/>
      <use xlink:href="#DejaVuSans-66" x="100.386719"/>
      <use xlink:href="#DejaVuSans-65" x="135.591797"/>
      <use xlink:href="#DejaVuSans-72" x="197.115234"/>
      <use xlink:href="#DejaVuSans-65" x="235.978516"/>
      <use xlink:href="#DejaVuSans-6e" x="297.501953"/>
      <use xlink:href="#DejaVuSans-63" x="360.880859"/>
      <use xlink:href="#DejaVuSans-65" x="415.861328"/>
     </g>
    </g>
   </g>
  </g>
 </g>
 <defs>
  <clipPath id="p0ad8abb050">
   <rect x="57.6" y="41.472" width="357.12" height="266.112"/>
  </clipPath>
 </defs>
</svg>
