<?xml version="1.0" encoding="utf-8" standalone="no"?>
<!DOCTYPE svg PUBLIC "-//W3C//DTD SVG 1.1//EN"
  "http://www.w3.org/Graphics/SVG/1.1/DTD/svg11.dtd">
<svg xmlns:xlink="http://www.w3.org/1999/xlink" width="460.8pt" height="345.6pt" viewBox="0 0 460.8 345.6" xmlns="http://www.w3.org/2000/svg" version="1.1">
 <metadata>
  <rdf:RDF xmlns:dc="http://purl.org/dc/elements/1.1/" xmlns:cc="http://creativecommons.org/ns#" xmlns:rdf="http://www.w3.org/1999/02/22-rdf-syntax-ns#">
   <cc:Work>
    <dc:type rdf:resource="http://purl.org/dc/dcmitype/StillImage"/>
    <dc:date>2024-10-04T12:08:31.599622</dc:date>
    <dc:format>image/svg+xml</dc:format>
    <dc:creator>
     <cc:Agent>
      <dc:title>Matplotlib v3.8.4, https://matplotlib.org/</dc:title>
     </cc:Agent>
    </dc:creator>
   </cc:Work>
  </rdf:RDF>
 </metadata>
 <defs>
  <style type="text/css">*{stroke-linejoin: round; stroke-linecap: butt}</style>
 </defs>
 <g id="figure_1">
  <g id="patch_1">
   <path d="M 0 345.6 
L 460.8 345.6 
L 460.8 0 
L 0 0 
z
" style="fill: #ffffff"/>
  </g>
  <g id="axes_1">
   <g id="patch_2">
    <path d="M 57.6 307.584 
L 414.72 307.584 
L 414.72 41.472 
L 57.6 41.472 
z
" style="fill: #ffffff"/>
   </g>
   <g id="matplotlib.axis_1">
    <g id="xtick_1">
     <g id="line2d_1">
      <defs>
       <path id="ma0dfc93d7a" d="M 0 0 
L 0 3.5 
" style="stroke: #000000; stroke-width: 0.8"/>
      </defs>
      <g>
       <use xlink:href="#ma0dfc93d7a" x="73.832727" y="307.584" style="stroke: #000000; stroke-width: 0.8"/>
      </g>
     </g>
     <g id="text_1">
      <!-- 0 -->
      <g transform="translate(70.651477 322.182437) scale(0.1 -0.1)">
       <defs>
        <path id="DejaVuSans-30" d="M 2034 4250 
Q 1547 4250 1301 3770 
Q 1056 3291 1056 2328 
Q 1056 1369 1301 889 
Q 1547 409 2034 409 
Q 2525 409 2770 889 
Q 3016 1369 3016 2328 
Q 3016 3291 2770 3770 
Q 2525 4250 2034 4250 
z
M 2034 4750 
Q 2819 4750 3233 4129 
Q 3647 3509 3647 2328 
Q 3647 1150 3233 529 
Q 2819 -91 2034 -91 
Q 1250 -91 836 529 
Q 422 1150 422 2328 
Q 422 3509 836 4129 
Q 1250 4750 2034 4750 
z
" transform="scale(0.015625)"/>
       </defs>
       <use xlink:href="#DejaVuSans-30"/>
      </g>
     </g>
    </g>
    <g id="xtick_2">
     <g id="line2d_2">
      <g>
       <use xlink:href="#ma0dfc93d7a" x="138.776625" y="307.584" style="stroke: #000000; stroke-width: 0.8"/>
      </g>
     </g>
     <g id="text_2">
      <!-- 1000 -->
      <g transform="translate(126.051625 322.182437) scale(0.1 -0.1)">
       <defs>
        <path id="DejaVuSans-31" d="M 794 531 
L 1825 531 
L 1825 4091 
L 703 3866 
L 703 4441 
L 1819 4666 
L 2450 4666 
L 2450 531 
L 3481 531 
L 3481 0 
L 794 0 
L 794 531 
z
" transform="scale(0.015625)"/>
       </defs>
       <use xlink:href="#DejaVuSans-31"/>
       <use xlink:href="#DejaVuSans-30" x="63.623047"/>
       <use xlink:href="#DejaVuSans-30" x="127.246094"/>
       <use xlink:href="#DejaVuSans-30" x="190.869141"/>
      </g>
     </g>
    </g>
    <g id="xtick_3">
     <g id="line2d_3">
      <g>
       <use xlink:href="#ma0dfc93d7a" x="203.720523" y="307.584" style="stroke: #000000; stroke-width: 0.8"/>
      </g>
     </g>
     <g id="text_3">
      <!-- 2000 -->
      <g transform="translate(190.995523 322.182437) scale(0.1 -0.1)">
       <defs>
        <path id="DejaVuSans-32" d="M 1228 531 
L 3431 531 
L 3431 0 
L 469 0 
L 469 531 
Q 828 903 1448 1529 
Q 2069 2156 2228 2338 
Q 2531 2678 2651 2914 
Q 2772 3150 2772 3378 
Q 2772 3750 2511 3984 
Q 2250 4219 1831 4219 
Q 1534 4219 1204 4116 
Q 875 4013 500 3803 
L 500 4441 
Q 881 4594 1212 4672 
Q 1544 4750 1819 4750 
Q 2544 4750 2975 4387 
Q 3406 4025 3406 3419 
Q 3406 3131 3298 2873 
Q 3191 2616 2906 2266 
Q 2828 2175 2409 1742 
Q 1991 1309 1228 531 
z
" transform="scale(0.015625)"/>
       </defs>
       <use xlink:href="#DejaVuSans-32"/>
       <use xlink:href="#DejaVuSans-30" x="63.623047"/>
       <use xlink:href="#DejaVuSans-30" x="127.246094"/>
       <use xlink:href="#DejaVuSans-30" x="190.869141"/>
      </g>
     </g>
    </g>
    <g id="xtick_4">
     <g id="line2d_4">
      <g>
       <use xlink:href="#ma0dfc93d7a" x="268.664421" y="307.584" style="stroke: #000000; stroke-width: 0.8"/>
      </g>
     </g>
     <g id="text_4">
      <!-- 3000 -->
      <g transform="translate(255.939421 322.182437) scale(0.1 -0.1)">
       <defs>
        <path id="DejaVuSans-33" d="M 2597 2516 
Q 3050 2419 3304 2112 
Q 3559 1806 3559 1356 
Q 3559 666 3084 287 
Q 2609 -91 1734 -91 
Q 1441 -91 1130 -33 
Q 819 25 488 141 
L 488 750 
Q 750 597 1062 519 
Q 1375 441 1716 441 
Q 2309 441 2620 675 
Q 2931 909 2931 1356 
Q 2931 1769 2642 2001 
Q 2353 2234 1838 2234 
L 1294 2234 
L 1294 2753 
L 1863 2753 
Q 2328 2753 2575 2939 
Q 2822 3125 2822 3475 
Q 2822 3834 2567 4026 
Q 2313 4219 1838 4219 
Q 1578 4219 1281 4162 
Q 984 4106 628 3988 
L 628 4550 
Q 988 4650 1302 4700 
Q 1616 4750 1894 4750 
Q 2613 4750 3031 4423 
Q 3450 4097 3450 3541 
Q 3450 3153 3228 2886 
Q 3006 2619 2597 2516 
z
" transform="scale(0.015625)"/>
       </defs>
       <use xlink:href="#DejaVuSans-33"/>
       <use xlink:href="#DejaVuSans-30" x="63.623047"/>
       <use xlink:href="#DejaVuSans-30" x="127.246094"/>
       <use xlink:href="#DejaVuSans-30" x="190.869141"/>
      </g>
     </g>
    </g>
    <g id="xtick_5">
     <g id="line2d_5">
      <g>
       <use xlink:href="#ma0dfc93d7a" x="333.608319" y="307.584" style="stroke: #000000; stroke-width: 0.8"/>
      </g>
     </g>
     <g id="text_5">
      <!-- 4000 -->
      <g transform="translate(320.883319 322.182437) scale(0.1 -0.1)">
       <defs>
        <path id="DejaVuSans-34" d="M 2419 4116 
L 825 1625 
L 2419 1625 
L 2419 4116 
z
M 2253 4666 
L 3047 4666 
L 3047 1625 
L 3713 1625 
L 3713 1100 
L 3047 1100 
L 3047 0 
L 2419 0 
L 2419 1100 
L 313 1100 
L 313 1709 
L 2253 4666 
z
" transform="scale(0.015625)"/>
       </defs>
       <use xlink:href="#DejaVuSans-34"/>
       <use xlink:href="#DejaVuSans-30" x="63.623047"/>
       <use xlink:href="#DejaVuSans-30" x="127.246094"/>
       <use xlink:href="#DejaVuSans-30" x="190.869141"/>
      </g>
     </g>
    </g>
    <g id="xtick_6">
     <g id="line2d_6">
      <g>
       <use xlink:href="#ma0dfc93d7a" x="398.552217" y="307.584" style="stroke: #000000; stroke-width: 0.8"/>
      </g>
     </g>
     <g id="text_6">
      <!-- 5000 -->
      <g transform="translate(385.827217 322.182437) scale(0.1 -0.1)">
       <defs>
        <path id="DejaVuSans-35" d="M 691 4666 
L 3169 4666 
L 3169 4134 
L 1269 4134 
L 1269 2991 
Q 1406 3038 1543 3061 
Q 1681 3084 1819 3084 
Q 2600 3084 3056 2656 
Q 3513 2228 3513 1497 
Q 3513 744 3044 326 
Q 2575 -91 1722 -91 
Q 1428 -91 1123 -41 
Q 819 9 494 109 
L 494 744 
Q 775 591 1075 516 
Q 1375 441 1709 441 
Q 2250 441 2565 725 
Q 2881 1009 2881 1497 
Q 2881 1984 2565 2268 
Q 2250 2553 1709 2553 
Q 1456 2553 1204 2497 
Q 953 2441 691 2322 
L 691 4666 
z
" transform="scale(0.015625)"/>
       </defs>
       <use xlink:href="#DejaVuSans-35"/>
       <use xlink:href="#DejaVuSans-30" x="63.623047"/>
       <use xlink:href="#DejaVuSans-30" x="127.246094"/>
       <use xlink:href="#DejaVuSans-30" x="190.869141"/>
      </g>
     </g>
    </g>
    <g id="text_7">
     <!-- measurement # -->
     <g transform="translate(195.501406 335.860562) scale(0.1 -0.1)">
      <defs>
       <path id="DejaVuSans-6d" d="M 3328 2828 
Q 3544 3216 3844 3400 
Q 4144 3584 4550 3584 
Q 5097 3584 5394 3201 
Q 5691 2819 5691 2113 
L 5691 0 
L 5113 0 
L 5113 2094 
Q 5113 2597 4934 2840 
Q 4756 3084 4391 3084 
Q 3944 3084 3684 2787 
Q 3425 2491 3425 1978 
L 3425 0 
L 2847 0 
L 2847 2094 
Q 2847 2600 2669 2842 
Q 2491 3084 2119 3084 
Q 1678 3084 1418 2786 
Q 1159 2488 1159 1978 
L 1159 0 
L 581 0 
L 581 3500 
L 1159 3500 
L 1159 2956 
Q 1356 3278 1631 3431 
Q 1906 3584 2284 3584 
Q 2666 3584 2933 3390 
Q 3200 3197 3328 2828 
z
" transform="scale(0.015625)"/>
       <path id="DejaVuSans-65" d="M 3597 1894 
L 3597 1613 
L 953 1613 
Q 991 1019 1311 708 
Q 1631 397 2203 397 
Q 2534 397 2845 478 
Q 3156 559 3463 722 
L 3463 178 
Q 3153 47 2828 -22 
Q 2503 -91 2169 -91 
Q 1331 -91 842 396 
Q 353 884 353 1716 
Q 353 2575 817 3079 
Q 1281 3584 2069 3584 
Q 2775 3584 3186 3129 
Q 3597 2675 3597 1894 
z
M 3022 2063 
Q 3016 2534 2758 2815 
Q 2500 3097 2075 3097 
Q 1594 3097 1305 2825 
Q 1016 2553 972 2059 
L 3022 2063 
z
" transform="scale(0.015625)"/>
       <path id="DejaVuSans-61" d="M 2194 1759 
Q 1497 1759 1228 1600 
Q 959 1441 959 1056 
Q 959 750 1161 570 
Q 1363 391 1709 391 
Q 2188 391 2477 730 
Q 2766 1069 2766 1631 
L 2766 1759 
L 2194 1759 
z
M 3341 1997 
L 3341 0 
L 2766 0 
L 2766 531 
Q 2569 213 2275 61 
Q 1981 -91 1556 -91 
Q 1019 -91 701 211 
Q 384 513 384 1019 
Q 384 1609 779 1909 
Q 1175 2209 1959 2209 
L 2766 2209 
L 2766 2266 
Q 2766 2663 2505 2880 
Q 2244 3097 1772 3097 
Q 1472 3097 1187 3025 
Q 903 2953 641 2809 
L 641 3341 
Q 956 3463 1253 3523 
Q 1550 3584 1831 3584 
Q 2591 3584 2966 3190 
Q 3341 2797 3341 1997 
z
" transform="scale(0.015625)"/>
       <path id="DejaVuSans-73" d="M 2834 3397 
L 2834 2853 
Q 2591 2978 2328 3040 
Q 2066 3103 1784 3103 
Q 1356 3103 1142 2972 
Q 928 2841 928 2578 
Q 928 2378 1081 2264 
Q 1234 2150 1697 2047 
L 1894 2003 
Q 2506 1872 2764 1633 
Q 3022 1394 3022 966 
Q 3022 478 2636 193 
Q 2250 -91 1575 -91 
Q 1294 -91 989 -36 
Q 684 19 347 128 
L 347 722 
Q 666 556 975 473 
Q 1284 391 1588 391 
Q 1994 391 2212 530 
Q 2431 669 2431 922 
Q 2431 1156 2273 1281 
Q 2116 1406 1581 1522 
L 1381 1569 
Q 847 1681 609 1914 
Q 372 2147 372 2553 
Q 372 3047 722 3315 
Q 1072 3584 1716 3584 
Q 2034 3584 2315 3537 
Q 2597 3491 2834 3397 
z
" transform="scale(0.015625)"/>
       <path id="DejaVuSans-75" d="M 544 1381 
L 544 3500 
L 1119 3500 
L 1119 1403 
Q 1119 906 1312 657 
Q 1506 409 1894 409 
Q 2359 409 2629 706 
Q 2900 1003 2900 1516 
L 2900 3500 
L 3475 3500 
L 3475 0 
L 2900 0 
L 2900 538 
Q 2691 219 2414 64 
Q 2138 -91 1772 -91 
Q 1169 -91 856 284 
Q 544 659 544 1381 
z
M 1991 3584 
L 1991 3584 
z
" transform="scale(0.015625)"/>
       <path id="DejaVuSans-72" d="M 2631 2963 
Q 2534 3019 2420 3045 
Q 2306 3072 2169 3072 
Q 1681 3072 1420 2755 
Q 1159 2438 1159 1844 
L 1159 0 
L 581 0 
L 581 3500 
L 1159 3500 
L 1159 2956 
Q 1341 3275 1631 3429 
Q 1922 3584 2338 3584 
Q 2397 3584 2469 3576 
Q 2541 3569 2628 3553 
L 2631 2963 
z
" transform="scale(0.015625)"/>
       <path id="DejaVuSans-6e" d="M 3513 2113 
L 3513 0 
L 2938 0 
L 2938 2094 
Q 2938 2591 2744 2837 
Q 2550 3084 2163 3084 
Q 1697 3084 1428 2787 
Q 1159 2491 1159 1978 
L 1159 0 
L 581 0 
L 581 3500 
L 1159 3500 
L 1159 2956 
Q 1366 3272 1645 3428 
Q 1925 3584 2291 3584 
Q 2894 3584 3203 3211 
Q 3513 2838 3513 2113 
z
" transform="scale(0.015625)"/>
       <path id="DejaVuSans-74" d="M 1172 4494 
L 1172 3500 
L 2356 3500 
L 2356 3053 
L 1172 3053 
L 1172 1153 
Q 1172 725 1289 603 
Q 1406 481 1766 481 
L 2356 481 
L 2356 0 
L 1766 0 
Q 1100 0 847 248 
Q 594 497 594 1153 
L 594 3053 
L 172 3053 
L 172 3500 
L 594 3500 
L 594 4494 
L 1172 4494 
z
" transform="scale(0.015625)"/>
       <path id="DejaVuSans-20" transform="scale(0.015625)"/>
       <path id="DejaVuSans-23" d="M 3272 2816 
L 2363 2816 
L 2100 1772 
L 3016 1772 
L 3272 2816 
z
M 2803 4594 
L 2478 3297 
L 3391 3297 
L 3719 4594 
L 4219 4594 
L 3897 3297 
L 4872 3297 
L 4872 2816 
L 3775 2816 
L 3519 1772 
L 4513 1772 
L 4513 1294 
L 3397 1294 
L 3072 0 
L 2572 0 
L 2894 1294 
L 1978 1294 
L 1656 0 
L 1153 0 
L 1478 1294 
L 494 1294 
L 494 1772 
L 1594 1772 
L 1856 2816 
L 850 2816 
L 850 3297 
L 1978 3297 
L 2297 4594 
L 2803 4594 
z
" transform="scale(0.015625)"/>
      </defs>
      <use xlink:href="#DejaVuSans-6d"/>
      <use xlink:href="#DejaVuSans-65" x="97.412109"/>
      <use xlink:href="#DejaVuSans-61" x="158.935547"/>
      <use xlink:href="#DejaVuSans-73" x="220.214844"/>
      <use xlink:href="#DejaVuSans-75" x="272.314453"/>
      <use xlink:href="#DejaVuSans-72" x="335.693359"/>
      <use xlink:href="#DejaVuSans-65" x="374.556641"/>
      <use xlink:href="#DejaVuSans-6d" x="436.080078"/>
      <use xlink:href="#DejaVuSans-65" x="533.492188"/>
      <use xlink:href="#DejaVuSans-6e" x="595.015625"/>
      <use xlink:href="#DejaVuSans-74" x="658.394531"/>
      <use xlink:href="#DejaVuSans-20" x="697.603516"/>
      <use xlink:href="#DejaVuSans-23" x="729.390625"/>
     </g>
    </g>
   </g>
   <g id="matplotlib.axis_2">
    <g id="ytick_1">
     <g id="line2d_7">
      <defs>
       <path id="m58c8f4878f" d="M 0 0 
L -3.5 0 
" style="stroke: #000000; stroke-width: 0.8"/>
      </defs>
      <g>
       <use xlink:href="#m58c8f4878f" x="57.6" y="306.820042" style="stroke: #000000; stroke-width: 0.8"/>
      </g>
     </g>
     <g id="text_8">
      <!-- 0 -->
      <g transform="translate(44.2375 310.619261) scale(0.1 -0.1)">
       <use xlink:href="#DejaVuSans-30"/>
      </g>
     </g>
    </g>
    <g id="ytick_2">
     <g id="line2d_8">
      <g>
       <use xlink:href="#m58c8f4878f" x="57.6" y="274.988463" style="stroke: #000000; stroke-width: 0.8"/>
      </g>
     </g>
     <g id="text_9">
      <!-- 250 -->
      <g transform="translate(31.5125 278.787682) scale(0.1 -0.1)">
       <use xlink:href="#DejaVuSans-32"/>
       <use xlink:href="#DejaVuSans-35" x="63.623047"/>
       <use xlink:href="#DejaVuSans-30" x="127.246094"/>
      </g>
     </g>
    </g>
    <g id="ytick_3">
     <g id="line2d_9">
      <g>
       <use xlink:href="#m58c8f4878f" x="57.6" y="243.156884" style="stroke: #000000; stroke-width: 0.8"/>
      </g>
     </g>
     <g id="text_10">
      <!-- 500 -->
      <g transform="translate(31.5125 246.956103) scale(0.1 -0.1)">
       <use xlink:href="#DejaVuSans-35"/>
       <use xlink:href="#DejaVuSans-30" x="63.623047"/>
       <use xlink:href="#DejaVuSans-30" x="127.246094"/>
      </g>
     </g>
    </g>
    <g id="ytick_4">
     <g id="line2d_10">
      <g>
       <use xlink:href="#m58c8f4878f" x="57.6" y="211.325305" style="stroke: #000000; stroke-width: 0.8"/>
      </g>
     </g>
     <g id="text_11">
      <!-- 750 -->
      <g transform="translate(31.5125 215.124524) scale(0.1 -0.1)">
       <defs>
        <path id="DejaVuSans-37" d="M 525 4666 
L 3525 4666 
L 3525 4397 
L 1831 0 
L 1172 0 
L 2766 4134 
L 525 4134 
L 525 4666 
z
" transform="scale(0.015625)"/>
       </defs>
       <use xlink:href="#DejaVuSans-37"/>
       <use xlink:href="#DejaVuSans-35" x="63.623047"/>
       <use xlink:href="#DejaVuSans-30" x="127.246094"/>
      </g>
     </g>
    </g>
    <g id="ytick_5">
     <g id="line2d_11">
      <g>
       <use xlink:href="#m58c8f4878f" x="57.6" y="179.493726" style="stroke: #000000; stroke-width: 0.8"/>
      </g>
     </g>
     <g id="text_12">
      <!-- 1000 -->
      <g transform="translate(25.15 183.292945) scale(0.1 -0.1)">
       <use xlink:href="#DejaVuSans-31"/>
       <use xlink:href="#DejaVuSans-30" x="63.623047"/>
       <use xlink:href="#DejaVuSans-30" x="127.246094"/>
       <use xlink:href="#DejaVuSans-30" x="190.869141"/>
      </g>
     </g>
    </g>
    <g id="ytick_6">
     <g id="line2d_12">
      <g>
       <use xlink:href="#m58c8f4878f" x="57.6" y="147.662147" style="stroke: #000000; stroke-width: 0.8"/>
      </g>
     </g>
     <g id="text_13">
      <!-- 1250 -->
      <g transform="translate(25.15 151.461366) scale(0.1 -0.1)">
       <use xlink:href="#DejaVuSans-31"/>
       <use xlink:href="#DejaVuSans-32" x="63.623047"/>
       <use xlink:href="#DejaVuSans-35" x="127.246094"/>
       <use xlink:href="#DejaVuSans-30" x="190.869141"/>
      </g>
     </g>
    </g>
    <g id="ytick_7">
     <g id="line2d_13">
      <g>
       <use xlink:href="#m58c8f4878f" x="57.6" y="115.830568" style="stroke: #000000; stroke-width: 0.8"/>
      </g>
     </g>
     <g id="text_14">
      <!-- 1500 -->
      <g transform="translate(25.15 119.629787) scale(0.1 -0.1)">
       <use xlink:href="#DejaVuSans-31"/>
       <use xlink:href="#DejaVuSans-35" x="63.623047"/>
       <use xlink:href="#DejaVuSans-30" x="127.246094"/>
       <use xlink:href="#DejaVuSans-30" x="190.869141"/>
      </g>
     </g>
    </g>
    <g id="ytick_8">
     <g id="line2d_14">
      <g>
       <use xlink:href="#m58c8f4878f" x="57.6" y="83.998989" style="stroke: #000000; stroke-width: 0.8"/>
      </g>
     </g>
     <g id="text_15">
      <!-- 1750 -->
      <g transform="translate(25.15 87.798208) scale(0.1 -0.1)">
       <use xlink:href="#DejaVuSans-31"/>
       <use xlink:href="#DejaVuSans-37" x="63.623047"/>
       <use xlink:href="#DejaVuSans-35" x="127.246094"/>
       <use xlink:href="#DejaVuSans-30" x="190.869141"/>
      </g>
     </g>
    </g>
    <g id="ytick_9">
     <g id="line2d_15">
      <g>
       <use xlink:href="#m58c8f4878f" x="57.6" y="52.167411" style="stroke: #000000; stroke-width: 0.8"/>
      </g>
     </g>
     <g id="text_16">
      <!-- 2000 -->
      <g transform="translate(25.15 55.966629) scale(0.1 -0.1)">
       <use xlink:href="#DejaVuSans-32"/>
       <use xlink:href="#DejaVuSans-30" x="63.623047"/>
       <use xlink:href="#DejaVuSans-30" x="127.246094"/>
       <use xlink:href="#DejaVuSans-30" x="190.869141"/>
      </g>
     </g>
    </g>
    <g id="text_17">
     <!-- time -->
     <g transform="translate(19.070312 185.824094) rotate(-90) scale(0.1 -0.1)">
      <defs>
       <path id="DejaVuSans-69" d="M 603 3500 
L 1178 3500 
L 1178 0 
L 603 0 
L 603 3500 
z
M 603 4863 
L 1178 4863 
L 1178 4134 
L 603 4134 
L 603 4863 
z
" transform="scale(0.015625)"/>
      </defs>
      <use xlink:href="#DejaVuSans-74"/>
      <use xlink:href="#DejaVuSans-69" x="39.208984"/>
      <use xlink:href="#DejaVuSans-6d" x="66.992188"/>
      <use xlink:href="#DejaVuSans-65" x="164.404297"/>
     </g>
    </g>
   </g>
   <g id="line2d_16">
    <path d="M 73.832727 295.488 
L 74.027559 295.488 
L 74.157447 293.832758 
L 79.54779 293.832758 
L 79.807566 293.0688 
L 83.119705 293.0688 
L 83.314536 291.668211 
L 83.444424 279.954189 
L 83.509368 279.826863 
L 83.834088 278.5536 
L 83.899031 278.426274 
L 84.028919 277.789642 
L 84.093863 277.789642 
L 84.288695 262.765137 
L 84.483527 262.128505 
L 84.678358 262.128505 
L 85.068022 260.982568 
L 85.132966 260.982568 
L 85.262853 260.218611 
L 85.327797 260.218611 
L 85.782404 257.162779 
L 85.977236 254.870905 
L 86.561731 254.870905 
L 86.691619 254.743579 
L 91.627355 254.743579 
L 91.757243 254.616253 
L 99.355679 254.616253 
L 99.485567 254.488926 
L 109.097264 254.488926 
L 109.227152 254.3616 
L 117.215251 254.3616 
L 117.345139 254.234274 
L 124.943575 254.234274 
L 125.073463 254.106947 
L 135.204711 254.106947 
L 135.334599 253.979621 
L 150.011919 253.979621 
L 150.141807 253.852295 
L 165.598455 253.852295 
L 165.728343 253.724968 
L 181.249934 253.724968 
L 181.379822 253.597642 
L 193.00478 253.597642 
L 193.134668 253.470316 
L 204.110186 253.470316 
L 204.240074 253.342989 
L 218.527732 253.342989 
L 218.65762 253.215663 
L 231.256736 253.215663 
L 231.386624 253.088337 
L 245.349562 253.088337 
L 245.479449 252.961011 
L 256.519912 252.961011 
L 256.6498 252.833684 
L 264.508011 252.833684 
L 264.637899 252.706358 
L 271.781728 252.706358 
L 271.911616 252.579032 
L 281.588257 252.579032 
L 281.718144 252.451705 
L 290.420627 252.451705 
L 290.550514 252.324379 
L 298.928277 252.324379 
L 299.058165 252.197053 
L 305.097948 252.197053 
L 305.227835 252.069726 
L 310.228516 252.069726 
L 310.358403 251.9424 
L 315.034364 251.9424 
L 315.164252 251.815074 
L 320.035044 251.815074 
L 320.164932 251.687747 
L 325.555275 251.687747 
L 325.685163 251.560421 
L 330.750787 251.560421 
L 330.880675 251.433095 
L 333.80315 251.433095 
L 333.933038 251.305768 
L 336.660682 251.305768 
L 336.79057 251.178442 
L 339.12855 251.178442 
L 339.258438 251.051116 
L 342.310801 251.051116 
L 342.440689 250.923789 
L 344.908557 250.923789 
L 345.038445 250.796463 
L 346.986762 250.796463 
L 347.11665 250.669137 
L 349.45463 250.669137 
L 349.584518 250.541811 
L 351.143171 250.541811 
L 351.273059 250.414484 
L 352.377105 250.414484 
L 352.506993 250.287158 
L 353.221376 250.287158 
L 353.351264 250.159832 
L 354.780029 250.159832 
L 354.909917 250.032505 
L 355.884076 250.032505 
L 356.013964 249.905179 
L 356.663402 249.905179 
L 356.79329 249.777853 
L 357.182954 249.777853 
L 357.312841 249.650526 
L 358.287 249.650526 
L 358.416888 249.5232 
L 358.741607 249.5232 
L 358.871495 249.395874 
L 359.391046 249.395874 
L 359.520934 249.268547 
L 359.910597 249.268547 
L 360.040485 249.141221 
L 360.235317 249.141221 
L 360.365205 249.013895 
L 360.884756 249.013895 
L 361.014644 248.886568 
L 361.274419 248.886568 
L 361.404307 248.759242 
L 361.664083 248.759242 
L 361.79397 248.631916 
L 362.053746 248.631916 
L 362.183634 248.504589 
L 363.027904 248.504589 
L 363.157792 248.377263 
L 363.28768 248.377263 
L 363.417568 248.249937 
L 363.677343 248.249937 
L 363.807231 248.122611 
L 364.131951 248.122611 
L 364.261839 247.995284 
L 364.521614 247.995284 
L 364.651502 247.867958 
L 365.041165 247.867958 
L 365.171053 247.740632 
L 365.365885 247.740632 
L 365.495773 247.613305 
L 365.560717 247.613305 
L 365.690604 247.485979 
L 366.080268 247.485979 
L 366.210155 247.358653 
L 366.664763 247.358653 
L 366.794651 247.231326 
L 367.054426 247.231326 
L 367.184314 247.104 
L 367.249258 247.104 
L 367.379146 246.976674 
L 367.573977 246.976674 
L 367.703865 246.849347 
L 368.093529 246.849347 
L 368.223416 246.722021 
L 368.418248 246.722021 
L 368.548136 246.594695 
L 369.002743 246.594695 
L 369.197575 246.340042 
L 369.392406 246.340042 
L 369.522294 246.212716 
L 370.106789 246.212716 
L 370.236677 246.085389 
L 370.496453 246.085389 
L 370.626341 245.958063 
L 370.886116 245.958063 
L 371.016004 245.830737 
L 371.080948 245.830737 
L 371.27578 245.576084 
L 371.600499 245.576084 
L 371.795331 245.321432 
L 371.860275 245.321432 
L 372.12005 244.939453 
L 372.184994 244.939453 
L 372.379826 244.6848 
L 372.509714 244.6848 
L 372.769489 244.302821 
L 372.899377 244.302821 
L 373.029265 244.175495 
L 373.159153 244.175495 
L 373.418928 243.793516 
L 373.483872 243.793516 
L 373.743648 243.411537 
L 373.873535 243.411537 
L 374.263199 242.774905 
L 374.393087 242.774905 
L 374.847694 241.756295 
L 375.042526 241.374316 
L 375.172413 241.374316 
L 375.497133 240.737684 
L 375.627021 240.228379 
L 375.691965 240.228379 
L 376.016684 239.719074 
L 376.081628 239.719074 
L 376.146572 239.591747 
L 376.406347 238.700463 
L 376.601179 238.700463 
L 376.731067 238.573137 
L 376.796011 238.573137 
L 377.055786 238.191158 
L 377.315562 238.191158 
L 377.44545 238.063832 
L 377.510394 238.063832 
L 377.640282 237.936505 
L 377.705225 237.936505 
L 377.900057 237.554526 
L 377.965001 237.554526 
L 378.094889 237.4272 
L 378.159833 237.4272 
L 378.28972 237.299874 
L 378.419608 237.299874 
L 378.61444 237.045221 
L 378.679384 237.045221 
L 378.809272 236.917895 
L 378.874216 236.917895 
L 379.004103 236.790568 
L 379.263879 236.790568 
L 379.393767 236.663242 
L 379.523655 236.663242 
L 379.718486 236.408589 
L 379.78343 236.408589 
L 379.913318 236.281263 
L 380.10815 236.281263 
L 380.238037 236.153937 
L 380.367925 236.153937 
L 380.497813 236.026611 
L 380.627701 236.026611 
L 380.822533 235.771958 
L 380.95242 235.771958 
L 381.147252 235.517305 
L 381.536915 235.517305 
L 381.796691 235.135326 
L 381.861635 235.135326 
L 381.991523 235.008 
L 382.056467 235.008 
L 382.316242 234.626021 
L 382.640962 234.626021 
L 382.835793 234.371368 
L 382.900737 234.371368 
L 383.095569 234.116716 
L 383.160513 234.116716 
L 383.61512 233.352758 
L 383.745008 233.352758 
L 383.93984 232.970779 
L 384.004784 232.970779 
L 384.134671 232.843453 
L 384.264559 232.843453 
L 384.394447 232.716126 
L 384.459391 232.716126 
L 384.719166 232.079495 
L 384.913998 231.824842 
L 384.978942 231.824842 
L 385.10883 231.442863 
L 385.173774 231.442863 
L 385.498493 230.933558 
L 385.628381 230.933558 
L 385.823213 230.678905 
L 385.888157 230.678905 
L 386.018044 230.424253 
L 386.212876 229.787621 
L 386.407708 229.532968 
L 386.472652 229.532968 
L 386.667483 229.278316 
L 386.732427 229.278316 
L 386.992203 228.896337 
L 387.057147 228.896337 
L 387.576698 227.877726 
L 387.706586 227.495747 
L 387.77153 227.495747 
L 388.096249 226.604463 
L 388.161193 226.604463 
L 388.420969 225.967832 
L 388.680744 225.076547 
L 388.810632 225.076547 
L 389.135351 224.312589 
L 389.330183 223.803284 
L 389.460071 223.803284 
L 389.719847 223.421305 
L 389.78479 223.421305 
L 391.408388 220.110821 
L 391.60322 218.710232 
L 392.382546 215.909053 
L 392.44749 215.909053 
L 392.577378 215.6544 
L 392.77221 214.508463 
L 392.967041 214.253811 
L 393.031985 214.253811 
L 393.291761 213.489853 
L 393.356705 213.489853 
L 393.9412 212.216589 
L 394.330863 210.943326 
L 394.460751 210.943326 
L 394.590639 210.561347 
L 394.785471 209.415411 
L 394.850414 209.415411 
L 394.980302 209.288084 
L 395.11019 208.524126 
L 395.305022 208.014821 
L 396.27918 201.648505 
L 396.863675 193.626947 
L 397.188395 189.297853 
L 397.253339 188.788547 
L 397.578058 173.127411 
L 397.643002 173.000084 
L 398.292441 138.876632 
L 398.422329 109.464253 
L 398.487273 56.751158 
L 398.487273 56.751158 
" clip-path="url(#p5b0062428f)" style="fill: none; stroke: #1f77b4; stroke-width: 1.5; stroke-linecap: square"/>
   </g>
   <g id="line2d_17">
    <path d="M 73.832727 295.488 
L 73.897671 295.488 
L 74.027559 293.832758 
L 79.093183 293.832758 
L 79.223071 293.705432 
L 79.352959 293.0688 
L 83.899031 293.0688 
L 83.963975 292.814147 
L 84.093863 292.050189 
L 84.223751 279.826863 
L 84.613414 278.680926 
L 84.678358 278.5536 
L 84.808246 278.044295 
L 84.87319 278.044295 
L 84.938134 277.534989 
L 85.197909 264.293053 
L 85.652517 262.128505 
L 85.717461 262.128505 
L 85.977236 261.491874 
L 86.496787 259.581979 
L 86.756563 254.870905 
L 87.665778 254.870905 
L 87.795665 254.743579 
L 92.341738 254.743579 
L 92.471626 254.616253 
L 99.87523 254.616253 
L 100.005118 254.488926 
L 110.720861 254.488926 
L 110.850749 254.3616 
L 118.449185 254.3616 
L 118.579073 254.234274 
L 126.956836 254.234274 
L 127.086724 254.106947 
L 135.399542 254.106947 
L 135.52943 253.979621 
L 151.440685 253.979621 
L 151.570573 253.852295 
L 166.962277 253.852295 
L 167.092165 253.724968 
L 181.574654 253.724968 
L 181.704542 253.597642 
L 191.83579 253.597642 
L 191.965677 253.470316 
L 202.551533 253.470316 
L 202.681421 253.342989 
L 215.540312 253.342989 
L 215.6702 253.215663 
L 230.152689 253.215663 
L 230.282577 253.088337 
L 243.271357 253.088337 
L 243.401245 252.961011 
L 254.896315 252.961011 
L 255.026202 252.833684 
L 263.014302 252.833684 
L 263.14419 252.706358 
L 269.898355 252.706358 
L 270.028243 252.579032 
L 277.366903 252.579032 
L 277.496791 252.451705 
L 287.108488 252.451705 
L 287.238376 252.324379 
L 295.096587 252.324379 
L 295.226475 252.197053 
L 301.201314 252.197053 
L 301.331202 252.069726 
L 305.942218 252.069726 
L 306.072106 251.9424 
L 311.852113 251.9424 
L 311.982001 251.815074 
L 317.112569 251.815074 
L 317.242456 251.687747 
L 323.671902 251.687747 
L 323.80179 251.560421 
L 328.80247 251.560421 
L 328.932358 251.433095 
L 332.049665 251.433095 
L 332.179553 251.305768 
L 334.647421 251.305768 
L 334.777309 251.178442 
L 337.440009 251.178442 
L 337.569897 251.051116 
L 341.921138 251.051116 
L 342.051025 250.923789 
L 344.259118 250.923789 
L 344.389006 250.796463 
L 346.79193 250.796463 
L 346.921818 250.669137 
L 348.545415 250.669137 
L 348.675303 250.541811 
L 349.844293 250.541811 
L 349.974181 250.414484 
L 351.143171 250.414484 
L 351.273059 250.287158 
L 352.182274 250.287158 
L 352.312161 250.159832 
L 353.546095 250.159832 
L 353.675983 250.032505 
L 354.260478 250.032505 
L 354.390366 249.905179 
L 354.974861 249.905179 
L 355.104749 249.777853 
L 355.689244 249.777853 
L 355.819132 249.650526 
L 356.208795 249.650526 
L 356.338683 249.5232 
L 356.79329 249.5232 
L 356.923178 249.395874 
L 357.572617 249.395874 
L 357.702505 249.268547 
L 357.96228 249.268547 
L 358.092168 249.141221 
L 358.351944 249.141221 
L 358.481832 249.013895 
L 358.806551 249.013895 
L 358.936439 248.886568 
L 359.261158 248.886568 
L 359.391046 248.759242 
L 359.45599 248.759242 
L 359.585878 248.631916 
L 360.040485 248.631916 
L 360.170373 248.504589 
L 360.235317 248.504589 
L 360.365205 248.377263 
L 360.689924 248.377263 
L 360.819812 248.249937 
L 360.884756 248.249937 
L 361.014644 248.122611 
L 361.404307 248.122611 
L 361.534195 247.995284 
L 362.183634 247.995284 
L 362.313522 247.867958 
L 362.443409 247.867958 
L 362.573297 247.740632 
L 363.027904 247.740632 
L 363.157792 247.613305 
L 363.482512 247.613305 
L 363.6124 247.485979 
L 363.872175 247.485979 
L 364.002063 247.358653 
L 364.196895 247.358653 
L 364.326782 247.231326 
L 364.716446 247.231326 
L 364.846334 247.104 
L 365.106109 247.104 
L 365.235997 246.976674 
L 365.300941 246.976674 
L 365.495773 246.722021 
L 366.210155 246.722021 
L 366.340043 246.594695 
L 366.599819 246.594695 
L 366.729707 246.467368 
L 366.859594 246.467368 
L 366.989482 246.340042 
L 367.054426 246.340042 
L 367.184314 246.212716 
L 367.509033 246.212716 
L 367.638921 246.085389 
L 367.703865 246.085389 
L 367.833753 245.958063 
L 367.963641 245.958063 
L 368.093529 245.830737 
L 368.61308 245.830737 
L 368.742968 245.703411 
L 368.937799 245.703411 
L 369.067687 245.576084 
L 369.262519 245.576084 
L 369.392406 245.448758 
L 369.522294 245.448758 
L 369.652182 245.321432 
L 369.78207 245.321432 
L 369.911958 245.194105 
L 370.106789 245.194105 
L 370.236677 245.066779 
L 370.431509 245.066779 
L 370.561397 244.939453 
L 370.626341 244.939453 
L 370.756228 244.812126 
L 370.886116 244.812126 
L 371.016004 244.6848 
L 371.145892 244.6848 
L 371.405667 244.302821 
L 371.470611 244.302821 
L 371.730387 243.920842 
L 371.795331 243.920842 
L 371.990162 243.666189 
L 372.184994 243.666189 
L 372.314882 243.538863 
L 372.379826 243.538863 
L 372.704545 243.029558 
L 372.834433 243.029558 
L 373.094209 242.520253 
L 373.224096 242.138274 
L 373.28904 242.138274 
L 373.418928 241.883621 
L 373.548816 241.501642 
L 373.61376 241.501642 
L 373.808592 241.119663 
L 373.873535 241.119663 
L 374.198255 240.610358 
L 374.263199 240.610358 
L 374.717806 239.8464 
L 374.78275 239.8464 
L 374.977582 239.464421 
L 375.107469 239.464421 
L 375.432189 238.955116 
L 375.497133 238.955116 
L 375.691965 238.700463 
L 375.756908 238.700463 
L 375.886796 238.573137 
L 375.95174 238.573137 
L 376.146572 238.318484 
L 376.211516 238.318484 
L 376.406347 237.936505 
L 376.536235 237.809179 
L 376.601179 237.809179 
L 376.796011 237.554526 
L 376.925899 237.554526 
L 377.12073 237.299874 
L 377.185674 237.299874 
L 377.510394 236.790568 
L 377.835113 236.790568 
L 377.965001 236.663242 
L 378.029945 236.663242 
L 378.224777 236.408589 
L 378.28972 236.408589 
L 378.419608 236.281263 
L 378.61444 236.281263 
L 378.744328 236.153937 
L 378.809272 236.153937 
L 378.939159 236.026611 
L 379.069047 236.026611 
L 379.263879 235.771958 
L 379.328823 235.771958 
L 379.458711 235.644632 
L 379.523655 235.644632 
L 379.718486 235.389979 
L 379.848374 235.389979 
L 379.978262 235.262653 
L 380.043206 235.262653 
L 380.238037 235.008 
L 380.432869 235.008 
L 380.627701 234.753347 
L 380.692645 234.753347 
L 380.95242 234.371368 
L 381.017364 234.371368 
L 381.212196 234.116716 
L 381.342084 234.116716 
L 381.471971 233.989389 
L 381.536915 233.989389 
L 381.666803 233.862063 
L 381.731747 233.862063 
L 382.056467 233.352758 
L 382.251298 233.352758 
L 382.381186 233.225432 
L 382.44613 233.225432 
L 382.835793 232.5888 
L 382.965681 232.5888 
L 383.095569 232.461474 
L 383.225457 232.461474 
L 383.355345 232.079495 
L 383.420288 232.079495 
L 383.61512 231.697516 
L 383.680064 231.697516 
L 383.745008 231.570189 
L 383.93984 231.060884 
L 384.069727 230.933558 
L 384.264559 230.933558 
L 385.10883 229.405642 
L 385.238718 228.896337 
L 385.433549 228.641684 
L 385.563437 228.641684 
L 385.9531 227.495747 
L 386.082988 227.241095 
L 386.342764 226.349811 
L 386.407708 226.349811 
L 386.992203 225.3312 
L 387.057147 225.3312 
L 387.44681 224.567242 
L 387.576698 223.930611 
L 387.641642 223.930611 
L 388.226137 222.912 
L 388.291081 222.912 
L 388.485912 222.657347 
L 388.550856 222.657347 
L 388.6158 222.530021 
L 388.810632 221.893389 
L 389.200295 221.002105 
L 389.330183 220.747453 
L 389.395127 220.747453 
L 389.719847 219.856168 
L 390.174454 219.092211 
L 390.239398 219.092211 
L 390.758949 217.946274 
L 390.953781 217.564295 
L 391.927939 215.781726 
L 391.992883 215.781726 
L 392.122771 215.6544 
L 392.187715 215.6544 
L 392.577378 214.890442 
L 392.707266 214.253811 
L 392.77221 214.253811 
L 392.902098 213.362526 
L 393.031985 212.980547 
L 393.356705 212.089263 
L 393.551536 211.834611 
L 393.61648 211.834611 
L 393.681424 211.707284 
L 393.876256 210.688674 
L 394.006144 210.688674 
L 394.785471 206.741558 
L 395.369966 205.722947 
L 395.499853 204.958989 
L 395.824573 204.322358 
L 396.084349 201.393853 
L 396.409068 199.483958 
L 396.538956 199.101979 
L 396.6039 198.847326 
L 396.993563 193.8816 
L 397.058507 193.626947 
L 397.188395 189.807158 
L 397.643002 180.003032 
L 397.707946 179.493726 
L 397.967722 160.904084 
L 398.097609 159.630821 
L 398.227497 136.457432 
L 398.292441 133.019621 
L 398.487273 53.568 
L 398.487273 53.568 
" clip-path="url(#p5b0062428f)" style="fill: none; stroke: #ff7f0e; stroke-width: 1.5; stroke-linecap: square"/>
   </g>
   <g id="patch_3">
    <path d="M 57.6 307.584 
L 57.6 41.472 
" style="fill: none; stroke: #000000; stroke-width: 0.8; stroke-linejoin: miter; stroke-linecap: square"/>
   </g>
   <g id="patch_4">
    <path d="M 414.72 307.584 
L 414.72 41.472 
" style="fill: none; stroke: #000000; stroke-width: 0.8; stroke-linejoin: miter; stroke-linecap: square"/>
   </g>
   <g id="patch_5">
    <path d="M 57.6 307.584 
L 414.72 307.584 
" style="fill: none; stroke: #000000; stroke-width: 0.8; stroke-linejoin: miter; stroke-linecap: square"/>
   </g>
   <g id="patch_6">
    <path d="M 57.6 41.472 
L 414.72 41.472 
" style="fill: none; stroke: #000000; stroke-width: 0.8; stroke-linejoin: miter; stroke-linecap: square"/>
   </g>
   <g id="text_18">
    <!-- pointer array backwards detection test -->
    <g transform="translate(119.340937 35.472) scale(0.12 -0.12)">
     <defs>
      <path id="DejaVuSans-70" d="M 1159 525 
L 1159 -1331 
L 581 -1331 
L 581 3500 
L 1159 3500 
L 1159 2969 
Q 1341 3281 1617 3432 
Q 1894 3584 2278 3584 
Q 2916 3584 3314 3078 
Q 3713 2572 3713 1747 
Q 3713 922 3314 415 
Q 2916 -91 2278 -91 
Q 1894 -91 1617 61 
Q 1341 213 1159 525 
z
M 3116 1747 
Q 3116 2381 2855 2742 
Q 2594 3103 2138 3103 
Q 1681 3103 1420 2742 
Q 1159 2381 1159 1747 
Q 1159 1113 1420 752 
Q 1681 391 2138 391 
Q 2594 391 2855 752 
Q 3116 1113 3116 1747 
z
" transform="scale(0.015625)"/>
      <path id="DejaVuSans-6f" d="M 1959 3097 
Q 1497 3097 1228 2736 
Q 959 2375 959 1747 
Q 959 1119 1226 758 
Q 1494 397 1959 397 
Q 2419 397 2687 759 
Q 2956 1122 2956 1747 
Q 2956 2369 2687 2733 
Q 2419 3097 1959 3097 
z
M 1959 3584 
Q 2709 3584 3137 3096 
Q 3566 2609 3566 1747 
Q 3566 888 3137 398 
Q 2709 -91 1959 -91 
Q 1206 -91 779 398 
Q 353 888 353 1747 
Q 353 2609 779 3096 
Q 1206 3584 1959 3584 
z
" transform="scale(0.015625)"/>
      <path id="DejaVuSans-79" d="M 2059 -325 
Q 1816 -950 1584 -1140 
Q 1353 -1331 966 -1331 
L 506 -1331 
L 506 -850 
L 844 -850 
Q 1081 -850 1212 -737 
Q 1344 -625 1503 -206 
L 1606 56 
L 191 3500 
L 800 3500 
L 1894 763 
L 2988 3500 
L 3597 3500 
L 2059 -325 
z
" transform="scale(0.015625)"/>
      <path id="DejaVuSans-62" d="M 3116 1747 
Q 3116 2381 2855 2742 
Q 2594 3103 2138 3103 
Q 1681 3103 1420 2742 
Q 1159 2381 1159 1747 
Q 1159 1113 1420 752 
Q 1681 391 2138 391 
Q 2594 391 2855 752 
Q 3116 1113 3116 1747 
z
M 1159 2969 
Q 1341 3281 1617 3432 
Q 1894 3584 2278 3584 
Q 2916 3584 3314 3078 
Q 3713 2572 3713 1747 
Q 3713 922 3314 415 
Q 2916 -91 2278 -91 
Q 1894 -91 1617 61 
Q 1341 213 1159 525 
L 1159 0 
L 581 0 
L 581 4863 
L 1159 4863 
L 1159 2969 
z
" transform="scale(0.015625)"/>
      <path id="DejaVuSans-63" d="M 3122 3366 
L 3122 2828 
Q 2878 2963 2633 3030 
Q 2388 3097 2138 3097 
Q 1578 3097 1268 2742 
Q 959 2388 959 1747 
Q 959 1106 1268 751 
Q 1578 397 2138 397 
Q 2388 397 2633 464 
Q 2878 531 3122 666 
L 3122 134 
Q 2881 22 2623 -34 
Q 2366 -91 2075 -91 
Q 1284 -91 818 406 
Q 353 903 353 1747 
Q 353 2603 823 3093 
Q 1294 3584 2113 3584 
Q 2378 3584 2631 3529 
Q 2884 3475 3122 3366 
z
" transform="scale(0.015625)"/>
      <path id="DejaVuSans-6b" d="M 581 4863 
L 1159 4863 
L 1159 1991 
L 2875 3500 
L 3609 3500 
L 1753 1863 
L 3688 0 
L 2938 0 
L 1159 1709 
L 1159 0 
L 581 0 
L 581 4863 
z
" transform="scale(0.015625)"/>
      <path id="DejaVuSans-77" d="M 269 3500 
L 844 3500 
L 1563 769 
L 2278 3500 
L 2956 3500 
L 3675 769 
L 4391 3500 
L 4966 3500 
L 4050 0 
L 3372 0 
L 2619 2869 
L 1863 0 
L 1184 0 
L 269 3500 
z
" transform="scale(0.015625)"/>
      <path id="DejaVuSans-64" d="M 2906 2969 
L 2906 4863 
L 3481 4863 
L 3481 0 
L 2906 0 
L 2906 525 
Q 2725 213 2448 61 
Q 2172 -91 1784 -91 
Q 1150 -91 751 415 
Q 353 922 353 1747 
Q 353 2572 751 3078 
Q 1150 3584 1784 3584 
Q 2172 3584 2448 3432 
Q 2725 3281 2906 2969 
z
M 947 1747 
Q 947 1113 1208 752 
Q 1469 391 1925 391 
Q 2381 391 2643 752 
Q 2906 1113 2906 1747 
Q 2906 2381 2643 2742 
Q 2381 3103 1925 3103 
Q 1469 3103 1208 2742 
Q 947 2381 947 1747 
z
" transform="scale(0.015625)"/>
     </defs>
     <use xlink:href="#DejaVuSans-70"/>
     <use xlink:href="#DejaVuSans-6f" x="63.476562"/>
     <use xlink:href="#DejaVuSans-69" x="124.658203"/>
     <use xlink:href="#DejaVuSans-6e" x="152.441406"/>
     <use xlink:href="#DejaVuSans-74" x="215.820312"/>
     <use xlink:href="#DejaVuSans-65" x="255.029297"/>
     <use xlink:href="#DejaVuSans-72" x="316.552734"/>
     <use xlink:href="#DejaVuSans-20" x="357.666016"/>
     <use xlink:href="#DejaVuSans-61" x="389.453125"/>
     <use xlink:href="#DejaVuSans-72" x="450.732422"/>
     <use xlink:href="#DejaVuSans-72" x="490.095703"/>
     <use xlink:href="#DejaVuSans-61" x="531.208984"/>
     <use xlink:href="#DejaVuSans-79" x="592.488281"/>
     <use xlink:href="#DejaVuSans-20" x="651.667969"/>
     <use xlink:href="#DejaVuSans-62" x="683.455078"/>
     <use xlink:href="#DejaVuSans-61" x="746.931641"/>
     <use xlink:href="#DejaVuSans-63" x="808.210938"/>
     <use xlink:href="#DejaVuSans-6b" x="863.191406"/>
     <use xlink:href="#DejaVuSans-77" x="921.101562"/>
     <use xlink:href="#DejaVuSans-61" x="1002.888672"/>
     <use xlink:href="#DejaVuSans-72" x="1064.167969"/>
     <use xlink:href="#DejaVuSans-64" x="1103.53125"/>
     <use xlink:href="#DejaVuSans-73" x="1167.007812"/>
     <use xlink:href="#DejaVuSans-20" x="1219.107422"/>
     <use xlink:href="#DejaVuSans-64" x="1250.894531"/>
     <use xlink:href="#DejaVuSans-65" x="1314.371094"/>
     <use xlink:href="#DejaVuSans-74" x="1375.894531"/>
     <use xlink:href="#DejaVuSans-65" x="1415.103516"/>
     <use xlink:href="#DejaVuSans-63" x="1476.626953"/>
     <use xlink:href="#DejaVuSans-74" x="1531.607422"/>
     <use xlink:href="#DejaVuSans-69" x="1570.816406"/>
     <use xlink:href="#DejaVuSans-6f" x="1598.599609"/>
     <use xlink:href="#DejaVuSans-6e" x="1659.78125"/>
     <use xlink:href="#DejaVuSans-20" x="1723.160156"/>
     <use xlink:href="#DejaVuSans-74" x="1754.947266"/>
     <use xlink:href="#DejaVuSans-65" x="1794.15625"/>
     <use xlink:href="#DejaVuSans-73" x="1855.679688"/>
     <use xlink:href="#DejaVuSans-74" x="1907.779297"/>
    </g>
   </g>
   <g id="legend_1">
    <g id="patch_7">
     <path d="M 64.6 78.82825 
L 166.359375 78.82825 
Q 168.359375 78.82825 168.359375 76.82825 
L 168.359375 48.472 
Q 168.359375 46.472 166.359375 46.472 
L 64.6 46.472 
Q 62.6 46.472 62.6 48.472 
L 62.6 76.82825 
Q 62.6 78.82825 64.6 78.82825 
z
" style="fill: #ffffff; opacity: 0.8; stroke: #cccccc; stroke-linejoin: miter"/>
    </g>
    <g id="line2d_18">
     <path d="M 66.6 54.570437 
L 76.6 54.570437 
L 86.6 54.570437 
" style="fill: none; stroke: #1f77b4; stroke-width: 1.5; stroke-linecap: square"/>
    </g>
    <g id="text_19">
     <!-- measurement -->
     <g transform="translate(94.6 58.070437) scale(0.1 -0.1)">
      <use xlink:href="#DejaVuSans-6d"/>
      <use xlink:href="#DejaVuSans-65" x="97.412109"/>
      <use xlink:href="#DejaVuSans-61" x="158.935547"/>
      <use xlink:href="#DejaVuSans-73" x="220.214844"/>
      <use xlink:href="#DejaVuSans-75" x="272.314453"/>
      <use xlink:href="#DejaVuSans-72" x="335.693359"/>
      <use xlink:href="#DejaVuSans-65" x="374.556641"/>
      <use xlink:href="#DejaVuSans-6d" x="436.080078"/>
      <use xlink:href="#DejaVuSans-65" x="533.492188"/>
      <use xlink:href="#DejaVuSans-6e" x="595.015625"/>
      <use xlink:href="#DejaVuSans-74" x="658.394531"/>
     </g>
    </g>
    <g id="line2d_19">
     <path d="M 66.6 69.248562 
L 76.6 69.248562 
L 86.6 69.248562 
" style="fill: none; stroke: #ff7f0e; stroke-width: 1.5; stroke-linecap: square"/>
    </g>
    <g id="text_20">
     <!-- reference -->
     <g transform="translate(94.6 72.748562) scale(0.1 -0.1)">
      <defs>
       <path id="DejaVuSans-66" d="M 2375 4863 
L 2375 4384 
L 1825 4384 
Q 1516 4384 1395 4259 
Q 1275 4134 1275 3809 
L 1275 3500 
L 2222 3500 
L 2222 3053 
L 1275 3053 
L 1275 0 
L 697 0 
L 697 3053 
L 147 3053 
L 147 3500 
L 697 3500 
L 697 3744 
Q 697 4328 969 4595 
Q 1241 4863 1831 4863 
L 2375 4863 
z
" transform="scale(0.015625)"/>
      </defs>
      <use xlink:href="#DejaVuSans-72"/>
      <use xlink:href="#DejaVuSans-65" x="38.863281"/>
      <use xlink:href="#DejaVuSans-66" x="100.386719"/>
      <use xlink:href="#DejaVuSans-65" x="135.591797"/>
      <use xlink:href="#DejaVuSans-72" x="197.115234"/>
      <use xlink:href="#DejaVuSans-65" x="235.978516"/>
      <use xlink:href="#DejaVuSans-6e" x="297.501953"/>
      <use xlink:href="#DejaVuSans-63" x="360.880859"/>
      <use xlink:href="#DejaVuSans-65" x="415.861328"/>
     </g>
    </g>
   </g>
  </g>
 </g>
 <defs>
  <clipPath id="p5b0062428f">
   <rect x="57.6" y="41.472" width="357.12" height="266.112"/>
  </clipPath>
 </defs>
</svg>
