<?xml version="1.0" encoding="utf-8" standalone="no"?>
<!DOCTYPE svg PUBLIC "-//W3C//DTD SVG 1.1//EN"
  "http://www.w3.org/Graphics/SVG/1.1/DTD/svg11.dtd">
<svg xmlns:xlink="http://www.w3.org/1999/xlink" width="460.8pt" height="345.6pt" viewBox="0 0 460.8 345.6" xmlns="http://www.w3.org/2000/svg" version="1.1">
 <metadata>
  <rdf:RDF xmlns:dc="http://purl.org/dc/elements/1.1/" xmlns:cc="http://creativecommons.org/ns#" xmlns:rdf="http://www.w3.org/1999/02/22-rdf-syntax-ns#">
   <cc:Work>
    <dc:type rdf:resource="http://purl.org/dc/dcmitype/StillImage"/>
    <dc:date>2024-10-04T12:08:31.546743</dc:date>
    <dc:format>image/svg+xml</dc:format>
    <dc:creator>
     <cc:Agent>
      <dc:title>Matplotlib v3.8.4, https://matplotlib.org/</dc:title>
     </cc:Agent>
    </dc:creator>
   </cc:Work>
  </rdf:RDF>
 </metadata>
 <defs>
  <style type="text/css">*{stroke-linejoin: round; stroke-linecap: butt}</style>
 </defs>
 <g id="figure_1">
  <g id="patch_1">
   <path d="M 0 345.6 
L 460.8 345.6 
L 460.8 0 
L 0 0 
z
" style="fill: #ffffff"/>
  </g>
  <g id="axes_1">
   <g id="patch_2">
    <path d="M 57.6 307.584 
L 414.72 307.584 
L 414.72 41.472 
L 57.6 41.472 
z
" style="fill: #ffffff"/>
   </g>
   <g id="matplotlib.axis_1">
    <g id="xtick_1">
     <g id="line2d_1">
      <defs>
       <path id="me007e9a851" d="M 0 0 
L 0 3.5 
" style="stroke: #000000; stroke-width: 0.8"/>
      </defs>
      <g>
       <use xlink:href="#me007e9a851" x="73.832727" y="307.584" style="stroke: #000000; stroke-width: 0.8"/>
      </g>
     </g>
     <g id="text_1">
      <!-- 0 -->
      <g transform="translate(70.651477 322.182437) scale(0.1 -0.1)">
       <defs>
        <path id="DejaVuSans-30" d="M 2034 4250 
Q 1547 4250 1301 3770 
Q 1056 3291 1056 2328 
Q 1056 1369 1301 889 
Q 1547 409 2034 409 
Q 2525 409 2770 889 
Q 3016 1369 3016 2328 
Q 3016 3291 2770 3770 
Q 2525 4250 2034 4250 
z
M 2034 4750 
Q 2819 4750 3233 4129 
Q 3647 3509 3647 2328 
Q 3647 1150 3233 529 
Q 2819 -91 2034 -91 
Q 1250 -91 836 529 
Q 422 1150 422 2328 
Q 422 3509 836 4129 
Q 1250 4750 2034 4750 
z
" transform="scale(0.015625)"/>
       </defs>
       <use xlink:href="#DejaVuSans-30"/>
      </g>
     </g>
    </g>
    <g id="xtick_2">
     <g id="line2d_2">
      <g>
       <use xlink:href="#me007e9a851" x="138.776625" y="307.584" style="stroke: #000000; stroke-width: 0.8"/>
      </g>
     </g>
     <g id="text_2">
      <!-- 1000 -->
      <g transform="translate(126.051625 322.182437) scale(0.1 -0.1)">
       <defs>
        <path id="DejaVuSans-31" d="M 794 531 
L 1825 531 
L 1825 4091 
L 703 3866 
L 703 4441 
L 1819 4666 
L 2450 4666 
L 2450 531 
L 3481 531 
L 3481 0 
L 794 0 
L 794 531 
z
" transform="scale(0.015625)"/>
       </defs>
       <use xlink:href="#DejaVuSans-31"/>
       <use xlink:href="#DejaVuSans-30" x="63.623047"/>
       <use xlink:href="#DejaVuSans-30" x="127.246094"/>
       <use xlink:href="#DejaVuSans-30" x="190.869141"/>
      </g>
     </g>
    </g>
    <g id="xtick_3">
     <g id="line2d_3">
      <g>
       <use xlink:href="#me007e9a851" x="203.720523" y="307.584" style="stroke: #000000; stroke-width: 0.8"/>
      </g>
     </g>
     <g id="text_3">
      <!-- 2000 -->
      <g transform="translate(190.995523 322.182437) scale(0.1 -0.1)">
       <defs>
        <path id="DejaVuSans-32" d="M 1228 531 
L 3431 531 
L 3431 0 
L 469 0 
L 469 531 
Q 828 903 1448 1529 
Q 2069 2156 2228 2338 
Q 2531 2678 2651 2914 
Q 2772 3150 2772 3378 
Q 2772 3750 2511 3984 
Q 2250 4219 1831 4219 
Q 1534 4219 1204 4116 
Q 875 4013 500 3803 
L 500 4441 
Q 881 4594 1212 4672 
Q 1544 4750 1819 4750 
Q 2544 4750 2975 4387 
Q 3406 4025 3406 3419 
Q 3406 3131 3298 2873 
Q 3191 2616 2906 2266 
Q 2828 2175 2409 1742 
Q 1991 1309 1228 531 
z
" transform="scale(0.015625)"/>
       </defs>
       <use xlink:href="#DejaVuSans-32"/>
       <use xlink:href="#DejaVuSans-30" x="63.623047"/>
       <use xlink:href="#DejaVuSans-30" x="127.246094"/>
       <use xlink:href="#DejaVuSans-30" x="190.869141"/>
      </g>
     </g>
    </g>
    <g id="xtick_4">
     <g id="line2d_4">
      <g>
       <use xlink:href="#me007e9a851" x="268.664421" y="307.584" style="stroke: #000000; stroke-width: 0.8"/>
      </g>
     </g>
     <g id="text_4">
      <!-- 3000 -->
      <g transform="translate(255.939421 322.182437) scale(0.1 -0.1)">
       <defs>
        <path id="DejaVuSans-33" d="M 2597 2516 
Q 3050 2419 3304 2112 
Q 3559 1806 3559 1356 
Q 3559 666 3084 287 
Q 2609 -91 1734 -91 
Q 1441 -91 1130 -33 
Q 819 25 488 141 
L 488 750 
Q 750 597 1062 519 
Q 1375 441 1716 441 
Q 2309 441 2620 675 
Q 2931 909 2931 1356 
Q 2931 1769 2642 2001 
Q 2353 2234 1838 2234 
L 1294 2234 
L 1294 2753 
L 1863 2753 
Q 2328 2753 2575 2939 
Q 2822 3125 2822 3475 
Q 2822 3834 2567 4026 
Q 2313 4219 1838 4219 
Q 1578 4219 1281 4162 
Q 984 4106 628 3988 
L 628 4550 
Q 988 4650 1302 4700 
Q 1616 4750 1894 4750 
Q 2613 4750 3031 4423 
Q 3450 4097 3450 3541 
Q 3450 3153 3228 2886 
Q 3006 2619 2597 2516 
z
" transform="scale(0.015625)"/>
       </defs>
       <use xlink:href="#DejaVuSans-33"/>
       <use xlink:href="#DejaVuSans-30" x="63.623047"/>
       <use xlink:href="#DejaVuSans-30" x="127.246094"/>
       <use xlink:href="#DejaVuSans-30" x="190.869141"/>
      </g>
     </g>
    </g>
    <g id="xtick_5">
     <g id="line2d_5">
      <g>
       <use xlink:href="#me007e9a851" x="333.608319" y="307.584" style="stroke: #000000; stroke-width: 0.8"/>
      </g>
     </g>
     <g id="text_5">
      <!-- 4000 -->
      <g transform="translate(320.883319 322.182437) scale(0.1 -0.1)">
       <defs>
        <path id="DejaVuSans-34" d="M 2419 4116 
L 825 1625 
L 2419 1625 
L 2419 4116 
z
M 2253 4666 
L 3047 4666 
L 3047 1625 
L 3713 1625 
L 3713 1100 
L 3047 1100 
L 3047 0 
L 2419 0 
L 2419 1100 
L 313 1100 
L 313 1709 
L 2253 4666 
z
" transform="scale(0.015625)"/>
       </defs>
       <use xlink:href="#DejaVuSans-34"/>
       <use xlink:href="#DejaVuSans-30" x="63.623047"/>
       <use xlink:href="#DejaVuSans-30" x="127.246094"/>
       <use xlink:href="#DejaVuSans-30" x="190.869141"/>
      </g>
     </g>
    </g>
    <g id="xtick_6">
     <g id="line2d_6">
      <g>
       <use xlink:href="#me007e9a851" x="398.552217" y="307.584" style="stroke: #000000; stroke-width: 0.8"/>
      </g>
     </g>
     <g id="text_6">
      <!-- 5000 -->
      <g transform="translate(385.827217 322.182437) scale(0.1 -0.1)">
       <defs>
        <path id="DejaVuSans-35" d="M 691 4666 
L 3169 4666 
L 3169 4134 
L 1269 4134 
L 1269 2991 
Q 1406 3038 1543 3061 
Q 1681 3084 1819 3084 
Q 2600 3084 3056 2656 
Q 3513 2228 3513 1497 
Q 3513 744 3044 326 
Q 2575 -91 1722 -91 
Q 1428 -91 1123 -41 
Q 819 9 494 109 
L 494 744 
Q 775 591 1075 516 
Q 1375 441 1709 441 
Q 2250 441 2565 725 
Q 2881 1009 2881 1497 
Q 2881 1984 2565 2268 
Q 2250 2553 1709 2553 
Q 1456 2553 1204 2497 
Q 953 2441 691 2322 
L 691 4666 
z
" transform="scale(0.015625)"/>
       </defs>
       <use xlink:href="#DejaVuSans-35"/>
       <use xlink:href="#DejaVuSans-30" x="63.623047"/>
       <use xlink:href="#DejaVuSans-30" x="127.246094"/>
       <use xlink:href="#DejaVuSans-30" x="190.869141"/>
      </g>
     </g>
    </g>
    <g id="text_7">
     <!-- measurement # -->
     <g transform="translate(195.501406 335.860562) scale(0.1 -0.1)">
      <defs>
       <path id="DejaVuSans-6d" d="M 3328 2828 
Q 3544 3216 3844 3400 
Q 4144 3584 4550 3584 
Q 5097 3584 5394 3201 
Q 5691 2819 5691 2113 
L 5691 0 
L 5113 0 
L 5113 2094 
Q 5113 2597 4934 2840 
Q 4756 3084 4391 3084 
Q 3944 3084 3684 2787 
Q 3425 2491 3425 1978 
L 3425 0 
L 2847 0 
L 2847 2094 
Q 2847 2600 2669 2842 
Q 2491 3084 2119 3084 
Q 1678 3084 1418 2786 
Q 1159 2488 1159 1978 
L 1159 0 
L 581 0 
L 581 3500 
L 1159 3500 
L 1159 2956 
Q 1356 3278 1631 3431 
Q 1906 3584 2284 3584 
Q 2666 3584 2933 3390 
Q 3200 3197 3328 2828 
z
" transform="scale(0.015625)"/>
       <path id="DejaVuSans-65" d="M 3597 1894 
L 3597 1613 
L 953 1613 
Q 991 1019 1311 708 
Q 1631 397 2203 397 
Q 2534 397 2845 478 
Q 3156 559 3463 722 
L 3463 178 
Q 3153 47 2828 -22 
Q 2503 -91 2169 -91 
Q 1331 -91 842 396 
Q 353 884 353 1716 
Q 353 2575 817 3079 
Q 1281 3584 2069 3584 
Q 2775 3584 3186 3129 
Q 3597 2675 3597 1894 
z
M 3022 2063 
Q 3016 2534 2758 2815 
Q 2500 3097 2075 3097 
Q 1594 3097 1305 2825 
Q 1016 2553 972 2059 
L 3022 2063 
z
" transform="scale(0.015625)"/>
       <path id="DejaVuSans-61" d="M 2194 1759 
Q 1497 1759 1228 1600 
Q 959 1441 959 1056 
Q 959 750 1161 570 
Q 1363 391 1709 391 
Q 2188 391 2477 730 
Q 2766 1069 2766 1631 
L 2766 1759 
L 2194 1759 
z
M 3341 1997 
L 3341 0 
L 2766 0 
L 2766 531 
Q 2569 213 2275 61 
Q 1981 -91 1556 -91 
Q 1019 -91 701 211 
Q 384 513 384 1019 
Q 384 1609 779 1909 
Q 1175 2209 1959 2209 
L 2766 2209 
L 2766 2266 
Q 2766 2663 2505 2880 
Q 2244 3097 1772 3097 
Q 1472 3097 1187 3025 
Q 903 2953 641 2809 
L 641 3341 
Q 956 3463 1253 3523 
Q 1550 3584 1831 3584 
Q 2591 3584 2966 3190 
Q 3341 2797 3341 1997 
z
" transform="scale(0.015625)"/>
       <path id="DejaVuSans-73" d="M 2834 3397 
L 2834 2853 
Q 2591 2978 2328 3040 
Q 2066 3103 1784 3103 
Q 1356 3103 1142 2972 
Q 928 2841 928 2578 
Q 928 2378 1081 2264 
Q 1234 2150 1697 2047 
L 1894 2003 
Q 2506 1872 2764 1633 
Q 3022 1394 3022 966 
Q 3022 478 2636 193 
Q 2250 -91 1575 -91 
Q 1294 -91 989 -36 
Q 684 19 347 128 
L 347 722 
Q 666 556 975 473 
Q 1284 391 1588 391 
Q 1994 391 2212 530 
Q 2431 669 2431 922 
Q 2431 1156 2273 1281 
Q 2116 1406 1581 1522 
L 1381 1569 
Q 847 1681 609 1914 
Q 372 2147 372 2553 
Q 372 3047 722 3315 
Q 1072 3584 1716 3584 
Q 2034 3584 2315 3537 
Q 2597 3491 2834 3397 
z
" transform="scale(0.015625)"/>
       <path id="DejaVuSans-75" d="M 544 1381 
L 544 3500 
L 1119 3500 
L 1119 1403 
Q 1119 906 1312 657 
Q 1506 409 1894 409 
Q 2359 409 2629 706 
Q 2900 1003 2900 1516 
L 2900 3500 
L 3475 3500 
L 3475 0 
L 2900 0 
L 2900 538 
Q 2691 219 2414 64 
Q 2138 -91 1772 -91 
Q 1169 -91 856 284 
Q 544 659 544 1381 
z
M 1991 3584 
L 1991 3584 
z
" transform="scale(0.015625)"/>
       <path id="DejaVuSans-72" d="M 2631 2963 
Q 2534 3019 2420 3045 
Q 2306 3072 2169 3072 
Q 1681 3072 1420 2755 
Q 1159 2438 1159 1844 
L 1159 0 
L 581 0 
L 581 3500 
L 1159 3500 
L 1159 2956 
Q 1341 3275 1631 3429 
Q 1922 3584 2338 3584 
Q 2397 3584 2469 3576 
Q 2541 3569 2628 3553 
L 2631 2963 
z
" transform="scale(0.015625)"/>
       <path id="DejaVuSans-6e" d="M 3513 2113 
L 3513 0 
L 2938 0 
L 2938 2094 
Q 2938 2591 2744 2837 
Q 2550 3084 2163 3084 
Q 1697 3084 1428 2787 
Q 1159 2491 1159 1978 
L 1159 0 
L 581 0 
L 581 3500 
L 1159 3500 
L 1159 2956 
Q 1366 3272 1645 3428 
Q 1925 3584 2291 3584 
Q 2894 3584 3203 3211 
Q 3513 2838 3513 2113 
z
" transform="scale(0.015625)"/>
       <path id="DejaVuSans-74" d="M 1172 4494 
L 1172 3500 
L 2356 3500 
L 2356 3053 
L 1172 3053 
L 1172 1153 
Q 1172 725 1289 603 
Q 1406 481 1766 481 
L 2356 481 
L 2356 0 
L 1766 0 
Q 1100 0 847 248 
Q 594 497 594 1153 
L 594 3053 
L 172 3053 
L 172 3500 
L 594 3500 
L 594 4494 
L 1172 4494 
z
" transform="scale(0.015625)"/>
       <path id="DejaVuSans-20" transform="scale(0.015625)"/>
       <path id="DejaVuSans-23" d="M 3272 2816 
L 2363 2816 
L 2100 1772 
L 3016 1772 
L 3272 2816 
z
M 2803 4594 
L 2478 3297 
L 3391 3297 
L 3719 4594 
L 4219 4594 
L 3897 3297 
L 4872 3297 
L 4872 2816 
L 3775 2816 
L 3519 1772 
L 4513 1772 
L 4513 1294 
L 3397 1294 
L 3072 0 
L 2572 0 
L 2894 1294 
L 1978 1294 
L 1656 0 
L 1153 0 
L 1478 1294 
L 494 1294 
L 494 1772 
L 1594 1772 
L 1856 2816 
L 850 2816 
L 850 3297 
L 1978 3297 
L 2297 4594 
L 2803 4594 
z
" transform="scale(0.015625)"/>
      </defs>
      <use xlink:href="#DejaVuSans-6d"/>
      <use xlink:href="#DejaVuSans-65" x="97.412109"/>
      <use xlink:href="#DejaVuSans-61" x="158.935547"/>
      <use xlink:href="#DejaVuSans-73" x="220.214844"/>
      <use xlink:href="#DejaVuSans-75" x="272.314453"/>
      <use xlink:href="#DejaVuSans-72" x="335.693359"/>
      <use xlink:href="#DejaVuSans-65" x="374.556641"/>
      <use xlink:href="#DejaVuSans-6d" x="436.080078"/>
      <use xlink:href="#DejaVuSans-65" x="533.492188"/>
      <use xlink:href="#DejaVuSans-6e" x="595.015625"/>
      <use xlink:href="#DejaVuSans-74" x="658.394531"/>
      <use xlink:href="#DejaVuSans-20" x="697.603516"/>
      <use xlink:href="#DejaVuSans-23" x="729.390625"/>
     </g>
    </g>
   </g>
   <g id="matplotlib.axis_2">
    <g id="ytick_1">
     <g id="line2d_7">
      <defs>
       <path id="ma3c8092f3a" d="M 0 0 
L -3.5 0 
" style="stroke: #000000; stroke-width: 0.8"/>
      </defs>
      <g>
       <use xlink:href="#ma3c8092f3a" x="57.6" y="306.291251" style="stroke: #000000; stroke-width: 0.8"/>
      </g>
     </g>
     <g id="text_8">
      <!-- 0 -->
      <g transform="translate(44.2375 310.09047) scale(0.1 -0.1)">
       <use xlink:href="#DejaVuSans-30"/>
      </g>
     </g>
    </g>
    <g id="ytick_2">
     <g id="line2d_8">
      <g>
       <use xlink:href="#ma3c8092f3a" x="57.6" y="275.94504" style="stroke: #000000; stroke-width: 0.8"/>
      </g>
     </g>
     <g id="text_9">
      <!-- 250 -->
      <g transform="translate(31.5125 279.744258) scale(0.1 -0.1)">
       <use xlink:href="#DejaVuSans-32"/>
       <use xlink:href="#DejaVuSans-35" x="63.623047"/>
       <use xlink:href="#DejaVuSans-30" x="127.246094"/>
      </g>
     </g>
    </g>
    <g id="ytick_3">
     <g id="line2d_9">
      <g>
       <use xlink:href="#ma3c8092f3a" x="57.6" y="245.598828" style="stroke: #000000; stroke-width: 0.8"/>
      </g>
     </g>
     <g id="text_10">
      <!-- 500 -->
      <g transform="translate(31.5125 249.398047) scale(0.1 -0.1)">
       <use xlink:href="#DejaVuSans-35"/>
       <use xlink:href="#DejaVuSans-30" x="63.623047"/>
       <use xlink:href="#DejaVuSans-30" x="127.246094"/>
      </g>
     </g>
    </g>
    <g id="ytick_4">
     <g id="line2d_10">
      <g>
       <use xlink:href="#ma3c8092f3a" x="57.6" y="215.252616" style="stroke: #000000; stroke-width: 0.8"/>
      </g>
     </g>
     <g id="text_11">
      <!-- 750 -->
      <g transform="translate(31.5125 219.051835) scale(0.1 -0.1)">
       <defs>
        <path id="DejaVuSans-37" d="M 525 4666 
L 3525 4666 
L 3525 4397 
L 1831 0 
L 1172 0 
L 2766 4134 
L 525 4134 
L 525 4666 
z
" transform="scale(0.015625)"/>
       </defs>
       <use xlink:href="#DejaVuSans-37"/>
       <use xlink:href="#DejaVuSans-35" x="63.623047"/>
       <use xlink:href="#DejaVuSans-30" x="127.246094"/>
      </g>
     </g>
    </g>
    <g id="ytick_5">
     <g id="line2d_11">
      <g>
       <use xlink:href="#ma3c8092f3a" x="57.6" y="184.906404" style="stroke: #000000; stroke-width: 0.8"/>
      </g>
     </g>
     <g id="text_12">
      <!-- 1000 -->
      <g transform="translate(25.15 188.705623) scale(0.1 -0.1)">
       <use xlink:href="#DejaVuSans-31"/>
       <use xlink:href="#DejaVuSans-30" x="63.623047"/>
       <use xlink:href="#DejaVuSans-30" x="127.246094"/>
       <use xlink:href="#DejaVuSans-30" x="190.869141"/>
      </g>
     </g>
    </g>
    <g id="ytick_6">
     <g id="line2d_12">
      <g>
       <use xlink:href="#ma3c8092f3a" x="57.6" y="154.560193" style="stroke: #000000; stroke-width: 0.8"/>
      </g>
     </g>
     <g id="text_13">
      <!-- 1250 -->
      <g transform="translate(25.15 158.359411) scale(0.1 -0.1)">
       <use xlink:href="#DejaVuSans-31"/>
       <use xlink:href="#DejaVuSans-32" x="63.623047"/>
       <use xlink:href="#DejaVuSans-35" x="127.246094"/>
       <use xlink:href="#DejaVuSans-30" x="190.869141"/>
      </g>
     </g>
    </g>
    <g id="ytick_7">
     <g id="line2d_13">
      <g>
       <use xlink:href="#ma3c8092f3a" x="57.6" y="124.213981" style="stroke: #000000; stroke-width: 0.8"/>
      </g>
     </g>
     <g id="text_14">
      <!-- 1500 -->
      <g transform="translate(25.15 128.0132) scale(0.1 -0.1)">
       <use xlink:href="#DejaVuSans-31"/>
       <use xlink:href="#DejaVuSans-35" x="63.623047"/>
       <use xlink:href="#DejaVuSans-30" x="127.246094"/>
       <use xlink:href="#DejaVuSans-30" x="190.869141"/>
      </g>
     </g>
    </g>
    <g id="ytick_8">
     <g id="line2d_14">
      <g>
       <use xlink:href="#ma3c8092f3a" x="57.6" y="93.867769" style="stroke: #000000; stroke-width: 0.8"/>
      </g>
     </g>
     <g id="text_15">
      <!-- 1750 -->
      <g transform="translate(25.15 97.666988) scale(0.1 -0.1)">
       <use xlink:href="#DejaVuSans-31"/>
       <use xlink:href="#DejaVuSans-37" x="63.623047"/>
       <use xlink:href="#DejaVuSans-35" x="127.246094"/>
       <use xlink:href="#DejaVuSans-30" x="190.869141"/>
      </g>
     </g>
    </g>
    <g id="ytick_9">
     <g id="line2d_15">
      <g>
       <use xlink:href="#ma3c8092f3a" x="57.6" y="63.521557" style="stroke: #000000; stroke-width: 0.8"/>
      </g>
     </g>
     <g id="text_16">
      <!-- 2000 -->
      <g transform="translate(25.15 67.320776) scale(0.1 -0.1)">
       <use xlink:href="#DejaVuSans-32"/>
       <use xlink:href="#DejaVuSans-30" x="63.623047"/>
       <use xlink:href="#DejaVuSans-30" x="127.246094"/>
       <use xlink:href="#DejaVuSans-30" x="190.869141"/>
      </g>
     </g>
    </g>
    <g id="text_17">
     <!-- time -->
     <g transform="translate(19.070312 185.824094) rotate(-90) scale(0.1 -0.1)">
      <defs>
       <path id="DejaVuSans-69" d="M 603 3500 
L 1178 3500 
L 1178 0 
L 603 0 
L 603 3500 
z
M 603 4863 
L 1178 4863 
L 1178 4134 
L 603 4134 
L 603 4863 
z
" transform="scale(0.015625)"/>
      </defs>
      <use xlink:href="#DejaVuSans-74"/>
      <use xlink:href="#DejaVuSans-69" x="39.208984"/>
      <use xlink:href="#DejaVuSans-6d" x="66.992188"/>
      <use xlink:href="#DejaVuSans-65" x="164.404297"/>
     </g>
    </g>
   </g>
   <g id="line2d_16">
    <path d="M 73.832727 293.909997 
L 78.963295 293.909997 
L 79.093183 293.181688 
L 82.794985 293.181688 
L 82.989817 292.210609 
L 83.119705 280.679049 
L 83.249592 279.222431 
L 83.37948 263.68517 
L 83.574312 263.078246 
L 83.639256 263.078246 
L 83.7042 262.714091 
L 84.158807 256.766234 
L 84.483527 256.766234 
L 84.613414 256.644849 
L 87.470946 256.644849 
L 87.600834 256.523464 
L 92.666458 256.523464 
L 92.796345 256.402079 
L 97.277474 256.402079 
L 97.407362 256.280694 
L 101.498828 256.280694 
L 101.628716 256.15931 
L 106.044901 256.15931 
L 106.174788 256.037925 
L 112.734122 256.037925 
L 112.86401 255.91654 
L 119.942895 255.91654 
L 120.072783 255.795155 
L 129.619536 255.795155 
L 129.749423 255.67377 
L 138.451906 255.67377 
L 138.581793 255.552385 
L 146.504949 255.552385 
L 146.634837 255.431001 
L 152.999339 255.431001 
L 153.129227 255.309616 
L 161.052382 255.309616 
L 161.18227 255.188231 
L 170.079584 255.188231 
L 170.209472 255.066846 
L 179.041842 255.066846 
L 179.17173 254.945461 
L 186.575334 254.945461 
L 186.705222 254.824076 
L 192.68006 254.824076 
L 192.809948 254.702691 
L 200.473328 254.702691 
L 200.603216 254.581307 
L 207.032662 254.581307 
L 207.16255 254.459922 
L 212.423005 254.459922 
L 212.552893 254.338537 
L 219.242115 254.338537 
L 219.372002 254.217152 
L 224.50257 254.217152 
L 224.632458 254.095767 
L 228.65898 254.095767 
L 228.788868 253.974382 
L 231.516511 253.974382 
L 231.646399 253.852997 
L 235.543033 253.852997 
L 235.672921 253.731613 
L 238.855172 253.731613 
L 238.98506 253.610228 
L 243.531132 253.610228 
L 243.66102 253.488843 
L 249.830691 253.488843 
L 249.960578 253.367458 
L 256.195192 253.367458 
L 256.32508 253.246073 
L 261.32576 253.246073 
L 261.455648 253.124688 
L 267.82015 253.124688 
L 267.950038 253.003304 
L 276.327801 253.003304 
L 276.457689 252.881919 
L 284.250956 252.881919 
L 284.380844 252.760534 
L 294.187373 252.760534 
L 294.317261 252.639149 
L 304.188733 252.639149 
L 304.318621 252.517764 
L 315.553915 252.517764 
L 315.683803 252.396379 
L 325.879995 252.396379 
L 326.009883 252.274994 
L 333.348543 252.274994 
L 333.478431 252.15361 
L 338.933718 252.15361 
L 339.063606 252.032225 
L 344.973501 252.032225 
L 345.103389 251.91084 
L 353.091488 251.91084 
L 353.221376 251.789455 
L 360.170373 251.789455 
L 360.300261 251.66807 
L 364.586558 251.66807 
L 364.716446 251.546685 
L 366.794651 251.546685 
L 366.924538 251.425301 
L 368.548136 251.425301 
L 368.678024 251.303916 
L 370.626341 251.303916 
L 370.756228 251.182531 
L 372.44477 251.182531 
L 372.574657 251.061146 
L 373.418928 251.061146 
L 373.548816 250.939761 
L 374.003423 250.939761 
L 374.133311 250.818376 
L 374.198255 250.818376 
L 374.328143 250.696991 
L 374.587918 250.696991 
L 374.717806 250.575607 
L 375.042526 250.575607 
L 375.237357 250.332837 
L 375.497133 250.332837 
L 375.627021 250.211452 
L 375.756908 250.211452 
L 375.886796 250.090067 
L 376.016684 250.090067 
L 376.211516 249.847298 
L 376.406347 249.847298 
L 376.536235 249.725913 
L 376.731067 249.725913 
L 376.860955 249.604528 
L 376.990843 249.604528 
L 377.12073 249.483143 
L 377.315562 249.483143 
L 377.44545 249.361758 
L 377.575338 249.361758 
L 377.705225 249.240373 
L 377.770169 249.240373 
L 377.900057 249.118988 
L 378.28972 249.118988 
L 378.484552 248.876219 
L 378.744328 248.876219 
L 378.874216 248.754834 
L 379.004103 248.754834 
L 379.133991 248.633449 
L 379.393767 248.633449 
L 379.523655 248.512064 
L 379.588598 248.512064 
L 379.78343 248.269295 
L 380.043206 248.269295 
L 380.238037 248.026525 
L 380.367925 248.026525 
L 380.497813 247.90514 
L 380.627701 247.90514 
L 380.757589 247.783755 
L 380.887476 247.783755 
L 381.27714 247.176831 
L 381.342084 247.176831 
L 381.471971 247.055446 
L 381.601859 247.055446 
L 381.731747 246.934061 
L 381.861635 246.934061 
L 382.186354 246.448522 
L 382.511074 246.448522 
L 382.640962 246.327137 
L 382.770849 246.327137 
L 382.965681 245.841598 
L 383.160513 245.477443 
L 383.225457 245.477443 
L 383.420288 245.234673 
L 383.485232 245.234673 
L 383.61512 245.113289 
L 383.680064 245.113289 
L 383.93984 244.506364 
L 384.199615 244.14221 
L 384.394447 243.292516 
L 384.459391 243.292516 
L 384.78411 242.564207 
L 385.173774 241.350358 
L 385.238718 241.350358 
L 385.368605 240.500664 
L 385.433549 240.500664 
L 385.823213 239.89374 
L 385.888157 239.89374 
L 386.082988 239.65097 
L 386.147932 239.65097 
L 386.27782 239.529586 
L 386.342764 239.529586 
L 386.472652 239.408201 
L 386.537596 239.408201 
L 386.667483 239.286816 
L 386.732427 239.286816 
L 387.381866 238.194352 
L 387.576698 238.194352 
L 387.706586 237.951583 
L 387.77153 237.951583 
L 388.031305 237.587428 
L 388.096249 237.587428 
L 388.485912 236.980504 
L 388.6158 236.980504 
L 388.810632 236.494964 
L 389.005464 236.009425 
L 389.070408 236.009425 
L 389.265239 235.64527 
L 389.395127 235.038346 
L 389.589959 234.552807 
L 389.849734 233.824498 
L 389.914678 233.824498 
L 390.10951 232.974804 
L 390.174454 232.974804 
L 390.434229 232.36788 
L 390.823893 231.275416 
L 390.888837 231.275416 
L 391.343444 230.425722 
L 391.60322 228.847719 
L 391.668163 228.847719 
L 391.862995 226.905561 
L 391.992883 226.905561 
L 392.44749 225.570328 
L 392.577378 225.327558 
L 392.837154 224.477865 
L 393.031985 223.385401 
L 393.356705 222.171552 
L 393.9412 220.229395 
L 394.006144 220.229395 
L 394.200975 219.136931 
L 394.330863 218.894162 
L 394.395807 218.894162 
L 394.525695 217.680313 
L 394.590639 217.680313 
L 394.785471 216.952004 
L 395.11019 215.738156 
L 395.305022 215.738156 
L 395.43491 215.374001 
L 396.149292 211.975225 
L 396.344124 211.611071 
L 396.409068 211.489686 
L 396.863675 205.784598 
L 397.058507 204.934904 
L 397.44817 201.657513 
L 397.578058 194.859962 
L 397.643002 194.859962 
L 397.837834 192.189495 
L 397.902778 190.854262 
L 398.097609 182.478707 
L 398.227497 180.77932 
L 398.487273 120.815205 
L 398.487273 120.815205 
" clip-path="url(#p3eec02ce67)" style="fill: none; stroke: #1f77b4; stroke-width: 1.5; stroke-linecap: square"/>
   </g>
   <g id="line2d_17">
    <path d="M 73.832727 295.488 
L 73.962615 293.909997 
L 80.002398 293.909997 
L 80.132285 293.181688 
L 84.743302 293.181688 
L 84.808246 292.938918 
L 84.938134 292.210609 
L 85.132966 292.210609 
L 85.197909 291.846455 
L 85.327797 279.101046 
L 85.392741 278.979661 
L 85.522629 263.92794 
L 85.717461 263.4424 
L 86.237012 261.621628 
L 86.431843 259.193931 
L 86.951395 256.766234 
L 87.081282 256.766234 
L 87.21117 256.644849 
L 89.484207 256.644849 
L 89.614094 256.523464 
L 94.484887 256.523464 
L 94.614775 256.402079 
L 99.745343 256.402079 
L 99.87523 256.280694 
L 104.940854 256.280694 
L 105.070742 256.15931 
L 110.331198 256.15931 
L 110.461086 256.037925 
L 115.851429 256.037925 
L 115.981317 255.91654 
L 123.709641 255.91654 
L 123.839529 255.795155 
L 132.606955 255.795155 
L 132.736843 255.67377 
L 140.659998 255.67377 
L 140.789886 255.552385 
L 147.803827 255.552385 
L 147.933715 255.431001 
L 155.662039 255.431001 
L 155.791926 255.309616 
L 164.494409 255.309616 
L 164.624296 255.188231 
L 173.911274 255.188231 
L 174.041162 255.066846 
L 180.665439 255.066846 
L 180.795327 254.945461 
L 188.0041 254.945461 
L 188.133988 254.824076 
L 194.043882 254.824076 
L 194.17377 254.702691 
L 200.603216 254.702691 
L 200.733104 254.581307 
L 208.00682 254.581307 
L 208.136708 254.459922 
L 214.760986 254.459922 
L 214.890873 254.338537 
L 219.631778 254.338537 
L 219.761666 254.217152 
L 223.723244 254.217152 
L 223.853131 254.095767 
L 227.684821 254.095767 
L 227.814709 253.974382 
L 231.451567 253.974382 
L 231.581455 253.852997 
L 235.023482 253.852997 
L 235.15337 253.731613 
L 238.530452 253.731613 
L 238.66034 253.610228 
L 243.011581 253.610228 
L 243.141469 253.488843 
L 249.246195 253.488843 
L 249.376083 253.367458 
L 255.740585 253.367458 
L 255.870473 253.246073 
L 262.234975 253.246073 
L 262.364863 253.124688 
L 270.028243 253.124688 
L 270.158131 253.003304 
L 277.237015 253.003304 
L 277.366903 252.881919 
L 285.419947 252.881919 
L 285.549834 252.760534 
L 296.460409 252.760534 
L 296.590297 252.639149 
L 306.396826 252.639149 
L 306.526713 252.517764 
L 317.697064 252.517764 
L 317.826952 252.396379 
L 326.984041 252.396379 
L 327.113929 252.274994 
L 334.972141 252.274994 
L 335.102028 252.15361 
L 340.946979 252.15361 
L 341.076867 252.032225 
L 348.28564 252.032225 
L 348.415527 251.91084 
L 354.844973 251.91084 
L 354.974861 251.789455 
L 361.469251 251.789455 
L 361.599139 251.66807 
L 364.911278 251.66807 
L 365.041165 251.546685 
L 367.249258 251.546685 
L 367.379146 251.425301 
L 368.742968 251.425301 
L 368.872855 251.303916 
L 370.626341 251.303916 
L 370.756228 251.182531 
L 372.055106 251.182531 
L 372.184994 251.061146 
L 372.834433 251.061146 
L 372.964321 250.939761 
L 373.224096 250.939761 
L 373.353984 250.818376 
L 373.678704 250.818376 
L 373.808592 250.696991 
L 374.328143 250.696991 
L 374.458031 250.575607 
L 374.912638 250.575607 
L 375.042526 250.454222 
L 375.302301 250.454222 
L 375.432189 250.332837 
L 375.95174 250.332837 
L 376.081628 250.211452 
L 376.536235 250.211452 
L 376.731067 249.968682 
L 376.796011 249.968682 
L 376.925899 249.847298 
L 377.250618 249.847298 
L 377.380506 249.725913 
L 377.965001 249.725913 
L 378.094889 249.604528 
L 378.419608 249.604528 
L 378.549496 249.483143 
L 379.004103 249.483143 
L 379.133991 249.361758 
L 379.328823 249.361758 
L 379.458711 249.240373 
L 379.588598 249.240373 
L 379.718486 249.118988 
L 379.848374 249.118988 
L 379.978262 248.997604 
L 380.10815 248.997604 
L 380.238037 248.876219 
L 380.432869 248.876219 
L 380.562757 248.754834 
L 380.757589 248.754834 
L 380.95242 248.512064 
L 381.082308 248.512064 
L 381.212196 248.390679 
L 381.342084 248.390679 
L 381.666803 247.90514 
L 381.861635 247.90514 
L 381.991523 247.66237 
L 382.316242 247.66237 
L 382.511074 247.419601 
L 382.576018 247.419601 
L 382.900737 246.934061 
L 383.030625 246.934061 
L 383.485232 246.205752 
L 383.61512 246.205752 
L 383.809952 245.962982 
L 384.004784 245.962982 
L 384.134671 245.720213 
L 384.199615 245.720213 
L 384.524335 244.749134 
L 384.589279 244.749134 
L 384.719166 244.627749 
L 384.849054 244.14221 
L 384.913998 244.14221 
L 385.043886 243.535285 
L 385.563437 242.442822 
L 385.758269 241.835898 
L 385.823213 241.835898 
L 386.018044 241.350358 
L 386.147932 241.228973 
L 386.27782 241.228973 
L 386.602539 240.379279 
L 386.927259 239.89374 
L 386.992203 239.89374 
L 387.122091 239.772355 
L 387.316922 239.044046 
L 387.44681 238.922661 
L 387.576698 238.922661 
L 387.77153 238.558507 
L 388.031305 238.194352 
L 388.161193 238.194352 
L 388.291081 238.072967 
L 388.420969 238.072967 
L 388.875576 236.737734 
L 388.94052 236.737734 
L 389.395127 235.766655 
L 389.589959 235.038346 
L 389.719847 235.038346 
L 389.914678 234.431422 
L 389.979622 234.431422 
L 390.174454 233.945883 
L 390.369285 233.460343 
L 391.927939 227.87664 
L 391.992883 227.87664 
L 392.122771 227.633871 
L 392.187715 227.633871 
L 392.317602 227.269716 
L 392.512434 226.298637 
L 392.577378 226.298637 
L 392.837154 224.842019 
L 392.967041 224.842019 
L 393.161873 224.35648 
L 393.356705 223.264016 
L 393.421649 223.264016 
L 393.681424 221.443243 
L 393.746368 221.443243 
L 393.876256 220.714934 
L 394.006144 220.714934 
L 394.200975 220.229395 
L 394.265919 220.229395 
L 394.460751 218.894162 
L 394.590639 218.530007 
L 395.305022 216.223695 
L 395.369966 216.10231 
L 395.564797 215.616771 
L 395.629741 215.495386 
L 395.824573 214.645692 
L 395.889517 214.645692 
L 396.084349 213.795998 
L 396.27918 211.611071 
L 396.344124 211.489686 
L 396.798731 209.547528 
L 396.928619 209.183374 
L 397.123451 206.634292 
L 397.188395 206.270137 
L 397.383226 203.721056 
L 397.902778 194.859962 
L 398.097609 172.28238 
L 398.292441 160.386665 
L 398.357385 159.779741 
L 398.487273 53.568 
L 398.487273 53.568 
" clip-path="url(#p3eec02ce67)" style="fill: none; stroke: #ff7f0e; stroke-width: 1.5; stroke-linecap: square"/>
   </g>
   <g id="patch_3">
    <path d="M 57.6 307.584 
L 57.6 41.472 
" style="fill: none; stroke: #000000; stroke-width: 0.8; stroke-linejoin: miter; stroke-linecap: square"/>
   </g>
   <g id="patch_4">
    <path d="M 414.72 307.584 
L 414.72 41.472 
" style="fill: none; stroke: #000000; stroke-width: 0.8; stroke-linejoin: miter; stroke-linecap: square"/>
   </g>
   <g id="patch_5">
    <path d="M 57.6 307.584 
L 414.72 307.584 
" style="fill: none; stroke: #000000; stroke-width: 0.8; stroke-linejoin: miter; stroke-linecap: square"/>
   </g>
   <g id="patch_6">
    <path d="M 57.6 41.472 
L 414.72 41.472 
" style="fill: none; stroke: #000000; stroke-width: 0.8; stroke-linejoin: miter; stroke-linecap: square"/>
   </g>
   <g id="text_18">
    <!-- pointer array existence test -->
    <g transform="translate(152.955938 35.472) scale(0.12 -0.12)">
     <defs>
      <path id="DejaVuSans-70" d="M 1159 525 
L 1159 -1331 
L 581 -1331 
L 581 3500 
L 1159 3500 
L 1159 2969 
Q 1341 3281 1617 3432 
Q 1894 3584 2278 3584 
Q 2916 3584 3314 3078 
Q 3713 2572 3713 1747 
Q 3713 922 3314 415 
Q 2916 -91 2278 -91 
Q 1894 -91 1617 61 
Q 1341 213 1159 525 
z
M 3116 1747 
Q 3116 2381 2855 2742 
Q 2594 3103 2138 3103 
Q 1681 3103 1420 2742 
Q 1159 2381 1159 1747 
Q 1159 1113 1420 752 
Q 1681 391 2138 391 
Q 2594 391 2855 752 
Q 3116 1113 3116 1747 
z
" transform="scale(0.015625)"/>
      <path id="DejaVuSans-6f" d="M 1959 3097 
Q 1497 3097 1228 2736 
Q 959 2375 959 1747 
Q 959 1119 1226 758 
Q 1494 397 1959 397 
Q 2419 397 2687 759 
Q 2956 1122 2956 1747 
Q 2956 2369 2687 2733 
Q 2419 3097 1959 3097 
z
M 1959 3584 
Q 2709 3584 3137 3096 
Q 3566 2609 3566 1747 
Q 3566 888 3137 398 
Q 2709 -91 1959 -91 
Q 1206 -91 779 398 
Q 353 888 353 1747 
Q 353 2609 779 3096 
Q 1206 3584 1959 3584 
z
" transform="scale(0.015625)"/>
      <path id="DejaVuSans-79" d="M 2059 -325 
Q 1816 -950 1584 -1140 
Q 1353 -1331 966 -1331 
L 506 -1331 
L 506 -850 
L 844 -850 
Q 1081 -850 1212 -737 
Q 1344 -625 1503 -206 
L 1606 56 
L 191 3500 
L 800 3500 
L 1894 763 
L 2988 3500 
L 3597 3500 
L 2059 -325 
z
" transform="scale(0.015625)"/>
      <path id="DejaVuSans-78" d="M 3513 3500 
L 2247 1797 
L 3578 0 
L 2900 0 
L 1881 1375 
L 863 0 
L 184 0 
L 1544 1831 
L 300 3500 
L 978 3500 
L 1906 2253 
L 2834 3500 
L 3513 3500 
z
" transform="scale(0.015625)"/>
      <path id="DejaVuSans-63" d="M 3122 3366 
L 3122 2828 
Q 2878 2963 2633 3030 
Q 2388 3097 2138 3097 
Q 1578 3097 1268 2742 
Q 959 2388 959 1747 
Q 959 1106 1268 751 
Q 1578 397 2138 397 
Q 2388 397 2633 464 
Q 2878 531 3122 666 
L 3122 134 
Q 2881 22 2623 -34 
Q 2366 -91 2075 -91 
Q 1284 -91 818 406 
Q 353 903 353 1747 
Q 353 2603 823 3093 
Q 1294 3584 2113 3584 
Q 2378 3584 2631 3529 
Q 2884 3475 3122 3366 
z
" transform="scale(0.015625)"/>
     </defs>
     <use xlink:href="#DejaVuSans-70"/>
     <use xlink:href="#DejaVuSans-6f" x="63.476562"/>
     <use xlink:href="#DejaVuSans-69" x="124.658203"/>
     <use xlink:href="#DejaVuSans-6e" x="152.441406"/>
     <use xlink:href="#DejaVuSans-74" x="215.820312"/>
     <use xlink:href="#DejaVuSans-65" x="255.029297"/>
     <use xlink:href="#DejaVuSans-72" x="316.552734"/>
     <use xlink:href="#DejaVuSans-20" x="357.666016"/>
     <use xlink:href="#DejaVuSans-61" x="389.453125"/>
     <use xlink:href="#DejaVuSans-72" x="450.732422"/>
     <use xlink:href="#DejaVuSans-72" x="490.095703"/>
     <use xlink:href="#DejaVuSans-61" x="531.208984"/>
     <use xlink:href="#DejaVuSans-79" x="592.488281"/>
     <use xlink:href="#DejaVuSans-20" x="651.667969"/>
     <use xlink:href="#DejaVuSans-65" x="683.455078"/>
     <use xlink:href="#DejaVuSans-78" x="743.228516"/>
     <use xlink:href="#DejaVuSans-69" x="802.408203"/>
     <use xlink:href="#DejaVuSans-73" x="830.191406"/>
     <use xlink:href="#DejaVuSans-74" x="882.291016"/>
     <use xlink:href="#DejaVuSans-65" x="921.5"/>
     <use xlink:href="#DejaVuSans-6e" x="983.023438"/>
     <use xlink:href="#DejaVuSans-63" x="1046.402344"/>
     <use xlink:href="#DejaVuSans-65" x="1101.382812"/>
     <use xlink:href="#DejaVuSans-20" x="1162.90625"/>
     <use xlink:href="#DejaVuSans-74" x="1194.693359"/>
     <use xlink:href="#DejaVuSans-65" x="1233.902344"/>
     <use xlink:href="#DejaVuSans-73" x="1295.425781"/>
     <use xlink:href="#DejaVuSans-74" x="1347.525391"/>
    </g>
   </g>
   <g id="legend_1">
    <g id="patch_7">
     <path d="M 64.6 78.82825 
L 166.359375 78.82825 
Q 168.359375 78.82825 168.359375 76.82825 
L 168.359375 48.472 
Q 168.359375 46.472 166.359375 46.472 
L 64.6 46.472 
Q 62.6 46.472 62.6 48.472 
L 62.6 76.82825 
Q 62.6 78.82825 64.6 78.82825 
z
" style="fill: #ffffff; opacity: 0.8; stroke: #cccccc; stroke-linejoin: miter"/>
    </g>
    <g id="line2d_18">
     <path d="M 66.6 54.570437 
L 76.6 54.570437 
L 86.6 54.570437 
" style="fill: none; stroke: #1f77b4; stroke-width: 1.5; stroke-linecap: square"/>
    </g>
    <g id="text_19">
     <!-- measurement -->
     <g transform="translate(94.6 58.070437) scale(0.1 -0.1)">
      <use xlink:href="#DejaVuSans-6d"/>
      <use xlink:href="#DejaVuSans-65" x="97.412109"/>
      <use xlink:href="#DejaVuSans-61" x="158.935547"/>
      <use xlink:href="#DejaVuSans-73" x="220.214844"/>
      <use xlink:href="#DejaVuSans-75" x="272.314453"/>
      <use xlink:href="#DejaVuSans-72" x="335.693359"/>
      <use xlink:href="#DejaVuSans-65" x="374.556641"/>
      <use xlink:href="#DejaVuSans-6d" x="436.080078"/>
      <use xlink:href="#DejaVuSans-65" x="533.492188"/>
      <use xlink:href="#DejaVuSans-6e" x="595.015625"/>
      <use xlink:href="#DejaVuSans-74" x="658.394531"/>
     </g>
    </g>
    <g id="line2d_19">
     <path d="M 66.6 69.248562 
L 76.6 69.248562 
L 86.6 69.248562 
" style="fill: none; stroke: #ff7f0e; stroke-width: 1.5; stroke-linecap: square"/>
    </g>
    <g id="text_20">
     <!-- reference -->
     <g transform="translate(94.6 72.748562) scale(0.1 -0.1)">
      <defs>
       <path id="DejaVuSans-66" d="M 2375 4863 
L 2375 4384 
L 1825 4384 
Q 1516 4384 1395 4259 
Q 1275 4134 1275 3809 
L 1275 3500 
L 2222 3500 
L 2222 3053 
L 1275 3053 
L 1275 0 
L 697 0 
L 697 3053 
L 147 3053 
L 147 3500 
L 697 3500 
L 697 3744 
Q 697 4328 969 4595 
Q 1241 4863 1831 4863 
L 2375 4863 
z
" transform="scale(0.015625)"/>
      </defs>
      <use xlink:href="#DejaVuSans-72"/>
      <use xlink:href="#DejaVuSans-65" x="38.863281"/>
      <use xlink:href="#DejaVuSans-66" x="100.386719"/>
      <use xlink:href="#DejaVuSans-65" x="135.591797"/>
      <use xlink:href="#DejaVuSans-72" x="197.115234"/>
      <use xlink:href="#DejaVuSans-65" x="235.978516"/>
      <use xlink:href="#DejaVuSans-6e" x="297.501953"/>
      <use xlink:href="#DejaVuSans-63" x="360.880859"/>
      <use xlink:href="#DejaVuSans-65" x="415.861328"/>
     </g>
    </g>
   </g>
  </g>
 </g>
 <defs>
  <clipPath id="p3eec02ce67">
   <rect x="57.6" y="41.472" width="357.12" height="266.112"/>
  </clipPath>
 </defs>
</svg>
