<?xml version="1.0" encoding="utf-8" standalone="no"?>
<!DOCTYPE svg PUBLIC "-//W3C//DTD SVG 1.1//EN"
  "http://www.w3.org/Graphics/SVG/1.1/DTD/svg11.dtd">
<svg xmlns:xlink="http://www.w3.org/1999/xlink" width="460.8pt" height="345.6pt" viewBox="0 0 460.8 345.6" xmlns="http://www.w3.org/2000/svg" version="1.1">
 <metadata>
  <rdf:RDF xmlns:dc="http://purl.org/dc/elements/1.1/" xmlns:cc="http://creativecommons.org/ns#" xmlns:rdf="http://www.w3.org/1999/02/22-rdf-syntax-ns#">
   <cc:Work>
    <dc:type rdf:resource="http://purl.org/dc/dcmitype/StillImage"/>
    <dc:date>2024-10-04T16:13:10.580585</dc:date>
    <dc:format>image/svg+xml</dc:format>
    <dc:creator>
     <cc:Agent>
      <dc:title>Matplotlib v3.6.3, https://matplotlib.org/</dc:title>
     </cc:Agent>
    </dc:creator>
   </cc:Work>
  </rdf:RDF>
 </metadata>
 <defs>
  <style type="text/css">*{stroke-linejoin: round; stroke-linecap: butt}</style>
 </defs>
 <g id="figure_1">
  <g id="patch_1">
   <path d="M 0 345.6 
L 460.8 345.6 
L 460.8 0 
L 0 0 
z
" style="fill: #ffffff"/>
  </g>
  <g id="axes_1">
   <g id="patch_2">
    <path d="M 57.6 307.584 
L 414.72 307.584 
L 414.72 41.472 
L 57.6 41.472 
z
" style="fill: #ffffff"/>
   </g>
   <g id="matplotlib.axis_1">
    <g id="xtick_1">
     <g id="line2d_1">
      <defs>
       <path id="mcf03ccacdf" d="M 0 0 
L 0 3.5 
" style="stroke: #000000; stroke-width: 0.8"/>
      </defs>
      <g>
       <use xlink:href="#mcf03ccacdf" x="73.832727" y="307.584" style="stroke: #000000; stroke-width: 0.8"/>
      </g>
     </g>
     <g id="text_1">
      <!-- 0 -->
      <g transform="translate(70.651477 322.182437) scale(0.1 -0.1)">
       <defs>
        <path id="DejaVuSans-30" d="M 2034 4250 
Q 1547 4250 1301 3770 
Q 1056 3291 1056 2328 
Q 1056 1369 1301 889 
Q 1547 409 2034 409 
Q 2525 409 2770 889 
Q 3016 1369 3016 2328 
Q 3016 3291 2770 3770 
Q 2525 4250 2034 4250 
z
M 2034 4750 
Q 2819 4750 3233 4129 
Q 3647 3509 3647 2328 
Q 3647 1150 3233 529 
Q 2819 -91 2034 -91 
Q 1250 -91 836 529 
Q 422 1150 422 2328 
Q 422 3509 836 4129 
Q 1250 4750 2034 4750 
z
" transform="scale(0.015625)"/>
       </defs>
       <use xlink:href="#DejaVuSans-30"/>
      </g>
     </g>
    </g>
    <g id="xtick_2">
     <g id="line2d_2">
      <g>
       <use xlink:href="#mcf03ccacdf" x="138.776625" y="307.584" style="stroke: #000000; stroke-width: 0.8"/>
      </g>
     </g>
     <g id="text_2">
      <!-- 1000 -->
      <g transform="translate(126.051625 322.182437) scale(0.1 -0.1)">
       <defs>
        <path id="DejaVuSans-31" d="M 794 531 
L 1825 531 
L 1825 4091 
L 703 3866 
L 703 4441 
L 1819 4666 
L 2450 4666 
L 2450 531 
L 3481 531 
L 3481 0 
L 794 0 
L 794 531 
z
" transform="scale(0.015625)"/>
       </defs>
       <use xlink:href="#DejaVuSans-31"/>
       <use xlink:href="#DejaVuSans-30" x="63.623047"/>
       <use xlink:href="#DejaVuSans-30" x="127.246094"/>
       <use xlink:href="#DejaVuSans-30" x="190.869141"/>
      </g>
     </g>
    </g>
    <g id="xtick_3">
     <g id="line2d_3">
      <g>
       <use xlink:href="#mcf03ccacdf" x="203.720523" y="307.584" style="stroke: #000000; stroke-width: 0.8"/>
      </g>
     </g>
     <g id="text_3">
      <!-- 2000 -->
      <g transform="translate(190.995523 322.182437) scale(0.1 -0.1)">
       <defs>
        <path id="DejaVuSans-32" d="M 1228 531 
L 3431 531 
L 3431 0 
L 469 0 
L 469 531 
Q 828 903 1448 1529 
Q 2069 2156 2228 2338 
Q 2531 2678 2651 2914 
Q 2772 3150 2772 3378 
Q 2772 3750 2511 3984 
Q 2250 4219 1831 4219 
Q 1534 4219 1204 4116 
Q 875 4013 500 3803 
L 500 4441 
Q 881 4594 1212 4672 
Q 1544 4750 1819 4750 
Q 2544 4750 2975 4387 
Q 3406 4025 3406 3419 
Q 3406 3131 3298 2873 
Q 3191 2616 2906 2266 
Q 2828 2175 2409 1742 
Q 1991 1309 1228 531 
z
" transform="scale(0.015625)"/>
       </defs>
       <use xlink:href="#DejaVuSans-32"/>
       <use xlink:href="#DejaVuSans-30" x="63.623047"/>
       <use xlink:href="#DejaVuSans-30" x="127.246094"/>
       <use xlink:href="#DejaVuSans-30" x="190.869141"/>
      </g>
     </g>
    </g>
    <g id="xtick_4">
     <g id="line2d_4">
      <g>
       <use xlink:href="#mcf03ccacdf" x="268.664421" y="307.584" style="stroke: #000000; stroke-width: 0.8"/>
      </g>
     </g>
     <g id="text_4">
      <!-- 3000 -->
      <g transform="translate(255.939421 322.182437) scale(0.1 -0.1)">
       <defs>
        <path id="DejaVuSans-33" d="M 2597 2516 
Q 3050 2419 3304 2112 
Q 3559 1806 3559 1356 
Q 3559 666 3084 287 
Q 2609 -91 1734 -91 
Q 1441 -91 1130 -33 
Q 819 25 488 141 
L 488 750 
Q 750 597 1062 519 
Q 1375 441 1716 441 
Q 2309 441 2620 675 
Q 2931 909 2931 1356 
Q 2931 1769 2642 2001 
Q 2353 2234 1838 2234 
L 1294 2234 
L 1294 2753 
L 1863 2753 
Q 2328 2753 2575 2939 
Q 2822 3125 2822 3475 
Q 2822 3834 2567 4026 
Q 2313 4219 1838 4219 
Q 1578 4219 1281 4162 
Q 984 4106 628 3988 
L 628 4550 
Q 988 4650 1302 4700 
Q 1616 4750 1894 4750 
Q 2613 4750 3031 4423 
Q 3450 4097 3450 3541 
Q 3450 3153 3228 2886 
Q 3006 2619 2597 2516 
z
" transform="scale(0.015625)"/>
       </defs>
       <use xlink:href="#DejaVuSans-33"/>
       <use xlink:href="#DejaVuSans-30" x="63.623047"/>
       <use xlink:href="#DejaVuSans-30" x="127.246094"/>
       <use xlink:href="#DejaVuSans-30" x="190.869141"/>
      </g>
     </g>
    </g>
    <g id="xtick_5">
     <g id="line2d_5">
      <g>
       <use xlink:href="#mcf03ccacdf" x="333.608319" y="307.584" style="stroke: #000000; stroke-width: 0.8"/>
      </g>
     </g>
     <g id="text_5">
      <!-- 4000 -->
      <g transform="translate(320.883319 322.182437) scale(0.1 -0.1)">
       <defs>
        <path id="DejaVuSans-34" d="M 2419 4116 
L 825 1625 
L 2419 1625 
L 2419 4116 
z
M 2253 4666 
L 3047 4666 
L 3047 1625 
L 3713 1625 
L 3713 1100 
L 3047 1100 
L 3047 0 
L 2419 0 
L 2419 1100 
L 313 1100 
L 313 1709 
L 2253 4666 
z
" transform="scale(0.015625)"/>
       </defs>
       <use xlink:href="#DejaVuSans-34"/>
       <use xlink:href="#DejaVuSans-30" x="63.623047"/>
       <use xlink:href="#DejaVuSans-30" x="127.246094"/>
       <use xlink:href="#DejaVuSans-30" x="190.869141"/>
      </g>
     </g>
    </g>
    <g id="xtick_6">
     <g id="line2d_6">
      <g>
       <use xlink:href="#mcf03ccacdf" x="398.552217" y="307.584" style="stroke: #000000; stroke-width: 0.8"/>
      </g>
     </g>
     <g id="text_6">
      <!-- 5000 -->
      <g transform="translate(385.827217 322.182437) scale(0.1 -0.1)">
       <defs>
        <path id="DejaVuSans-35" d="M 691 4666 
L 3169 4666 
L 3169 4134 
L 1269 4134 
L 1269 2991 
Q 1406 3038 1543 3061 
Q 1681 3084 1819 3084 
Q 2600 3084 3056 2656 
Q 3513 2228 3513 1497 
Q 3513 744 3044 326 
Q 2575 -91 1722 -91 
Q 1428 -91 1123 -41 
Q 819 9 494 109 
L 494 744 
Q 775 591 1075 516 
Q 1375 441 1709 441 
Q 2250 441 2565 725 
Q 2881 1009 2881 1497 
Q 2881 1984 2565 2268 
Q 2250 2553 1709 2553 
Q 1456 2553 1204 2497 
Q 953 2441 691 2322 
L 691 4666 
z
" transform="scale(0.015625)"/>
       </defs>
       <use xlink:href="#DejaVuSans-35"/>
       <use xlink:href="#DejaVuSans-30" x="63.623047"/>
       <use xlink:href="#DejaVuSans-30" x="127.246094"/>
       <use xlink:href="#DejaVuSans-30" x="190.869141"/>
      </g>
     </g>
    </g>
    <g id="text_7">
     <!-- measurement # -->
     <g transform="translate(195.501406 335.860562) scale(0.1 -0.1)">
      <defs>
       <path id="DejaVuSans-6d" d="M 3328 2828 
Q 3544 3216 3844 3400 
Q 4144 3584 4550 3584 
Q 5097 3584 5394 3201 
Q 5691 2819 5691 2113 
L 5691 0 
L 5113 0 
L 5113 2094 
Q 5113 2597 4934 2840 
Q 4756 3084 4391 3084 
Q 3944 3084 3684 2787 
Q 3425 2491 3425 1978 
L 3425 0 
L 2847 0 
L 2847 2094 
Q 2847 2600 2669 2842 
Q 2491 3084 2119 3084 
Q 1678 3084 1418 2786 
Q 1159 2488 1159 1978 
L 1159 0 
L 581 0 
L 581 3500 
L 1159 3500 
L 1159 2956 
Q 1356 3278 1631 3431 
Q 1906 3584 2284 3584 
Q 2666 3584 2933 3390 
Q 3200 3197 3328 2828 
z
" transform="scale(0.015625)"/>
       <path id="DejaVuSans-65" d="M 3597 1894 
L 3597 1613 
L 953 1613 
Q 991 1019 1311 708 
Q 1631 397 2203 397 
Q 2534 397 2845 478 
Q 3156 559 3463 722 
L 3463 178 
Q 3153 47 2828 -22 
Q 2503 -91 2169 -91 
Q 1331 -91 842 396 
Q 353 884 353 1716 
Q 353 2575 817 3079 
Q 1281 3584 2069 3584 
Q 2775 3584 3186 3129 
Q 3597 2675 3597 1894 
z
M 3022 2063 
Q 3016 2534 2758 2815 
Q 2500 3097 2075 3097 
Q 1594 3097 1305 2825 
Q 1016 2553 972 2059 
L 3022 2063 
z
" transform="scale(0.015625)"/>
       <path id="DejaVuSans-61" d="M 2194 1759 
Q 1497 1759 1228 1600 
Q 959 1441 959 1056 
Q 959 750 1161 570 
Q 1363 391 1709 391 
Q 2188 391 2477 730 
Q 2766 1069 2766 1631 
L 2766 1759 
L 2194 1759 
z
M 3341 1997 
L 3341 0 
L 2766 0 
L 2766 531 
Q 2569 213 2275 61 
Q 1981 -91 1556 -91 
Q 1019 -91 701 211 
Q 384 513 384 1019 
Q 384 1609 779 1909 
Q 1175 2209 1959 2209 
L 2766 2209 
L 2766 2266 
Q 2766 2663 2505 2880 
Q 2244 3097 1772 3097 
Q 1472 3097 1187 3025 
Q 903 2953 641 2809 
L 641 3341 
Q 956 3463 1253 3523 
Q 1550 3584 1831 3584 
Q 2591 3584 2966 3190 
Q 3341 2797 3341 1997 
z
" transform="scale(0.015625)"/>
       <path id="DejaVuSans-73" d="M 2834 3397 
L 2834 2853 
Q 2591 2978 2328 3040 
Q 2066 3103 1784 3103 
Q 1356 3103 1142 2972 
Q 928 2841 928 2578 
Q 928 2378 1081 2264 
Q 1234 2150 1697 2047 
L 1894 2003 
Q 2506 1872 2764 1633 
Q 3022 1394 3022 966 
Q 3022 478 2636 193 
Q 2250 -91 1575 -91 
Q 1294 -91 989 -36 
Q 684 19 347 128 
L 347 722 
Q 666 556 975 473 
Q 1284 391 1588 391 
Q 1994 391 2212 530 
Q 2431 669 2431 922 
Q 2431 1156 2273 1281 
Q 2116 1406 1581 1522 
L 1381 1569 
Q 847 1681 609 1914 
Q 372 2147 372 2553 
Q 372 3047 722 3315 
Q 1072 3584 1716 3584 
Q 2034 3584 2315 3537 
Q 2597 3491 2834 3397 
z
" transform="scale(0.015625)"/>
       <path id="DejaVuSans-75" d="M 544 1381 
L 544 3500 
L 1119 3500 
L 1119 1403 
Q 1119 906 1312 657 
Q 1506 409 1894 409 
Q 2359 409 2629 706 
Q 2900 1003 2900 1516 
L 2900 3500 
L 3475 3500 
L 3475 0 
L 2900 0 
L 2900 538 
Q 2691 219 2414 64 
Q 2138 -91 1772 -91 
Q 1169 -91 856 284 
Q 544 659 544 1381 
z
M 1991 3584 
L 1991 3584 
z
" transform="scale(0.015625)"/>
       <path id="DejaVuSans-72" d="M 2631 2963 
Q 2534 3019 2420 3045 
Q 2306 3072 2169 3072 
Q 1681 3072 1420 2755 
Q 1159 2438 1159 1844 
L 1159 0 
L 581 0 
L 581 3500 
L 1159 3500 
L 1159 2956 
Q 1341 3275 1631 3429 
Q 1922 3584 2338 3584 
Q 2397 3584 2469 3576 
Q 2541 3569 2628 3553 
L 2631 2963 
z
" transform="scale(0.015625)"/>
       <path id="DejaVuSans-6e" d="M 3513 2113 
L 3513 0 
L 2938 0 
L 2938 2094 
Q 2938 2591 2744 2837 
Q 2550 3084 2163 3084 
Q 1697 3084 1428 2787 
Q 1159 2491 1159 1978 
L 1159 0 
L 581 0 
L 581 3500 
L 1159 3500 
L 1159 2956 
Q 1366 3272 1645 3428 
Q 1925 3584 2291 3584 
Q 2894 3584 3203 3211 
Q 3513 2838 3513 2113 
z
" transform="scale(0.015625)"/>
       <path id="DejaVuSans-74" d="M 1172 4494 
L 1172 3500 
L 2356 3500 
L 2356 3053 
L 1172 3053 
L 1172 1153 
Q 1172 725 1289 603 
Q 1406 481 1766 481 
L 2356 481 
L 2356 0 
L 1766 0 
Q 1100 0 847 248 
Q 594 497 594 1153 
L 594 3053 
L 172 3053 
L 172 3500 
L 594 3500 
L 594 4494 
L 1172 4494 
z
" transform="scale(0.015625)"/>
       <path id="DejaVuSans-20" transform="scale(0.015625)"/>
       <path id="DejaVuSans-23" d="M 3272 2816 
L 2363 2816 
L 2100 1772 
L 3016 1772 
L 3272 2816 
z
M 2803 4594 
L 2478 3297 
L 3391 3297 
L 3719 4594 
L 4219 4594 
L 3897 3297 
L 4872 3297 
L 4872 2816 
L 3775 2816 
L 3519 1772 
L 4513 1772 
L 4513 1294 
L 3397 1294 
L 3072 0 
L 2572 0 
L 2894 1294 
L 1978 1294 
L 1656 0 
L 1153 0 
L 1478 1294 
L 494 1294 
L 494 1772 
L 1594 1772 
L 1856 2816 
L 850 2816 
L 850 3297 
L 1978 3297 
L 2297 4594 
L 2803 4594 
z
" transform="scale(0.015625)"/>
      </defs>
      <use xlink:href="#DejaVuSans-6d"/>
      <use xlink:href="#DejaVuSans-65" x="97.412109"/>
      <use xlink:href="#DejaVuSans-61" x="158.935547"/>
      <use xlink:href="#DejaVuSans-73" x="220.214844"/>
      <use xlink:href="#DejaVuSans-75" x="272.314453"/>
      <use xlink:href="#DejaVuSans-72" x="335.693359"/>
      <use xlink:href="#DejaVuSans-65" x="374.556641"/>
      <use xlink:href="#DejaVuSans-6d" x="436.080078"/>
      <use xlink:href="#DejaVuSans-65" x="533.492188"/>
      <use xlink:href="#DejaVuSans-6e" x="595.015625"/>
      <use xlink:href="#DejaVuSans-74" x="658.394531"/>
      <use xlink:href="#DejaVuSans-20" x="697.603516"/>
      <use xlink:href="#DejaVuSans-23" x="729.390625"/>
     </g>
    </g>
   </g>
   <g id="matplotlib.axis_2">
    <g id="ytick_1">
     <g id="line2d_7">
      <defs>
       <path id="m6c2240d79c" d="M 0 0 
L -3.5 0 
" style="stroke: #000000; stroke-width: 0.8"/>
      </defs>
      <g>
       <use xlink:href="#m6c2240d79c" x="57.6" y="288.393572" style="stroke: #000000; stroke-width: 0.8"/>
      </g>
     </g>
     <g id="text_8">
      <!-- 100 -->
      <g transform="translate(31.5125 292.192791) scale(0.1 -0.1)">
       <use xlink:href="#DejaVuSans-31"/>
       <use xlink:href="#DejaVuSans-30" x="63.623047"/>
       <use xlink:href="#DejaVuSans-30" x="127.246094"/>
      </g>
     </g>
    </g>
    <g id="ytick_2">
     <g id="line2d_8">
      <g>
       <use xlink:href="#m6c2240d79c" x="57.6" y="252.921431" style="stroke: #000000; stroke-width: 0.8"/>
      </g>
     </g>
     <g id="text_9">
      <!-- 200 -->
      <g transform="translate(31.5125 256.72065) scale(0.1 -0.1)">
       <use xlink:href="#DejaVuSans-32"/>
       <use xlink:href="#DejaVuSans-30" x="63.623047"/>
       <use xlink:href="#DejaVuSans-30" x="127.246094"/>
      </g>
     </g>
    </g>
    <g id="ytick_3">
     <g id="line2d_9">
      <g>
       <use xlink:href="#m6c2240d79c" x="57.6" y="217.44929" style="stroke: #000000; stroke-width: 0.8"/>
      </g>
     </g>
     <g id="text_10">
      <!-- 300 -->
      <g transform="translate(31.5125 221.248509) scale(0.1 -0.1)">
       <use xlink:href="#DejaVuSans-33"/>
       <use xlink:href="#DejaVuSans-30" x="63.623047"/>
       <use xlink:href="#DejaVuSans-30" x="127.246094"/>
      </g>
     </g>
    </g>
    <g id="ytick_4">
     <g id="line2d_10">
      <g>
       <use xlink:href="#m6c2240d79c" x="57.6" y="181.97715" style="stroke: #000000; stroke-width: 0.8"/>
      </g>
     </g>
     <g id="text_11">
      <!-- 400 -->
      <g transform="translate(31.5125 185.776368) scale(0.1 -0.1)">
       <use xlink:href="#DejaVuSans-34"/>
       <use xlink:href="#DejaVuSans-30" x="63.623047"/>
       <use xlink:href="#DejaVuSans-30" x="127.246094"/>
      </g>
     </g>
    </g>
    <g id="ytick_5">
     <g id="line2d_11">
      <g>
       <use xlink:href="#m6c2240d79c" x="57.6" y="146.505009" style="stroke: #000000; stroke-width: 0.8"/>
      </g>
     </g>
     <g id="text_12">
      <!-- 500 -->
      <g transform="translate(31.5125 150.304228) scale(0.1 -0.1)">
       <use xlink:href="#DejaVuSans-35"/>
       <use xlink:href="#DejaVuSans-30" x="63.623047"/>
       <use xlink:href="#DejaVuSans-30" x="127.246094"/>
      </g>
     </g>
    </g>
    <g id="ytick_6">
     <g id="line2d_12">
      <g>
       <use xlink:href="#m6c2240d79c" x="57.6" y="111.032868" style="stroke: #000000; stroke-width: 0.8"/>
      </g>
     </g>
     <g id="text_13">
      <!-- 600 -->
      <g transform="translate(31.5125 114.832087) scale(0.1 -0.1)">
       <defs>
        <path id="DejaVuSans-36" d="M 2113 2584 
Q 1688 2584 1439 2293 
Q 1191 2003 1191 1497 
Q 1191 994 1439 701 
Q 1688 409 2113 409 
Q 2538 409 2786 701 
Q 3034 994 3034 1497 
Q 3034 2003 2786 2293 
Q 2538 2584 2113 2584 
z
M 3366 4563 
L 3366 3988 
Q 3128 4100 2886 4159 
Q 2644 4219 2406 4219 
Q 1781 4219 1451 3797 
Q 1122 3375 1075 2522 
Q 1259 2794 1537 2939 
Q 1816 3084 2150 3084 
Q 2853 3084 3261 2657 
Q 3669 2231 3669 1497 
Q 3669 778 3244 343 
Q 2819 -91 2113 -91 
Q 1303 -91 875 529 
Q 447 1150 447 2328 
Q 447 3434 972 4092 
Q 1497 4750 2381 4750 
Q 2619 4750 2861 4703 
Q 3103 4656 3366 4563 
z
" transform="scale(0.015625)"/>
       </defs>
       <use xlink:href="#DejaVuSans-36"/>
       <use xlink:href="#DejaVuSans-30" x="63.623047"/>
       <use xlink:href="#DejaVuSans-30" x="127.246094"/>
      </g>
     </g>
    </g>
    <g id="ytick_7">
     <g id="line2d_13">
      <g>
       <use xlink:href="#m6c2240d79c" x="57.6" y="75.560727" style="stroke: #000000; stroke-width: 0.8"/>
      </g>
     </g>
     <g id="text_14">
      <!-- 700 -->
      <g transform="translate(31.5125 79.359946) scale(0.1 -0.1)">
       <defs>
        <path id="DejaVuSans-37" d="M 525 4666 
L 3525 4666 
L 3525 4397 
L 1831 0 
L 1172 0 
L 2766 4134 
L 525 4134 
L 525 4666 
z
" transform="scale(0.015625)"/>
       </defs>
       <use xlink:href="#DejaVuSans-37"/>
       <use xlink:href="#DejaVuSans-30" x="63.623047"/>
       <use xlink:href="#DejaVuSans-30" x="127.246094"/>
      </g>
     </g>
    </g>
    <g id="text_15">
     <!-- time -->
     <g transform="translate(25.432812 185.824094) rotate(-90) scale(0.1 -0.1)">
      <defs>
       <path id="DejaVuSans-69" d="M 603 3500 
L 1178 3500 
L 1178 0 
L 603 0 
L 603 3500 
z
M 603 4863 
L 1178 4863 
L 1178 4134 
L 603 4134 
L 603 4863 
z
" transform="scale(0.015625)"/>
      </defs>
      <use xlink:href="#DejaVuSans-74"/>
      <use xlink:href="#DejaVuSans-69" x="39.208984"/>
      <use xlink:href="#DejaVuSans-6d" x="66.992188"/>
      <use xlink:href="#DejaVuSans-65" x="164.404297"/>
     </g>
    </g>
   </g>
   <g id="line2d_14">
    <path d="M 73.832727 295.133279 
L 73.897671 295.133279 
L 74.027559 293.359672 
L 81.690939 293.359672 
L 81.820827 292.650229 
L 82.015658 292.650229 
L 82.275434 203.969877 
L 82.405322 203.615155 
L 82.470266 203.615155 
L 82.730041 202.550991 
L 83.37948 202.550991 
L 83.509368 202.19627 
L 85.197909 202.19627 
L 85.327797 201.841548 
L 88.639936 201.841548 
L 88.769824 201.486827 
L 92.21185 201.486827 
L 92.341738 201.132106 
L 93.770504 201.132106 
L 93.900392 200.777384 
L 95.978596 200.777384 
L 96.108484 200.422663 
L 100.329838 200.422663 
L 100.459725 200.067941 
L 103.577032 200.067941 
L 103.70692 199.71322 
L 105.720181 199.71322 
L 105.850069 199.358499 
L 107.408722 199.358499 
L 107.53861 199.003777 
L 111.565132 199.003777 
L 111.69502 198.649056 
L 117.994578 198.649056 
L 118.124466 198.294334 
L 124.229192 198.294334 
L 124.35908 197.939613 
L 127.736163 197.939613 
L 127.86605 197.584891 
L 130.918414 197.584891 
L 131.048301 197.23017 
L 136.633477 197.23017 
L 136.763364 196.875449 
L 144.751464 196.875449 
L 144.881352 196.520727 
L 148.777985 196.520727 
L 148.907873 196.166006 
L 149.946976 196.166006 
L 150.076863 195.811284 
L 151.505629 195.811284 
L 151.635517 195.456563 
L 155.207431 195.456563 
L 155.337319 195.101842 
L 157.675299 195.101842 
L 157.805187 194.74712 
L 160.143168 194.74712 
L 160.273055 194.392399 
L 162.091484 194.392399 
L 162.221372 194.037677 
L 166.50767 194.037677 
L 166.637557 193.682956 
L 169.495089 193.682956 
L 169.624977 193.328235 
L 171.703181 193.328235 
L 171.833069 192.973513 
L 172.092845 192.973513 
L 172.222733 192.618792 
L 172.742284 192.618792 
L 172.872172 192.26407 
L 174.820488 192.26407 
L 174.950376 191.909349 
L 179.886112 191.909349 
L 180.016 191.554628 
L 187.224773 191.554628 
L 187.354661 191.199906 
L 195.992199 191.199906 
L 196.122087 190.845185 
L 204.110186 190.845185 
L 204.240074 190.490463 
L 212.16323 190.490463 
L 212.293118 190.135742 
L 221.255375 190.135742 
L 221.385263 189.781021 
L 230.802128 189.781021 
L 230.932016 189.426299 
L 237.036743 189.426299 
L 237.16663 189.071578 
L 239.309779 189.071578 
L 239.439667 188.716856 
L 243.206413 188.716856 
L 243.336301 188.362135 
L 247.81743 188.362135 
L 247.947317 188.007413 
L 251.389344 188.007413 
L 251.519232 187.652692 
L 254.571595 187.652692 
L 254.701483 187.297971 
L 258.728005 187.297971 
L 258.857892 186.943249 
L 262.429807 186.943249 
L 262.559694 186.588528 
L 264.183292 186.588528 
L 264.31318 186.233806 
L 267.885094 186.233806 
L 268.014982 185.879085 
L 275.548474 185.879085 
L 275.678362 185.524364 
L 282.887135 185.524364 
L 283.017022 185.169642 
L 286.329161 185.169642 
L 286.459049 184.814921 
L 288.342422 184.814921 
L 288.47231 184.460199 
L 291.394785 184.460199 
L 291.524673 184.105478 
L 294.9667 184.105478 
L 295.096587 183.750757 
L 297.759287 183.750757 
L 297.889175 183.396035 
L 300.486931 183.396035 
L 300.616819 183.041314 
L 303.669182 183.041314 
L 303.79907 182.686592 
L 305.942218 182.686592 
L 306.072106 182.331871 
L 308.669862 182.331871 
L 308.79975 181.97715 
L 309.773908 181.97715 
L 309.903796 181.622428 
L 310.228516 181.622428 
L 310.358403 181.267707 
L 312.111889 181.267707 
L 312.241776 180.912985 
L 314.449869 180.912985 
L 314.579757 180.558264 
L 318.671222 180.558264 
L 318.80111 180.203543 
L 324.905836 180.203543 
L 325.035724 179.848821 
L 329.581797 179.848821 
L 329.711685 179.4941 
L 332.439329 179.4941 
L 332.569216 179.139378 
L 335.29686 179.139378 
L 335.426748 178.784657 
L 343.934399 178.784657 
L 344.064286 178.429935 
L 350.62362 178.429935 
L 350.753508 178.075214 
L 354.909917 178.075214 
L 355.039805 177.720493 
L 356.208795 177.720493 
L 356.338683 177.365771 
L 356.728346 177.365771 
L 356.858234 177.01105 
L 357.247898 177.01105 
L 357.377785 176.656328 
L 357.96228 176.656328 
L 358.092168 176.301607 
L 358.611719 176.301607 
L 358.741607 175.946886 
L 359.131271 175.946886 
L 359.261158 175.592164 
L 359.650822 175.592164 
L 359.78071 175.237443 
L 360.495092 175.237443 
L 360.62498 174.882721 
L 361.209475 174.882721 
L 361.339363 174.528 
L 361.534195 174.528 
L 361.664083 174.173279 
L 361.988802 174.173279 
L 362.11869 173.818557 
L 362.313522 173.818557 
L 362.443409 173.463836 
L 362.833073 173.463836 
L 362.962961 173.109114 
L 363.157792 173.109114 
L 363.28768 172.754393 
L 363.547456 172.754393 
L 363.677343 172.399672 
L 364.196895 172.399672 
L 364.326782 172.04495 
L 364.586558 172.04495 
L 364.716446 171.690229 
L 364.911278 171.690229 
L 365.041165 171.335507 
L 365.171053 171.335507 
L 365.300941 170.980786 
L 365.365885 170.980786 
L 365.495773 170.626065 
L 365.62566 170.626065 
L 365.755548 170.271343 
L 365.820492 170.271343 
L 365.95038 169.916622 
L 366.275099 169.916622 
L 366.469931 169.207179 
L 366.534875 169.207179 
L 366.664763 168.852457 
L 366.794651 168.852457 
L 366.924538 168.497736 
L 366.989482 168.497736 
L 367.184314 167.788293 
L 367.249258 167.788293 
L 367.379146 167.433572 
L 367.44409 167.433572 
L 367.638921 166.724129 
L 367.768809 166.724129 
L 367.898697 166.369408 
L 368.093529 166.369408 
L 368.223416 166.014686 
L 368.28836 166.014686 
L 368.418248 165.659965 
L 368.548136 165.659965 
L 368.807911 164.595801 
L 368.872855 164.595801 
L 369.197575 163.176915 
L 369.262519 163.176915 
L 369.522294 161.403308 
L 369.652182 161.048587 
L 369.717126 161.048587 
L 370.041845 158.565537 
L 370.236677 157.856094 
L 370.366565 156.437208 
L 370.496453 156.082487 
L 370.691284 153.244716 
L 370.756228 152.889994 
L 371.016004 150.052223 
L 371.27578 148.988059 
L 371.405667 148.988059 
L 372.12005 145.086123 
L 372.314882 142.603073 
L 372.639601 140.474745 
L 372.899377 138.346416 
L 372.964321 138.346416 
L 373.483872 131.60671 
L 374.587918 120.255625 
L 374.652862 120.255625 
L 374.847694 119.546182 
L 374.912638 119.546182 
L 375.302301 116.353689 
L 375.432189 116.353689 
L 375.562077 115.644246 
L 375.627021 115.644246 
L 375.756908 115.289525 
L 375.821852 115.289525 
L 376.016684 114.580082 
L 376.081628 114.580082 
L 376.211516 113.870639 
L 376.341404 113.870639 
L 376.471291 113.515918 
L 376.536235 113.515918 
L 376.666123 113.161196 
L 376.731067 113.161196 
L 377.055786 111.742311 
L 377.185674 111.742311 
L 377.315562 111.387589 
L 377.575338 111.387589 
L 377.705225 111.032868 
L 377.770169 111.032868 
L 377.900057 110.678147 
L 377.965001 110.678147 
L 378.094889 110.323425 
L 378.159833 110.323425 
L 378.28972 109.968704 
L 378.354664 109.968704 
L 378.549496 109.259261 
L 378.939159 109.259261 
L 379.069047 108.90454 
L 379.263879 108.90454 
L 379.393767 108.549818 
L 379.913318 108.549818 
L 380.043206 108.195097 
L 380.497813 108.195097 
L 380.627701 107.840375 
L 381.017364 107.840375 
L 381.147252 107.485654 
L 381.212196 107.485654 
L 381.342084 107.130933 
L 381.407028 107.130933 
L 381.536915 106.776211 
L 381.861635 106.776211 
L 381.991523 106.42149 
L 382.12141 106.42149 
L 382.251298 106.066768 
L 382.381186 106.066768 
L 382.511074 105.712047 
L 382.900737 105.712047 
L 383.030625 105.357326 
L 383.290401 105.357326 
L 383.420288 105.002604 
L 383.485232 105.002604 
L 383.61512 104.647883 
L 383.809952 104.647883 
L 383.93984 104.293161 
L 384.134671 104.293161 
L 384.264559 103.93844 
L 384.459391 103.93844 
L 384.589279 103.583718 
L 384.78411 103.583718 
L 384.913998 103.228997 
L 384.978942 103.228997 
L 385.10883 102.874276 
L 385.303661 102.874276 
L 385.433549 102.519554 
L 385.498493 102.519554 
L 385.628381 102.164833 
L 385.9531 102.164833 
L 386.082988 101.810111 
L 386.212876 101.810111 
L 386.407708 101.100669 
L 386.537596 101.100669 
L 386.732427 100.036504 
L 386.862315 100.036504 
L 386.992203 99.681783 
L 387.251978 99.681783 
L 387.381866 99.327062 
L 387.44681 99.327062 
L 387.576698 98.97234 
L 387.641642 98.97234 
L 387.77153 98.617619 
L 387.966361 98.617619 
L 388.096249 98.262897 
L 388.291081 98.262897 
L 388.420969 97.908176 
L 388.810632 97.908176 
L 388.94052 97.553455 
L 389.005464 97.553455 
L 389.265239 96.48929 
L 389.330183 96.48929 
L 389.525015 95.070405 
L 389.589959 95.070405 
L 389.849734 94.00624 
L 390.044566 94.00624 
L 390.499173 91.877912 
L 390.564117 91.877912 
L 390.823893 90.813748 
L 390.888837 90.813748 
L 391.083668 90.104305 
L 391.148612 90.104305 
L 391.343444 89.394862 
L 391.408388 89.394862 
L 391.538276 88.685419 
L 391.60322 88.685419 
L 391.798051 87.975977 
L 391.862995 87.975977 
L 392.317602 85.847648 
L 392.382546 85.847648 
L 392.577378 84.783484 
L 392.642322 84.783484 
L 392.77221 84.074041 
L 392.902098 84.074041 
L 393.226817 82.655155 
L 393.421649 82.655155 
L 393.681424 81.590991 
L 393.876256 81.590991 
L 394.136032 80.526827 
L 394.265919 80.526827 
L 394.460751 79.817384 
L 394.525695 79.817384 
L 394.655583 79.462663 
L 394.850414 79.462663 
L 394.980302 79.107941 
L 395.045246 79.107941 
L 395.175134 78.75322 
L 395.305022 78.75322 
L 395.629741 77.334334 
L 395.694685 77.334334 
L 395.889517 75.915449 
L 395.954461 75.915449 
L 396.27918 74.496563 
L 396.474012 74.496563 
L 396.668844 73.78712 
L 396.798731 73.78712 
L 397.058507 72.722956 
L 397.123451 72.722956 
L 397.253339 72.368235 
L 397.318283 72.368235 
L 397.578058 70.594628 
L 397.643002 70.594628 
L 397.902778 68.821021 
L 398.162553 67.047413 
L 398.292441 64.919085 
L 398.487273 53.568 
L 398.487273 53.568 
" clip-path="url(#p5313f361e6)" style="fill: none; stroke: #1f77b4; stroke-width: 1.5; stroke-linecap: square"/>
   </g>
   <g id="line2d_15">
    <path d="M 73.832727 295.488 
L 73.962615 295.133279 
L 74.027559 295.133279 
L 74.287335 293.359672 
L 83.119705 293.359672 
L 83.249592 292.650229 
L 83.37948 292.650229 
L 83.7042 202.550991 
L 84.223751 202.550991 
L 84.353639 202.19627 
L 85.912292 202.19627 
L 86.04218 201.841548 
L 89.094543 201.841548 
L 89.224431 201.486827 
L 91.562411 201.486827 
L 91.692299 201.132106 
L 93.70556 201.132106 
L 93.835448 200.777384 
L 96.04354 200.777384 
L 96.173428 200.422663 
L 99.355679 200.422663 
L 99.485567 200.067941 
L 103.187369 200.067941 
L 103.317257 199.71322 
L 105.005798 199.71322 
L 105.135686 199.358499 
L 106.629396 199.358499 
L 106.759283 199.003777 
L 111.045581 199.003777 
L 111.175469 198.649056 
L 117.539971 198.649056 
L 117.669858 198.294334 
L 122.86537 198.294334 
L 122.995258 197.939613 
L 125.52807 197.939613 
L 125.657958 197.584891 
L 128.580433 197.584891 
L 128.710321 197.23017 
L 135.269655 197.23017 
L 135.399542 196.875449 
L 142.088764 196.875449 
L 142.218652 196.520727 
L 144.426744 196.520727 
L 144.556632 196.166006 
L 146.569893 196.166006 
L 146.699781 195.811284 
L 148.063603 195.811284 
L 148.19349 195.456563 
L 151.505629 195.456563 
L 151.635517 195.101842 
L 154.298217 195.101842 
L 154.428105 194.74712 
L 155.986758 194.74712 
L 156.116646 194.392399 
L 158.000019 194.392399 
L 158.129907 194.037677 
L 163.000699 194.037677 
L 163.130587 193.682956 
L 166.312838 193.682956 
L 166.442726 193.328235 
L 168.196211 193.328235 
L 168.326099 192.973513 
L 168.910594 192.973513 
L 169.040482 192.618792 
L 169.235313 192.618792 
L 169.365201 192.26407 
L 170.599135 192.26407 
L 170.729023 191.909349 
L 175.469927 191.909349 
L 175.599815 191.554628 
L 183.587915 191.554628 
L 183.717802 191.199906 
L 193.394443 191.199906 
L 193.524331 190.845185 
L 200.083665 190.845185 
L 200.213553 190.490463 
L 207.811989 190.490463 
L 207.941876 190.135742 
L 216.254695 190.135742 
L 216.384583 189.781021 
L 228.269316 189.781021 
L 228.399204 189.426299 
L 234.179211 189.426299 
L 234.309099 189.071578 
L 236.387304 189.071578 
L 236.517191 188.716856 
L 239.569555 188.716856 
L 239.699442 188.362135 
L 244.050684 188.362135 
L 244.180571 188.007413 
L 247.427766 188.007413 
L 247.557654 187.652692 
L 250.480129 187.652692 
L 250.610017 187.297971 
L 255.15609 187.297971 
L 255.285978 186.943249 
L 259.377443 186.943249 
L 259.507331 186.588528 
L 261.520592 186.588528 
L 261.65048 186.233806 
L 266.261497 186.233806 
L 266.391384 185.879085 
L 273.989821 185.879085 
L 274.119708 185.524364 
L 280.679042 185.524364 
L 280.80893 185.169642 
L 283.731405 185.169642 
L 283.861293 184.814921 
L 285.744666 184.814921 
L 285.874554 184.460199 
L 289.381524 184.460199 
L 289.511412 184.105478 
L 293.602878 184.105478 
L 293.732765 183.750757 
L 296.590297 183.750757 
L 296.720185 183.396035 
L 299.512772 183.396035 
L 299.64266 183.041314 
L 302.889855 183.041314 
L 303.019743 182.686592 
L 305.617499 182.686592 
L 305.747387 182.331871 
L 308.020423 182.331871 
L 308.150311 181.97715 
L 308.539974 181.97715 
L 308.669862 181.622428 
L 309.189413 181.622428 
L 309.319301 181.267707 
L 310.488291 181.267707 
L 310.618179 180.912985 
L 313.215935 180.912985 
L 313.345823 180.558264 
L 317.826952 180.558264 
L 317.956839 180.203543 
L 324.321341 180.203543 
L 324.451229 179.848821 
L 328.672583 179.848821 
L 328.80247 179.4941 
L 331.140451 179.4941 
L 331.270338 179.139378 
L 333.997982 179.139378 
L 334.12787 178.784657 
L 340.62226 178.784657 
L 340.752148 178.429935 
L 348.740247 178.429935 
L 348.870135 178.075214 
L 353.546095 178.075214 
L 353.675983 177.720493 
L 355.559356 177.720493 
L 355.689244 177.365771 
L 356.143851 177.365771 
L 356.273739 177.01105 
L 356.858234 177.01105 
L 356.988122 176.656328 
L 357.702505 176.656328 
L 357.832393 176.301607 
L 358.676663 176.301607 
L 358.806551 175.946886 
L 359.001383 175.946886 
L 359.131271 175.592164 
L 359.650822 175.592164 
L 359.845653 174.882721 
L 360.365205 174.882721 
L 360.495092 174.528 
L 360.9497 174.528 
L 361.079588 174.173279 
L 361.534195 174.173279 
L 361.664083 173.818557 
L 362.248578 173.818557 
L 362.378466 173.463836 
L 362.638241 173.463836 
L 362.833073 172.754393 
L 362.898017 172.754393 
L 363.027904 172.399672 
L 363.352624 172.399672 
L 363.482512 172.04495 
L 363.677343 172.04495 
L 363.807231 171.690229 
L 363.937119 171.690229 
L 364.067007 171.335507 
L 364.196895 171.335507 
L 364.326782 170.980786 
L 364.391726 170.980786 
L 364.521614 170.626065 
L 364.716446 170.626065 
L 364.846334 170.271343 
L 365.041165 170.271343 
L 365.171053 169.916622 
L 365.495773 169.916622 
L 365.690604 169.207179 
L 365.820492 169.207179 
L 365.95038 168.852457 
L 366.080268 168.852457 
L 366.210155 168.497736 
L 366.275099 168.497736 
L 366.469931 167.788293 
L 366.534875 167.788293 
L 366.729707 166.724129 
L 366.794651 166.724129 
L 367.054426 165.659965 
L 367.11937 165.659965 
L 367.379146 163.886358 
L 367.703865 162.467472 
L 367.768809 162.467472 
L 367.898697 161.403308 
L 368.093529 160.339144 
L 368.158472 160.339144 
L 368.353304 159.629701 
L 368.61308 159.629701 
L 369.067687 157.146651 
L 369.262519 155.373044 
L 369.327463 155.373044 
L 369.522294 153.954158 
L 369.587238 153.954158 
L 369.911958 152.535273 
L 369.976902 152.535273 
L 370.171733 151.82583 
L 370.301621 151.82583 
L 370.431509 151.116387 
L 370.626341 147.214452 
L 370.821172 146.505009 
L 370.886116 146.505009 
L 371.145892 145.440845 
L 371.27578 145.440845 
L 371.470611 144.731402 
L 371.600499 144.731402 
L 371.860275 142.957795 
L 371.990162 141.89363 
L 372.44477 137.991695 
L 372.899377 135.863367 
L 372.964321 135.863367 
L 373.678704 129.12366 
L 373.808592 128.768938 
L 374.003423 126.285889 
L 374.133311 125.576446 
L 374.328143 122.029232 
L 374.393087 122.029232 
L 374.652862 119.546182 
L 374.717806 119.546182 
L 375.367245 115.644246 
L 375.562077 114.580082 
L 375.756908 113.870639 
L 375.886796 113.870639 
L 376.081628 113.161196 
L 376.146572 113.161196 
L 376.341404 112.451754 
L 376.731067 112.451754 
L 376.860955 112.097032 
L 376.925899 112.097032 
L 377.055786 111.742311 
L 377.44545 111.742311 
L 377.640282 111.032868 
L 377.965001 111.032868 
L 378.094889 110.678147 
L 378.224777 110.678147 
L 378.354664 110.323425 
L 378.484552 110.323425 
L 378.61444 109.968704 
L 378.744328 109.968704 
L 378.939159 109.259261 
L 379.198935 109.259261 
L 379.328823 108.90454 
L 379.393767 108.90454 
L 379.588598 108.195097 
L 379.848374 108.195097 
L 380.043206 107.485654 
L 380.238037 107.485654 
L 380.432869 106.776211 
L 380.692645 106.776211 
L 380.822533 106.42149 
L 381.147252 106.42149 
L 381.27714 106.066768 
L 381.471971 106.066768 
L 381.666803 105.357326 
L 381.991523 105.357326 
L 382.12141 105.002604 
L 382.44613 105.002604 
L 382.576018 104.647883 
L 382.705906 104.647883 
L 382.835793 104.293161 
L 383.160513 104.293161 
L 383.290401 103.93844 
L 383.485232 103.93844 
L 383.61512 103.583718 
L 383.809952 103.583718 
L 383.93984 103.228997 
L 384.264559 103.228997 
L 384.394447 102.874276 
L 384.589279 102.874276 
L 384.719166 102.519554 
L 384.913998 102.519554 
L 385.043886 102.164833 
L 385.303661 102.164833 
L 385.433549 101.810111 
L 385.693325 101.810111 
L 385.823213 101.45539 
L 386.018044 101.45539 
L 386.147932 101.100669 
L 386.407708 101.100669 
L 386.667483 100.036504 
L 386.927259 100.036504 
L 387.057147 99.681783 
L 387.251978 99.681783 
L 387.44681 98.97234 
L 387.77153 98.97234 
L 387.901417 98.617619 
L 387.966361 98.617619 
L 388.096249 97.908176 
L 388.161193 97.908176 
L 388.356025 97.198733 
L 388.420969 97.198733 
L 388.550856 96.844012 
L 388.680744 96.844012 
L 388.810632 96.48929 
L 389.005464 96.48929 
L 389.135351 96.134569 
L 389.265239 96.134569 
L 389.589959 93.651519 
L 389.719847 93.651519 
L 389.914678 92.587355 
L 390.10951 90.813748 
L 390.304342 90.104305 
L 390.434229 90.104305 
L 390.629061 89.040141 
L 390.758949 89.040141 
L 391.148612 85.847648 
L 391.862995 82.300434 
L 391.927939 82.300434 
L 392.057827 81.945713 
L 392.187715 81.945713 
L 392.317602 81.590991 
L 392.512434 81.590991 
L 392.642322 81.23627 
L 392.77221 81.23627 
L 392.902098 80.881548 
L 393.161873 80.881548 
L 393.356705 80.172106 
L 393.61648 80.172106 
L 393.746368 79.817384 
L 393.811312 79.817384 
L 394.006144 79.107941 
L 394.071088 79.107941 
L 394.265919 78.398499 
L 394.330863 78.398499 
L 394.525695 77.689056 
L 394.655583 77.689056 
L 394.785471 76.979613 
L 394.915358 76.979613 
L 395.045246 76.624891 
L 395.305022 76.624891 
L 395.499853 75.915449 
L 395.629741 75.915449 
L 395.824573 75.206006 
L 395.954461 75.206006 
L 396.149292 74.496563 
L 396.27918 74.496563 
L 396.409068 74.141842 
L 396.6039 74.141842 
L 396.798731 72.368235 
L 396.863675 72.368235 
L 396.993563 71.30407 
L 397.058507 71.30407 
L 397.188395 70.949349 
L 397.318283 70.949349 
L 397.44817 69.885185 
L 397.513114 69.885185 
L 397.77289 67.756856 
L 397.837834 67.756856 
L 397.902778 67.402135 
L 398.227497 62.436035 
L 398.357385 62.081314 
L 398.487273 57.115214 
L 398.487273 57.115214 
" clip-path="url(#p5313f361e6)" style="fill: none; stroke: #ff7f0e; stroke-width: 1.5; stroke-linecap: square"/>
   </g>
   <g id="patch_3">
    <path d="M 57.6 307.584 
L 57.6 41.472 
" style="fill: none; stroke: #000000; stroke-width: 0.8; stroke-linejoin: miter; stroke-linecap: square"/>
   </g>
   <g id="patch_4">
    <path d="M 414.72 307.584 
L 414.72 41.472 
" style="fill: none; stroke: #000000; stroke-width: 0.8; stroke-linejoin: miter; stroke-linecap: square"/>
   </g>
   <g id="patch_5">
    <path d="M 57.6 307.584 
L 414.72 307.584 
" style="fill: none; stroke: #000000; stroke-width: 0.8; stroke-linejoin: miter; stroke-linecap: square"/>
   </g>
   <g id="patch_6">
    <path d="M 57.6 41.472 
L 414.72 41.472 
" style="fill: none; stroke: #000000; stroke-width: 0.8; stroke-linejoin: miter; stroke-linecap: square"/>
   </g>
   <g id="text_16">
    <!-- pointer array backwards detection test -->
    <g transform="translate(119.340937 35.472) scale(0.12 -0.12)">
     <defs>
      <path id="DejaVuSans-70" d="M 1159 525 
L 1159 -1331 
L 581 -1331 
L 581 3500 
L 1159 3500 
L 1159 2969 
Q 1341 3281 1617 3432 
Q 1894 3584 2278 3584 
Q 2916 3584 3314 3078 
Q 3713 2572 3713 1747 
Q 3713 922 3314 415 
Q 2916 -91 2278 -91 
Q 1894 -91 1617 61 
Q 1341 213 1159 525 
z
M 3116 1747 
Q 3116 2381 2855 2742 
Q 2594 3103 2138 3103 
Q 1681 3103 1420 2742 
Q 1159 2381 1159 1747 
Q 1159 1113 1420 752 
Q 1681 391 2138 391 
Q 2594 391 2855 752 
Q 3116 1113 3116 1747 
z
" transform="scale(0.015625)"/>
      <path id="DejaVuSans-6f" d="M 1959 3097 
Q 1497 3097 1228 2736 
Q 959 2375 959 1747 
Q 959 1119 1226 758 
Q 1494 397 1959 397 
Q 2419 397 2687 759 
Q 2956 1122 2956 1747 
Q 2956 2369 2687 2733 
Q 2419 3097 1959 3097 
z
M 1959 3584 
Q 2709 3584 3137 3096 
Q 3566 2609 3566 1747 
Q 3566 888 3137 398 
Q 2709 -91 1959 -91 
Q 1206 -91 779 398 
Q 353 888 353 1747 
Q 353 2609 779 3096 
Q 1206 3584 1959 3584 
z
" transform="scale(0.015625)"/>
      <path id="DejaVuSans-79" d="M 2059 -325 
Q 1816 -950 1584 -1140 
Q 1353 -1331 966 -1331 
L 506 -1331 
L 506 -850 
L 844 -850 
Q 1081 -850 1212 -737 
Q 1344 -625 1503 -206 
L 1606 56 
L 191 3500 
L 800 3500 
L 1894 763 
L 2988 3500 
L 3597 3500 
L 2059 -325 
z
" transform="scale(0.015625)"/>
      <path id="DejaVuSans-62" d="M 3116 1747 
Q 3116 2381 2855 2742 
Q 2594 3103 2138 3103 
Q 1681 3103 1420 2742 
Q 1159 2381 1159 1747 
Q 1159 1113 1420 752 
Q 1681 391 2138 391 
Q 2594 391 2855 752 
Q 3116 1113 3116 1747 
z
M 1159 2969 
Q 1341 3281 1617 3432 
Q 1894 3584 2278 3584 
Q 2916 3584 3314 3078 
Q 3713 2572 3713 1747 
Q 3713 922 3314 415 
Q 2916 -91 2278 -91 
Q 1894 -91 1617 61 
Q 1341 213 1159 525 
L 1159 0 
L 581 0 
L 581 4863 
L 1159 4863 
L 1159 2969 
z
" transform="scale(0.015625)"/>
      <path id="DejaVuSans-63" d="M 3122 3366 
L 3122 2828 
Q 2878 2963 2633 3030 
Q 2388 3097 2138 3097 
Q 1578 3097 1268 2742 
Q 959 2388 959 1747 
Q 959 1106 1268 751 
Q 1578 397 2138 397 
Q 2388 397 2633 464 
Q 2878 531 3122 666 
L 3122 134 
Q 2881 22 2623 -34 
Q 2366 -91 2075 -91 
Q 1284 -91 818 406 
Q 353 903 353 1747 
Q 353 2603 823 3093 
Q 1294 3584 2113 3584 
Q 2378 3584 2631 3529 
Q 2884 3475 3122 3366 
z
" transform="scale(0.015625)"/>
      <path id="DejaVuSans-6b" d="M 581 4863 
L 1159 4863 
L 1159 1991 
L 2875 3500 
L 3609 3500 
L 1753 1863 
L 3688 0 
L 2938 0 
L 1159 1709 
L 1159 0 
L 581 0 
L 581 4863 
z
" transform="scale(0.015625)"/>
      <path id="DejaVuSans-77" d="M 269 3500 
L 844 3500 
L 1563 769 
L 2278 3500 
L 2956 3500 
L 3675 769 
L 4391 3500 
L 4966 3500 
L 4050 0 
L 3372 0 
L 2619 2869 
L 1863 0 
L 1184 0 
L 269 3500 
z
" transform="scale(0.015625)"/>
      <path id="DejaVuSans-64" d="M 2906 2969 
L 2906 4863 
L 3481 4863 
L 3481 0 
L 2906 0 
L 2906 525 
Q 2725 213 2448 61 
Q 2172 -91 1784 -91 
Q 1150 -91 751 415 
Q 353 922 353 1747 
Q 353 2572 751 3078 
Q 1150 3584 1784 3584 
Q 2172 3584 2448 3432 
Q 2725 3281 2906 2969 
z
M 947 1747 
Q 947 1113 1208 752 
Q 1469 391 1925 391 
Q 2381 391 2643 752 
Q 2906 1113 2906 1747 
Q 2906 2381 2643 2742 
Q 2381 3103 1925 3103 
Q 1469 3103 1208 2742 
Q 947 2381 947 1747 
z
" transform="scale(0.015625)"/>
     </defs>
     <use xlink:href="#DejaVuSans-70"/>
     <use xlink:href="#DejaVuSans-6f" x="63.476562"/>
     <use xlink:href="#DejaVuSans-69" x="124.658203"/>
     <use xlink:href="#DejaVuSans-6e" x="152.441406"/>
     <use xlink:href="#DejaVuSans-74" x="215.820312"/>
     <use xlink:href="#DejaVuSans-65" x="255.029297"/>
     <use xlink:href="#DejaVuSans-72" x="316.552734"/>
     <use xlink:href="#DejaVuSans-20" x="357.666016"/>
     <use xlink:href="#DejaVuSans-61" x="389.453125"/>
     <use xlink:href="#DejaVuSans-72" x="450.732422"/>
     <use xlink:href="#DejaVuSans-72" x="490.095703"/>
     <use xlink:href="#DejaVuSans-61" x="531.208984"/>
     <use xlink:href="#DejaVuSans-79" x="592.488281"/>
     <use xlink:href="#DejaVuSans-20" x="651.667969"/>
     <use xlink:href="#DejaVuSans-62" x="683.455078"/>
     <use xlink:href="#DejaVuSans-61" x="746.931641"/>
     <use xlink:href="#DejaVuSans-63" x="808.210938"/>
     <use xlink:href="#DejaVuSans-6b" x="863.191406"/>
     <use xlink:href="#DejaVuSans-77" x="921.101562"/>
     <use xlink:href="#DejaVuSans-61" x="1002.888672"/>
     <use xlink:href="#DejaVuSans-72" x="1064.167969"/>
     <use xlink:href="#DejaVuSans-64" x="1103.53125"/>
     <use xlink:href="#DejaVuSans-73" x="1167.007812"/>
     <use xlink:href="#DejaVuSans-20" x="1219.107422"/>
     <use xlink:href="#DejaVuSans-64" x="1250.894531"/>
     <use xlink:href="#DejaVuSans-65" x="1314.371094"/>
     <use xlink:href="#DejaVuSans-74" x="1375.894531"/>
     <use xlink:href="#DejaVuSans-65" x="1415.103516"/>
     <use xlink:href="#DejaVuSans-63" x="1476.626953"/>
     <use xlink:href="#DejaVuSans-74" x="1531.607422"/>
     <use xlink:href="#DejaVuSans-69" x="1570.816406"/>
     <use xlink:href="#DejaVuSans-6f" x="1598.599609"/>
     <use xlink:href="#DejaVuSans-6e" x="1659.78125"/>
     <use xlink:href="#DejaVuSans-20" x="1723.160156"/>
     <use xlink:href="#DejaVuSans-74" x="1754.947266"/>
     <use xlink:href="#DejaVuSans-65" x="1794.15625"/>
     <use xlink:href="#DejaVuSans-73" x="1855.679688"/>
     <use xlink:href="#DejaVuSans-74" x="1907.779297"/>
    </g>
   </g>
   <g id="legend_1">
    <g id="patch_7">
     <path d="M 64.6 78.82825 
L 166.359375 78.82825 
Q 168.359375 78.82825 168.359375 76.82825 
L 168.359375 48.472 
Q 168.359375 46.472 166.359375 46.472 
L 64.6 46.472 
Q 62.6 46.472 62.6 48.472 
L 62.6 76.82825 
Q 62.6 78.82825 64.6 78.82825 
z
" style="fill: #ffffff; opacity: 0.8; stroke: #cccccc; stroke-linejoin: miter"/>
    </g>
    <g id="line2d_16">
     <path d="M 66.6 54.570437 
L 76.6 54.570437 
L 86.6 54.570437 
" style="fill: none; stroke: #1f77b4; stroke-width: 1.5; stroke-linecap: square"/>
    </g>
    <g id="text_17">
     <!-- measurement -->
     <g transform="translate(94.6 58.070437) scale(0.1 -0.1)">
      <use xlink:href="#DejaVuSans-6d"/>
      <use xlink:href="#DejaVuSans-65" x="97.412109"/>
      <use xlink:href="#DejaVuSans-61" x="158.935547"/>
      <use xlink:href="#DejaVuSans-73" x="220.214844"/>
      <use xlink:href="#DejaVuSans-75" x="272.314453"/>
      <use xlink:href="#DejaVuSans-72" x="335.693359"/>
      <use xlink:href="#DejaVuSans-65" x="374.556641"/>
      <use xlink:href="#DejaVuSans-6d" x="436.080078"/>
      <use xlink:href="#DejaVuSans-65" x="533.492188"/>
      <use xlink:href="#DejaVuSans-6e" x="595.015625"/>
      <use xlink:href="#DejaVuSans-74" x="658.394531"/>
     </g>
    </g>
    <g id="line2d_17">
     <path d="M 66.6 69.248562 
L 76.6 69.248562 
L 86.6 69.248562 
" style="fill: none; stroke: #ff7f0e; stroke-width: 1.5; stroke-linecap: square"/>
    </g>
    <g id="text_18">
     <!-- reference -->
     <g transform="translate(94.6 72.748562) scale(0.1 -0.1)">
      <defs>
       <path id="DejaVuSans-66" d="M 2375 4863 
L 2375 4384 
L 1825 4384 
Q 1516 4384 1395 4259 
Q 1275 4134 1275 3809 
L 1275 3500 
L 2222 3500 
L 2222 3053 
L 1275 3053 
L 1275 0 
L 697 0 
L 697 3053 
L 147 3053 
L 147 3500 
L 697 3500 
L 697 3744 
Q 697 4328 969 4595 
Q 1241 4863 1831 4863 
L 2375 4863 
z
" transform="scale(0.015625)"/>
      </defs>
      <use xlink:href="#DejaVuSans-72"/>
      <use xlink:href="#DejaVuSans-65" x="38.863281"/>
      <use xlink:href="#DejaVuSans-66" x="100.386719"/>
      <use xlink:href="#DejaVuSans-65" x="135.591797"/>
      <use xlink:href="#DejaVuSans-72" x="197.115234"/>
      <use xlink:href="#DejaVuSans-65" x="235.978516"/>
      <use xlink:href="#DejaVuSans-6e" x="297.501953"/>
      <use xlink:href="#DejaVuSans-63" x="360.880859"/>
      <use xlink:href="#DejaVuSans-65" x="415.861328"/>
     </g>
    </g>
   </g>
  </g>
 </g>
 <defs>
  <clipPath id="p5313f361e6">
   <rect x="57.6" y="41.472" width="357.12" height="266.112"/>
  </clipPath>
 </defs>
</svg>
