<?xml version="1.0" encoding="utf-8" standalone="no"?>
<!DOCTYPE svg PUBLIC "-//W3C//DTD SVG 1.1//EN"
  "http://www.w3.org/Graphics/SVG/1.1/DTD/svg11.dtd">
<svg xmlns:xlink="http://www.w3.org/1999/xlink" width="460.8pt" height="345.6pt" viewBox="0 0 460.8 345.6" xmlns="http://www.w3.org/2000/svg" version="1.1">
 <metadata>
  <rdf:RDF xmlns:dc="http://purl.org/dc/elements/1.1/" xmlns:cc="http://creativecommons.org/ns#" xmlns:rdf="http://www.w3.org/1999/02/22-rdf-syntax-ns#">
   <cc:Work>
    <dc:type rdf:resource="http://purl.org/dc/dcmitype/StillImage"/>
    <dc:date>2024-10-04T16:13:10.640161</dc:date>
    <dc:format>image/svg+xml</dc:format>
    <dc:creator>
     <cc:Agent>
      <dc:title>Matplotlib v3.6.3, https://matplotlib.org/</dc:title>
     </cc:Agent>
    </dc:creator>
   </cc:Work>
  </rdf:RDF>
 </metadata>
 <defs>
  <style type="text/css">*{stroke-linejoin: round; stroke-linecap: butt}</style>
 </defs>
 <g id="figure_1">
  <g id="patch_1">
   <path d="M 0 345.6 
L 460.8 345.6 
L 460.8 0 
L 0 0 
z
" style="fill: #ffffff"/>
  </g>
  <g id="axes_1">
   <g id="patch_2">
    <path d="M 57.6 307.584 
L 414.72 307.584 
L 414.72 41.472 
L 57.6 41.472 
z
" style="fill: #ffffff"/>
   </g>
   <g id="matplotlib.axis_1">
    <g id="xtick_1">
     <g id="line2d_1">
      <defs>
       <path id="mf0818926a5" d="M 0 0 
L 0 3.5 
" style="stroke: #000000; stroke-width: 0.8"/>
      </defs>
      <g>
       <use xlink:href="#mf0818926a5" x="73.832727" y="307.584" style="stroke: #000000; stroke-width: 0.8"/>
      </g>
     </g>
     <g id="text_1">
      <!-- 0 -->
      <g transform="translate(70.651477 322.182437) scale(0.1 -0.1)">
       <defs>
        <path id="DejaVuSans-30" d="M 2034 4250 
Q 1547 4250 1301 3770 
Q 1056 3291 1056 2328 
Q 1056 1369 1301 889 
Q 1547 409 2034 409 
Q 2525 409 2770 889 
Q 3016 1369 3016 2328 
Q 3016 3291 2770 3770 
Q 2525 4250 2034 4250 
z
M 2034 4750 
Q 2819 4750 3233 4129 
Q 3647 3509 3647 2328 
Q 3647 1150 3233 529 
Q 2819 -91 2034 -91 
Q 1250 -91 836 529 
Q 422 1150 422 2328 
Q 422 3509 836 4129 
Q 1250 4750 2034 4750 
z
" transform="scale(0.015625)"/>
       </defs>
       <use xlink:href="#DejaVuSans-30"/>
      </g>
     </g>
    </g>
    <g id="xtick_2">
     <g id="line2d_2">
      <g>
       <use xlink:href="#mf0818926a5" x="138.776625" y="307.584" style="stroke: #000000; stroke-width: 0.8"/>
      </g>
     </g>
     <g id="text_2">
      <!-- 1000 -->
      <g transform="translate(126.051625 322.182437) scale(0.1 -0.1)">
       <defs>
        <path id="DejaVuSans-31" d="M 794 531 
L 1825 531 
L 1825 4091 
L 703 3866 
L 703 4441 
L 1819 4666 
L 2450 4666 
L 2450 531 
L 3481 531 
L 3481 0 
L 794 0 
L 794 531 
z
" transform="scale(0.015625)"/>
       </defs>
       <use xlink:href="#DejaVuSans-31"/>
       <use xlink:href="#DejaVuSans-30" x="63.623047"/>
       <use xlink:href="#DejaVuSans-30" x="127.246094"/>
       <use xlink:href="#DejaVuSans-30" x="190.869141"/>
      </g>
     </g>
    </g>
    <g id="xtick_3">
     <g id="line2d_3">
      <g>
       <use xlink:href="#mf0818926a5" x="203.720523" y="307.584" style="stroke: #000000; stroke-width: 0.8"/>
      </g>
     </g>
     <g id="text_3">
      <!-- 2000 -->
      <g transform="translate(190.995523 322.182437) scale(0.1 -0.1)">
       <defs>
        <path id="DejaVuSans-32" d="M 1228 531 
L 3431 531 
L 3431 0 
L 469 0 
L 469 531 
Q 828 903 1448 1529 
Q 2069 2156 2228 2338 
Q 2531 2678 2651 2914 
Q 2772 3150 2772 3378 
Q 2772 3750 2511 3984 
Q 2250 4219 1831 4219 
Q 1534 4219 1204 4116 
Q 875 4013 500 3803 
L 500 4441 
Q 881 4594 1212 4672 
Q 1544 4750 1819 4750 
Q 2544 4750 2975 4387 
Q 3406 4025 3406 3419 
Q 3406 3131 3298 2873 
Q 3191 2616 2906 2266 
Q 2828 2175 2409 1742 
Q 1991 1309 1228 531 
z
" transform="scale(0.015625)"/>
       </defs>
       <use xlink:href="#DejaVuSans-32"/>
       <use xlink:href="#DejaVuSans-30" x="63.623047"/>
       <use xlink:href="#DejaVuSans-30" x="127.246094"/>
       <use xlink:href="#DejaVuSans-30" x="190.869141"/>
      </g>
     </g>
    </g>
    <g id="xtick_4">
     <g id="line2d_4">
      <g>
       <use xlink:href="#mf0818926a5" x="268.664421" y="307.584" style="stroke: #000000; stroke-width: 0.8"/>
      </g>
     </g>
     <g id="text_4">
      <!-- 3000 -->
      <g transform="translate(255.939421 322.182437) scale(0.1 -0.1)">
       <defs>
        <path id="DejaVuSans-33" d="M 2597 2516 
Q 3050 2419 3304 2112 
Q 3559 1806 3559 1356 
Q 3559 666 3084 287 
Q 2609 -91 1734 -91 
Q 1441 -91 1130 -33 
Q 819 25 488 141 
L 488 750 
Q 750 597 1062 519 
Q 1375 441 1716 441 
Q 2309 441 2620 675 
Q 2931 909 2931 1356 
Q 2931 1769 2642 2001 
Q 2353 2234 1838 2234 
L 1294 2234 
L 1294 2753 
L 1863 2753 
Q 2328 2753 2575 2939 
Q 2822 3125 2822 3475 
Q 2822 3834 2567 4026 
Q 2313 4219 1838 4219 
Q 1578 4219 1281 4162 
Q 984 4106 628 3988 
L 628 4550 
Q 988 4650 1302 4700 
Q 1616 4750 1894 4750 
Q 2613 4750 3031 4423 
Q 3450 4097 3450 3541 
Q 3450 3153 3228 2886 
Q 3006 2619 2597 2516 
z
" transform="scale(0.015625)"/>
       </defs>
       <use xlink:href="#DejaVuSans-33"/>
       <use xlink:href="#DejaVuSans-30" x="63.623047"/>
       <use xlink:href="#DejaVuSans-30" x="127.246094"/>
       <use xlink:href="#DejaVuSans-30" x="190.869141"/>
      </g>
     </g>
    </g>
    <g id="xtick_5">
     <g id="line2d_5">
      <g>
       <use xlink:href="#mf0818926a5" x="333.608319" y="307.584" style="stroke: #000000; stroke-width: 0.8"/>
      </g>
     </g>
     <g id="text_5">
      <!-- 4000 -->
      <g transform="translate(320.883319 322.182437) scale(0.1 -0.1)">
       <defs>
        <path id="DejaVuSans-34" d="M 2419 4116 
L 825 1625 
L 2419 1625 
L 2419 4116 
z
M 2253 4666 
L 3047 4666 
L 3047 1625 
L 3713 1625 
L 3713 1100 
L 3047 1100 
L 3047 0 
L 2419 0 
L 2419 1100 
L 313 1100 
L 313 1709 
L 2253 4666 
z
" transform="scale(0.015625)"/>
       </defs>
       <use xlink:href="#DejaVuSans-34"/>
       <use xlink:href="#DejaVuSans-30" x="63.623047"/>
       <use xlink:href="#DejaVuSans-30" x="127.246094"/>
       <use xlink:href="#DejaVuSans-30" x="190.869141"/>
      </g>
     </g>
    </g>
    <g id="xtick_6">
     <g id="line2d_6">
      <g>
       <use xlink:href="#mf0818926a5" x="398.552217" y="307.584" style="stroke: #000000; stroke-width: 0.8"/>
      </g>
     </g>
     <g id="text_6">
      <!-- 5000 -->
      <g transform="translate(385.827217 322.182437) scale(0.1 -0.1)">
       <defs>
        <path id="DejaVuSans-35" d="M 691 4666 
L 3169 4666 
L 3169 4134 
L 1269 4134 
L 1269 2991 
Q 1406 3038 1543 3061 
Q 1681 3084 1819 3084 
Q 2600 3084 3056 2656 
Q 3513 2228 3513 1497 
Q 3513 744 3044 326 
Q 2575 -91 1722 -91 
Q 1428 -91 1123 -41 
Q 819 9 494 109 
L 494 744 
Q 775 591 1075 516 
Q 1375 441 1709 441 
Q 2250 441 2565 725 
Q 2881 1009 2881 1497 
Q 2881 1984 2565 2268 
Q 2250 2553 1709 2553 
Q 1456 2553 1204 2497 
Q 953 2441 691 2322 
L 691 4666 
z
" transform="scale(0.015625)"/>
       </defs>
       <use xlink:href="#DejaVuSans-35"/>
       <use xlink:href="#DejaVuSans-30" x="63.623047"/>
       <use xlink:href="#DejaVuSans-30" x="127.246094"/>
       <use xlink:href="#DejaVuSans-30" x="190.869141"/>
      </g>
     </g>
    </g>
    <g id="text_7">
     <!-- measurement # -->
     <g transform="translate(195.501406 335.860562) scale(0.1 -0.1)">
      <defs>
       <path id="DejaVuSans-6d" d="M 3328 2828 
Q 3544 3216 3844 3400 
Q 4144 3584 4550 3584 
Q 5097 3584 5394 3201 
Q 5691 2819 5691 2113 
L 5691 0 
L 5113 0 
L 5113 2094 
Q 5113 2597 4934 2840 
Q 4756 3084 4391 3084 
Q 3944 3084 3684 2787 
Q 3425 2491 3425 1978 
L 3425 0 
L 2847 0 
L 2847 2094 
Q 2847 2600 2669 2842 
Q 2491 3084 2119 3084 
Q 1678 3084 1418 2786 
Q 1159 2488 1159 1978 
L 1159 0 
L 581 0 
L 581 3500 
L 1159 3500 
L 1159 2956 
Q 1356 3278 1631 3431 
Q 1906 3584 2284 3584 
Q 2666 3584 2933 3390 
Q 3200 3197 3328 2828 
z
" transform="scale(0.015625)"/>
       <path id="DejaVuSans-65" d="M 3597 1894 
L 3597 1613 
L 953 1613 
Q 991 1019 1311 708 
Q 1631 397 2203 397 
Q 2534 397 2845 478 
Q 3156 559 3463 722 
L 3463 178 
Q 3153 47 2828 -22 
Q 2503 -91 2169 -91 
Q 1331 -91 842 396 
Q 353 884 353 1716 
Q 353 2575 817 3079 
Q 1281 3584 2069 3584 
Q 2775 3584 3186 3129 
Q 3597 2675 3597 1894 
z
M 3022 2063 
Q 3016 2534 2758 2815 
Q 2500 3097 2075 3097 
Q 1594 3097 1305 2825 
Q 1016 2553 972 2059 
L 3022 2063 
z
" transform="scale(0.015625)"/>
       <path id="DejaVuSans-61" d="M 2194 1759 
Q 1497 1759 1228 1600 
Q 959 1441 959 1056 
Q 959 750 1161 570 
Q 1363 391 1709 391 
Q 2188 391 2477 730 
Q 2766 1069 2766 1631 
L 2766 1759 
L 2194 1759 
z
M 3341 1997 
L 3341 0 
L 2766 0 
L 2766 531 
Q 2569 213 2275 61 
Q 1981 -91 1556 -91 
Q 1019 -91 701 211 
Q 384 513 384 1019 
Q 384 1609 779 1909 
Q 1175 2209 1959 2209 
L 2766 2209 
L 2766 2266 
Q 2766 2663 2505 2880 
Q 2244 3097 1772 3097 
Q 1472 3097 1187 3025 
Q 903 2953 641 2809 
L 641 3341 
Q 956 3463 1253 3523 
Q 1550 3584 1831 3584 
Q 2591 3584 2966 3190 
Q 3341 2797 3341 1997 
z
" transform="scale(0.015625)"/>
       <path id="DejaVuSans-73" d="M 2834 3397 
L 2834 2853 
Q 2591 2978 2328 3040 
Q 2066 3103 1784 3103 
Q 1356 3103 1142 2972 
Q 928 2841 928 2578 
Q 928 2378 1081 2264 
Q 1234 2150 1697 2047 
L 1894 2003 
Q 2506 1872 2764 1633 
Q 3022 1394 3022 966 
Q 3022 478 2636 193 
Q 2250 -91 1575 -91 
Q 1294 -91 989 -36 
Q 684 19 347 128 
L 347 722 
Q 666 556 975 473 
Q 1284 391 1588 391 
Q 1994 391 2212 530 
Q 2431 669 2431 922 
Q 2431 1156 2273 1281 
Q 2116 1406 1581 1522 
L 1381 1569 
Q 847 1681 609 1914 
Q 372 2147 372 2553 
Q 372 3047 722 3315 
Q 1072 3584 1716 3584 
Q 2034 3584 2315 3537 
Q 2597 3491 2834 3397 
z
" transform="scale(0.015625)"/>
       <path id="DejaVuSans-75" d="M 544 1381 
L 544 3500 
L 1119 3500 
L 1119 1403 
Q 1119 906 1312 657 
Q 1506 409 1894 409 
Q 2359 409 2629 706 
Q 2900 1003 2900 1516 
L 2900 3500 
L 3475 3500 
L 3475 0 
L 2900 0 
L 2900 538 
Q 2691 219 2414 64 
Q 2138 -91 1772 -91 
Q 1169 -91 856 284 
Q 544 659 544 1381 
z
M 1991 3584 
L 1991 3584 
z
" transform="scale(0.015625)"/>
       <path id="DejaVuSans-72" d="M 2631 2963 
Q 2534 3019 2420 3045 
Q 2306 3072 2169 3072 
Q 1681 3072 1420 2755 
Q 1159 2438 1159 1844 
L 1159 0 
L 581 0 
L 581 3500 
L 1159 3500 
L 1159 2956 
Q 1341 3275 1631 3429 
Q 1922 3584 2338 3584 
Q 2397 3584 2469 3576 
Q 2541 3569 2628 3553 
L 2631 2963 
z
" transform="scale(0.015625)"/>
       <path id="DejaVuSans-6e" d="M 3513 2113 
L 3513 0 
L 2938 0 
L 2938 2094 
Q 2938 2591 2744 2837 
Q 2550 3084 2163 3084 
Q 1697 3084 1428 2787 
Q 1159 2491 1159 1978 
L 1159 0 
L 581 0 
L 581 3500 
L 1159 3500 
L 1159 2956 
Q 1366 3272 1645 3428 
Q 1925 3584 2291 3584 
Q 2894 3584 3203 3211 
Q 3513 2838 3513 2113 
z
" transform="scale(0.015625)"/>
       <path id="DejaVuSans-74" d="M 1172 4494 
L 1172 3500 
L 2356 3500 
L 2356 3053 
L 1172 3053 
L 1172 1153 
Q 1172 725 1289 603 
Q 1406 481 1766 481 
L 2356 481 
L 2356 0 
L 1766 0 
Q 1100 0 847 248 
Q 594 497 594 1153 
L 594 3053 
L 172 3053 
L 172 3500 
L 594 3500 
L 594 4494 
L 1172 4494 
z
" transform="scale(0.015625)"/>
       <path id="DejaVuSans-20" transform="scale(0.015625)"/>
       <path id="DejaVuSans-23" d="M 3272 2816 
L 2363 2816 
L 2100 1772 
L 3016 1772 
L 3272 2816 
z
M 2803 4594 
L 2478 3297 
L 3391 3297 
L 3719 4594 
L 4219 4594 
L 3897 3297 
L 4872 3297 
L 4872 2816 
L 3775 2816 
L 3519 1772 
L 4513 1772 
L 4513 1294 
L 3397 1294 
L 3072 0 
L 2572 0 
L 2894 1294 
L 1978 1294 
L 1656 0 
L 1153 0 
L 1478 1294 
L 494 1294 
L 494 1772 
L 1594 1772 
L 1856 2816 
L 850 2816 
L 850 3297 
L 1978 3297 
L 2297 4594 
L 2803 4594 
z
" transform="scale(0.015625)"/>
      </defs>
      <use xlink:href="#DejaVuSans-6d"/>
      <use xlink:href="#DejaVuSans-65" x="97.412109"/>
      <use xlink:href="#DejaVuSans-61" x="158.935547"/>
      <use xlink:href="#DejaVuSans-73" x="220.214844"/>
      <use xlink:href="#DejaVuSans-75" x="272.314453"/>
      <use xlink:href="#DejaVuSans-72" x="335.693359"/>
      <use xlink:href="#DejaVuSans-65" x="374.556641"/>
      <use xlink:href="#DejaVuSans-6d" x="436.080078"/>
      <use xlink:href="#DejaVuSans-65" x="533.492188"/>
      <use xlink:href="#DejaVuSans-6e" x="595.015625"/>
      <use xlink:href="#DejaVuSans-74" x="658.394531"/>
      <use xlink:href="#DejaVuSans-20" x="697.603516"/>
      <use xlink:href="#DejaVuSans-23" x="729.390625"/>
     </g>
    </g>
   </g>
   <g id="matplotlib.axis_2">
    <g id="ytick_1">
     <g id="line2d_7">
      <defs>
       <path id="m2db69edfe6" d="M 0 0 
L -3.5 0 
" style="stroke: #000000; stroke-width: 0.8"/>
      </defs>
      <g>
       <use xlink:href="#m2db69edfe6" x="57.6" y="289.503" style="stroke: #000000; stroke-width: 0.8"/>
      </g>
     </g>
     <g id="text_8">
      <!-- 100 -->
      <g transform="translate(31.5125 293.302219) scale(0.1 -0.1)">
       <use xlink:href="#DejaVuSans-31"/>
       <use xlink:href="#DejaVuSans-30" x="63.623047"/>
       <use xlink:href="#DejaVuSans-30" x="127.246094"/>
      </g>
     </g>
    </g>
    <g id="ytick_2">
     <g id="line2d_8">
      <g>
       <use xlink:href="#m2db69edfe6" x="57.6" y="258.003" style="stroke: #000000; stroke-width: 0.8"/>
      </g>
     </g>
     <g id="text_9">
      <!-- 200 -->
      <g transform="translate(31.5125 261.802219) scale(0.1 -0.1)">
       <use xlink:href="#DejaVuSans-32"/>
       <use xlink:href="#DejaVuSans-30" x="63.623047"/>
       <use xlink:href="#DejaVuSans-30" x="127.246094"/>
      </g>
     </g>
    </g>
    <g id="ytick_3">
     <g id="line2d_9">
      <g>
       <use xlink:href="#m2db69edfe6" x="57.6" y="226.503" style="stroke: #000000; stroke-width: 0.8"/>
      </g>
     </g>
     <g id="text_10">
      <!-- 300 -->
      <g transform="translate(31.5125 230.302219) scale(0.1 -0.1)">
       <use xlink:href="#DejaVuSans-33"/>
       <use xlink:href="#DejaVuSans-30" x="63.623047"/>
       <use xlink:href="#DejaVuSans-30" x="127.246094"/>
      </g>
     </g>
    </g>
    <g id="ytick_4">
     <g id="line2d_10">
      <g>
       <use xlink:href="#m2db69edfe6" x="57.6" y="195.003" style="stroke: #000000; stroke-width: 0.8"/>
      </g>
     </g>
     <g id="text_11">
      <!-- 400 -->
      <g transform="translate(31.5125 198.802219) scale(0.1 -0.1)">
       <use xlink:href="#DejaVuSans-34"/>
       <use xlink:href="#DejaVuSans-30" x="63.623047"/>
       <use xlink:href="#DejaVuSans-30" x="127.246094"/>
      </g>
     </g>
    </g>
    <g id="ytick_5">
     <g id="line2d_11">
      <g>
       <use xlink:href="#m2db69edfe6" x="57.6" y="163.503" style="stroke: #000000; stroke-width: 0.8"/>
      </g>
     </g>
     <g id="text_12">
      <!-- 500 -->
      <g transform="translate(31.5125 167.302219) scale(0.1 -0.1)">
       <use xlink:href="#DejaVuSans-35"/>
       <use xlink:href="#DejaVuSans-30" x="63.623047"/>
       <use xlink:href="#DejaVuSans-30" x="127.246094"/>
      </g>
     </g>
    </g>
    <g id="ytick_6">
     <g id="line2d_12">
      <g>
       <use xlink:href="#m2db69edfe6" x="57.6" y="132.003" style="stroke: #000000; stroke-width: 0.8"/>
      </g>
     </g>
     <g id="text_13">
      <!-- 600 -->
      <g transform="translate(31.5125 135.802219) scale(0.1 -0.1)">
       <defs>
        <path id="DejaVuSans-36" d="M 2113 2584 
Q 1688 2584 1439 2293 
Q 1191 2003 1191 1497 
Q 1191 994 1439 701 
Q 1688 409 2113 409 
Q 2538 409 2786 701 
Q 3034 994 3034 1497 
Q 3034 2003 2786 2293 
Q 2538 2584 2113 2584 
z
M 3366 4563 
L 3366 3988 
Q 3128 4100 2886 4159 
Q 2644 4219 2406 4219 
Q 1781 4219 1451 3797 
Q 1122 3375 1075 2522 
Q 1259 2794 1537 2939 
Q 1816 3084 2150 3084 
Q 2853 3084 3261 2657 
Q 3669 2231 3669 1497 
Q 3669 778 3244 343 
Q 2819 -91 2113 -91 
Q 1303 -91 875 529 
Q 447 1150 447 2328 
Q 447 3434 972 4092 
Q 1497 4750 2381 4750 
Q 2619 4750 2861 4703 
Q 3103 4656 3366 4563 
z
" transform="scale(0.015625)"/>
       </defs>
       <use xlink:href="#DejaVuSans-36"/>
       <use xlink:href="#DejaVuSans-30" x="63.623047"/>
       <use xlink:href="#DejaVuSans-30" x="127.246094"/>
      </g>
     </g>
    </g>
    <g id="ytick_7">
     <g id="line2d_13">
      <g>
       <use xlink:href="#m2db69edfe6" x="57.6" y="100.503" style="stroke: #000000; stroke-width: 0.8"/>
      </g>
     </g>
     <g id="text_14">
      <!-- 700 -->
      <g transform="translate(31.5125 104.302219) scale(0.1 -0.1)">
       <defs>
        <path id="DejaVuSans-37" d="M 525 4666 
L 3525 4666 
L 3525 4397 
L 1831 0 
L 1172 0 
L 2766 4134 
L 525 4134 
L 525 4666 
z
" transform="scale(0.015625)"/>
       </defs>
       <use xlink:href="#DejaVuSans-37"/>
       <use xlink:href="#DejaVuSans-30" x="63.623047"/>
       <use xlink:href="#DejaVuSans-30" x="127.246094"/>
      </g>
     </g>
    </g>
    <g id="ytick_8">
     <g id="line2d_14">
      <g>
       <use xlink:href="#m2db69edfe6" x="57.6" y="69.003" style="stroke: #000000; stroke-width: 0.8"/>
      </g>
     </g>
     <g id="text_15">
      <!-- 800 -->
      <g transform="translate(31.5125 72.802219) scale(0.1 -0.1)">
       <defs>
        <path id="DejaVuSans-38" d="M 2034 2216 
Q 1584 2216 1326 1975 
Q 1069 1734 1069 1313 
Q 1069 891 1326 650 
Q 1584 409 2034 409 
Q 2484 409 2743 651 
Q 3003 894 3003 1313 
Q 3003 1734 2745 1975 
Q 2488 2216 2034 2216 
z
M 1403 2484 
Q 997 2584 770 2862 
Q 544 3141 544 3541 
Q 544 4100 942 4425 
Q 1341 4750 2034 4750 
Q 2731 4750 3128 4425 
Q 3525 4100 3525 3541 
Q 3525 3141 3298 2862 
Q 3072 2584 2669 2484 
Q 3125 2378 3379 2068 
Q 3634 1759 3634 1313 
Q 3634 634 3220 271 
Q 2806 -91 2034 -91 
Q 1263 -91 848 271 
Q 434 634 434 1313 
Q 434 1759 690 2068 
Q 947 2378 1403 2484 
z
M 1172 3481 
Q 1172 3119 1398 2916 
Q 1625 2713 2034 2713 
Q 2441 2713 2670 2916 
Q 2900 3119 2900 3481 
Q 2900 3844 2670 4047 
Q 2441 4250 2034 4250 
Q 1625 4250 1398 4047 
Q 1172 3844 1172 3481 
z
" transform="scale(0.015625)"/>
       </defs>
       <use xlink:href="#DejaVuSans-38"/>
       <use xlink:href="#DejaVuSans-30" x="63.623047"/>
       <use xlink:href="#DejaVuSans-30" x="127.246094"/>
      </g>
     </g>
    </g>
    <g id="text_16">
     <!-- time -->
     <g transform="translate(25.432812 185.824094) rotate(-90) scale(0.1 -0.1)">
      <defs>
       <path id="DejaVuSans-69" d="M 603 3500 
L 1178 3500 
L 1178 0 
L 603 0 
L 603 3500 
z
M 603 4863 
L 1178 4863 
L 1178 4134 
L 603 4134 
L 603 4863 
z
" transform="scale(0.015625)"/>
      </defs>
      <use xlink:href="#DejaVuSans-74"/>
      <use xlink:href="#DejaVuSans-69" x="39.208984"/>
      <use xlink:href="#DejaVuSans-6d" x="66.992188"/>
      <use xlink:href="#DejaVuSans-65" x="164.404297"/>
     </g>
    </g>
   </g>
   <g id="line2d_15">
    <path d="M 73.832727 295.488 
L 73.962615 293.913 
L 82.275434 293.913 
L 82.405322 293.283 
L 82.600153 293.283 
L 82.730041 289.503 
L 83.054761 214.533 
L 83.119705 214.533 
L 83.249592 213.273 
L 83.963975 213.273 
L 84.093863 212.958 
L 85.847348 212.958 
L 85.977236 212.643 
L 88.510048 212.643 
L 88.639936 212.328 
L 90.848029 212.328 
L 90.977916 212.013 
L 92.21185 212.013 
L 92.341738 211.698 
L 94.354999 211.698 
L 94.484887 211.383 
L 97.472306 211.383 
L 97.602194 211.068 
L 102.083323 211.068 
L 102.213211 210.753 
L 104.486247 210.753 
L 104.616135 210.438 
L 106.629396 210.438 
L 106.759283 210.123 
L 111.305356 210.123 
L 111.435244 209.808 
L 118.254353 209.808 
L 118.384241 209.493 
L 124.229192 209.493 
L 124.35908 209.178 
L 127.346499 209.178 
L 127.476387 208.863 
L 130.593694 208.863 
L 130.723582 208.548 
L 136.048981 208.548 
L 136.178869 208.233 
L 142.673259 208.233 
L 142.803147 207.918 
L 145.985398 207.918 
L 146.115286 207.603 
L 147.738883 207.603 
L 147.868771 207.288 
L 149.102705 207.288 
L 149.232593 206.973 
L 152.544731 206.973 
L 152.674619 206.658 
L 155.207431 206.658 
L 155.337319 206.343 
L 158.129907 206.343 
L 158.259795 206.028 
L 160.922494 206.028 
L 161.052382 205.713 
L 164.559353 205.713 
L 164.68924 205.398 
L 167.611716 205.398 
L 167.741604 205.083 
L 169.365201 205.083 
L 169.495089 204.768 
L 170.209472 204.768 
L 170.33936 204.453 
L 170.404303 204.453 
L 170.534191 204.138 
L 172.157789 204.138 
L 172.287676 203.823 
L 176.314198 203.823 
L 176.444086 203.508 
L 184.237354 203.508 
L 184.367241 203.193 
L 193.329499 203.193 
L 193.459387 202.878 
L 199.823889 202.878 
L 199.953777 202.563 
L 208.396484 202.563 
L 208.526371 202.248 
L 217.228854 202.248 
L 217.358742 201.933 
L 227.035382 201.933 
L 227.16527 201.618 
L 232.49067 201.618 
L 232.620558 201.303 
L 234.179211 201.303 
L 234.309099 200.988 
L 237.621238 200.988 
L 237.751125 200.673 
L 241.647759 200.673 
L 241.777647 200.358 
L 244.570235 200.358 
L 244.700123 200.043 
L 246.518552 200.043 
L 246.64844 199.728 
L 250.480129 199.728 
L 250.610017 199.413 
L 254.506651 199.413 
L 254.636539 199.098 
L 255.48081 199.098 
L 255.610697 198.783 
L 259.572275 198.783 
L 259.702163 198.468 
L 267.950038 198.468 
L 268.079926 198.153 
L 274.769147 198.153 
L 274.899035 197.838 
L 277.756567 197.838 
L 277.886454 197.523 
L 279.704884 197.523 
L 279.834771 197.208 
L 283.536573 197.208 
L 283.666461 196.893 
L 286.913656 196.893 
L 287.043544 196.578 
L 289.511412 196.578 
L 289.6413 196.263 
L 291.784449 196.263 
L 291.914336 195.948 
L 295.681082 195.948 
L 295.81097 195.633 
L 298.343782 195.633 
L 298.47367 195.318 
L 301.071426 195.318 
L 301.201314 195.003 
L 302.500192 195.003 
L 302.630079 194.688 
L 303.019743 194.688 
L 303.149631 194.373 
L 304.773228 194.373 
L 304.903116 194.058 
L 307.30604 194.058 
L 307.435928 193.743 
L 313.345823 193.743 
L 313.47571 193.428 
L 319.255717 193.428 
L 319.385605 193.113 
L 325.2955 193.113 
L 325.425388 192.798 
L 327.568536 192.798 
L 327.698424 192.483 
L 331.270338 192.483 
L 331.400226 192.168 
L 341.271699 192.168 
L 341.401586 191.853 
L 350.298901 191.853 
L 350.428788 191.538 
L 355.364525 191.538 
L 355.494412 191.223 
L 356.728346 191.223 
L 356.858234 190.908 
L 357.702505 190.908 
L 357.832393 190.593 
L 357.96228 190.593 
L 358.092168 190.278 
L 358.611719 190.278 
L 358.741607 189.963 
L 359.131271 189.963 
L 359.261158 189.648 
L 360.040485 189.648 
L 360.170373 189.333 
L 360.560036 189.333 
L 360.689924 189.018 
L 361.664083 189.018 
L 361.79397 188.703 
L 362.053746 188.703 
L 362.183634 188.388 
L 362.508353 188.388 
L 362.638241 188.073 
L 363.092848 188.073 
L 363.222736 187.758 
L 363.742287 187.758 
L 363.872175 187.443 
L 364.391726 187.443 
L 364.521614 187.128 
L 365.171053 187.128 
L 365.300941 186.813 
L 365.560717 186.813 
L 365.690604 186.498 
L 366.145212 186.498 
L 366.275099 186.183 
L 367.11937 186.183 
L 367.249258 185.868 
L 367.314202 185.868 
L 367.44409 185.553 
L 367.573977 185.553 
L 367.703865 185.238 
L 368.353304 185.238 
L 368.483192 184.923 
L 368.678024 184.923 
L 368.807911 184.608 
L 369.002743 184.608 
L 369.132631 184.293 
L 369.197575 184.293 
L 369.327463 183.978 
L 369.78207 183.978 
L 369.976902 183.348 
L 370.496453 183.348 
L 370.626341 183.033 
L 371.016004 183.033 
L 371.145892 182.718 
L 371.27578 182.718 
L 371.405667 182.403 
L 371.470611 182.403 
L 371.600499 182.088 
L 371.795331 182.088 
L 371.925218 181.773 
L 372.12005 181.773 
L 372.249938 181.458 
L 372.44477 181.458 
L 372.574657 181.143 
L 372.769489 181.143 
L 372.899377 180.828 
L 372.964321 180.828 
L 373.224096 179.883 
L 373.28904 179.883 
L 373.418928 179.568 
L 373.548816 179.568 
L 373.678704 179.253 
L 373.743648 179.253 
L 373.938479 178.623 
L 374.198255 178.623 
L 375.302301 173.583 
L 375.367245 173.583 
L 375.886796 170.748 
L 376.081628 168.543 
L 376.146572 168.228 
L 376.536235 163.818 
L 376.601179 163.818 
L 376.796011 159.723 
L 376.925899 158.463 
L 377.12073 154.368 
L 377.315562 153.423 
L 377.510394 149.328 
L 377.835113 146.178 
L 377.900057 145.863 
L 378.029945 143.973 
L 378.094889 143.658 
L 378.224777 141.768 
L 378.809272 139.248 
L 378.874216 139.248 
L 379.069047 137.358 
L 379.263879 136.728 
L 379.328823 136.728 
L 379.523655 135.783 
L 379.913318 134.208 
L 379.978262 134.208 
L 380.367925 132.633 
L 380.562757 132.633 
L 380.692645 132.318 
L 380.757589 132.318 
L 381.017364 131.373 
L 381.147252 131.373 
L 381.27714 131.058 
L 381.342084 131.058 
L 381.471971 130.743 
L 381.666803 130.743 
L 381.861635 130.113 
L 381.926579 130.113 
L 382.056467 129.798 
L 382.12141 129.798 
L 382.251298 129.483 
L 382.381186 129.483 
L 382.511074 129.168 
L 382.576018 129.168 
L 382.705906 128.853 
L 382.965681 128.853 
L 383.095569 128.538 
L 383.160513 128.538 
L 383.290401 128.223 
L 383.550176 128.223 
L 383.680064 127.908 
L 383.809952 127.908 
L 384.004784 127.278 
L 384.264559 127.278 
L 384.394447 126.963 
L 384.524335 126.963 
L 384.719166 126.333 
L 384.849054 126.333 
L 384.978942 126.018 
L 385.043886 126.018 
L 385.173774 125.703 
L 385.368605 125.703 
L 385.498493 125.388 
L 385.758269 125.388 
L 386.018044 124.443 
L 386.342764 124.443 
L 386.472652 124.128 
L 386.537596 124.128 
L 386.667483 123.813 
L 386.797371 123.813 
L 387.057147 122.868 
L 387.122091 122.868 
L 387.381866 121.923 
L 387.44681 121.923 
L 387.641642 120.978 
L 387.77153 120.978 
L 387.966361 120.348 
L 388.031305 120.348 
L 388.291081 119.403 
L 388.356025 119.403 
L 388.485912 119.088 
L 388.6158 119.088 
L 388.745688 118.773 
L 388.875576 118.773 
L 389.070408 117.198 
L 389.135351 117.198 
L 389.979622 112.788 
L 390.239398 111.213 
L 390.369285 111.213 
L 390.564117 110.583 
L 390.758949 110.583 
L 391.408388 107.748 
L 391.538276 107.748 
L 391.668163 107.433 
L 391.798051 107.433 
L 391.927939 107.118 
L 391.992883 107.118 
L 392.187715 106.488 
L 392.382546 106.488 
L 392.642322 105.543 
L 392.837154 105.543 
L 392.967041 105.228 
L 393.161873 105.228 
L 393.356705 104.598 
L 393.486593 104.598 
L 393.681424 103.968 
L 393.746368 103.968 
L 393.876256 103.653 
L 393.9412 103.653 
L 394.071088 103.338 
L 394.136032 103.338 
L 394.265919 103.023 
L 394.395807 103.023 
L 394.525695 102.708 
L 394.655583 102.708 
L 394.785471 102.393 
L 394.850414 102.393 
L 394.980302 102.078 
L 395.175134 102.078 
L 395.369966 101.448 
L 395.43491 101.448 
L 395.564797 101.133 
L 395.759629 101.133 
L 395.889517 100.818 
L 396.084349 100.818 
L 396.214236 100.503 
L 396.27918 100.503 
L 396.474012 99.873 
L 396.668844 99.873 
L 396.798731 99.558 
L 396.863675 99.558 
L 396.993563 99.243 
L 397.058507 99.243 
L 397.253339 98.613 
L 397.318283 98.613 
L 397.967722 95.778 
L 398.032665 95.778 
L 398.227497 94.833 
L 398.292441 94.833 
L 398.357385 94.518 
L 398.422329 93.258 
L 398.487273 88.848 
L 398.487273 88.848 
" clip-path="url(#pbb8abe5bdb)" style="fill: none; stroke: #1f77b4; stroke-width: 1.5; stroke-linecap: square"/>
   </g>
   <g id="line2d_16">
    <path d="M 73.832727 295.488 
L 74.027559 295.488 
L 74.157447 293.913 
L 83.314536 293.913 
L 83.444424 293.283 
L 83.509368 293.283 
L 83.7042 278.478 
L 83.769144 278.478 
L 83.899031 271.548 
L 83.963975 270.918 
L 84.093863 214.218 
L 84.353639 213.273 
L 84.678358 213.273 
L 84.808246 212.958 
L 86.821507 212.958 
L 86.951395 212.643 
L 89.484207 212.643 
L 89.614094 212.328 
L 91.822187 212.328 
L 91.952075 212.013 
L 93.770504 212.013 
L 93.900392 211.698 
L 96.108484 211.698 
L 96.238372 211.383 
L 99.550511 211.383 
L 99.680399 211.068 
L 103.122425 211.068 
L 103.252313 210.753 
L 105.590293 210.753 
L 105.720181 210.438 
L 106.759283 210.438 
L 106.889171 210.123 
L 111.305356 210.123 
L 111.435244 209.808 
L 117.929634 209.808 
L 118.059522 209.493 
L 123.709641 209.493 
L 123.839529 209.178 
L 127.606275 209.178 
L 127.736163 208.863 
L 129.879311 208.863 
L 130.009199 208.548 
L 135.52943 208.548 
L 135.659318 208.233 
L 142.413483 208.233 
L 142.543371 207.918 
L 145.335959 207.918 
L 145.465847 207.603 
L 147.219332 207.603 
L 147.34922 207.288 
L 148.648098 207.288 
L 148.777985 206.973 
L 152.3499 206.973 
L 152.479788 206.658 
L 155.142487 206.658 
L 155.272375 206.343 
L 156.895973 206.343 
L 157.02586 206.028 
L 158.974177 206.028 
L 159.104065 205.713 
L 163.260475 205.713 
L 163.390362 205.398 
L 167.092165 205.398 
L 167.222052 205.083 
L 168.975538 205.083 
L 169.105425 204.768 
L 169.560033 204.768 
L 169.689921 204.453 
L 169.949696 204.453 
L 170.079584 204.138 
L 171.638237 204.138 
L 171.768125 203.823 
L 175.664759 203.823 
L 175.794647 203.508 
L 182.029261 203.508 
L 182.159149 203.193 
L 192.030621 203.193 
L 192.160509 202.878 
L 198.395123 202.878 
L 198.525011 202.563 
L 204.694681 202.563 
L 204.824569 202.248 
L 213.851771 202.248 
L 213.981659 201.933 
L 224.50257 201.933 
L 224.632458 201.618 
L 230.99696 201.618 
L 231.126848 201.303 
L 233.65966 201.303 
L 233.789548 200.988 
L 236.971799 200.988 
L 237.101687 200.673 
L 241.387984 200.673 
L 241.517872 200.358 
L 245.024842 200.358 
L 245.15473 200.043 
L 248.077205 200.043 
L 248.207093 199.728 
L 251.714064 199.728 
L 251.843951 199.413 
L 256.065305 199.413 
L 256.195192 199.098 
L 257.883734 199.098 
L 258.013622 198.783 
L 262.170031 198.783 
L 262.299919 198.468 
L 269.638579 198.468 
L 269.768467 198.153 
L 275.873194 198.153 
L 276.003081 197.838 
L 278.600837 197.838 
L 278.730725 197.523 
L 280.938818 197.523 
L 281.068705 197.208 
L 284.380844 197.208 
L 284.510732 196.893 
L 288.017702 196.893 
L 288.14759 196.578 
L 291.589617 196.578 
L 291.719505 196.263 
L 293.667822 196.263 
L 293.797709 195.948 
L 297.694343 195.948 
L 297.824231 195.633 
L 301.331202 195.633 
L 301.461089 195.318 
L 303.79907 195.318 
L 303.928957 195.003 
L 305.227835 195.003 
L 305.357723 194.688 
L 306.007162 194.688 
L 306.13705 194.373 
L 307.565816 194.373 
L 307.695704 194.058 
L 309.773908 194.058 
L 309.903796 193.743 
L 315.813691 193.743 
L 315.943579 193.428 
L 322.502912 193.428 
L 322.6328 193.113 
L 327.893256 193.113 
L 328.023144 192.798 
L 331.335282 192.798 
L 331.46517 192.483 
L 334.647421 192.483 
L 334.777309 192.168 
L 341.336643 192.168 
L 341.46653 191.853 
L 349.584518 191.853 
L 349.714405 191.538 
L 353.740927 191.538 
L 353.870815 191.223 
L 355.819132 191.223 
L 355.94902 190.908 
L 356.663402 190.908 
L 356.79329 190.593 
L 357.572617 190.593 
L 357.702505 190.278 
L 358.157112 190.278 
L 358.287 189.963 
L 359.131271 189.963 
L 359.261158 189.648 
L 359.715766 189.648 
L 359.845653 189.333 
L 360.365205 189.333 
L 360.495092 189.018 
L 360.819812 189.018 
L 360.9497 188.703 
L 361.274419 188.703 
L 361.404307 188.388 
L 361.664083 188.388 
L 361.79397 188.073 
L 362.313522 188.073 
L 362.443409 187.758 
L 362.573297 187.758 
L 362.703185 187.443 
L 363.157792 187.443 
L 363.28768 187.128 
L 364.002063 187.128 
L 364.131951 186.813 
L 364.45667 186.813 
L 364.586558 186.498 
L 364.846334 186.498 
L 364.976221 186.183 
L 365.365885 186.183 
L 365.495773 185.868 
L 365.95038 185.868 
L 366.145212 185.238 
L 366.404987 185.238 
L 366.534875 184.923 
L 366.729707 184.923 
L 366.859594 184.608 
L 367.054426 184.608 
L 367.184314 184.293 
L 367.314202 184.293 
L 367.44409 183.978 
L 368.028585 183.978 
L 368.158472 183.663 
L 368.28836 183.663 
L 368.418248 183.348 
L 368.61308 183.348 
L 368.742968 183.033 
L 368.872855 183.033 
L 369.002743 182.718 
L 369.067687 182.718 
L 369.197575 182.403 
L 369.327463 182.403 
L 369.45735 182.088 
L 369.522294 182.088 
L 369.652182 181.773 
L 370.171733 181.773 
L 370.431509 180.828 
L 370.756228 180.828 
L 370.886116 180.513 
L 371.145892 180.513 
L 371.535555 178.938 
L 371.665443 178.938 
L 371.795331 178.623 
L 371.860275 178.623 
L 371.990162 178.308 
L 372.055106 178.308 
L 372.314882 177.363 
L 372.379826 177.363 
L 372.639601 176.418 
L 372.704545 176.418 
L 373.418928 173.268 
L 373.483872 173.268 
L 374.003423 171.063 
L 374.133311 171.063 
L 374.328143 168.858 
L 374.522974 167.283 
L 374.587918 167.283 
L 374.78275 166.338 
L 374.977582 164.133 
L 375.042526 164.133 
L 375.302301 161.613 
L 375.562077 152.793 
L 375.627021 152.163 
L 375.756908 150.273 
L 375.821852 149.958 
L 376.666123 139.248 
L 376.731067 139.248 
L 376.860955 137.673 
L 377.055786 135.468 
L 377.315562 134.523 
L 377.380506 134.523 
L 377.510394 134.208 
L 377.575338 134.208 
L 377.705225 133.893 
L 377.835113 133.893 
L 377.965001 133.578 
L 378.094889 133.578 
L 378.224777 133.263 
L 378.28972 133.263 
L 378.419608 132.948 
L 378.549496 132.948 
L 378.679384 132.633 
L 378.809272 132.633 
L 378.939159 132.318 
L 379.069047 132.318 
L 379.263879 131.688 
L 379.523655 131.688 
L 379.653542 131.373 
L 379.78343 131.373 
L 379.913318 131.058 
L 380.173094 131.058 
L 380.302981 130.743 
L 380.432869 130.743 
L 380.562757 130.428 
L 380.627701 130.428 
L 380.822533 129.798 
L 381.27714 129.798 
L 381.407028 129.483 
L 381.666803 129.483 
L 381.796691 129.168 
L 381.926579 129.168 
L 382.056467 128.853 
L 382.186354 128.853 
L 382.381186 128.223 
L 382.640962 128.223 
L 382.770849 127.908 
L 382.965681 127.908 
L 383.095569 127.593 
L 383.290401 127.593 
L 383.420288 127.278 
L 383.485232 127.278 
L 383.61512 126.963 
L 383.93984 126.963 
L 384.134671 126.333 
L 384.459391 126.333 
L 384.654222 125.703 
L 385.10883 125.703 
L 385.238718 125.388 
L 385.368605 125.388 
L 385.563437 124.758 
L 385.628381 124.758 
L 385.823213 124.128 
L 385.9531 124.128 
L 386.082988 123.813 
L 386.342764 123.813 
L 386.472652 123.498 
L 386.537596 123.498 
L 386.732427 122.868 
L 387.122091 122.868 
L 387.251978 122.553 
L 387.316922 122.553 
L 387.44681 122.238 
L 387.511754 122.238 
L 387.836473 120.978 
L 388.096249 120.978 
L 388.291081 120.348 
L 388.356025 120.348 
L 388.810632 118.458 
L 389.070408 118.458 
L 389.135351 118.143 
L 389.265239 116.883 
L 389.589959 115.623 
L 389.654903 115.623 
L 390.10951 111.843 
L 390.174454 111.843 
L 390.304342 110.898 
L 390.369285 110.898 
L 390.499173 110.268 
L 390.564117 110.268 
L 390.758949 109.638 
L 390.888837 109.638 
L 391.018724 109.323 
L 391.083668 109.323 
L 391.213556 109.008 
L 391.473332 109.008 
L 391.992883 106.803 
L 392.057827 106.803 
L 392.187715 106.488 
L 392.317602 106.488 
L 392.837154 104.283 
L 392.902098 104.283 
L 393.096929 103.653 
L 393.161873 103.653 
L 393.356705 103.023 
L 393.486593 103.023 
L 393.61648 102.708 
L 393.811312 102.708 
L 394.006144 102.078 
L 394.071088 102.078 
L 394.200975 101.763 
L 394.460751 101.763 
L 394.590639 101.448 
L 394.655583 101.448 
L 394.785471 101.133 
L 394.850414 101.133 
L 395.045246 100.503 
L 395.240078 100.503 
L 395.499853 99.558 
L 395.824573 99.558 
L 395.954461 99.243 
L 396.084349 99.243 
L 396.27918 98.613 
L 396.344124 98.613 
L 396.538956 97.983 
L 396.668844 97.983 
L 396.993563 96.723 
L 397.058507 96.723 
L 397.253339 96.093 
L 397.383226 96.093 
L 397.578058 95.463 
L 397.707946 95.463 
L 397.902778 94.833 
L 398.032665 93.258 
L 398.292441 91.683 
L 398.422329 90.423 
L 398.487273 53.568 
L 398.487273 53.568 
" clip-path="url(#pbb8abe5bdb)" style="fill: none; stroke: #ff7f0e; stroke-width: 1.5; stroke-linecap: square"/>
   </g>
   <g id="patch_3">
    <path d="M 57.6 307.584 
L 57.6 41.472 
" style="fill: none; stroke: #000000; stroke-width: 0.8; stroke-linejoin: miter; stroke-linecap: square"/>
   </g>
   <g id="patch_4">
    <path d="M 414.72 307.584 
L 414.72 41.472 
" style="fill: none; stroke: #000000; stroke-width: 0.8; stroke-linejoin: miter; stroke-linecap: square"/>
   </g>
   <g id="patch_5">
    <path d="M 57.6 307.584 
L 414.72 307.584 
" style="fill: none; stroke: #000000; stroke-width: 0.8; stroke-linejoin: miter; stroke-linecap: square"/>
   </g>
   <g id="patch_6">
    <path d="M 57.6 41.472 
L 414.72 41.472 
" style="fill: none; stroke: #000000; stroke-width: 0.8; stroke-linejoin: miter; stroke-linecap: square"/>
   </g>
   <g id="text_17">
    <!-- pointer array backwards detection test (reference) -->
    <g transform="translate(84.107812 35.472) scale(0.12 -0.12)">
     <defs>
      <path id="DejaVuSans-70" d="M 1159 525 
L 1159 -1331 
L 581 -1331 
L 581 3500 
L 1159 3500 
L 1159 2969 
Q 1341 3281 1617 3432 
Q 1894 3584 2278 3584 
Q 2916 3584 3314 3078 
Q 3713 2572 3713 1747 
Q 3713 922 3314 415 
Q 2916 -91 2278 -91 
Q 1894 -91 1617 61 
Q 1341 213 1159 525 
z
M 3116 1747 
Q 3116 2381 2855 2742 
Q 2594 3103 2138 3103 
Q 1681 3103 1420 2742 
Q 1159 2381 1159 1747 
Q 1159 1113 1420 752 
Q 1681 391 2138 391 
Q 2594 391 2855 752 
Q 3116 1113 3116 1747 
z
" transform="scale(0.015625)"/>
      <path id="DejaVuSans-6f" d="M 1959 3097 
Q 1497 3097 1228 2736 
Q 959 2375 959 1747 
Q 959 1119 1226 758 
Q 1494 397 1959 397 
Q 2419 397 2687 759 
Q 2956 1122 2956 1747 
Q 2956 2369 2687 2733 
Q 2419 3097 1959 3097 
z
M 1959 3584 
Q 2709 3584 3137 3096 
Q 3566 2609 3566 1747 
Q 3566 888 3137 398 
Q 2709 -91 1959 -91 
Q 1206 -91 779 398 
Q 353 888 353 1747 
Q 353 2609 779 3096 
Q 1206 3584 1959 3584 
z
" transform="scale(0.015625)"/>
      <path id="DejaVuSans-79" d="M 2059 -325 
Q 1816 -950 1584 -1140 
Q 1353 -1331 966 -1331 
L 506 -1331 
L 506 -850 
L 844 -850 
Q 1081 -850 1212 -737 
Q 1344 -625 1503 -206 
L 1606 56 
L 191 3500 
L 800 3500 
L 1894 763 
L 2988 3500 
L 3597 3500 
L 2059 -325 
z
" transform="scale(0.015625)"/>
      <path id="DejaVuSans-62" d="M 3116 1747 
Q 3116 2381 2855 2742 
Q 2594 3103 2138 3103 
Q 1681 3103 1420 2742 
Q 1159 2381 1159 1747 
Q 1159 1113 1420 752 
Q 1681 391 2138 391 
Q 2594 391 2855 752 
Q 3116 1113 3116 1747 
z
M 1159 2969 
Q 1341 3281 1617 3432 
Q 1894 3584 2278 3584 
Q 2916 3584 3314 3078 
Q 3713 2572 3713 1747 
Q 3713 922 3314 415 
Q 2916 -91 2278 -91 
Q 1894 -91 1617 61 
Q 1341 213 1159 525 
L 1159 0 
L 581 0 
L 581 4863 
L 1159 4863 
L 1159 2969 
z
" transform="scale(0.015625)"/>
      <path id="DejaVuSans-63" d="M 3122 3366 
L 3122 2828 
Q 2878 2963 2633 3030 
Q 2388 3097 2138 3097 
Q 1578 3097 1268 2742 
Q 959 2388 959 1747 
Q 959 1106 1268 751 
Q 1578 397 2138 397 
Q 2388 397 2633 464 
Q 2878 531 3122 666 
L 3122 134 
Q 2881 22 2623 -34 
Q 2366 -91 2075 -91 
Q 1284 -91 818 406 
Q 353 903 353 1747 
Q 353 2603 823 3093 
Q 1294 3584 2113 3584 
Q 2378 3584 2631 3529 
Q 2884 3475 3122 3366 
z
" transform="scale(0.015625)"/>
      <path id="DejaVuSans-6b" d="M 581 4863 
L 1159 4863 
L 1159 1991 
L 2875 3500 
L 3609 3500 
L 1753 1863 
L 3688 0 
L 2938 0 
L 1159 1709 
L 1159 0 
L 581 0 
L 581 4863 
z
" transform="scale(0.015625)"/>
      <path id="DejaVuSans-77" d="M 269 3500 
L 844 3500 
L 1563 769 
L 2278 3500 
L 2956 3500 
L 3675 769 
L 4391 3500 
L 4966 3500 
L 4050 0 
L 3372 0 
L 2619 2869 
L 1863 0 
L 1184 0 
L 269 3500 
z
" transform="scale(0.015625)"/>
      <path id="DejaVuSans-64" d="M 2906 2969 
L 2906 4863 
L 3481 4863 
L 3481 0 
L 2906 0 
L 2906 525 
Q 2725 213 2448 61 
Q 2172 -91 1784 -91 
Q 1150 -91 751 415 
Q 353 922 353 1747 
Q 353 2572 751 3078 
Q 1150 3584 1784 3584 
Q 2172 3584 2448 3432 
Q 2725 3281 2906 2969 
z
M 947 1747 
Q 947 1113 1208 752 
Q 1469 391 1925 391 
Q 2381 391 2643 752 
Q 2906 1113 2906 1747 
Q 2906 2381 2643 2742 
Q 2381 3103 1925 3103 
Q 1469 3103 1208 2742 
Q 947 2381 947 1747 
z
" transform="scale(0.015625)"/>
      <path id="DejaVuSans-28" d="M 1984 4856 
Q 1566 4138 1362 3434 
Q 1159 2731 1159 2009 
Q 1159 1288 1364 580 
Q 1569 -128 1984 -844 
L 1484 -844 
Q 1016 -109 783 600 
Q 550 1309 550 2009 
Q 550 2706 781 3412 
Q 1013 4119 1484 4856 
L 1984 4856 
z
" transform="scale(0.015625)"/>
      <path id="DejaVuSans-66" d="M 2375 4863 
L 2375 4384 
L 1825 4384 
Q 1516 4384 1395 4259 
Q 1275 4134 1275 3809 
L 1275 3500 
L 2222 3500 
L 2222 3053 
L 1275 3053 
L 1275 0 
L 697 0 
L 697 3053 
L 147 3053 
L 147 3500 
L 697 3500 
L 697 3744 
Q 697 4328 969 4595 
Q 1241 4863 1831 4863 
L 2375 4863 
z
" transform="scale(0.015625)"/>
      <path id="DejaVuSans-29" d="M 513 4856 
L 1013 4856 
Q 1481 4119 1714 3412 
Q 1947 2706 1947 2009 
Q 1947 1309 1714 600 
Q 1481 -109 1013 -844 
L 513 -844 
Q 928 -128 1133 580 
Q 1338 1288 1338 2009 
Q 1338 2731 1133 3434 
Q 928 4138 513 4856 
z
" transform="scale(0.015625)"/>
     </defs>
     <use xlink:href="#DejaVuSans-70"/>
     <use xlink:href="#DejaVuSans-6f" x="63.476562"/>
     <use xlink:href="#DejaVuSans-69" x="124.658203"/>
     <use xlink:href="#DejaVuSans-6e" x="152.441406"/>
     <use xlink:href="#DejaVuSans-74" x="215.820312"/>
     <use xlink:href="#DejaVuSans-65" x="255.029297"/>
     <use xlink:href="#DejaVuSans-72" x="316.552734"/>
     <use xlink:href="#DejaVuSans-20" x="357.666016"/>
     <use xlink:href="#DejaVuSans-61" x="389.453125"/>
     <use xlink:href="#DejaVuSans-72" x="450.732422"/>
     <use xlink:href="#DejaVuSans-72" x="490.095703"/>
     <use xlink:href="#DejaVuSans-61" x="531.208984"/>
     <use xlink:href="#DejaVuSans-79" x="592.488281"/>
     <use xlink:href="#DejaVuSans-20" x="651.667969"/>
     <use xlink:href="#DejaVuSans-62" x="683.455078"/>
     <use xlink:href="#DejaVuSans-61" x="746.931641"/>
     <use xlink:href="#DejaVuSans-63" x="808.210938"/>
     <use xlink:href="#DejaVuSans-6b" x="863.191406"/>
     <use xlink:href="#DejaVuSans-77" x="921.101562"/>
     <use xlink:href="#DejaVuSans-61" x="1002.888672"/>
     <use xlink:href="#DejaVuSans-72" x="1064.167969"/>
     <use xlink:href="#DejaVuSans-64" x="1103.53125"/>
     <use xlink:href="#DejaVuSans-73" x="1167.007812"/>
     <use xlink:href="#DejaVuSans-20" x="1219.107422"/>
     <use xlink:href="#DejaVuSans-64" x="1250.894531"/>
     <use xlink:href="#DejaVuSans-65" x="1314.371094"/>
     <use xlink:href="#DejaVuSans-74" x="1375.894531"/>
     <use xlink:href="#DejaVuSans-65" x="1415.103516"/>
     <use xlink:href="#DejaVuSans-63" x="1476.626953"/>
     <use xlink:href="#DejaVuSans-74" x="1531.607422"/>
     <use xlink:href="#DejaVuSans-69" x="1570.816406"/>
     <use xlink:href="#DejaVuSans-6f" x="1598.599609"/>
     <use xlink:href="#DejaVuSans-6e" x="1659.78125"/>
     <use xlink:href="#DejaVuSans-20" x="1723.160156"/>
     <use xlink:href="#DejaVuSans-74" x="1754.947266"/>
     <use xlink:href="#DejaVuSans-65" x="1794.15625"/>
     <use xlink:href="#DejaVuSans-73" x="1855.679688"/>
     <use xlink:href="#DejaVuSans-74" x="1907.779297"/>
     <use xlink:href="#DejaVuSans-20" x="1946.988281"/>
     <use xlink:href="#DejaVuSans-28" x="1978.775391"/>
     <use xlink:href="#DejaVuSans-72" x="2017.789062"/>
     <use xlink:href="#DejaVuSans-65" x="2056.652344"/>
     <use xlink:href="#DejaVuSans-66" x="2118.175781"/>
     <use xlink:href="#DejaVuSans-65" x="2153.380859"/>
     <use xlink:href="#DejaVuSans-72" x="2214.904297"/>
     <use xlink:href="#DejaVuSans-65" x="2253.767578"/>
     <use xlink:href="#DejaVuSans-6e" x="2315.291016"/>
     <use xlink:href="#DejaVuSans-63" x="2378.669922"/>
     <use xlink:href="#DejaVuSans-65" x="2433.650391"/>
     <use xlink:href="#DejaVuSans-29" x="2495.173828"/>
    </g>
   </g>
   <g id="legend_1">
    <g id="patch_7">
     <path d="M 64.6 78.82825 
L 166.359375 78.82825 
Q 168.359375 78.82825 168.359375 76.82825 
L 168.359375 48.472 
Q 168.359375 46.472 166.359375 46.472 
L 64.6 46.472 
Q 62.6 46.472 62.6 48.472 
L 62.6 76.82825 
Q 62.6 78.82825 64.6 78.82825 
z
" style="fill: #ffffff; opacity: 0.8; stroke: #cccccc; stroke-linejoin: miter"/>
    </g>
    <g id="line2d_17">
     <path d="M 66.6 54.570437 
L 76.6 54.570437 
L 86.6 54.570437 
" style="fill: none; stroke: #1f77b4; stroke-width: 1.5; stroke-linecap: square"/>
    </g>
    <g id="text_18">
     <!-- measurement -->
     <g transform="translate(94.6 58.070437) scale(0.1 -0.1)">
      <use xlink:href="#DejaVuSans-6d"/>
      <use xlink:href="#DejaVuSans-65" x="97.412109"/>
      <use xlink:href="#DejaVuSans-61" x="158.935547"/>
      <use xlink:href="#DejaVuSans-73" x="220.214844"/>
      <use xlink:href="#DejaVuSans-75" x="272.314453"/>
      <use xlink:href="#DejaVuSans-72" x="335.693359"/>
      <use xlink:href="#DejaVuSans-65" x="374.556641"/>
      <use xlink:href="#DejaVuSans-6d" x="436.080078"/>
      <use xlink:href="#DejaVuSans-65" x="533.492188"/>
      <use xlink:href="#DejaVuSans-6e" x="595.015625"/>
      <use xlink:href="#DejaVuSans-74" x="658.394531"/>
     </g>
    </g>
    <g id="line2d_18">
     <path d="M 66.6 69.248562 
L 76.6 69.248562 
L 86.6 69.248562 
" style="fill: none; stroke: #ff7f0e; stroke-width: 1.5; stroke-linecap: square"/>
    </g>
    <g id="text_19">
     <!-- reference -->
     <g transform="translate(94.6 72.748562) scale(0.1 -0.1)">
      <use xlink:href="#DejaVuSans-72"/>
      <use xlink:href="#DejaVuSans-65" x="38.863281"/>
      <use xlink:href="#DejaVuSans-66" x="100.386719"/>
      <use xlink:href="#DejaVuSans-65" x="135.591797"/>
      <use xlink:href="#DejaVuSans-72" x="197.115234"/>
      <use xlink:href="#DejaVuSans-65" x="235.978516"/>
      <use xlink:href="#DejaVuSans-6e" x="297.501953"/>
      <use xlink:href="#DejaVuSans-63" x="360.880859"/>
      <use xlink:href="#DejaVuSans-65" x="415.861328"/>
     </g>
    </g>
   </g>
  </g>
 </g>
 <defs>
  <clipPath id="pbb8abe5bdb">
   <rect x="57.6" y="41.472" width="357.12" height="266.112"/>
  </clipPath>
 </defs>
</svg>
