<?xml version="1.0" encoding="utf-8" standalone="no"?>
<!DOCTYPE svg PUBLIC "-//W3C//DTD SVG 1.1//EN"
  "http://www.w3.org/Graphics/SVG/1.1/DTD/svg11.dtd">
<svg xmlns:xlink="http://www.w3.org/1999/xlink" width="460.8pt" height="345.6pt" viewBox="0 0 460.8 345.6" xmlns="http://www.w3.org/2000/svg" version="1.1">
 <metadata>
  <rdf:RDF xmlns:dc="http://purl.org/dc/elements/1.1/" xmlns:cc="http://creativecommons.org/ns#" xmlns:rdf="http://www.w3.org/1999/02/22-rdf-syntax-ns#">
   <cc:Work>
    <dc:type rdf:resource="http://purl.org/dc/dcmitype/StillImage"/>
    <dc:date>2024-10-04T16:13:10.519864</dc:date>
    <dc:format>image/svg+xml</dc:format>
    <dc:creator>
     <cc:Agent>
      <dc:title>Matplotlib v3.6.3, https://matplotlib.org/</dc:title>
     </cc:Agent>
    </dc:creator>
   </cc:Work>
  </rdf:RDF>
 </metadata>
 <defs>
  <style type="text/css">*{stroke-linejoin: round; stroke-linecap: butt}</style>
 </defs>
 <g id="figure_1">
  <g id="patch_1">
   <path d="M 0 345.6 
L 460.8 345.6 
L 460.8 0 
L 0 0 
z
" style="fill: #ffffff"/>
  </g>
  <g id="axes_1">
   <g id="patch_2">
    <path d="M 57.6 307.584 
L 414.72 307.584 
L 414.72 41.472 
L 57.6 41.472 
z
" style="fill: #ffffff"/>
   </g>
   <g id="matplotlib.axis_1">
    <g id="xtick_1">
     <g id="line2d_1">
      <defs>
       <path id="mc1217749b7" d="M 0 0 
L 0 3.5 
" style="stroke: #000000; stroke-width: 0.8"/>
      </defs>
      <g>
       <use xlink:href="#mc1217749b7" x="73.832727" y="307.584" style="stroke: #000000; stroke-width: 0.8"/>
      </g>
     </g>
     <g id="text_1">
      <!-- 0 -->
      <g transform="translate(70.651477 322.182437) scale(0.1 -0.1)">
       <defs>
        <path id="DejaVuSans-30" d="M 2034 4250 
Q 1547 4250 1301 3770 
Q 1056 3291 1056 2328 
Q 1056 1369 1301 889 
Q 1547 409 2034 409 
Q 2525 409 2770 889 
Q 3016 1369 3016 2328 
Q 3016 3291 2770 3770 
Q 2525 4250 2034 4250 
z
M 2034 4750 
Q 2819 4750 3233 4129 
Q 3647 3509 3647 2328 
Q 3647 1150 3233 529 
Q 2819 -91 2034 -91 
Q 1250 -91 836 529 
Q 422 1150 422 2328 
Q 422 3509 836 4129 
Q 1250 4750 2034 4750 
z
" transform="scale(0.015625)"/>
       </defs>
       <use xlink:href="#DejaVuSans-30"/>
      </g>
     </g>
    </g>
    <g id="xtick_2">
     <g id="line2d_2">
      <g>
       <use xlink:href="#mc1217749b7" x="138.776625" y="307.584" style="stroke: #000000; stroke-width: 0.8"/>
      </g>
     </g>
     <g id="text_2">
      <!-- 1000 -->
      <g transform="translate(126.051625 322.182437) scale(0.1 -0.1)">
       <defs>
        <path id="DejaVuSans-31" d="M 794 531 
L 1825 531 
L 1825 4091 
L 703 3866 
L 703 4441 
L 1819 4666 
L 2450 4666 
L 2450 531 
L 3481 531 
L 3481 0 
L 794 0 
L 794 531 
z
" transform="scale(0.015625)"/>
       </defs>
       <use xlink:href="#DejaVuSans-31"/>
       <use xlink:href="#DejaVuSans-30" x="63.623047"/>
       <use xlink:href="#DejaVuSans-30" x="127.246094"/>
       <use xlink:href="#DejaVuSans-30" x="190.869141"/>
      </g>
     </g>
    </g>
    <g id="xtick_3">
     <g id="line2d_3">
      <g>
       <use xlink:href="#mc1217749b7" x="203.720523" y="307.584" style="stroke: #000000; stroke-width: 0.8"/>
      </g>
     </g>
     <g id="text_3">
      <!-- 2000 -->
      <g transform="translate(190.995523 322.182437) scale(0.1 -0.1)">
       <defs>
        <path id="DejaVuSans-32" d="M 1228 531 
L 3431 531 
L 3431 0 
L 469 0 
L 469 531 
Q 828 903 1448 1529 
Q 2069 2156 2228 2338 
Q 2531 2678 2651 2914 
Q 2772 3150 2772 3378 
Q 2772 3750 2511 3984 
Q 2250 4219 1831 4219 
Q 1534 4219 1204 4116 
Q 875 4013 500 3803 
L 500 4441 
Q 881 4594 1212 4672 
Q 1544 4750 1819 4750 
Q 2544 4750 2975 4387 
Q 3406 4025 3406 3419 
Q 3406 3131 3298 2873 
Q 3191 2616 2906 2266 
Q 2828 2175 2409 1742 
Q 1991 1309 1228 531 
z
" transform="scale(0.015625)"/>
       </defs>
       <use xlink:href="#DejaVuSans-32"/>
       <use xlink:href="#DejaVuSans-30" x="63.623047"/>
       <use xlink:href="#DejaVuSans-30" x="127.246094"/>
       <use xlink:href="#DejaVuSans-30" x="190.869141"/>
      </g>
     </g>
    </g>
    <g id="xtick_4">
     <g id="line2d_4">
      <g>
       <use xlink:href="#mc1217749b7" x="268.664421" y="307.584" style="stroke: #000000; stroke-width: 0.8"/>
      </g>
     </g>
     <g id="text_4">
      <!-- 3000 -->
      <g transform="translate(255.939421 322.182437) scale(0.1 -0.1)">
       <defs>
        <path id="DejaVuSans-33" d="M 2597 2516 
Q 3050 2419 3304 2112 
Q 3559 1806 3559 1356 
Q 3559 666 3084 287 
Q 2609 -91 1734 -91 
Q 1441 -91 1130 -33 
Q 819 25 488 141 
L 488 750 
Q 750 597 1062 519 
Q 1375 441 1716 441 
Q 2309 441 2620 675 
Q 2931 909 2931 1356 
Q 2931 1769 2642 2001 
Q 2353 2234 1838 2234 
L 1294 2234 
L 1294 2753 
L 1863 2753 
Q 2328 2753 2575 2939 
Q 2822 3125 2822 3475 
Q 2822 3834 2567 4026 
Q 2313 4219 1838 4219 
Q 1578 4219 1281 4162 
Q 984 4106 628 3988 
L 628 4550 
Q 988 4650 1302 4700 
Q 1616 4750 1894 4750 
Q 2613 4750 3031 4423 
Q 3450 4097 3450 3541 
Q 3450 3153 3228 2886 
Q 3006 2619 2597 2516 
z
" transform="scale(0.015625)"/>
       </defs>
       <use xlink:href="#DejaVuSans-33"/>
       <use xlink:href="#DejaVuSans-30" x="63.623047"/>
       <use xlink:href="#DejaVuSans-30" x="127.246094"/>
       <use xlink:href="#DejaVuSans-30" x="190.869141"/>
      </g>
     </g>
    </g>
    <g id="xtick_5">
     <g id="line2d_5">
      <g>
       <use xlink:href="#mc1217749b7" x="333.608319" y="307.584" style="stroke: #000000; stroke-width: 0.8"/>
      </g>
     </g>
     <g id="text_5">
      <!-- 4000 -->
      <g transform="translate(320.883319 322.182437) scale(0.1 -0.1)">
       <defs>
        <path id="DejaVuSans-34" d="M 2419 4116 
L 825 1625 
L 2419 1625 
L 2419 4116 
z
M 2253 4666 
L 3047 4666 
L 3047 1625 
L 3713 1625 
L 3713 1100 
L 3047 1100 
L 3047 0 
L 2419 0 
L 2419 1100 
L 313 1100 
L 313 1709 
L 2253 4666 
z
" transform="scale(0.015625)"/>
       </defs>
       <use xlink:href="#DejaVuSans-34"/>
       <use xlink:href="#DejaVuSans-30" x="63.623047"/>
       <use xlink:href="#DejaVuSans-30" x="127.246094"/>
       <use xlink:href="#DejaVuSans-30" x="190.869141"/>
      </g>
     </g>
    </g>
    <g id="xtick_6">
     <g id="line2d_6">
      <g>
       <use xlink:href="#mc1217749b7" x="398.552217" y="307.584" style="stroke: #000000; stroke-width: 0.8"/>
      </g>
     </g>
     <g id="text_6">
      <!-- 5000 -->
      <g transform="translate(385.827217 322.182437) scale(0.1 -0.1)">
       <defs>
        <path id="DejaVuSans-35" d="M 691 4666 
L 3169 4666 
L 3169 4134 
L 1269 4134 
L 1269 2991 
Q 1406 3038 1543 3061 
Q 1681 3084 1819 3084 
Q 2600 3084 3056 2656 
Q 3513 2228 3513 1497 
Q 3513 744 3044 326 
Q 2575 -91 1722 -91 
Q 1428 -91 1123 -41 
Q 819 9 494 109 
L 494 744 
Q 775 591 1075 516 
Q 1375 441 1709 441 
Q 2250 441 2565 725 
Q 2881 1009 2881 1497 
Q 2881 1984 2565 2268 
Q 2250 2553 1709 2553 
Q 1456 2553 1204 2497 
Q 953 2441 691 2322 
L 691 4666 
z
" transform="scale(0.015625)"/>
       </defs>
       <use xlink:href="#DejaVuSans-35"/>
       <use xlink:href="#DejaVuSans-30" x="63.623047"/>
       <use xlink:href="#DejaVuSans-30" x="127.246094"/>
       <use xlink:href="#DejaVuSans-30" x="190.869141"/>
      </g>
     </g>
    </g>
    <g id="text_7">
     <!-- measurement # -->
     <g transform="translate(195.501406 335.860562) scale(0.1 -0.1)">
      <defs>
       <path id="DejaVuSans-6d" d="M 3328 2828 
Q 3544 3216 3844 3400 
Q 4144 3584 4550 3584 
Q 5097 3584 5394 3201 
Q 5691 2819 5691 2113 
L 5691 0 
L 5113 0 
L 5113 2094 
Q 5113 2597 4934 2840 
Q 4756 3084 4391 3084 
Q 3944 3084 3684 2787 
Q 3425 2491 3425 1978 
L 3425 0 
L 2847 0 
L 2847 2094 
Q 2847 2600 2669 2842 
Q 2491 3084 2119 3084 
Q 1678 3084 1418 2786 
Q 1159 2488 1159 1978 
L 1159 0 
L 581 0 
L 581 3500 
L 1159 3500 
L 1159 2956 
Q 1356 3278 1631 3431 
Q 1906 3584 2284 3584 
Q 2666 3584 2933 3390 
Q 3200 3197 3328 2828 
z
" transform="scale(0.015625)"/>
       <path id="DejaVuSans-65" d="M 3597 1894 
L 3597 1613 
L 953 1613 
Q 991 1019 1311 708 
Q 1631 397 2203 397 
Q 2534 397 2845 478 
Q 3156 559 3463 722 
L 3463 178 
Q 3153 47 2828 -22 
Q 2503 -91 2169 -91 
Q 1331 -91 842 396 
Q 353 884 353 1716 
Q 353 2575 817 3079 
Q 1281 3584 2069 3584 
Q 2775 3584 3186 3129 
Q 3597 2675 3597 1894 
z
M 3022 2063 
Q 3016 2534 2758 2815 
Q 2500 3097 2075 3097 
Q 1594 3097 1305 2825 
Q 1016 2553 972 2059 
L 3022 2063 
z
" transform="scale(0.015625)"/>
       <path id="DejaVuSans-61" d="M 2194 1759 
Q 1497 1759 1228 1600 
Q 959 1441 959 1056 
Q 959 750 1161 570 
Q 1363 391 1709 391 
Q 2188 391 2477 730 
Q 2766 1069 2766 1631 
L 2766 1759 
L 2194 1759 
z
M 3341 1997 
L 3341 0 
L 2766 0 
L 2766 531 
Q 2569 213 2275 61 
Q 1981 -91 1556 -91 
Q 1019 -91 701 211 
Q 384 513 384 1019 
Q 384 1609 779 1909 
Q 1175 2209 1959 2209 
L 2766 2209 
L 2766 2266 
Q 2766 2663 2505 2880 
Q 2244 3097 1772 3097 
Q 1472 3097 1187 3025 
Q 903 2953 641 2809 
L 641 3341 
Q 956 3463 1253 3523 
Q 1550 3584 1831 3584 
Q 2591 3584 2966 3190 
Q 3341 2797 3341 1997 
z
" transform="scale(0.015625)"/>
       <path id="DejaVuSans-73" d="M 2834 3397 
L 2834 2853 
Q 2591 2978 2328 3040 
Q 2066 3103 1784 3103 
Q 1356 3103 1142 2972 
Q 928 2841 928 2578 
Q 928 2378 1081 2264 
Q 1234 2150 1697 2047 
L 1894 2003 
Q 2506 1872 2764 1633 
Q 3022 1394 3022 966 
Q 3022 478 2636 193 
Q 2250 -91 1575 -91 
Q 1294 -91 989 -36 
Q 684 19 347 128 
L 347 722 
Q 666 556 975 473 
Q 1284 391 1588 391 
Q 1994 391 2212 530 
Q 2431 669 2431 922 
Q 2431 1156 2273 1281 
Q 2116 1406 1581 1522 
L 1381 1569 
Q 847 1681 609 1914 
Q 372 2147 372 2553 
Q 372 3047 722 3315 
Q 1072 3584 1716 3584 
Q 2034 3584 2315 3537 
Q 2597 3491 2834 3397 
z
" transform="scale(0.015625)"/>
       <path id="DejaVuSans-75" d="M 544 1381 
L 544 3500 
L 1119 3500 
L 1119 1403 
Q 1119 906 1312 657 
Q 1506 409 1894 409 
Q 2359 409 2629 706 
Q 2900 1003 2900 1516 
L 2900 3500 
L 3475 3500 
L 3475 0 
L 2900 0 
L 2900 538 
Q 2691 219 2414 64 
Q 2138 -91 1772 -91 
Q 1169 -91 856 284 
Q 544 659 544 1381 
z
M 1991 3584 
L 1991 3584 
z
" transform="scale(0.015625)"/>
       <path id="DejaVuSans-72" d="M 2631 2963 
Q 2534 3019 2420 3045 
Q 2306 3072 2169 3072 
Q 1681 3072 1420 2755 
Q 1159 2438 1159 1844 
L 1159 0 
L 581 0 
L 581 3500 
L 1159 3500 
L 1159 2956 
Q 1341 3275 1631 3429 
Q 1922 3584 2338 3584 
Q 2397 3584 2469 3576 
Q 2541 3569 2628 3553 
L 2631 2963 
z
" transform="scale(0.015625)"/>
       <path id="DejaVuSans-6e" d="M 3513 2113 
L 3513 0 
L 2938 0 
L 2938 2094 
Q 2938 2591 2744 2837 
Q 2550 3084 2163 3084 
Q 1697 3084 1428 2787 
Q 1159 2491 1159 1978 
L 1159 0 
L 581 0 
L 581 3500 
L 1159 3500 
L 1159 2956 
Q 1366 3272 1645 3428 
Q 1925 3584 2291 3584 
Q 2894 3584 3203 3211 
Q 3513 2838 3513 2113 
z
" transform="scale(0.015625)"/>
       <path id="DejaVuSans-74" d="M 1172 4494 
L 1172 3500 
L 2356 3500 
L 2356 3053 
L 1172 3053 
L 1172 1153 
Q 1172 725 1289 603 
Q 1406 481 1766 481 
L 2356 481 
L 2356 0 
L 1766 0 
Q 1100 0 847 248 
Q 594 497 594 1153 
L 594 3053 
L 172 3053 
L 172 3500 
L 594 3500 
L 594 4494 
L 1172 4494 
z
" transform="scale(0.015625)"/>
       <path id="DejaVuSans-20" transform="scale(0.015625)"/>
       <path id="DejaVuSans-23" d="M 3272 2816 
L 2363 2816 
L 2100 1772 
L 3016 1772 
L 3272 2816 
z
M 2803 4594 
L 2478 3297 
L 3391 3297 
L 3719 4594 
L 4219 4594 
L 3897 3297 
L 4872 3297 
L 4872 2816 
L 3775 2816 
L 3519 1772 
L 4513 1772 
L 4513 1294 
L 3397 1294 
L 3072 0 
L 2572 0 
L 2894 1294 
L 1978 1294 
L 1656 0 
L 1153 0 
L 1478 1294 
L 494 1294 
L 494 1772 
L 1594 1772 
L 1856 2816 
L 850 2816 
L 850 3297 
L 1978 3297 
L 2297 4594 
L 2803 4594 
z
" transform="scale(0.015625)"/>
      </defs>
      <use xlink:href="#DejaVuSans-6d"/>
      <use xlink:href="#DejaVuSans-65" x="97.412109"/>
      <use xlink:href="#DejaVuSans-61" x="158.935547"/>
      <use xlink:href="#DejaVuSans-73" x="220.214844"/>
      <use xlink:href="#DejaVuSans-75" x="272.314453"/>
      <use xlink:href="#DejaVuSans-72" x="335.693359"/>
      <use xlink:href="#DejaVuSans-65" x="374.556641"/>
      <use xlink:href="#DejaVuSans-6d" x="436.080078"/>
      <use xlink:href="#DejaVuSans-65" x="533.492188"/>
      <use xlink:href="#DejaVuSans-6e" x="595.015625"/>
      <use xlink:href="#DejaVuSans-74" x="658.394531"/>
      <use xlink:href="#DejaVuSans-20" x="697.603516"/>
      <use xlink:href="#DejaVuSans-23" x="729.390625"/>
     </g>
    </g>
   </g>
   <g id="matplotlib.axis_2">
    <g id="ytick_1">
     <g id="line2d_7">
      <defs>
       <path id="mc4508f658f" d="M 0 0 
L -3.5 0 
" style="stroke: #000000; stroke-width: 0.8"/>
      </defs>
      <g>
       <use xlink:href="#mc4508f658f" x="57.6" y="288.993503" style="stroke: #000000; stroke-width: 0.8"/>
      </g>
     </g>
     <g id="text_8">
      <!-- 100 -->
      <g transform="translate(31.5125 292.792722) scale(0.1 -0.1)">
       <use xlink:href="#DejaVuSans-31"/>
       <use xlink:href="#DejaVuSans-30" x="63.623047"/>
       <use xlink:href="#DejaVuSans-30" x="127.246094"/>
      </g>
     </g>
    </g>
    <g id="ytick_2">
     <g id="line2d_8">
      <g>
       <use xlink:href="#mc4508f658f" x="57.6" y="256.52102" style="stroke: #000000; stroke-width: 0.8"/>
      </g>
     </g>
     <g id="text_9">
      <!-- 200 -->
      <g transform="translate(31.5125 260.320239) scale(0.1 -0.1)">
       <use xlink:href="#DejaVuSans-32"/>
       <use xlink:href="#DejaVuSans-30" x="63.623047"/>
       <use xlink:href="#DejaVuSans-30" x="127.246094"/>
      </g>
     </g>
    </g>
    <g id="ytick_3">
     <g id="line2d_9">
      <g>
       <use xlink:href="#mc4508f658f" x="57.6" y="224.048537" style="stroke: #000000; stroke-width: 0.8"/>
      </g>
     </g>
     <g id="text_10">
      <!-- 300 -->
      <g transform="translate(31.5125 227.847756) scale(0.1 -0.1)">
       <use xlink:href="#DejaVuSans-33"/>
       <use xlink:href="#DejaVuSans-30" x="63.623047"/>
       <use xlink:href="#DejaVuSans-30" x="127.246094"/>
      </g>
     </g>
    </g>
    <g id="ytick_4">
     <g id="line2d_10">
      <g>
       <use xlink:href="#mc4508f658f" x="57.6" y="191.576054" style="stroke: #000000; stroke-width: 0.8"/>
      </g>
     </g>
     <g id="text_11">
      <!-- 400 -->
      <g transform="translate(31.5125 195.375272) scale(0.1 -0.1)">
       <use xlink:href="#DejaVuSans-34"/>
       <use xlink:href="#DejaVuSans-30" x="63.623047"/>
       <use xlink:href="#DejaVuSans-30" x="127.246094"/>
      </g>
     </g>
    </g>
    <g id="ytick_5">
     <g id="line2d_11">
      <g>
       <use xlink:href="#mc4508f658f" x="57.6" y="159.10357" style="stroke: #000000; stroke-width: 0.8"/>
      </g>
     </g>
     <g id="text_12">
      <!-- 500 -->
      <g transform="translate(31.5125 162.902789) scale(0.1 -0.1)">
       <use xlink:href="#DejaVuSans-35"/>
       <use xlink:href="#DejaVuSans-30" x="63.623047"/>
       <use xlink:href="#DejaVuSans-30" x="127.246094"/>
      </g>
     </g>
    </g>
    <g id="ytick_6">
     <g id="line2d_12">
      <g>
       <use xlink:href="#mc4508f658f" x="57.6" y="126.631087" style="stroke: #000000; stroke-width: 0.8"/>
      </g>
     </g>
     <g id="text_13">
      <!-- 600 -->
      <g transform="translate(31.5125 130.430306) scale(0.1 -0.1)">
       <defs>
        <path id="DejaVuSans-36" d="M 2113 2584 
Q 1688 2584 1439 2293 
Q 1191 2003 1191 1497 
Q 1191 994 1439 701 
Q 1688 409 2113 409 
Q 2538 409 2786 701 
Q 3034 994 3034 1497 
Q 3034 2003 2786 2293 
Q 2538 2584 2113 2584 
z
M 3366 4563 
L 3366 3988 
Q 3128 4100 2886 4159 
Q 2644 4219 2406 4219 
Q 1781 4219 1451 3797 
Q 1122 3375 1075 2522 
Q 1259 2794 1537 2939 
Q 1816 3084 2150 3084 
Q 2853 3084 3261 2657 
Q 3669 2231 3669 1497 
Q 3669 778 3244 343 
Q 2819 -91 2113 -91 
Q 1303 -91 875 529 
Q 447 1150 447 2328 
Q 447 3434 972 4092 
Q 1497 4750 2381 4750 
Q 2619 4750 2861 4703 
Q 3103 4656 3366 4563 
z
" transform="scale(0.015625)"/>
       </defs>
       <use xlink:href="#DejaVuSans-36"/>
       <use xlink:href="#DejaVuSans-30" x="63.623047"/>
       <use xlink:href="#DejaVuSans-30" x="127.246094"/>
      </g>
     </g>
    </g>
    <g id="ytick_7">
     <g id="line2d_13">
      <g>
       <use xlink:href="#mc4508f658f" x="57.6" y="94.158604" style="stroke: #000000; stroke-width: 0.8"/>
      </g>
     </g>
     <g id="text_14">
      <!-- 700 -->
      <g transform="translate(31.5125 97.957823) scale(0.1 -0.1)">
       <defs>
        <path id="DejaVuSans-37" d="M 525 4666 
L 3525 4666 
L 3525 4397 
L 1831 0 
L 1172 0 
L 2766 4134 
L 525 4134 
L 525 4666 
z
" transform="scale(0.015625)"/>
       </defs>
       <use xlink:href="#DejaVuSans-37"/>
       <use xlink:href="#DejaVuSans-30" x="63.623047"/>
       <use xlink:href="#DejaVuSans-30" x="127.246094"/>
      </g>
     </g>
    </g>
    <g id="ytick_8">
     <g id="line2d_14">
      <g>
       <use xlink:href="#mc4508f658f" x="57.6" y="61.686121" style="stroke: #000000; stroke-width: 0.8"/>
      </g>
     </g>
     <g id="text_15">
      <!-- 800 -->
      <g transform="translate(31.5125 65.48534) scale(0.1 -0.1)">
       <defs>
        <path id="DejaVuSans-38" d="M 2034 2216 
Q 1584 2216 1326 1975 
Q 1069 1734 1069 1313 
Q 1069 891 1326 650 
Q 1584 409 2034 409 
Q 2484 409 2743 651 
Q 3003 894 3003 1313 
Q 3003 1734 2745 1975 
Q 2488 2216 2034 2216 
z
M 1403 2484 
Q 997 2584 770 2862 
Q 544 3141 544 3541 
Q 544 4100 942 4425 
Q 1341 4750 2034 4750 
Q 2731 4750 3128 4425 
Q 3525 4100 3525 3541 
Q 3525 3141 3298 2862 
Q 3072 2584 2669 2484 
Q 3125 2378 3379 2068 
Q 3634 1759 3634 1313 
Q 3634 634 3220 271 
Q 2806 -91 2034 -91 
Q 1263 -91 848 271 
Q 434 634 434 1313 
Q 434 1759 690 2068 
Q 947 2378 1403 2484 
z
M 1172 3481 
Q 1172 3119 1398 2916 
Q 1625 2713 2034 2713 
Q 2441 2713 2670 2916 
Q 2900 3119 2900 3481 
Q 2900 3844 2670 4047 
Q 2441 4250 2034 4250 
Q 1625 4250 1398 4047 
Q 1172 3844 1172 3481 
z
" transform="scale(0.015625)"/>
       </defs>
       <use xlink:href="#DejaVuSans-38"/>
       <use xlink:href="#DejaVuSans-30" x="63.623047"/>
       <use xlink:href="#DejaVuSans-30" x="127.246094"/>
      </g>
     </g>
    </g>
    <g id="text_16">
     <!-- time -->
     <g transform="translate(25.432812 185.824094) rotate(-90) scale(0.1 -0.1)">
      <defs>
       <path id="DejaVuSans-69" d="M 603 3500 
L 1178 3500 
L 1178 0 
L 603 0 
L 603 3500 
z
M 603 4863 
L 1178 4863 
L 1178 4134 
L 603 4134 
L 603 4863 
z
" transform="scale(0.015625)"/>
      </defs>
      <use xlink:href="#DejaVuSans-74"/>
      <use xlink:href="#DejaVuSans-69" x="39.208984"/>
      <use xlink:href="#DejaVuSans-6d" x="66.992188"/>
      <use xlink:href="#DejaVuSans-65" x="164.404297"/>
     </g>
    </g>
   </g>
   <g id="line2d_15">
    <path d="M 73.832727 295.163275 
L 74.027559 295.163275 
L 74.157447 293.539651 
L 83.37948 293.539651 
L 83.509368 292.890201 
L 83.7042 292.890201 
L 83.769144 288.993503 
L 83.899031 265.288591 
L 83.963975 265.288591 
L 84.093863 210.410094 
L 84.743302 210.410094 
L 84.87319 210.085369 
L 86.756563 210.085369 
L 86.886451 209.760644 
L 90.003758 209.760644 
L 90.133646 209.435919 
L 93.121065 209.435919 
L 93.250953 209.111195 
L 95.069382 209.111195 
L 95.19927 208.78647 
L 97.407362 208.78647 
L 97.53725 208.461745 
L 101.109164 208.461745 
L 101.239052 208.13702 
L 104.746023 208.13702 
L 104.87591 207.812295 
L 107.148947 207.812295 
L 107.278835 207.48757 
L 110.396142 207.48757 
L 110.52603 207.162846 
L 114.617495 207.162846 
L 114.747383 206.838121 
L 122.021099 206.838121 
L 122.150987 206.513396 
L 126.762004 206.513396 
L 126.891892 206.188671 
L 129.814367 206.188671 
L 129.944255 205.863946 
L 132.671899 205.863946 
L 132.801787 205.539221 
L 139.036401 205.539221 
L 139.166289 205.214497 
L 147.933715 205.214497 
L 148.063603 204.889772 
L 151.375741 204.889772 
L 151.505629 204.565047 
L 152.999339 204.565047 
L 153.129227 204.240322 
L 154.752824 204.240322 
L 154.882712 203.915597 
L 158.129907 203.915597 
L 158.259795 203.590872 
L 160.597775 203.590872 
L 160.727663 203.266148 
L 162.935755 203.266148 
L 163.065643 202.941423 
L 165.01396 202.941423 
L 165.143848 202.616698 
L 168.455986 202.616698 
L 168.585874 202.291973 
L 171.50835 202.291973 
L 171.638237 201.967248 
L 173.716442 201.967248 
L 173.84633 201.642523 
L 173.911274 201.642523 
L 174.041162 201.317799 
L 174.560713 201.317799 
L 174.690601 200.993074 
L 175.989479 200.993074 
L 176.119366 200.668349 
L 179.561393 200.668349 
L 179.691281 200.343624 
L 187.354661 200.343624 
L 187.484549 200.018899 
L 196.316919 200.018899 
L 196.446806 199.694174 
L 202.291757 199.694174 
L 202.421645 199.36945 
L 209.435586 199.36945 
L 209.565474 199.044725 
L 219.112227 199.044725 
L 219.242115 198.72 
L 228.853811 198.72 
L 228.983699 198.395275 
L 236.647079 198.395275 
L 236.776967 198.07055 
L 239.439667 198.07055 
L 239.569555 197.745826 
L 241.972479 197.745826 
L 242.102367 197.421101 
L 246.063944 197.421101 
L 246.193832 197.096376 
L 248.596756 197.096376 
L 248.726644 196.771651 
L 251.714064 196.771651 
L 251.843951 196.446926 
L 255.48081 196.446926 
L 255.610697 196.122201 
L 258.98778 196.122201 
L 259.117668 195.797477 
L 260.286658 195.797477 
L 260.416546 195.472752 
L 264.572955 195.472752 
L 264.702843 195.148027 
L 272.755886 195.148027 
L 272.885774 194.823302 
L 280.679042 194.823302 
L 280.80893 194.498577 
L 283.276798 194.498577 
L 283.406686 194.173852 
L 284.900395 194.173852 
L 285.030283 193.849128 
L 288.407366 193.849128 
L 288.537254 193.524403 
L 292.433888 193.524403 
L 292.563775 193.199678 
L 296.005802 193.199678 
L 296.13569 192.874953 
L 298.019063 192.874953 
L 298.148951 192.550228 
L 301.850753 192.550228 
L 301.98064 192.225503 
L 306.266938 192.225503 
L 306.396826 191.900779 
L 309.189413 191.900779 
L 309.319301 191.576054 
L 310.813011 191.576054 
L 310.942898 191.251329 
L 311.592337 191.251329 
L 311.722225 190.926604 
L 312.761328 190.926604 
L 312.891215 190.601879 
L 315.488971 190.601879 
L 315.618859 190.277154 
L 320.554595 190.277154 
L 320.684483 189.95243 
L 327.568536 189.95243 
L 327.698424 189.627705 
L 332.244497 189.627705 
L 332.374385 189.30298 
L 335.361804 189.30298 
L 335.491692 188.978255 
L 338.284279 188.978255 
L 338.414167 188.65353 
L 345.428108 188.65353 
L 345.557996 188.328805 
L 352.636881 188.328805 
L 352.766769 188.004081 
L 356.858234 188.004081 
L 356.988122 187.679356 
L 358.481832 187.679356 
L 358.611719 187.354631 
L 359.001383 187.354631 
L 359.131271 187.029906 
L 359.715766 187.029906 
L 359.845653 186.705181 
L 360.300261 186.705181 
L 360.430149 186.380456 
L 361.079588 186.380456 
L 361.209475 186.055732 
L 361.534195 186.055732 
L 361.664083 185.731007 
L 361.923858 185.731007 
L 362.053746 185.406282 
L 362.573297 185.406282 
L 362.703185 185.081557 
L 363.28768 185.081557 
L 363.417568 184.756832 
L 363.677343 184.756832 
L 363.807231 184.432107 
L 364.196895 184.432107 
L 364.326782 184.107383 
L 364.78139 184.107383 
L 364.911278 183.782658 
L 365.495773 183.782658 
L 365.62566 183.457933 
L 365.95038 183.457933 
L 366.080268 183.133208 
L 366.210155 183.133208 
L 366.340043 182.808483 
L 366.989482 182.808483 
L 367.11937 182.483758 
L 367.44409 182.483758 
L 367.573977 182.159034 
L 368.093529 182.159034 
L 368.223416 181.834309 
L 368.548136 181.834309 
L 368.678024 181.509584 
L 368.807911 181.509584 
L 368.937799 181.184859 
L 369.002743 181.184859 
L 369.197575 180.535409 
L 369.392406 180.535409 
L 369.522294 180.210685 
L 369.652182 180.210685 
L 369.78207 179.88596 
L 370.041845 179.88596 
L 370.171733 179.561235 
L 370.236677 179.561235 
L 370.366565 179.23651 
L 370.431509 179.23651 
L 370.561397 178.911785 
L 370.626341 178.911785 
L 370.821172 178.262336 
L 370.886116 178.262336 
L 371.016004 177.937611 
L 371.210836 177.937611 
L 371.470611 176.963436 
L 371.600499 176.963436 
L 371.795331 176.313987 
L 371.860275 176.313987 
L 371.990162 175.989262 
L 372.055106 175.989262 
L 372.12005 175.664537 
L 372.249938 174.690362 
L 372.314882 174.690362 
L 372.509714 174.040913 
L 372.639601 174.040913 
L 372.964321 172.742013 
L 373.029265 172.742013 
L 373.418928 171.118389 
L 373.483872 171.118389 
L 374.068367 168.520591 
L 374.133311 168.520591 
L 374.198255 168.195866 
L 374.458031 165.598067 
L 374.587918 165.273342 
L 374.652862 165.273342 
L 375.562077 156.181047 
L 375.756908 152.933799 
L 375.95174 151.959624 
L 376.016684 151.959624 
L 376.796011 145.140403 
L 376.990843 144.490953 
L 377.055786 144.490953 
L 377.185674 143.192054 
L 377.315562 143.192054 
L 377.510394 142.217879 
L 377.640282 141.56843 
L 377.900057 139.295356 
L 378.159833 137.671732 
L 378.224777 137.671732 
L 378.484552 136.697557 
L 378.549496 136.697557 
L 378.809272 135.723383 
L 378.874216 135.723383 
L 379.133991 134.424483 
L 379.328823 133.125584 
L 379.393767 133.125584 
L 379.653542 132.151409 
L 379.913318 132.151409 
L 380.10815 131.50196 
L 380.173094 131.50196 
L 380.302981 131.177235 
L 380.562757 131.177235 
L 380.692645 130.85251 
L 380.887476 130.85251 
L 381.082308 130.20306 
L 381.147252 130.20306 
L 381.27714 129.878336 
L 381.342084 129.878336 
L 381.536915 129.228886 
L 381.666803 129.228886 
L 381.796691 128.254711 
L 381.861635 128.254711 
L 382.056467 127.605262 
L 382.316242 127.605262 
L 382.511074 126.955812 
L 382.640962 126.955812 
L 382.770849 126.631087 
L 382.900737 126.631087 
L 383.030625 126.306362 
L 383.095569 126.306362 
L 383.225457 125.981638 
L 383.290401 125.981638 
L 383.420288 125.656913 
L 383.485232 125.656913 
L 383.61512 125.332188 
L 383.745008 125.332188 
L 383.874896 125.007463 
L 383.93984 125.007463 
L 384.199615 124.033289 
L 384.459391 124.033289 
L 384.589279 123.708564 
L 384.78411 123.708564 
L 384.913998 123.383839 
L 385.10883 123.383839 
L 385.303661 122.734389 
L 385.498493 122.734389 
L 385.628381 122.409664 
L 385.758269 122.409664 
L 385.9531 121.760215 
L 386.018044 121.760215 
L 386.147932 121.43549 
L 386.212876 121.43549 
L 386.342764 121.110765 
L 386.602539 121.110765 
L 386.797371 120.461315 
L 386.927259 120.461315 
L 387.187034 119.487141 
L 387.316922 119.487141 
L 387.511754 118.837691 
L 387.706586 118.837691 
L 387.836473 118.512966 
L 388.161193 118.512966 
L 388.291081 118.188242 
L 388.420969 118.188242 
L 388.550856 117.863517 
L 388.6158 117.863517 
L 388.745688 117.538792 
L 388.810632 117.538792 
L 389.070408 116.564617 
L 389.135351 116.564617 
L 389.265239 116.239893 
L 389.395127 116.239893 
L 389.525015 115.915168 
L 389.589959 115.915168 
L 389.914678 114.616268 
L 390.10951 114.616268 
L 390.239398 114.291544 
L 390.304342 114.291544 
L 390.499173 112.992644 
L 390.564117 112.992644 
L 391.018724 107.472322 
L 391.083668 107.472322 
L 391.213556 107.147597 
L 391.2785 107.147597 
L 391.538276 105.848698 
L 391.668163 104.225074 
L 391.733107 104.225074 
L 391.992883 103.250899 
L 392.057827 103.250899 
L 392.317602 102.276725 
L 392.44749 102.276725 
L 392.837154 100.653101 
L 392.902098 100.653101 
L 393.096929 100.003651 
L 393.226817 100.003651 
L 393.551536 98.704752 
L 393.681424 98.704752 
L 393.811312 98.055302 
L 393.9412 98.055302 
L 394.071088 97.730577 
L 394.136032 97.730577 
L 394.395807 96.756403 
L 394.525695 96.756403 
L 394.655583 96.431678 
L 394.850414 96.431678 
L 395.11019 95.457503 
L 395.175134 95.457503 
L 395.629741 93.509154 
L 395.759629 93.509154 
L 395.889517 93.18443 
L 395.954461 93.18443 
L 396.149292 92.53498 
L 396.214236 92.53498 
L 396.474012 91.560805 
L 396.538956 91.560805 
L 396.733787 90.586631 
L 396.928619 89.937181 
L 396.993563 89.937181 
L 397.123451 89.612456 
L 397.318283 89.612456 
L 397.77289 87.664107 
L 397.902778 87.664107 
L 398.097609 85.066309 
L 398.292441 81.169611 
L 398.487273 66.232268 
L 398.487273 66.232268 
" clip-path="url(#p06733e6d7d)" style="fill: none; stroke: #1f77b4; stroke-width: 1.5; stroke-linecap: square"/>
   </g>
   <g id="line2d_16">
    <path d="M 73.832727 295.488 
L 73.897671 295.488 
L 74.027559 295.163275 
L 74.352278 295.163275 
L 74.482166 293.539651 
L 84.418583 293.539651 
L 84.54847 292.890201 
L 84.678358 292.890201 
L 84.938134 273.406711 
L 85.068022 211.059544 
L 85.197909 210.410094 
L 85.522629 210.410094 
L 85.652517 210.085369 
L 86.821507 210.085369 
L 86.951395 209.760644 
L 90.003758 209.760644 
L 90.133646 209.435919 
L 92.017019 209.435919 
L 92.146906 209.111195 
L 93.965336 209.111195 
L 94.095223 208.78647 
L 96.108484 208.78647 
L 96.238372 208.461745 
L 99.225791 208.461745 
L 99.355679 208.13702 
L 103.966696 208.13702 
L 104.096584 207.812295 
L 106.174788 207.812295 
L 106.304676 207.48757 
L 108.7076 207.48757 
L 108.837488 207.162846 
L 113.578393 207.162846 
L 113.708281 206.838121 
L 119.293456 206.838121 
L 119.423344 206.513396 
L 124.553912 206.513396 
L 124.683799 206.188671 
L 127.411443 206.188671 
L 127.541331 205.863946 
L 130.268975 205.863946 
L 130.398862 205.539221 
L 136.763364 205.539221 
L 136.893252 205.214497 
L 144.231913 205.214497 
L 144.3618 204.889772 
L 147.479107 204.889772 
L 147.608995 204.565047 
L 149.882032 204.565047 
L 150.011919 204.240322 
L 151.310797 204.240322 
L 151.440685 203.915597 
L 155.921814 203.915597 
L 156.051702 203.590872 
L 159.493729 203.590872 
L 159.623616 203.266148 
L 162.026541 203.266148 
L 162.156428 202.941423 
L 164.559353 202.941423 
L 164.68924 202.616698 
L 169.040482 202.616698 
L 169.170369 202.291973 
L 171.50835 202.291973 
L 171.638237 201.967248 
L 173.067003 201.967248 
L 173.196891 201.642523 
L 173.326779 201.642523 
L 173.456667 201.317799 
L 173.911274 201.317799 
L 174.041162 200.993074 
L 175.080264 200.993074 
L 175.210152 200.668349 
L 178.84701 200.668349 
L 178.976898 200.343624 
L 186.380502 200.343624 
L 186.51039 200.018899 
L 197.550853 200.018899 
L 197.680741 199.694174 
L 204.824569 199.694174 
L 204.954457 199.36945 
L 213.981659 199.36945 
L 214.111547 199.044725 
L 224.307739 199.044725 
L 224.437626 198.72 
L 234.438987 198.72 
L 234.568875 198.395275 
L 240.543713 198.395275 
L 240.673601 198.07055 
L 242.751806 198.07055 
L 242.881693 197.745826 
L 244.635179 197.745826 
L 244.765066 197.421101 
L 248.466869 197.421101 
L 248.596756 197.096376 
L 250.934737 197.096376 
L 251.064625 196.771651 
L 253.467549 196.771651 
L 253.597437 196.446926 
L 257.883734 196.446926 
L 258.013622 196.122201 
L 261.65048 196.122201 
L 261.780368 195.797477 
L 263.079246 195.797477 
L 263.209133 195.472752 
L 267.755206 195.472752 
L 267.885094 195.148027 
L 276.912296 195.148027 
L 277.042184 194.823302 
L 283.14691 194.823302 
L 283.276798 194.498577 
L 285.744666 194.498577 
L 285.874554 194.173852 
L 288.277478 194.173852 
L 288.407366 193.849128 
L 291.264897 193.849128 
L 291.394785 193.524403 
L 295.356363 193.524403 
L 295.486251 193.199678 
L 297.759287 193.199678 
L 297.889175 192.874953 
L 299.837492 192.874953 
L 299.96738 192.550228 
L 303.279518 192.550228 
L 303.409406 192.225503 
L 306.916377 192.225503 
L 307.046265 191.900779 
L 309.319301 191.900779 
L 309.449189 191.576054 
L 310.488291 191.576054 
L 310.618179 191.251329 
L 311.267618 191.251329 
L 311.397506 190.926604 
L 312.371664 190.926604 
L 312.501552 190.601879 
L 315.683803 190.601879 
L 315.813691 190.277154 
L 320.164932 190.277154 
L 320.29482 189.95243 
L 325.620219 189.95243 
L 325.750107 189.627705 
L 330.036404 189.627705 
L 330.166292 189.30298 
L 333.673263 189.30298 
L 333.80315 188.978255 
L 336.141131 188.978255 
L 336.271019 188.65353 
L 343.999342 188.65353 
L 344.12923 188.328805 
L 351.273059 188.328805 
L 351.402947 188.004081 
L 355.559356 188.004081 
L 355.689244 187.679356 
L 356.988122 187.679356 
L 357.11801 187.354631 
L 357.897337 187.354631 
L 358.027224 187.029906 
L 358.936439 187.029906 
L 359.066327 186.705181 
L 359.585878 186.705181 
L 359.715766 186.380456 
L 360.235317 186.380456 
L 360.365205 186.055732 
L 360.9497 186.055732 
L 361.079588 185.731007 
L 361.599139 185.731007 
L 361.729027 185.406282 
L 362.053746 185.406282 
L 362.183634 185.081557 
L 362.313522 185.081557 
L 362.443409 184.756832 
L 362.768129 184.756832 
L 362.898017 184.432107 
L 363.417568 184.432107 
L 363.547456 184.107383 
L 364.002063 184.107383 
L 364.131951 183.782658 
L 364.391726 183.782658 
L 364.521614 183.457933 
L 364.651502 183.457933 
L 364.78139 183.133208 
L 364.976221 183.133208 
L 365.106109 182.808483 
L 365.62566 182.808483 
L 365.755548 182.483758 
L 365.95038 182.483758 
L 366.080268 182.159034 
L 366.469931 182.159034 
L 366.599819 181.834309 
L 366.729707 181.834309 
L 366.924538 181.184859 
L 367.314202 181.184859 
L 367.44409 180.860134 
L 367.509033 180.860134 
L 367.638921 180.535409 
L 367.768809 180.535409 
L 367.898697 180.210685 
L 368.028585 180.210685 
L 368.158472 179.88596 
L 368.418248 179.88596 
L 368.548136 179.561235 
L 368.61308 179.561235 
L 368.742968 179.23651 
L 369.002743 179.23651 
L 369.197575 178.58706 
L 369.262519 178.58706 
L 369.392406 178.262336 
L 369.45735 178.262336 
L 369.587238 177.937611 
L 369.652182 177.937611 
L 369.847014 177.288161 
L 369.911958 177.288161 
L 370.171733 176.313987 
L 370.236677 176.313987 
L 370.496453 175.339812 
L 370.561397 175.339812 
L 370.821172 174.365638 
L 370.886116 174.365638 
L 371.016004 174.040913 
L 371.210836 174.040913 
L 371.340723 173.391463 
L 371.405667 173.391463 
L 371.535555 173.066738 
L 371.600499 173.066738 
L 371.730387 172.742013 
L 371.795331 172.742013 
L 371.990162 171.767839 
L 372.249938 169.494765 
L 372.44477 168.195866 
L 372.574657 168.195866 
L 372.639601 167.871141 
L 372.834433 165.922792 
L 373.353984 163.000268 
L 373.743648 159.75302 
L 373.808592 159.75302 
L 373.873535 159.428295 
L 374.003423 158.454121 
L 374.068367 158.454121 
L 374.263199 157.479946 
L 374.328143 157.479946 
L 374.393087 157.155221 
L 374.717806 152.609074 
L 374.847694 152.609074 
L 375.237357 148.062926 
L 375.367245 147.738201 
L 375.432189 147.738201 
L 375.562077 147.088752 
L 375.756908 144.490953 
L 375.886796 144.490953 
L 376.27646 142.217879 
L 376.666123 139.295356 
L 376.796011 139.295356 
L 376.990843 137.671732 
L 377.250618 136.697557 
L 377.315562 136.697557 
L 377.510394 136.048107 
L 377.640282 134.749208 
L 377.770169 134.749208 
L 377.965001 133.775034 
L 378.094889 133.775034 
L 378.484552 132.151409 
L 378.549496 132.151409 
L 378.809272 131.177235 
L 379.004103 131.177235 
L 379.393767 129.553611 
L 379.588598 129.553611 
L 379.78343 128.904161 
L 380.043206 128.904161 
L 380.302981 127.929987 
L 380.432869 127.929987 
L 380.562757 127.605262 
L 380.627701 127.605262 
L 380.822533 126.955812 
L 381.147252 126.955812 
L 381.407028 125.981638 
L 381.861635 125.981638 
L 381.991523 125.656913 
L 382.056467 125.656913 
L 382.186354 125.332188 
L 382.316242 125.332188 
L 382.44613 125.007463 
L 382.705906 125.007463 
L 382.900737 124.358013 
L 382.965681 124.358013 
L 383.095569 124.033289 
L 383.290401 124.033289 
L 383.420288 123.383839 
L 383.550176 123.383839 
L 383.680064 123.059114 
L 383.745008 123.059114 
L 383.874896 122.734389 
L 384.004784 122.734389 
L 384.134671 122.409664 
L 384.329503 122.409664 
L 384.459391 122.08494 
L 384.524335 122.08494 
L 384.654222 121.760215 
L 384.78411 121.760215 
L 384.978942 121.110765 
L 385.043886 121.110765 
L 385.173774 120.78604 
L 385.238718 120.78604 
L 385.368605 120.461315 
L 385.498493 120.461315 
L 385.628381 120.136591 
L 385.693325 120.136591 
L 385.823213 119.811866 
L 385.9531 119.811866 
L 386.147932 119.162416 
L 386.342764 119.162416 
L 386.472652 118.837691 
L 386.732427 118.837691 
L 386.862315 118.512966 
L 386.992203 118.512966 
L 387.122091 118.188242 
L 387.44681 118.188242 
L 387.641642 117.214067 
L 387.836473 116.564617 
L 387.901417 116.564617 
L 388.031305 116.239893 
L 388.096249 116.239893 
L 388.291081 115.590443 
L 388.356025 115.590443 
L 388.485912 115.265718 
L 388.6158 115.265718 
L 388.745688 114.940993 
L 388.810632 114.940993 
L 389.005464 113.966819 
L 389.265239 113.966819 
L 389.460071 113.317369 
L 389.525015 113.317369 
L 389.654903 112.01847 
L 390.369285 108.771221 
L 390.434229 108.771221 
L 390.953781 104.225074 
L 391.018724 104.225074 
L 391.2785 103.250899 
L 391.538276 103.250899 
L 391.733107 102.276725 
L 391.862995 101.952 
L 391.927939 101.952 
L 392.057827 101.30255 
L 392.187715 101.30255 
L 392.44749 100.328376 
L 392.577378 100.328376 
L 392.707266 100.003651 
L 392.77221 100.003651 
L 392.967041 99.029477 
L 393.161873 98.380027 
L 393.356705 98.380027 
L 393.486593 98.055302 
L 393.551536 98.055302 
L 393.681424 97.730577 
L 393.746368 97.730577 
L 394.006144 96.106953 
L 394.136032 96.106953 
L 394.395807 95.132779 
L 394.525695 95.132779 
L 394.720527 94.158604 
L 394.850414 94.158604 
L 395.045246 93.509154 
L 395.11019 93.509154 
L 395.240078 93.18443 
L 395.305022 93.18443 
L 395.43491 92.859705 
L 395.564797 92.859705 
L 395.759629 92.210255 
L 395.954461 92.210255 
L 396.084349 91.88553 
L 396.344124 91.88553 
L 396.538956 90.911356 
L 396.798731 89.937181 
L 396.863675 89.937181 
L 397.058507 88.963007 
L 397.188395 88.963007 
L 397.383226 87.664107 
L 397.44817 87.664107 
L 397.707946 86.040483 
L 397.77289 86.040483 
L 397.902778 85.715758 
L 397.967722 85.715758 
L 398.227497 83.442685 
L 398.292441 83.11796 
L 398.422329 73.70094 
L 398.487273 53.568 
L 398.487273 53.568 
" clip-path="url(#p06733e6d7d)" style="fill: none; stroke: #ff7f0e; stroke-width: 1.5; stroke-linecap: square"/>
   </g>
   <g id="patch_3">
    <path d="M 57.6 307.584 
L 57.6 41.472 
" style="fill: none; stroke: #000000; stroke-width: 0.8; stroke-linejoin: miter; stroke-linecap: square"/>
   </g>
   <g id="patch_4">
    <path d="M 414.72 307.584 
L 414.72 41.472 
" style="fill: none; stroke: #000000; stroke-width: 0.8; stroke-linejoin: miter; stroke-linecap: square"/>
   </g>
   <g id="patch_5">
    <path d="M 57.6 307.584 
L 414.72 307.584 
" style="fill: none; stroke: #000000; stroke-width: 0.8; stroke-linejoin: miter; stroke-linecap: square"/>
   </g>
   <g id="patch_6">
    <path d="M 57.6 41.472 
L 414.72 41.472 
" style="fill: none; stroke: #000000; stroke-width: 0.8; stroke-linejoin: miter; stroke-linecap: square"/>
   </g>
   <g id="text_17">
    <!-- pointer array existence test (reference) -->
    <g transform="translate(117.722813 35.472) scale(0.12 -0.12)">
     <defs>
      <path id="DejaVuSans-70" d="M 1159 525 
L 1159 -1331 
L 581 -1331 
L 581 3500 
L 1159 3500 
L 1159 2969 
Q 1341 3281 1617 3432 
Q 1894 3584 2278 3584 
Q 2916 3584 3314 3078 
Q 3713 2572 3713 1747 
Q 3713 922 3314 415 
Q 2916 -91 2278 -91 
Q 1894 -91 1617 61 
Q 1341 213 1159 525 
z
M 3116 1747 
Q 3116 2381 2855 2742 
Q 2594 3103 2138 3103 
Q 1681 3103 1420 2742 
Q 1159 2381 1159 1747 
Q 1159 1113 1420 752 
Q 1681 391 2138 391 
Q 2594 391 2855 752 
Q 3116 1113 3116 1747 
z
" transform="scale(0.015625)"/>
      <path id="DejaVuSans-6f" d="M 1959 3097 
Q 1497 3097 1228 2736 
Q 959 2375 959 1747 
Q 959 1119 1226 758 
Q 1494 397 1959 397 
Q 2419 397 2687 759 
Q 2956 1122 2956 1747 
Q 2956 2369 2687 2733 
Q 2419 3097 1959 3097 
z
M 1959 3584 
Q 2709 3584 3137 3096 
Q 3566 2609 3566 1747 
Q 3566 888 3137 398 
Q 2709 -91 1959 -91 
Q 1206 -91 779 398 
Q 353 888 353 1747 
Q 353 2609 779 3096 
Q 1206 3584 1959 3584 
z
" transform="scale(0.015625)"/>
      <path id="DejaVuSans-79" d="M 2059 -325 
Q 1816 -950 1584 -1140 
Q 1353 -1331 966 -1331 
L 506 -1331 
L 506 -850 
L 844 -850 
Q 1081 -850 1212 -737 
Q 1344 -625 1503 -206 
L 1606 56 
L 191 3500 
L 800 3500 
L 1894 763 
L 2988 3500 
L 3597 3500 
L 2059 -325 
z
" transform="scale(0.015625)"/>
      <path id="DejaVuSans-78" d="M 3513 3500 
L 2247 1797 
L 3578 0 
L 2900 0 
L 1881 1375 
L 863 0 
L 184 0 
L 1544 1831 
L 300 3500 
L 978 3500 
L 1906 2253 
L 2834 3500 
L 3513 3500 
z
" transform="scale(0.015625)"/>
      <path id="DejaVuSans-63" d="M 3122 3366 
L 3122 2828 
Q 2878 2963 2633 3030 
Q 2388 3097 2138 3097 
Q 1578 3097 1268 2742 
Q 959 2388 959 1747 
Q 959 1106 1268 751 
Q 1578 397 2138 397 
Q 2388 397 2633 464 
Q 2878 531 3122 666 
L 3122 134 
Q 2881 22 2623 -34 
Q 2366 -91 2075 -91 
Q 1284 -91 818 406 
Q 353 903 353 1747 
Q 353 2603 823 3093 
Q 1294 3584 2113 3584 
Q 2378 3584 2631 3529 
Q 2884 3475 3122 3366 
z
" transform="scale(0.015625)"/>
      <path id="DejaVuSans-28" d="M 1984 4856 
Q 1566 4138 1362 3434 
Q 1159 2731 1159 2009 
Q 1159 1288 1364 580 
Q 1569 -128 1984 -844 
L 1484 -844 
Q 1016 -109 783 600 
Q 550 1309 550 2009 
Q 550 2706 781 3412 
Q 1013 4119 1484 4856 
L 1984 4856 
z
" transform="scale(0.015625)"/>
      <path id="DejaVuSans-66" d="M 2375 4863 
L 2375 4384 
L 1825 4384 
Q 1516 4384 1395 4259 
Q 1275 4134 1275 3809 
L 1275 3500 
L 2222 3500 
L 2222 3053 
L 1275 3053 
L 1275 0 
L 697 0 
L 697 3053 
L 147 3053 
L 147 3500 
L 697 3500 
L 697 3744 
Q 697 4328 969 4595 
Q 1241 4863 1831 4863 
L 2375 4863 
z
" transform="scale(0.015625)"/>
      <path id="DejaVuSans-29" d="M 513 4856 
L 1013 4856 
Q 1481 4119 1714 3412 
Q 1947 2706 1947 2009 
Q 1947 1309 1714 600 
Q 1481 -109 1013 -844 
L 513 -844 
Q 928 -128 1133 580 
Q 1338 1288 1338 2009 
Q 1338 2731 1133 3434 
Q 928 4138 513 4856 
z
" transform="scale(0.015625)"/>
     </defs>
     <use xlink:href="#DejaVuSans-70"/>
     <use xlink:href="#DejaVuSans-6f" x="63.476562"/>
     <use xlink:href="#DejaVuSans-69" x="124.658203"/>
     <use xlink:href="#DejaVuSans-6e" x="152.441406"/>
     <use xlink:href="#DejaVuSans-74" x="215.820312"/>
     <use xlink:href="#DejaVuSans-65" x="255.029297"/>
     <use xlink:href="#DejaVuSans-72" x="316.552734"/>
     <use xlink:href="#DejaVuSans-20" x="357.666016"/>
     <use xlink:href="#DejaVuSans-61" x="389.453125"/>
     <use xlink:href="#DejaVuSans-72" x="450.732422"/>
     <use xlink:href="#DejaVuSans-72" x="490.095703"/>
     <use xlink:href="#DejaVuSans-61" x="531.208984"/>
     <use xlink:href="#DejaVuSans-79" x="592.488281"/>
     <use xlink:href="#DejaVuSans-20" x="651.667969"/>
     <use xlink:href="#DejaVuSans-65" x="683.455078"/>
     <use xlink:href="#DejaVuSans-78" x="743.228516"/>
     <use xlink:href="#DejaVuSans-69" x="802.408203"/>
     <use xlink:href="#DejaVuSans-73" x="830.191406"/>
     <use xlink:href="#DejaVuSans-74" x="882.291016"/>
     <use xlink:href="#DejaVuSans-65" x="921.5"/>
     <use xlink:href="#DejaVuSans-6e" x="983.023438"/>
     <use xlink:href="#DejaVuSans-63" x="1046.402344"/>
     <use xlink:href="#DejaVuSans-65" x="1101.382812"/>
     <use xlink:href="#DejaVuSans-20" x="1162.90625"/>
     <use xlink:href="#DejaVuSans-74" x="1194.693359"/>
     <use xlink:href="#DejaVuSans-65" x="1233.902344"/>
     <use xlink:href="#DejaVuSans-73" x="1295.425781"/>
     <use xlink:href="#DejaVuSans-74" x="1347.525391"/>
     <use xlink:href="#DejaVuSans-20" x="1386.734375"/>
     <use xlink:href="#DejaVuSans-28" x="1418.521484"/>
     <use xlink:href="#DejaVuSans-72" x="1457.535156"/>
     <use xlink:href="#DejaVuSans-65" x="1496.398438"/>
     <use xlink:href="#DejaVuSans-66" x="1557.921875"/>
     <use xlink:href="#DejaVuSans-65" x="1593.126953"/>
     <use xlink:href="#DejaVuSans-72" x="1654.650391"/>
     <use xlink:href="#DejaVuSans-65" x="1693.513672"/>
     <use xlink:href="#DejaVuSans-6e" x="1755.037109"/>
     <use xlink:href="#DejaVuSans-63" x="1818.416016"/>
     <use xlink:href="#DejaVuSans-65" x="1873.396484"/>
     <use xlink:href="#DejaVuSans-29" x="1934.919922"/>
    </g>
   </g>
   <g id="legend_1">
    <g id="patch_7">
     <path d="M 64.6 78.82825 
L 166.359375 78.82825 
Q 168.359375 78.82825 168.359375 76.82825 
L 168.359375 48.472 
Q 168.359375 46.472 166.359375 46.472 
L 64.6 46.472 
Q 62.6 46.472 62.6 48.472 
L 62.6 76.82825 
Q 62.6 78.82825 64.6 78.82825 
z
" style="fill: #ffffff; opacity: 0.8; stroke: #cccccc; stroke-linejoin: miter"/>
    </g>
    <g id="line2d_17">
     <path d="M 66.6 54.570437 
L 76.6 54.570437 
L 86.6 54.570437 
" style="fill: none; stroke: #1f77b4; stroke-width: 1.5; stroke-linecap: square"/>
    </g>
    <g id="text_18">
     <!-- measurement -->
     <g transform="translate(94.6 58.070437) scale(0.1 -0.1)">
      <use xlink:href="#DejaVuSans-6d"/>
      <use xlink:href="#DejaVuSans-65" x="97.412109"/>
      <use xlink:href="#DejaVuSans-61" x="158.935547"/>
      <use xlink:href="#DejaVuSans-73" x="220.214844"/>
      <use xlink:href="#DejaVuSans-75" x="272.314453"/>
      <use xlink:href="#DejaVuSans-72" x="335.693359"/>
      <use xlink:href="#DejaVuSans-65" x="374.556641"/>
      <use xlink:href="#DejaVuSans-6d" x="436.080078"/>
      <use xlink:href="#DejaVuSans-65" x="533.492188"/>
      <use xlink:href="#DejaVuSans-6e" x="595.015625"/>
      <use xlink:href="#DejaVuSans-74" x="658.394531"/>
     </g>
    </g>
    <g id="line2d_18">
     <path d="M 66.6 69.248562 
L 76.6 69.248562 
L 86.6 69.248562 
" style="fill: none; stroke: #ff7f0e; stroke-width: 1.5; stroke-linecap: square"/>
    </g>
    <g id="text_19">
     <!-- reference -->
     <g transform="translate(94.6 72.748562) scale(0.1 -0.1)">
      <use xlink:href="#DejaVuSans-72"/>
      <use xlink:href="#DejaVuSans-65" x="38.863281"/>
      <use xlink:href="#DejaVuSans-66" x="100.386719"/>
      <use xlink:href="#DejaVuSans-65" x="135.591797"/>
      <use xlink:href="#DejaVuSans-72" x="197.115234"/>
      <use xlink:href="#DejaVuSans-65" x="235.978516"/>
      <use xlink:href="#DejaVuSans-6e" x="297.501953"/>
      <use xlink:href="#DejaVuSans-63" x="360.880859"/>
      <use xlink:href="#DejaVuSans-65" x="415.861328"/>
     </g>
    </g>
   </g>
  </g>
 </g>
 <defs>
  <clipPath id="p06733e6d7d">
   <rect x="57.6" y="41.472" width="357.12" height="266.112"/>
  </clipPath>
 </defs>
</svg>
