<?xml version="1.0" encoding="utf-8" standalone="no"?>
<!DOCTYPE svg PUBLIC "-//W3C//DTD SVG 1.1//EN"
  "http://www.w3.org/Graphics/SVG/1.1/DTD/svg11.dtd">
<svg xmlns:xlink="http://www.w3.org/1999/xlink" width="460.8pt" height="345.6pt" viewBox="0 0 460.8 345.6" xmlns="http://www.w3.org/2000/svg" version="1.1">
 <metadata>
  <rdf:RDF xmlns:dc="http://purl.org/dc/elements/1.1/" xmlns:cc="http://creativecommons.org/ns#" xmlns:rdf="http://www.w3.org/1999/02/22-rdf-syntax-ns#">
   <cc:Work>
    <dc:type rdf:resource="http://purl.org/dc/dcmitype/StillImage"/>
    <dc:date>2024-10-04T16:13:10.461991</dc:date>
    <dc:format>image/svg+xml</dc:format>
    <dc:creator>
     <cc:Agent>
      <dc:title>Matplotlib v3.6.3, https://matplotlib.org/</dc:title>
     </cc:Agent>
    </dc:creator>
   </cc:Work>
  </rdf:RDF>
 </metadata>
 <defs>
  <style type="text/css">*{stroke-linejoin: round; stroke-linecap: butt}</style>
 </defs>
 <g id="figure_1">
  <g id="patch_1">
   <path d="M 0 345.6 
L 460.8 345.6 
L 460.8 0 
L 0 0 
z
" style="fill: #ffffff"/>
  </g>
  <g id="axes_1">
   <g id="patch_2">
    <path d="M 57.6 307.584 
L 414.72 307.584 
L 414.72 41.472 
L 57.6 41.472 
z
" style="fill: #ffffff"/>
   </g>
   <g id="matplotlib.axis_1">
    <g id="xtick_1">
     <g id="line2d_1">
      <defs>
       <path id="m765c0b8014" d="M 0 0 
L 0 3.5 
" style="stroke: #000000; stroke-width: 0.8"/>
      </defs>
      <g>
       <use xlink:href="#m765c0b8014" x="73.832727" y="307.584" style="stroke: #000000; stroke-width: 0.8"/>
      </g>
     </g>
     <g id="text_1">
      <!-- 0 -->
      <g transform="translate(70.651477 322.182437) scale(0.1 -0.1)">
       <defs>
        <path id="DejaVuSans-30" d="M 2034 4250 
Q 1547 4250 1301 3770 
Q 1056 3291 1056 2328 
Q 1056 1369 1301 889 
Q 1547 409 2034 409 
Q 2525 409 2770 889 
Q 3016 1369 3016 2328 
Q 3016 3291 2770 3770 
Q 2525 4250 2034 4250 
z
M 2034 4750 
Q 2819 4750 3233 4129 
Q 3647 3509 3647 2328 
Q 3647 1150 3233 529 
Q 2819 -91 2034 -91 
Q 1250 -91 836 529 
Q 422 1150 422 2328 
Q 422 3509 836 4129 
Q 1250 4750 2034 4750 
z
" transform="scale(0.015625)"/>
       </defs>
       <use xlink:href="#DejaVuSans-30"/>
      </g>
     </g>
    </g>
    <g id="xtick_2">
     <g id="line2d_2">
      <g>
       <use xlink:href="#m765c0b8014" x="138.776625" y="307.584" style="stroke: #000000; stroke-width: 0.8"/>
      </g>
     </g>
     <g id="text_2">
      <!-- 1000 -->
      <g transform="translate(126.051625 322.182437) scale(0.1 -0.1)">
       <defs>
        <path id="DejaVuSans-31" d="M 794 531 
L 1825 531 
L 1825 4091 
L 703 3866 
L 703 4441 
L 1819 4666 
L 2450 4666 
L 2450 531 
L 3481 531 
L 3481 0 
L 794 0 
L 794 531 
z
" transform="scale(0.015625)"/>
       </defs>
       <use xlink:href="#DejaVuSans-31"/>
       <use xlink:href="#DejaVuSans-30" x="63.623047"/>
       <use xlink:href="#DejaVuSans-30" x="127.246094"/>
       <use xlink:href="#DejaVuSans-30" x="190.869141"/>
      </g>
     </g>
    </g>
    <g id="xtick_3">
     <g id="line2d_3">
      <g>
       <use xlink:href="#m765c0b8014" x="203.720523" y="307.584" style="stroke: #000000; stroke-width: 0.8"/>
      </g>
     </g>
     <g id="text_3">
      <!-- 2000 -->
      <g transform="translate(190.995523 322.182437) scale(0.1 -0.1)">
       <defs>
        <path id="DejaVuSans-32" d="M 1228 531 
L 3431 531 
L 3431 0 
L 469 0 
L 469 531 
Q 828 903 1448 1529 
Q 2069 2156 2228 2338 
Q 2531 2678 2651 2914 
Q 2772 3150 2772 3378 
Q 2772 3750 2511 3984 
Q 2250 4219 1831 4219 
Q 1534 4219 1204 4116 
Q 875 4013 500 3803 
L 500 4441 
Q 881 4594 1212 4672 
Q 1544 4750 1819 4750 
Q 2544 4750 2975 4387 
Q 3406 4025 3406 3419 
Q 3406 3131 3298 2873 
Q 3191 2616 2906 2266 
Q 2828 2175 2409 1742 
Q 1991 1309 1228 531 
z
" transform="scale(0.015625)"/>
       </defs>
       <use xlink:href="#DejaVuSans-32"/>
       <use xlink:href="#DejaVuSans-30" x="63.623047"/>
       <use xlink:href="#DejaVuSans-30" x="127.246094"/>
       <use xlink:href="#DejaVuSans-30" x="190.869141"/>
      </g>
     </g>
    </g>
    <g id="xtick_4">
     <g id="line2d_4">
      <g>
       <use xlink:href="#m765c0b8014" x="268.664421" y="307.584" style="stroke: #000000; stroke-width: 0.8"/>
      </g>
     </g>
     <g id="text_4">
      <!-- 3000 -->
      <g transform="translate(255.939421 322.182437) scale(0.1 -0.1)">
       <defs>
        <path id="DejaVuSans-33" d="M 2597 2516 
Q 3050 2419 3304 2112 
Q 3559 1806 3559 1356 
Q 3559 666 3084 287 
Q 2609 -91 1734 -91 
Q 1441 -91 1130 -33 
Q 819 25 488 141 
L 488 750 
Q 750 597 1062 519 
Q 1375 441 1716 441 
Q 2309 441 2620 675 
Q 2931 909 2931 1356 
Q 2931 1769 2642 2001 
Q 2353 2234 1838 2234 
L 1294 2234 
L 1294 2753 
L 1863 2753 
Q 2328 2753 2575 2939 
Q 2822 3125 2822 3475 
Q 2822 3834 2567 4026 
Q 2313 4219 1838 4219 
Q 1578 4219 1281 4162 
Q 984 4106 628 3988 
L 628 4550 
Q 988 4650 1302 4700 
Q 1616 4750 1894 4750 
Q 2613 4750 3031 4423 
Q 3450 4097 3450 3541 
Q 3450 3153 3228 2886 
Q 3006 2619 2597 2516 
z
" transform="scale(0.015625)"/>
       </defs>
       <use xlink:href="#DejaVuSans-33"/>
       <use xlink:href="#DejaVuSans-30" x="63.623047"/>
       <use xlink:href="#DejaVuSans-30" x="127.246094"/>
       <use xlink:href="#DejaVuSans-30" x="190.869141"/>
      </g>
     </g>
    </g>
    <g id="xtick_5">
     <g id="line2d_5">
      <g>
       <use xlink:href="#m765c0b8014" x="333.608319" y="307.584" style="stroke: #000000; stroke-width: 0.8"/>
      </g>
     </g>
     <g id="text_5">
      <!-- 4000 -->
      <g transform="translate(320.883319 322.182437) scale(0.1 -0.1)">
       <defs>
        <path id="DejaVuSans-34" d="M 2419 4116 
L 825 1625 
L 2419 1625 
L 2419 4116 
z
M 2253 4666 
L 3047 4666 
L 3047 1625 
L 3713 1625 
L 3713 1100 
L 3047 1100 
L 3047 0 
L 2419 0 
L 2419 1100 
L 313 1100 
L 313 1709 
L 2253 4666 
z
" transform="scale(0.015625)"/>
       </defs>
       <use xlink:href="#DejaVuSans-34"/>
       <use xlink:href="#DejaVuSans-30" x="63.623047"/>
       <use xlink:href="#DejaVuSans-30" x="127.246094"/>
       <use xlink:href="#DejaVuSans-30" x="190.869141"/>
      </g>
     </g>
    </g>
    <g id="xtick_6">
     <g id="line2d_6">
      <g>
       <use xlink:href="#m765c0b8014" x="398.552217" y="307.584" style="stroke: #000000; stroke-width: 0.8"/>
      </g>
     </g>
     <g id="text_6">
      <!-- 5000 -->
      <g transform="translate(385.827217 322.182437) scale(0.1 -0.1)">
       <defs>
        <path id="DejaVuSans-35" d="M 691 4666 
L 3169 4666 
L 3169 4134 
L 1269 4134 
L 1269 2991 
Q 1406 3038 1543 3061 
Q 1681 3084 1819 3084 
Q 2600 3084 3056 2656 
Q 3513 2228 3513 1497 
Q 3513 744 3044 326 
Q 2575 -91 1722 -91 
Q 1428 -91 1123 -41 
Q 819 9 494 109 
L 494 744 
Q 775 591 1075 516 
Q 1375 441 1709 441 
Q 2250 441 2565 725 
Q 2881 1009 2881 1497 
Q 2881 1984 2565 2268 
Q 2250 2553 1709 2553 
Q 1456 2553 1204 2497 
Q 953 2441 691 2322 
L 691 4666 
z
" transform="scale(0.015625)"/>
       </defs>
       <use xlink:href="#DejaVuSans-35"/>
       <use xlink:href="#DejaVuSans-30" x="63.623047"/>
       <use xlink:href="#DejaVuSans-30" x="127.246094"/>
       <use xlink:href="#DejaVuSans-30" x="190.869141"/>
      </g>
     </g>
    </g>
    <g id="text_7">
     <!-- measurement # -->
     <g transform="translate(195.501406 335.860562) scale(0.1 -0.1)">
      <defs>
       <path id="DejaVuSans-6d" d="M 3328 2828 
Q 3544 3216 3844 3400 
Q 4144 3584 4550 3584 
Q 5097 3584 5394 3201 
Q 5691 2819 5691 2113 
L 5691 0 
L 5113 0 
L 5113 2094 
Q 5113 2597 4934 2840 
Q 4756 3084 4391 3084 
Q 3944 3084 3684 2787 
Q 3425 2491 3425 1978 
L 3425 0 
L 2847 0 
L 2847 2094 
Q 2847 2600 2669 2842 
Q 2491 3084 2119 3084 
Q 1678 3084 1418 2786 
Q 1159 2488 1159 1978 
L 1159 0 
L 581 0 
L 581 3500 
L 1159 3500 
L 1159 2956 
Q 1356 3278 1631 3431 
Q 1906 3584 2284 3584 
Q 2666 3584 2933 3390 
Q 3200 3197 3328 2828 
z
" transform="scale(0.015625)"/>
       <path id="DejaVuSans-65" d="M 3597 1894 
L 3597 1613 
L 953 1613 
Q 991 1019 1311 708 
Q 1631 397 2203 397 
Q 2534 397 2845 478 
Q 3156 559 3463 722 
L 3463 178 
Q 3153 47 2828 -22 
Q 2503 -91 2169 -91 
Q 1331 -91 842 396 
Q 353 884 353 1716 
Q 353 2575 817 3079 
Q 1281 3584 2069 3584 
Q 2775 3584 3186 3129 
Q 3597 2675 3597 1894 
z
M 3022 2063 
Q 3016 2534 2758 2815 
Q 2500 3097 2075 3097 
Q 1594 3097 1305 2825 
Q 1016 2553 972 2059 
L 3022 2063 
z
" transform="scale(0.015625)"/>
       <path id="DejaVuSans-61" d="M 2194 1759 
Q 1497 1759 1228 1600 
Q 959 1441 959 1056 
Q 959 750 1161 570 
Q 1363 391 1709 391 
Q 2188 391 2477 730 
Q 2766 1069 2766 1631 
L 2766 1759 
L 2194 1759 
z
M 3341 1997 
L 3341 0 
L 2766 0 
L 2766 531 
Q 2569 213 2275 61 
Q 1981 -91 1556 -91 
Q 1019 -91 701 211 
Q 384 513 384 1019 
Q 384 1609 779 1909 
Q 1175 2209 1959 2209 
L 2766 2209 
L 2766 2266 
Q 2766 2663 2505 2880 
Q 2244 3097 1772 3097 
Q 1472 3097 1187 3025 
Q 903 2953 641 2809 
L 641 3341 
Q 956 3463 1253 3523 
Q 1550 3584 1831 3584 
Q 2591 3584 2966 3190 
Q 3341 2797 3341 1997 
z
" transform="scale(0.015625)"/>
       <path id="DejaVuSans-73" d="M 2834 3397 
L 2834 2853 
Q 2591 2978 2328 3040 
Q 2066 3103 1784 3103 
Q 1356 3103 1142 2972 
Q 928 2841 928 2578 
Q 928 2378 1081 2264 
Q 1234 2150 1697 2047 
L 1894 2003 
Q 2506 1872 2764 1633 
Q 3022 1394 3022 966 
Q 3022 478 2636 193 
Q 2250 -91 1575 -91 
Q 1294 -91 989 -36 
Q 684 19 347 128 
L 347 722 
Q 666 556 975 473 
Q 1284 391 1588 391 
Q 1994 391 2212 530 
Q 2431 669 2431 922 
Q 2431 1156 2273 1281 
Q 2116 1406 1581 1522 
L 1381 1569 
Q 847 1681 609 1914 
Q 372 2147 372 2553 
Q 372 3047 722 3315 
Q 1072 3584 1716 3584 
Q 2034 3584 2315 3537 
Q 2597 3491 2834 3397 
z
" transform="scale(0.015625)"/>
       <path id="DejaVuSans-75" d="M 544 1381 
L 544 3500 
L 1119 3500 
L 1119 1403 
Q 1119 906 1312 657 
Q 1506 409 1894 409 
Q 2359 409 2629 706 
Q 2900 1003 2900 1516 
L 2900 3500 
L 3475 3500 
L 3475 0 
L 2900 0 
L 2900 538 
Q 2691 219 2414 64 
Q 2138 -91 1772 -91 
Q 1169 -91 856 284 
Q 544 659 544 1381 
z
M 1991 3584 
L 1991 3584 
z
" transform="scale(0.015625)"/>
       <path id="DejaVuSans-72" d="M 2631 2963 
Q 2534 3019 2420 3045 
Q 2306 3072 2169 3072 
Q 1681 3072 1420 2755 
Q 1159 2438 1159 1844 
L 1159 0 
L 581 0 
L 581 3500 
L 1159 3500 
L 1159 2956 
Q 1341 3275 1631 3429 
Q 1922 3584 2338 3584 
Q 2397 3584 2469 3576 
Q 2541 3569 2628 3553 
L 2631 2963 
z
" transform="scale(0.015625)"/>
       <path id="DejaVuSans-6e" d="M 3513 2113 
L 3513 0 
L 2938 0 
L 2938 2094 
Q 2938 2591 2744 2837 
Q 2550 3084 2163 3084 
Q 1697 3084 1428 2787 
Q 1159 2491 1159 1978 
L 1159 0 
L 581 0 
L 581 3500 
L 1159 3500 
L 1159 2956 
Q 1366 3272 1645 3428 
Q 1925 3584 2291 3584 
Q 2894 3584 3203 3211 
Q 3513 2838 3513 2113 
z
" transform="scale(0.015625)"/>
       <path id="DejaVuSans-74" d="M 1172 4494 
L 1172 3500 
L 2356 3500 
L 2356 3053 
L 1172 3053 
L 1172 1153 
Q 1172 725 1289 603 
Q 1406 481 1766 481 
L 2356 481 
L 2356 0 
L 1766 0 
Q 1100 0 847 248 
Q 594 497 594 1153 
L 594 3053 
L 172 3053 
L 172 3500 
L 594 3500 
L 594 4494 
L 1172 4494 
z
" transform="scale(0.015625)"/>
       <path id="DejaVuSans-20" transform="scale(0.015625)"/>
       <path id="DejaVuSans-23" d="M 3272 2816 
L 2363 2816 
L 2100 1772 
L 3016 1772 
L 3272 2816 
z
M 2803 4594 
L 2478 3297 
L 3391 3297 
L 3719 4594 
L 4219 4594 
L 3897 3297 
L 4872 3297 
L 4872 2816 
L 3775 2816 
L 3519 1772 
L 4513 1772 
L 4513 1294 
L 3397 1294 
L 3072 0 
L 2572 0 
L 2894 1294 
L 1978 1294 
L 1656 0 
L 1153 0 
L 1478 1294 
L 494 1294 
L 494 1772 
L 1594 1772 
L 1856 2816 
L 850 2816 
L 850 3297 
L 1978 3297 
L 2297 4594 
L 2803 4594 
z
" transform="scale(0.015625)"/>
      </defs>
      <use xlink:href="#DejaVuSans-6d"/>
      <use xlink:href="#DejaVuSans-65" x="97.412109"/>
      <use xlink:href="#DejaVuSans-61" x="158.935547"/>
      <use xlink:href="#DejaVuSans-73" x="220.214844"/>
      <use xlink:href="#DejaVuSans-75" x="272.314453"/>
      <use xlink:href="#DejaVuSans-72" x="335.693359"/>
      <use xlink:href="#DejaVuSans-65" x="374.556641"/>
      <use xlink:href="#DejaVuSans-6d" x="436.080078"/>
      <use xlink:href="#DejaVuSans-65" x="533.492188"/>
      <use xlink:href="#DejaVuSans-6e" x="595.015625"/>
      <use xlink:href="#DejaVuSans-74" x="658.394531"/>
      <use xlink:href="#DejaVuSans-20" x="697.603516"/>
      <use xlink:href="#DejaVuSans-23" x="729.390625"/>
     </g>
    </g>
   </g>
   <g id="matplotlib.axis_2">
    <g id="ytick_1">
     <g id="line2d_7">
      <defs>
       <path id="m1bbcbe0601" d="M 0 0 
L -3.5 0 
" style="stroke: #000000; stroke-width: 0.8"/>
      </defs>
      <g>
       <use xlink:href="#m1bbcbe0601" x="57.6" y="262.119724" style="stroke: #000000; stroke-width: 0.8"/>
      </g>
     </g>
     <g id="text_8">
      <!-- 200 -->
      <g transform="translate(31.5125 265.918943) scale(0.1 -0.1)">
       <use xlink:href="#DejaVuSans-32"/>
       <use xlink:href="#DejaVuSans-30" x="63.623047"/>
       <use xlink:href="#DejaVuSans-30" x="127.246094"/>
      </g>
     </g>
    </g>
    <g id="ytick_2">
     <g id="line2d_8">
      <g>
       <use xlink:href="#m1bbcbe0601" x="57.6" y="206.505931" style="stroke: #000000; stroke-width: 0.8"/>
      </g>
     </g>
     <g id="text_9">
      <!-- 400 -->
      <g transform="translate(31.5125 210.30515) scale(0.1 -0.1)">
       <use xlink:href="#DejaVuSans-34"/>
       <use xlink:href="#DejaVuSans-30" x="63.623047"/>
       <use xlink:href="#DejaVuSans-30" x="127.246094"/>
      </g>
     </g>
    </g>
    <g id="ytick_3">
     <g id="line2d_9">
      <g>
       <use xlink:href="#m1bbcbe0601" x="57.6" y="150.892138" style="stroke: #000000; stroke-width: 0.8"/>
      </g>
     </g>
     <g id="text_10">
      <!-- 600 -->
      <g transform="translate(31.5125 154.691357) scale(0.1 -0.1)">
       <defs>
        <path id="DejaVuSans-36" d="M 2113 2584 
Q 1688 2584 1439 2293 
Q 1191 2003 1191 1497 
Q 1191 994 1439 701 
Q 1688 409 2113 409 
Q 2538 409 2786 701 
Q 3034 994 3034 1497 
Q 3034 2003 2786 2293 
Q 2538 2584 2113 2584 
z
M 3366 4563 
L 3366 3988 
Q 3128 4100 2886 4159 
Q 2644 4219 2406 4219 
Q 1781 4219 1451 3797 
Q 1122 3375 1075 2522 
Q 1259 2794 1537 2939 
Q 1816 3084 2150 3084 
Q 2853 3084 3261 2657 
Q 3669 2231 3669 1497 
Q 3669 778 3244 343 
Q 2819 -91 2113 -91 
Q 1303 -91 875 529 
Q 447 1150 447 2328 
Q 447 3434 972 4092 
Q 1497 4750 2381 4750 
Q 2619 4750 2861 4703 
Q 3103 4656 3366 4563 
z
" transform="scale(0.015625)"/>
       </defs>
       <use xlink:href="#DejaVuSans-36"/>
       <use xlink:href="#DejaVuSans-30" x="63.623047"/>
       <use xlink:href="#DejaVuSans-30" x="127.246094"/>
      </g>
     </g>
    </g>
    <g id="ytick_4">
     <g id="line2d_10">
      <g>
       <use xlink:href="#m1bbcbe0601" x="57.6" y="95.278345" style="stroke: #000000; stroke-width: 0.8"/>
      </g>
     </g>
     <g id="text_11">
      <!-- 800 -->
      <g transform="translate(31.5125 99.077564) scale(0.1 -0.1)">
       <defs>
        <path id="DejaVuSans-38" d="M 2034 2216 
Q 1584 2216 1326 1975 
Q 1069 1734 1069 1313 
Q 1069 891 1326 650 
Q 1584 409 2034 409 
Q 2484 409 2743 651 
Q 3003 894 3003 1313 
Q 3003 1734 2745 1975 
Q 2488 2216 2034 2216 
z
M 1403 2484 
Q 997 2584 770 2862 
Q 544 3141 544 3541 
Q 544 4100 942 4425 
Q 1341 4750 2034 4750 
Q 2731 4750 3128 4425 
Q 3525 4100 3525 3541 
Q 3525 3141 3298 2862 
Q 3072 2584 2669 2484 
Q 3125 2378 3379 2068 
Q 3634 1759 3634 1313 
Q 3634 634 3220 271 
Q 2806 -91 2034 -91 
Q 1263 -91 848 271 
Q 434 634 434 1313 
Q 434 1759 690 2068 
Q 947 2378 1403 2484 
z
M 1172 3481 
Q 1172 3119 1398 2916 
Q 1625 2713 2034 2713 
Q 2441 2713 2670 2916 
Q 2900 3119 2900 3481 
Q 2900 3844 2670 4047 
Q 2441 4250 2034 4250 
Q 1625 4250 1398 4047 
Q 1172 3844 1172 3481 
z
" transform="scale(0.015625)"/>
       </defs>
       <use xlink:href="#DejaVuSans-38"/>
       <use xlink:href="#DejaVuSans-30" x="63.623047"/>
       <use xlink:href="#DejaVuSans-30" x="127.246094"/>
      </g>
     </g>
    </g>
    <g id="text_12">
     <!-- time -->
     <g transform="translate(25.432812 185.824094) rotate(-90) scale(0.1 -0.1)">
      <defs>
       <path id="DejaVuSans-69" d="M 603 3500 
L 1178 3500 
L 1178 0 
L 603 0 
L 603 3500 
z
M 603 4863 
L 1178 4863 
L 1178 4134 
L 603 4134 
L 603 4863 
z
" transform="scale(0.015625)"/>
      </defs>
      <use xlink:href="#DejaVuSans-74"/>
      <use xlink:href="#DejaVuSans-69" x="39.208984"/>
      <use xlink:href="#DejaVuSans-6d" x="66.992188"/>
      <use xlink:href="#DejaVuSans-65" x="164.404297"/>
     </g>
    </g>
   </g>
   <g id="line2d_11">
    <path d="M 73.832727 295.488 
L 73.962615 295.209931 
L 74.092503 293.819586 
L 82.730041 293.819586 
L 82.859929 293.263448 
L 82.924873 293.263448 
L 82.989817 289.926621 
L 83.119705 276.857379 
L 83.184649 276.57931 
L 83.249592 267.959172 
L 83.37948 224.024276 
L 83.574312 223.468138 
L 83.7042 223.468138 
L 83.963975 222.633931 
L 84.483527 222.633931 
L 84.613414 222.355862 
L 85.912292 222.355862 
L 86.04218 222.077793 
L 88.445104 222.077793 
L 88.574992 221.799724 
L 91.237692 221.799724 
L 91.36758 221.521655 
L 92.406682 221.521655 
L 92.53657 221.243586 
L 95.004438 221.243586 
L 95.134326 220.965517 
L 97.861969 220.965517 
L 97.991857 220.687448 
L 101.758603 220.687448 
L 101.888491 220.409379 
L 104.356359 220.409379 
L 104.486247 220.13131 
L 106.629396 220.13131 
L 106.759283 219.853241 
L 111.305356 219.853241 
L 111.435244 219.575172 
L 117.604914 219.575172 
L 117.734802 219.297103 
L 123.449865 219.297103 
L 123.579753 219.019034 
L 126.632116 219.019034 
L 126.762004 218.740966 
L 130.139087 218.740966 
L 130.268975 218.462897 
L 136.763364 218.462897 
L 136.893252 218.184828 
L 143.712361 218.184828 
L 143.842249 217.906759 
L 147.089444 217.906759 
L 147.219332 217.62869 
L 149.037761 217.62869 
L 149.167649 217.350621 
L 150.661358 217.350621 
L 150.791246 217.072552 
L 153.389002 217.072552 
L 153.51889 216.794483 
L 156.571253 216.794483 
L 156.701141 216.516414 
L 158.714402 216.516414 
L 158.84429 216.238345 
L 160.792607 216.238345 
L 160.922494 215.960276 
L 164.754184 215.960276 
L 164.884072 215.682207 
L 167.806547 215.682207 
L 167.936435 215.404138 
L 169.170369 215.404138 
L 169.300257 215.126069 
L 169.495089 215.126069 
L 169.624977 214.848 
L 169.819808 214.848 
L 169.949696 214.569931 
L 172.092845 214.569931 
L 172.222733 214.291862 
L 176.768805 214.291862 
L 176.898693 214.013793 
L 184.17241 214.013793 
L 184.302298 213.735724 
L 195.277816 213.735724 
L 195.407704 213.457655 
L 203.200972 213.457655 
L 203.33086 213.179586 
L 210.604576 213.179586 
L 210.734464 212.901517 
L 219.891554 212.901517 
L 220.021441 212.623448 
L 230.802128 212.623448 
L 230.932016 212.345379 
L 237.426406 212.345379 
L 237.556294 212.06731 
L 239.504611 212.06731 
L 239.634499 211.789241 
L 242.297198 211.789241 
L 242.427086 211.511172 
L 245.934057 211.511172 
L 246.063944 211.233103 
L 248.98642 211.233103 
L 249.116308 210.955034 
L 252.49339 210.955034 
L 252.623278 210.676966 
L 255.740585 210.676966 
L 255.870473 210.398897 
L 258.792948 210.398897 
L 258.922836 210.120828 
L 259.961939 210.120828 
L 260.091826 209.842759 
L 263.858572 209.842759 
L 263.98846 209.56469 
L 271.132289 209.56469 
L 271.262177 209.286621 
L 278.341062 209.286621 
L 278.470949 209.008552 
L 281.328481 209.008552 
L 281.458369 208.730483 
L 283.341742 208.730483 
L 283.47163 208.452414 
L 286.848712 208.452414 
L 286.9786 208.174345 
L 290.420627 208.174345 
L 290.550514 207.896276 
L 292.628719 207.896276 
L 292.758607 207.618207 
L 295.551195 207.618207 
L 295.681082 207.340138 
L 299.772548 207.340138 
L 299.902436 207.062069 
L 301.785809 207.062069 
L 301.915697 206.784 
L 304.838172 206.784 
L 304.96806 206.505931 
L 306.461769 206.505931 
L 306.591657 206.227862 
L 307.435928 206.227862 
L 307.565816 205.949793 
L 308.669862 205.949793 
L 308.79975 205.671724 
L 311.007842 205.671724 
L 311.13773 205.393655 
L 316.528074 205.393655 
L 316.657961 205.115586 
L 323.347183 205.115586 
L 323.477071 204.837517 
L 328.412807 204.837517 
L 328.542695 204.559448 
L 331.400226 204.559448 
L 331.530114 204.281379 
L 334.842253 204.281379 
L 334.972141 204.00331 
L 343.28496 204.00331 
L 343.414847 203.725241 
L 351.597778 203.725241 
L 351.727666 203.447172 
L 356.143851 203.447172 
L 356.273739 203.169103 
L 357.507673 203.169103 
L 357.637561 202.891034 
L 358.287 202.891034 
L 358.416888 202.612966 
L 359.001383 202.612966 
L 359.131271 202.334897 
L 359.715766 202.334897 
L 359.845653 202.056828 
L 360.365205 202.056828 
L 360.495092 201.778759 
L 360.884756 201.778759 
L 361.014644 201.50069 
L 361.404307 201.50069 
L 361.534195 201.222621 
L 361.79397 201.222621 
L 361.923858 200.944552 
L 362.313522 200.944552 
L 362.443409 200.666483 
L 363.027904 200.666483 
L 363.157792 200.388414 
L 363.742287 200.388414 
L 363.872175 200.110345 
L 364.45667 200.110345 
L 364.586558 199.832276 
L 365.041165 199.832276 
L 365.171053 199.554207 
L 365.560717 199.554207 
L 365.690604 199.276138 
L 366.404987 199.276138 
L 366.534875 198.998069 
L 367.11937 198.998069 
L 367.249258 198.72 
L 367.898697 198.72 
L 368.028585 198.441931 
L 368.678024 198.441931 
L 368.937799 197.607724 
L 369.067687 197.607724 
L 369.197575 197.329655 
L 369.45735 197.329655 
L 369.587238 197.051586 
L 369.717126 197.051586 
L 369.847014 196.773517 
L 370.236677 196.773517 
L 370.366565 196.495448 
L 370.431509 196.495448 
L 370.561397 196.217379 
L 370.821172 196.217379 
L 370.95106 195.93931 
L 371.080948 195.93931 
L 371.27578 195.383172 
L 371.535555 195.383172 
L 371.665443 195.105103 
L 371.730387 195.105103 
L 371.925218 194.548966 
L 372.055106 194.548966 
L 372.184994 194.270897 
L 372.249938 194.270897 
L 372.509714 193.43669 
L 372.574657 193.43669 
L 372.769489 192.046345 
L 372.964321 192.046345 
L 373.353984 190.656 
L 373.61376 190.656 
L 373.808592 190.099862 
L 373.873535 190.099862 
L 374.328143 188.431448 
L 374.393087 188.431448 
L 374.522974 187.597241 
L 374.847694 185.37269 
L 374.977582 185.37269 
L 375.302301 183.704276 
L 375.691965 181.201655 
L 375.821852 181.201655 
L 376.406347 177.030621 
L 376.536235 177.030621 
L 376.666123 175.918345 
L 377.44545 172.303448 
L 377.900057 169.24469 
L 377.965001 169.24469 
L 378.159833 168.688552 
L 378.224777 168.688552 
L 378.484552 167.854345 
L 378.61444 167.854345 
L 378.809272 167.298207 
L 378.874216 167.298207 
L 379.069047 166.185931 
L 379.263879 165.073655 
L 379.328823 165.073655 
L 379.588598 164.239448 
L 379.653542 164.239448 
L 379.913318 162.849103 
L 380.043206 161.736828 
L 380.432869 160.346483 
L 380.497813 160.346483 
L 380.822533 159.234207 
L 380.887476 159.234207 
L 381.082308 158.678069 
L 381.147252 158.678069 
L 381.27714 158.4 
L 381.342084 158.4 
L 381.471971 157.843862 
L 381.536915 157.843862 
L 381.731747 157.287724 
L 381.861635 157.287724 
L 382.251298 154.507034 
L 382.381186 154.507034 
L 382.705906 153.394759 
L 382.835793 153.394759 
L 383.290401 151.726345 
L 383.420288 151.726345 
L 383.550176 151.448276 
L 383.745008 151.448276 
L 384.004784 150.614069 
L 384.264559 150.614069 
L 384.589279 149.501793 
L 384.654222 149.501793 
L 384.849054 148.945655 
L 384.913998 148.945655 
L 385.303661 147.55531 
L 385.368605 147.55531 
L 385.498493 147.277241 
L 385.563437 147.277241 
L 385.693325 146.999172 
L 385.758269 146.999172 
L 385.9531 146.443034 
L 386.082988 146.443034 
L 386.212876 146.164966 
L 386.27782 146.164966 
L 386.472652 145.608828 
L 386.602539 145.608828 
L 386.732427 145.330759 
L 386.797371 145.330759 
L 386.927259 145.05269 
L 386.992203 145.05269 
L 387.122091 144.774621 
L 387.251978 144.774621 
L 387.381866 144.496552 
L 387.641642 144.496552 
L 387.77153 144.218483 
L 387.836473 144.218483 
L 388.420969 141.993931 
L 388.6158 141.993931 
L 388.810632 141.437793 
L 388.875576 141.437793 
L 389.070408 140.881655 
L 389.135351 140.881655 
L 389.330183 140.325517 
L 389.460071 140.325517 
L 389.979622 138.379034 
L 390.044566 138.379034 
L 390.564117 136.154483 
L 390.823893 134.208 
L 390.953781 133.651862 
L 391.148612 132.261517 
L 391.213556 131.983448 
L 391.408388 130.871172 
L 391.538276 130.593103 
L 391.60322 130.593103 
L 391.927939 129.480828 
L 391.992883 129.480828 
L 392.187715 128.368552 
L 392.252659 128.368552 
L 392.382546 127.812414 
L 392.512434 127.812414 
L 392.77221 126.978207 
L 393.161873 126.978207 
L 393.291761 126.700138 
L 393.356705 126.700138 
L 393.551536 126.144 
L 393.681424 126.144 
L 393.811312 125.865931 
L 393.9412 125.865931 
L 394.136032 125.309793 
L 394.330863 125.309793 
L 394.460751 125.031724 
L 394.525695 125.031724 
L 394.655583 124.753655 
L 394.785471 124.753655 
L 394.980302 124.197517 
L 395.11019 124.197517 
L 395.305022 123.085241 
L 395.43491 123.085241 
L 395.564797 122.807172 
L 395.889517 122.807172 
L 396.019405 122.529103 
L 396.084349 122.529103 
L 396.214236 122.251034 
L 396.344124 122.251034 
L 396.538956 121.694897 
L 396.733787 121.694897 
L 396.863675 121.416828 
L 396.993563 121.416828 
L 397.318283 120.304552 
L 397.383226 120.304552 
L 398.097609 117.245793 
L 398.292441 115.855448 
L 398.357385 115.577379 
L 398.487273 112.79669 
L 398.487273 112.79669 
" clip-path="url(#p6fc15f3ba7)" style="fill: none; stroke: #1f77b4; stroke-width: 1.5; stroke-linecap: square"/>
   </g>
   <g id="line2d_12">
    <path d="M 73.832727 295.209931 
L 74.222391 295.209931 
L 74.352278 293.819586 
L 83.054761 293.819586 
L 83.184649 293.263448 
L 83.444424 293.263448 
L 83.509368 289.926621 
L 83.899031 222.633931 
L 84.54847 222.633931 
L 84.678358 222.355862 
L 86.237012 222.355862 
L 86.3669 222.077793 
L 89.419263 222.077793 
L 89.549151 221.799724 
L 93.186009 221.799724 
L 93.315897 221.521655 
L 94.614775 221.521655 
L 94.744662 221.243586 
L 96.628035 221.243586 
L 96.757923 220.965517 
L 100.070062 220.965517 
L 100.19995 220.687448 
L 104.486247 220.687448 
L 104.616135 220.409379 
L 106.304676 220.409379 
L 106.434564 220.13131 
L 108.642657 220.13131 
L 108.772544 219.853241 
L 111.954795 219.853241 
L 112.084683 219.575172 
L 118.838848 219.575172 
L 118.968736 219.297103 
L 124.878631 219.297103 
L 125.008519 219.019034 
L 128.125826 219.019034 
L 128.255714 218.740966 
L 130.074143 218.740966 
L 130.204031 218.462897 
L 136.048981 218.462897 
L 136.178869 218.184828 
L 143.647417 218.184828 
L 143.777305 217.906759 
L 146.245173 217.906759 
L 146.375061 217.62869 
L 148.388322 217.62869 
L 148.51821 217.350621 
L 150.401583 217.350621 
L 150.531471 217.072552 
L 154.817768 217.072552 
L 154.947656 216.794483 
L 158.000019 216.794483 
L 158.129907 216.516414 
L 159.883392 216.516414 
L 160.01328 216.238345 
L 162.546092 216.238345 
L 162.67598 215.960276 
L 166.053062 215.960276 
L 166.18295 215.682207 
L 169.235313 215.682207 
L 169.365201 215.404138 
L 171.313518 215.404138 
L 171.443406 215.126069 
L 171.833069 215.126069 
L 171.962957 214.848 
L 172.287676 214.848 
L 172.417564 214.569931 
L 173.651498 214.569931 
L 173.781386 214.291862 
L 177.613076 214.291862 
L 177.742964 214.013793 
L 186.51039 214.013793 
L 186.640278 213.735724 
L 194.823209 213.735724 
L 194.953097 213.457655 
L 202.421645 213.457655 
L 202.551533 213.179586 
L 209.630418 213.179586 
L 209.760306 212.901517 
L 218.852451 212.901517 
L 218.982339 212.623448 
L 230.412465 212.623448 
L 230.542353 212.345379 
L 236.192472 212.345379 
L 236.32236 212.06731 
L 238.335621 212.06731 
L 238.465508 211.789241 
L 240.738545 211.789241 
L 240.868433 211.511172 
L 244.440347 211.511172 
L 244.570235 211.233103 
L 247.622598 211.233103 
L 247.752486 210.955034 
L 250.415186 210.955034 
L 250.545073 210.676966 
L 254.766427 210.676966 
L 254.896315 210.398897 
L 258.273397 210.398897 
L 258.403285 210.120828 
L 260.091826 210.120828 
L 260.221714 209.842759 
L 264.637899 209.842759 
L 264.767787 209.56469 
L 273.080606 209.56469 
L 273.210494 209.286621 
L 280.614098 209.286621 
L 280.743986 209.008552 
L 283.017022 209.008552 
L 283.14691 208.730483 
L 285.48489 208.730483 
L 285.614778 208.452414 
L 288.667141 208.452414 
L 288.797029 208.174345 
L 292.953439 208.174345 
L 293.083326 207.896276 
L 294.771868 207.896276 
L 294.901756 207.618207 
L 296.655241 207.618207 
L 296.785129 207.340138 
L 300.097267 207.340138 
L 300.227155 207.062069 
L 303.019743 207.062069 
L 303.149631 206.784 
L 305.033004 206.784 
L 305.162891 206.505931 
L 305.877274 206.505931 
L 306.007162 206.227862 
L 306.786489 206.227862 
L 306.916377 205.949793 
L 308.345142 205.949793 
L 308.47503 205.671724 
L 311.267618 205.671724 
L 311.397506 205.393655 
L 316.13841 205.393655 
L 316.268298 205.115586 
L 322.762688 205.115586 
L 322.892576 204.837517 
L 327.9582 204.837517 
L 328.088087 204.559448 
L 330.815731 204.559448 
L 330.945619 204.281379 
L 334.192814 204.281379 
L 334.322702 204.00331 
L 342.115969 204.00331 
L 342.245857 203.725241 
L 351.078227 203.725241 
L 351.208115 203.447172 
L 354.974861 203.447172 
L 355.104749 203.169103 
L 356.273739 203.169103 
L 356.403627 202.891034 
L 357.442729 202.891034 
L 357.572617 202.612966 
L 358.416888 202.612966 
L 358.546776 202.334897 
L 358.741607 202.334897 
L 358.871495 202.056828 
L 359.131271 202.056828 
L 359.261158 201.778759 
L 359.715766 201.778759 
L 359.845653 201.50069 
L 360.430149 201.50069 
L 360.560036 201.222621 
L 361.014644 201.222621 
L 361.144531 200.944552 
L 361.534195 200.944552 
L 361.664083 200.666483 
L 362.183634 200.666483 
L 362.313522 200.388414 
L 362.703185 200.388414 
L 362.833073 200.110345 
L 363.222736 200.110345 
L 363.352624 199.832276 
L 363.742287 199.832276 
L 363.872175 199.554207 
L 364.586558 199.554207 
L 364.716446 199.276138 
L 365.106109 199.276138 
L 365.235997 198.998069 
L 365.560717 198.998069 
L 365.690604 198.72 
L 366.145212 198.72 
L 366.275099 198.441931 
L 367.054426 198.441931 
L 367.184314 198.163862 
L 367.833753 198.163862 
L 367.963641 197.885793 
L 368.28836 197.885793 
L 368.418248 197.607724 
L 368.548136 197.607724 
L 368.742968 197.051586 
L 369.002743 197.051586 
L 369.132631 196.773517 
L 369.392406 196.773517 
L 369.522294 196.495448 
L 369.652182 196.495448 
L 369.78207 196.217379 
L 369.847014 196.217379 
L 370.041845 195.661241 
L 370.301621 195.661241 
L 370.431509 195.383172 
L 370.561397 195.383172 
L 370.691284 195.105103 
L 370.756228 195.105103 
L 370.95106 194.270897 
L 371.210836 194.270897 
L 371.600499 192.880552 
L 371.925218 192.880552 
L 372.12005 192.324414 
L 372.184994 192.324414 
L 372.704545 190.377931 
L 372.834433 190.377931 
L 372.964321 189.821793 
L 373.029265 189.821793 
L 373.224096 189.265655 
L 373.28904 189.265655 
L 373.483872 188.709517 
L 373.548816 188.709517 
L 373.678704 188.431448 
L 373.808592 187.319172 
L 373.873535 187.319172 
L 374.068367 186.484966 
L 374.393087 183.704276 
L 374.587918 182.870069 
L 374.78275 180.645517 
L 374.847694 180.645517 
L 374.977582 177.864828 
L 375.107469 177.030621 
L 375.302301 175.918345 
L 375.432189 175.918345 
L 375.562077 174.806069 
L 375.691965 174.528 
L 375.756908 174.528 
L 375.95174 173.693793 
L 376.146572 171.469241 
L 376.860955 168.688552 
L 376.990843 168.688552 
L 377.250618 166.464 
L 377.44545 166.464 
L 377.640282 165.629793 
L 377.705225 165.629793 
L 377.900057 164.795586 
L 377.965001 164.517517 
L 378.094889 163.68331 
L 378.224777 163.68331 
L 378.354664 163.127172 
L 378.419608 163.127172 
L 379.393767 159.234207 
L 379.523655 159.234207 
L 379.653542 158.956138 
L 379.78343 158.956138 
L 380.10815 157.843862 
L 380.173094 157.843862 
L 380.367925 156.731586 
L 380.497813 156.731586 
L 381.017364 154.785103 
L 381.147252 154.785103 
L 381.27714 154.507034 
L 381.407028 154.507034 
L 381.536915 154.228966 
L 381.601859 154.228966 
L 381.796691 153.394759 
L 381.861635 153.394759 
L 382.056467 152.838621 
L 382.12141 152.838621 
L 382.316242 152.282483 
L 382.44613 152.282483 
L 382.640962 151.448276 
L 383.030625 150.057931 
L 383.095569 150.057931 
L 383.290401 149.501793 
L 383.355345 149.501793 
L 383.485232 149.223724 
L 383.550176 149.223724 
L 383.809952 148.389517 
L 384.069727 148.389517 
L 384.329503 147.55531 
L 384.459391 147.55531 
L 384.589279 147.277241 
L 384.719166 147.277241 
L 384.849054 146.999172 
L 384.978942 146.999172 
L 385.10883 146.443034 
L 385.498493 146.443034 
L 385.628381 146.164966 
L 385.693325 146.164966 
L 385.823213 145.886897 
L 386.018044 145.886897 
L 386.147932 145.608828 
L 386.407708 145.608828 
L 386.537596 145.330759 
L 386.602539 145.330759 
L 386.797371 144.774621 
L 386.927259 144.774621 
L 387.122091 144.218483 
L 387.251978 144.218483 
L 387.381866 143.940414 
L 387.511754 143.940414 
L 387.77153 143.106207 
L 387.901417 143.106207 
L 388.031305 142.828138 
L 388.291081 142.828138 
L 388.485912 142.272 
L 388.550856 142.272 
L 388.745688 141.715862 
L 388.810632 141.715862 
L 389.265239 140.047448 
L 389.330183 140.047448 
L 390.044566 137.266759 
L 390.174454 137.266759 
L 390.564117 134.764138 
L 390.694005 134.208 
L 390.823893 133.095724 
L 391.798051 129.202759 
L 391.862995 129.202759 
L 391.992883 128.92469 
L 392.057827 128.92469 
L 392.382546 127.812414 
L 392.512434 127.812414 
L 392.837154 126.700138 
L 393.031985 126.700138 
L 393.161873 126.422069 
L 393.291761 126.422069 
L 393.421649 126.144 
L 393.486593 126.144 
L 393.746368 125.309793 
L 393.9412 125.309793 
L 394.330863 123.919448 
L 394.460751 123.919448 
L 394.590639 123.641379 
L 394.785471 123.641379 
L 394.915358 123.36331 
L 395.240078 123.36331 
L 395.369966 123.085241 
L 395.43491 123.085241 
L 395.564797 122.807172 
L 395.629741 122.807172 
L 395.824573 122.251034 
L 395.954461 122.251034 
L 396.149292 121.694897 
L 396.27918 121.694897 
L 396.474012 121.138759 
L 396.538956 121.138759 
L 396.733787 120.582621 
L 396.798731 120.582621 
L 396.928619 120.304552 
L 397.123451 120.304552 
L 397.383226 119.470345 
L 397.44817 119.470345 
L 398.097609 116.411586 
L 398.357385 113.352828 
L 398.422329 108.069517 
L 398.487273 53.568 
L 398.487273 53.568 
" clip-path="url(#p6fc15f3ba7)" style="fill: none; stroke: #ff7f0e; stroke-width: 1.5; stroke-linecap: square"/>
   </g>
   <g id="patch_3">
    <path d="M 57.6 307.584 
L 57.6 41.472 
" style="fill: none; stroke: #000000; stroke-width: 0.8; stroke-linejoin: miter; stroke-linecap: square"/>
   </g>
   <g id="patch_4">
    <path d="M 414.72 307.584 
L 414.72 41.472 
" style="fill: none; stroke: #000000; stroke-width: 0.8; stroke-linejoin: miter; stroke-linecap: square"/>
   </g>
   <g id="patch_5">
    <path d="M 57.6 307.584 
L 414.72 307.584 
" style="fill: none; stroke: #000000; stroke-width: 0.8; stroke-linejoin: miter; stroke-linecap: square"/>
   </g>
   <g id="patch_6">
    <path d="M 57.6 41.472 
L 414.72 41.472 
" style="fill: none; stroke: #000000; stroke-width: 0.8; stroke-linejoin: miter; stroke-linecap: square"/>
   </g>
   <g id="text_13">
    <!-- pointer array existence test -->
    <g transform="translate(152.955938 35.472) scale(0.12 -0.12)">
     <defs>
      <path id="DejaVuSans-70" d="M 1159 525 
L 1159 -1331 
L 581 -1331 
L 581 3500 
L 1159 3500 
L 1159 2969 
Q 1341 3281 1617 3432 
Q 1894 3584 2278 3584 
Q 2916 3584 3314 3078 
Q 3713 2572 3713 1747 
Q 3713 922 3314 415 
Q 2916 -91 2278 -91 
Q 1894 -91 1617 61 
Q 1341 213 1159 525 
z
M 3116 1747 
Q 3116 2381 2855 2742 
Q 2594 3103 2138 3103 
Q 1681 3103 1420 2742 
Q 1159 2381 1159 1747 
Q 1159 1113 1420 752 
Q 1681 391 2138 391 
Q 2594 391 2855 752 
Q 3116 1113 3116 1747 
z
" transform="scale(0.015625)"/>
      <path id="DejaVuSans-6f" d="M 1959 3097 
Q 1497 3097 1228 2736 
Q 959 2375 959 1747 
Q 959 1119 1226 758 
Q 1494 397 1959 397 
Q 2419 397 2687 759 
Q 2956 1122 2956 1747 
Q 2956 2369 2687 2733 
Q 2419 3097 1959 3097 
z
M 1959 3584 
Q 2709 3584 3137 3096 
Q 3566 2609 3566 1747 
Q 3566 888 3137 398 
Q 2709 -91 1959 -91 
Q 1206 -91 779 398 
Q 353 888 353 1747 
Q 353 2609 779 3096 
Q 1206 3584 1959 3584 
z
" transform="scale(0.015625)"/>
      <path id="DejaVuSans-79" d="M 2059 -325 
Q 1816 -950 1584 -1140 
Q 1353 -1331 966 -1331 
L 506 -1331 
L 506 -850 
L 844 -850 
Q 1081 -850 1212 -737 
Q 1344 -625 1503 -206 
L 1606 56 
L 191 3500 
L 800 3500 
L 1894 763 
L 2988 3500 
L 3597 3500 
L 2059 -325 
z
" transform="scale(0.015625)"/>
      <path id="DejaVuSans-78" d="M 3513 3500 
L 2247 1797 
L 3578 0 
L 2900 0 
L 1881 1375 
L 863 0 
L 184 0 
L 1544 1831 
L 300 3500 
L 978 3500 
L 1906 2253 
L 2834 3500 
L 3513 3500 
z
" transform="scale(0.015625)"/>
      <path id="DejaVuSans-63" d="M 3122 3366 
L 3122 2828 
Q 2878 2963 2633 3030 
Q 2388 3097 2138 3097 
Q 1578 3097 1268 2742 
Q 959 2388 959 1747 
Q 959 1106 1268 751 
Q 1578 397 2138 397 
Q 2388 397 2633 464 
Q 2878 531 3122 666 
L 3122 134 
Q 2881 22 2623 -34 
Q 2366 -91 2075 -91 
Q 1284 -91 818 406 
Q 353 903 353 1747 
Q 353 2603 823 3093 
Q 1294 3584 2113 3584 
Q 2378 3584 2631 3529 
Q 2884 3475 3122 3366 
z
" transform="scale(0.015625)"/>
     </defs>
     <use xlink:href="#DejaVuSans-70"/>
     <use xlink:href="#DejaVuSans-6f" x="63.476562"/>
     <use xlink:href="#DejaVuSans-69" x="124.658203"/>
     <use xlink:href="#DejaVuSans-6e" x="152.441406"/>
     <use xlink:href="#DejaVuSans-74" x="215.820312"/>
     <use xlink:href="#DejaVuSans-65" x="255.029297"/>
     <use xlink:href="#DejaVuSans-72" x="316.552734"/>
     <use xlink:href="#DejaVuSans-20" x="357.666016"/>
     <use xlink:href="#DejaVuSans-61" x="389.453125"/>
     <use xlink:href="#DejaVuSans-72" x="450.732422"/>
     <use xlink:href="#DejaVuSans-72" x="490.095703"/>
     <use xlink:href="#DejaVuSans-61" x="531.208984"/>
     <use xlink:href="#DejaVuSans-79" x="592.488281"/>
     <use xlink:href="#DejaVuSans-20" x="651.667969"/>
     <use xlink:href="#DejaVuSans-65" x="683.455078"/>
     <use xlink:href="#DejaVuSans-78" x="743.228516"/>
     <use xlink:href="#DejaVuSans-69" x="802.408203"/>
     <use xlink:href="#DejaVuSans-73" x="830.191406"/>
     <use xlink:href="#DejaVuSans-74" x="882.291016"/>
     <use xlink:href="#DejaVuSans-65" x="921.5"/>
     <use xlink:href="#DejaVuSans-6e" x="983.023438"/>
     <use xlink:href="#DejaVuSans-63" x="1046.402344"/>
     <use xlink:href="#DejaVuSans-65" x="1101.382812"/>
     <use xlink:href="#DejaVuSans-20" x="1162.90625"/>
     <use xlink:href="#DejaVuSans-74" x="1194.693359"/>
     <use xlink:href="#DejaVuSans-65" x="1233.902344"/>
     <use xlink:href="#DejaVuSans-73" x="1295.425781"/>
     <use xlink:href="#DejaVuSans-74" x="1347.525391"/>
    </g>
   </g>
   <g id="legend_1">
    <g id="patch_7">
     <path d="M 64.6 78.82825 
L 166.359375 78.82825 
Q 168.359375 78.82825 168.359375 76.82825 
L 168.359375 48.472 
Q 168.359375 46.472 166.359375 46.472 
L 64.6 46.472 
Q 62.6 46.472 62.6 48.472 
L 62.6 76.82825 
Q 62.6 78.82825 64.6 78.82825 
z
" style="fill: #ffffff; opacity: 0.8; stroke: #cccccc; stroke-linejoin: miter"/>
    </g>
    <g id="line2d_13">
     <path d="M 66.6 54.570437 
L 76.6 54.570437 
L 86.6 54.570437 
" style="fill: none; stroke: #1f77b4; stroke-width: 1.5; stroke-linecap: square"/>
    </g>
    <g id="text_14">
     <!-- measurement -->
     <g transform="translate(94.6 58.070437) scale(0.1 -0.1)">
      <use xlink:href="#DejaVuSans-6d"/>
      <use xlink:href="#DejaVuSans-65" x="97.412109"/>
      <use xlink:href="#DejaVuSans-61" x="158.935547"/>
      <use xlink:href="#DejaVuSans-73" x="220.214844"/>
      <use xlink:href="#DejaVuSans-75" x="272.314453"/>
      <use xlink:href="#DejaVuSans-72" x="335.693359"/>
      <use xlink:href="#DejaVuSans-65" x="374.556641"/>
      <use xlink:href="#DejaVuSans-6d" x="436.080078"/>
      <use xlink:href="#DejaVuSans-65" x="533.492188"/>
      <use xlink:href="#DejaVuSans-6e" x="595.015625"/>
      <use xlink:href="#DejaVuSans-74" x="658.394531"/>
     </g>
    </g>
    <g id="line2d_14">
     <path d="M 66.6 69.248562 
L 76.6 69.248562 
L 86.6 69.248562 
" style="fill: none; stroke: #ff7f0e; stroke-width: 1.5; stroke-linecap: square"/>
    </g>
    <g id="text_15">
     <!-- reference -->
     <g transform="translate(94.6 72.748562) scale(0.1 -0.1)">
      <defs>
       <path id="DejaVuSans-66" d="M 2375 4863 
L 2375 4384 
L 1825 4384 
Q 1516 4384 1395 4259 
Q 1275 4134 1275 3809 
L 1275 3500 
L 2222 3500 
L 2222 3053 
L 1275 3053 
L 1275 0 
L 697 0 
L 697 3053 
L 147 3053 
L 147 3500 
L 697 3500 
L 697 3744 
Q 697 4328 969 4595 
Q 1241 4863 1831 4863 
L 2375 4863 
z
" transform="scale(0.015625)"/>
      </defs>
      <use xlink:href="#DejaVuSans-72"/>
      <use xlink:href="#DejaVuSans-65" x="38.863281"/>
      <use xlink:href="#DejaVuSans-66" x="100.386719"/>
      <use xlink:href="#DejaVuSans-65" x="135.591797"/>
      <use xlink:href="#DejaVuSans-72" x="197.115234"/>
      <use xlink:href="#DejaVuSans-65" x="235.978516"/>
      <use xlink:href="#DejaVuSans-6e" x="297.501953"/>
      <use xlink:href="#DejaVuSans-63" x="360.880859"/>
      <use xlink:href="#DejaVuSans-65" x="415.861328"/>
     </g>
    </g>
   </g>
  </g>
 </g>
 <defs>
  <clipPath id="p6fc15f3ba7">
   <rect x="57.6" y="41.472" width="357.12" height="266.112"/>
  </clipPath>
 </defs>
</svg>
