<?xml version="1.0" encoding="utf-8" standalone="no"?>
<!DOCTYPE svg PUBLIC "-//W3C//DTD SVG 1.1//EN"
  "http://www.w3.org/Graphics/SVG/1.1/DTD/svg11.dtd">
<svg xmlns:xlink="http://www.w3.org/1999/xlink" width="460.8pt" height="345.6pt" viewBox="0 0 460.8 345.6" xmlns="http://www.w3.org/2000/svg" version="1.1">
 <metadata>
  <rdf:RDF xmlns:dc="http://purl.org/dc/elements/1.1/" xmlns:cc="http://creativecommons.org/ns#" xmlns:rdf="http://www.w3.org/1999/02/22-rdf-syntax-ns#">
   <cc:Work>
    <dc:type rdf:resource="http://purl.org/dc/dcmitype/StillImage"/>
    <dc:date>2024-10-04T16:13:10.823000</dc:date>
    <dc:format>image/svg+xml</dc:format>
    <dc:creator>
     <cc:Agent>
      <dc:title>Matplotlib v3.6.3, https://matplotlib.org/</dc:title>
     </cc:Agent>
    </dc:creator>
   </cc:Work>
  </rdf:RDF>
 </metadata>
 <defs>
  <style type="text/css">*{stroke-linejoin: round; stroke-linecap: butt}</style>
 </defs>
 <g id="figure_1">
  <g id="patch_1">
   <path d="M 0 345.6 
L 460.8 345.6 
L 460.8 0 
L 0 0 
z
" style="fill: #ffffff"/>
  </g>
  <g id="axes_1">
   <g id="patch_2">
    <path d="M 57.6 307.584 
L 414.72 307.584 
L 414.72 41.472 
L 57.6 41.472 
z
" style="fill: #ffffff"/>
   </g>
   <g id="matplotlib.axis_1">
    <g id="xtick_1">
     <g id="line2d_1">
      <defs>
       <path id="m5c77cbfb21" d="M 0 0 
L 0 3.5 
" style="stroke: #000000; stroke-width: 0.8"/>
      </defs>
      <g>
       <use xlink:href="#m5c77cbfb21" x="73.832727" y="307.584" style="stroke: #000000; stroke-width: 0.8"/>
      </g>
     </g>
     <g id="text_1">
      <!-- 0 -->
      <g transform="translate(70.651477 322.182437) scale(0.1 -0.1)">
       <defs>
        <path id="DejaVuSans-30" d="M 2034 4250 
Q 1547 4250 1301 3770 
Q 1056 3291 1056 2328 
Q 1056 1369 1301 889 
Q 1547 409 2034 409 
Q 2525 409 2770 889 
Q 3016 1369 3016 2328 
Q 3016 3291 2770 3770 
Q 2525 4250 2034 4250 
z
M 2034 4750 
Q 2819 4750 3233 4129 
Q 3647 3509 3647 2328 
Q 3647 1150 3233 529 
Q 2819 -91 2034 -91 
Q 1250 -91 836 529 
Q 422 1150 422 2328 
Q 422 3509 836 4129 
Q 1250 4750 2034 4750 
z
" transform="scale(0.015625)"/>
       </defs>
       <use xlink:href="#DejaVuSans-30"/>
      </g>
     </g>
    </g>
    <g id="xtick_2">
     <g id="line2d_2">
      <g>
       <use xlink:href="#m5c77cbfb21" x="138.776625" y="307.584" style="stroke: #000000; stroke-width: 0.8"/>
      </g>
     </g>
     <g id="text_2">
      <!-- 1000 -->
      <g transform="translate(126.051625 322.182437) scale(0.1 -0.1)">
       <defs>
        <path id="DejaVuSans-31" d="M 794 531 
L 1825 531 
L 1825 4091 
L 703 3866 
L 703 4441 
L 1819 4666 
L 2450 4666 
L 2450 531 
L 3481 531 
L 3481 0 
L 794 0 
L 794 531 
z
" transform="scale(0.015625)"/>
       </defs>
       <use xlink:href="#DejaVuSans-31"/>
       <use xlink:href="#DejaVuSans-30" x="63.623047"/>
       <use xlink:href="#DejaVuSans-30" x="127.246094"/>
       <use xlink:href="#DejaVuSans-30" x="190.869141"/>
      </g>
     </g>
    </g>
    <g id="xtick_3">
     <g id="line2d_3">
      <g>
       <use xlink:href="#m5c77cbfb21" x="203.720523" y="307.584" style="stroke: #000000; stroke-width: 0.8"/>
      </g>
     </g>
     <g id="text_3">
      <!-- 2000 -->
      <g transform="translate(190.995523 322.182437) scale(0.1 -0.1)">
       <defs>
        <path id="DejaVuSans-32" d="M 1228 531 
L 3431 531 
L 3431 0 
L 469 0 
L 469 531 
Q 828 903 1448 1529 
Q 2069 2156 2228 2338 
Q 2531 2678 2651 2914 
Q 2772 3150 2772 3378 
Q 2772 3750 2511 3984 
Q 2250 4219 1831 4219 
Q 1534 4219 1204 4116 
Q 875 4013 500 3803 
L 500 4441 
Q 881 4594 1212 4672 
Q 1544 4750 1819 4750 
Q 2544 4750 2975 4387 
Q 3406 4025 3406 3419 
Q 3406 3131 3298 2873 
Q 3191 2616 2906 2266 
Q 2828 2175 2409 1742 
Q 1991 1309 1228 531 
z
" transform="scale(0.015625)"/>
       </defs>
       <use xlink:href="#DejaVuSans-32"/>
       <use xlink:href="#DejaVuSans-30" x="63.623047"/>
       <use xlink:href="#DejaVuSans-30" x="127.246094"/>
       <use xlink:href="#DejaVuSans-30" x="190.869141"/>
      </g>
     </g>
    </g>
    <g id="xtick_4">
     <g id="line2d_4">
      <g>
       <use xlink:href="#m5c77cbfb21" x="268.664421" y="307.584" style="stroke: #000000; stroke-width: 0.8"/>
      </g>
     </g>
     <g id="text_4">
      <!-- 3000 -->
      <g transform="translate(255.939421 322.182437) scale(0.1 -0.1)">
       <defs>
        <path id="DejaVuSans-33" d="M 2597 2516 
Q 3050 2419 3304 2112 
Q 3559 1806 3559 1356 
Q 3559 666 3084 287 
Q 2609 -91 1734 -91 
Q 1441 -91 1130 -33 
Q 819 25 488 141 
L 488 750 
Q 750 597 1062 519 
Q 1375 441 1716 441 
Q 2309 441 2620 675 
Q 2931 909 2931 1356 
Q 2931 1769 2642 2001 
Q 2353 2234 1838 2234 
L 1294 2234 
L 1294 2753 
L 1863 2753 
Q 2328 2753 2575 2939 
Q 2822 3125 2822 3475 
Q 2822 3834 2567 4026 
Q 2313 4219 1838 4219 
Q 1578 4219 1281 4162 
Q 984 4106 628 3988 
L 628 4550 
Q 988 4650 1302 4700 
Q 1616 4750 1894 4750 
Q 2613 4750 3031 4423 
Q 3450 4097 3450 3541 
Q 3450 3153 3228 2886 
Q 3006 2619 2597 2516 
z
" transform="scale(0.015625)"/>
       </defs>
       <use xlink:href="#DejaVuSans-33"/>
       <use xlink:href="#DejaVuSans-30" x="63.623047"/>
       <use xlink:href="#DejaVuSans-30" x="127.246094"/>
       <use xlink:href="#DejaVuSans-30" x="190.869141"/>
      </g>
     </g>
    </g>
    <g id="xtick_5">
     <g id="line2d_5">
      <g>
       <use xlink:href="#m5c77cbfb21" x="333.608319" y="307.584" style="stroke: #000000; stroke-width: 0.8"/>
      </g>
     </g>
     <g id="text_5">
      <!-- 4000 -->
      <g transform="translate(320.883319 322.182437) scale(0.1 -0.1)">
       <defs>
        <path id="DejaVuSans-34" d="M 2419 4116 
L 825 1625 
L 2419 1625 
L 2419 4116 
z
M 2253 4666 
L 3047 4666 
L 3047 1625 
L 3713 1625 
L 3713 1100 
L 3047 1100 
L 3047 0 
L 2419 0 
L 2419 1100 
L 313 1100 
L 313 1709 
L 2253 4666 
z
" transform="scale(0.015625)"/>
       </defs>
       <use xlink:href="#DejaVuSans-34"/>
       <use xlink:href="#DejaVuSans-30" x="63.623047"/>
       <use xlink:href="#DejaVuSans-30" x="127.246094"/>
       <use xlink:href="#DejaVuSans-30" x="190.869141"/>
      </g>
     </g>
    </g>
    <g id="xtick_6">
     <g id="line2d_6">
      <g>
       <use xlink:href="#m5c77cbfb21" x="398.552217" y="307.584" style="stroke: #000000; stroke-width: 0.8"/>
      </g>
     </g>
     <g id="text_6">
      <!-- 5000 -->
      <g transform="translate(385.827217 322.182437) scale(0.1 -0.1)">
       <defs>
        <path id="DejaVuSans-35" d="M 691 4666 
L 3169 4666 
L 3169 4134 
L 1269 4134 
L 1269 2991 
Q 1406 3038 1543 3061 
Q 1681 3084 1819 3084 
Q 2600 3084 3056 2656 
Q 3513 2228 3513 1497 
Q 3513 744 3044 326 
Q 2575 -91 1722 -91 
Q 1428 -91 1123 -41 
Q 819 9 494 109 
L 494 744 
Q 775 591 1075 516 
Q 1375 441 1709 441 
Q 2250 441 2565 725 
Q 2881 1009 2881 1497 
Q 2881 1984 2565 2268 
Q 2250 2553 1709 2553 
Q 1456 2553 1204 2497 
Q 953 2441 691 2322 
L 691 4666 
z
" transform="scale(0.015625)"/>
       </defs>
       <use xlink:href="#DejaVuSans-35"/>
       <use xlink:href="#DejaVuSans-30" x="63.623047"/>
       <use xlink:href="#DejaVuSans-30" x="127.246094"/>
       <use xlink:href="#DejaVuSans-30" x="190.869141"/>
      </g>
     </g>
    </g>
    <g id="text_7">
     <!-- measurement # -->
     <g transform="translate(195.501406 335.860562) scale(0.1 -0.1)">
      <defs>
       <path id="DejaVuSans-6d" d="M 3328 2828 
Q 3544 3216 3844 3400 
Q 4144 3584 4550 3584 
Q 5097 3584 5394 3201 
Q 5691 2819 5691 2113 
L 5691 0 
L 5113 0 
L 5113 2094 
Q 5113 2597 4934 2840 
Q 4756 3084 4391 3084 
Q 3944 3084 3684 2787 
Q 3425 2491 3425 1978 
L 3425 0 
L 2847 0 
L 2847 2094 
Q 2847 2600 2669 2842 
Q 2491 3084 2119 3084 
Q 1678 3084 1418 2786 
Q 1159 2488 1159 1978 
L 1159 0 
L 581 0 
L 581 3500 
L 1159 3500 
L 1159 2956 
Q 1356 3278 1631 3431 
Q 1906 3584 2284 3584 
Q 2666 3584 2933 3390 
Q 3200 3197 3328 2828 
z
" transform="scale(0.015625)"/>
       <path id="DejaVuSans-65" d="M 3597 1894 
L 3597 1613 
L 953 1613 
Q 991 1019 1311 708 
Q 1631 397 2203 397 
Q 2534 397 2845 478 
Q 3156 559 3463 722 
L 3463 178 
Q 3153 47 2828 -22 
Q 2503 -91 2169 -91 
Q 1331 -91 842 396 
Q 353 884 353 1716 
Q 353 2575 817 3079 
Q 1281 3584 2069 3584 
Q 2775 3584 3186 3129 
Q 3597 2675 3597 1894 
z
M 3022 2063 
Q 3016 2534 2758 2815 
Q 2500 3097 2075 3097 
Q 1594 3097 1305 2825 
Q 1016 2553 972 2059 
L 3022 2063 
z
" transform="scale(0.015625)"/>
       <path id="DejaVuSans-61" d="M 2194 1759 
Q 1497 1759 1228 1600 
Q 959 1441 959 1056 
Q 959 750 1161 570 
Q 1363 391 1709 391 
Q 2188 391 2477 730 
Q 2766 1069 2766 1631 
L 2766 1759 
L 2194 1759 
z
M 3341 1997 
L 3341 0 
L 2766 0 
L 2766 531 
Q 2569 213 2275 61 
Q 1981 -91 1556 -91 
Q 1019 -91 701 211 
Q 384 513 384 1019 
Q 384 1609 779 1909 
Q 1175 2209 1959 2209 
L 2766 2209 
L 2766 2266 
Q 2766 2663 2505 2880 
Q 2244 3097 1772 3097 
Q 1472 3097 1187 3025 
Q 903 2953 641 2809 
L 641 3341 
Q 956 3463 1253 3523 
Q 1550 3584 1831 3584 
Q 2591 3584 2966 3190 
Q 3341 2797 3341 1997 
z
" transform="scale(0.015625)"/>
       <path id="DejaVuSans-73" d="M 2834 3397 
L 2834 2853 
Q 2591 2978 2328 3040 
Q 2066 3103 1784 3103 
Q 1356 3103 1142 2972 
Q 928 2841 928 2578 
Q 928 2378 1081 2264 
Q 1234 2150 1697 2047 
L 1894 2003 
Q 2506 1872 2764 1633 
Q 3022 1394 3022 966 
Q 3022 478 2636 193 
Q 2250 -91 1575 -91 
Q 1294 -91 989 -36 
Q 684 19 347 128 
L 347 722 
Q 666 556 975 473 
Q 1284 391 1588 391 
Q 1994 391 2212 530 
Q 2431 669 2431 922 
Q 2431 1156 2273 1281 
Q 2116 1406 1581 1522 
L 1381 1569 
Q 847 1681 609 1914 
Q 372 2147 372 2553 
Q 372 3047 722 3315 
Q 1072 3584 1716 3584 
Q 2034 3584 2315 3537 
Q 2597 3491 2834 3397 
z
" transform="scale(0.015625)"/>
       <path id="DejaVuSans-75" d="M 544 1381 
L 544 3500 
L 1119 3500 
L 1119 1403 
Q 1119 906 1312 657 
Q 1506 409 1894 409 
Q 2359 409 2629 706 
Q 2900 1003 2900 1516 
L 2900 3500 
L 3475 3500 
L 3475 0 
L 2900 0 
L 2900 538 
Q 2691 219 2414 64 
Q 2138 -91 1772 -91 
Q 1169 -91 856 284 
Q 544 659 544 1381 
z
M 1991 3584 
L 1991 3584 
z
" transform="scale(0.015625)"/>
       <path id="DejaVuSans-72" d="M 2631 2963 
Q 2534 3019 2420 3045 
Q 2306 3072 2169 3072 
Q 1681 3072 1420 2755 
Q 1159 2438 1159 1844 
L 1159 0 
L 581 0 
L 581 3500 
L 1159 3500 
L 1159 2956 
Q 1341 3275 1631 3429 
Q 1922 3584 2338 3584 
Q 2397 3584 2469 3576 
Q 2541 3569 2628 3553 
L 2631 2963 
z
" transform="scale(0.015625)"/>
       <path id="DejaVuSans-6e" d="M 3513 2113 
L 3513 0 
L 2938 0 
L 2938 2094 
Q 2938 2591 2744 2837 
Q 2550 3084 2163 3084 
Q 1697 3084 1428 2787 
Q 1159 2491 1159 1978 
L 1159 0 
L 581 0 
L 581 3500 
L 1159 3500 
L 1159 2956 
Q 1366 3272 1645 3428 
Q 1925 3584 2291 3584 
Q 2894 3584 3203 3211 
Q 3513 2838 3513 2113 
z
" transform="scale(0.015625)"/>
       <path id="DejaVuSans-74" d="M 1172 4494 
L 1172 3500 
L 2356 3500 
L 2356 3053 
L 1172 3053 
L 1172 1153 
Q 1172 725 1289 603 
Q 1406 481 1766 481 
L 2356 481 
L 2356 0 
L 1766 0 
Q 1100 0 847 248 
Q 594 497 594 1153 
L 594 3053 
L 172 3053 
L 172 3500 
L 594 3500 
L 594 4494 
L 1172 4494 
z
" transform="scale(0.015625)"/>
       <path id="DejaVuSans-20" transform="scale(0.015625)"/>
       <path id="DejaVuSans-23" d="M 3272 2816 
L 2363 2816 
L 2100 1772 
L 3016 1772 
L 3272 2816 
z
M 2803 4594 
L 2478 3297 
L 3391 3297 
L 3719 4594 
L 4219 4594 
L 3897 3297 
L 4872 3297 
L 4872 2816 
L 3775 2816 
L 3519 1772 
L 4513 1772 
L 4513 1294 
L 3397 1294 
L 3072 0 
L 2572 0 
L 2894 1294 
L 1978 1294 
L 1656 0 
L 1153 0 
L 1478 1294 
L 494 1294 
L 494 1772 
L 1594 1772 
L 1856 2816 
L 850 2816 
L 850 3297 
L 1978 3297 
L 2297 4594 
L 2803 4594 
z
" transform="scale(0.015625)"/>
      </defs>
      <use xlink:href="#DejaVuSans-6d"/>
      <use xlink:href="#DejaVuSans-65" x="97.412109"/>
      <use xlink:href="#DejaVuSans-61" x="158.935547"/>
      <use xlink:href="#DejaVuSans-73" x="220.214844"/>
      <use xlink:href="#DejaVuSans-75" x="272.314453"/>
      <use xlink:href="#DejaVuSans-72" x="335.693359"/>
      <use xlink:href="#DejaVuSans-65" x="374.556641"/>
      <use xlink:href="#DejaVuSans-6d" x="436.080078"/>
      <use xlink:href="#DejaVuSans-65" x="533.492188"/>
      <use xlink:href="#DejaVuSans-6e" x="595.015625"/>
      <use xlink:href="#DejaVuSans-74" x="658.394531"/>
      <use xlink:href="#DejaVuSans-20" x="697.603516"/>
      <use xlink:href="#DejaVuSans-23" x="729.390625"/>
     </g>
    </g>
   </g>
   <g id="matplotlib.axis_2">
    <g id="ytick_1">
     <g id="line2d_7">
      <defs>
       <path id="m1615001c19" d="M 0 0 
L -3.5 0 
" style="stroke: #000000; stroke-width: 0.8"/>
      </defs>
      <g>
       <use xlink:href="#m1615001c19" x="57.6" y="268.55771" style="stroke: #000000; stroke-width: 0.8"/>
      </g>
     </g>
     <g id="text_8">
      <!-- 200 -->
      <g transform="translate(31.5125 272.356929) scale(0.1 -0.1)">
       <use xlink:href="#DejaVuSans-32"/>
       <use xlink:href="#DejaVuSans-30" x="63.623047"/>
       <use xlink:href="#DejaVuSans-30" x="127.246094"/>
      </g>
     </g>
    </g>
    <g id="ytick_2">
     <g id="line2d_8">
      <g>
       <use xlink:href="#m1615001c19" x="57.6" y="223.296718" style="stroke: #000000; stroke-width: 0.8"/>
      </g>
     </g>
     <g id="text_9">
      <!-- 400 -->
      <g transform="translate(31.5125 227.095937) scale(0.1 -0.1)">
       <use xlink:href="#DejaVuSans-34"/>
       <use xlink:href="#DejaVuSans-30" x="63.623047"/>
       <use xlink:href="#DejaVuSans-30" x="127.246094"/>
      </g>
     </g>
    </g>
    <g id="ytick_3">
     <g id="line2d_9">
      <g>
       <use xlink:href="#m1615001c19" x="57.6" y="178.035727" style="stroke: #000000; stroke-width: 0.8"/>
      </g>
     </g>
     <g id="text_10">
      <!-- 600 -->
      <g transform="translate(31.5125 181.834946) scale(0.1 -0.1)">
       <defs>
        <path id="DejaVuSans-36" d="M 2113 2584 
Q 1688 2584 1439 2293 
Q 1191 2003 1191 1497 
Q 1191 994 1439 701 
Q 1688 409 2113 409 
Q 2538 409 2786 701 
Q 3034 994 3034 1497 
Q 3034 2003 2786 2293 
Q 2538 2584 2113 2584 
z
M 3366 4563 
L 3366 3988 
Q 3128 4100 2886 4159 
Q 2644 4219 2406 4219 
Q 1781 4219 1451 3797 
Q 1122 3375 1075 2522 
Q 1259 2794 1537 2939 
Q 1816 3084 2150 3084 
Q 2853 3084 3261 2657 
Q 3669 2231 3669 1497 
Q 3669 778 3244 343 
Q 2819 -91 2113 -91 
Q 1303 -91 875 529 
Q 447 1150 447 2328 
Q 447 3434 972 4092 
Q 1497 4750 2381 4750 
Q 2619 4750 2861 4703 
Q 3103 4656 3366 4563 
z
" transform="scale(0.015625)"/>
       </defs>
       <use xlink:href="#DejaVuSans-36"/>
       <use xlink:href="#DejaVuSans-30" x="63.623047"/>
       <use xlink:href="#DejaVuSans-30" x="127.246094"/>
      </g>
     </g>
    </g>
    <g id="ytick_4">
     <g id="line2d_10">
      <g>
       <use xlink:href="#m1615001c19" x="57.6" y="132.774735" style="stroke: #000000; stroke-width: 0.8"/>
      </g>
     </g>
     <g id="text_11">
      <!-- 800 -->
      <g transform="translate(31.5125 136.573954) scale(0.1 -0.1)">
       <defs>
        <path id="DejaVuSans-38" d="M 2034 2216 
Q 1584 2216 1326 1975 
Q 1069 1734 1069 1313 
Q 1069 891 1326 650 
Q 1584 409 2034 409 
Q 2484 409 2743 651 
Q 3003 894 3003 1313 
Q 3003 1734 2745 1975 
Q 2488 2216 2034 2216 
z
M 1403 2484 
Q 997 2584 770 2862 
Q 544 3141 544 3541 
Q 544 4100 942 4425 
Q 1341 4750 2034 4750 
Q 2731 4750 3128 4425 
Q 3525 4100 3525 3541 
Q 3525 3141 3298 2862 
Q 3072 2584 2669 2484 
Q 3125 2378 3379 2068 
Q 3634 1759 3634 1313 
Q 3634 634 3220 271 
Q 2806 -91 2034 -91 
Q 1263 -91 848 271 
Q 434 634 434 1313 
Q 434 1759 690 2068 
Q 947 2378 1403 2484 
z
M 1172 3481 
Q 1172 3119 1398 2916 
Q 1625 2713 2034 2713 
Q 2441 2713 2670 2916 
Q 2900 3119 2900 3481 
Q 2900 3844 2670 4047 
Q 2441 4250 2034 4250 
Q 1625 4250 1398 4047 
Q 1172 3844 1172 3481 
z
" transform="scale(0.015625)"/>
       </defs>
       <use xlink:href="#DejaVuSans-38"/>
       <use xlink:href="#DejaVuSans-30" x="63.623047"/>
       <use xlink:href="#DejaVuSans-30" x="127.246094"/>
      </g>
     </g>
    </g>
    <g id="ytick_5">
     <g id="line2d_11">
      <g>
       <use xlink:href="#m1615001c19" x="57.6" y="87.513744" style="stroke: #000000; stroke-width: 0.8"/>
      </g>
     </g>
     <g id="text_12">
      <!-- 1000 -->
      <g transform="translate(25.15 91.312962) scale(0.1 -0.1)">
       <use xlink:href="#DejaVuSans-31"/>
       <use xlink:href="#DejaVuSans-30" x="63.623047"/>
       <use xlink:href="#DejaVuSans-30" x="127.246094"/>
       <use xlink:href="#DejaVuSans-30" x="190.869141"/>
      </g>
     </g>
    </g>
    <g id="ytick_6">
     <g id="line2d_12">
      <g>
       <use xlink:href="#m1615001c19" x="57.6" y="42.252752" style="stroke: #000000; stroke-width: 0.8"/>
      </g>
     </g>
     <g id="text_13">
      <!-- 1200 -->
      <g transform="translate(25.15 46.051971) scale(0.1 -0.1)">
       <use xlink:href="#DejaVuSans-31"/>
       <use xlink:href="#DejaVuSans-32" x="63.623047"/>
       <use xlink:href="#DejaVuSans-30" x="127.246094"/>
       <use xlink:href="#DejaVuSans-30" x="190.869141"/>
      </g>
     </g>
    </g>
    <g id="text_14">
     <!-- time -->
     <g transform="translate(19.070312 185.824094) rotate(-90) scale(0.1 -0.1)">
      <defs>
       <path id="DejaVuSans-69" d="M 603 3500 
L 1178 3500 
L 1178 0 
L 603 0 
L 603 3500 
z
M 603 4863 
L 1178 4863 
L 1178 4134 
L 603 4134 
L 603 4863 
z
" transform="scale(0.015625)"/>
      </defs>
      <use xlink:href="#DejaVuSans-74"/>
      <use xlink:href="#DejaVuSans-69" x="39.208984"/>
      <use xlink:href="#DejaVuSans-6d" x="66.992188"/>
      <use xlink:href="#DejaVuSans-65" x="164.404297"/>
     </g>
    </g>
   </g>
   <g id="line2d_13">
    <path d="M 73.832727 295.488 
L 86.301956 295.488 
L 86.431843 295.261695 
L 87.665778 295.261695 
L 87.795665 295.03539 
L 87.860609 295.03539 
L 87.990497 294.809085 
L 88.250273 294.809085 
L 88.445104 294.356475 
L 89.679038 294.356475 
L 89.808926 293.903865 
L 90.003758 278.288823 
L 90.133646 278.062518 
L 90.19859 278.062518 
L 90.263533 277.836213 
L 90.328477 276.930993 
L 90.653197 237.553931 
L 91.04286 237.553931 
L 91.172748 237.327626 
L 93.315897 237.327626 
L 93.445784 237.101321 
L 96.108484 237.101321 
L 96.238372 236.875016 
L 99.355679 236.875016 
L 99.485567 236.648711 
L 100.979277 236.648711 
L 101.109164 236.422406 
L 102.53793 236.422406 
L 102.667818 236.196101 
L 105.265574 236.196101 
L 105.395462 235.969796 
L 108.577713 235.969796 
L 108.7076 235.743491 
L 110.590973 235.743491 
L 110.720861 235.517186 
L 112.604234 235.517186 
L 112.734122 235.290881 
L 117.475027 235.290881 
L 117.604914 235.064576 
L 122.995258 235.064576 
L 123.125146 234.838271 
L 128.450545 234.838271 
L 128.580433 234.611966 
L 131.69774 234.611966 
L 131.827628 234.385661 
L 135.074823 234.385661 
L 135.204711 234.159356 
L 141.439325 234.159356 
L 141.569213 233.933051 
L 147.608995 233.933051 
L 147.738883 233.706746 
L 151.18091 233.706746 
L 151.310797 233.480442 
L 153.324058 233.480442 
L 153.453946 233.254137 
L 155.142487 233.254137 
L 155.272375 233.027832 
L 159.558672 233.027832 
L 159.68856 232.801527 
L 162.805867 232.801527 
L 162.935755 232.575222 
L 165.338679 232.575222 
L 165.468567 232.348917 
L 166.377782 232.348917 
L 166.50767 232.122612 
L 169.040482 232.122612 
L 169.170369 231.896307 
L 172.027901 231.896307 
L 172.157789 231.670002 
L 173.196891 231.670002 
L 173.326779 231.443697 
L 173.586554 231.443697 
L 173.716442 231.217392 
L 173.84633 231.217392 
L 173.976218 230.991087 
L 175.34004 230.991087 
L 175.469927 230.764782 
L 178.522291 230.764782 
L 178.652178 230.538477 
L 186.250614 230.538477 
L 186.380502 230.312172 
L 194.758265 230.312172 
L 194.888153 230.085867 
L 200.538272 230.085867 
L 200.66816 229.859562 
L 205.66884 229.859562 
L 205.798728 229.633257 
L 214.111547 229.633257 
L 214.241434 229.406952 
L 221.709983 229.406952 
L 221.839871 229.180647 
L 227.16527 229.180647 
L 227.295158 228.954342 
L 229.698082 228.954342 
L 229.82797 228.728037 
L 233.399884 228.728037 
L 233.529772 228.501732 
L 237.361462 228.501732 
L 237.49135 228.275428 
L 241.907535 228.275428 
L 242.037423 228.049123 
L 245.024842 228.049123 
L 245.15473 227.822818 
L 248.856532 227.822818 
L 248.98642 227.596513 
L 252.947998 227.596513 
L 253.077885 227.370208 
L 254.636539 227.370208 
L 254.766427 227.143903 
L 258.598117 227.143903 
L 258.728005 226.917598 
L 266.521272 226.917598 
L 266.65116 226.691293 
L 272.755886 226.691293 
L 272.885774 226.464988 
L 275.548474 226.464988 
L 275.678362 226.238683 
L 276.97724 226.238683 
L 277.107128 226.012378 
L 280.938818 226.012378 
L 281.068705 225.786073 
L 285.679722 225.786073 
L 285.80961 225.559768 
L 288.14759 225.559768 
L 288.277478 225.333463 
L 290.550514 225.333463 
L 290.680402 225.107158 
L 294.187373 225.107158 
L 294.317261 224.880853 
L 297.499512 224.880853 
L 297.629399 224.654548 
L 300.162211 224.654548 
L 300.292099 224.428243 
L 301.526033 224.428243 
L 301.655921 224.201938 
L 301.720865 224.201938 
L 301.850753 223.975633 
L 303.214575 223.975633 
L 303.344462 223.749328 
L 306.007162 223.749328 
L 306.13705 223.523023 
L 311.007842 223.523023 
L 311.13773 223.296718 
L 316.593018 223.296718 
L 316.722905 223.070413 
L 321.658642 223.070413 
L 321.788529 222.844109 
L 325.165612 222.844109 
L 325.2955 222.617804 
L 328.737526 222.617804 
L 328.867414 222.391499 
L 334.777309 222.391499 
L 334.907197 222.165194 
L 341.531474 222.165194 
L 341.661362 221.938889 
L 346.142491 221.938889 
L 346.272379 221.712584 
L 348.415527 221.712584 
L 348.545415 221.486279 
L 348.935079 221.486279 
L 349.064966 221.259974 
L 350.039125 221.259974 
L 350.169013 221.033669 
L 351.338003 221.033669 
L 351.467891 220.807364 
L 352.247217 220.807364 
L 352.377105 220.581059 
L 353.156432 220.581059 
L 353.28632 220.354754 
L 353.935759 220.354754 
L 354.065647 220.128449 
L 354.13059 220.128449 
L 354.260478 219.902144 
L 354.909917 219.902144 
L 355.039805 219.675839 
L 355.234637 219.675839 
L 355.364525 219.449534 
L 355.94902 219.449534 
L 356.078907 219.223229 
L 356.403627 219.223229 
L 356.533515 218.996924 
L 356.923178 218.996924 
L 357.053066 218.770619 
L 357.377785 218.770619 
L 357.507673 218.544314 
L 357.96228 218.544314 
L 358.092168 218.318009 
L 358.481832 218.318009 
L 358.611719 218.091704 
L 359.326102 218.091704 
L 359.45599 217.865399 
L 360.105429 217.865399 
L 360.235317 217.639094 
L 360.689924 217.639094 
L 360.819812 217.41279 
L 361.014644 217.41279 
L 361.144531 217.186485 
L 361.599139 217.186485 
L 361.729027 216.96018 
L 361.988802 216.96018 
L 362.183634 216.50757 
L 362.443409 216.50757 
L 362.573297 216.281265 
L 362.898017 216.281265 
L 363.027904 216.05496 
L 363.28768 216.05496 
L 363.417568 215.828655 
L 364.067007 215.828655 
L 364.196895 215.60235 
L 364.45667 215.60235 
L 364.586558 215.376045 
L 364.911278 215.376045 
L 365.106109 214.923435 
L 365.495773 214.923435 
L 365.755548 214.24452 
L 365.820492 214.24452 
L 365.95038 214.018215 
L 366.145212 214.018215 
L 366.275099 213.79191 
L 366.469931 213.79191 
L 366.599819 213.565605 
L 366.729707 213.565605 
L 366.924538 213.112995 
L 366.989482 213.112995 
L 367.11937 212.660385 
L 367.379146 212.660385 
L 367.509033 212.43408 
L 367.573977 212.43408 
L 367.703865 212.207775 
L 367.898697 212.207775 
L 368.158472 210.623641 
L 368.28836 210.623641 
L 368.418248 210.397336 
L 368.548136 210.397336 
L 368.742968 209.718421 
L 368.872855 209.039506 
L 368.937799 209.039506 
L 369.652182 206.776457 
L 369.78207 206.776457 
L 369.976902 206.097542 
L 370.366565 204.513407 
L 370.496453 204.060797 
L 370.561397 204.060797 
L 370.886116 202.702967 
L 371.080948 201.118833 
L 371.145892 201.118833 
L 371.340723 200.666223 
L 371.405667 200.666223 
L 371.535555 200.439918 
L 371.600499 200.439918 
L 371.730387 200.213613 
L 371.795331 200.213613 
L 371.990162 199.761003 
L 372.12005 199.761003 
L 372.44477 198.855783 
L 372.509714 198.855783 
L 372.834433 197.497953 
L 372.964321 197.045343 
L 373.029265 197.045343 
L 373.159153 196.819038 
L 373.224096 196.819038 
L 373.548816 195.913819 
L 373.61376 195.913819 
L 374.068367 194.103379 
L 374.328143 192.745549 
L 374.458031 192.745549 
L 374.912638 190.02989 
L 374.977582 190.02989 
L 375.107469 189.803585 
L 375.172413 189.803585 
L 375.367245 189.12467 
L 375.562077 187.993145 
L 375.691965 187.31423 
L 375.886796 185.277486 
L 375.95174 185.051181 
L 376.211516 181.882911 
L 376.341404 181.656606 
L 376.406347 181.656606 
L 376.601179 180.751386 
L 376.860955 180.751386 
L 377.055786 180.298776 
L 377.185674 180.298776 
L 377.44545 179.619862 
L 377.705225 179.619862 
L 377.835113 179.393557 
L 377.965001 179.393557 
L 378.094889 179.167252 
L 378.159833 179.167252 
L 378.419608 178.488337 
L 378.679384 178.488337 
L 378.874216 178.035727 
L 378.939159 178.035727 
L 379.133991 177.583117 
L 379.328823 177.583117 
L 379.523655 177.130507 
L 379.718486 177.130507 
L 379.848374 176.904202 
L 379.913318 176.904202 
L 380.043206 176.677897 
L 380.238037 176.677897 
L 380.367925 176.451592 
L 380.432869 176.451592 
L 380.562757 176.225287 
L 380.887476 176.225287 
L 381.017364 175.998982 
L 381.082308 175.998982 
L 381.27714 175.546372 
L 381.342084 175.546372 
L 381.471971 175.320067 
L 381.601859 175.320067 
L 381.731747 175.093762 
L 381.861635 175.093762 
L 381.991523 174.867457 
L 382.056467 174.867457 
L 382.186354 174.641152 
L 382.251298 174.641152 
L 382.381186 174.414848 
L 382.770849 174.414848 
L 382.900737 174.188543 
L 383.160513 174.188543 
L 383.290401 173.962238 
L 383.809952 173.962238 
L 383.93984 173.735933 
L 384.264559 173.735933 
L 384.394447 173.509628 
L 384.524335 173.509628 
L 384.654222 173.283323 
L 384.78411 173.283323 
L 384.913998 173.057018 
L 385.173774 173.057018 
L 385.303661 172.830713 
L 385.433549 172.830713 
L 385.563437 172.604408 
L 385.693325 172.604408 
L 385.823213 172.378103 
L 385.9531 172.378103 
L 386.082988 172.151798 
L 386.147932 172.151798 
L 386.342764 171.699188 
L 386.407708 171.699188 
L 386.537596 171.472883 
L 386.667483 171.472883 
L 386.797371 171.246578 
L 386.927259 171.246578 
L 387.057147 171.020273 
L 387.381866 171.020273 
L 387.576698 170.567663 
L 387.641642 170.567663 
L 387.77153 170.341358 
L 387.836473 170.341358 
L 387.966361 170.115053 
L 388.161193 170.115053 
L 388.291081 169.662443 
L 388.356025 169.662443 
L 388.550856 168.757224 
L 389.005464 166.946784 
L 389.135351 163.55221 
L 389.330183 163.0996 
L 389.460071 163.0996 
L 389.849734 161.968075 
L 389.914678 161.968075 
L 390.044566 161.74177 
L 390.10951 161.74177 
L 390.304342 161.28916 
L 390.434229 161.28916 
L 390.823893 160.157635 
L 391.018724 160.157635 
L 391.213556 159.705025 
L 391.408388 159.705025 
L 391.538276 159.47872 
L 391.798051 159.47872 
L 391.927939 159.252415 
L 392.057827 159.252415 
L 392.187715 159.02611 
L 392.252659 159.02611 
L 392.382546 158.799805 
L 392.577378 158.799805 
L 392.707266 158.5735 
L 392.837154 158.5735 
L 392.967041 158.347196 
L 393.096929 158.347196 
L 393.226817 158.120891 
L 393.356705 158.120891 
L 393.486593 157.894586 
L 393.746368 157.894586 
L 393.876256 157.668281 
L 394.006144 157.668281 
L 394.136032 157.441976 
L 394.265919 157.441976 
L 394.460751 156.989366 
L 394.590639 156.989366 
L 394.720527 156.763061 
L 394.785471 156.763061 
L 394.915358 156.536756 
L 394.980302 156.536756 
L 395.11019 156.310451 
L 395.175134 156.310451 
L 395.305022 156.084146 
L 395.499853 156.084146 
L 395.629741 155.857841 
L 395.889517 155.857841 
L 396.084349 155.405231 
L 396.149292 155.405231 
L 396.344124 154.952621 
L 396.474012 154.952621 
L 396.993563 153.368486 
L 397.123451 153.368486 
L 397.318283 152.689572 
L 397.44817 152.010657 
L 397.643002 150.879132 
L 398.097609 149.068692 
L 398.292441 147.258253 
L 398.487273 133.227345 
L 398.487273 133.227345 
" clip-path="url(#p13b9751b0e)" style="fill: none; stroke: #1f77b4; stroke-width: 1.5; stroke-linecap: square"/>
   </g>
   <g id="line2d_14">
    <path d="M 73.832727 295.488 
L 86.561731 295.488 
L 86.691619 295.261695 
L 87.860609 295.261695 
L 88.185329 294.356475 
L 89.224431 294.356475 
L 89.419263 291.188206 
L 89.614094 278.288823 
L 89.87387 277.609908 
L 89.938814 273.536419 
L 90.068702 237.553931 
L 90.653197 237.553931 
L 90.783085 237.327626 
L 92.081963 237.327626 
L 92.21185 237.101321 
L 94.225111 237.101321 
L 94.354999 236.875016 
L 96.822867 236.875016 
L 96.952755 236.648711 
L 99.485567 236.648711 
L 99.615455 236.422406 
L 100.849389 236.422406 
L 100.979277 236.196101 
L 103.252313 236.196101 
L 103.382201 235.969796 
L 106.434564 235.969796 
L 106.564452 235.743491 
L 108.772544 235.743491 
L 108.902432 235.517186 
L 110.785805 235.517186 
L 110.915693 235.290881 
L 115.20199 235.290881 
L 115.331878 235.064576 
L 121.046941 235.064576 
L 121.176829 234.838271 
L 127.606275 234.838271 
L 127.736163 234.611966 
L 131.827628 234.611966 
L 131.957516 234.385661 
L 134.879991 234.385661 
L 135.009879 234.159356 
L 140.335279 234.159356 
L 140.465166 233.933051 
L 146.829668 233.933051 
L 146.959556 233.706746 
L 150.206751 233.706746 
L 150.336639 233.480442 
L 151.765405 233.480442 
L 151.895293 233.254137 
L 153.713722 233.254137 
L 153.843609 233.027832 
L 157.545412 233.027832 
L 157.675299 232.801527 
L 160.922494 232.801527 
L 161.052382 232.575222 
L 163.130587 232.575222 
L 163.260475 232.348917 
L 165.143848 232.348917 
L 165.273735 232.122612 
L 168.585874 232.122612 
L 168.715762 231.896307 
L 170.534191 231.896307 
L 170.664079 231.670002 
L 172.092845 231.670002 
L 172.222733 231.443697 
L 172.612396 231.443697 
L 172.742284 231.217392 
L 172.937115 231.217392 
L 173.067003 230.991087 
L 174.171049 230.991087 
L 174.300937 230.764782 
L 177.093525 230.764782 
L 177.223413 230.538477 
L 184.367241 230.538477 
L 184.497129 230.312172 
L 192.68006 230.312172 
L 192.809948 230.085867 
L 199.434226 230.085867 
L 199.564114 229.859562 
L 205.798728 229.859562 
L 205.928616 229.633257 
L 213.656939 229.633257 
L 213.786827 229.406952 
L 222.684141 229.406952 
L 222.814029 229.180647 
L 229.178531 229.180647 
L 229.308419 228.954342 
L 232.360782 228.954342 
L 232.49067 228.728037 
L 235.607977 228.728037 
L 235.737865 228.501732 
L 239.959218 228.501732 
L 240.089106 228.275428 
L 243.790908 228.275428 
L 243.920796 228.049123 
L 247.297878 228.049123 
L 247.427766 227.822818 
L 250.545073 227.822818 
L 250.674961 227.596513 
L 255.091146 227.596513 
L 255.221034 227.370208 
L 257.039463 227.370208 
L 257.169351 227.143903 
L 261.390704 227.143903 
L 261.520592 226.917598 
L 267.300599 226.917598 
L 267.430487 226.691293 
L 274.054764 226.691293 
L 274.184652 226.464988 
L 277.561735 226.464988 
L 277.691623 226.238683 
L 279.380164 226.238683 
L 279.510052 226.012378 
L 283.276798 226.012378 
L 283.406686 225.786073 
L 287.30332 225.786073 
L 287.433207 225.559768 
L 291.459729 225.559768 
L 291.589617 225.333463 
L 293.278158 225.333463 
L 293.408046 225.107158 
L 296.265577 225.107158 
L 296.395465 224.880853 
L 299.447828 224.880853 
L 299.577716 224.654548 
L 301.526033 224.654548 
L 301.655921 224.428243 
L 302.370304 224.428243 
L 302.500192 224.201938 
L 302.954799 224.201938 
L 303.084687 223.975633 
L 304.64334 223.975633 
L 304.773228 223.749328 
L 307.046265 223.749328 
L 307.176152 223.523023 
L 311.982001 223.523023 
L 312.111889 223.296718 
L 317.3074 223.296718 
L 317.437288 223.070413 
L 322.827632 223.070413 
L 322.95752 222.844109 
L 325.815051 222.844109 
L 325.944939 222.617804 
L 328.932358 222.617804 
L 329.062246 222.391499 
L 336.141131 222.391499 
L 336.271019 222.165194 
L 342.765408 222.165194 
L 342.895296 221.938889 
L 346.532154 221.938889 
L 346.662042 221.712584 
L 348.610359 221.712584 
L 348.740247 221.486279 
L 350.104069 221.486279 
L 350.233957 221.259974 
L 351.857554 221.259974 
L 351.987442 221.033669 
L 353.481152 221.033669 
L 353.611039 220.807364 
L 354.45531 220.807364 
L 354.585198 220.581059 
L 354.974861 220.581059 
L 355.104749 220.354754 
L 355.364525 220.354754 
L 355.494412 220.128449 
L 356.208795 220.128449 
L 356.338683 219.902144 
L 356.858234 219.902144 
L 356.988122 219.675839 
L 357.442729 219.675839 
L 357.572617 219.449534 
L 358.546776 219.449534 
L 358.676663 219.223229 
L 359.196215 219.223229 
L 359.326102 218.996924 
L 359.650822 218.996924 
L 359.78071 218.770619 
L 360.430149 218.770619 
L 360.560036 218.544314 
L 360.819812 218.544314 
L 360.9497 218.318009 
L 361.534195 218.318009 
L 361.664083 218.091704 
L 362.053746 218.091704 
L 362.183634 217.865399 
L 362.378466 217.865399 
L 362.508353 217.639094 
L 363.092848 217.639094 
L 363.222736 217.41279 
L 363.677343 217.41279 
L 363.807231 217.186485 
L 364.067007 217.186485 
L 364.196895 216.96018 
L 364.521614 216.96018 
L 364.651502 216.733875 
L 364.846334 216.733875 
L 364.976221 216.50757 
L 365.300941 216.50757 
L 365.430829 216.281265 
L 366.015324 216.281265 
L 366.145212 216.05496 
L 366.340043 216.05496 
L 366.469931 215.828655 
L 366.599819 215.828655 
L 366.729707 215.60235 
L 366.924538 215.60235 
L 367.314202 214.470825 
L 367.379146 214.470825 
L 367.573977 214.018215 
L 367.898697 214.018215 
L 368.028585 213.79191 
L 368.223416 213.79191 
L 368.418248 213.3393 
L 368.548136 213.3393 
L 368.678024 213.112995 
L 368.742968 213.112995 
L 368.872855 212.88669 
L 368.937799 212.88669 
L 369.067687 212.660385 
L 369.132631 212.660385 
L 369.327463 212.207775 
L 369.652182 212.207775 
L 369.976902 211.302556 
L 370.041845 211.302556 
L 370.171733 211.076251 
L 370.236677 211.076251 
L 370.431509 210.171031 
L 370.886116 208.813201 
L 370.95106 208.813201 
L 371.080948 208.586896 
L 371.145892 208.586896 
L 371.730387 206.776457 
L 371.860275 206.776457 
L 372.055106 206.097542 
L 372.249938 205.192322 
L 372.379826 205.192322 
L 372.769489 204.060797 
L 372.899377 202.476662 
L 373.029265 202.476662 
L 373.159153 201.797747 
L 373.418928 200.666223 
L 373.483872 200.666223 
L 374.068367 198.629478 
L 374.263199 197.724258 
L 374.328143 197.724258 
L 374.522974 197.271648 
L 374.652862 197.271648 
L 374.78275 196.819038 
L 374.847694 196.819038 
L 374.977582 196.366428 
L 375.172413 196.366428 
L 375.691965 193.198159 
L 375.821852 193.198159 
L 376.27646 191.614024 
L 376.860955 183.240741 
L 376.990843 182.335521 
L 377.055786 182.335521 
L 377.185674 182.109216 
L 377.250618 182.109216 
L 377.44545 181.656606 
L 377.510394 181.656606 
L 377.705225 181.203996 
L 377.835113 181.203996 
L 377.965001 180.977691 
L 378.159833 180.977691 
L 378.354664 180.525081 
L 378.484552 180.525081 
L 378.61444 180.298776 
L 378.679384 180.298776 
L 378.809272 180.072471 
L 379.069047 180.072471 
L 379.328823 179.393557 
L 379.393767 179.393557 
L 379.523655 179.167252 
L 379.78343 179.167252 
L 379.913318 178.940947 
L 380.043206 178.940947 
L 380.173094 178.488337 
L 380.238037 178.488337 
L 380.367925 178.262032 
L 380.627701 178.262032 
L 380.822533 177.809422 
L 381.147252 177.809422 
L 381.27714 177.583117 
L 381.536915 177.583117 
L 381.666803 177.130507 
L 381.861635 177.130507 
L 381.991523 176.904202 
L 382.251298 176.904202 
L 382.381186 176.677897 
L 382.511074 176.677897 
L 382.640962 176.451592 
L 382.705906 176.451592 
L 382.835793 176.225287 
L 383.030625 176.225287 
L 383.160513 175.998982 
L 383.355345 175.998982 
L 383.485232 175.772677 
L 383.809952 175.772677 
L 383.93984 175.546372 
L 384.004784 175.546372 
L 384.264559 174.867457 
L 384.654222 174.867457 
L 384.849054 174.414848 
L 385.043886 174.414848 
L 385.238718 173.962238 
L 385.303661 173.962238 
L 385.498493 173.509628 
L 385.628381 173.509628 
L 385.758269 173.057018 
L 385.9531 173.057018 
L 386.082988 172.830713 
L 386.27782 172.830713 
L 386.537596 172.151798 
L 386.602539 172.151798 
L 386.797371 171.699188 
L 386.862315 171.699188 
L 386.992203 171.472883 
L 387.057147 171.472883 
L 387.187034 171.246578 
L 387.44681 171.246578 
L 387.641642 170.793968 
L 387.706586 170.793968 
L 387.836473 170.567663 
L 387.901417 170.567663 
L 388.420969 168.530919 
L 388.550856 168.078309 
L 388.6158 168.078309 
L 388.875576 167.173089 
L 389.005464 166.267869 
L 389.070408 166.041564 
L 389.265239 164.457429 
L 389.460071 163.778514 
L 389.849734 162.64699 
L 389.914678 162.64699 
L 390.369285 161.28916 
L 390.564117 161.28916 
L 390.888837 160.38394 
L 390.953781 160.38394 
L 391.083668 160.157635 
L 391.148612 160.157635 
L 391.343444 159.705025 
L 391.473332 159.705025 
L 391.733107 159.02611 
L 391.992883 159.02611 
L 392.187715 158.5735 
L 392.252659 158.5735 
L 392.382546 158.347196 
L 392.44749 158.347196 
L 392.642322 157.894586 
L 393.031985 157.894586 
L 393.226817 157.441976 
L 393.291761 157.441976 
L 393.486593 156.989366 
L 393.746368 156.989366 
L 393.876256 156.763061 
L 394.006144 156.763061 
L 394.200975 156.310451 
L 394.525695 156.310451 
L 394.655583 156.084146 
L 394.850414 156.084146 
L 394.980302 155.857841 
L 395.045246 155.857841 
L 395.175134 155.631536 
L 395.305022 155.631536 
L 395.43491 155.405231 
L 395.629741 155.405231 
L 395.759629 155.178926 
L 395.954461 155.178926 
L 396.084349 154.952621 
L 396.214236 154.952621 
L 396.344124 154.726316 
L 396.538956 154.726316 
L 396.928619 153.594791 
L 396.993563 153.594791 
L 397.188395 153.142181 
L 397.253339 153.142181 
L 397.44817 152.689572 
L 397.513114 152.689572 
L 397.643002 152.463267 
L 397.707946 152.463267 
L 398.097609 149.521302 
L 398.162553 149.521302 
L 398.292441 143.863678 
L 398.422329 121.685792 
L 398.487273 53.568 
L 398.487273 53.568 
" clip-path="url(#p13b9751b0e)" style="fill: none; stroke: #ff7f0e; stroke-width: 1.5; stroke-linecap: square"/>
   </g>
   <g id="patch_3">
    <path d="M 57.6 307.584 
L 57.6 41.472 
" style="fill: none; stroke: #000000; stroke-width: 0.8; stroke-linejoin: miter; stroke-linecap: square"/>
   </g>
   <g id="patch_4">
    <path d="M 414.72 307.584 
L 414.72 41.472 
" style="fill: none; stroke: #000000; stroke-width: 0.8; stroke-linejoin: miter; stroke-linecap: square"/>
   </g>
   <g id="patch_5">
    <path d="M 57.6 307.584 
L 414.72 307.584 
" style="fill: none; stroke: #000000; stroke-width: 0.8; stroke-linejoin: miter; stroke-linecap: square"/>
   </g>
   <g id="patch_6">
    <path d="M 57.6 41.472 
L 414.72 41.472 
" style="fill: none; stroke: #000000; stroke-width: 0.8; stroke-linejoin: miter; stroke-linecap: square"/>
   </g>
   <g id="text_15">
    <!-- pointer array pc-dependence aligned test -->
    <g transform="translate(111.3225 35.472) scale(0.12 -0.12)">
     <defs>
      <path id="DejaVuSans-70" d="M 1159 525 
L 1159 -1331 
L 581 -1331 
L 581 3500 
L 1159 3500 
L 1159 2969 
Q 1341 3281 1617 3432 
Q 1894 3584 2278 3584 
Q 2916 3584 3314 3078 
Q 3713 2572 3713 1747 
Q 3713 922 3314 415 
Q 2916 -91 2278 -91 
Q 1894 -91 1617 61 
Q 1341 213 1159 525 
z
M 3116 1747 
Q 3116 2381 2855 2742 
Q 2594 3103 2138 3103 
Q 1681 3103 1420 2742 
Q 1159 2381 1159 1747 
Q 1159 1113 1420 752 
Q 1681 391 2138 391 
Q 2594 391 2855 752 
Q 3116 1113 3116 1747 
z
" transform="scale(0.015625)"/>
      <path id="DejaVuSans-6f" d="M 1959 3097 
Q 1497 3097 1228 2736 
Q 959 2375 959 1747 
Q 959 1119 1226 758 
Q 1494 397 1959 397 
Q 2419 397 2687 759 
Q 2956 1122 2956 1747 
Q 2956 2369 2687 2733 
Q 2419 3097 1959 3097 
z
M 1959 3584 
Q 2709 3584 3137 3096 
Q 3566 2609 3566 1747 
Q 3566 888 3137 398 
Q 2709 -91 1959 -91 
Q 1206 -91 779 398 
Q 353 888 353 1747 
Q 353 2609 779 3096 
Q 1206 3584 1959 3584 
z
" transform="scale(0.015625)"/>
      <path id="DejaVuSans-79" d="M 2059 -325 
Q 1816 -950 1584 -1140 
Q 1353 -1331 966 -1331 
L 506 -1331 
L 506 -850 
L 844 -850 
Q 1081 -850 1212 -737 
Q 1344 -625 1503 -206 
L 1606 56 
L 191 3500 
L 800 3500 
L 1894 763 
L 2988 3500 
L 3597 3500 
L 2059 -325 
z
" transform="scale(0.015625)"/>
      <path id="DejaVuSans-63" d="M 3122 3366 
L 3122 2828 
Q 2878 2963 2633 3030 
Q 2388 3097 2138 3097 
Q 1578 3097 1268 2742 
Q 959 2388 959 1747 
Q 959 1106 1268 751 
Q 1578 397 2138 397 
Q 2388 397 2633 464 
Q 2878 531 3122 666 
L 3122 134 
Q 2881 22 2623 -34 
Q 2366 -91 2075 -91 
Q 1284 -91 818 406 
Q 353 903 353 1747 
Q 353 2603 823 3093 
Q 1294 3584 2113 3584 
Q 2378 3584 2631 3529 
Q 2884 3475 3122 3366 
z
" transform="scale(0.015625)"/>
      <path id="DejaVuSans-2d" d="M 313 2009 
L 1997 2009 
L 1997 1497 
L 313 1497 
L 313 2009 
z
" transform="scale(0.015625)"/>
      <path id="DejaVuSans-64" d="M 2906 2969 
L 2906 4863 
L 3481 4863 
L 3481 0 
L 2906 0 
L 2906 525 
Q 2725 213 2448 61 
Q 2172 -91 1784 -91 
Q 1150 -91 751 415 
Q 353 922 353 1747 
Q 353 2572 751 3078 
Q 1150 3584 1784 3584 
Q 2172 3584 2448 3432 
Q 2725 3281 2906 2969 
z
M 947 1747 
Q 947 1113 1208 752 
Q 1469 391 1925 391 
Q 2381 391 2643 752 
Q 2906 1113 2906 1747 
Q 2906 2381 2643 2742 
Q 2381 3103 1925 3103 
Q 1469 3103 1208 2742 
Q 947 2381 947 1747 
z
" transform="scale(0.015625)"/>
      <path id="DejaVuSans-6c" d="M 603 4863 
L 1178 4863 
L 1178 0 
L 603 0 
L 603 4863 
z
" transform="scale(0.015625)"/>
      <path id="DejaVuSans-67" d="M 2906 1791 
Q 2906 2416 2648 2759 
Q 2391 3103 1925 3103 
Q 1463 3103 1205 2759 
Q 947 2416 947 1791 
Q 947 1169 1205 825 
Q 1463 481 1925 481 
Q 2391 481 2648 825 
Q 2906 1169 2906 1791 
z
M 3481 434 
Q 3481 -459 3084 -895 
Q 2688 -1331 1869 -1331 
Q 1566 -1331 1297 -1286 
Q 1028 -1241 775 -1147 
L 775 -588 
Q 1028 -725 1275 -790 
Q 1522 -856 1778 -856 
Q 2344 -856 2625 -561 
Q 2906 -266 2906 331 
L 2906 616 
Q 2728 306 2450 153 
Q 2172 0 1784 0 
Q 1141 0 747 490 
Q 353 981 353 1791 
Q 353 2603 747 3093 
Q 1141 3584 1784 3584 
Q 2172 3584 2450 3431 
Q 2728 3278 2906 2969 
L 2906 3500 
L 3481 3500 
L 3481 434 
z
" transform="scale(0.015625)"/>
     </defs>
     <use xlink:href="#DejaVuSans-70"/>
     <use xlink:href="#DejaVuSans-6f" x="63.476562"/>
     <use xlink:href="#DejaVuSans-69" x="124.658203"/>
     <use xlink:href="#DejaVuSans-6e" x="152.441406"/>
     <use xlink:href="#DejaVuSans-74" x="215.820312"/>
     <use xlink:href="#DejaVuSans-65" x="255.029297"/>
     <use xlink:href="#DejaVuSans-72" x="316.552734"/>
     <use xlink:href="#DejaVuSans-20" x="357.666016"/>
     <use xlink:href="#DejaVuSans-61" x="389.453125"/>
     <use xlink:href="#DejaVuSans-72" x="450.732422"/>
     <use xlink:href="#DejaVuSans-72" x="490.095703"/>
     <use xlink:href="#DejaVuSans-61" x="531.208984"/>
     <use xlink:href="#DejaVuSans-79" x="592.488281"/>
     <use xlink:href="#DejaVuSans-20" x="651.667969"/>
     <use xlink:href="#DejaVuSans-70" x="683.455078"/>
     <use xlink:href="#DejaVuSans-63" x="746.931641"/>
     <use xlink:href="#DejaVuSans-2d" x="801.912109"/>
     <use xlink:href="#DejaVuSans-64" x="837.996094"/>
     <use xlink:href="#DejaVuSans-65" x="901.472656"/>
     <use xlink:href="#DejaVuSans-70" x="962.996094"/>
     <use xlink:href="#DejaVuSans-65" x="1026.472656"/>
     <use xlink:href="#DejaVuSans-6e" x="1087.996094"/>
     <use xlink:href="#DejaVuSans-64" x="1151.375"/>
     <use xlink:href="#DejaVuSans-65" x="1214.851562"/>
     <use xlink:href="#DejaVuSans-6e" x="1276.375"/>
     <use xlink:href="#DejaVuSans-63" x="1339.753906"/>
     <use xlink:href="#DejaVuSans-65" x="1394.734375"/>
     <use xlink:href="#DejaVuSans-20" x="1456.257812"/>
     <use xlink:href="#DejaVuSans-61" x="1488.044922"/>
     <use xlink:href="#DejaVuSans-6c" x="1549.324219"/>
     <use xlink:href="#DejaVuSans-69" x="1577.107422"/>
     <use xlink:href="#DejaVuSans-67" x="1604.890625"/>
     <use xlink:href="#DejaVuSans-6e" x="1668.367188"/>
     <use xlink:href="#DejaVuSans-65" x="1731.746094"/>
     <use xlink:href="#DejaVuSans-64" x="1793.269531"/>
     <use xlink:href="#DejaVuSans-20" x="1856.746094"/>
     <use xlink:href="#DejaVuSans-74" x="1888.533203"/>
     <use xlink:href="#DejaVuSans-65" x="1927.742188"/>
     <use xlink:href="#DejaVuSans-73" x="1989.265625"/>
     <use xlink:href="#DejaVuSans-74" x="2041.365234"/>
    </g>
   </g>
   <g id="legend_1">
    <g id="patch_7">
     <path d="M 64.6 78.82825 
L 166.359375 78.82825 
Q 168.359375 78.82825 168.359375 76.82825 
L 168.359375 48.472 
Q 168.359375 46.472 166.359375 46.472 
L 64.6 46.472 
Q 62.6 46.472 62.6 48.472 
L 62.6 76.82825 
Q 62.6 78.82825 64.6 78.82825 
z
" style="fill: #ffffff; opacity: 0.8; stroke: #cccccc; stroke-linejoin: miter"/>
    </g>
    <g id="line2d_15">
     <path d="M 66.6 54.570437 
L 76.6 54.570437 
L 86.6 54.570437 
" style="fill: none; stroke: #1f77b4; stroke-width: 1.5; stroke-linecap: square"/>
    </g>
    <g id="text_16">
     <!-- measurement -->
     <g transform="translate(94.6 58.070437) scale(0.1 -0.1)">
      <use xlink:href="#DejaVuSans-6d"/>
      <use xlink:href="#DejaVuSans-65" x="97.412109"/>
      <use xlink:href="#DejaVuSans-61" x="158.935547"/>
      <use xlink:href="#DejaVuSans-73" x="220.214844"/>
      <use xlink:href="#DejaVuSans-75" x="272.314453"/>
      <use xlink:href="#DejaVuSans-72" x="335.693359"/>
      <use xlink:href="#DejaVuSans-65" x="374.556641"/>
      <use xlink:href="#DejaVuSans-6d" x="436.080078"/>
      <use xlink:href="#DejaVuSans-65" x="533.492188"/>
      <use xlink:href="#DejaVuSans-6e" x="595.015625"/>
      <use xlink:href="#DejaVuSans-74" x="658.394531"/>
     </g>
    </g>
    <g id="line2d_16">
     <path d="M 66.6 69.248562 
L 76.6 69.248562 
L 86.6 69.248562 
" style="fill: none; stroke: #ff7f0e; stroke-width: 1.5; stroke-linecap: square"/>
    </g>
    <g id="text_17">
     <!-- reference -->
     <g transform="translate(94.6 72.748562) scale(0.1 -0.1)">
      <defs>
       <path id="DejaVuSans-66" d="M 2375 4863 
L 2375 4384 
L 1825 4384 
Q 1516 4384 1395 4259 
Q 1275 4134 1275 3809 
L 1275 3500 
L 2222 3500 
L 2222 3053 
L 1275 3053 
L 1275 0 
L 697 0 
L 697 3053 
L 147 3053 
L 147 3500 
L 697 3500 
L 697 3744 
Q 697 4328 969 4595 
Q 1241 4863 1831 4863 
L 2375 4863 
z
" transform="scale(0.015625)"/>
      </defs>
      <use xlink:href="#DejaVuSans-72"/>
      <use xlink:href="#DejaVuSans-65" x="38.863281"/>
      <use xlink:href="#DejaVuSans-66" x="100.386719"/>
      <use xlink:href="#DejaVuSans-65" x="135.591797"/>
      <use xlink:href="#DejaVuSans-72" x="197.115234"/>
      <use xlink:href="#DejaVuSans-65" x="235.978516"/>
      <use xlink:href="#DejaVuSans-6e" x="297.501953"/>
      <use xlink:href="#DejaVuSans-63" x="360.880859"/>
      <use xlink:href="#DejaVuSans-65" x="415.861328"/>
     </g>
    </g>
   </g>
  </g>
 </g>
 <defs>
  <clipPath id="p13b9751b0e">
   <rect x="57.6" y="41.472" width="357.12" height="266.112"/>
  </clipPath>
 </defs>
</svg>
