<?xml version="1.0" encoding="utf-8" standalone="no"?>
<!DOCTYPE svg PUBLIC "-//W3C//DTD SVG 1.1//EN"
  "http://www.w3.org/Graphics/SVG/1.1/DTD/svg11.dtd">
<svg xmlns:xlink="http://www.w3.org/1999/xlink" width="460.8pt" height="345.6pt" viewBox="0 0 460.8 345.6" xmlns="http://www.w3.org/2000/svg" version="1.1">
 <metadata>
  <rdf:RDF xmlns:dc="http://purl.org/dc/elements/1.1/" xmlns:cc="http://creativecommons.org/ns#" xmlns:rdf="http://www.w3.org/1999/02/22-rdf-syntax-ns#">
   <cc:Work>
    <dc:type rdf:resource="http://purl.org/dc/dcmitype/StillImage"/>
    <dc:date>2024-10-04T16:13:10.702288</dc:date>
    <dc:format>image/svg+xml</dc:format>
    <dc:creator>
     <cc:Agent>
      <dc:title>Matplotlib v3.6.3, https://matplotlib.org/</dc:title>
     </cc:Agent>
    </dc:creator>
   </cc:Work>
  </rdf:RDF>
 </metadata>
 <defs>
  <style type="text/css">*{stroke-linejoin: round; stroke-linecap: butt}</style>
 </defs>
 <g id="figure_1">
  <g id="patch_1">
   <path d="M 0 345.6 
L 460.8 345.6 
L 460.8 0 
L 0 0 
z
" style="fill: #ffffff"/>
  </g>
  <g id="axes_1">
   <g id="patch_2">
    <path d="M 57.6 307.584 
L 414.72 307.584 
L 414.72 41.472 
L 57.6 41.472 
z
" style="fill: #ffffff"/>
   </g>
   <g id="matplotlib.axis_1">
    <g id="xtick_1">
     <g id="line2d_1">
      <defs>
       <path id="m66a376902e" d="M 0 0 
L 0 3.5 
" style="stroke: #000000; stroke-width: 0.8"/>
      </defs>
      <g>
       <use xlink:href="#m66a376902e" x="73.832727" y="307.584" style="stroke: #000000; stroke-width: 0.8"/>
      </g>
     </g>
     <g id="text_1">
      <!-- 0 -->
      <g transform="translate(70.651477 322.182437) scale(0.1 -0.1)">
       <defs>
        <path id="DejaVuSans-30" d="M 2034 4250 
Q 1547 4250 1301 3770 
Q 1056 3291 1056 2328 
Q 1056 1369 1301 889 
Q 1547 409 2034 409 
Q 2525 409 2770 889 
Q 3016 1369 3016 2328 
Q 3016 3291 2770 3770 
Q 2525 4250 2034 4250 
z
M 2034 4750 
Q 2819 4750 3233 4129 
Q 3647 3509 3647 2328 
Q 3647 1150 3233 529 
Q 2819 -91 2034 -91 
Q 1250 -91 836 529 
Q 422 1150 422 2328 
Q 422 3509 836 4129 
Q 1250 4750 2034 4750 
z
" transform="scale(0.015625)"/>
       </defs>
       <use xlink:href="#DejaVuSans-30"/>
      </g>
     </g>
    </g>
    <g id="xtick_2">
     <g id="line2d_2">
      <g>
       <use xlink:href="#m66a376902e" x="138.776625" y="307.584" style="stroke: #000000; stroke-width: 0.8"/>
      </g>
     </g>
     <g id="text_2">
      <!-- 1000 -->
      <g transform="translate(126.051625 322.182437) scale(0.1 -0.1)">
       <defs>
        <path id="DejaVuSans-31" d="M 794 531 
L 1825 531 
L 1825 4091 
L 703 3866 
L 703 4441 
L 1819 4666 
L 2450 4666 
L 2450 531 
L 3481 531 
L 3481 0 
L 794 0 
L 794 531 
z
" transform="scale(0.015625)"/>
       </defs>
       <use xlink:href="#DejaVuSans-31"/>
       <use xlink:href="#DejaVuSans-30" x="63.623047"/>
       <use xlink:href="#DejaVuSans-30" x="127.246094"/>
       <use xlink:href="#DejaVuSans-30" x="190.869141"/>
      </g>
     </g>
    </g>
    <g id="xtick_3">
     <g id="line2d_3">
      <g>
       <use xlink:href="#m66a376902e" x="203.720523" y="307.584" style="stroke: #000000; stroke-width: 0.8"/>
      </g>
     </g>
     <g id="text_3">
      <!-- 2000 -->
      <g transform="translate(190.995523 322.182437) scale(0.1 -0.1)">
       <defs>
        <path id="DejaVuSans-32" d="M 1228 531 
L 3431 531 
L 3431 0 
L 469 0 
L 469 531 
Q 828 903 1448 1529 
Q 2069 2156 2228 2338 
Q 2531 2678 2651 2914 
Q 2772 3150 2772 3378 
Q 2772 3750 2511 3984 
Q 2250 4219 1831 4219 
Q 1534 4219 1204 4116 
Q 875 4013 500 3803 
L 500 4441 
Q 881 4594 1212 4672 
Q 1544 4750 1819 4750 
Q 2544 4750 2975 4387 
Q 3406 4025 3406 3419 
Q 3406 3131 3298 2873 
Q 3191 2616 2906 2266 
Q 2828 2175 2409 1742 
Q 1991 1309 1228 531 
z
" transform="scale(0.015625)"/>
       </defs>
       <use xlink:href="#DejaVuSans-32"/>
       <use xlink:href="#DejaVuSans-30" x="63.623047"/>
       <use xlink:href="#DejaVuSans-30" x="127.246094"/>
       <use xlink:href="#DejaVuSans-30" x="190.869141"/>
      </g>
     </g>
    </g>
    <g id="xtick_4">
     <g id="line2d_4">
      <g>
       <use xlink:href="#m66a376902e" x="268.664421" y="307.584" style="stroke: #000000; stroke-width: 0.8"/>
      </g>
     </g>
     <g id="text_4">
      <!-- 3000 -->
      <g transform="translate(255.939421 322.182437) scale(0.1 -0.1)">
       <defs>
        <path id="DejaVuSans-33" d="M 2597 2516 
Q 3050 2419 3304 2112 
Q 3559 1806 3559 1356 
Q 3559 666 3084 287 
Q 2609 -91 1734 -91 
Q 1441 -91 1130 -33 
Q 819 25 488 141 
L 488 750 
Q 750 597 1062 519 
Q 1375 441 1716 441 
Q 2309 441 2620 675 
Q 2931 909 2931 1356 
Q 2931 1769 2642 2001 
Q 2353 2234 1838 2234 
L 1294 2234 
L 1294 2753 
L 1863 2753 
Q 2328 2753 2575 2939 
Q 2822 3125 2822 3475 
Q 2822 3834 2567 4026 
Q 2313 4219 1838 4219 
Q 1578 4219 1281 4162 
Q 984 4106 628 3988 
L 628 4550 
Q 988 4650 1302 4700 
Q 1616 4750 1894 4750 
Q 2613 4750 3031 4423 
Q 3450 4097 3450 3541 
Q 3450 3153 3228 2886 
Q 3006 2619 2597 2516 
z
" transform="scale(0.015625)"/>
       </defs>
       <use xlink:href="#DejaVuSans-33"/>
       <use xlink:href="#DejaVuSans-30" x="63.623047"/>
       <use xlink:href="#DejaVuSans-30" x="127.246094"/>
       <use xlink:href="#DejaVuSans-30" x="190.869141"/>
      </g>
     </g>
    </g>
    <g id="xtick_5">
     <g id="line2d_5">
      <g>
       <use xlink:href="#m66a376902e" x="333.608319" y="307.584" style="stroke: #000000; stroke-width: 0.8"/>
      </g>
     </g>
     <g id="text_5">
      <!-- 4000 -->
      <g transform="translate(320.883319 322.182437) scale(0.1 -0.1)">
       <defs>
        <path id="DejaVuSans-34" d="M 2419 4116 
L 825 1625 
L 2419 1625 
L 2419 4116 
z
M 2253 4666 
L 3047 4666 
L 3047 1625 
L 3713 1625 
L 3713 1100 
L 3047 1100 
L 3047 0 
L 2419 0 
L 2419 1100 
L 313 1100 
L 313 1709 
L 2253 4666 
z
" transform="scale(0.015625)"/>
       </defs>
       <use xlink:href="#DejaVuSans-34"/>
       <use xlink:href="#DejaVuSans-30" x="63.623047"/>
       <use xlink:href="#DejaVuSans-30" x="127.246094"/>
       <use xlink:href="#DejaVuSans-30" x="190.869141"/>
      </g>
     </g>
    </g>
    <g id="xtick_6">
     <g id="line2d_6">
      <g>
       <use xlink:href="#m66a376902e" x="398.552217" y="307.584" style="stroke: #000000; stroke-width: 0.8"/>
      </g>
     </g>
     <g id="text_6">
      <!-- 5000 -->
      <g transform="translate(385.827217 322.182437) scale(0.1 -0.1)">
       <defs>
        <path id="DejaVuSans-35" d="M 691 4666 
L 3169 4666 
L 3169 4134 
L 1269 4134 
L 1269 2991 
Q 1406 3038 1543 3061 
Q 1681 3084 1819 3084 
Q 2600 3084 3056 2656 
Q 3513 2228 3513 1497 
Q 3513 744 3044 326 
Q 2575 -91 1722 -91 
Q 1428 -91 1123 -41 
Q 819 9 494 109 
L 494 744 
Q 775 591 1075 516 
Q 1375 441 1709 441 
Q 2250 441 2565 725 
Q 2881 1009 2881 1497 
Q 2881 1984 2565 2268 
Q 2250 2553 1709 2553 
Q 1456 2553 1204 2497 
Q 953 2441 691 2322 
L 691 4666 
z
" transform="scale(0.015625)"/>
       </defs>
       <use xlink:href="#DejaVuSans-35"/>
       <use xlink:href="#DejaVuSans-30" x="63.623047"/>
       <use xlink:href="#DejaVuSans-30" x="127.246094"/>
       <use xlink:href="#DejaVuSans-30" x="190.869141"/>
      </g>
     </g>
    </g>
    <g id="text_7">
     <!-- measurement # -->
     <g transform="translate(195.501406 335.860562) scale(0.1 -0.1)">
      <defs>
       <path id="DejaVuSans-6d" d="M 3328 2828 
Q 3544 3216 3844 3400 
Q 4144 3584 4550 3584 
Q 5097 3584 5394 3201 
Q 5691 2819 5691 2113 
L 5691 0 
L 5113 0 
L 5113 2094 
Q 5113 2597 4934 2840 
Q 4756 3084 4391 3084 
Q 3944 3084 3684 2787 
Q 3425 2491 3425 1978 
L 3425 0 
L 2847 0 
L 2847 2094 
Q 2847 2600 2669 2842 
Q 2491 3084 2119 3084 
Q 1678 3084 1418 2786 
Q 1159 2488 1159 1978 
L 1159 0 
L 581 0 
L 581 3500 
L 1159 3500 
L 1159 2956 
Q 1356 3278 1631 3431 
Q 1906 3584 2284 3584 
Q 2666 3584 2933 3390 
Q 3200 3197 3328 2828 
z
" transform="scale(0.015625)"/>
       <path id="DejaVuSans-65" d="M 3597 1894 
L 3597 1613 
L 953 1613 
Q 991 1019 1311 708 
Q 1631 397 2203 397 
Q 2534 397 2845 478 
Q 3156 559 3463 722 
L 3463 178 
Q 3153 47 2828 -22 
Q 2503 -91 2169 -91 
Q 1331 -91 842 396 
Q 353 884 353 1716 
Q 353 2575 817 3079 
Q 1281 3584 2069 3584 
Q 2775 3584 3186 3129 
Q 3597 2675 3597 1894 
z
M 3022 2063 
Q 3016 2534 2758 2815 
Q 2500 3097 2075 3097 
Q 1594 3097 1305 2825 
Q 1016 2553 972 2059 
L 3022 2063 
z
" transform="scale(0.015625)"/>
       <path id="DejaVuSans-61" d="M 2194 1759 
Q 1497 1759 1228 1600 
Q 959 1441 959 1056 
Q 959 750 1161 570 
Q 1363 391 1709 391 
Q 2188 391 2477 730 
Q 2766 1069 2766 1631 
L 2766 1759 
L 2194 1759 
z
M 3341 1997 
L 3341 0 
L 2766 0 
L 2766 531 
Q 2569 213 2275 61 
Q 1981 -91 1556 -91 
Q 1019 -91 701 211 
Q 384 513 384 1019 
Q 384 1609 779 1909 
Q 1175 2209 1959 2209 
L 2766 2209 
L 2766 2266 
Q 2766 2663 2505 2880 
Q 2244 3097 1772 3097 
Q 1472 3097 1187 3025 
Q 903 2953 641 2809 
L 641 3341 
Q 956 3463 1253 3523 
Q 1550 3584 1831 3584 
Q 2591 3584 2966 3190 
Q 3341 2797 3341 1997 
z
" transform="scale(0.015625)"/>
       <path id="DejaVuSans-73" d="M 2834 3397 
L 2834 2853 
Q 2591 2978 2328 3040 
Q 2066 3103 1784 3103 
Q 1356 3103 1142 2972 
Q 928 2841 928 2578 
Q 928 2378 1081 2264 
Q 1234 2150 1697 2047 
L 1894 2003 
Q 2506 1872 2764 1633 
Q 3022 1394 3022 966 
Q 3022 478 2636 193 
Q 2250 -91 1575 -91 
Q 1294 -91 989 -36 
Q 684 19 347 128 
L 347 722 
Q 666 556 975 473 
Q 1284 391 1588 391 
Q 1994 391 2212 530 
Q 2431 669 2431 922 
Q 2431 1156 2273 1281 
Q 2116 1406 1581 1522 
L 1381 1569 
Q 847 1681 609 1914 
Q 372 2147 372 2553 
Q 372 3047 722 3315 
Q 1072 3584 1716 3584 
Q 2034 3584 2315 3537 
Q 2597 3491 2834 3397 
z
" transform="scale(0.015625)"/>
       <path id="DejaVuSans-75" d="M 544 1381 
L 544 3500 
L 1119 3500 
L 1119 1403 
Q 1119 906 1312 657 
Q 1506 409 1894 409 
Q 2359 409 2629 706 
Q 2900 1003 2900 1516 
L 2900 3500 
L 3475 3500 
L 3475 0 
L 2900 0 
L 2900 538 
Q 2691 219 2414 64 
Q 2138 -91 1772 -91 
Q 1169 -91 856 284 
Q 544 659 544 1381 
z
M 1991 3584 
L 1991 3584 
z
" transform="scale(0.015625)"/>
       <path id="DejaVuSans-72" d="M 2631 2963 
Q 2534 3019 2420 3045 
Q 2306 3072 2169 3072 
Q 1681 3072 1420 2755 
Q 1159 2438 1159 1844 
L 1159 0 
L 581 0 
L 581 3500 
L 1159 3500 
L 1159 2956 
Q 1341 3275 1631 3429 
Q 1922 3584 2338 3584 
Q 2397 3584 2469 3576 
Q 2541 3569 2628 3553 
L 2631 2963 
z
" transform="scale(0.015625)"/>
       <path id="DejaVuSans-6e" d="M 3513 2113 
L 3513 0 
L 2938 0 
L 2938 2094 
Q 2938 2591 2744 2837 
Q 2550 3084 2163 3084 
Q 1697 3084 1428 2787 
Q 1159 2491 1159 1978 
L 1159 0 
L 581 0 
L 581 3500 
L 1159 3500 
L 1159 2956 
Q 1366 3272 1645 3428 
Q 1925 3584 2291 3584 
Q 2894 3584 3203 3211 
Q 3513 2838 3513 2113 
z
" transform="scale(0.015625)"/>
       <path id="DejaVuSans-74" d="M 1172 4494 
L 1172 3500 
L 2356 3500 
L 2356 3053 
L 1172 3053 
L 1172 1153 
Q 1172 725 1289 603 
Q 1406 481 1766 481 
L 2356 481 
L 2356 0 
L 1766 0 
Q 1100 0 847 248 
Q 594 497 594 1153 
L 594 3053 
L 172 3053 
L 172 3500 
L 594 3500 
L 594 4494 
L 1172 4494 
z
" transform="scale(0.015625)"/>
       <path id="DejaVuSans-20" transform="scale(0.015625)"/>
       <path id="DejaVuSans-23" d="M 3272 2816 
L 2363 2816 
L 2100 1772 
L 3016 1772 
L 3272 2816 
z
M 2803 4594 
L 2478 3297 
L 3391 3297 
L 3719 4594 
L 4219 4594 
L 3897 3297 
L 4872 3297 
L 4872 2816 
L 3775 2816 
L 3519 1772 
L 4513 1772 
L 4513 1294 
L 3397 1294 
L 3072 0 
L 2572 0 
L 2894 1294 
L 1978 1294 
L 1656 0 
L 1153 0 
L 1478 1294 
L 494 1294 
L 494 1772 
L 1594 1772 
L 1856 2816 
L 850 2816 
L 850 3297 
L 1978 3297 
L 2297 4594 
L 2803 4594 
z
" transform="scale(0.015625)"/>
      </defs>
      <use xlink:href="#DejaVuSans-6d"/>
      <use xlink:href="#DejaVuSans-65" x="97.412109"/>
      <use xlink:href="#DejaVuSans-61" x="158.935547"/>
      <use xlink:href="#DejaVuSans-73" x="220.214844"/>
      <use xlink:href="#DejaVuSans-75" x="272.314453"/>
      <use xlink:href="#DejaVuSans-72" x="335.693359"/>
      <use xlink:href="#DejaVuSans-65" x="374.556641"/>
      <use xlink:href="#DejaVuSans-6d" x="436.080078"/>
      <use xlink:href="#DejaVuSans-65" x="533.492188"/>
      <use xlink:href="#DejaVuSans-6e" x="595.015625"/>
      <use xlink:href="#DejaVuSans-74" x="658.394531"/>
      <use xlink:href="#DejaVuSans-20" x="697.603516"/>
      <use xlink:href="#DejaVuSans-23" x="729.390625"/>
     </g>
    </g>
   </g>
   <g id="matplotlib.axis_2">
    <g id="ytick_1">
     <g id="line2d_7">
      <defs>
       <path id="m51ea128023" d="M 0 0 
L -3.5 0 
" style="stroke: #000000; stroke-width: 0.8"/>
      </defs>
      <g>
       <use xlink:href="#m51ea128023" x="57.6" y="265.279731" style="stroke: #000000; stroke-width: 0.8"/>
      </g>
     </g>
     <g id="text_8">
      <!-- 200 -->
      <g transform="translate(31.5125 269.07895) scale(0.1 -0.1)">
       <use xlink:href="#DejaVuSans-32"/>
       <use xlink:href="#DejaVuSans-30" x="63.623047"/>
       <use xlink:href="#DejaVuSans-30" x="127.246094"/>
      </g>
     </g>
    </g>
    <g id="ytick_2">
     <g id="line2d_8">
      <g>
       <use xlink:href="#m51ea128023" x="57.6" y="214.509532" style="stroke: #000000; stroke-width: 0.8"/>
      </g>
     </g>
     <g id="text_9">
      <!-- 400 -->
      <g transform="translate(31.5125 218.308751) scale(0.1 -0.1)">
       <use xlink:href="#DejaVuSans-34"/>
       <use xlink:href="#DejaVuSans-30" x="63.623047"/>
       <use xlink:href="#DejaVuSans-30" x="127.246094"/>
      </g>
     </g>
    </g>
    <g id="ytick_3">
     <g id="line2d_9">
      <g>
       <use xlink:href="#m51ea128023" x="57.6" y="163.739333" style="stroke: #000000; stroke-width: 0.8"/>
      </g>
     </g>
     <g id="text_10">
      <!-- 600 -->
      <g transform="translate(31.5125 167.538551) scale(0.1 -0.1)">
       <defs>
        <path id="DejaVuSans-36" d="M 2113 2584 
Q 1688 2584 1439 2293 
Q 1191 2003 1191 1497 
Q 1191 994 1439 701 
Q 1688 409 2113 409 
Q 2538 409 2786 701 
Q 3034 994 3034 1497 
Q 3034 2003 2786 2293 
Q 2538 2584 2113 2584 
z
M 3366 4563 
L 3366 3988 
Q 3128 4100 2886 4159 
Q 2644 4219 2406 4219 
Q 1781 4219 1451 3797 
Q 1122 3375 1075 2522 
Q 1259 2794 1537 2939 
Q 1816 3084 2150 3084 
Q 2853 3084 3261 2657 
Q 3669 2231 3669 1497 
Q 3669 778 3244 343 
Q 2819 -91 2113 -91 
Q 1303 -91 875 529 
Q 447 1150 447 2328 
Q 447 3434 972 4092 
Q 1497 4750 2381 4750 
Q 2619 4750 2861 4703 
Q 3103 4656 3366 4563 
z
" transform="scale(0.015625)"/>
       </defs>
       <use xlink:href="#DejaVuSans-36"/>
       <use xlink:href="#DejaVuSans-30" x="63.623047"/>
       <use xlink:href="#DejaVuSans-30" x="127.246094"/>
      </g>
     </g>
    </g>
    <g id="ytick_4">
     <g id="line2d_10">
      <g>
       <use xlink:href="#m51ea128023" x="57.6" y="112.969133" style="stroke: #000000; stroke-width: 0.8"/>
      </g>
     </g>
     <g id="text_11">
      <!-- 800 -->
      <g transform="translate(31.5125 116.768352) scale(0.1 -0.1)">
       <defs>
        <path id="DejaVuSans-38" d="M 2034 2216 
Q 1584 2216 1326 1975 
Q 1069 1734 1069 1313 
Q 1069 891 1326 650 
Q 1584 409 2034 409 
Q 2484 409 2743 651 
Q 3003 894 3003 1313 
Q 3003 1734 2745 1975 
Q 2488 2216 2034 2216 
z
M 1403 2484 
Q 997 2584 770 2862 
Q 544 3141 544 3541 
Q 544 4100 942 4425 
Q 1341 4750 2034 4750 
Q 2731 4750 3128 4425 
Q 3525 4100 3525 3541 
Q 3525 3141 3298 2862 
Q 3072 2584 2669 2484 
Q 3125 2378 3379 2068 
Q 3634 1759 3634 1313 
Q 3634 634 3220 271 
Q 2806 -91 2034 -91 
Q 1263 -91 848 271 
Q 434 634 434 1313 
Q 434 1759 690 2068 
Q 947 2378 1403 2484 
z
M 1172 3481 
Q 1172 3119 1398 2916 
Q 1625 2713 2034 2713 
Q 2441 2713 2670 2916 
Q 2900 3119 2900 3481 
Q 2900 3844 2670 4047 
Q 2441 4250 2034 4250 
Q 1625 4250 1398 4047 
Q 1172 3844 1172 3481 
z
" transform="scale(0.015625)"/>
       </defs>
       <use xlink:href="#DejaVuSans-38"/>
       <use xlink:href="#DejaVuSans-30" x="63.623047"/>
       <use xlink:href="#DejaVuSans-30" x="127.246094"/>
      </g>
     </g>
    </g>
    <g id="ytick_5">
     <g id="line2d_11">
      <g>
       <use xlink:href="#m51ea128023" x="57.6" y="62.198934" style="stroke: #000000; stroke-width: 0.8"/>
      </g>
     </g>
     <g id="text_12">
      <!-- 1000 -->
      <g transform="translate(25.15 65.998153) scale(0.1 -0.1)">
       <use xlink:href="#DejaVuSans-31"/>
       <use xlink:href="#DejaVuSans-30" x="63.623047"/>
       <use xlink:href="#DejaVuSans-30" x="127.246094"/>
       <use xlink:href="#DejaVuSans-30" x="190.869141"/>
      </g>
     </g>
    </g>
    <g id="text_13">
     <!-- time -->
     <g transform="translate(19.070312 185.824094) rotate(-90) scale(0.1 -0.1)">
      <defs>
       <path id="DejaVuSans-69" d="M 603 3500 
L 1178 3500 
L 1178 0 
L 603 0 
L 603 3500 
z
M 603 4863 
L 1178 4863 
L 1178 4134 
L 603 4134 
L 603 4863 
z
" transform="scale(0.015625)"/>
      </defs>
      <use xlink:href="#DejaVuSans-74"/>
      <use xlink:href="#DejaVuSans-69" x="39.208984"/>
      <use xlink:href="#DejaVuSans-6d" x="66.992188"/>
      <use xlink:href="#DejaVuSans-65" x="164.404297"/>
     </g>
    </g>
   </g>
   <g id="line2d_12">
    <path d="M 73.832727 295.488 
L 82.21049 295.488 
L 82.340378 295.234149 
L 83.574312 295.234149 
L 83.899031 294.218745 
L 85.003078 294.218745 
L 85.068022 293.964894 
L 85.197909 289.141725 
L 85.327797 282.79545 
L 85.392741 282.79545 
L 85.522629 282.541599 
L 85.652517 281.272344 
L 86.107124 281.272344 
L 86.237012 280.510791 
L 86.301956 280.003089 
L 86.496787 230.502145 
L 86.951395 230.502145 
L 87.081282 230.248294 
L 88.445104 230.248294 
L 88.574992 229.994443 
L 91.562411 229.994443 
L 91.692299 229.740592 
L 94.549831 229.740592 
L 94.679718 229.486741 
L 96.433204 229.486741 
L 96.563092 229.23289 
L 98.381521 229.23289 
L 98.511408 228.979039 
L 102.018379 228.979039 
L 102.148267 228.725188 
L 106.564452 228.725188 
L 106.69434 228.471337 
L 108.837488 228.471337 
L 108.967376 228.217486 
L 111.630076 228.217486 
L 111.759964 227.963635 
L 115.396822 227.963635 
L 115.52671 227.709784 
L 120.397502 227.709784 
L 120.52739 227.455933 
L 126.826948 227.455933 
L 126.956836 227.202082 
L 129.814367 227.202082 
L 129.944255 226.948231 
L 133.646057 226.948231 
L 133.775945 226.69438 
L 139.296176 226.69438 
L 139.426064 226.440529 
L 147.154388 226.440529 
L 147.284276 226.186678 
L 150.986078 226.186678 
L 151.115966 225.932827 
L 152.804507 225.932827 
L 152.934395 225.678976 
L 154.622936 225.678976 
L 154.752824 225.425125 
L 158.454626 225.425125 
L 158.584514 225.171274 
L 162.805867 225.171274 
L 162.935755 224.917423 
L 165.273735 224.917423 
L 165.403623 224.663572 
L 167.481828 224.663572 
L 167.611716 224.409721 
L 171.443406 224.409721 
L 171.573294 224.15587 
L 175.01532 224.15587 
L 175.145208 223.902019 
L 176.833749 223.902019 
L 176.963637 223.648168 
L 177.288357 223.648168 
L 177.418244 223.394317 
L 177.807908 223.394317 
L 177.937796 223.140466 
L 180.145888 223.140466 
L 180.275776 222.886615 
L 184.691961 222.886615 
L 184.821849 222.632764 
L 191.381182 222.632764 
L 191.51107 222.378913 
L 199.434226 222.378913 
L 199.564114 222.125062 
L 204.694681 222.125062 
L 204.824569 221.871211 
L 211.059183 221.871211 
L 211.189071 221.61736 
L 220.67088 221.61736 
L 220.800768 221.363509 
L 232.360782 221.363509 
L 232.49067 221.109658 
L 241.582815 221.109658 
L 241.712703 220.855807 
L 245.869113 220.855807 
L 245.999001 220.601956 
L 249.116308 220.601956 
L 249.246195 220.348105 
L 254.441707 220.348105 
L 254.571595 220.094254 
L 257.364183 220.094254 
L 257.49407 219.840403 
L 260.611378 219.840403 
L 260.741265 219.586552 
L 263.793629 219.586552 
L 263.923516 219.332701 
L 267.040823 219.332701 
L 267.170711 219.07885 
L 268.274757 219.07885 
L 268.404645 218.824999 
L 272.885774 218.824999 
L 273.015662 218.571148 
L 279.445108 218.571148 
L 279.574996 218.317297 
L 287.563095 218.317297 
L 287.692983 218.063446 
L 290.615458 218.063446 
L 290.745346 217.809595 
L 291.914336 217.809595 
L 292.044224 217.555744 
L 295.616139 217.555744 
L 295.746026 217.301893 
L 300.81165 217.301893 
L 300.941538 217.048042 
L 304.708284 217.048042 
L 304.838172 216.794191 
L 307.760647 216.794191 
L 307.890535 216.54034 
L 310.877954 216.54034 
L 311.007842 216.286489 
L 314.514813 216.286489 
L 314.644701 216.032638 
L 316.852793 216.032638 
L 316.982681 215.778787 
L 318.606278 215.778787 
L 318.736166 215.524936 
L 319.320661 215.524936 
L 319.450549 215.271085 
L 320.749427 215.271085 
L 320.879315 215.017234 
L 322.892576 215.017234 
L 323.022463 214.763383 
L 326.659322 214.763383 
L 326.789209 214.509532 
L 331.854834 214.509532 
L 331.984721 214.255681 
L 335.881355 214.255681 
L 336.011243 214.00183 
L 338.933718 214.00183 
L 339.063606 213.747979 
L 342.570577 213.747979 
L 342.700464 213.494128 
L 348.350584 213.494128 
L 348.480471 213.240277 
L 356.858234 213.240277 
L 356.988122 212.986426 
L 360.235317 212.986426 
L 360.365205 212.732575 
L 361.664083 212.732575 
L 361.79397 212.478724 
L 362.378466 212.478724 
L 362.508353 212.224873 
L 363.937119 212.224873 
L 364.067007 211.971022 
L 365.106109 211.971022 
L 365.235997 211.717171 
L 365.62566 211.717171 
L 365.755548 211.46332 
L 366.340043 211.46332 
L 366.469931 211.209469 
L 366.859594 211.209469 
L 366.989482 210.955618 
L 367.11937 210.955618 
L 367.249258 210.701767 
L 367.509033 210.701767 
L 367.638921 210.447916 
L 367.898697 210.447916 
L 368.028585 210.194065 
L 368.158472 210.194065 
L 368.28836 209.940214 
L 368.483192 209.940214 
L 368.61308 209.686363 
L 368.807911 209.686363 
L 368.937799 209.432512 
L 369.197575 209.432512 
L 369.327463 209.178661 
L 369.717126 209.178661 
L 369.847014 208.92481 
L 370.106789 208.92481 
L 370.236677 208.670959 
L 370.626341 208.670959 
L 370.756228 208.417108 
L 371.080948 208.417108 
L 371.210836 208.163257 
L 371.470611 208.163257 
L 371.600499 207.909406 
L 371.925218 207.909406 
L 372.055106 207.655555 
L 372.249938 207.655555 
L 372.379826 207.147853 
L 372.44477 207.147853 
L 372.574657 206.894002 
L 372.704545 206.894002 
L 372.834433 206.640151 
L 373.029265 206.640151 
L 373.28904 205.878598 
L 373.61376 205.878598 
L 373.808592 205.370896 
L 374.068367 205.370896 
L 374.198255 205.117045 
L 374.458031 205.117045 
L 374.652862 204.609343 
L 374.78275 204.609343 
L 374.912638 204.355492 
L 375.107469 204.355492 
L 375.302301 203.84779 
L 375.367245 203.84779 
L 375.562077 202.832386 
L 375.691965 202.832386 
L 375.886796 202.324684 
L 375.95174 202.324684 
L 376.406347 200.801578 
L 376.601179 200.801578 
L 376.925899 199.786174 
L 377.055786 199.786174 
L 377.315562 199.024621 
L 377.380506 199.024621 
L 377.705225 197.755366 
L 377.900057 193.69375 
L 378.029945 193.439899 
L 378.094889 193.439899 
L 378.159833 193.186048 
L 378.419608 191.409091 
L 378.549496 191.409091 
L 378.679384 190.901389 
L 378.874216 189.124432 
L 379.004103 188.870581 
L 379.069047 188.870581 
L 379.393767 187.093624 
L 379.848374 185.570518 
L 379.913318 185.570518 
L 380.497813 183.53971 
L 380.562757 183.53971 
L 380.822533 182.778157 
L 380.887476 182.778157 
L 381.342084 181.255051 
L 381.407028 181.255051 
L 381.601859 180.493498 
L 381.731747 180.493498 
L 381.926579 178.716541 
L 382.12141 176.685733 
L 382.381186 174.147224 
L 382.44613 173.893373 
L 382.640962 168.816353 
L 382.705906 168.816353 
L 382.900737 167.547098 
L 382.965681 167.547098 
L 383.030625 167.293247 
L 383.225457 165.770141 
L 383.355345 165.770141 
L 383.61512 165.008588 
L 383.745008 165.008588 
L 384.004784 164.247035 
L 384.069727 164.247035 
L 384.264559 163.485482 
L 384.329503 163.485482 
L 384.524335 162.97778 
L 384.719166 162.97778 
L 384.913998 162.216227 
L 384.978942 162.216227 
L 385.173774 161.708525 
L 385.303661 161.708525 
L 385.433549 161.454674 
L 385.498493 161.454674 
L 385.693325 160.946972 
L 386.018044 160.946972 
L 386.147932 160.693121 
L 386.212876 160.693121 
L 386.342764 160.43927 
L 386.537596 160.43927 
L 386.732427 159.931568 
L 386.797371 159.931568 
L 386.927259 159.677717 
L 387.057147 159.677717 
L 387.187034 159.423866 
L 387.381866 159.423866 
L 387.511754 159.170015 
L 387.706586 159.170015 
L 387.966361 158.408462 
L 388.161193 158.408462 
L 388.291081 158.154611 
L 388.485912 158.154611 
L 388.6158 157.90076 
L 388.875576 157.90076 
L 389.070408 157.393058 
L 389.265239 157.393058 
L 389.395127 157.139207 
L 389.589959 157.139207 
L 389.719847 156.885356 
L 389.914678 156.885356 
L 390.044566 156.631505 
L 390.304342 156.631505 
L 390.434229 156.377654 
L 390.564117 156.377654 
L 390.823893 155.616101 
L 391.018724 155.616101 
L 391.148612 155.36225 
L 391.343444 155.36225 
L 391.473332 155.108399 
L 391.60322 155.108399 
L 391.927939 154.092995 
L 392.122771 154.092995 
L 392.382546 153.331442 
L 392.44749 153.331442 
L 392.577378 153.077591 
L 392.707266 153.077591 
L 393.226817 151.046783 
L 393.486593 148.000571 
L 393.551536 147.74672 
L 393.746368 144.700508 
L 393.9412 143.685104 
L 394.071088 143.685104 
L 394.265919 142.6697 
L 394.655583 141.400445 
L 394.850414 141.400445 
L 394.980302 140.892743 
L 395.175134 140.892743 
L 395.305022 140.638892 
L 395.369966 140.638892 
L 395.824573 139.115786 
L 395.954461 139.115786 
L 396.084349 138.861935 
L 396.149292 138.861935 
L 396.27918 138.608084 
L 396.344124 138.608084 
L 396.993563 136.323425 
L 397.123451 136.323425 
L 397.513114 135.05417 
L 397.578058 135.05417 
L 397.707946 134.800319 
L 397.77289 134.800319 
L 398.227497 133.277213 
L 398.292441 133.277213 
L 398.487273 129.97715 
L 398.487273 129.97715 
" clip-path="url(#p57175fd971)" style="fill: none; stroke: #1f77b4; stroke-width: 1.5; stroke-linecap: square"/>
   </g>
   <g id="line2d_13">
    <path d="M 73.832727 295.488 
L 85.003078 295.488 
L 85.132966 295.234149 
L 85.782404 295.234149 
L 85.977236 294.726447 
L 86.04218 294.726447 
L 86.172068 294.218745 
L 87.860609 294.218745 
L 87.990497 293.711043 
L 88.055441 290.918682 
L 88.185329 282.541599 
L 88.315216 282.541599 
L 88.445104 281.272344 
L 88.70488 281.272344 
L 88.769824 281.018493 
L 89.029599 276.195324 
L 89.289375 230.502145 
L 90.393421 230.502145 
L 90.523309 230.248294 
L 92.017019 230.248294 
L 92.146906 229.994443 
L 95.004438 229.994443 
L 95.134326 229.740592 
L 98.316577 229.740592 
L 98.446465 229.486741 
L 99.940174 229.486741 
L 100.070062 229.23289 
L 102.53793 229.23289 
L 102.667818 228.979039 
L 105.850069 228.979039 
L 105.979957 228.725188 
L 109.357039 228.725188 
L 109.486927 228.471337 
L 112.279515 228.471337 
L 112.409403 228.217486 
L 114.487607 228.217486 
L 114.617495 227.963635 
L 118.124466 227.963635 
L 118.254353 227.709784 
L 122.995258 227.709784 
L 123.125146 227.455933 
L 128.710321 227.455933 
L 128.840209 227.202082 
L 131.502909 227.202082 
L 131.632796 226.948231 
L 134.425384 226.948231 
L 134.555272 226.69438 
L 141.374381 226.69438 
L 141.504269 226.440529 
L 148.128546 226.440529 
L 148.258434 226.186678 
L 152.02518 226.186678 
L 152.155068 225.932827 
L 154.622936 225.932827 
L 154.752824 225.678976 
L 156.18159 225.678976 
L 156.311478 225.425125 
L 161.571933 225.425125 
L 161.701821 225.171274 
L 165.793287 225.171274 
L 165.923174 224.917423 
L 168.715762 224.917423 
L 168.84565 224.663572 
L 170.858911 224.663572 
L 170.988798 224.409721 
L 174.495769 224.409721 
L 174.625657 224.15587 
L 178.392403 224.15587 
L 178.522291 223.902019 
L 180.34072 223.902019 
L 180.470608 223.648168 
L 180.795327 223.648168 
L 180.925215 223.394317 
L 180.990159 223.394317 
L 181.120047 223.140466 
L 183.00342 223.140466 
L 183.133307 222.886615 
L 187.549492 222.886615 
L 187.67938 222.632764 
L 194.888153 222.632764 
L 195.018041 222.378913 
L 203.395804 222.378913 
L 203.525691 222.125062 
L 209.760306 222.125062 
L 209.890193 221.871211 
L 216.904134 221.871211 
L 217.034022 221.61736 
L 226.061224 221.61736 
L 226.191112 221.363509 
L 236.32236 221.363509 
L 236.452248 221.109658 
L 244.050684 221.109658 
L 244.180571 220.855807 
L 246.193832 220.855807 
L 246.32372 220.601956 
L 249.505971 220.601956 
L 249.635859 220.348105 
L 254.636539 220.348105 
L 254.766427 220.094254 
L 259.507331 220.094254 
L 259.637219 219.840403 
L 263.339021 219.840403 
L 263.468909 219.586552 
L 266.781048 219.586552 
L 266.910936 219.332701 
L 269.963299 219.332701 
L 270.093187 219.07885 
L 271.65184 219.07885 
L 271.781728 218.824999 
L 275.873194 218.824999 
L 276.003081 218.571148 
L 283.47163 218.571148 
L 283.601517 218.317297 
L 289.511412 218.317297 
L 289.6413 218.063446 
L 292.109168 218.063446 
L 292.239056 217.809595 
L 294.512092 217.809595 
L 294.64198 217.555744 
L 298.278838 217.555744 
L 298.408726 217.301893 
L 302.759967 217.301893 
L 302.889855 217.048042 
L 306.656601 217.048042 
L 306.786489 216.794191 
L 308.47503 216.794191 
L 308.604918 216.54034 
L 311.982001 216.54034 
L 312.111889 216.286489 
L 316.073466 216.286489 
L 316.203354 216.032638 
L 318.736166 216.032638 
L 318.866054 215.778787 
L 319.840212 215.778787 
L 319.9701 215.524936 
L 320.29482 215.524936 
L 320.424707 215.271085 
L 321.46381 215.271085 
L 321.593698 215.017234 
L 322.95752 215.017234 
L 323.087407 214.763383 
L 327.568536 214.763383 
L 327.698424 214.509532 
L 332.244497 214.509532 
L 332.374385 214.255681 
L 335.686523 214.255681 
L 335.816411 214.00183 
L 338.803831 214.00183 
L 338.933718 213.747979 
L 341.401586 213.747979 
L 341.531474 213.494128 
L 348.480471 213.494128 
L 348.610359 213.240277 
L 357.507673 213.240277 
L 357.637561 212.986426 
L 361.729027 212.986426 
L 361.858914 212.732575 
L 363.092848 212.732575 
L 363.222736 212.478724 
L 363.6124 212.478724 
L 363.742287 212.224873 
L 365.365885 212.224873 
L 365.495773 211.971022 
L 366.859594 211.971022 
L 366.989482 211.717171 
L 367.768809 211.717171 
L 367.898697 211.46332 
L 368.093529 211.46332 
L 368.28836 210.955618 
L 368.61308 210.955618 
L 368.742968 210.701767 
L 368.872855 210.701767 
L 369.002743 210.447916 
L 369.197575 210.447916 
L 369.392406 209.940214 
L 369.587238 209.940214 
L 369.717126 209.686363 
L 369.976902 209.686363 
L 370.106789 209.432512 
L 370.236677 209.432512 
L 370.366565 209.178661 
L 370.886116 209.178661 
L 371.080948 208.670959 
L 371.27578 208.670959 
L 371.405667 208.417108 
L 371.665443 208.417108 
L 371.860275 207.909406 
L 372.12005 207.909406 
L 372.249938 207.655555 
L 372.639601 207.655555 
L 372.834433 207.147853 
L 372.899377 207.147853 
L 373.029265 206.894002 
L 373.159153 206.894002 
L 373.28904 206.640151 
L 373.353984 206.640151 
L 373.483872 206.3863 
L 373.743648 206.3863 
L 373.938479 205.878598 
L 374.393087 205.878598 
L 374.522974 205.624747 
L 374.652862 205.624747 
L 374.847694 204.609343 
L 375.042526 204.609343 
L 375.172413 204.355492 
L 375.237357 204.355492 
L 375.367245 204.101641 
L 375.432189 204.101641 
L 375.562077 203.84779 
L 375.627021 203.84779 
L 375.821852 203.340088 
L 376.211516 203.340088 
L 376.471291 202.578535 
L 376.536235 202.578535 
L 376.731067 201.563131 
L 376.925899 200.801578 
L 377.12073 200.293876 
L 377.185674 200.293876 
L 377.315562 200.040025 
L 377.380506 200.040025 
L 377.640282 199.278472 
L 377.835113 196.739962 
L 378.28972 193.947601 
L 378.549496 192.678346 
L 378.679384 192.170644 
L 378.874216 192.170644 
L 379.133991 191.15524 
L 379.328823 189.632134 
L 379.848374 187.855177 
L 379.913318 187.855177 
L 380.043206 187.601326 
L 380.10815 187.601326 
L 380.302981 186.839773 
L 380.562757 186.07822 
L 380.627701 186.07822 
L 380.757589 185.316667 
L 381.017364 184.047412 
L 381.27714 183.032008 
L 381.471971 181.508902 
L 381.601859 181.508902 
L 381.926579 179.731945 
L 381.991523 179.731945 
L 382.381186 178.46269 
L 382.511074 178.46269 
L 382.705906 176.178031 
L 382.835793 172.624118 
L 382.900737 172.624118 
L 383.355345 166.785545 
L 383.61512 166.785545 
L 384.004784 165.51629 
L 384.134671 165.51629 
L 384.329503 164.754737 
L 384.394447 164.754737 
L 384.849054 163.231631 
L 384.913998 163.231631 
L 385.043886 162.97778 
L 385.173774 162.97778 
L 385.303661 162.723929 
L 385.368605 162.723929 
L 385.563437 161.962376 
L 385.9531 161.962376 
L 386.082988 161.708525 
L 386.27782 161.708525 
L 386.407708 161.454674 
L 386.537596 161.454674 
L 386.667483 161.200823 
L 386.732427 161.200823 
L 386.862315 160.946972 
L 386.927259 160.946972 
L 387.122091 160.43927 
L 387.316922 160.43927 
L 387.511754 159.931568 
L 387.706586 159.931568 
L 387.966361 159.170015 
L 388.096249 159.170015 
L 388.226137 158.916164 
L 388.485912 158.916164 
L 388.6158 158.662313 
L 388.875576 158.662313 
L 389.005464 158.408462 
L 389.265239 158.408462 
L 389.460071 157.90076 
L 389.654903 157.90076 
L 389.849734 157.393058 
L 390.044566 157.393058 
L 390.174454 157.139207 
L 390.434229 157.139207 
L 390.564117 156.631505 
L 390.758949 156.631505 
L 390.888837 156.377654 
L 391.083668 156.377654 
L 391.213556 156.123803 
L 391.2785 156.123803 
L 391.408388 155.869952 
L 391.473332 155.869952 
L 391.862995 154.600697 
L 391.992883 154.600697 
L 392.187715 154.092995 
L 392.317602 154.092995 
L 392.512434 153.585293 
L 392.642322 153.585293 
L 392.837154 152.82374 
L 393.096929 152.062187 
L 393.226817 152.062187 
L 393.421649 151.300634 
L 393.746368 149.777528 
L 393.811312 149.015975 
L 394.006144 144.954359 
L 394.071088 144.954359 
L 394.590639 143.177402 
L 394.720527 143.177402 
L 394.915358 142.6697 
L 394.980302 142.6697 
L 395.175134 142.161998 
L 395.240078 142.161998 
L 395.759629 140.385041 
L 395.824573 140.385041 
L 396.149292 139.369637 
L 396.214236 139.369637 
L 396.6039 138.100382 
L 396.668844 138.100382 
L 396.863675 137.59268 
L 396.928619 137.59268 
L 397.253339 135.815723 
L 397.318283 135.815723 
L 397.513114 135.308021 
L 397.578058 135.308021 
L 397.77289 133.531064 
L 398.097609 132.007958 
L 398.227497 130.738703 
L 398.357385 121.346216 
L 398.422329 103.322795 
L 398.487273 53.568 
L 398.487273 53.568 
" clip-path="url(#p57175fd971)" style="fill: none; stroke: #ff7f0e; stroke-width: 1.5; stroke-linecap: square"/>
   </g>
   <g id="patch_3">
    <path d="M 57.6 307.584 
L 57.6 41.472 
" style="fill: none; stroke: #000000; stroke-width: 0.8; stroke-linejoin: miter; stroke-linecap: square"/>
   </g>
   <g id="patch_4">
    <path d="M 414.72 307.584 
L 414.72 41.472 
" style="fill: none; stroke: #000000; stroke-width: 0.8; stroke-linejoin: miter; stroke-linecap: square"/>
   </g>
   <g id="patch_5">
    <path d="M 57.6 307.584 
L 414.72 307.584 
" style="fill: none; stroke: #000000; stroke-width: 0.8; stroke-linejoin: miter; stroke-linecap: square"/>
   </g>
   <g id="patch_6">
    <path d="M 57.6 41.472 
L 414.72 41.472 
" style="fill: none; stroke: #000000; stroke-width: 0.8; stroke-linejoin: miter; stroke-linecap: square"/>
   </g>
   <g id="text_14">
    <!-- pointer array pc-dependence test -->
    <g transform="translate(135.3525 35.472) scale(0.12 -0.12)">
     <defs>
      <path id="DejaVuSans-70" d="M 1159 525 
L 1159 -1331 
L 581 -1331 
L 581 3500 
L 1159 3500 
L 1159 2969 
Q 1341 3281 1617 3432 
Q 1894 3584 2278 3584 
Q 2916 3584 3314 3078 
Q 3713 2572 3713 1747 
Q 3713 922 3314 415 
Q 2916 -91 2278 -91 
Q 1894 -91 1617 61 
Q 1341 213 1159 525 
z
M 3116 1747 
Q 3116 2381 2855 2742 
Q 2594 3103 2138 3103 
Q 1681 3103 1420 2742 
Q 1159 2381 1159 1747 
Q 1159 1113 1420 752 
Q 1681 391 2138 391 
Q 2594 391 2855 752 
Q 3116 1113 3116 1747 
z
" transform="scale(0.015625)"/>
      <path id="DejaVuSans-6f" d="M 1959 3097 
Q 1497 3097 1228 2736 
Q 959 2375 959 1747 
Q 959 1119 1226 758 
Q 1494 397 1959 397 
Q 2419 397 2687 759 
Q 2956 1122 2956 1747 
Q 2956 2369 2687 2733 
Q 2419 3097 1959 3097 
z
M 1959 3584 
Q 2709 3584 3137 3096 
Q 3566 2609 3566 1747 
Q 3566 888 3137 398 
Q 2709 -91 1959 -91 
Q 1206 -91 779 398 
Q 353 888 353 1747 
Q 353 2609 779 3096 
Q 1206 3584 1959 3584 
z
" transform="scale(0.015625)"/>
      <path id="DejaVuSans-79" d="M 2059 -325 
Q 1816 -950 1584 -1140 
Q 1353 -1331 966 -1331 
L 506 -1331 
L 506 -850 
L 844 -850 
Q 1081 -850 1212 -737 
Q 1344 -625 1503 -206 
L 1606 56 
L 191 3500 
L 800 3500 
L 1894 763 
L 2988 3500 
L 3597 3500 
L 2059 -325 
z
" transform="scale(0.015625)"/>
      <path id="DejaVuSans-63" d="M 3122 3366 
L 3122 2828 
Q 2878 2963 2633 3030 
Q 2388 3097 2138 3097 
Q 1578 3097 1268 2742 
Q 959 2388 959 1747 
Q 959 1106 1268 751 
Q 1578 397 2138 397 
Q 2388 397 2633 464 
Q 2878 531 3122 666 
L 3122 134 
Q 2881 22 2623 -34 
Q 2366 -91 2075 -91 
Q 1284 -91 818 406 
Q 353 903 353 1747 
Q 353 2603 823 3093 
Q 1294 3584 2113 3584 
Q 2378 3584 2631 3529 
Q 2884 3475 3122 3366 
z
" transform="scale(0.015625)"/>
      <path id="DejaVuSans-2d" d="M 313 2009 
L 1997 2009 
L 1997 1497 
L 313 1497 
L 313 2009 
z
" transform="scale(0.015625)"/>
      <path id="DejaVuSans-64" d="M 2906 2969 
L 2906 4863 
L 3481 4863 
L 3481 0 
L 2906 0 
L 2906 525 
Q 2725 213 2448 61 
Q 2172 -91 1784 -91 
Q 1150 -91 751 415 
Q 353 922 353 1747 
Q 353 2572 751 3078 
Q 1150 3584 1784 3584 
Q 2172 3584 2448 3432 
Q 2725 3281 2906 2969 
z
M 947 1747 
Q 947 1113 1208 752 
Q 1469 391 1925 391 
Q 2381 391 2643 752 
Q 2906 1113 2906 1747 
Q 2906 2381 2643 2742 
Q 2381 3103 1925 3103 
Q 1469 3103 1208 2742 
Q 947 2381 947 1747 
z
" transform="scale(0.015625)"/>
     </defs>
     <use xlink:href="#DejaVuSans-70"/>
     <use xlink:href="#DejaVuSans-6f" x="63.476562"/>
     <use xlink:href="#DejaVuSans-69" x="124.658203"/>
     <use xlink:href="#DejaVuSans-6e" x="152.441406"/>
     <use xlink:href="#DejaVuSans-74" x="215.820312"/>
     <use xlink:href="#DejaVuSans-65" x="255.029297"/>
     <use xlink:href="#DejaVuSans-72" x="316.552734"/>
     <use xlink:href="#DejaVuSans-20" x="357.666016"/>
     <use xlink:href="#DejaVuSans-61" x="389.453125"/>
     <use xlink:href="#DejaVuSans-72" x="450.732422"/>
     <use xlink:href="#DejaVuSans-72" x="490.095703"/>
     <use xlink:href="#DejaVuSans-61" x="531.208984"/>
     <use xlink:href="#DejaVuSans-79" x="592.488281"/>
     <use xlink:href="#DejaVuSans-20" x="651.667969"/>
     <use xlink:href="#DejaVuSans-70" x="683.455078"/>
     <use xlink:href="#DejaVuSans-63" x="746.931641"/>
     <use xlink:href="#DejaVuSans-2d" x="801.912109"/>
     <use xlink:href="#DejaVuSans-64" x="837.996094"/>
     <use xlink:href="#DejaVuSans-65" x="901.472656"/>
     <use xlink:href="#DejaVuSans-70" x="962.996094"/>
     <use xlink:href="#DejaVuSans-65" x="1026.472656"/>
     <use xlink:href="#DejaVuSans-6e" x="1087.996094"/>
     <use xlink:href="#DejaVuSans-64" x="1151.375"/>
     <use xlink:href="#DejaVuSans-65" x="1214.851562"/>
     <use xlink:href="#DejaVuSans-6e" x="1276.375"/>
     <use xlink:href="#DejaVuSans-63" x="1339.753906"/>
     <use xlink:href="#DejaVuSans-65" x="1394.734375"/>
     <use xlink:href="#DejaVuSans-20" x="1456.257812"/>
     <use xlink:href="#DejaVuSans-74" x="1488.044922"/>
     <use xlink:href="#DejaVuSans-65" x="1527.253906"/>
     <use xlink:href="#DejaVuSans-73" x="1588.777344"/>
     <use xlink:href="#DejaVuSans-74" x="1640.876953"/>
    </g>
   </g>
   <g id="legend_1">
    <g id="patch_7">
     <path d="M 64.6 78.82825 
L 166.359375 78.82825 
Q 168.359375 78.82825 168.359375 76.82825 
L 168.359375 48.472 
Q 168.359375 46.472 166.359375 46.472 
L 64.6 46.472 
Q 62.6 46.472 62.6 48.472 
L 62.6 76.82825 
Q 62.6 78.82825 64.6 78.82825 
z
" style="fill: #ffffff; opacity: 0.8; stroke: #cccccc; stroke-linejoin: miter"/>
    </g>
    <g id="line2d_14">
     <path d="M 66.6 54.570437 
L 76.6 54.570437 
L 86.6 54.570437 
" style="fill: none; stroke: #1f77b4; stroke-width: 1.5; stroke-linecap: square"/>
    </g>
    <g id="text_15">
     <!-- measurement -->
     <g transform="translate(94.6 58.070437) scale(0.1 -0.1)">
      <use xlink:href="#DejaVuSans-6d"/>
      <use xlink:href="#DejaVuSans-65" x="97.412109"/>
      <use xlink:href="#DejaVuSans-61" x="158.935547"/>
      <use xlink:href="#DejaVuSans-73" x="220.214844"/>
      <use xlink:href="#DejaVuSans-75" x="272.314453"/>
      <use xlink:href="#DejaVuSans-72" x="335.693359"/>
      <use xlink:href="#DejaVuSans-65" x="374.556641"/>
      <use xlink:href="#DejaVuSans-6d" x="436.080078"/>
      <use xlink:href="#DejaVuSans-65" x="533.492188"/>
      <use xlink:href="#DejaVuSans-6e" x="595.015625"/>
      <use xlink:href="#DejaVuSans-74" x="658.394531"/>
     </g>
    </g>
    <g id="line2d_15">
     <path d="M 66.6 69.248562 
L 76.6 69.248562 
L 86.6 69.248562 
" style="fill: none; stroke: #ff7f0e; stroke-width: 1.5; stroke-linecap: square"/>
    </g>
    <g id="text_16">
     <!-- reference -->
     <g transform="translate(94.6 72.748562) scale(0.1 -0.1)">
      <defs>
       <path id="DejaVuSans-66" d="M 2375 4863 
L 2375 4384 
L 1825 4384 
Q 1516 4384 1395 4259 
Q 1275 4134 1275 3809 
L 1275 3500 
L 2222 3500 
L 2222 3053 
L 1275 3053 
L 1275 0 
L 697 0 
L 697 3053 
L 147 3053 
L 147 3500 
L 697 3500 
L 697 3744 
Q 697 4328 969 4595 
Q 1241 4863 1831 4863 
L 2375 4863 
z
" transform="scale(0.015625)"/>
      </defs>
      <use xlink:href="#DejaVuSans-72"/>
      <use xlink:href="#DejaVuSans-65" x="38.863281"/>
      <use xlink:href="#DejaVuSans-66" x="100.386719"/>
      <use xlink:href="#DejaVuSans-65" x="135.591797"/>
      <use xlink:href="#DejaVuSans-72" x="197.115234"/>
      <use xlink:href="#DejaVuSans-65" x="235.978516"/>
      <use xlink:href="#DejaVuSans-6e" x="297.501953"/>
      <use xlink:href="#DejaVuSans-63" x="360.880859"/>
      <use xlink:href="#DejaVuSans-65" x="415.861328"/>
     </g>
    </g>
   </g>
  </g>
 </g>
 <defs>
  <clipPath id="p57175fd971">
   <rect x="57.6" y="41.472" width="357.12" height="266.112"/>
  </clipPath>
 </defs>
</svg>
