<?xml version="1.0" encoding="utf-8" standalone="no"?>
<!DOCTYPE svg PUBLIC "-//W3C//DTD SVG 1.1//EN"
  "http://www.w3.org/Graphics/SVG/1.1/DTD/svg11.dtd">
<svg xmlns:xlink="http://www.w3.org/1999/xlink" width="460.8pt" height="345.6pt" viewBox="0 0 460.8 345.6" xmlns="http://www.w3.org/2000/svg" version="1.1">
 <metadata>
  <rdf:RDF xmlns:dc="http://purl.org/dc/elements/1.1/" xmlns:cc="http://creativecommons.org/ns#" xmlns:rdf="http://www.w3.org/1999/02/22-rdf-syntax-ns#">
   <cc:Work>
    <dc:type rdf:resource="http://purl.org/dc/dcmitype/StillImage"/>
    <dc:date>2024-10-04T16:13:10.759619</dc:date>
    <dc:format>image/svg+xml</dc:format>
    <dc:creator>
     <cc:Agent>
      <dc:title>Matplotlib v3.6.3, https://matplotlib.org/</dc:title>
     </cc:Agent>
    </dc:creator>
   </cc:Work>
  </rdf:RDF>
 </metadata>
 <defs>
  <style type="text/css">*{stroke-linejoin: round; stroke-linecap: butt}</style>
 </defs>
 <g id="figure_1">
  <g id="patch_1">
   <path d="M 0 345.6 
L 460.8 345.6 
L 460.8 0 
L 0 0 
z
" style="fill: #ffffff"/>
  </g>
  <g id="axes_1">
   <g id="patch_2">
    <path d="M 57.6 307.584 
L 414.72 307.584 
L 414.72 41.472 
L 57.6 41.472 
z
" style="fill: #ffffff"/>
   </g>
   <g id="matplotlib.axis_1">
    <g id="xtick_1">
     <g id="line2d_1">
      <defs>
       <path id="m52dbf8fc26" d="M 0 0 
L 0 3.5 
" style="stroke: #000000; stroke-width: 0.8"/>
      </defs>
      <g>
       <use xlink:href="#m52dbf8fc26" x="73.832727" y="307.584" style="stroke: #000000; stroke-width: 0.8"/>
      </g>
     </g>
     <g id="text_1">
      <!-- 0 -->
      <g transform="translate(70.651477 322.182437) scale(0.1 -0.1)">
       <defs>
        <path id="DejaVuSans-30" d="M 2034 4250 
Q 1547 4250 1301 3770 
Q 1056 3291 1056 2328 
Q 1056 1369 1301 889 
Q 1547 409 2034 409 
Q 2525 409 2770 889 
Q 3016 1369 3016 2328 
Q 3016 3291 2770 3770 
Q 2525 4250 2034 4250 
z
M 2034 4750 
Q 2819 4750 3233 4129 
Q 3647 3509 3647 2328 
Q 3647 1150 3233 529 
Q 2819 -91 2034 -91 
Q 1250 -91 836 529 
Q 422 1150 422 2328 
Q 422 3509 836 4129 
Q 1250 4750 2034 4750 
z
" transform="scale(0.015625)"/>
       </defs>
       <use xlink:href="#DejaVuSans-30"/>
      </g>
     </g>
    </g>
    <g id="xtick_2">
     <g id="line2d_2">
      <g>
       <use xlink:href="#m52dbf8fc26" x="138.776625" y="307.584" style="stroke: #000000; stroke-width: 0.8"/>
      </g>
     </g>
     <g id="text_2">
      <!-- 1000 -->
      <g transform="translate(126.051625 322.182437) scale(0.1 -0.1)">
       <defs>
        <path id="DejaVuSans-31" d="M 794 531 
L 1825 531 
L 1825 4091 
L 703 3866 
L 703 4441 
L 1819 4666 
L 2450 4666 
L 2450 531 
L 3481 531 
L 3481 0 
L 794 0 
L 794 531 
z
" transform="scale(0.015625)"/>
       </defs>
       <use xlink:href="#DejaVuSans-31"/>
       <use xlink:href="#DejaVuSans-30" x="63.623047"/>
       <use xlink:href="#DejaVuSans-30" x="127.246094"/>
       <use xlink:href="#DejaVuSans-30" x="190.869141"/>
      </g>
     </g>
    </g>
    <g id="xtick_3">
     <g id="line2d_3">
      <g>
       <use xlink:href="#m52dbf8fc26" x="203.720523" y="307.584" style="stroke: #000000; stroke-width: 0.8"/>
      </g>
     </g>
     <g id="text_3">
      <!-- 2000 -->
      <g transform="translate(190.995523 322.182437) scale(0.1 -0.1)">
       <defs>
        <path id="DejaVuSans-32" d="M 1228 531 
L 3431 531 
L 3431 0 
L 469 0 
L 469 531 
Q 828 903 1448 1529 
Q 2069 2156 2228 2338 
Q 2531 2678 2651 2914 
Q 2772 3150 2772 3378 
Q 2772 3750 2511 3984 
Q 2250 4219 1831 4219 
Q 1534 4219 1204 4116 
Q 875 4013 500 3803 
L 500 4441 
Q 881 4594 1212 4672 
Q 1544 4750 1819 4750 
Q 2544 4750 2975 4387 
Q 3406 4025 3406 3419 
Q 3406 3131 3298 2873 
Q 3191 2616 2906 2266 
Q 2828 2175 2409 1742 
Q 1991 1309 1228 531 
z
" transform="scale(0.015625)"/>
       </defs>
       <use xlink:href="#DejaVuSans-32"/>
       <use xlink:href="#DejaVuSans-30" x="63.623047"/>
       <use xlink:href="#DejaVuSans-30" x="127.246094"/>
       <use xlink:href="#DejaVuSans-30" x="190.869141"/>
      </g>
     </g>
    </g>
    <g id="xtick_4">
     <g id="line2d_4">
      <g>
       <use xlink:href="#m52dbf8fc26" x="268.664421" y="307.584" style="stroke: #000000; stroke-width: 0.8"/>
      </g>
     </g>
     <g id="text_4">
      <!-- 3000 -->
      <g transform="translate(255.939421 322.182437) scale(0.1 -0.1)">
       <defs>
        <path id="DejaVuSans-33" d="M 2597 2516 
Q 3050 2419 3304 2112 
Q 3559 1806 3559 1356 
Q 3559 666 3084 287 
Q 2609 -91 1734 -91 
Q 1441 -91 1130 -33 
Q 819 25 488 141 
L 488 750 
Q 750 597 1062 519 
Q 1375 441 1716 441 
Q 2309 441 2620 675 
Q 2931 909 2931 1356 
Q 2931 1769 2642 2001 
Q 2353 2234 1838 2234 
L 1294 2234 
L 1294 2753 
L 1863 2753 
Q 2328 2753 2575 2939 
Q 2822 3125 2822 3475 
Q 2822 3834 2567 4026 
Q 2313 4219 1838 4219 
Q 1578 4219 1281 4162 
Q 984 4106 628 3988 
L 628 4550 
Q 988 4650 1302 4700 
Q 1616 4750 1894 4750 
Q 2613 4750 3031 4423 
Q 3450 4097 3450 3541 
Q 3450 3153 3228 2886 
Q 3006 2619 2597 2516 
z
" transform="scale(0.015625)"/>
       </defs>
       <use xlink:href="#DejaVuSans-33"/>
       <use xlink:href="#DejaVuSans-30" x="63.623047"/>
       <use xlink:href="#DejaVuSans-30" x="127.246094"/>
       <use xlink:href="#DejaVuSans-30" x="190.869141"/>
      </g>
     </g>
    </g>
    <g id="xtick_5">
     <g id="line2d_5">
      <g>
       <use xlink:href="#m52dbf8fc26" x="333.608319" y="307.584" style="stroke: #000000; stroke-width: 0.8"/>
      </g>
     </g>
     <g id="text_5">
      <!-- 4000 -->
      <g transform="translate(320.883319 322.182437) scale(0.1 -0.1)">
       <defs>
        <path id="DejaVuSans-34" d="M 2419 4116 
L 825 1625 
L 2419 1625 
L 2419 4116 
z
M 2253 4666 
L 3047 4666 
L 3047 1625 
L 3713 1625 
L 3713 1100 
L 3047 1100 
L 3047 0 
L 2419 0 
L 2419 1100 
L 313 1100 
L 313 1709 
L 2253 4666 
z
" transform="scale(0.015625)"/>
       </defs>
       <use xlink:href="#DejaVuSans-34"/>
       <use xlink:href="#DejaVuSans-30" x="63.623047"/>
       <use xlink:href="#DejaVuSans-30" x="127.246094"/>
       <use xlink:href="#DejaVuSans-30" x="190.869141"/>
      </g>
     </g>
    </g>
    <g id="xtick_6">
     <g id="line2d_6">
      <g>
       <use xlink:href="#m52dbf8fc26" x="398.552217" y="307.584" style="stroke: #000000; stroke-width: 0.8"/>
      </g>
     </g>
     <g id="text_6">
      <!-- 5000 -->
      <g transform="translate(385.827217 322.182437) scale(0.1 -0.1)">
       <defs>
        <path id="DejaVuSans-35" d="M 691 4666 
L 3169 4666 
L 3169 4134 
L 1269 4134 
L 1269 2991 
Q 1406 3038 1543 3061 
Q 1681 3084 1819 3084 
Q 2600 3084 3056 2656 
Q 3513 2228 3513 1497 
Q 3513 744 3044 326 
Q 2575 -91 1722 -91 
Q 1428 -91 1123 -41 
Q 819 9 494 109 
L 494 744 
Q 775 591 1075 516 
Q 1375 441 1709 441 
Q 2250 441 2565 725 
Q 2881 1009 2881 1497 
Q 2881 1984 2565 2268 
Q 2250 2553 1709 2553 
Q 1456 2553 1204 2497 
Q 953 2441 691 2322 
L 691 4666 
z
" transform="scale(0.015625)"/>
       </defs>
       <use xlink:href="#DejaVuSans-35"/>
       <use xlink:href="#DejaVuSans-30" x="63.623047"/>
       <use xlink:href="#DejaVuSans-30" x="127.246094"/>
       <use xlink:href="#DejaVuSans-30" x="190.869141"/>
      </g>
     </g>
    </g>
    <g id="text_7">
     <!-- measurement # -->
     <g transform="translate(195.501406 335.860562) scale(0.1 -0.1)">
      <defs>
       <path id="DejaVuSans-6d" d="M 3328 2828 
Q 3544 3216 3844 3400 
Q 4144 3584 4550 3584 
Q 5097 3584 5394 3201 
Q 5691 2819 5691 2113 
L 5691 0 
L 5113 0 
L 5113 2094 
Q 5113 2597 4934 2840 
Q 4756 3084 4391 3084 
Q 3944 3084 3684 2787 
Q 3425 2491 3425 1978 
L 3425 0 
L 2847 0 
L 2847 2094 
Q 2847 2600 2669 2842 
Q 2491 3084 2119 3084 
Q 1678 3084 1418 2786 
Q 1159 2488 1159 1978 
L 1159 0 
L 581 0 
L 581 3500 
L 1159 3500 
L 1159 2956 
Q 1356 3278 1631 3431 
Q 1906 3584 2284 3584 
Q 2666 3584 2933 3390 
Q 3200 3197 3328 2828 
z
" transform="scale(0.015625)"/>
       <path id="DejaVuSans-65" d="M 3597 1894 
L 3597 1613 
L 953 1613 
Q 991 1019 1311 708 
Q 1631 397 2203 397 
Q 2534 397 2845 478 
Q 3156 559 3463 722 
L 3463 178 
Q 3153 47 2828 -22 
Q 2503 -91 2169 -91 
Q 1331 -91 842 396 
Q 353 884 353 1716 
Q 353 2575 817 3079 
Q 1281 3584 2069 3584 
Q 2775 3584 3186 3129 
Q 3597 2675 3597 1894 
z
M 3022 2063 
Q 3016 2534 2758 2815 
Q 2500 3097 2075 3097 
Q 1594 3097 1305 2825 
Q 1016 2553 972 2059 
L 3022 2063 
z
" transform="scale(0.015625)"/>
       <path id="DejaVuSans-61" d="M 2194 1759 
Q 1497 1759 1228 1600 
Q 959 1441 959 1056 
Q 959 750 1161 570 
Q 1363 391 1709 391 
Q 2188 391 2477 730 
Q 2766 1069 2766 1631 
L 2766 1759 
L 2194 1759 
z
M 3341 1997 
L 3341 0 
L 2766 0 
L 2766 531 
Q 2569 213 2275 61 
Q 1981 -91 1556 -91 
Q 1019 -91 701 211 
Q 384 513 384 1019 
Q 384 1609 779 1909 
Q 1175 2209 1959 2209 
L 2766 2209 
L 2766 2266 
Q 2766 2663 2505 2880 
Q 2244 3097 1772 3097 
Q 1472 3097 1187 3025 
Q 903 2953 641 2809 
L 641 3341 
Q 956 3463 1253 3523 
Q 1550 3584 1831 3584 
Q 2591 3584 2966 3190 
Q 3341 2797 3341 1997 
z
" transform="scale(0.015625)"/>
       <path id="DejaVuSans-73" d="M 2834 3397 
L 2834 2853 
Q 2591 2978 2328 3040 
Q 2066 3103 1784 3103 
Q 1356 3103 1142 2972 
Q 928 2841 928 2578 
Q 928 2378 1081 2264 
Q 1234 2150 1697 2047 
L 1894 2003 
Q 2506 1872 2764 1633 
Q 3022 1394 3022 966 
Q 3022 478 2636 193 
Q 2250 -91 1575 -91 
Q 1294 -91 989 -36 
Q 684 19 347 128 
L 347 722 
Q 666 556 975 473 
Q 1284 391 1588 391 
Q 1994 391 2212 530 
Q 2431 669 2431 922 
Q 2431 1156 2273 1281 
Q 2116 1406 1581 1522 
L 1381 1569 
Q 847 1681 609 1914 
Q 372 2147 372 2553 
Q 372 3047 722 3315 
Q 1072 3584 1716 3584 
Q 2034 3584 2315 3537 
Q 2597 3491 2834 3397 
z
" transform="scale(0.015625)"/>
       <path id="DejaVuSans-75" d="M 544 1381 
L 544 3500 
L 1119 3500 
L 1119 1403 
Q 1119 906 1312 657 
Q 1506 409 1894 409 
Q 2359 409 2629 706 
Q 2900 1003 2900 1516 
L 2900 3500 
L 3475 3500 
L 3475 0 
L 2900 0 
L 2900 538 
Q 2691 219 2414 64 
Q 2138 -91 1772 -91 
Q 1169 -91 856 284 
Q 544 659 544 1381 
z
M 1991 3584 
L 1991 3584 
z
" transform="scale(0.015625)"/>
       <path id="DejaVuSans-72" d="M 2631 2963 
Q 2534 3019 2420 3045 
Q 2306 3072 2169 3072 
Q 1681 3072 1420 2755 
Q 1159 2438 1159 1844 
L 1159 0 
L 581 0 
L 581 3500 
L 1159 3500 
L 1159 2956 
Q 1341 3275 1631 3429 
Q 1922 3584 2338 3584 
Q 2397 3584 2469 3576 
Q 2541 3569 2628 3553 
L 2631 2963 
z
" transform="scale(0.015625)"/>
       <path id="DejaVuSans-6e" d="M 3513 2113 
L 3513 0 
L 2938 0 
L 2938 2094 
Q 2938 2591 2744 2837 
Q 2550 3084 2163 3084 
Q 1697 3084 1428 2787 
Q 1159 2491 1159 1978 
L 1159 0 
L 581 0 
L 581 3500 
L 1159 3500 
L 1159 2956 
Q 1366 3272 1645 3428 
Q 1925 3584 2291 3584 
Q 2894 3584 3203 3211 
Q 3513 2838 3513 2113 
z
" transform="scale(0.015625)"/>
       <path id="DejaVuSans-74" d="M 1172 4494 
L 1172 3500 
L 2356 3500 
L 2356 3053 
L 1172 3053 
L 1172 1153 
Q 1172 725 1289 603 
Q 1406 481 1766 481 
L 2356 481 
L 2356 0 
L 1766 0 
Q 1100 0 847 248 
Q 594 497 594 1153 
L 594 3053 
L 172 3053 
L 172 3500 
L 594 3500 
L 594 4494 
L 1172 4494 
z
" transform="scale(0.015625)"/>
       <path id="DejaVuSans-20" transform="scale(0.015625)"/>
       <path id="DejaVuSans-23" d="M 3272 2816 
L 2363 2816 
L 2100 1772 
L 3016 1772 
L 3272 2816 
z
M 2803 4594 
L 2478 3297 
L 3391 3297 
L 3719 4594 
L 4219 4594 
L 3897 3297 
L 4872 3297 
L 4872 2816 
L 3775 2816 
L 3519 1772 
L 4513 1772 
L 4513 1294 
L 3397 1294 
L 3072 0 
L 2572 0 
L 2894 1294 
L 1978 1294 
L 1656 0 
L 1153 0 
L 1478 1294 
L 494 1294 
L 494 1772 
L 1594 1772 
L 1856 2816 
L 850 2816 
L 850 3297 
L 1978 3297 
L 2297 4594 
L 2803 4594 
z
" transform="scale(0.015625)"/>
      </defs>
      <use xlink:href="#DejaVuSans-6d"/>
      <use xlink:href="#DejaVuSans-65" x="97.412109"/>
      <use xlink:href="#DejaVuSans-61" x="158.935547"/>
      <use xlink:href="#DejaVuSans-73" x="220.214844"/>
      <use xlink:href="#DejaVuSans-75" x="272.314453"/>
      <use xlink:href="#DejaVuSans-72" x="335.693359"/>
      <use xlink:href="#DejaVuSans-65" x="374.556641"/>
      <use xlink:href="#DejaVuSans-6d" x="436.080078"/>
      <use xlink:href="#DejaVuSans-65" x="533.492188"/>
      <use xlink:href="#DejaVuSans-6e" x="595.015625"/>
      <use xlink:href="#DejaVuSans-74" x="658.394531"/>
      <use xlink:href="#DejaVuSans-20" x="697.603516"/>
      <use xlink:href="#DejaVuSans-23" x="729.390625"/>
     </g>
    </g>
   </g>
   <g id="matplotlib.axis_2">
    <g id="ytick_1">
     <g id="line2d_7">
      <defs>
       <path id="m2747add696" d="M 0 0 
L -3.5 0 
" style="stroke: #000000; stroke-width: 0.8"/>
      </defs>
      <g>
       <use xlink:href="#m2747add696" x="57.6" y="288.893337" style="stroke: #000000; stroke-width: 0.8"/>
      </g>
     </g>
     <g id="text_8">
      <!-- 100 -->
      <g transform="translate(31.5125 292.692556) scale(0.1 -0.1)">
       <use xlink:href="#DejaVuSans-31"/>
       <use xlink:href="#DejaVuSans-30" x="63.623047"/>
       <use xlink:href="#DejaVuSans-30" x="127.246094"/>
      </g>
     </g>
    </g>
    <g id="ytick_2">
     <g id="line2d_8">
      <g>
       <use xlink:href="#m2747add696" x="57.6" y="254.184585" style="stroke: #000000; stroke-width: 0.8"/>
      </g>
     </g>
     <g id="text_9">
      <!-- 200 -->
      <g transform="translate(31.5125 257.983804) scale(0.1 -0.1)">
       <use xlink:href="#DejaVuSans-32"/>
       <use xlink:href="#DejaVuSans-30" x="63.623047"/>
       <use xlink:href="#DejaVuSans-30" x="127.246094"/>
      </g>
     </g>
    </g>
    <g id="ytick_3">
     <g id="line2d_9">
      <g>
       <use xlink:href="#m2747add696" x="57.6" y="219.475834" style="stroke: #000000; stroke-width: 0.8"/>
      </g>
     </g>
     <g id="text_10">
      <!-- 300 -->
      <g transform="translate(31.5125 223.275052) scale(0.1 -0.1)">
       <use xlink:href="#DejaVuSans-33"/>
       <use xlink:href="#DejaVuSans-30" x="63.623047"/>
       <use xlink:href="#DejaVuSans-30" x="127.246094"/>
      </g>
     </g>
    </g>
    <g id="ytick_4">
     <g id="line2d_10">
      <g>
       <use xlink:href="#m2747add696" x="57.6" y="184.767082" style="stroke: #000000; stroke-width: 0.8"/>
      </g>
     </g>
     <g id="text_11">
      <!-- 400 -->
      <g transform="translate(31.5125 188.566301) scale(0.1 -0.1)">
       <use xlink:href="#DejaVuSans-34"/>
       <use xlink:href="#DejaVuSans-30" x="63.623047"/>
       <use xlink:href="#DejaVuSans-30" x="127.246094"/>
      </g>
     </g>
    </g>
    <g id="ytick_5">
     <g id="line2d_11">
      <g>
       <use xlink:href="#m2747add696" x="57.6" y="150.05833" style="stroke: #000000; stroke-width: 0.8"/>
      </g>
     </g>
     <g id="text_12">
      <!-- 500 -->
      <g transform="translate(31.5125 153.857549) scale(0.1 -0.1)">
       <use xlink:href="#DejaVuSans-35"/>
       <use xlink:href="#DejaVuSans-30" x="63.623047"/>
       <use xlink:href="#DejaVuSans-30" x="127.246094"/>
      </g>
     </g>
    </g>
    <g id="ytick_6">
     <g id="line2d_12">
      <g>
       <use xlink:href="#m2747add696" x="57.6" y="115.349578" style="stroke: #000000; stroke-width: 0.8"/>
      </g>
     </g>
     <g id="text_13">
      <!-- 600 -->
      <g transform="translate(31.5125 119.148797) scale(0.1 -0.1)">
       <defs>
        <path id="DejaVuSans-36" d="M 2113 2584 
Q 1688 2584 1439 2293 
Q 1191 2003 1191 1497 
Q 1191 994 1439 701 
Q 1688 409 2113 409 
Q 2538 409 2786 701 
Q 3034 994 3034 1497 
Q 3034 2003 2786 2293 
Q 2538 2584 2113 2584 
z
M 3366 4563 
L 3366 3988 
Q 3128 4100 2886 4159 
Q 2644 4219 2406 4219 
Q 1781 4219 1451 3797 
Q 1122 3375 1075 2522 
Q 1259 2794 1537 2939 
Q 1816 3084 2150 3084 
Q 2853 3084 3261 2657 
Q 3669 2231 3669 1497 
Q 3669 778 3244 343 
Q 2819 -91 2113 -91 
Q 1303 -91 875 529 
Q 447 1150 447 2328 
Q 447 3434 972 4092 
Q 1497 4750 2381 4750 
Q 2619 4750 2861 4703 
Q 3103 4656 3366 4563 
z
" transform="scale(0.015625)"/>
       </defs>
       <use xlink:href="#DejaVuSans-36"/>
       <use xlink:href="#DejaVuSans-30" x="63.623047"/>
       <use xlink:href="#DejaVuSans-30" x="127.246094"/>
      </g>
     </g>
    </g>
    <g id="ytick_7">
     <g id="line2d_13">
      <g>
       <use xlink:href="#m2747add696" x="57.6" y="80.640826" style="stroke: #000000; stroke-width: 0.8"/>
      </g>
     </g>
     <g id="text_14">
      <!-- 700 -->
      <g transform="translate(31.5125 84.440045) scale(0.1 -0.1)">
       <defs>
        <path id="DejaVuSans-37" d="M 525 4666 
L 3525 4666 
L 3525 4397 
L 1831 0 
L 1172 0 
L 2766 4134 
L 525 4134 
L 525 4666 
z
" transform="scale(0.015625)"/>
       </defs>
       <use xlink:href="#DejaVuSans-37"/>
       <use xlink:href="#DejaVuSans-30" x="63.623047"/>
       <use xlink:href="#DejaVuSans-30" x="127.246094"/>
      </g>
     </g>
    </g>
    <g id="ytick_8">
     <g id="line2d_14">
      <g>
       <use xlink:href="#m2747add696" x="57.6" y="45.932075" style="stroke: #000000; stroke-width: 0.8"/>
      </g>
     </g>
     <g id="text_15">
      <!-- 800 -->
      <g transform="translate(31.5125 49.731293) scale(0.1 -0.1)">
       <defs>
        <path id="DejaVuSans-38" d="M 2034 2216 
Q 1584 2216 1326 1975 
Q 1069 1734 1069 1313 
Q 1069 891 1326 650 
Q 1584 409 2034 409 
Q 2484 409 2743 651 
Q 3003 894 3003 1313 
Q 3003 1734 2745 1975 
Q 2488 2216 2034 2216 
z
M 1403 2484 
Q 997 2584 770 2862 
Q 544 3141 544 3541 
Q 544 4100 942 4425 
Q 1341 4750 2034 4750 
Q 2731 4750 3128 4425 
Q 3525 4100 3525 3541 
Q 3525 3141 3298 2862 
Q 3072 2584 2669 2484 
Q 3125 2378 3379 2068 
Q 3634 1759 3634 1313 
Q 3634 634 3220 271 
Q 2806 -91 2034 -91 
Q 1263 -91 848 271 
Q 434 634 434 1313 
Q 434 1759 690 2068 
Q 947 2378 1403 2484 
z
M 1172 3481 
Q 1172 3119 1398 2916 
Q 1625 2713 2034 2713 
Q 2441 2713 2670 2916 
Q 2900 3119 2900 3481 
Q 2900 3844 2670 4047 
Q 2441 4250 2034 4250 
Q 1625 4250 1398 4047 
Q 1172 3844 1172 3481 
z
" transform="scale(0.015625)"/>
       </defs>
       <use xlink:href="#DejaVuSans-38"/>
       <use xlink:href="#DejaVuSans-30" x="63.623047"/>
       <use xlink:href="#DejaVuSans-30" x="127.246094"/>
      </g>
     </g>
    </g>
    <g id="text_16">
     <!-- time -->
     <g transform="translate(25.432812 185.824094) rotate(-90) scale(0.1 -0.1)">
      <defs>
       <path id="DejaVuSans-69" d="M 603 3500 
L 1178 3500 
L 1178 0 
L 603 0 
L 603 3500 
z
M 603 4863 
L 1178 4863 
L 1178 4134 
L 603 4134 
L 603 4863 
z
" transform="scale(0.015625)"/>
      </defs>
      <use xlink:href="#DejaVuSans-74"/>
      <use xlink:href="#DejaVuSans-69" x="39.208984"/>
      <use xlink:href="#DejaVuSans-6d" x="66.992188"/>
      <use xlink:href="#DejaVuSans-65" x="164.404297"/>
     </g>
    </g>
   </g>
   <g id="line2d_15">
    <path d="M 73.832727 295.488 
L 82.405322 295.488 
L 82.53521 295.140912 
L 83.249592 295.140912 
L 83.37948 294.793825 
L 83.769144 294.793825 
L 83.899031 294.09965 
L 83.963975 294.09965 
L 84.093863 293.752562 
L 85.457685 293.752562 
L 85.522629 293.405475 
L 85.587573 292.364212 
L 85.847348 273.968574 
L 85.977236 272.580224 
L 86.04218 272.580224 
L 86.172068 272.233136 
L 86.3669 272.233136 
L 86.431843 270.497699 
L 86.496787 263.555948 
L 86.626675 206.633595 
L 87.146226 206.633595 
L 87.276114 206.286508 
L 88.639936 206.286508 
L 88.769824 205.93942 
L 91.36758 205.93942 
L 91.497467 205.592333 
L 93.445784 205.592333 
L 93.575672 205.245245 
L 95.004438 205.245245 
L 95.134326 204.898158 
L 96.757923 204.898158 
L 96.887811 204.55107 
L 100.135006 204.55107 
L 100.264894 204.203983 
L 104.03164 204.203983 
L 104.161528 203.856895 
L 105.979957 203.856895 
L 106.109845 203.509808 
L 107.733442 203.509808 
L 107.86333 203.16272 
L 110.915693 203.16272 
L 111.045581 202.815633 
L 117.150307 202.815633 
L 117.280195 202.468545 
L 122.995258 202.468545 
L 123.125146 202.121458 
L 125.657958 202.121458 
L 125.787846 201.77437 
L 128.840209 201.77437 
L 128.970097 201.427283 
L 134.944935 201.427283 
L 135.074823 201.080195 
L 141.439325 201.080195 
L 141.569213 200.733108 
L 145.85551 200.733108 
L 145.985398 200.38602 
L 148.063603 200.38602 
L 148.19349 200.038933 
L 150.791246 200.038933 
L 150.921134 199.691845 
L 154.557992 199.691845 
L 154.68788 199.344758 
L 158.84429 199.344758 
L 158.974177 198.99767 
L 160.85755 198.99767 
L 160.987438 198.650582 
L 162.805867 198.650582 
L 162.935755 198.303495 
L 166.962277 198.303495 
L 167.092165 197.956407 
L 170.079584 197.956407 
L 170.209472 197.60932 
L 171.703181 197.60932 
L 171.833069 197.262232 
L 172.157789 197.262232 
L 172.287676 196.915145 
L 172.547452 196.915145 
L 172.67734 196.568057 
L 173.976218 196.568057 
L 174.106106 196.22097 
L 179.366561 196.22097 
L 179.496449 195.873882 
L 186.315558 195.873882 
L 186.445446 195.526795 
L 193.00478 195.526795 
L 193.134668 195.179707 
L 198.914675 195.179707 
L 199.044562 194.83262 
L 206.123447 194.83262 
L 206.253335 194.485532 
L 213.527052 194.485532 
L 213.656939 194.138445 
L 222.294478 194.138445 
L 222.424366 193.791357 
L 229.113587 193.791357 
L 229.243475 193.44427 
L 232.295838 193.44427 
L 232.425726 193.097182 
L 234.763706 193.097182 
L 234.893594 192.750095 
L 239.699442 192.750095 
L 239.82933 192.403007 
L 243.855852 192.403007 
L 243.98574 192.05592 
L 246.583496 192.05592 
L 246.713383 191.708832 
L 249.570915 191.708832 
L 249.700803 191.361745 
L 253.077885 191.361745 
L 253.207773 191.014657 
L 254.896315 191.014657 
L 255.026202 190.66757 
L 258.533173 190.66757 
L 258.663061 190.320482 
L 265.092507 190.320482 
L 265.222394 189.973395 
L 271.392065 189.973395 
L 271.521952 189.626307 
L 274.444428 189.626307 
L 274.574316 189.27922 
L 276.132969 189.27922 
L 276.262857 188.932132 
L 279.510052 188.932132 
L 279.63994 188.585044 
L 284.250956 188.585044 
L 284.380844 188.237957 
L 288.14759 188.237957 
L 288.277478 187.890869 
L 289.771188 187.890869 
L 289.901075 187.543782 
L 292.888495 187.543782 
L 293.018383 187.196694 
L 296.200634 187.196694 
L 296.330521 186.849607 
L 298.603558 186.849607 
L 298.733446 186.502519 
L 299.96738 186.502519 
L 300.097267 186.155432 
L 300.551875 186.155432 
L 300.681763 185.808344 
L 301.720865 185.808344 
L 301.850753 185.461257 
L 304.318621 185.461257 
L 304.448509 185.114169 
L 308.215255 185.114169 
L 308.345142 184.767082 
L 312.891215 184.767082 
L 313.021103 184.419994 
L 316.46313 184.419994 
L 316.593018 184.072907 
L 318.151671 184.072907 
L 318.281559 183.725819 
L 320.749427 183.725819 
L 320.879315 183.378732 
L 328.932358 183.378732 
L 329.062246 183.031644 
L 337.829672 183.031644 
L 337.95956 182.684557 
L 341.856194 182.684557 
L 341.986082 182.337469 
L 343.155072 182.337469 
L 343.28496 181.990382 
L 344.324062 181.990382 
L 344.45395 181.643294 
L 346.012603 181.643294 
L 346.142491 181.296207 
L 347.96092 181.296207 
L 348.090808 180.949119 
L 349.000023 180.949119 
L 349.12991 180.602032 
L 349.844293 180.602032 
L 349.974181 180.254944 
L 350.363844 180.254944 
L 350.493732 179.907857 
L 350.883396 179.907857 
L 351.013283 179.560769 
L 351.467891 179.560769 
L 351.597778 179.213681 
L 352.182274 179.213681 
L 352.312161 178.866594 
L 353.026544 178.866594 
L 353.156432 178.519506 
L 354.45531 178.519506 
L 354.585198 178.172419 
L 355.169693 178.172419 
L 355.299581 177.825331 
L 355.819132 177.825331 
L 355.94902 177.478244 
L 356.598459 177.478244 
L 356.728346 177.131156 
L 357.053066 177.131156 
L 357.182954 176.784069 
L 357.96228 176.784069 
L 358.092168 176.436981 
L 358.611719 176.436981 
L 358.741607 176.089894 
L 359.391046 176.089894 
L 359.520934 175.742806 
L 360.170373 175.742806 
L 360.300261 175.395719 
L 360.560036 175.395719 
L 360.689924 175.048631 
L 361.274419 175.048631 
L 361.404307 174.701544 
L 362.248578 174.701544 
L 362.378466 174.354456 
L 362.703185 174.354456 
L 362.833073 174.007369 
L 363.157792 174.007369 
L 363.28768 173.660281 
L 363.807231 173.660281 
L 363.937119 173.313194 
L 364.391726 173.313194 
L 364.521614 172.966106 
L 364.716446 172.966106 
L 364.846334 172.619019 
L 365.235997 172.619019 
L 365.365885 172.271931 
L 365.755548 172.271931 
L 365.885436 171.924844 
L 366.145212 171.924844 
L 366.275099 171.577756 
L 366.859594 171.577756 
L 366.989482 171.230669 
L 367.44409 171.230669 
L 367.573977 170.883581 
L 367.833753 170.883581 
L 367.963641 170.536494 
L 368.028585 170.536494 
L 368.158472 170.189406 
L 368.28836 170.189406 
L 368.418248 169.842319 
L 369.002743 169.842319 
L 369.262519 168.801056 
L 369.45735 168.801056 
L 369.587238 168.453968 
L 369.911958 168.453968 
L 370.041845 168.106881 
L 370.236677 168.106881 
L 370.496453 167.065618 
L 370.821172 167.065618 
L 371.145892 165.677268 
L 371.27578 165.677268 
L 372.899377 157.347168 
L 372.964321 157.347168 
L 373.159153 156.652993 
L 373.28904 156.652993 
L 373.548816 154.917555 
L 373.61376 154.917555 
L 373.743648 153.876293 
L 373.808592 153.876293 
L 374.328143 151.099593 
L 374.522974 149.711242 
L 374.717806 149.711242 
L 375.172413 145.89328 
L 376.471291 138.951529 
L 376.731067 135.480654 
L 376.925899 134.439392 
L 376.990843 134.439392 
L 377.315562 132.009779 
L 377.380506 132.009779 
L 377.575338 130.968516 
L 377.900057 128.885991 
L 378.094889 127.844729 
L 378.159833 127.844729 
L 378.484552 126.456379 
L 378.549496 126.456379 
L 378.679384 124.373854 
L 378.874216 122.291329 
L 379.069047 120.902978 
L 379.263879 120.902978 
L 379.393767 120.555891 
L 379.523655 120.555891 
L 379.653542 120.208803 
L 379.718486 120.208803 
L 379.913318 118.473366 
L 380.302981 116.737928 
L 380.367925 116.737928 
L 380.562757 116.043753 
L 380.757589 116.043753 
L 380.95242 115.349578 
L 381.017364 115.349578 
L 381.212196 113.961228 
L 381.27714 113.961228 
L 381.471971 113.267053 
L 381.536915 113.267053 
L 381.666803 112.919966 
L 381.731747 112.919966 
L 381.926579 112.225791 
L 382.056467 112.225791 
L 382.186354 111.878703 
L 382.251298 111.878703 
L 382.381186 111.531615 
L 382.576018 111.531615 
L 382.770849 110.83744 
L 382.835793 110.83744 
L 382.965681 110.490353 
L 383.225457 110.490353 
L 383.355345 110.143265 
L 383.420288 110.143265 
L 383.61512 109.44909 
L 383.809952 109.44909 
L 383.93984 109.102003 
L 384.069727 109.102003 
L 384.199615 108.754915 
L 384.329503 108.754915 
L 384.589279 107.713653 
L 384.654222 107.713653 
L 384.913998 106.67239 
L 385.173774 106.67239 
L 385.368605 105.978215 
L 385.498493 105.978215 
L 385.693325 104.589865 
L 385.888157 103.89569 
L 386.018044 103.89569 
L 386.147932 103.548603 
L 386.27782 103.548603 
L 386.342764 103.201515 
L 386.602539 99.383552 
L 386.667483 99.383552 
L 386.797371 98.34229 
L 386.927259 94.871415 
L 387.057147 94.871415 
L 387.251978 92.78889 
L 387.316922 92.78889 
L 387.576698 91.053452 
L 388.161193 88.276752 
L 388.226137 88.276752 
L 388.420969 87.582577 
L 388.485912 87.582577 
L 388.6158 87.235489 
L 388.745688 87.235489 
L 388.94052 86.541314 
L 389.005464 86.541314 
L 389.200295 85.847139 
L 389.395127 85.847139 
L 389.525015 85.500052 
L 389.589959 85.500052 
L 389.849734 84.458789 
L 389.979622 84.458789 
L 390.10951 84.111702 
L 390.174454 84.111702 
L 390.304342 83.764614 
L 390.499173 83.764614 
L 390.629061 83.417527 
L 390.758949 83.417527 
L 390.888837 83.070439 
L 390.953781 83.070439 
L 391.148612 82.376264 
L 391.213556 82.376264 
L 391.408388 81.682089 
L 391.473332 81.682089 
L 391.60322 81.335001 
L 391.733107 81.335001 
L 391.862995 80.987914 
L 392.122771 80.987914 
L 392.252659 80.640826 
L 392.317602 80.640826 
L 392.44749 80.293739 
L 392.577378 80.293739 
L 392.707266 79.946651 
L 392.837154 79.946651 
L 392.967041 79.599564 
L 393.356705 79.599564 
L 393.486593 79.252476 
L 393.681424 79.252476 
L 393.811312 78.905389 
L 394.071088 78.905389 
L 394.200975 78.558301 
L 394.265919 78.558301 
L 394.395807 78.211214 
L 394.655583 78.211214 
L 394.785471 77.864126 
L 394.980302 77.864126 
L 395.11019 77.517039 
L 395.175134 77.517039 
L 395.305022 77.169951 
L 395.43491 77.169951 
L 395.564797 76.822864 
L 395.694685 76.822864 
L 395.824573 76.475776 
L 395.954461 76.475776 
L 396.149292 75.781601 
L 396.27918 75.781601 
L 396.409068 75.434514 
L 396.474012 75.434514 
L 396.6039 75.087426 
L 396.798731 75.087426 
L 396.928619 74.740339 
L 396.993563 74.740339 
L 397.188395 74.046164 
L 397.318283 74.046164 
L 397.578058 73.004901 
L 397.643002 73.004901 
L 397.77289 72.657813 
L 397.902778 69.881113 
L 398.227497 68.145676 
L 398.292441 66.757326 
L 398.487273 53.568 
L 398.487273 53.568 
" clip-path="url(#pc148db14aa)" style="fill: none; stroke: #1f77b4; stroke-width: 1.5; stroke-linecap: square"/>
   </g>
   <g id="line2d_16">
    <path d="M 73.832727 295.488 
L 83.444424 295.488 
L 83.574312 295.140912 
L 84.418583 295.140912 
L 84.54847 294.793825 
L 84.938134 294.793825 
L 85.132966 294.09965 
L 85.327797 294.09965 
L 85.457685 293.752562 
L 87.276114 293.752562 
L 87.470946 293.058387 
L 87.665778 272.233136 
L 87.730721 271.886049 
L 87.795665 270.844786 
L 87.925553 263.555948 
L 87.990497 263.208861 
L 88.055441 261.820511 
L 88.185329 206.633595 
L 88.899712 206.633595 
L 89.029599 206.286508 
L 90.588253 206.286508 
L 90.718141 205.93942 
L 93.835448 205.93942 
L 93.965336 205.592333 
L 96.433204 205.592333 
L 96.563092 205.245245 
L 98.186689 205.245245 
L 98.316577 204.898158 
L 99.940174 204.898158 
L 100.070062 204.55107 
L 102.927594 204.55107 
L 103.057481 204.203983 
L 106.954115 204.203983 
L 107.084003 203.856895 
L 108.642657 203.856895 
L 108.772544 203.509808 
L 110.720861 203.509808 
L 110.850749 203.16272 
L 114.812327 203.16272 
L 114.942215 202.815633 
L 120.20267 202.815633 
L 120.332558 202.468545 
L 125.268294 202.468545 
L 125.398182 202.121458 
L 127.995938 202.121458 
L 128.125826 201.77437 
L 131.437965 201.77437 
L 131.567852 201.427283 
L 137.867411 201.427283 
L 137.997298 201.080195 
L 144.166969 201.080195 
L 144.296856 200.733108 
L 149.297537 200.733108 
L 149.427424 200.38602 
L 151.440685 200.38602 
L 151.570573 200.038933 
L 152.934395 200.038933 
L 153.064283 199.691845 
L 155.921814 199.691845 
L 156.051702 199.344758 
L 159.169009 199.344758 
L 159.298897 198.99767 
L 161.052382 198.99767 
L 161.18227 198.650582 
L 163.130587 198.650582 
L 163.260475 198.303495 
L 166.50767 198.303495 
L 166.637557 197.956407 
L 170.01464 197.956407 
L 170.144528 197.60932 
L 171.768125 197.60932 
L 171.898013 197.262232 
L 172.287676 197.262232 
L 172.417564 196.915145 
L 172.937115 196.915145 
L 173.067003 196.568057 
L 174.690601 196.568057 
L 174.820488 196.22097 
L 178.652178 196.22097 
L 178.782066 195.873882 
L 184.17241 195.873882 
L 184.302298 195.526795 
L 191.51107 195.526795 
L 191.640958 195.179707 
L 196.706582 195.179707 
L 196.83647 194.83262 
L 202.421645 194.83262 
L 202.551533 194.485532 
L 210.409744 194.485532 
L 210.539632 194.138445 
L 219.112227 194.138445 
L 219.242115 193.791357 
L 226.126168 193.791357 
L 226.256056 193.44427 
L 229.048643 193.44427 
L 229.178531 193.097182 
L 231.841231 193.097182 
L 231.971119 192.750095 
L 236.192472 192.750095 
L 236.32236 192.403007 
L 239.959218 192.403007 
L 240.089106 192.05592 
L 243.011581 192.05592 
L 243.141469 191.708832 
L 247.297878 191.708832 
L 247.427766 191.361745 
L 250.999681 191.361745 
L 251.129568 191.014657 
L 252.49339 191.014657 
L 252.623278 190.66757 
L 256.974519 190.66757 
L 257.104407 190.320482 
L 265.417226 190.320482 
L 265.547114 189.973395 
L 272.041504 189.973395 
L 272.171391 189.626307 
L 274.639259 189.626307 
L 274.769147 189.27922 
L 276.65252 189.27922 
L 276.782408 188.932132 
L 279.63994 188.932132 
L 279.769827 188.585044 
L 284.770508 188.585044 
L 284.900395 188.237957 
L 288.797029 188.237957 
L 288.926917 187.890869 
L 291.329841 187.890869 
L 291.459729 187.543782 
L 294.317261 187.543782 
L 294.447148 187.196694 
L 298.019063 187.196694 
L 298.148951 186.849607 
L 301.13637 186.849607 
L 301.266258 186.502519 
L 302.695023 186.502519 
L 302.824911 186.155432 
L 303.409406 186.155432 
L 303.539294 185.808344 
L 304.383565 185.808344 
L 304.513453 185.461257 
L 307.241096 185.461257 
L 307.370984 185.114169 
L 311.267618 185.114169 
L 311.397506 184.767082 
L 315.229196 184.767082 
L 315.359083 184.419994 
L 318.606278 184.419994 
L 318.736166 184.072907 
L 321.074146 184.072907 
L 321.204034 183.725819 
L 323.866734 183.725819 
L 323.996622 183.378732 
L 331.010563 183.378732 
L 331.140451 183.031644 
L 337.894616 183.031644 
L 338.024504 182.684557 
L 343.220016 182.684557 
L 343.349903 182.337469 
L 344.648781 182.337469 
L 344.778669 181.990382 
L 345.687884 181.990382 
L 345.817772 181.643294 
L 348.28564 181.643294 
L 348.415527 181.296207 
L 350.363844 181.296207 
L 350.493732 180.949119 
L 351.597778 180.949119 
L 351.727666 180.602032 
L 352.506993 180.602032 
L 352.636881 180.254944 
L 353.221376 180.254944 
L 353.351264 179.907857 
L 353.675983 179.907857 
L 353.805871 179.560769 
L 354.650142 179.560769 
L 354.780029 179.213681 
L 355.429468 179.213681 
L 355.559356 178.866594 
L 356.143851 178.866594 
L 356.273739 178.519506 
L 356.598459 178.519506 
L 356.728346 178.172419 
L 357.312841 178.172419 
L 357.442729 177.825331 
L 357.96228 177.825331 
L 358.092168 177.478244 
L 359.001383 177.478244 
L 359.131271 177.131156 
L 359.975541 177.131156 
L 360.105429 176.784069 
L 360.560036 176.784069 
L 360.689924 176.436981 
L 361.144531 176.436981 
L 361.274419 176.089894 
L 361.923858 176.089894 
L 362.053746 175.742806 
L 362.378466 175.742806 
L 362.508353 175.395719 
L 362.833073 175.395719 
L 362.962961 175.048631 
L 363.157792 175.048631 
L 363.28768 174.701544 
L 363.937119 174.701544 
L 364.067007 174.354456 
L 364.391726 174.354456 
L 364.521614 174.007369 
L 365.365885 174.007369 
L 365.495773 173.660281 
L 365.560717 173.660281 
L 365.690604 173.313194 
L 366.275099 173.313194 
L 366.404987 172.966106 
L 366.534875 172.966106 
L 366.664763 172.619019 
L 367.054426 172.619019 
L 367.184314 172.271931 
L 367.44409 172.271931 
L 367.573977 171.924844 
L 368.093529 171.924844 
L 368.223416 171.577756 
L 368.418248 171.577756 
L 368.548136 171.230669 
L 369.132631 171.230669 
L 369.262519 170.883581 
L 369.652182 170.883581 
L 369.78207 170.536494 
L 370.041845 170.536494 
L 370.171733 170.189406 
L 370.431509 170.189406 
L 370.626341 169.495231 
L 370.886116 169.495231 
L 371.016004 169.148143 
L 371.145892 169.148143 
L 371.27578 168.801056 
L 371.405667 168.801056 
L 371.535555 168.453968 
L 371.860275 168.453968 
L 371.990162 168.106881 
L 372.055106 168.106881 
L 372.249938 167.412706 
L 372.44477 167.412706 
L 372.639601 166.718531 
L 372.704545 166.718531 
L 372.834433 166.371443 
L 372.899377 166.371443 
L 373.094209 165.330181 
L 373.224096 165.330181 
L 373.483872 164.288918 
L 373.548816 164.288918 
L 373.808592 163.247656 
L 373.873535 163.247656 
L 374.133311 162.206393 
L 374.198255 162.206393 
L 374.328143 161.859306 
L 374.458031 161.859306 
L 375.302301 157.694255 
L 375.367245 157.694255 
L 375.756908 154.22338 
L 375.886796 154.22338 
L 376.016684 153.529205 
L 376.27646 149.364155 
L 376.341404 149.364155 
L 376.731067 147.628717 
L 376.860955 147.628717 
L 377.12073 145.199105 
L 377.315562 143.810755 
L 377.380506 143.810755 
L 378.61444 137.563179 
L 378.679384 137.563179 
L 379.133991 134.786479 
L 379.328823 132.009779 
L 379.913318 129.233079 
L 379.978262 129.233079 
L 380.302981 127.844729 
L 380.367925 127.844729 
L 380.562757 126.456379 
L 380.627701 126.456379 
L 381.471971 122.291329 
L 381.536915 122.291329 
L 381.796691 120.555891 
L 382.640962 116.390841 
L 382.900737 116.390841 
L 383.225457 115.002491 
L 383.355345 115.002491 
L 383.550176 114.308316 
L 383.745008 114.308316 
L 384.004784 113.267053 
L 384.069727 113.267053 
L 384.329503 112.225791 
L 384.459391 112.225791 
L 384.654222 111.531615 
L 384.719166 111.531615 
L 384.849054 111.184528 
L 385.043886 111.184528 
L 385.238718 110.490353 
L 385.303661 110.490353 
L 385.498493 109.796178 
L 385.823213 109.796178 
L 385.9531 109.44909 
L 386.082988 109.44909 
L 386.27782 108.754915 
L 386.342764 108.754915 
L 386.472652 108.407828 
L 386.602539 108.407828 
L 386.732427 108.06074 
L 386.797371 108.06074 
L 387.316922 105.631128 
L 387.511754 105.631128 
L 387.706586 104.936953 
L 387.836473 104.936953 
L 387.966361 104.589865 
L 388.031305 104.589865 
L 388.161193 103.89569 
L 388.226137 103.89569 
L 388.356025 102.854428 
L 388.485912 102.854428 
L 389.005464 100.424815 
L 389.070408 100.424815 
L 389.460071 92.441802 
L 389.654903 91.400539 
L 389.849734 90.359277 
L 390.044566 88.276752 
L 390.10951 88.276752 
L 390.369285 87.235489 
L 390.434229 87.235489 
L 390.564117 86.888402 
L 390.629061 86.888402 
L 390.888837 85.847139 
L 391.148612 85.847139 
L 391.343444 85.152964 
L 391.862995 85.152964 
L 391.992883 84.805877 
L 392.057827 84.805877 
L 392.187715 84.458789 
L 392.382546 84.458789 
L 392.512434 84.111702 
L 392.577378 84.111702 
L 392.77221 83.417527 
L 392.902098 83.417527 
L 393.031985 83.070439 
L 393.161873 83.070439 
L 393.356705 82.376264 
L 393.681424 82.376264 
L 393.876256 81.682089 
L 394.071088 81.682089 
L 394.200975 81.335001 
L 394.265919 81.335001 
L 394.395807 80.987914 
L 394.460751 80.987914 
L 394.590639 80.640826 
L 394.655583 80.640826 
L 394.785471 80.293739 
L 394.850414 80.293739 
L 394.980302 79.946651 
L 395.175134 79.946651 
L 395.43491 78.905389 
L 395.499853 78.905389 
L 395.629741 78.558301 
L 395.759629 78.558301 
L 395.889517 78.211214 
L 395.954461 78.211214 
L 396.084349 77.864126 
L 396.344124 77.864126 
L 396.668844 76.475776 
L 396.733787 76.475776 
L 396.928619 75.781601 
L 397.123451 75.781601 
L 397.77289 72.657813 
L 397.837834 72.657813 
L 398.032665 71.269463 
L 398.097609 71.269463 
L 398.422329 68.492763 
L 398.487273 64.674801 
L 398.487273 64.674801 
" clip-path="url(#pc148db14aa)" style="fill: none; stroke: #ff7f0e; stroke-width: 1.5; stroke-linecap: square"/>
   </g>
   <g id="patch_3">
    <path d="M 57.6 307.584 
L 57.6 41.472 
" style="fill: none; stroke: #000000; stroke-width: 0.8; stroke-linejoin: miter; stroke-linecap: square"/>
   </g>
   <g id="patch_4">
    <path d="M 414.72 307.584 
L 414.72 41.472 
" style="fill: none; stroke: #000000; stroke-width: 0.8; stroke-linejoin: miter; stroke-linecap: square"/>
   </g>
   <g id="patch_5">
    <path d="M 57.6 307.584 
L 414.72 307.584 
" style="fill: none; stroke: #000000; stroke-width: 0.8; stroke-linejoin: miter; stroke-linecap: square"/>
   </g>
   <g id="patch_6">
    <path d="M 57.6 41.472 
L 414.72 41.472 
" style="fill: none; stroke: #000000; stroke-width: 0.8; stroke-linejoin: miter; stroke-linecap: square"/>
   </g>
   <g id="text_17">
    <!-- pointer array pc-dependence test (reference) -->
    <g transform="translate(100.119375 35.472) scale(0.12 -0.12)">
     <defs>
      <path id="DejaVuSans-70" d="M 1159 525 
L 1159 -1331 
L 581 -1331 
L 581 3500 
L 1159 3500 
L 1159 2969 
Q 1341 3281 1617 3432 
Q 1894 3584 2278 3584 
Q 2916 3584 3314 3078 
Q 3713 2572 3713 1747 
Q 3713 922 3314 415 
Q 2916 -91 2278 -91 
Q 1894 -91 1617 61 
Q 1341 213 1159 525 
z
M 3116 1747 
Q 3116 2381 2855 2742 
Q 2594 3103 2138 3103 
Q 1681 3103 1420 2742 
Q 1159 2381 1159 1747 
Q 1159 1113 1420 752 
Q 1681 391 2138 391 
Q 2594 391 2855 752 
Q 3116 1113 3116 1747 
z
" transform="scale(0.015625)"/>
      <path id="DejaVuSans-6f" d="M 1959 3097 
Q 1497 3097 1228 2736 
Q 959 2375 959 1747 
Q 959 1119 1226 758 
Q 1494 397 1959 397 
Q 2419 397 2687 759 
Q 2956 1122 2956 1747 
Q 2956 2369 2687 2733 
Q 2419 3097 1959 3097 
z
M 1959 3584 
Q 2709 3584 3137 3096 
Q 3566 2609 3566 1747 
Q 3566 888 3137 398 
Q 2709 -91 1959 -91 
Q 1206 -91 779 398 
Q 353 888 353 1747 
Q 353 2609 779 3096 
Q 1206 3584 1959 3584 
z
" transform="scale(0.015625)"/>
      <path id="DejaVuSans-79" d="M 2059 -325 
Q 1816 -950 1584 -1140 
Q 1353 -1331 966 -1331 
L 506 -1331 
L 506 -850 
L 844 -850 
Q 1081 -850 1212 -737 
Q 1344 -625 1503 -206 
L 1606 56 
L 191 3500 
L 800 3500 
L 1894 763 
L 2988 3500 
L 3597 3500 
L 2059 -325 
z
" transform="scale(0.015625)"/>
      <path id="DejaVuSans-63" d="M 3122 3366 
L 3122 2828 
Q 2878 2963 2633 3030 
Q 2388 3097 2138 3097 
Q 1578 3097 1268 2742 
Q 959 2388 959 1747 
Q 959 1106 1268 751 
Q 1578 397 2138 397 
Q 2388 397 2633 464 
Q 2878 531 3122 666 
L 3122 134 
Q 2881 22 2623 -34 
Q 2366 -91 2075 -91 
Q 1284 -91 818 406 
Q 353 903 353 1747 
Q 353 2603 823 3093 
Q 1294 3584 2113 3584 
Q 2378 3584 2631 3529 
Q 2884 3475 3122 3366 
z
" transform="scale(0.015625)"/>
      <path id="DejaVuSans-2d" d="M 313 2009 
L 1997 2009 
L 1997 1497 
L 313 1497 
L 313 2009 
z
" transform="scale(0.015625)"/>
      <path id="DejaVuSans-64" d="M 2906 2969 
L 2906 4863 
L 3481 4863 
L 3481 0 
L 2906 0 
L 2906 525 
Q 2725 213 2448 61 
Q 2172 -91 1784 -91 
Q 1150 -91 751 415 
Q 353 922 353 1747 
Q 353 2572 751 3078 
Q 1150 3584 1784 3584 
Q 2172 3584 2448 3432 
Q 2725 3281 2906 2969 
z
M 947 1747 
Q 947 1113 1208 752 
Q 1469 391 1925 391 
Q 2381 391 2643 752 
Q 2906 1113 2906 1747 
Q 2906 2381 2643 2742 
Q 2381 3103 1925 3103 
Q 1469 3103 1208 2742 
Q 947 2381 947 1747 
z
" transform="scale(0.015625)"/>
      <path id="DejaVuSans-28" d="M 1984 4856 
Q 1566 4138 1362 3434 
Q 1159 2731 1159 2009 
Q 1159 1288 1364 580 
Q 1569 -128 1984 -844 
L 1484 -844 
Q 1016 -109 783 600 
Q 550 1309 550 2009 
Q 550 2706 781 3412 
Q 1013 4119 1484 4856 
L 1984 4856 
z
" transform="scale(0.015625)"/>
      <path id="DejaVuSans-66" d="M 2375 4863 
L 2375 4384 
L 1825 4384 
Q 1516 4384 1395 4259 
Q 1275 4134 1275 3809 
L 1275 3500 
L 2222 3500 
L 2222 3053 
L 1275 3053 
L 1275 0 
L 697 0 
L 697 3053 
L 147 3053 
L 147 3500 
L 697 3500 
L 697 3744 
Q 697 4328 969 4595 
Q 1241 4863 1831 4863 
L 2375 4863 
z
" transform="scale(0.015625)"/>
      <path id="DejaVuSans-29" d="M 513 4856 
L 1013 4856 
Q 1481 4119 1714 3412 
Q 1947 2706 1947 2009 
Q 1947 1309 1714 600 
Q 1481 -109 1013 -844 
L 513 -844 
Q 928 -128 1133 580 
Q 1338 1288 1338 2009 
Q 1338 2731 1133 3434 
Q 928 4138 513 4856 
z
" transform="scale(0.015625)"/>
     </defs>
     <use xlink:href="#DejaVuSans-70"/>
     <use xlink:href="#DejaVuSans-6f" x="63.476562"/>
     <use xlink:href="#DejaVuSans-69" x="124.658203"/>
     <use xlink:href="#DejaVuSans-6e" x="152.441406"/>
     <use xlink:href="#DejaVuSans-74" x="215.820312"/>
     <use xlink:href="#DejaVuSans-65" x="255.029297"/>
     <use xlink:href="#DejaVuSans-72" x="316.552734"/>
     <use xlink:href="#DejaVuSans-20" x="357.666016"/>
     <use xlink:href="#DejaVuSans-61" x="389.453125"/>
     <use xlink:href="#DejaVuSans-72" x="450.732422"/>
     <use xlink:href="#DejaVuSans-72" x="490.095703"/>
     <use xlink:href="#DejaVuSans-61" x="531.208984"/>
     <use xlink:href="#DejaVuSans-79" x="592.488281"/>
     <use xlink:href="#DejaVuSans-20" x="651.667969"/>
     <use xlink:href="#DejaVuSans-70" x="683.455078"/>
     <use xlink:href="#DejaVuSans-63" x="746.931641"/>
     <use xlink:href="#DejaVuSans-2d" x="801.912109"/>
     <use xlink:href="#DejaVuSans-64" x="837.996094"/>
     <use xlink:href="#DejaVuSans-65" x="901.472656"/>
     <use xlink:href="#DejaVuSans-70" x="962.996094"/>
     <use xlink:href="#DejaVuSans-65" x="1026.472656"/>
     <use xlink:href="#DejaVuSans-6e" x="1087.996094"/>
     <use xlink:href="#DejaVuSans-64" x="1151.375"/>
     <use xlink:href="#DejaVuSans-65" x="1214.851562"/>
     <use xlink:href="#DejaVuSans-6e" x="1276.375"/>
     <use xlink:href="#DejaVuSans-63" x="1339.753906"/>
     <use xlink:href="#DejaVuSans-65" x="1394.734375"/>
     <use xlink:href="#DejaVuSans-20" x="1456.257812"/>
     <use xlink:href="#DejaVuSans-74" x="1488.044922"/>
     <use xlink:href="#DejaVuSans-65" x="1527.253906"/>
     <use xlink:href="#DejaVuSans-73" x="1588.777344"/>
     <use xlink:href="#DejaVuSans-74" x="1640.876953"/>
     <use xlink:href="#DejaVuSans-20" x="1680.085938"/>
     <use xlink:href="#DejaVuSans-28" x="1711.873047"/>
     <use xlink:href="#DejaVuSans-72" x="1750.886719"/>
     <use xlink:href="#DejaVuSans-65" x="1789.75"/>
     <use xlink:href="#DejaVuSans-66" x="1851.273438"/>
     <use xlink:href="#DejaVuSans-65" x="1886.478516"/>
     <use xlink:href="#DejaVuSans-72" x="1948.001953"/>
     <use xlink:href="#DejaVuSans-65" x="1986.865234"/>
     <use xlink:href="#DejaVuSans-6e" x="2048.388672"/>
     <use xlink:href="#DejaVuSans-63" x="2111.767578"/>
     <use xlink:href="#DejaVuSans-65" x="2166.748047"/>
     <use xlink:href="#DejaVuSans-29" x="2228.271484"/>
    </g>
   </g>
   <g id="legend_1">
    <g id="patch_7">
     <path d="M 64.6 78.82825 
L 166.359375 78.82825 
Q 168.359375 78.82825 168.359375 76.82825 
L 168.359375 48.472 
Q 168.359375 46.472 166.359375 46.472 
L 64.6 46.472 
Q 62.6 46.472 62.6 48.472 
L 62.6 76.82825 
Q 62.6 78.82825 64.6 78.82825 
z
" style="fill: #ffffff; opacity: 0.8; stroke: #cccccc; stroke-linejoin: miter"/>
    </g>
    <g id="line2d_17">
     <path d="M 66.6 54.570437 
L 76.6 54.570437 
L 86.6 54.570437 
" style="fill: none; stroke: #1f77b4; stroke-width: 1.5; stroke-linecap: square"/>
    </g>
    <g id="text_18">
     <!-- measurement -->
     <g transform="translate(94.6 58.070437) scale(0.1 -0.1)">
      <use xlink:href="#DejaVuSans-6d"/>
      <use xlink:href="#DejaVuSans-65" x="97.412109"/>
      <use xlink:href="#DejaVuSans-61" x="158.935547"/>
      <use xlink:href="#DejaVuSans-73" x="220.214844"/>
      <use xlink:href="#DejaVuSans-75" x="272.314453"/>
      <use xlink:href="#DejaVuSans-72" x="335.693359"/>
      <use xlink:href="#DejaVuSans-65" x="374.556641"/>
      <use xlink:href="#DejaVuSans-6d" x="436.080078"/>
      <use xlink:href="#DejaVuSans-65" x="533.492188"/>
      <use xlink:href="#DejaVuSans-6e" x="595.015625"/>
      <use xlink:href="#DejaVuSans-74" x="658.394531"/>
     </g>
    </g>
    <g id="line2d_18">
     <path d="M 66.6 69.248562 
L 76.6 69.248562 
L 86.6 69.248562 
" style="fill: none; stroke: #ff7f0e; stroke-width: 1.5; stroke-linecap: square"/>
    </g>
    <g id="text_19">
     <!-- reference -->
     <g transform="translate(94.6 72.748562) scale(0.1 -0.1)">
      <use xlink:href="#DejaVuSans-72"/>
      <use xlink:href="#DejaVuSans-65" x="38.863281"/>
      <use xlink:href="#DejaVuSans-66" x="100.386719"/>
      <use xlink:href="#DejaVuSans-65" x="135.591797"/>
      <use xlink:href="#DejaVuSans-72" x="197.115234"/>
      <use xlink:href="#DejaVuSans-65" x="235.978516"/>
      <use xlink:href="#DejaVuSans-6e" x="297.501953"/>
      <use xlink:href="#DejaVuSans-63" x="360.880859"/>
      <use xlink:href="#DejaVuSans-65" x="415.861328"/>
     </g>
    </g>
   </g>
  </g>
 </g>
 <defs>
  <clipPath id="pc148db14aa">
   <rect x="57.6" y="41.472" width="357.12" height="266.112"/>
  </clipPath>
 </defs>
</svg>
