<?xml version="1.0" encoding="utf-8" standalone="no"?>
<!DOCTYPE svg PUBLIC "-//W3C//DTD SVG 1.1//EN"
  "http://www.w3.org/Graphics/SVG/1.1/DTD/svg11.dtd">
<svg xmlns:xlink="http://www.w3.org/1999/xlink" width="460.8pt" height="345.6pt" viewBox="0 0 460.8 345.6" xmlns="http://www.w3.org/2000/svg" version="1.1">
 <metadata>
  <rdf:RDF xmlns:dc="http://purl.org/dc/elements/1.1/" xmlns:cc="http://creativecommons.org/ns#" xmlns:rdf="http://www.w3.org/1999/02/22-rdf-syntax-ns#">
   <cc:Work>
    <dc:type rdf:resource="http://purl.org/dc/dcmitype/StillImage"/>
    <dc:date>2024-10-04T16:13:10.884147</dc:date>
    <dc:format>image/svg+xml</dc:format>
    <dc:creator>
     <cc:Agent>
      <dc:title>Matplotlib v3.6.3, https://matplotlib.org/</dc:title>
     </cc:Agent>
    </dc:creator>
   </cc:Work>
  </rdf:RDF>
 </metadata>
 <defs>
  <style type="text/css">*{stroke-linejoin: round; stroke-linecap: butt}</style>
 </defs>
 <g id="figure_1">
  <g id="patch_1">
   <path d="M 0 345.6 
L 460.8 345.6 
L 460.8 0 
L 0 0 
z
" style="fill: #ffffff"/>
  </g>
  <g id="axes_1">
   <g id="patch_2">
    <path d="M 57.6 307.584 
L 414.72 307.584 
L 414.72 41.472 
L 57.6 41.472 
z
" style="fill: #ffffff"/>
   </g>
   <g id="matplotlib.axis_1">
    <g id="xtick_1">
     <g id="line2d_1">
      <defs>
       <path id="m8124337636" d="M 0 0 
L 0 3.5 
" style="stroke: #000000; stroke-width: 0.8"/>
      </defs>
      <g>
       <use xlink:href="#m8124337636" x="73.832727" y="307.584" style="stroke: #000000; stroke-width: 0.8"/>
      </g>
     </g>
     <g id="text_1">
      <!-- 0 -->
      <g transform="translate(70.651477 322.182437) scale(0.1 -0.1)">
       <defs>
        <path id="DejaVuSans-30" d="M 2034 4250 
Q 1547 4250 1301 3770 
Q 1056 3291 1056 2328 
Q 1056 1369 1301 889 
Q 1547 409 2034 409 
Q 2525 409 2770 889 
Q 3016 1369 3016 2328 
Q 3016 3291 2770 3770 
Q 2525 4250 2034 4250 
z
M 2034 4750 
Q 2819 4750 3233 4129 
Q 3647 3509 3647 2328 
Q 3647 1150 3233 529 
Q 2819 -91 2034 -91 
Q 1250 -91 836 529 
Q 422 1150 422 2328 
Q 422 3509 836 4129 
Q 1250 4750 2034 4750 
z
" transform="scale(0.015625)"/>
       </defs>
       <use xlink:href="#DejaVuSans-30"/>
      </g>
     </g>
    </g>
    <g id="xtick_2">
     <g id="line2d_2">
      <g>
       <use xlink:href="#m8124337636" x="138.776625" y="307.584" style="stroke: #000000; stroke-width: 0.8"/>
      </g>
     </g>
     <g id="text_2">
      <!-- 1000 -->
      <g transform="translate(126.051625 322.182437) scale(0.1 -0.1)">
       <defs>
        <path id="DejaVuSans-31" d="M 794 531 
L 1825 531 
L 1825 4091 
L 703 3866 
L 703 4441 
L 1819 4666 
L 2450 4666 
L 2450 531 
L 3481 531 
L 3481 0 
L 794 0 
L 794 531 
z
" transform="scale(0.015625)"/>
       </defs>
       <use xlink:href="#DejaVuSans-31"/>
       <use xlink:href="#DejaVuSans-30" x="63.623047"/>
       <use xlink:href="#DejaVuSans-30" x="127.246094"/>
       <use xlink:href="#DejaVuSans-30" x="190.869141"/>
      </g>
     </g>
    </g>
    <g id="xtick_3">
     <g id="line2d_3">
      <g>
       <use xlink:href="#m8124337636" x="203.720523" y="307.584" style="stroke: #000000; stroke-width: 0.8"/>
      </g>
     </g>
     <g id="text_3">
      <!-- 2000 -->
      <g transform="translate(190.995523 322.182437) scale(0.1 -0.1)">
       <defs>
        <path id="DejaVuSans-32" d="M 1228 531 
L 3431 531 
L 3431 0 
L 469 0 
L 469 531 
Q 828 903 1448 1529 
Q 2069 2156 2228 2338 
Q 2531 2678 2651 2914 
Q 2772 3150 2772 3378 
Q 2772 3750 2511 3984 
Q 2250 4219 1831 4219 
Q 1534 4219 1204 4116 
Q 875 4013 500 3803 
L 500 4441 
Q 881 4594 1212 4672 
Q 1544 4750 1819 4750 
Q 2544 4750 2975 4387 
Q 3406 4025 3406 3419 
Q 3406 3131 3298 2873 
Q 3191 2616 2906 2266 
Q 2828 2175 2409 1742 
Q 1991 1309 1228 531 
z
" transform="scale(0.015625)"/>
       </defs>
       <use xlink:href="#DejaVuSans-32"/>
       <use xlink:href="#DejaVuSans-30" x="63.623047"/>
       <use xlink:href="#DejaVuSans-30" x="127.246094"/>
       <use xlink:href="#DejaVuSans-30" x="190.869141"/>
      </g>
     </g>
    </g>
    <g id="xtick_4">
     <g id="line2d_4">
      <g>
       <use xlink:href="#m8124337636" x="268.664421" y="307.584" style="stroke: #000000; stroke-width: 0.8"/>
      </g>
     </g>
     <g id="text_4">
      <!-- 3000 -->
      <g transform="translate(255.939421 322.182437) scale(0.1 -0.1)">
       <defs>
        <path id="DejaVuSans-33" d="M 2597 2516 
Q 3050 2419 3304 2112 
Q 3559 1806 3559 1356 
Q 3559 666 3084 287 
Q 2609 -91 1734 -91 
Q 1441 -91 1130 -33 
Q 819 25 488 141 
L 488 750 
Q 750 597 1062 519 
Q 1375 441 1716 441 
Q 2309 441 2620 675 
Q 2931 909 2931 1356 
Q 2931 1769 2642 2001 
Q 2353 2234 1838 2234 
L 1294 2234 
L 1294 2753 
L 1863 2753 
Q 2328 2753 2575 2939 
Q 2822 3125 2822 3475 
Q 2822 3834 2567 4026 
Q 2313 4219 1838 4219 
Q 1578 4219 1281 4162 
Q 984 4106 628 3988 
L 628 4550 
Q 988 4650 1302 4700 
Q 1616 4750 1894 4750 
Q 2613 4750 3031 4423 
Q 3450 4097 3450 3541 
Q 3450 3153 3228 2886 
Q 3006 2619 2597 2516 
z
" transform="scale(0.015625)"/>
       </defs>
       <use xlink:href="#DejaVuSans-33"/>
       <use xlink:href="#DejaVuSans-30" x="63.623047"/>
       <use xlink:href="#DejaVuSans-30" x="127.246094"/>
       <use xlink:href="#DejaVuSans-30" x="190.869141"/>
      </g>
     </g>
    </g>
    <g id="xtick_5">
     <g id="line2d_5">
      <g>
       <use xlink:href="#m8124337636" x="333.608319" y="307.584" style="stroke: #000000; stroke-width: 0.8"/>
      </g>
     </g>
     <g id="text_5">
      <!-- 4000 -->
      <g transform="translate(320.883319 322.182437) scale(0.1 -0.1)">
       <defs>
        <path id="DejaVuSans-34" d="M 2419 4116 
L 825 1625 
L 2419 1625 
L 2419 4116 
z
M 2253 4666 
L 3047 4666 
L 3047 1625 
L 3713 1625 
L 3713 1100 
L 3047 1100 
L 3047 0 
L 2419 0 
L 2419 1100 
L 313 1100 
L 313 1709 
L 2253 4666 
z
" transform="scale(0.015625)"/>
       </defs>
       <use xlink:href="#DejaVuSans-34"/>
       <use xlink:href="#DejaVuSans-30" x="63.623047"/>
       <use xlink:href="#DejaVuSans-30" x="127.246094"/>
       <use xlink:href="#DejaVuSans-30" x="190.869141"/>
      </g>
     </g>
    </g>
    <g id="xtick_6">
     <g id="line2d_6">
      <g>
       <use xlink:href="#m8124337636" x="398.552217" y="307.584" style="stroke: #000000; stroke-width: 0.8"/>
      </g>
     </g>
     <g id="text_6">
      <!-- 5000 -->
      <g transform="translate(385.827217 322.182437) scale(0.1 -0.1)">
       <defs>
        <path id="DejaVuSans-35" d="M 691 4666 
L 3169 4666 
L 3169 4134 
L 1269 4134 
L 1269 2991 
Q 1406 3038 1543 3061 
Q 1681 3084 1819 3084 
Q 2600 3084 3056 2656 
Q 3513 2228 3513 1497 
Q 3513 744 3044 326 
Q 2575 -91 1722 -91 
Q 1428 -91 1123 -41 
Q 819 9 494 109 
L 494 744 
Q 775 591 1075 516 
Q 1375 441 1709 441 
Q 2250 441 2565 725 
Q 2881 1009 2881 1497 
Q 2881 1984 2565 2268 
Q 2250 2553 1709 2553 
Q 1456 2553 1204 2497 
Q 953 2441 691 2322 
L 691 4666 
z
" transform="scale(0.015625)"/>
       </defs>
       <use xlink:href="#DejaVuSans-35"/>
       <use xlink:href="#DejaVuSans-30" x="63.623047"/>
       <use xlink:href="#DejaVuSans-30" x="127.246094"/>
       <use xlink:href="#DejaVuSans-30" x="190.869141"/>
      </g>
     </g>
    </g>
    <g id="text_7">
     <!-- measurement # -->
     <g transform="translate(195.501406 335.860562) scale(0.1 -0.1)">
      <defs>
       <path id="DejaVuSans-6d" d="M 3328 2828 
Q 3544 3216 3844 3400 
Q 4144 3584 4550 3584 
Q 5097 3584 5394 3201 
Q 5691 2819 5691 2113 
L 5691 0 
L 5113 0 
L 5113 2094 
Q 5113 2597 4934 2840 
Q 4756 3084 4391 3084 
Q 3944 3084 3684 2787 
Q 3425 2491 3425 1978 
L 3425 0 
L 2847 0 
L 2847 2094 
Q 2847 2600 2669 2842 
Q 2491 3084 2119 3084 
Q 1678 3084 1418 2786 
Q 1159 2488 1159 1978 
L 1159 0 
L 581 0 
L 581 3500 
L 1159 3500 
L 1159 2956 
Q 1356 3278 1631 3431 
Q 1906 3584 2284 3584 
Q 2666 3584 2933 3390 
Q 3200 3197 3328 2828 
z
" transform="scale(0.015625)"/>
       <path id="DejaVuSans-65" d="M 3597 1894 
L 3597 1613 
L 953 1613 
Q 991 1019 1311 708 
Q 1631 397 2203 397 
Q 2534 397 2845 478 
Q 3156 559 3463 722 
L 3463 178 
Q 3153 47 2828 -22 
Q 2503 -91 2169 -91 
Q 1331 -91 842 396 
Q 353 884 353 1716 
Q 353 2575 817 3079 
Q 1281 3584 2069 3584 
Q 2775 3584 3186 3129 
Q 3597 2675 3597 1894 
z
M 3022 2063 
Q 3016 2534 2758 2815 
Q 2500 3097 2075 3097 
Q 1594 3097 1305 2825 
Q 1016 2553 972 2059 
L 3022 2063 
z
" transform="scale(0.015625)"/>
       <path id="DejaVuSans-61" d="M 2194 1759 
Q 1497 1759 1228 1600 
Q 959 1441 959 1056 
Q 959 750 1161 570 
Q 1363 391 1709 391 
Q 2188 391 2477 730 
Q 2766 1069 2766 1631 
L 2766 1759 
L 2194 1759 
z
M 3341 1997 
L 3341 0 
L 2766 0 
L 2766 531 
Q 2569 213 2275 61 
Q 1981 -91 1556 -91 
Q 1019 -91 701 211 
Q 384 513 384 1019 
Q 384 1609 779 1909 
Q 1175 2209 1959 2209 
L 2766 2209 
L 2766 2266 
Q 2766 2663 2505 2880 
Q 2244 3097 1772 3097 
Q 1472 3097 1187 3025 
Q 903 2953 641 2809 
L 641 3341 
Q 956 3463 1253 3523 
Q 1550 3584 1831 3584 
Q 2591 3584 2966 3190 
Q 3341 2797 3341 1997 
z
" transform="scale(0.015625)"/>
       <path id="DejaVuSans-73" d="M 2834 3397 
L 2834 2853 
Q 2591 2978 2328 3040 
Q 2066 3103 1784 3103 
Q 1356 3103 1142 2972 
Q 928 2841 928 2578 
Q 928 2378 1081 2264 
Q 1234 2150 1697 2047 
L 1894 2003 
Q 2506 1872 2764 1633 
Q 3022 1394 3022 966 
Q 3022 478 2636 193 
Q 2250 -91 1575 -91 
Q 1294 -91 989 -36 
Q 684 19 347 128 
L 347 722 
Q 666 556 975 473 
Q 1284 391 1588 391 
Q 1994 391 2212 530 
Q 2431 669 2431 922 
Q 2431 1156 2273 1281 
Q 2116 1406 1581 1522 
L 1381 1569 
Q 847 1681 609 1914 
Q 372 2147 372 2553 
Q 372 3047 722 3315 
Q 1072 3584 1716 3584 
Q 2034 3584 2315 3537 
Q 2597 3491 2834 3397 
z
" transform="scale(0.015625)"/>
       <path id="DejaVuSans-75" d="M 544 1381 
L 544 3500 
L 1119 3500 
L 1119 1403 
Q 1119 906 1312 657 
Q 1506 409 1894 409 
Q 2359 409 2629 706 
Q 2900 1003 2900 1516 
L 2900 3500 
L 3475 3500 
L 3475 0 
L 2900 0 
L 2900 538 
Q 2691 219 2414 64 
Q 2138 -91 1772 -91 
Q 1169 -91 856 284 
Q 544 659 544 1381 
z
M 1991 3584 
L 1991 3584 
z
" transform="scale(0.015625)"/>
       <path id="DejaVuSans-72" d="M 2631 2963 
Q 2534 3019 2420 3045 
Q 2306 3072 2169 3072 
Q 1681 3072 1420 2755 
Q 1159 2438 1159 1844 
L 1159 0 
L 581 0 
L 581 3500 
L 1159 3500 
L 1159 2956 
Q 1341 3275 1631 3429 
Q 1922 3584 2338 3584 
Q 2397 3584 2469 3576 
Q 2541 3569 2628 3553 
L 2631 2963 
z
" transform="scale(0.015625)"/>
       <path id="DejaVuSans-6e" d="M 3513 2113 
L 3513 0 
L 2938 0 
L 2938 2094 
Q 2938 2591 2744 2837 
Q 2550 3084 2163 3084 
Q 1697 3084 1428 2787 
Q 1159 2491 1159 1978 
L 1159 0 
L 581 0 
L 581 3500 
L 1159 3500 
L 1159 2956 
Q 1366 3272 1645 3428 
Q 1925 3584 2291 3584 
Q 2894 3584 3203 3211 
Q 3513 2838 3513 2113 
z
" transform="scale(0.015625)"/>
       <path id="DejaVuSans-74" d="M 1172 4494 
L 1172 3500 
L 2356 3500 
L 2356 3053 
L 1172 3053 
L 1172 1153 
Q 1172 725 1289 603 
Q 1406 481 1766 481 
L 2356 481 
L 2356 0 
L 1766 0 
Q 1100 0 847 248 
Q 594 497 594 1153 
L 594 3053 
L 172 3053 
L 172 3500 
L 594 3500 
L 594 4494 
L 1172 4494 
z
" transform="scale(0.015625)"/>
       <path id="DejaVuSans-20" transform="scale(0.015625)"/>
       <path id="DejaVuSans-23" d="M 3272 2816 
L 2363 2816 
L 2100 1772 
L 3016 1772 
L 3272 2816 
z
M 2803 4594 
L 2478 3297 
L 3391 3297 
L 3719 4594 
L 4219 4594 
L 3897 3297 
L 4872 3297 
L 4872 2816 
L 3775 2816 
L 3519 1772 
L 4513 1772 
L 4513 1294 
L 3397 1294 
L 3072 0 
L 2572 0 
L 2894 1294 
L 1978 1294 
L 1656 0 
L 1153 0 
L 1478 1294 
L 494 1294 
L 494 1772 
L 1594 1772 
L 1856 2816 
L 850 2816 
L 850 3297 
L 1978 3297 
L 2297 4594 
L 2803 4594 
z
" transform="scale(0.015625)"/>
      </defs>
      <use xlink:href="#DejaVuSans-6d"/>
      <use xlink:href="#DejaVuSans-65" x="97.412109"/>
      <use xlink:href="#DejaVuSans-61" x="158.935547"/>
      <use xlink:href="#DejaVuSans-73" x="220.214844"/>
      <use xlink:href="#DejaVuSans-75" x="272.314453"/>
      <use xlink:href="#DejaVuSans-72" x="335.693359"/>
      <use xlink:href="#DejaVuSans-65" x="374.556641"/>
      <use xlink:href="#DejaVuSans-6d" x="436.080078"/>
      <use xlink:href="#DejaVuSans-65" x="533.492188"/>
      <use xlink:href="#DejaVuSans-6e" x="595.015625"/>
      <use xlink:href="#DejaVuSans-74" x="658.394531"/>
      <use xlink:href="#DejaVuSans-20" x="697.603516"/>
      <use xlink:href="#DejaVuSans-23" x="729.390625"/>
     </g>
    </g>
   </g>
   <g id="matplotlib.axis_2">
    <g id="ytick_1">
     <g id="line2d_7">
      <defs>
       <path id="me567cd6c8a" d="M 0 0 
L -3.5 0 
" style="stroke: #000000; stroke-width: 0.8"/>
      </defs>
      <g>
       <use xlink:href="#me567cd6c8a" x="57.6" y="262.810951" style="stroke: #000000; stroke-width: 0.8"/>
      </g>
     </g>
     <g id="text_8">
      <!-- 200 -->
      <g transform="translate(31.5125 266.61017) scale(0.1 -0.1)">
       <use xlink:href="#DejaVuSans-32"/>
       <use xlink:href="#DejaVuSans-30" x="63.623047"/>
       <use xlink:href="#DejaVuSans-30" x="127.246094"/>
      </g>
     </g>
    </g>
    <g id="ytick_2">
     <g id="line2d_8">
      <g>
       <use xlink:href="#me567cd6c8a" x="57.6" y="207.891541" style="stroke: #000000; stroke-width: 0.8"/>
      </g>
     </g>
     <g id="text_9">
      <!-- 400 -->
      <g transform="translate(31.5125 211.69076) scale(0.1 -0.1)">
       <use xlink:href="#DejaVuSans-34"/>
       <use xlink:href="#DejaVuSans-30" x="63.623047"/>
       <use xlink:href="#DejaVuSans-30" x="127.246094"/>
      </g>
     </g>
    </g>
    <g id="ytick_3">
     <g id="line2d_9">
      <g>
       <use xlink:href="#me567cd6c8a" x="57.6" y="152.972132" style="stroke: #000000; stroke-width: 0.8"/>
      </g>
     </g>
     <g id="text_10">
      <!-- 600 -->
      <g transform="translate(31.5125 156.77135) scale(0.1 -0.1)">
       <defs>
        <path id="DejaVuSans-36" d="M 2113 2584 
Q 1688 2584 1439 2293 
Q 1191 2003 1191 1497 
Q 1191 994 1439 701 
Q 1688 409 2113 409 
Q 2538 409 2786 701 
Q 3034 994 3034 1497 
Q 3034 2003 2786 2293 
Q 2538 2584 2113 2584 
z
M 3366 4563 
L 3366 3988 
Q 3128 4100 2886 4159 
Q 2644 4219 2406 4219 
Q 1781 4219 1451 3797 
Q 1122 3375 1075 2522 
Q 1259 2794 1537 2939 
Q 1816 3084 2150 3084 
Q 2853 3084 3261 2657 
Q 3669 2231 3669 1497 
Q 3669 778 3244 343 
Q 2819 -91 2113 -91 
Q 1303 -91 875 529 
Q 447 1150 447 2328 
Q 447 3434 972 4092 
Q 1497 4750 2381 4750 
Q 2619 4750 2861 4703 
Q 3103 4656 3366 4563 
z
" transform="scale(0.015625)"/>
       </defs>
       <use xlink:href="#DejaVuSans-36"/>
       <use xlink:href="#DejaVuSans-30" x="63.623047"/>
       <use xlink:href="#DejaVuSans-30" x="127.246094"/>
      </g>
     </g>
    </g>
    <g id="ytick_4">
     <g id="line2d_10">
      <g>
       <use xlink:href="#me567cd6c8a" x="57.6" y="98.052722" style="stroke: #000000; stroke-width: 0.8"/>
      </g>
     </g>
     <g id="text_11">
      <!-- 800 -->
      <g transform="translate(31.5125 101.851941) scale(0.1 -0.1)">
       <defs>
        <path id="DejaVuSans-38" d="M 2034 2216 
Q 1584 2216 1326 1975 
Q 1069 1734 1069 1313 
Q 1069 891 1326 650 
Q 1584 409 2034 409 
Q 2484 409 2743 651 
Q 3003 894 3003 1313 
Q 3003 1734 2745 1975 
Q 2488 2216 2034 2216 
z
M 1403 2484 
Q 997 2584 770 2862 
Q 544 3141 544 3541 
Q 544 4100 942 4425 
Q 1341 4750 2034 4750 
Q 2731 4750 3128 4425 
Q 3525 4100 3525 3541 
Q 3525 3141 3298 2862 
Q 3072 2584 2669 2484 
Q 3125 2378 3379 2068 
Q 3634 1759 3634 1313 
Q 3634 634 3220 271 
Q 2806 -91 2034 -91 
Q 1263 -91 848 271 
Q 434 634 434 1313 
Q 434 1759 690 2068 
Q 947 2378 1403 2484 
z
M 1172 3481 
Q 1172 3119 1398 2916 
Q 1625 2713 2034 2713 
Q 2441 2713 2670 2916 
Q 2900 3119 2900 3481 
Q 2900 3844 2670 4047 
Q 2441 4250 2034 4250 
Q 1625 4250 1398 4047 
Q 1172 3844 1172 3481 
z
" transform="scale(0.015625)"/>
       </defs>
       <use xlink:href="#DejaVuSans-38"/>
       <use xlink:href="#DejaVuSans-30" x="63.623047"/>
       <use xlink:href="#DejaVuSans-30" x="127.246094"/>
      </g>
     </g>
    </g>
    <g id="ytick_5">
     <g id="line2d_11">
      <g>
       <use xlink:href="#me567cd6c8a" x="57.6" y="43.133312" style="stroke: #000000; stroke-width: 0.8"/>
      </g>
     </g>
     <g id="text_12">
      <!-- 1000 -->
      <g transform="translate(25.15 46.932531) scale(0.1 -0.1)">
       <use xlink:href="#DejaVuSans-31"/>
       <use xlink:href="#DejaVuSans-30" x="63.623047"/>
       <use xlink:href="#DejaVuSans-30" x="127.246094"/>
       <use xlink:href="#DejaVuSans-30" x="190.869141"/>
      </g>
     </g>
    </g>
    <g id="text_13">
     <!-- time -->
     <g transform="translate(19.070312 185.824094) rotate(-90) scale(0.1 -0.1)">
      <defs>
       <path id="DejaVuSans-69" d="M 603 3500 
L 1178 3500 
L 1178 0 
L 603 0 
L 603 3500 
z
M 603 4863 
L 1178 4863 
L 1178 4134 
L 603 4134 
L 603 4863 
z
" transform="scale(0.015625)"/>
      </defs>
      <use xlink:href="#DejaVuSans-74"/>
      <use xlink:href="#DejaVuSans-69" x="39.208984"/>
      <use xlink:href="#DejaVuSans-6d" x="66.992188"/>
      <use xlink:href="#DejaVuSans-65" x="164.404297"/>
     </g>
    </g>
   </g>
   <g id="line2d_12">
    <path d="M 73.832727 295.488 
L 85.068022 295.488 
L 85.197909 295.213403 
L 86.821507 295.213403 
L 87.016339 294.115015 
L 88.185329 294.115015 
L 88.250273 291.918238 
L 88.38016 275.99161 
L 88.445104 275.99161 
L 88.510048 275.717012 
L 88.769824 271.598057 
L 88.834768 271.32346 
L 88.964655 270.225072 
L 89.029599 269.950474 
L 89.159487 225.191156 
L 89.549151 225.191156 
L 89.679038 224.916558 
L 90.653197 224.916558 
L 90.783085 224.641961 
L 93.380841 224.641961 
L 93.510728 224.367364 
L 95.848709 224.367364 
L 95.978596 224.092767 
L 97.277474 224.092767 
L 97.407362 223.81817 
L 98.771184 223.81817 
L 98.901072 223.543573 
L 101.303996 223.543573 
L 101.433884 223.268976 
L 104.486247 223.268976 
L 104.616135 222.994379 
L 106.69434 222.994379 
L 106.824227 222.719782 
L 109.097264 222.719782 
L 109.227152 222.445185 
L 113.318617 222.445185 
L 113.448505 222.170588 
L 120.397502 222.170588 
L 120.52739 221.895991 
L 127.02178 221.895991 
L 127.151667 221.621394 
L 130.009199 221.621394 
L 130.139087 221.346797 
L 132.996618 221.346797 
L 133.126506 221.0722 
L 139.815728 221.0722 
L 139.945615 220.797603 
L 146.504949 220.797603 
L 146.634837 220.523006 
L 150.011919 220.523006 
L 150.141807 220.248409 
L 152.284956 220.248409 
L 152.414844 219.973812 
L 154.363161 219.973812 
L 154.493048 219.699215 
L 158.51957 219.699215 
L 158.649458 219.424617 
L 162.286316 219.424617 
L 162.416204 219.15002 
L 164.559353 219.15002 
L 164.68924 218.875423 
L 166.247894 218.875423 
L 166.377782 218.600826 
L 169.949696 218.600826 
L 170.079584 218.326229 
L 173.067003 218.326229 
L 173.196891 218.051632 
L 174.235993 218.051632 
L 174.365881 217.777035 
L 174.625657 217.777035 
L 174.820488 217.227841 
L 176.963637 217.227841 
L 177.093525 216.953244 
L 181.18499 216.953244 
L 181.314878 216.678647 
L 189.367922 216.678647 
L 189.497809 216.40405 
L 197.875572 216.40405 
L 198.00546 216.129453 
L 205.084345 216.129453 
L 205.214233 215.854856 
L 212.033342 215.854856 
L 212.16323 215.580259 
L 219.242115 215.580259 
L 219.372002 215.305662 
L 227.554934 215.305662 
L 227.684821 215.031065 
L 233.594716 215.031065 
L 233.724604 214.756468 
L 236.32236 214.756468 
L 236.452248 214.481871 
L 240.283938 214.481871 
L 240.413825 214.207274 
L 245.739225 214.207274 
L 245.869113 213.932677 
L 249.311139 213.932677 
L 249.441027 213.658079 
L 252.947998 213.658079 
L 253.077885 213.383482 
L 256.909575 213.383482 
L 257.039463 213.108885 
L 260.871153 213.108885 
L 261.001041 212.834288 
L 262.754526 212.834288 
L 262.884414 212.559691 
L 267.300599 212.559691 
L 267.430487 212.285094 
L 273.14555 212.285094 
L 273.275438 212.010497 
L 279.574996 212.010497 
L 279.704884 211.7359 
L 282.627359 211.7359 
L 282.757247 211.461303 
L 283.926237 211.461303 
L 284.056125 211.186706 
L 287.433207 211.186706 
L 287.563095 210.912109 
L 291.394785 210.912109 
L 291.524673 210.637512 
L 295.551195 210.637512 
L 295.681082 210.362915 
L 297.824231 210.362915 
L 297.954119 210.088318 
L 300.227155 210.088318 
L 300.357043 209.813721 
L 303.669182 209.813721 
L 303.79907 209.539124 
L 306.786489 209.539124 
L 306.916377 209.264527 
L 307.955479 209.264527 
L 308.085367 208.98993 
L 308.410086 208.98993 
L 308.539974 208.715333 
L 309.773908 208.715333 
L 309.903796 208.440736 
L 312.761328 208.440736 
L 312.891215 208.166138 
L 317.177513 208.166138 
L 317.3074 207.891541 
L 323.282239 207.891541 
L 323.412127 207.616944 
L 327.763368 207.616944 
L 327.893256 207.342347 
L 330.29618 207.342347 
L 330.426068 207.06775 
L 332.504272 207.06775 
L 332.63416 206.793153 
L 340.492372 206.793153 
L 340.62226 206.518556 
L 347.96092 206.518556 
L 348.090808 206.243959 
L 351.662722 206.243959 
L 351.79261 205.969362 
L 353.026544 205.969362 
L 353.156432 205.694765 
L 353.805871 205.694765 
L 353.935759 205.420168 
L 354.909917 205.420168 
L 355.039805 205.145571 
L 356.533515 205.145571 
L 356.663402 204.870974 
L 357.702505 204.870974 
L 357.832393 204.596377 
L 358.157112 204.596377 
L 358.287 204.32178 
L 358.546776 204.32178 
L 358.676663 204.047183 
L 358.806551 204.047183 
L 358.936439 203.772586 
L 359.001383 203.772586 
L 359.131271 203.497989 
L 359.391046 203.497989 
L 359.520934 203.223392 
L 359.78071 203.223392 
L 359.910597 202.948795 
L 360.170373 202.948795 
L 360.300261 202.674198 
L 360.430149 202.674198 
L 360.560036 202.3996 
L 360.819812 202.3996 
L 360.9497 202.125003 
L 361.729027 202.125003 
L 361.858914 201.850406 
L 361.923858 201.850406 
L 362.053746 201.575809 
L 362.11869 201.575809 
L 362.248578 201.301212 
L 362.768129 201.301212 
L 362.962961 200.752018 
L 363.157792 200.752018 
L 363.28768 200.477421 
L 363.482512 200.477421 
L 363.6124 200.202824 
L 363.807231 200.202824 
L 363.937119 199.928227 
L 364.261839 199.928227 
L 364.391726 199.65363 
L 364.45667 199.65363 
L 364.586558 199.379033 
L 364.651502 199.379033 
L 364.78139 199.104436 
L 364.846334 199.104436 
L 364.976221 198.829839 
L 365.041165 198.829839 
L 365.235997 198.280645 
L 365.430829 198.280645 
L 365.62566 197.456854 
L 365.755548 197.456854 
L 365.885436 197.182257 
L 365.95038 197.182257 
L 366.080268 196.907659 
L 366.210155 196.907659 
L 366.794651 194.710883 
L 366.859594 194.710883 
L 367.054426 194.161689 
L 367.11937 194.161689 
L 367.314202 192.23951 
L 367.638921 190.31733 
L 367.768809 190.31733 
L 368.093529 185.64918 
L 368.223416 185.64918 
L 368.678024 182.628613 
L 368.742968 182.354016 
L 369.002743 179.333448 
L 369.067687 179.333448 
L 370.106789 170.271746 
L 370.366565 166.427387 
L 370.561397 161.759237 
L 370.691284 158.189476 
L 370.756228 158.189476 
L 370.886116 157.365684 
L 371.016004 157.365684 
L 371.145892 157.091087 
L 371.210836 157.091087 
L 371.405667 156.541893 
L 371.535555 156.541893 
L 371.665443 156.267296 
L 371.730387 156.267296 
L 371.860275 155.992699 
L 371.990162 155.992699 
L 372.12005 155.718102 
L 372.184994 155.718102 
L 372.314882 155.443505 
L 372.379826 155.443505 
L 372.509714 155.168908 
L 372.704545 155.168908 
L 372.834433 154.894311 
L 372.964321 154.894311 
L 373.094209 154.619714 
L 373.28904 154.619714 
L 373.418928 154.345117 
L 373.61376 154.345117 
L 373.743648 154.07052 
L 373.873535 154.07052 
L 374.003423 153.795923 
L 374.133311 153.795923 
L 374.263199 153.521326 
L 374.393087 153.521326 
L 374.522974 153.246729 
L 374.847694 153.246729 
L 374.977582 152.972132 
L 375.302301 152.972132 
L 375.432189 152.697535 
L 375.691965 152.697535 
L 375.821852 152.422938 
L 376.27646 152.422938 
L 376.406347 152.148341 
L 376.666123 152.148341 
L 376.796011 151.873743 
L 377.12073 151.873743 
L 377.250618 151.599146 
L 377.770169 151.599146 
L 377.900057 151.324549 
L 378.159833 151.324549 
L 378.28972 151.049952 
L 378.484552 151.049952 
L 378.61444 150.775355 
L 378.874216 150.775355 
L 379.004103 150.500758 
L 379.653542 150.500758 
L 379.78343 150.226161 
L 380.562757 150.226161 
L 380.692645 149.951564 
L 381.147252 149.951564 
L 381.27714 149.676967 
L 381.536915 149.676967 
L 381.666803 149.40237 
L 381.731747 149.40237 
L 381.861635 149.127773 
L 382.381186 149.127773 
L 382.511074 148.853176 
L 383.030625 148.853176 
L 383.160513 148.578579 
L 383.290401 148.578579 
L 383.420288 148.303982 
L 383.93984 148.303982 
L 384.069727 148.029385 
L 384.78411 148.029385 
L 384.913998 147.754788 
L 385.303661 147.754788 
L 385.433549 147.480191 
L 385.758269 147.480191 
L 385.888157 147.205594 
L 386.472652 147.205594 
L 386.602539 146.930997 
L 387.057147 146.930997 
L 387.187034 146.381802 
L 387.44681 146.381802 
L 387.576698 146.107205 
L 387.966361 146.107205 
L 388.096249 145.832608 
L 388.291081 145.832608 
L 388.420969 145.558011 
L 388.550856 145.558011 
L 388.680744 145.283414 
L 388.94052 145.283414 
L 389.070408 145.008817 
L 389.200295 145.008817 
L 389.330183 144.73422 
L 389.78479 144.73422 
L 389.914678 144.459623 
L 390.304342 144.459623 
L 390.434229 144.185026 
L 390.499173 144.185026 
L 390.758949 143.361235 
L 390.823893 143.361235 
L 391.018724 142.812041 
L 391.148612 142.812041 
L 391.408388 141.98825 
L 391.473332 141.98825 
L 391.668163 141.439056 
L 391.733107 141.439056 
L 391.798051 141.164459 
L 391.927939 140.340667 
L 391.992883 140.340667 
L 392.252659 138.967682 
L 392.382546 138.418488 
L 392.44749 138.418488 
L 392.642322 136.496309 
L 392.77221 136.221712 
L 392.837154 136.221712 
L 392.902098 135.947115 
L 393.226817 133.201144 
L 393.421649 132.377353 
L 393.61648 131.828159 
L 393.811312 131.828159 
L 394.006144 131.004368 
L 394.136032 131.004368 
L 394.265919 130.729771 
L 394.460751 130.729771 
L 394.850414 129.356785 
L 395.045246 129.356785 
L 395.43491 127.9838 
L 395.499853 127.9838 
L 395.694685 127.434606 
L 395.824573 127.434606 
L 396.019405 126.885412 
L 396.084349 126.885412 
L 396.214236 126.610815 
L 396.474012 126.610815 
L 396.733787 125.787024 
L 396.863675 125.787024 
L 396.993563 125.512427 
L 397.123451 125.512427 
L 397.383226 124.688636 
L 397.44817 124.688636 
L 397.513114 124.414039 
L 397.707946 122.766456 
L 397.902778 122.217262 
L 397.967722 122.217262 
L 398.162553 121.668068 
L 398.292441 118.372904 
L 398.422329 114.253948 
L 398.487273 53.568 
L 398.487273 53.568 
" clip-path="url(#pa13b0f8eb5)" style="fill: none; stroke: #1f77b4; stroke-width: 1.5; stroke-linecap: square"/>
   </g>
   <g id="line2d_13">
    <path d="M 73.832727 295.488 
L 86.172068 295.488 
L 86.301956 295.213403 
L 87.665778 295.213403 
L 87.795665 294.938806 
L 88.055441 294.938806 
L 88.250273 294.389612 
L 88.315216 294.389612 
L 88.445104 294.115015 
L 89.938814 294.115015 
L 90.003758 293.840418 
L 90.068702 293.016627 
L 90.19859 275.99161 
L 90.263533 275.99161 
L 90.393421 275.717012 
L 90.458365 275.717012 
L 90.718141 271.598057 
L 90.783085 271.598057 
L 90.848029 271.32346 
L 90.977916 225.191156 
L 91.36758 225.191156 
L 91.497467 224.916558 
L 93.315897 224.916558 
L 93.445784 224.641961 
L 95.978596 224.641961 
L 96.108484 224.367364 
L 98.70624 224.367364 
L 98.836128 224.092767 
L 99.940174 224.092767 
L 100.070062 223.81817 
L 102.018379 223.81817 
L 102.148267 223.543573 
L 104.096584 223.543573 
L 104.226471 223.268976 
L 107.53861 223.268976 
L 107.668498 222.994379 
L 109.746703 222.994379 
L 109.876591 222.719782 
L 111.500188 222.719782 
L 111.630076 222.445185 
L 115.007159 222.445185 
L 115.137046 222.170588 
L 120.787165 222.170588 
L 120.917053 221.895991 
L 126.372341 221.895991 
L 126.502228 221.621394 
L 129.424704 221.621394 
L 129.554592 221.346797 
L 132.606955 221.346797 
L 132.736843 221.0722 
L 137.672579 221.0722 
L 137.802467 220.797603 
L 144.102025 220.797603 
L 144.231913 220.523006 
L 147.544051 220.523006 
L 147.673939 220.248409 
L 150.271695 220.248409 
L 150.401583 219.973812 
L 151.960236 219.973812 
L 152.090124 219.699215 
L 156.441365 219.699215 
L 156.571253 219.424617 
L 159.883392 219.424617 
L 160.01328 219.15002 
L 162.221372 219.15002 
L 162.35126 218.875423 
L 164.169689 218.875423 
L 164.299577 218.600826 
L 166.767445 218.600826 
L 166.897333 218.326229 
L 169.754864 218.326229 
L 169.884752 218.051632 
L 171.313518 218.051632 
L 171.443406 217.777035 
L 171.768125 217.777035 
L 171.898013 217.502438 
L 171.962957 217.502438 
L 172.092845 217.227841 
L 174.495769 217.227841 
L 174.625657 216.953244 
L 178.911954 216.953244 
L 179.041842 216.678647 
L 185.3414 216.678647 
L 185.471288 216.40405 
L 196.122087 216.40405 
L 196.251975 216.129453 
L 201.707262 216.129453 
L 201.83715 215.854856 
L 208.201652 215.854856 
L 208.33154 215.580259 
L 216.83919 215.580259 
L 216.969078 215.305662 
L 225.606617 215.305662 
L 225.736504 215.031065 
L 231.516511 215.031065 
L 231.646399 214.756468 
L 234.049323 214.756468 
L 234.179211 214.481871 
L 238.270677 214.481871 
L 238.400564 214.207274 
L 243.011581 214.207274 
L 243.141469 213.932677 
L 247.49271 213.932677 
L 247.622598 213.658079 
L 250.674961 213.658079 
L 250.804849 213.383482 
L 254.181932 213.383482 
L 254.311819 213.108885 
L 258.208453 213.108885 
L 258.338341 212.834288 
L 260.221714 212.834288 
L 260.351602 212.559691 
L 264.053404 212.559691 
L 264.183292 212.285094 
L 270.612738 212.285094 
L 270.742626 212.010497 
L 277.431847 212.010497 
L 277.561735 211.7359 
L 279.899715 211.7359 
L 280.029603 211.461303 
L 282.107808 211.461303 
L 282.237696 211.186706 
L 285.80961 211.186706 
L 285.939498 210.912109 
L 290.745346 210.912109 
L 290.875234 210.637512 
L 295.096587 210.637512 
L 295.226475 210.362915 
L 296.590297 210.362915 
L 296.720185 210.088318 
L 299.447828 210.088318 
L 299.577716 209.813721 
L 301.850753 209.813721 
L 301.98064 209.539124 
L 304.64334 209.539124 
L 304.773228 209.264527 
L 305.617499 209.264527 
L 305.747387 208.98993 
L 306.072106 208.98993 
L 306.201994 208.715333 
L 307.63076 208.715333 
L 307.760647 208.440736 
L 310.488291 208.440736 
L 310.618179 208.166138 
L 314.255037 208.166138 
L 314.384925 207.891541 
L 321.074146 207.891541 
L 321.204034 207.616944 
L 324.775949 207.616944 
L 324.905836 207.342347 
L 327.828312 207.342347 
L 327.9582 207.06775 
L 330.231236 207.06775 
L 330.361124 206.793153 
L 337.375065 206.793153 
L 337.504953 206.518556 
L 345.687884 206.518556 
L 345.817772 206.243959 
L 349.909237 206.243959 
L 350.039125 205.969362 
L 351.402947 205.969362 
L 351.532835 205.694765 
L 351.79261 205.694765 
L 351.922498 205.420168 
L 353.416208 205.420168 
L 353.546095 205.145571 
L 355.169693 205.145571 
L 355.299581 204.870974 
L 356.533515 204.870974 
L 356.663402 204.596377 
L 357.377785 204.596377 
L 357.507673 204.32178 
L 357.702505 204.32178 
L 357.832393 204.047183 
L 358.092168 204.047183 
L 358.222056 203.772586 
L 358.741607 203.772586 
L 358.871495 203.497989 
L 359.391046 203.497989 
L 359.520934 203.223392 
L 359.845653 203.223392 
L 359.975541 202.948795 
L 360.235317 202.948795 
L 360.365205 202.674198 
L 361.079588 202.674198 
L 361.209475 202.3996 
L 361.599139 202.3996 
L 361.729027 202.125003 
L 361.858914 202.125003 
L 361.988802 201.850406 
L 362.11869 201.850406 
L 362.248578 201.575809 
L 362.573297 201.575809 
L 362.768129 201.026615 
L 363.157792 201.026615 
L 363.28768 200.752018 
L 363.352624 200.752018 
L 363.482512 200.477421 
L 363.547456 200.477421 
L 363.677343 200.202824 
L 363.742287 200.202824 
L 363.872175 199.928227 
L 364.002063 199.928227 
L 364.196895 199.379033 
L 364.261839 199.379033 
L 364.391726 199.104436 
L 364.45667 199.104436 
L 364.586558 198.829839 
L 364.846334 198.829839 
L 364.976221 198.555242 
L 365.171053 198.555242 
L 365.300941 198.280645 
L 365.430829 198.280645 
L 365.560717 197.456854 
L 365.690604 197.456854 
L 365.885436 196.907659 
L 366.015324 196.907659 
L 366.210155 196.358465 
L 366.340043 196.358465 
L 366.664763 194.161689 
L 366.729707 194.161689 
L 366.989482 193.337898 
L 367.054426 193.337898 
L 367.11937 193.063301 
L 367.44409 189.768136 
L 367.509033 189.768136 
L 367.638921 189.493539 
L 367.898697 186.472972 
L 368.158472 184.550792 
L 368.28836 182.079419 
L 368.353304 182.079419 
L 368.483192 181.255628 
L 368.807911 179.333448 
L 368.872855 179.333448 
L 369.132631 177.960463 
L 369.392406 177.136672 
L 369.522294 175.214493 
L 369.587238 175.214493 
L 370.041845 173.017716 
L 370.301621 171.644731 
L 370.496453 170.546343 
L 371.535555 158.73867 
L 371.730387 158.189476 
L 371.795331 158.189476 
L 371.990162 157.365684 
L 372.12005 157.365684 
L 372.314882 156.267296 
L 372.379826 156.267296 
L 372.509714 155.992699 
L 372.899377 155.992699 
L 373.094209 155.443505 
L 373.159153 155.443505 
L 373.28904 155.168908 
L 373.483872 155.168908 
L 373.61376 154.894311 
L 373.873535 154.894311 
L 374.003423 154.619714 
L 374.198255 154.619714 
L 374.328143 154.345117 
L 374.458031 154.345117 
L 374.587918 154.07052 
L 374.912638 154.07052 
L 375.042526 153.795923 
L 375.237357 153.795923 
L 375.367245 153.521326 
L 375.886796 153.521326 
L 376.016684 153.246729 
L 376.081628 153.246729 
L 376.27646 152.697535 
L 376.666123 152.697535 
L 376.796011 152.422938 
L 376.990843 152.422938 
L 377.12073 152.148341 
L 377.250618 152.148341 
L 377.380506 151.873743 
L 377.770169 151.873743 
L 377.900057 151.599146 
L 378.354664 151.599146 
L 378.484552 151.324549 
L 378.61444 151.324549 
L 378.744328 151.049952 
L 379.069047 151.049952 
L 379.198935 150.775355 
L 379.78343 150.775355 
L 379.913318 150.500758 
L 380.367925 150.500758 
L 380.497813 150.226161 
L 380.822533 150.226161 
L 380.95242 149.951564 
L 381.147252 149.951564 
L 381.27714 149.676967 
L 381.666803 149.676967 
L 381.796691 149.40237 
L 381.991523 149.40237 
L 382.12141 149.127773 
L 382.381186 149.127773 
L 382.511074 148.853176 
L 383.160513 148.853176 
L 383.290401 148.578579 
L 383.61512 148.578579 
L 383.745008 148.303982 
L 384.394447 148.303982 
L 384.524335 148.029385 
L 384.719166 148.029385 
L 384.849054 147.754788 
L 385.433549 147.754788 
L 385.563437 147.480191 
L 385.888157 147.480191 
L 386.018044 147.205594 
L 386.27782 147.205594 
L 386.407708 146.930997 
L 386.537596 146.930997 
L 386.667483 146.6564 
L 386.732427 146.6564 
L 386.862315 146.381802 
L 387.251978 146.381802 
L 387.381866 146.107205 
L 387.576698 146.107205 
L 387.706586 145.832608 
L 387.836473 145.832608 
L 387.966361 145.558011 
L 388.226137 145.558011 
L 388.356025 145.283414 
L 388.550856 145.283414 
L 388.745688 144.73422 
L 389.005464 144.73422 
L 389.265239 143.910429 
L 389.395127 143.910429 
L 389.525015 143.635832 
L 389.78479 143.635832 
L 389.979622 143.086638 
L 390.10951 143.086638 
L 390.239398 142.812041 
L 390.369285 142.812041 
L 390.564117 142.262847 
L 390.629061 142.262847 
L 390.758949 141.98825 
L 390.823893 141.98825 
L 390.953781 141.713653 
L 391.083668 141.713653 
L 391.343444 140.340667 
L 391.473332 140.06607 
L 391.538276 140.06607 
L 391.668163 139.791473 
L 391.862995 137.869294 
L 392.057827 136.221712 
L 392.122771 136.221712 
L 392.317602 133.750338 
L 392.512434 133.750338 
L 392.837154 132.65195 
L 392.902098 132.65195 
L 393.161873 131.828159 
L 393.421649 131.828159 
L 393.551536 131.553562 
L 393.61648 131.553562 
L 393.876256 130.729771 
L 394.071088 130.729771 
L 394.200975 130.455174 
L 394.265919 130.455174 
L 394.460751 129.90598 
L 394.525695 129.90598 
L 394.785471 129.082188 
L 394.850414 129.082188 
L 395.045246 128.532994 
L 395.11019 128.532994 
L 395.175134 128.258397 
L 395.305022 127.434606 
L 395.369966 127.434606 
L 395.499853 127.160009 
L 395.629741 127.160009 
L 395.759629 126.885412 
L 395.824573 126.885412 
L 396.019405 126.336218 
L 396.149292 126.336218 
L 396.344124 125.787024 
L 396.6039 125.787024 
L 396.863675 124.963233 
L 396.993563 124.963233 
L 397.123451 124.414039 
L 397.318283 123.31565 
L 397.578058 122.491859 
L 397.707946 122.491859 
L 397.902778 121.668068 
L 398.097609 120.020486 
L 398.162553 120.020486 
L 398.292441 119.745889 
L 398.422329 118.372904 
L 398.487273 79.105526 
L 398.487273 79.105526 
" clip-path="url(#pa13b0f8eb5)" style="fill: none; stroke: #ff7f0e; stroke-width: 1.5; stroke-linecap: square"/>
   </g>
   <g id="patch_3">
    <path d="M 57.6 307.584 
L 57.6 41.472 
" style="fill: none; stroke: #000000; stroke-width: 0.8; stroke-linejoin: miter; stroke-linecap: square"/>
   </g>
   <g id="patch_4">
    <path d="M 414.72 307.584 
L 414.72 41.472 
" style="fill: none; stroke: #000000; stroke-width: 0.8; stroke-linejoin: miter; stroke-linecap: square"/>
   </g>
   <g id="patch_5">
    <path d="M 57.6 307.584 
L 414.72 307.584 
" style="fill: none; stroke: #000000; stroke-width: 0.8; stroke-linejoin: miter; stroke-linecap: square"/>
   </g>
   <g id="patch_6">
    <path d="M 57.6 41.472 
L 414.72 41.472 
" style="fill: none; stroke: #000000; stroke-width: 0.8; stroke-linejoin: miter; stroke-linecap: square"/>
   </g>
   <g id="text_14">
    <!-- pointer array pc-dependence aligned test (reference) -->
    <g transform="translate(76.089375 35.472) scale(0.12 -0.12)">
     <defs>
      <path id="DejaVuSans-70" d="M 1159 525 
L 1159 -1331 
L 581 -1331 
L 581 3500 
L 1159 3500 
L 1159 2969 
Q 1341 3281 1617 3432 
Q 1894 3584 2278 3584 
Q 2916 3584 3314 3078 
Q 3713 2572 3713 1747 
Q 3713 922 3314 415 
Q 2916 -91 2278 -91 
Q 1894 -91 1617 61 
Q 1341 213 1159 525 
z
M 3116 1747 
Q 3116 2381 2855 2742 
Q 2594 3103 2138 3103 
Q 1681 3103 1420 2742 
Q 1159 2381 1159 1747 
Q 1159 1113 1420 752 
Q 1681 391 2138 391 
Q 2594 391 2855 752 
Q 3116 1113 3116 1747 
z
" transform="scale(0.015625)"/>
      <path id="DejaVuSans-6f" d="M 1959 3097 
Q 1497 3097 1228 2736 
Q 959 2375 959 1747 
Q 959 1119 1226 758 
Q 1494 397 1959 397 
Q 2419 397 2687 759 
Q 2956 1122 2956 1747 
Q 2956 2369 2687 2733 
Q 2419 3097 1959 3097 
z
M 1959 3584 
Q 2709 3584 3137 3096 
Q 3566 2609 3566 1747 
Q 3566 888 3137 398 
Q 2709 -91 1959 -91 
Q 1206 -91 779 398 
Q 353 888 353 1747 
Q 353 2609 779 3096 
Q 1206 3584 1959 3584 
z
" transform="scale(0.015625)"/>
      <path id="DejaVuSans-79" d="M 2059 -325 
Q 1816 -950 1584 -1140 
Q 1353 -1331 966 -1331 
L 506 -1331 
L 506 -850 
L 844 -850 
Q 1081 -850 1212 -737 
Q 1344 -625 1503 -206 
L 1606 56 
L 191 3500 
L 800 3500 
L 1894 763 
L 2988 3500 
L 3597 3500 
L 2059 -325 
z
" transform="scale(0.015625)"/>
      <path id="DejaVuSans-63" d="M 3122 3366 
L 3122 2828 
Q 2878 2963 2633 3030 
Q 2388 3097 2138 3097 
Q 1578 3097 1268 2742 
Q 959 2388 959 1747 
Q 959 1106 1268 751 
Q 1578 397 2138 397 
Q 2388 397 2633 464 
Q 2878 531 3122 666 
L 3122 134 
Q 2881 22 2623 -34 
Q 2366 -91 2075 -91 
Q 1284 -91 818 406 
Q 353 903 353 1747 
Q 353 2603 823 3093 
Q 1294 3584 2113 3584 
Q 2378 3584 2631 3529 
Q 2884 3475 3122 3366 
z
" transform="scale(0.015625)"/>
      <path id="DejaVuSans-2d" d="M 313 2009 
L 1997 2009 
L 1997 1497 
L 313 1497 
L 313 2009 
z
" transform="scale(0.015625)"/>
      <path id="DejaVuSans-64" d="M 2906 2969 
L 2906 4863 
L 3481 4863 
L 3481 0 
L 2906 0 
L 2906 525 
Q 2725 213 2448 61 
Q 2172 -91 1784 -91 
Q 1150 -91 751 415 
Q 353 922 353 1747 
Q 353 2572 751 3078 
Q 1150 3584 1784 3584 
Q 2172 3584 2448 3432 
Q 2725 3281 2906 2969 
z
M 947 1747 
Q 947 1113 1208 752 
Q 1469 391 1925 391 
Q 2381 391 2643 752 
Q 2906 1113 2906 1747 
Q 2906 2381 2643 2742 
Q 2381 3103 1925 3103 
Q 1469 3103 1208 2742 
Q 947 2381 947 1747 
z
" transform="scale(0.015625)"/>
      <path id="DejaVuSans-6c" d="M 603 4863 
L 1178 4863 
L 1178 0 
L 603 0 
L 603 4863 
z
" transform="scale(0.015625)"/>
      <path id="DejaVuSans-67" d="M 2906 1791 
Q 2906 2416 2648 2759 
Q 2391 3103 1925 3103 
Q 1463 3103 1205 2759 
Q 947 2416 947 1791 
Q 947 1169 1205 825 
Q 1463 481 1925 481 
Q 2391 481 2648 825 
Q 2906 1169 2906 1791 
z
M 3481 434 
Q 3481 -459 3084 -895 
Q 2688 -1331 1869 -1331 
Q 1566 -1331 1297 -1286 
Q 1028 -1241 775 -1147 
L 775 -588 
Q 1028 -725 1275 -790 
Q 1522 -856 1778 -856 
Q 2344 -856 2625 -561 
Q 2906 -266 2906 331 
L 2906 616 
Q 2728 306 2450 153 
Q 2172 0 1784 0 
Q 1141 0 747 490 
Q 353 981 353 1791 
Q 353 2603 747 3093 
Q 1141 3584 1784 3584 
Q 2172 3584 2450 3431 
Q 2728 3278 2906 2969 
L 2906 3500 
L 3481 3500 
L 3481 434 
z
" transform="scale(0.015625)"/>
      <path id="DejaVuSans-28" d="M 1984 4856 
Q 1566 4138 1362 3434 
Q 1159 2731 1159 2009 
Q 1159 1288 1364 580 
Q 1569 -128 1984 -844 
L 1484 -844 
Q 1016 -109 783 600 
Q 550 1309 550 2009 
Q 550 2706 781 3412 
Q 1013 4119 1484 4856 
L 1984 4856 
z
" transform="scale(0.015625)"/>
      <path id="DejaVuSans-66" d="M 2375 4863 
L 2375 4384 
L 1825 4384 
Q 1516 4384 1395 4259 
Q 1275 4134 1275 3809 
L 1275 3500 
L 2222 3500 
L 2222 3053 
L 1275 3053 
L 1275 0 
L 697 0 
L 697 3053 
L 147 3053 
L 147 3500 
L 697 3500 
L 697 3744 
Q 697 4328 969 4595 
Q 1241 4863 1831 4863 
L 2375 4863 
z
" transform="scale(0.015625)"/>
      <path id="DejaVuSans-29" d="M 513 4856 
L 1013 4856 
Q 1481 4119 1714 3412 
Q 1947 2706 1947 2009 
Q 1947 1309 1714 600 
Q 1481 -109 1013 -844 
L 513 -844 
Q 928 -128 1133 580 
Q 1338 1288 1338 2009 
Q 1338 2731 1133 3434 
Q 928 4138 513 4856 
z
" transform="scale(0.015625)"/>
     </defs>
     <use xlink:href="#DejaVuSans-70"/>
     <use xlink:href="#DejaVuSans-6f" x="63.476562"/>
     <use xlink:href="#DejaVuSans-69" x="124.658203"/>
     <use xlink:href="#DejaVuSans-6e" x="152.441406"/>
     <use xlink:href="#DejaVuSans-74" x="215.820312"/>
     <use xlink:href="#DejaVuSans-65" x="255.029297"/>
     <use xlink:href="#DejaVuSans-72" x="316.552734"/>
     <use xlink:href="#DejaVuSans-20" x="357.666016"/>
     <use xlink:href="#DejaVuSans-61" x="389.453125"/>
     <use xlink:href="#DejaVuSans-72" x="450.732422"/>
     <use xlink:href="#DejaVuSans-72" x="490.095703"/>
     <use xlink:href="#DejaVuSans-61" x="531.208984"/>
     <use xlink:href="#DejaVuSans-79" x="592.488281"/>
     <use xlink:href="#DejaVuSans-20" x="651.667969"/>
     <use xlink:href="#DejaVuSans-70" x="683.455078"/>
     <use xlink:href="#DejaVuSans-63" x="746.931641"/>
     <use xlink:href="#DejaVuSans-2d" x="801.912109"/>
     <use xlink:href="#DejaVuSans-64" x="837.996094"/>
     <use xlink:href="#DejaVuSans-65" x="901.472656"/>
     <use xlink:href="#DejaVuSans-70" x="962.996094"/>
     <use xlink:href="#DejaVuSans-65" x="1026.472656"/>
     <use xlink:href="#DejaVuSans-6e" x="1087.996094"/>
     <use xlink:href="#DejaVuSans-64" x="1151.375"/>
     <use xlink:href="#DejaVuSans-65" x="1214.851562"/>
     <use xlink:href="#DejaVuSans-6e" x="1276.375"/>
     <use xlink:href="#DejaVuSans-63" x="1339.753906"/>
     <use xlink:href="#DejaVuSans-65" x="1394.734375"/>
     <use xlink:href="#DejaVuSans-20" x="1456.257812"/>
     <use xlink:href="#DejaVuSans-61" x="1488.044922"/>
     <use xlink:href="#DejaVuSans-6c" x="1549.324219"/>
     <use xlink:href="#DejaVuSans-69" x="1577.107422"/>
     <use xlink:href="#DejaVuSans-67" x="1604.890625"/>
     <use xlink:href="#DejaVuSans-6e" x="1668.367188"/>
     <use xlink:href="#DejaVuSans-65" x="1731.746094"/>
     <use xlink:href="#DejaVuSans-64" x="1793.269531"/>
     <use xlink:href="#DejaVuSans-20" x="1856.746094"/>
     <use xlink:href="#DejaVuSans-74" x="1888.533203"/>
     <use xlink:href="#DejaVuSans-65" x="1927.742188"/>
     <use xlink:href="#DejaVuSans-73" x="1989.265625"/>
     <use xlink:href="#DejaVuSans-74" x="2041.365234"/>
     <use xlink:href="#DejaVuSans-20" x="2080.574219"/>
     <use xlink:href="#DejaVuSans-28" x="2112.361328"/>
     <use xlink:href="#DejaVuSans-72" x="2151.375"/>
     <use xlink:href="#DejaVuSans-65" x="2190.238281"/>
     <use xlink:href="#DejaVuSans-66" x="2251.761719"/>
     <use xlink:href="#DejaVuSans-65" x="2286.966797"/>
     <use xlink:href="#DejaVuSans-72" x="2348.490234"/>
     <use xlink:href="#DejaVuSans-65" x="2387.353516"/>
     <use xlink:href="#DejaVuSans-6e" x="2448.876953"/>
     <use xlink:href="#DejaVuSans-63" x="2512.255859"/>
     <use xlink:href="#DejaVuSans-65" x="2567.236328"/>
     <use xlink:href="#DejaVuSans-29" x="2628.759766"/>
    </g>
   </g>
   <g id="legend_1">
    <g id="patch_7">
     <path d="M 64.6 78.82825 
L 166.359375 78.82825 
Q 168.359375 78.82825 168.359375 76.82825 
L 168.359375 48.472 
Q 168.359375 46.472 166.359375 46.472 
L 64.6 46.472 
Q 62.6 46.472 62.6 48.472 
L 62.6 76.82825 
Q 62.6 78.82825 64.6 78.82825 
z
" style="fill: #ffffff; opacity: 0.8; stroke: #cccccc; stroke-linejoin: miter"/>
    </g>
    <g id="line2d_14">
     <path d="M 66.6 54.570437 
L 76.6 54.570437 
L 86.6 54.570437 
" style="fill: none; stroke: #1f77b4; stroke-width: 1.5; stroke-linecap: square"/>
    </g>
    <g id="text_15">
     <!-- measurement -->
     <g transform="translate(94.6 58.070437) scale(0.1 -0.1)">
      <use xlink:href="#DejaVuSans-6d"/>
      <use xlink:href="#DejaVuSans-65" x="97.412109"/>
      <use xlink:href="#DejaVuSans-61" x="158.935547"/>
      <use xlink:href="#DejaVuSans-73" x="220.214844"/>
      <use xlink:href="#DejaVuSans-75" x="272.314453"/>
      <use xlink:href="#DejaVuSans-72" x="335.693359"/>
      <use xlink:href="#DejaVuSans-65" x="374.556641"/>
      <use xlink:href="#DejaVuSans-6d" x="436.080078"/>
      <use xlink:href="#DejaVuSans-65" x="533.492188"/>
      <use xlink:href="#DejaVuSans-6e" x="595.015625"/>
      <use xlink:href="#DejaVuSans-74" x="658.394531"/>
     </g>
    </g>
    <g id="line2d_15">
     <path d="M 66.6 69.248562 
L 76.6 69.248562 
L 86.6 69.248562 
" style="fill: none; stroke: #ff7f0e; stroke-width: 1.5; stroke-linecap: square"/>
    </g>
    <g id="text_16">
     <!-- reference -->
     <g transform="translate(94.6 72.748562) scale(0.1 -0.1)">
      <use xlink:href="#DejaVuSans-72"/>
      <use xlink:href="#DejaVuSans-65" x="38.863281"/>
      <use xlink:href="#DejaVuSans-66" x="100.386719"/>
      <use xlink:href="#DejaVuSans-65" x="135.591797"/>
      <use xlink:href="#DejaVuSans-72" x="197.115234"/>
      <use xlink:href="#DejaVuSans-65" x="235.978516"/>
      <use xlink:href="#DejaVuSans-6e" x="297.501953"/>
      <use xlink:href="#DejaVuSans-63" x="360.880859"/>
      <use xlink:href="#DejaVuSans-65" x="415.861328"/>
     </g>
    </g>
   </g>
  </g>
 </g>
 <defs>
  <clipPath id="pa13b0f8eb5">
   <rect x="57.6" y="41.472" width="357.12" height="266.112"/>
  </clipPath>
 </defs>
</svg>
